<?xml version="1.0" encoding="utf-8" standalone="no"?>
<!DOCTYPE svg PUBLIC "-//W3C//DTD SVG 1.1//EN"
  "http://www.w3.org/Graphics/SVG/1.1/DTD/svg11.dtd">
<svg height="310.86825pt" version="1.1" viewBox="0 0 408.10125 310.86825" width="408.10125pt" xmlns="http://www.w3.org/2000/svg" xmlns:xlink="http://www.w3.org/1999/xlink">
 <metadata>
  <rdf:RDF xmlns:cc="http://creativecommons.org/ns#" xmlns:dc="http://purl.org/dc/elements/1.1/" xmlns:rdf="http://www.w3.org/1999/02/22-rdf-syntax-ns#">
   <cc:Work>
    <dc:type rdf:resource="http://purl.org/dc/dcmitype/StillImage"/>
    <dc:date>2021-06-22T18:43:41.827329</dc:date>
    <dc:format>image/svg+xml</dc:format>
    <dc:creator>
     <cc:Agent>
      <dc:title>Matplotlib v3.4.2, https://matplotlib.org/</dc:title>
     </cc:Agent>
    </dc:creator>
   </cc:Work>
  </rdf:RDF>
 </metadata>
 <defs>
  <style type="text/css">*{stroke-linecap:butt;stroke-linejoin:round;}</style>
 </defs>
 <g id="figure_1">
  <g id="patch_1">
   <path d="M 0 310.86825 
L 408.10125 310.86825 
L 408.10125 0 
L 0 0 
z
" style="fill:#ffffff;"/>
  </g>
  <g id="axes_1">
   <g id="patch_2">
    <path d="M 43.78125 273.312 
L 400.90125 273.312 
L 400.90125 7.2 
L 43.78125 7.2 
z
" style="fill:#ffffff;"/>
   </g>
   <g id="patch_3">
    <path clip-path="url(#pa04861e572)" d="M 62.11776 273.312 
L 63.730505 273.312 
L 63.730505 270.337352 
L 62.11776 270.337352 
z
" style="fill:#1f77b4;"/>
   </g>
   <g id="patch_4">
    <path clip-path="url(#pa04861e572)" d="M 63.730505 273.312 
L 65.343251 273.312 
L 65.343251 268.552563 
L 63.730505 268.552563 
z
" style="fill:#1f77b4;"/>
   </g>
   <g id="patch_5">
    <path clip-path="url(#pa04861e572)" d="M 65.343251 273.312 
L 66.955996 273.312 
L 66.955996 269.742423 
L 65.343251 269.742423 
z
" style="fill:#1f77b4;"/>
   </g>
   <g id="patch_6">
    <path clip-path="url(#pa04861e572)" d="M 66.955996 273.312 
L 68.568742 273.312 
L 68.568742 270.337352 
L 66.955996 270.337352 
z
" style="fill:#1f77b4;"/>
   </g>
   <g id="patch_7">
    <path clip-path="url(#pa04861e572)" d="M 68.568742 273.312 
L 70.181487 273.312 
L 70.181487 268.552563 
L 68.568742 268.552563 
z
" style="fill:#1f77b4;"/>
   </g>
   <g id="patch_8">
    <path clip-path="url(#pa04861e572)" d="M 70.181487 273.312 
L 71.794232 273.312 
L 71.794232 266.172845 
L 70.181487 266.172845 
z
" style="fill:#1f77b4;"/>
   </g>
   <g id="patch_9">
    <path clip-path="url(#pa04861e572)" d="M 71.794232 273.312 
L 73.406978 273.312 
L 73.406978 263.198197 
L 71.794232 263.198197 
z
" style="fill:#1f77b4;"/>
   </g>
   <g id="patch_10">
    <path clip-path="url(#pa04861e572)" d="M 73.406978 273.312 
L 75.019723 273.312 
L 75.019723 264.982986 
L 73.406978 264.982986 
z
" style="fill:#1f77b4;"/>
   </g>
   <g id="patch_11">
    <path clip-path="url(#pa04861e572)" d="M 75.019723 273.312 
L 76.632468 273.312 
L 76.632468 263.793127 
L 75.019723 263.793127 
z
" style="fill:#1f77b4;"/>
   </g>
   <g id="patch_12">
    <path clip-path="url(#pa04861e572)" d="M 76.632468 273.312 
L 78.245214 273.312 
L 78.245214 260.223549 
L 76.632468 260.223549 
z
" style="fill:#1f77b4;"/>
   </g>
   <g id="patch_13">
    <path clip-path="url(#pa04861e572)" d="M 78.245214 273.312 
L 79.857959 273.312 
L 79.857959 261.413408 
L 78.245214 261.413408 
z
" style="fill:#1f77b4;"/>
   </g>
   <g id="patch_14">
    <path clip-path="url(#pa04861e572)" d="M 79.857959 273.312 
L 81.470705 273.312 
L 81.470705 260.223549 
L 79.857959 260.223549 
z
" style="fill:#1f77b4;"/>
   </g>
   <g id="patch_15">
    <path clip-path="url(#pa04861e572)" d="M 81.470705 273.312 
L 83.08345 273.312 
L 83.08345 257.248901 
L 81.470705 257.248901 
z
" style="fill:#1f77b4;"/>
   </g>
   <g id="patch_16">
    <path clip-path="url(#pa04861e572)" d="M 83.08345 273.312 
L 84.696195 273.312 
L 84.696195 255.464113 
L 83.08345 255.464113 
z
" style="fill:#1f77b4;"/>
   </g>
   <g id="patch_17">
    <path clip-path="url(#pa04861e572)" d="M 84.696195 273.312 
L 86.308941 273.312 
L 86.308941 257.843831 
L 84.696195 257.843831 
z
" style="fill:#1f77b4;"/>
   </g>
   <g id="patch_18">
    <path clip-path="url(#pa04861e572)" d="M 86.308941 273.312 
L 87.921686 273.312 
L 87.921686 257.843831 
L 86.308941 257.843831 
z
" style="fill:#1f77b4;"/>
   </g>
   <g id="patch_19">
    <path clip-path="url(#pa04861e572)" d="M 87.921686 273.312 
L 89.534432 273.312 
L 89.534432 251.894535 
L 87.921686 251.894535 
z
" style="fill:#1f77b4;"/>
   </g>
   <g id="patch_20">
    <path clip-path="url(#pa04861e572)" d="M 89.534432 273.312 
L 91.147177 273.312 
L 91.147177 257.843831 
L 89.534432 257.843831 
z
" style="fill:#1f77b4;"/>
   </g>
   <g id="patch_21">
    <path clip-path="url(#pa04861e572)" d="M 91.147177 273.312 
L 92.759922 273.312 
L 92.759922 251.299606 
L 91.147177 251.299606 
z
" style="fill:#1f77b4;"/>
   </g>
   <g id="patch_22">
    <path clip-path="url(#pa04861e572)" d="M 92.759922 273.312 
L 94.372668 273.312 
L 94.372668 250.109746 
L 92.759922 250.109746 
z
" style="fill:#1f77b4;"/>
   </g>
   <g id="patch_23">
    <path clip-path="url(#pa04861e572)" d="M 94.372668 273.312 
L 95.985413 273.312 
L 95.985413 250.109746 
L 94.372668 250.109746 
z
" style="fill:#1f77b4;"/>
   </g>
   <g id="patch_24">
    <path clip-path="url(#pa04861e572)" d="M 95.985413 273.312 
L 97.598158 273.312 
L 97.598158 245.945239 
L 95.985413 245.945239 
z
" style="fill:#1f77b4;"/>
   </g>
   <g id="patch_25">
    <path clip-path="url(#pa04861e572)" d="M 97.598158 273.312 
L 99.210904 273.312 
L 99.210904 243.565521 
L 97.598158 243.565521 
z
" style="fill:#1f77b4;"/>
   </g>
   <g id="patch_26">
    <path clip-path="url(#pa04861e572)" d="M 99.210904 273.312 
L 100.823649 273.312 
L 100.823649 244.75538 
L 99.210904 244.75538 
z
" style="fill:#1f77b4;"/>
   </g>
   <g id="patch_27">
    <path clip-path="url(#pa04861e572)" d="M 100.823649 273.312 
L 102.436395 273.312 
L 102.436395 240.590873 
L 100.823649 240.590873 
z
" style="fill:#1f77b4;"/>
   </g>
   <g id="patch_28">
    <path clip-path="url(#pa04861e572)" d="M 102.436395 273.312 
L 104.04914 273.312 
L 104.04914 244.75538 
L 102.436395 244.75538 
z
" style="fill:#1f77b4;"/>
   </g>
   <g id="patch_29">
    <path clip-path="url(#pa04861e572)" d="M 104.04914 273.312 
L 105.661885 273.312 
L 105.661885 243.565521 
L 104.04914 243.565521 
z
" style="fill:#1f77b4;"/>
   </g>
   <g id="patch_30">
    <path clip-path="url(#pa04861e572)" d="M 105.661885 273.312 
L 107.274631 273.312 
L 107.274631 238.806085 
L 105.661885 238.806085 
z
" style="fill:#1f77b4;"/>
   </g>
   <g id="patch_31">
    <path clip-path="url(#pa04861e572)" d="M 107.274631 273.312 
L 108.887376 273.312 
L 108.887376 243.565521 
L 107.274631 243.565521 
z
" style="fill:#1f77b4;"/>
   </g>
   <g id="patch_32">
    <path clip-path="url(#pa04861e572)" d="M 108.887376 273.312 
L 110.500121 273.312 
L 110.500121 247.730028 
L 108.887376 247.730028 
z
" style="fill:#1f77b4;"/>
   </g>
   <g id="patch_33">
    <path clip-path="url(#pa04861e572)" d="M 110.500121 273.312 
L 112.112867 273.312 
L 112.112867 242.375662 
L 110.500121 242.375662 
z
" style="fill:#1f77b4;"/>
   </g>
   <g id="patch_34">
    <path clip-path="url(#pa04861e572)" d="M 112.112867 273.312 
L 113.725612 273.312 
L 113.725612 224.527775 
L 112.112867 224.527775 
z
" style="fill:#1f77b4;"/>
   </g>
   <g id="patch_35">
    <path clip-path="url(#pa04861e572)" d="M 113.725612 273.312 
L 115.338358 273.312 
L 115.338358 232.261859 
L 113.725612 232.261859 
z
" style="fill:#1f77b4;"/>
   </g>
   <g id="patch_36">
    <path clip-path="url(#pa04861e572)" d="M 115.338358 273.312 
L 116.951103 273.312 
L 116.951103 231.66693 
L 115.338358 231.66693 
z
" style="fill:#1f77b4;"/>
   </g>
   <g id="patch_37">
    <path clip-path="url(#pa04861e572)" d="M 116.951103 273.312 
L 118.563848 273.312 
L 118.563848 231.072 
L 116.951103 231.072 
z
" style="fill:#1f77b4;"/>
   </g>
   <g id="patch_38">
    <path clip-path="url(#pa04861e572)" d="M 118.563848 273.312 
L 120.176594 273.312 
L 120.176594 226.312563 
L 118.563848 226.312563 
z
" style="fill:#1f77b4;"/>
   </g>
   <g id="patch_39">
    <path clip-path="url(#pa04861e572)" d="M 120.176594 273.312 
L 121.789339 273.312 
L 121.789339 229.287211 
L 120.176594 229.287211 
z
" style="fill:#1f77b4;"/>
   </g>
   <g id="patch_40">
    <path clip-path="url(#pa04861e572)" d="M 121.789339 273.312 
L 123.402084 273.312 
L 123.402084 232.261859 
L 121.789339 232.261859 
z
" style="fill:#1f77b4;"/>
   </g>
   <g id="patch_41">
    <path clip-path="url(#pa04861e572)" d="M 123.402084 273.312 
L 125.01483 273.312 
L 125.01483 216.198761 
L 123.402084 216.198761 
z
" style="fill:#1f77b4;"/>
   </g>
   <g id="patch_42">
    <path clip-path="url(#pa04861e572)" d="M 125.01483 273.312 
L 126.627575 273.312 
L 126.627575 223.932845 
L 125.01483 223.932845 
z
" style="fill:#1f77b4;"/>
   </g>
   <g id="patch_43">
    <path clip-path="url(#pa04861e572)" d="M 126.627575 273.312 
L 128.240321 273.312 
L 128.240321 211.439324 
L 126.627575 211.439324 
z
" style="fill:#1f77b4;"/>
   </g>
   <g id="patch_44">
    <path clip-path="url(#pa04861e572)" d="M 128.240321 273.312 
L 129.853066 273.312 
L 129.853066 216.198761 
L 128.240321 216.198761 
z
" style="fill:#1f77b4;"/>
   </g>
   <g id="patch_45">
    <path clip-path="url(#pa04861e572)" d="M 129.853066 273.312 
L 131.465811 273.312 
L 131.465811 222.742986 
L 129.853066 222.742986 
z
" style="fill:#1f77b4;"/>
   </g>
   <g id="patch_46">
    <path clip-path="url(#pa04861e572)" d="M 131.465811 273.312 
L 133.078557 273.312 
L 133.078557 234.641577 
L 131.465811 234.641577 
z
" style="fill:#1f77b4;"/>
   </g>
   <g id="patch_47">
    <path clip-path="url(#pa04861e572)" d="M 133.078557 273.312 
L 134.691302 273.312 
L 134.691302 219.768338 
L 133.078557 219.768338 
z
" style="fill:#1f77b4;"/>
   </g>
   <g id="patch_48">
    <path clip-path="url(#pa04861e572)" d="M 134.691302 273.312 
L 136.304047 273.312 
L 136.304047 215.603831 
L 134.691302 215.603831 
z
" style="fill:#1f77b4;"/>
   </g>
   <g id="patch_49">
    <path clip-path="url(#pa04861e572)" d="M 136.304047 273.312 
L 137.916793 273.312 
L 137.916793 212.629183 
L 136.304047 212.629183 
z
" style="fill:#1f77b4;"/>
   </g>
   <g id="patch_50">
    <path clip-path="url(#pa04861e572)" d="M 137.916793 273.312 
L 139.529538 273.312 
L 139.529538 209.059606 
L 137.916793 209.059606 
z
" style="fill:#1f77b4;"/>
   </g>
   <g id="patch_51">
    <path clip-path="url(#pa04861e572)" d="M 139.529538 273.312 
L 141.142284 273.312 
L 141.142284 221.553127 
L 139.529538 221.553127 
z
" style="fill:#1f77b4;"/>
   </g>
   <g id="patch_52">
    <path clip-path="url(#pa04861e572)" d="M 141.142284 273.312 
L 142.755029 273.312 
L 142.755029 198.350873 
L 141.142284 198.350873 
z
" style="fill:#1f77b4;"/>
   </g>
   <g id="patch_53">
    <path clip-path="url(#pa04861e572)" d="M 142.755029 273.312 
L 144.367774 273.312 
L 144.367774 213.819042 
L 142.755029 213.819042 
z
" style="fill:#1f77b4;"/>
   </g>
   <g id="patch_54">
    <path clip-path="url(#pa04861e572)" d="M 144.367774 273.312 
L 145.98052 273.312 
L 145.98052 212.034254 
L 144.367774 212.034254 
z
" style="fill:#1f77b4;"/>
   </g>
   <g id="patch_55">
    <path clip-path="url(#pa04861e572)" d="M 145.98052 273.312 
L 147.593265 273.312 
L 147.593265 197.755944 
L 145.98052 197.755944 
z
" style="fill:#1f77b4;"/>
   </g>
   <g id="patch_56">
    <path clip-path="url(#pa04861e572)" d="M 147.593265 273.312 
L 149.20601 273.312 
L 149.20601 212.034254 
L 147.593265 212.034254 
z
" style="fill:#1f77b4;"/>
   </g>
   <g id="patch_57">
    <path clip-path="url(#pa04861e572)" d="M 149.20601 273.312 
L 150.818756 273.312 
L 150.818756 201.325521 
L 149.20601 201.325521 
z
" style="fill:#1f77b4;"/>
   </g>
   <g id="patch_58">
    <path clip-path="url(#pa04861e572)" d="M 150.818756 273.312 
L 152.431501 273.312 
L 152.431501 206.084958 
L 150.818756 206.084958 
z
" style="fill:#1f77b4;"/>
   </g>
   <g id="patch_59">
    <path clip-path="url(#pa04861e572)" d="M 152.431501 273.312 
L 154.044247 273.312 
L 154.044247 207.274817 
L 152.431501 207.274817 
z
" style="fill:#1f77b4;"/>
   </g>
   <g id="patch_60">
    <path clip-path="url(#pa04861e572)" d="M 154.044247 273.312 
L 155.656992 273.312 
L 155.656992 206.679887 
L 154.044247 206.679887 
z
" style="fill:#1f77b4;"/>
   </g>
   <g id="patch_61">
    <path clip-path="url(#pa04861e572)" d="M 155.656992 273.312 
L 157.269737 273.312 
L 157.269737 200.730592 
L 155.656992 200.730592 
z
" style="fill:#1f77b4;"/>
   </g>
   <g id="patch_62">
    <path clip-path="url(#pa04861e572)" d="M 157.269737 273.312 
L 158.882483 273.312 
L 158.882483 203.705239 
L 157.269737 203.705239 
z
" style="fill:#1f77b4;"/>
   </g>
   <g id="patch_63">
    <path clip-path="url(#pa04861e572)" d="M 158.882483 273.312 
L 160.495228 273.312 
L 160.495228 203.705239 
L 158.882483 203.705239 
z
" style="fill:#1f77b4;"/>
   </g>
   <g id="patch_64">
    <path clip-path="url(#pa04861e572)" d="M 160.495228 273.312 
L 162.107974 273.312 
L 162.107974 193.591437 
L 160.495228 193.591437 
z
" style="fill:#1f77b4;"/>
   </g>
   <g id="patch_65">
    <path clip-path="url(#pa04861e572)" d="M 162.107974 273.312 
L 163.720719 273.312 
L 163.720719 200.135662 
L 162.107974 200.135662 
z
" style="fill:#1f77b4;"/>
   </g>
   <g id="patch_66">
    <path clip-path="url(#pa04861e572)" d="M 163.720719 273.312 
L 165.333464 273.312 
L 165.333464 189.42693 
L 163.720719 189.42693 
z
" style="fill:#1f77b4;"/>
   </g>
   <g id="patch_67">
    <path clip-path="url(#pa04861e572)" d="M 165.333464 273.312 
L 166.94621 273.312 
L 166.94621 198.350873 
L 165.333464 198.350873 
z
" style="fill:#1f77b4;"/>
   </g>
   <g id="patch_68">
    <path clip-path="url(#pa04861e572)" d="M 166.94621 273.312 
L 168.558955 273.312 
L 168.558955 203.705239 
L 166.94621 203.705239 
z
" style="fill:#1f77b4;"/>
   </g>
   <g id="patch_69">
    <path clip-path="url(#pa04861e572)" d="M 168.558955 273.312 
L 170.1717 273.312 
L 170.1717 190.021859 
L 168.558955 190.021859 
z
" style="fill:#1f77b4;"/>
   </g>
   <g id="patch_70">
    <path clip-path="url(#pa04861e572)" d="M 170.1717 273.312 
L 171.784446 273.312 
L 171.784446 192.996507 
L 170.1717 192.996507 
z
" style="fill:#1f77b4;"/>
   </g>
   <g id="patch_71">
    <path clip-path="url(#pa04861e572)" d="M 171.784446 273.312 
L 173.397191 273.312 
L 173.397191 196.566085 
L 171.784446 196.566085 
z
" style="fill:#1f77b4;"/>
   </g>
   <g id="patch_72">
    <path clip-path="url(#pa04861e572)" d="M 173.397191 273.312 
L 175.009937 273.312 
L 175.009937 173.363831 
L 173.397191 173.363831 
z
" style="fill:#1f77b4;"/>
   </g>
   <g id="patch_73">
    <path clip-path="url(#pa04861e572)" d="M 175.009937 273.312 
L 176.622682 273.312 
L 176.622682 177.528338 
L 175.009937 177.528338 
z
" style="fill:#1f77b4;"/>
   </g>
   <g id="patch_74">
    <path clip-path="url(#pa04861e572)" d="M 176.622682 273.312 
L 178.235427 273.312 
L 178.235427 205.490028 
L 176.622682 205.490028 
z
" style="fill:#1f77b4;"/>
   </g>
   <g id="patch_75">
    <path clip-path="url(#pa04861e572)" d="M 178.235427 273.312 
L 179.848173 273.312 
L 179.848173 194.781296 
L 178.235427 194.781296 
z
" style="fill:#1f77b4;"/>
   </g>
   <g id="patch_76">
    <path clip-path="url(#pa04861e572)" d="M 179.848173 273.312 
L 181.460918 273.312 
L 181.460918 179.908056 
L 179.848173 179.908056 
z
" style="fill:#1f77b4;"/>
   </g>
   <g id="patch_77">
    <path clip-path="url(#pa04861e572)" d="M 181.460918 273.312 
L 183.073663 273.312 
L 183.073663 189.42693 
L 181.460918 189.42693 
z
" style="fill:#1f77b4;"/>
   </g>
   <g id="patch_78">
    <path clip-path="url(#pa04861e572)" d="M 183.073663 273.312 
L 184.686409 273.312 
L 184.686409 181.692845 
L 183.073663 181.692845 
z
" style="fill:#1f77b4;"/>
   </g>
   <g id="patch_79">
    <path clip-path="url(#pa04861e572)" d="M 184.686409 273.312 
L 186.299154 273.312 
L 186.299154 181.692845 
L 184.686409 181.692845 
z
" style="fill:#1f77b4;"/>
   </g>
   <g id="patch_80">
    <path clip-path="url(#pa04861e572)" d="M 186.299154 273.312 
L 187.9119 273.312 
L 187.9119 178.718197 
L 186.299154 178.718197 
z
" style="fill:#1f77b4;"/>
   </g>
   <g id="patch_81">
    <path clip-path="url(#pa04861e572)" d="M 187.9119 273.312 
L 189.524645 273.312 
L 189.524645 174.55369 
L 187.9119 174.55369 
z
" style="fill:#1f77b4;"/>
   </g>
   <g id="patch_82">
    <path clip-path="url(#pa04861e572)" d="M 189.524645 273.312 
L 191.13739 273.312 
L 191.13739 181.097915 
L 189.524645 181.097915 
z
" style="fill:#1f77b4;"/>
   </g>
   <g id="patch_83">
    <path clip-path="url(#pa04861e572)" d="M 191.13739 273.312 
L 192.750136 273.312 
L 192.750136 182.882704 
L 191.13739 182.882704 
z
" style="fill:#1f77b4;"/>
   </g>
   <g id="patch_84">
    <path clip-path="url(#pa04861e572)" d="M 192.750136 273.312 
L 194.362881 273.312 
L 194.362881 175.743549 
L 192.750136 175.743549 
z
" style="fill:#1f77b4;"/>
   </g>
   <g id="patch_85">
    <path clip-path="url(#pa04861e572)" d="M 194.362881 273.312 
L 195.975626 273.312 
L 195.975626 180.502986 
L 194.362881 180.502986 
z
" style="fill:#1f77b4;"/>
   </g>
   <g id="patch_86">
    <path clip-path="url(#pa04861e572)" d="M 195.975626 273.312 
L 197.588372 273.312 
L 197.588372 169.199324 
L 195.975626 169.199324 
z
" style="fill:#1f77b4;"/>
   </g>
   <g id="patch_87">
    <path clip-path="url(#pa04861e572)" d="M 197.588372 273.312 
L 199.201117 273.312 
L 199.201117 169.794254 
L 197.588372 169.794254 
z
" style="fill:#1f77b4;"/>
   </g>
   <g id="patch_88">
    <path clip-path="url(#pa04861e572)" d="M 199.201117 273.312 
L 200.813863 273.312 
L 200.813863 162.060169 
L 199.201117 162.060169 
z
" style="fill:#1f77b4;"/>
   </g>
   <g id="patch_89">
    <path clip-path="url(#pa04861e572)" d="M 200.813863 273.312 
L 202.426608 273.312 
L 202.426608 175.14862 
L 200.813863 175.14862 
z
" style="fill:#1f77b4;"/>
   </g>
   <g id="patch_90">
    <path clip-path="url(#pa04861e572)" d="M 202.426608 273.312 
L 204.039353 273.312 
L 204.039353 158.490592 
L 202.426608 158.490592 
z
" style="fill:#1f77b4;"/>
   </g>
   <g id="patch_91">
    <path clip-path="url(#pa04861e572)" d="M 204.039353 273.312 
L 205.652099 273.312 
L 205.652099 182.287775 
L 204.039353 182.287775 
z
" style="fill:#1f77b4;"/>
   </g>
   <g id="patch_92">
    <path clip-path="url(#pa04861e572)" d="M 205.652099 273.312 
L 207.264844 273.312 
L 207.264844 171.579042 
L 205.652099 171.579042 
z
" style="fill:#1f77b4;"/>
   </g>
   <g id="patch_93">
    <path clip-path="url(#pa04861e572)" d="M 207.264844 273.312 
L 208.877589 273.312 
L 208.877589 158.490592 
L 207.264844 158.490592 
z
" style="fill:#1f77b4;"/>
   </g>
   <g id="patch_94">
    <path clip-path="url(#pa04861e572)" d="M 208.877589 273.312 
L 210.490335 273.312 
L 210.490335 154.921014 
L 208.877589 154.921014 
z
" style="fill:#1f77b4;"/>
   </g>
   <g id="patch_95">
    <path clip-path="url(#pa04861e572)" d="M 210.490335 273.312 
L 212.10308 273.312 
L 212.10308 160.87031 
L 210.490335 160.87031 
z
" style="fill:#1f77b4;"/>
   </g>
   <g id="patch_96">
    <path clip-path="url(#pa04861e572)" d="M 212.10308 273.312 
L 213.715826 273.312 
L 213.715826 165.034817 
L 212.10308 165.034817 
z
" style="fill:#1f77b4;"/>
   </g>
   <g id="patch_97">
    <path clip-path="url(#pa04861e572)" d="M 213.715826 273.312 
L 215.328571 273.312 
L 215.328571 160.87031 
L 213.715826 160.87031 
z
" style="fill:#1f77b4;"/>
   </g>
   <g id="patch_98">
    <path clip-path="url(#pa04861e572)" d="M 215.328571 273.312 
L 216.941316 273.312 
L 216.941316 165.629746 
L 215.328571 165.629746 
z
" style="fill:#1f77b4;"/>
   </g>
   <g id="patch_99">
    <path clip-path="url(#pa04861e572)" d="M 216.941316 273.312 
L 218.554062 273.312 
L 218.554062 150.161577 
L 216.941316 150.161577 
z
" style="fill:#1f77b4;"/>
   </g>
   <g id="patch_100">
    <path clip-path="url(#pa04861e572)" d="M 218.554062 273.312 
L 220.166807 273.312 
L 220.166807 170.389183 
L 218.554062 170.389183 
z
" style="fill:#1f77b4;"/>
   </g>
   <g id="patch_101">
    <path clip-path="url(#pa04861e572)" d="M 220.166807 273.312 
L 221.779553 273.312 
L 221.779553 152.541296 
L 220.166807 152.541296 
z
" style="fill:#1f77b4;"/>
   </g>
   <g id="patch_102">
    <path clip-path="url(#pa04861e572)" d="M 221.779553 273.312 
L 223.392298 273.312 
L 223.392298 157.300732 
L 221.779553 157.300732 
z
" style="fill:#1f77b4;"/>
   </g>
   <g id="patch_103">
    <path clip-path="url(#pa04861e572)" d="M 223.392298 273.312 
L 225.005043 273.312 
L 225.005043 165.629746 
L 223.392298 165.629746 
z
" style="fill:#1f77b4;"/>
   </g>
   <g id="patch_104">
    <path clip-path="url(#pa04861e572)" d="M 225.005043 273.312 
L 226.617789 273.312 
L 226.617789 152.541296 
L 225.005043 152.541296 
z
" style="fill:#1f77b4;"/>
   </g>
   <g id="patch_105">
    <path clip-path="url(#pa04861e572)" d="M 226.617789 273.312 
L 228.230534 273.312 
L 228.230534 146.592 
L 226.617789 146.592 
z
" style="fill:#1f77b4;"/>
   </g>
   <g id="patch_106">
    <path clip-path="url(#pa04861e572)" d="M 228.230534 273.312 
L 229.843279 273.312 
L 229.843279 144.212282 
L 228.230534 144.212282 
z
" style="fill:#1f77b4;"/>
   </g>
   <g id="patch_107">
    <path clip-path="url(#pa04861e572)" d="M 229.843279 273.312 
L 231.456025 273.312 
L 231.456025 148.971718 
L 229.843279 148.971718 
z
" style="fill:#1f77b4;"/>
   </g>
   <g id="patch_108">
    <path clip-path="url(#pa04861e572)" d="M 231.456025 273.312 
L 233.06877 273.312 
L 233.06877 139.452845 
L 231.456025 139.452845 
z
" style="fill:#1f77b4;"/>
   </g>
   <g id="patch_109">
    <path clip-path="url(#pa04861e572)" d="M 233.06877 273.312 
L 234.681516 273.312 
L 234.681516 160.87031 
L 233.06877 160.87031 
z
" style="fill:#1f77b4;"/>
   </g>
   <g id="patch_110">
    <path clip-path="url(#pa04861e572)" d="M 234.681516 273.312 
L 236.294261 273.312 
L 236.294261 123.389746 
L 234.681516 123.389746 
z
" style="fill:#1f77b4;"/>
   </g>
   <g id="patch_111">
    <path clip-path="url(#pa04861e572)" d="M 236.294261 273.312 
L 237.907006 273.312 
L 237.907006 144.212282 
L 236.294261 144.212282 
z
" style="fill:#1f77b4;"/>
   </g>
   <g id="patch_112">
    <path clip-path="url(#pa04861e572)" d="M 237.907006 273.312 
L 239.519752 273.312 
L 239.519752 127.554254 
L 237.907006 127.554254 
z
" style="fill:#1f77b4;"/>
   </g>
   <g id="patch_113">
    <path clip-path="url(#pa04861e572)" d="M 239.519752 273.312 
L 241.132497 273.312 
L 241.132497 137.668056 
L 239.519752 137.668056 
z
" style="fill:#1f77b4;"/>
   </g>
   <g id="patch_114">
    <path clip-path="url(#pa04861e572)" d="M 241.132497 273.312 
L 242.745242 273.312 
L 242.745242 150.756507 
L 241.132497 150.756507 
z
" style="fill:#1f77b4;"/>
   </g>
   <g id="patch_115">
    <path clip-path="url(#pa04861e572)" d="M 242.745242 273.312 
L 244.357988 273.312 
L 244.357988 148.971718 
L 242.745242 148.971718 
z
" style="fill:#1f77b4;"/>
   </g>
   <g id="patch_116">
    <path clip-path="url(#pa04861e572)" d="M 244.357988 273.312 
L 245.970733 273.312 
L 245.970733 132.31369 
L 244.357988 132.31369 
z
" style="fill:#1f77b4;"/>
   </g>
   <g id="patch_117">
    <path clip-path="url(#pa04861e572)" d="M 245.970733 273.312 
L 247.583479 273.312 
L 247.583479 135.883268 
L 245.970733 135.883268 
z
" style="fill:#1f77b4;"/>
   </g>
   <g id="patch_118">
    <path clip-path="url(#pa04861e572)" d="M 247.583479 273.312 
L 249.196224 273.312 
L 249.196224 140.047775 
L 247.583479 140.047775 
z
" style="fill:#1f77b4;"/>
   </g>
   <g id="patch_119">
    <path clip-path="url(#pa04861e572)" d="M 249.196224 273.312 
L 250.808969 273.312 
L 250.808969 128.149183 
L 249.196224 128.149183 
z
" style="fill:#1f77b4;"/>
   </g>
   <g id="patch_120">
    <path clip-path="url(#pa04861e572)" d="M 250.808969 273.312 
L 252.421715 273.312 
L 252.421715 145.99707 
L 250.808969 145.99707 
z
" style="fill:#1f77b4;"/>
   </g>
   <g id="patch_121">
    <path clip-path="url(#pa04861e572)" d="M 252.421715 273.312 
L 254.03446 273.312 
L 254.03446 117.440451 
L 252.421715 117.440451 
z
" style="fill:#1f77b4;"/>
   </g>
   <g id="patch_122">
    <path clip-path="url(#pa04861e572)" d="M 254.03446 273.312 
L 255.647205 273.312 
L 255.647205 121.010028 
L 254.03446 121.010028 
z
" style="fill:#1f77b4;"/>
   </g>
   <g id="patch_123">
    <path clip-path="url(#pa04861e572)" d="M 255.647205 273.312 
L 257.259951 273.312 
L 257.259951 117.440451 
L 255.647205 117.440451 
z
" style="fill:#1f77b4;"/>
   </g>
   <g id="patch_124">
    <path clip-path="url(#pa04861e572)" d="M 257.259951 273.312 
L 258.872696 273.312 
L 258.872696 137.668056 
L 257.259951 137.668056 
z
" style="fill:#1f77b4;"/>
   </g>
   <g id="patch_125">
    <path clip-path="url(#pa04861e572)" d="M 258.872696 273.312 
L 260.485442 273.312 
L 260.485442 126.364394 
L 258.872696 126.364394 
z
" style="fill:#1f77b4;"/>
   </g>
   <g id="patch_126">
    <path clip-path="url(#pa04861e572)" d="M 260.485442 273.312 
L 262.098187 273.312 
L 262.098187 135.288338 
L 260.485442 135.288338 
z
" style="fill:#1f77b4;"/>
   </g>
   <g id="patch_127">
    <path clip-path="url(#pa04861e572)" d="M 262.098187 273.312 
L 263.710932 273.312 
L 263.710932 123.984676 
L 262.098187 123.984676 
z
" style="fill:#1f77b4;"/>
   </g>
   <g id="patch_128">
    <path clip-path="url(#pa04861e572)" d="M 263.710932 273.312 
L 265.323678 273.312 
L 265.323678 106.731718 
L 263.710932 106.731718 
z
" style="fill:#1f77b4;"/>
   </g>
   <g id="patch_129">
    <path clip-path="url(#pa04861e572)" d="M 265.323678 273.312 
L 266.936423 273.312 
L 266.936423 108.516507 
L 265.323678 108.516507 
z
" style="fill:#1f77b4;"/>
   </g>
   <g id="patch_130">
    <path clip-path="url(#pa04861e572)" d="M 266.936423 273.312 
L 268.549168 273.312 
L 268.549168 119.820169 
L 266.936423 119.820169 
z
" style="fill:#1f77b4;"/>
   </g>
   <g id="patch_131">
    <path clip-path="url(#pa04861e572)" d="M 268.549168 273.312 
L 270.161914 273.312 
L 270.161914 124.579606 
L 268.549168 124.579606 
z
" style="fill:#1f77b4;"/>
   </g>
   <g id="patch_132">
    <path clip-path="url(#pa04861e572)" d="M 270.161914 273.312 
L 271.774659 273.312 
L 271.774659 119.820169 
L 270.161914 119.820169 
z
" style="fill:#1f77b4;"/>
   </g>
   <g id="patch_133">
    <path clip-path="url(#pa04861e572)" d="M 271.774659 273.312 
L 273.387405 273.312 
L 273.387405 123.984676 
L 271.774659 123.984676 
z
" style="fill:#1f77b4;"/>
   </g>
   <g id="patch_134">
    <path clip-path="url(#pa04861e572)" d="M 273.387405 273.312 
L 275.00015 273.312 
L 275.00015 109.706366 
L 273.387405 109.706366 
z
" style="fill:#1f77b4;"/>
   </g>
   <g id="patch_135">
    <path clip-path="url(#pa04861e572)" d="M 275.00015 273.312 
L 276.612895 273.312 
L 276.612895 121.010028 
L 275.00015 121.010028 
z
" style="fill:#1f77b4;"/>
   </g>
   <g id="patch_136">
    <path clip-path="url(#pa04861e572)" d="M 276.612895 273.312 
L 278.225641 273.312 
L 278.225641 134.098479 
L 276.612895 134.098479 
z
" style="fill:#1f77b4;"/>
   </g>
   <g id="patch_137">
    <path clip-path="url(#pa04861e572)" d="M 278.225641 273.312 
L 279.838386 273.312 
L 279.838386 101.377352 
L 278.225641 101.377352 
z
" style="fill:#1f77b4;"/>
   </g>
   <g id="patch_138">
    <path clip-path="url(#pa04861e572)" d="M 279.838386 273.312 
L 281.451131 273.312 
L 281.451131 121.010028 
L 279.838386 121.010028 
z
" style="fill:#1f77b4;"/>
   </g>
   <g id="patch_139">
    <path clip-path="url(#pa04861e572)" d="M 281.451131 273.312 
L 283.063877 273.312 
L 283.063877 122.794817 
L 281.451131 122.794817 
z
" style="fill:#1f77b4;"/>
   </g>
   <g id="patch_140">
    <path clip-path="url(#pa04861e572)" d="M 283.063877 273.312 
L 284.676622 273.312 
L 284.676622 107.326648 
L 283.063877 107.326648 
z
" style="fill:#1f77b4;"/>
   </g>
   <g id="patch_141">
    <path clip-path="url(#pa04861e572)" d="M 284.676622 273.312 
L 286.289368 273.312 
L 286.289368 105.541859 
L 284.676622 105.541859 
z
" style="fill:#1f77b4;"/>
   </g>
   <g id="patch_142">
    <path clip-path="url(#pa04861e572)" d="M 286.289368 273.312 
L 287.902113 273.312 
L 287.902113 110.896225 
L 286.289368 110.896225 
z
" style="fill:#1f77b4;"/>
   </g>
   <g id="patch_143">
    <path clip-path="url(#pa04861e572)" d="M 287.902113 273.312 
L 289.514858 273.312 
L 289.514858 130.528901 
L 287.902113 130.528901 
z
" style="fill:#1f77b4;"/>
   </g>
   <g id="patch_144">
    <path clip-path="url(#pa04861e572)" d="M 289.514858 273.312 
L 291.127604 273.312 
L 291.127604 85.314254 
L 289.514858 85.314254 
z
" style="fill:#1f77b4;"/>
   </g>
   <g id="patch_145">
    <path clip-path="url(#pa04861e572)" d="M 291.127604 273.312 
L 292.740349 273.312 
L 292.740349 117.440451 
L 291.127604 117.440451 
z
" style="fill:#1f77b4;"/>
   </g>
   <g id="patch_146">
    <path clip-path="url(#pa04861e572)" d="M 292.740349 273.312 
L 294.353095 273.312 
L 294.353095 110.301296 
L 292.740349 110.301296 
z
" style="fill:#1f77b4;"/>
   </g>
   <g id="patch_147">
    <path clip-path="url(#pa04861e572)" d="M 294.353095 273.312 
L 295.96584 273.312 
L 295.96584 101.377352 
L 294.353095 101.377352 
z
" style="fill:#1f77b4;"/>
   </g>
   <g id="patch_148">
    <path clip-path="url(#pa04861e572)" d="M 295.96584 273.312 
L 297.578585 273.312 
L 297.578585 110.896225 
L 295.96584 110.896225 
z
" style="fill:#1f77b4;"/>
   </g>
   <g id="patch_149">
    <path clip-path="url(#pa04861e572)" d="M 297.578585 273.312 
L 299.191331 273.312 
L 299.191331 103.75707 
L 297.578585 103.75707 
z
" style="fill:#1f77b4;"/>
   </g>
   <g id="patch_150">
    <path clip-path="url(#pa04861e572)" d="M 299.191331 273.312 
L 300.804076 273.312 
L 300.804076 97.807775 
L 299.191331 97.807775 
z
" style="fill:#1f77b4;"/>
   </g>
   <g id="patch_151">
    <path clip-path="url(#pa04861e572)" d="M 300.804076 273.312 
L 302.416821 273.312 
L 302.416821 100.782423 
L 300.804076 100.782423 
z
" style="fill:#1f77b4;"/>
   </g>
   <g id="patch_152">
    <path clip-path="url(#pa04861e572)" d="M 302.416821 273.312 
L 304.029567 273.312 
L 304.029567 94.833127 
L 302.416821 94.833127 
z
" style="fill:#1f77b4;"/>
   </g>
   <g id="patch_153">
    <path clip-path="url(#pa04861e572)" d="M 304.029567 273.312 
L 305.642312 273.312 
L 305.642312 107.326648 
L 304.029567 107.326648 
z
" style="fill:#1f77b4;"/>
   </g>
   <g id="patch_154">
    <path clip-path="url(#pa04861e572)" d="M 305.642312 273.312 
L 307.255058 273.312 
L 307.255058 95.428056 
L 305.642312 95.428056 
z
" style="fill:#1f77b4;"/>
   </g>
   <g id="patch_155">
    <path clip-path="url(#pa04861e572)" d="M 307.255058 273.312 
L 308.867803 273.312 
L 308.867803 98.997634 
L 307.255058 98.997634 
z
" style="fill:#1f77b4;"/>
   </g>
   <g id="patch_156">
    <path clip-path="url(#pa04861e572)" d="M 308.867803 273.312 
L 310.480548 273.312 
L 310.480548 104.94693 
L 308.867803 104.94693 
z
" style="fill:#1f77b4;"/>
   </g>
   <g id="patch_157">
    <path clip-path="url(#pa04861e572)" d="M 310.480548 273.312 
L 312.093294 273.312 
L 312.093294 107.326648 
L 310.480548 107.326648 
z
" style="fill:#1f77b4;"/>
   </g>
   <g id="patch_158">
    <path clip-path="url(#pa04861e572)" d="M 312.093294 273.312 
L 313.706039 273.312 
L 313.706039 79.364958 
L 312.093294 79.364958 
z
" style="fill:#1f77b4;"/>
   </g>
   <g id="patch_159">
    <path clip-path="url(#pa04861e572)" d="M 313.706039 273.312 
L 315.318784 273.312 
L 315.318784 82.934535 
L 313.706039 82.934535 
z
" style="fill:#1f77b4;"/>
   </g>
   <g id="patch_160">
    <path clip-path="url(#pa04861e572)" d="M 315.318784 273.312 
L 316.93153 273.312 
L 316.93153 65.086648 
L 315.318784 65.086648 
z
" style="fill:#1f77b4;"/>
   </g>
   <g id="patch_161">
    <path clip-path="url(#pa04861e572)" d="M 316.93153 273.312 
L 318.544275 273.312 
L 318.544275 79.364958 
L 316.93153 79.364958 
z
" style="fill:#1f77b4;"/>
   </g>
   <g id="patch_162">
    <path clip-path="url(#pa04861e572)" d="M 318.544275 273.312 
L 320.157021 273.312 
L 320.157021 99.592563 
L 318.544275 99.592563 
z
" style="fill:#1f77b4;"/>
   </g>
   <g id="patch_163">
    <path clip-path="url(#pa04861e572)" d="M 320.157021 273.312 
L 321.769766 273.312 
L 321.769766 82.339606 
L 320.157021 82.339606 
z
" style="fill:#1f77b4;"/>
   </g>
   <g id="patch_164">
    <path clip-path="url(#pa04861e572)" d="M 321.769766 273.312 
L 323.382511 273.312 
L 323.382511 81.744676 
L 321.769766 81.744676 
z
" style="fill:#1f77b4;"/>
   </g>
   <g id="patch_165">
    <path clip-path="url(#pa04861e572)" d="M 323.382511 273.312 
L 324.995257 273.312 
L 324.995257 93.048338 
L 323.382511 93.048338 
z
" style="fill:#1f77b4;"/>
   </g>
   <g id="patch_166">
    <path clip-path="url(#pa04861e572)" d="M 324.995257 273.312 
L 326.608002 273.312 
L 326.608002 82.934535 
L 324.995257 82.934535 
z
" style="fill:#1f77b4;"/>
   </g>
   <g id="patch_167">
    <path clip-path="url(#pa04861e572)" d="M 326.608002 273.312 
L 328.220747 273.312 
L 328.220747 74.605521 
L 326.608002 74.605521 
z
" style="fill:#1f77b4;"/>
   </g>
   <g id="patch_168">
    <path clip-path="url(#pa04861e572)" d="M 328.220747 273.312 
L 329.833493 273.312 
L 329.833493 60.327211 
L 328.220747 60.327211 
z
" style="fill:#1f77b4;"/>
   </g>
   <g id="patch_169">
    <path clip-path="url(#pa04861e572)" d="M 329.833493 273.312 
L 331.446238 273.312 
L 331.446238 77.580169 
L 329.833493 77.580169 
z
" style="fill:#1f77b4;"/>
   </g>
   <g id="patch_170">
    <path clip-path="url(#pa04861e572)" d="M 331.446238 273.312 
L 333.058984 273.312 
L 333.058984 94.238197 
L 331.446238 94.238197 
z
" style="fill:#1f77b4;"/>
   </g>
   <g id="patch_171">
    <path clip-path="url(#pa04861e572)" d="M 333.058984 273.312 
L 334.671729 273.312 
L 334.671729 82.934535 
L 333.058984 82.934535 
z
" style="fill:#1f77b4;"/>
   </g>
   <g id="patch_172">
    <path clip-path="url(#pa04861e572)" d="M 334.671729 273.312 
L 336.284474 273.312 
L 336.284474 67.466366 
L 334.671729 67.466366 
z
" style="fill:#1f77b4;"/>
   </g>
   <g id="patch_173">
    <path clip-path="url(#pa04861e572)" d="M 336.284474 273.312 
L 337.89722 273.312 
L 337.89722 65.086648 
L 336.284474 65.086648 
z
" style="fill:#1f77b4;"/>
   </g>
   <g id="patch_174">
    <path clip-path="url(#pa04861e572)" d="M 337.89722 273.312 
L 339.509965 273.312 
L 339.509965 69.251155 
L 337.89722 69.251155 
z
" style="fill:#1f77b4;"/>
   </g>
   <g id="patch_175">
    <path clip-path="url(#pa04861e572)" d="M 339.509965 273.312 
L 341.12271 273.312 
L 341.12271 63.301859 
L 339.509965 63.301859 
z
" style="fill:#1f77b4;"/>
   </g>
   <g id="patch_176">
    <path clip-path="url(#pa04861e572)" d="M 341.12271 273.312 
L 342.735456 273.312 
L 342.735456 84.719324 
L 341.12271 84.719324 
z
" style="fill:#1f77b4;"/>
   </g>
   <g id="patch_177">
    <path clip-path="url(#pa04861e572)" d="M 342.735456 273.312 
L 344.348201 273.312 
L 344.348201 62.112 
L 342.735456 62.112 
z
" style="fill:#1f77b4;"/>
   </g>
   <g id="patch_178">
    <path clip-path="url(#pa04861e572)" d="M 344.348201 273.312 
L 345.960947 273.312 
L 345.960947 75.200451 
L 344.348201 75.200451 
z
" style="fill:#1f77b4;"/>
   </g>
   <g id="patch_179">
    <path clip-path="url(#pa04861e572)" d="M 345.960947 273.312 
L 347.573692 273.312 
L 347.573692 67.466366 
L 345.960947 67.466366 
z
" style="fill:#1f77b4;"/>
   </g>
   <g id="patch_180">
    <path clip-path="url(#pa04861e572)" d="M 347.573692 273.312 
L 349.186437 273.312 
L 349.186437 69.846085 
L 347.573692 69.846085 
z
" style="fill:#1f77b4;"/>
   </g>
   <g id="patch_181">
    <path clip-path="url(#pa04861e572)" d="M 349.186437 273.312 
L 350.799183 273.312 
L 350.799183 41.884394 
L 349.186437 41.884394 
z
" style="fill:#1f77b4;"/>
   </g>
   <g id="patch_182">
    <path clip-path="url(#pa04861e572)" d="M 350.799183 273.312 
L 352.411928 273.312 
L 352.411928 50.213408 
L 350.799183 50.213408 
z
" style="fill:#1f77b4;"/>
   </g>
   <g id="patch_183">
    <path clip-path="url(#pa04861e572)" d="M 352.411928 273.312 
L 354.024673 273.312 
L 354.024673 66.276507 
L 352.411928 66.276507 
z
" style="fill:#1f77b4;"/>
   </g>
   <g id="patch_184">
    <path clip-path="url(#pa04861e572)" d="M 354.024673 273.312 
L 355.637419 273.312 
L 355.637419 56.162704 
L 354.024673 56.162704 
z
" style="fill:#1f77b4;"/>
   </g>
   <g id="patch_185">
    <path clip-path="url(#pa04861e572)" d="M 355.637419 273.312 
L 357.250164 273.312 
L 357.250164 75.200451 
L 355.637419 75.200451 
z
" style="fill:#1f77b4;"/>
   </g>
   <g id="patch_186">
    <path clip-path="url(#pa04861e572)" d="M 357.250164 273.312 
L 358.86291 273.312 
L 358.86291 48.42862 
L 357.250164 48.42862 
z
" style="fill:#1f77b4;"/>
   </g>
   <g id="patch_187">
    <path clip-path="url(#pa04861e572)" d="M 358.86291 273.312 
L 360.475655 273.312 
L 360.475655 43.669183 
L 358.86291 43.669183 
z
" style="fill:#1f77b4;"/>
   </g>
   <g id="patch_188">
    <path clip-path="url(#pa04861e572)" d="M 360.475655 273.312 
L 362.0884 273.312 
L 362.0884 49.618479 
L 360.475655 49.618479 
z
" style="fill:#1f77b4;"/>
   </g>
   <g id="patch_189">
    <path clip-path="url(#pa04861e572)" d="M 362.0884 273.312 
L 363.701146 273.312 
L 363.701146 46.643831 
L 362.0884 46.643831 
z
" style="fill:#1f77b4;"/>
   </g>
   <g id="patch_190">
    <path clip-path="url(#pa04861e572)" d="M 363.701146 273.312 
L 365.313891 273.312 
L 365.313891 49.618479 
L 363.701146 49.618479 
z
" style="fill:#1f77b4;"/>
   </g>
   <g id="patch_191">
    <path clip-path="url(#pa04861e572)" d="M 365.313891 273.312 
L 366.926637 273.312 
L 366.926637 56.162704 
L 365.313891 56.162704 
z
" style="fill:#1f77b4;"/>
   </g>
   <g id="patch_192">
    <path clip-path="url(#pa04861e572)" d="M 366.926637 273.312 
L 368.539382 273.312 
L 368.539382 50.808338 
L 366.926637 50.808338 
z
" style="fill:#1f77b4;"/>
   </g>
   <g id="patch_193">
    <path clip-path="url(#pa04861e572)" d="M 368.539382 273.312 
L 370.152127 273.312 
L 370.152127 76.39031 
L 368.539382 76.39031 
z
" style="fill:#1f77b4;"/>
   </g>
   <g id="patch_194">
    <path clip-path="url(#pa04861e572)" d="M 370.152127 273.312 
L 371.764873 273.312 
L 371.764873 41.289465 
L 370.152127 41.289465 
z
" style="fill:#1f77b4;"/>
   </g>
   <g id="patch_195">
    <path clip-path="url(#pa04861e572)" d="M 371.764873 273.312 
L 373.377618 273.312 
L 373.377618 45.453972 
L 371.764873 45.453972 
z
" style="fill:#1f77b4;"/>
   </g>
   <g id="patch_196">
    <path clip-path="url(#pa04861e572)" d="M 373.377618 273.312 
L 374.990363 273.312 
L 374.990363 54.972845 
L 373.377618 54.972845 
z
" style="fill:#1f77b4;"/>
   </g>
   <g id="patch_197">
    <path clip-path="url(#pa04861e572)" d="M 374.990363 273.312 
L 376.603109 273.312 
L 376.603109 32.960451 
L 374.990363 32.960451 
z
" style="fill:#1f77b4;"/>
   </g>
   <g id="patch_198">
    <path clip-path="url(#pa04861e572)" d="M 376.603109 273.312 
L 378.215854 273.312 
L 378.215854 44.264113 
L 376.603109 44.264113 
z
" style="fill:#1f77b4;"/>
   </g>
   <g id="patch_199">
    <path clip-path="url(#pa04861e572)" d="M 378.215854 273.312 
L 379.8286 273.312 
L 379.8286 25.226366 
L 378.215854 25.226366 
z
" style="fill:#1f77b4;"/>
   </g>
   <g id="patch_200">
    <path clip-path="url(#pa04861e572)" d="M 379.8286 273.312 
L 381.441345 273.312 
L 381.441345 19.872 
L 379.8286 19.872 
z
" style="fill:#1f77b4;"/>
   </g>
   <g id="patch_201">
    <path clip-path="url(#pa04861e572)" d="M 381.441345 273.312 
L 383.05409 273.312 
L 383.05409 38.314817 
L 381.441345 38.314817 
z
" style="fill:#1f77b4;"/>
   </g>
   <g id="patch_202">
    <path clip-path="url(#pa04861e572)" d="M 383.05409 273.312 
L 384.666836 273.312 
L 384.666836 40.099606 
L 383.05409 40.099606 
z
" style="fill:#1f77b4;"/>
   </g>
   <g id="matplotlib.axis_1">
    <g id="xtick_1">
     <g id="line2d_1">
      <defs>
       <path d="M 0 0 
L 0 3.5 
" id="m5328f54dd8" style="stroke:#000000;stroke-width:0.8;"/>
      </defs>
      <g>
       <use style="stroke:#000000;stroke-width:0.8;" x="60.013977" xlink:href="#m5328f54dd8" y="273.312"/>
      </g>
     </g>
     <g id="text_1">
      <!-- 0.0 -->
      <g transform="translate(52.062415 287.910437)scale(0.1 -0.1)">
       <defs>
        <path d="M 2034 4250 
Q 1547 4250 1301 3770 
Q 1056 3291 1056 2328 
Q 1056 1369 1301 889 
Q 1547 409 2034 409 
Q 2525 409 2770 889 
Q 3016 1369 3016 2328 
Q 3016 3291 2770 3770 
Q 2525 4250 2034 4250 
z
M 2034 4750 
Q 2819 4750 3233 4129 
Q 3647 3509 3647 2328 
Q 3647 1150 3233 529 
Q 2819 -91 2034 -91 
Q 1250 -91 836 529 
Q 422 1150 422 2328 
Q 422 3509 836 4129 
Q 1250 4750 2034 4750 
z
" id="DejaVuSans-30" transform="scale(0.015625)"/>
        <path d="M 684 794 
L 1344 794 
L 1344 0 
L 684 0 
L 684 794 
z
" id="DejaVuSans-2e" transform="scale(0.015625)"/>
       </defs>
       <use xlink:href="#DejaVuSans-30"/>
       <use x="63.623047" xlink:href="#DejaVuSans-2e"/>
       <use x="95.410156" xlink:href="#DejaVuSans-30"/>
      </g>
     </g>
    </g>
    <g id="xtick_2">
     <g id="line2d_2">
      <g>
       <use style="stroke:#000000;stroke-width:0.8;" x="124.944886" xlink:href="#m5328f54dd8" y="273.312"/>
      </g>
     </g>
     <g id="text_2">
      <!-- 0.2 -->
      <g transform="translate(116.993324 287.910437)scale(0.1 -0.1)">
       <defs>
        <path d="M 1228 531 
L 3431 531 
L 3431 0 
L 469 0 
L 469 531 
Q 828 903 1448 1529 
Q 2069 2156 2228 2338 
Q 2531 2678 2651 2914 
Q 2772 3150 2772 3378 
Q 2772 3750 2511 3984 
Q 2250 4219 1831 4219 
Q 1534 4219 1204 4116 
Q 875 4013 500 3803 
L 500 4441 
Q 881 4594 1212 4672 
Q 1544 4750 1819 4750 
Q 2544 4750 2975 4387 
Q 3406 4025 3406 3419 
Q 3406 3131 3298 2873 
Q 3191 2616 2906 2266 
Q 2828 2175 2409 1742 
Q 1991 1309 1228 531 
z
" id="DejaVuSans-32" transform="scale(0.015625)"/>
       </defs>
       <use xlink:href="#DejaVuSans-30"/>
       <use x="63.623047" xlink:href="#DejaVuSans-2e"/>
       <use x="95.410156" xlink:href="#DejaVuSans-32"/>
      </g>
     </g>
    </g>
    <g id="xtick_3">
     <g id="line2d_3">
      <g>
       <use style="stroke:#000000;stroke-width:0.8;" x="189.875795" xlink:href="#m5328f54dd8" y="273.312"/>
      </g>
     </g>
     <g id="text_3">
      <!-- 0.4 -->
      <g transform="translate(181.924233 287.910437)scale(0.1 -0.1)">
       <defs>
        <path d="M 2419 4116 
L 825 1625 
L 2419 1625 
L 2419 4116 
z
M 2253 4666 
L 3047 4666 
L 3047 1625 
L 3713 1625 
L 3713 1100 
L 3047 1100 
L 3047 0 
L 2419 0 
L 2419 1100 
L 313 1100 
L 313 1709 
L 2253 4666 
z
" id="DejaVuSans-34" transform="scale(0.015625)"/>
       </defs>
       <use xlink:href="#DejaVuSans-30"/>
       <use x="63.623047" xlink:href="#DejaVuSans-2e"/>
       <use x="95.410156" xlink:href="#DejaVuSans-34"/>
      </g>
     </g>
    </g>
    <g id="xtick_4">
     <g id="line2d_4">
      <g>
       <use style="stroke:#000000;stroke-width:0.8;" x="254.806705" xlink:href="#m5328f54dd8" y="273.312"/>
      </g>
     </g>
     <g id="text_4">
      <!-- 0.6 -->
      <g transform="translate(246.855142 287.910437)scale(0.1 -0.1)">
       <defs>
        <path d="M 2113 2584 
Q 1688 2584 1439 2293 
Q 1191 2003 1191 1497 
Q 1191 994 1439 701 
Q 1688 409 2113 409 
Q 2538 409 2786 701 
Q 3034 994 3034 1497 
Q 3034 2003 2786 2293 
Q 2538 2584 2113 2584 
z
M 3366 4563 
L 3366 3988 
Q 3128 4100 2886 4159 
Q 2644 4219 2406 4219 
Q 1781 4219 1451 3797 
Q 1122 3375 1075 2522 
Q 1259 2794 1537 2939 
Q 1816 3084 2150 3084 
Q 2853 3084 3261 2657 
Q 3669 2231 3669 1497 
Q 3669 778 3244 343 
Q 2819 -91 2113 -91 
Q 1303 -91 875 529 
Q 447 1150 447 2328 
Q 447 3434 972 4092 
Q 1497 4750 2381 4750 
Q 2619 4750 2861 4703 
Q 3103 4656 3366 4563 
z
" id="DejaVuSans-36" transform="scale(0.015625)"/>
       </defs>
       <use xlink:href="#DejaVuSans-30"/>
       <use x="63.623047" xlink:href="#DejaVuSans-2e"/>
       <use x="95.410156" xlink:href="#DejaVuSans-36"/>
      </g>
     </g>
    </g>
    <g id="xtick_5">
     <g id="line2d_5">
      <g>
       <use style="stroke:#000000;stroke-width:0.8;" x="319.737614" xlink:href="#m5328f54dd8" y="273.312"/>
      </g>
     </g>
     <g id="text_5">
      <!-- 0.8 -->
      <g transform="translate(311.786051 287.910437)scale(0.1 -0.1)">
       <defs>
        <path d="M 2034 2216 
Q 1584 2216 1326 1975 
Q 1069 1734 1069 1313 
Q 1069 891 1326 650 
Q 1584 409 2034 409 
Q 2484 409 2743 651 
Q 3003 894 3003 1313 
Q 3003 1734 2745 1975 
Q 2488 2216 2034 2216 
z
M 1403 2484 
Q 997 2584 770 2862 
Q 544 3141 544 3541 
Q 544 4100 942 4425 
Q 1341 4750 2034 4750 
Q 2731 4750 3128 4425 
Q 3525 4100 3525 3541 
Q 3525 3141 3298 2862 
Q 3072 2584 2669 2484 
Q 3125 2378 3379 2068 
Q 3634 1759 3634 1313 
Q 3634 634 3220 271 
Q 2806 -91 2034 -91 
Q 1263 -91 848 271 
Q 434 634 434 1313 
Q 434 1759 690 2068 
Q 947 2378 1403 2484 
z
M 1172 3481 
Q 1172 3119 1398 2916 
Q 1625 2713 2034 2713 
Q 2441 2713 2670 2916 
Q 2900 3119 2900 3481 
Q 2900 3844 2670 4047 
Q 2441 4250 2034 4250 
Q 1625 4250 1398 4047 
Q 1172 3844 1172 3481 
z
" id="DejaVuSans-38" transform="scale(0.015625)"/>
       </defs>
       <use xlink:href="#DejaVuSans-30"/>
       <use x="63.623047" xlink:href="#DejaVuSans-2e"/>
       <use x="95.410156" xlink:href="#DejaVuSans-38"/>
      </g>
     </g>
    </g>
    <g id="xtick_6">
     <g id="line2d_6">
      <g>
       <use style="stroke:#000000;stroke-width:0.8;" x="384.668523" xlink:href="#m5328f54dd8" y="273.312"/>
      </g>
     </g>
     <g id="text_6">
      <!-- 1.0 -->
      <g transform="translate(376.71696 287.910437)scale(0.1 -0.1)">
       <defs>
        <path d="M 794 531 
L 1825 531 
L 1825 4091 
L 703 3866 
L 703 4441 
L 1819 4666 
L 2450 4666 
L 2450 531 
L 3481 531 
L 3481 0 
L 794 0 
L 794 531 
z
" id="DejaVuSans-31" transform="scale(0.015625)"/>
       </defs>
       <use xlink:href="#DejaVuSans-31"/>
       <use x="63.623047" xlink:href="#DejaVuSans-2e"/>
       <use x="95.410156" xlink:href="#DejaVuSans-30"/>
      </g>
     </g>
    </g>
    <g id="text_7">
     <!-- Propagation direction -->
     <g transform="translate(168.859219 301.588562)scale(0.1 -0.1)">
      <defs>
       <path d="M 1259 4147 
L 1259 2394 
L 2053 2394 
Q 2494 2394 2734 2622 
Q 2975 2850 2975 3272 
Q 2975 3691 2734 3919 
Q 2494 4147 2053 4147 
L 1259 4147 
z
M 628 4666 
L 2053 4666 
Q 2838 4666 3239 4311 
Q 3641 3956 3641 3272 
Q 3641 2581 3239 2228 
Q 2838 1875 2053 1875 
L 1259 1875 
L 1259 0 
L 628 0 
L 628 4666 
z
" id="DejaVuSans-50" transform="scale(0.015625)"/>
       <path d="M 2631 2963 
Q 2534 3019 2420 3045 
Q 2306 3072 2169 3072 
Q 1681 3072 1420 2755 
Q 1159 2438 1159 1844 
L 1159 0 
L 581 0 
L 581 3500 
L 1159 3500 
L 1159 2956 
Q 1341 3275 1631 3429 
Q 1922 3584 2338 3584 
Q 2397 3584 2469 3576 
Q 2541 3569 2628 3553 
L 2631 2963 
z
" id="DejaVuSans-72" transform="scale(0.015625)"/>
       <path d="M 1959 3097 
Q 1497 3097 1228 2736 
Q 959 2375 959 1747 
Q 959 1119 1226 758 
Q 1494 397 1959 397 
Q 2419 397 2687 759 
Q 2956 1122 2956 1747 
Q 2956 2369 2687 2733 
Q 2419 3097 1959 3097 
z
M 1959 3584 
Q 2709 3584 3137 3096 
Q 3566 2609 3566 1747 
Q 3566 888 3137 398 
Q 2709 -91 1959 -91 
Q 1206 -91 779 398 
Q 353 888 353 1747 
Q 353 2609 779 3096 
Q 1206 3584 1959 3584 
z
" id="DejaVuSans-6f" transform="scale(0.015625)"/>
       <path d="M 1159 525 
L 1159 -1331 
L 581 -1331 
L 581 3500 
L 1159 3500 
L 1159 2969 
Q 1341 3281 1617 3432 
Q 1894 3584 2278 3584 
Q 2916 3584 3314 3078 
Q 3713 2572 3713 1747 
Q 3713 922 3314 415 
Q 2916 -91 2278 -91 
Q 1894 -91 1617 61 
Q 1341 213 1159 525 
z
M 3116 1747 
Q 3116 2381 2855 2742 
Q 2594 3103 2138 3103 
Q 1681 3103 1420 2742 
Q 1159 2381 1159 1747 
Q 1159 1113 1420 752 
Q 1681 391 2138 391 
Q 2594 391 2855 752 
Q 3116 1113 3116 1747 
z
" id="DejaVuSans-70" transform="scale(0.015625)"/>
       <path d="M 2194 1759 
Q 1497 1759 1228 1600 
Q 959 1441 959 1056 
Q 959 750 1161 570 
Q 1363 391 1709 391 
Q 2188 391 2477 730 
Q 2766 1069 2766 1631 
L 2766 1759 
L 2194 1759 
z
M 3341 1997 
L 3341 0 
L 2766 0 
L 2766 531 
Q 2569 213 2275 61 
Q 1981 -91 1556 -91 
Q 1019 -91 701 211 
Q 384 513 384 1019 
Q 384 1609 779 1909 
Q 1175 2209 1959 2209 
L 2766 2209 
L 2766 2266 
Q 2766 2663 2505 2880 
Q 2244 3097 1772 3097 
Q 1472 3097 1187 3025 
Q 903 2953 641 2809 
L 641 3341 
Q 956 3463 1253 3523 
Q 1550 3584 1831 3584 
Q 2591 3584 2966 3190 
Q 3341 2797 3341 1997 
z
" id="DejaVuSans-61" transform="scale(0.015625)"/>
       <path d="M 2906 1791 
Q 2906 2416 2648 2759 
Q 2391 3103 1925 3103 
Q 1463 3103 1205 2759 
Q 947 2416 947 1791 
Q 947 1169 1205 825 
Q 1463 481 1925 481 
Q 2391 481 2648 825 
Q 2906 1169 2906 1791 
z
M 3481 434 
Q 3481 -459 3084 -895 
Q 2688 -1331 1869 -1331 
Q 1566 -1331 1297 -1286 
Q 1028 -1241 775 -1147 
L 775 -588 
Q 1028 -725 1275 -790 
Q 1522 -856 1778 -856 
Q 2344 -856 2625 -561 
Q 2906 -266 2906 331 
L 2906 616 
Q 2728 306 2450 153 
Q 2172 0 1784 0 
Q 1141 0 747 490 
Q 353 981 353 1791 
Q 353 2603 747 3093 
Q 1141 3584 1784 3584 
Q 2172 3584 2450 3431 
Q 2728 3278 2906 2969 
L 2906 3500 
L 3481 3500 
L 3481 434 
z
" id="DejaVuSans-67" transform="scale(0.015625)"/>
       <path d="M 1172 4494 
L 1172 3500 
L 2356 3500 
L 2356 3053 
L 1172 3053 
L 1172 1153 
Q 1172 725 1289 603 
Q 1406 481 1766 481 
L 2356 481 
L 2356 0 
L 1766 0 
Q 1100 0 847 248 
Q 594 497 594 1153 
L 594 3053 
L 172 3053 
L 172 3500 
L 594 3500 
L 594 4494 
L 1172 4494 
z
" id="DejaVuSans-74" transform="scale(0.015625)"/>
       <path d="M 603 3500 
L 1178 3500 
L 1178 0 
L 603 0 
L 603 3500 
z
M 603 4863 
L 1178 4863 
L 1178 4134 
L 603 4134 
L 603 4863 
z
" id="DejaVuSans-69" transform="scale(0.015625)"/>
       <path d="M 3513 2113 
L 3513 0 
L 2938 0 
L 2938 2094 
Q 2938 2591 2744 2837 
Q 2550 3084 2163 3084 
Q 1697 3084 1428 2787 
Q 1159 2491 1159 1978 
L 1159 0 
L 581 0 
L 581 3500 
L 1159 3500 
L 1159 2956 
Q 1366 3272 1645 3428 
Q 1925 3584 2291 3584 
Q 2894 3584 3203 3211 
Q 3513 2838 3513 2113 
z
" id="DejaVuSans-6e" transform="scale(0.015625)"/>
       <path id="DejaVuSans-20" transform="scale(0.015625)"/>
       <path d="M 2906 2969 
L 2906 4863 
L 3481 4863 
L 3481 0 
L 2906 0 
L 2906 525 
Q 2725 213 2448 61 
Q 2172 -91 1784 -91 
Q 1150 -91 751 415 
Q 353 922 353 1747 
Q 353 2572 751 3078 
Q 1150 3584 1784 3584 
Q 2172 3584 2448 3432 
Q 2725 3281 2906 2969 
z
M 947 1747 
Q 947 1113 1208 752 
Q 1469 391 1925 391 
Q 2381 391 2643 752 
Q 2906 1113 2906 1747 
Q 2906 2381 2643 2742 
Q 2381 3103 1925 3103 
Q 1469 3103 1208 2742 
Q 947 2381 947 1747 
z
" id="DejaVuSans-64" transform="scale(0.015625)"/>
       <path d="M 3597 1894 
L 3597 1613 
L 953 1613 
Q 991 1019 1311 708 
Q 1631 397 2203 397 
Q 2534 397 2845 478 
Q 3156 559 3463 722 
L 3463 178 
Q 3153 47 2828 -22 
Q 2503 -91 2169 -91 
Q 1331 -91 842 396 
Q 353 884 353 1716 
Q 353 2575 817 3079 
Q 1281 3584 2069 3584 
Q 2775 3584 3186 3129 
Q 3597 2675 3597 1894 
z
M 3022 2063 
Q 3016 2534 2758 2815 
Q 2500 3097 2075 3097 
Q 1594 3097 1305 2825 
Q 1016 2553 972 2059 
L 3022 2063 
z
" id="DejaVuSans-65" transform="scale(0.015625)"/>
       <path d="M 3122 3366 
L 3122 2828 
Q 2878 2963 2633 3030 
Q 2388 3097 2138 3097 
Q 1578 3097 1268 2742 
Q 959 2388 959 1747 
Q 959 1106 1268 751 
Q 1578 397 2138 397 
Q 2388 397 2633 464 
Q 2878 531 3122 666 
L 3122 134 
Q 2881 22 2623 -34 
Q 2366 -91 2075 -91 
Q 1284 -91 818 406 
Q 353 903 353 1747 
Q 353 2603 823 3093 
Q 1294 3584 2113 3584 
Q 2378 3584 2631 3529 
Q 2884 3475 3122 3366 
z
" id="DejaVuSans-63" transform="scale(0.015625)"/>
      </defs>
      <use xlink:href="#DejaVuSans-50"/>
      <use x="58.552734" xlink:href="#DejaVuSans-72"/>
      <use x="97.416016" xlink:href="#DejaVuSans-6f"/>
      <use x="158.597656" xlink:href="#DejaVuSans-70"/>
      <use x="222.074219" xlink:href="#DejaVuSans-61"/>
      <use x="283.353516" xlink:href="#DejaVuSans-67"/>
      <use x="346.830078" xlink:href="#DejaVuSans-61"/>
      <use x="408.109375" xlink:href="#DejaVuSans-74"/>
      <use x="447.318359" xlink:href="#DejaVuSans-69"/>
      <use x="475.101562" xlink:href="#DejaVuSans-6f"/>
      <use x="536.283203" xlink:href="#DejaVuSans-6e"/>
      <use x="599.662109" xlink:href="#DejaVuSans-20"/>
      <use x="631.449219" xlink:href="#DejaVuSans-64"/>
      <use x="694.925781" xlink:href="#DejaVuSans-69"/>
      <use x="722.708984" xlink:href="#DejaVuSans-72"/>
      <use x="761.572266" xlink:href="#DejaVuSans-65"/>
      <use x="823.095703" xlink:href="#DejaVuSans-63"/>
      <use x="878.076172" xlink:href="#DejaVuSans-74"/>
      <use x="917.285156" xlink:href="#DejaVuSans-69"/>
      <use x="945.068359" xlink:href="#DejaVuSans-6f"/>
      <use x="1006.25" xlink:href="#DejaVuSans-6e"/>
     </g>
    </g>
   </g>
   <g id="matplotlib.axis_2">
    <g id="ytick_1">
     <g id="line2d_7">
      <defs>
       <path d="M 0 0 
L -3.5 0 
" id="m95f7d4a8d1" style="stroke:#000000;stroke-width:0.8;"/>
      </defs>
      <g>
       <use style="stroke:#000000;stroke-width:0.8;" x="43.78125" xlink:href="#m95f7d4a8d1" y="273.312"/>
      </g>
     </g>
     <g id="text_8">
      <!-- 0.0 -->
      <g transform="translate(20.878125 277.111219)scale(0.1 -0.1)">
       <use xlink:href="#DejaVuSans-30"/>
       <use x="63.623047" xlink:href="#DejaVuSans-2e"/>
       <use x="95.410156" xlink:href="#DejaVuSans-30"/>
      </g>
     </g>
    </g>
    <g id="ytick_2">
     <g id="line2d_8">
      <g>
       <use style="stroke:#000000;stroke-width:0.8;" x="43.78125" xlink:href="#m95f7d4a8d1" y="214.20487"/>
      </g>
     </g>
     <g id="text_9">
      <!-- 0.5 -->
      <g transform="translate(20.878125 218.004088)scale(0.1 -0.1)">
       <defs>
        <path d="M 691 4666 
L 3169 4666 
L 3169 4134 
L 1269 4134 
L 1269 2991 
Q 1406 3038 1543 3061 
Q 1681 3084 1819 3084 
Q 2600 3084 3056 2656 
Q 3513 2228 3513 1497 
Q 3513 744 3044 326 
Q 2575 -91 1722 -91 
Q 1428 -91 1123 -41 
Q 819 9 494 109 
L 494 744 
Q 775 591 1075 516 
Q 1375 441 1709 441 
Q 2250 441 2565 725 
Q 2881 1009 2881 1497 
Q 2881 1984 2565 2268 
Q 2250 2553 1709 2553 
Q 1456 2553 1204 2497 
Q 953 2441 691 2322 
L 691 4666 
z
" id="DejaVuSans-35" transform="scale(0.015625)"/>
       </defs>
       <use xlink:href="#DejaVuSans-30"/>
       <use x="63.623047" xlink:href="#DejaVuSans-2e"/>
       <use x="95.410156" xlink:href="#DejaVuSans-35"/>
      </g>
     </g>
    </g>
    <g id="ytick_3">
     <g id="line2d_9">
      <g>
       <use style="stroke:#000000;stroke-width:0.8;" x="43.78125" xlink:href="#m95f7d4a8d1" y="155.097739"/>
      </g>
     </g>
     <g id="text_10">
      <!-- 1.0 -->
      <g transform="translate(20.878125 158.896958)scale(0.1 -0.1)">
       <use xlink:href="#DejaVuSans-31"/>
       <use x="63.623047" xlink:href="#DejaVuSans-2e"/>
       <use x="95.410156" xlink:href="#DejaVuSans-30"/>
      </g>
     </g>
    </g>
    <g id="ytick_4">
     <g id="line2d_10">
      <g>
       <use style="stroke:#000000;stroke-width:0.8;" x="43.78125" xlink:href="#m95f7d4a8d1" y="95.990609"/>
      </g>
     </g>
     <g id="text_11">
      <!-- 1.5 -->
      <g transform="translate(20.878125 99.789828)scale(0.1 -0.1)">
       <use xlink:href="#DejaVuSans-31"/>
       <use x="63.623047" xlink:href="#DejaVuSans-2e"/>
       <use x="95.410156" xlink:href="#DejaVuSans-35"/>
      </g>
     </g>
    </g>
    <g id="ytick_5">
     <g id="line2d_11">
      <g>
       <use style="stroke:#000000;stroke-width:0.8;" x="43.78125" xlink:href="#m95f7d4a8d1" y="36.883479"/>
      </g>
     </g>
     <g id="text_12">
      <!-- 2.0 -->
      <g transform="translate(20.878125 40.682697)scale(0.1 -0.1)">
       <use xlink:href="#DejaVuSans-32"/>
       <use x="63.623047" xlink:href="#DejaVuSans-2e"/>
       <use x="95.410156" xlink:href="#DejaVuSans-30"/>
      </g>
     </g>
    </g>
    <g id="text_13">
     <!-- Probability density -->
     <g transform="translate(14.798438 186.606781)rotate(-90)scale(0.1 -0.1)">
      <defs>
       <path d="M 3116 1747 
Q 3116 2381 2855 2742 
Q 2594 3103 2138 3103 
Q 1681 3103 1420 2742 
Q 1159 2381 1159 1747 
Q 1159 1113 1420 752 
Q 1681 391 2138 391 
Q 2594 391 2855 752 
Q 3116 1113 3116 1747 
z
M 1159 2969 
Q 1341 3281 1617 3432 
Q 1894 3584 2278 3584 
Q 2916 3584 3314 3078 
Q 3713 2572 3713 1747 
Q 3713 922 3314 415 
Q 2916 -91 2278 -91 
Q 1894 -91 1617 61 
Q 1341 213 1159 525 
L 1159 0 
L 581 0 
L 581 4863 
L 1159 4863 
L 1159 2969 
z
" id="DejaVuSans-62" transform="scale(0.015625)"/>
       <path d="M 603 4863 
L 1178 4863 
L 1178 0 
L 603 0 
L 603 4863 
z
" id="DejaVuSans-6c" transform="scale(0.015625)"/>
       <path d="M 2059 -325 
Q 1816 -950 1584 -1140 
Q 1353 -1331 966 -1331 
L 506 -1331 
L 506 -850 
L 844 -850 
Q 1081 -850 1212 -737 
Q 1344 -625 1503 -206 
L 1606 56 
L 191 3500 
L 800 3500 
L 1894 763 
L 2988 3500 
L 3597 3500 
L 2059 -325 
z
" id="DejaVuSans-79" transform="scale(0.015625)"/>
       <path d="M 2834 3397 
L 2834 2853 
Q 2591 2978 2328 3040 
Q 2066 3103 1784 3103 
Q 1356 3103 1142 2972 
Q 928 2841 928 2578 
Q 928 2378 1081 2264 
Q 1234 2150 1697 2047 
L 1894 2003 
Q 2506 1872 2764 1633 
Q 3022 1394 3022 966 
Q 3022 478 2636 193 
Q 2250 -91 1575 -91 
Q 1294 -91 989 -36 
Q 684 19 347 128 
L 347 722 
Q 666 556 975 473 
Q 1284 391 1588 391 
Q 1994 391 2212 530 
Q 2431 669 2431 922 
Q 2431 1156 2273 1281 
Q 2116 1406 1581 1522 
L 1381 1569 
Q 847 1681 609 1914 
Q 372 2147 372 2553 
Q 372 3047 722 3315 
Q 1072 3584 1716 3584 
Q 2034 3584 2315 3537 
Q 2597 3491 2834 3397 
z
" id="DejaVuSans-73" transform="scale(0.015625)"/>
      </defs>
      <use xlink:href="#DejaVuSans-50"/>
      <use x="58.552734" xlink:href="#DejaVuSans-72"/>
      <use x="97.416016" xlink:href="#DejaVuSans-6f"/>
      <use x="158.597656" xlink:href="#DejaVuSans-62"/>
      <use x="222.074219" xlink:href="#DejaVuSans-61"/>
      <use x="283.353516" xlink:href="#DejaVuSans-62"/>
      <use x="346.830078" xlink:href="#DejaVuSans-69"/>
      <use x="374.613281" xlink:href="#DejaVuSans-6c"/>
      <use x="402.396484" xlink:href="#DejaVuSans-69"/>
      <use x="430.179688" xlink:href="#DejaVuSans-74"/>
      <use x="469.388672" xlink:href="#DejaVuSans-79"/>
      <use x="528.568359" xlink:href="#DejaVuSans-20"/>
      <use x="560.355469" xlink:href="#DejaVuSans-64"/>
      <use x="623.832031" xlink:href="#DejaVuSans-65"/>
      <use x="685.355469" xlink:href="#DejaVuSans-6e"/>
      <use x="748.734375" xlink:href="#DejaVuSans-73"/>
      <use x="800.833984" xlink:href="#DejaVuSans-69"/>
      <use x="828.617188" xlink:href="#DejaVuSans-74"/>
      <use x="867.826172" xlink:href="#DejaVuSans-79"/>
     </g>
    </g>
   </g>
   <g id="line2d_12">
    <path clip-path="url(#pa04861e572)" d="M 60.013977 273.312 
L 384.668523 36.883479 
L 384.668523 36.883479 
" style="fill:none;stroke:#ff7f0e;stroke-linecap:square;stroke-width:1.5;"/>
   </g>
   <g id="patch_203">
    <path d="M 43.78125 273.312 
L 43.78125 7.2 
" style="fill:none;stroke:#000000;stroke-linecap:square;stroke-linejoin:miter;stroke-width:0.8;"/>
   </g>
   <g id="patch_204">
    <path d="M 400.90125 273.312 
L 400.90125 7.2 
" style="fill:none;stroke:#000000;stroke-linecap:square;stroke-linejoin:miter;stroke-width:0.8;"/>
   </g>
   <g id="patch_205">
    <path d="M 43.78125 273.312 
L 400.90125 273.312 
" style="fill:none;stroke:#000000;stroke-linecap:square;stroke-linejoin:miter;stroke-width:0.8;"/>
   </g>
   <g id="patch_206">
    <path d="M 43.78125 7.2 
L 400.90125 7.2 
" style="fill:none;stroke:#000000;stroke-linecap:square;stroke-linejoin:miter;stroke-width:0.8;"/>
   </g>
  </g>
 </g>
 <defs>
  <clipPath id="pa04861e572">
   <rect height="266.112" width="357.12" x="43.78125" y="7.2"/>
  </clipPath>
 </defs>
</svg>
