<?xml version="1.0" encoding="utf-8" standalone="no"?>
<!DOCTYPE svg PUBLIC "-//W3C//DTD SVG 1.1//EN"
  "http://www.w3.org/Graphics/SVG/1.1/DTD/svg11.dtd">
<svg height="310.86825pt" version="1.1" viewBox="0 0 408.10125 310.86825" width="408.10125pt" xmlns="http://www.w3.org/2000/svg" xmlns:xlink="http://www.w3.org/1999/xlink">
 <metadata>
  <rdf:RDF xmlns:cc="http://creativecommons.org/ns#" xmlns:dc="http://purl.org/dc/elements/1.1/" xmlns:rdf="http://www.w3.org/1999/02/22-rdf-syntax-ns#">
   <cc:Work>
    <dc:type rdf:resource="http://purl.org/dc/dcmitype/StillImage"/>
    <dc:date>2021-06-22T15:59:36.927919</dc:date>
    <dc:format>image/svg+xml</dc:format>
    <dc:creator>
     <cc:Agent>
      <dc:title>Matplotlib v3.4.2, https://matplotlib.org/</dc:title>
     </cc:Agent>
    </dc:creator>
   </cc:Work>
  </rdf:RDF>
 </metadata>
 <defs>
  <style type="text/css">*{stroke-linecap:butt;stroke-linejoin:round;}</style>
 </defs>
 <g id="figure_1">
  <g id="patch_1">
   <path d="M 0 310.86825 
L 408.10125 310.86825 
L 408.10125 0 
L 0 0 
z
" style="fill:#ffffff;"/>
  </g>
  <g id="axes_1">
   <g id="patch_2">
    <path d="M 43.78125 273.312 
L 400.90125 273.312 
L 400.90125 7.2 
L 43.78125 7.2 
z
" style="fill:#ffffff;"/>
   </g>
   <g id="patch_3">
    <path clip-path="url(#p56782ddca8)" d="M 61.387891 273.312 
L 63.001565 273.312 
L 63.001565 266.832 
L 61.387891 266.832 
z
" style="fill:#1f77b4;"/>
   </g>
   <g id="patch_4">
    <path clip-path="url(#p56782ddca8)" d="M 63.001565 273.312 
L 64.615239 273.312 
L 64.615239 263.952 
L 63.001565 263.952 
z
" style="fill:#1f77b4;"/>
   </g>
   <g id="patch_5">
    <path clip-path="url(#p56782ddca8)" d="M 64.615239 273.312 
L 66.228913 273.312 
L 66.228913 268.992 
L 64.615239 268.992 
z
" style="fill:#1f77b4;"/>
   </g>
   <g id="patch_6">
    <path clip-path="url(#p56782ddca8)" d="M 66.228913 273.312 
L 67.842587 273.312 
L 67.842587 252.432 
L 66.228913 252.432 
z
" style="fill:#1f77b4;"/>
   </g>
   <g id="patch_7">
    <path clip-path="url(#p56782ddca8)" d="M 67.842587 273.312 
L 69.456262 273.312 
L 69.456262 258.192 
L 67.842587 258.192 
z
" style="fill:#1f77b4;"/>
   </g>
   <g id="patch_8">
    <path clip-path="url(#p56782ddca8)" d="M 69.456262 273.312 
L 71.069936 273.312 
L 71.069936 242.352 
L 69.456262 242.352 
z
" style="fill:#1f77b4;"/>
   </g>
   <g id="patch_9">
    <path clip-path="url(#p56782ddca8)" d="M 71.069936 273.312 
L 72.68361 273.312 
L 72.68361 242.352 
L 71.069936 242.352 
z
" style="fill:#1f77b4;"/>
   </g>
   <g id="patch_10">
    <path clip-path="url(#p56782ddca8)" d="M 72.68361 273.312 
L 74.297284 273.312 
L 74.297284 243.072 
L 72.68361 243.072 
z
" style="fill:#1f77b4;"/>
   </g>
   <g id="patch_11">
    <path clip-path="url(#p56782ddca8)" d="M 74.297284 273.312 
L 75.910958 273.312 
L 75.910958 236.592 
L 74.297284 236.592 
z
" style="fill:#1f77b4;"/>
   </g>
   <g id="patch_12">
    <path clip-path="url(#p56782ddca8)" d="M 75.910958 273.312 
L 77.524633 273.312 
L 77.524633 235.152 
L 75.910958 235.152 
z
" style="fill:#1f77b4;"/>
   </g>
   <g id="patch_13">
    <path clip-path="url(#p56782ddca8)" d="M 77.524633 273.312 
L 79.138307 273.312 
L 79.138307 235.872 
L 77.524633 235.872 
z
" style="fill:#1f77b4;"/>
   </g>
   <g id="patch_14">
    <path clip-path="url(#p56782ddca8)" d="M 79.138307 273.312 
L 80.751981 273.312 
L 80.751981 232.992 
L 79.138307 232.992 
z
" style="fill:#1f77b4;"/>
   </g>
   <g id="patch_15">
    <path clip-path="url(#p56782ddca8)" d="M 80.751981 273.312 
L 82.365655 273.312 
L 82.365655 231.552 
L 80.751981 231.552 
z
" style="fill:#1f77b4;"/>
   </g>
   <g id="patch_16">
    <path clip-path="url(#p56782ddca8)" d="M 82.365655 273.312 
L 83.97933 273.312 
L 83.97933 212.832 
L 82.365655 212.832 
z
" style="fill:#1f77b4;"/>
   </g>
   <g id="patch_17">
    <path clip-path="url(#p56782ddca8)" d="M 83.97933 273.312 
L 85.593004 273.312 
L 85.593004 220.752 
L 83.97933 220.752 
z
" style="fill:#1f77b4;"/>
   </g>
   <g id="patch_18">
    <path clip-path="url(#p56782ddca8)" d="M 85.593004 273.312 
L 87.206678 273.312 
L 87.206678 227.232 
L 85.593004 227.232 
z
" style="fill:#1f77b4;"/>
   </g>
   <g id="patch_19">
    <path clip-path="url(#p56782ddca8)" d="M 87.206678 273.312 
L 88.820352 273.312 
L 88.820352 214.992 
L 87.206678 214.992 
z
" style="fill:#1f77b4;"/>
   </g>
   <g id="patch_20">
    <path clip-path="url(#p56782ddca8)" d="M 88.820352 273.312 
L 90.434026 273.312 
L 90.434026 207.072 
L 88.820352 207.072 
z
" style="fill:#1f77b4;"/>
   </g>
   <g id="patch_21">
    <path clip-path="url(#p56782ddca8)" d="M 90.434026 273.312 
L 92.047701 273.312 
L 92.047701 209.232 
L 90.434026 209.232 
z
" style="fill:#1f77b4;"/>
   </g>
   <g id="patch_22">
    <path clip-path="url(#p56782ddca8)" d="M 92.047701 273.312 
L 93.661375 273.312 
L 93.661375 208.512 
L 92.047701 208.512 
z
" style="fill:#1f77b4;"/>
   </g>
   <g id="patch_23">
    <path clip-path="url(#p56782ddca8)" d="M 93.661375 273.312 
L 95.275049 273.312 
L 95.275049 198.432 
L 93.661375 198.432 
z
" style="fill:#1f77b4;"/>
   </g>
   <g id="patch_24">
    <path clip-path="url(#p56782ddca8)" d="M 95.275049 273.312 
L 96.888723 273.312 
L 96.888723 196.992 
L 95.275049 196.992 
z
" style="fill:#1f77b4;"/>
   </g>
   <g id="patch_25">
    <path clip-path="url(#p56782ddca8)" d="M 96.888723 273.312 
L 98.502397 273.312 
L 98.502397 199.872 
L 96.888723 199.872 
z
" style="fill:#1f77b4;"/>
   </g>
   <g id="patch_26">
    <path clip-path="url(#p56782ddca8)" d="M 98.502397 273.312 
L 100.116072 273.312 
L 100.116072 176.832 
L 98.502397 176.832 
z
" style="fill:#1f77b4;"/>
   </g>
   <g id="patch_27">
    <path clip-path="url(#p56782ddca8)" d="M 100.116072 273.312 
L 101.729746 273.312 
L 101.729746 189.792 
L 100.116072 189.792 
z
" style="fill:#1f77b4;"/>
   </g>
   <g id="patch_28">
    <path clip-path="url(#p56782ddca8)" d="M 101.729746 273.312 
L 103.34342 273.312 
L 103.34342 184.032 
L 101.729746 184.032 
z
" style="fill:#1f77b4;"/>
   </g>
   <g id="patch_29">
    <path clip-path="url(#p56782ddca8)" d="M 103.34342 273.312 
L 104.957094 273.312 
L 104.957094 176.832 
L 103.34342 176.832 
z
" style="fill:#1f77b4;"/>
   </g>
   <g id="patch_30">
    <path clip-path="url(#p56782ddca8)" d="M 104.957094 273.312 
L 106.570769 273.312 
L 106.570769 184.752 
L 104.957094 184.752 
z
" style="fill:#1f77b4;"/>
   </g>
   <g id="patch_31">
    <path clip-path="url(#p56782ddca8)" d="M 106.570769 273.312 
L 108.184443 273.312 
L 108.184443 171.792 
L 106.570769 171.792 
z
" style="fill:#1f77b4;"/>
   </g>
   <g id="patch_32">
    <path clip-path="url(#p56782ddca8)" d="M 108.184443 273.312 
L 109.798117 273.312 
L 109.798117 171.792 
L 108.184443 171.792 
z
" style="fill:#1f77b4;"/>
   </g>
   <g id="patch_33">
    <path clip-path="url(#p56782ddca8)" d="M 109.798117 273.312 
L 111.411791 273.312 
L 111.411791 173.952 
L 109.798117 173.952 
z
" style="fill:#1f77b4;"/>
   </g>
   <g id="patch_34">
    <path clip-path="url(#p56782ddca8)" d="M 111.411791 273.312 
L 113.025465 273.312 
L 113.025465 154.512 
L 111.411791 154.512 
z
" style="fill:#1f77b4;"/>
   </g>
   <g id="patch_35">
    <path clip-path="url(#p56782ddca8)" d="M 113.025465 273.312 
L 114.63914 273.312 
L 114.63914 181.872 
L 113.025465 181.872 
z
" style="fill:#1f77b4;"/>
   </g>
   <g id="patch_36">
    <path clip-path="url(#p56782ddca8)" d="M 114.63914 273.312 
L 116.252814 273.312 
L 116.252814 149.472 
L 114.63914 149.472 
z
" style="fill:#1f77b4;"/>
   </g>
   <g id="patch_37">
    <path clip-path="url(#p56782ddca8)" d="M 116.252814 273.312 
L 117.866488 273.312 
L 117.866488 156.672 
L 116.252814 156.672 
z
" style="fill:#1f77b4;"/>
   </g>
   <g id="patch_38">
    <path clip-path="url(#p56782ddca8)" d="M 117.866488 273.312 
L 119.480162 273.312 
L 119.480162 161.712 
L 117.866488 161.712 
z
" style="fill:#1f77b4;"/>
   </g>
   <g id="patch_39">
    <path clip-path="url(#p56782ddca8)" d="M 119.480162 273.312 
L 121.093836 273.312 
L 121.093836 150.192 
L 119.480162 150.192 
z
" style="fill:#1f77b4;"/>
   </g>
   <g id="patch_40">
    <path clip-path="url(#p56782ddca8)" d="M 121.093836 273.312 
L 122.707511 273.312 
L 122.707511 134.352 
L 121.093836 134.352 
z
" style="fill:#1f77b4;"/>
   </g>
   <g id="patch_41">
    <path clip-path="url(#p56782ddca8)" d="M 122.707511 273.312 
L 124.321185 273.312 
L 124.321185 136.512 
L 122.707511 136.512 
z
" style="fill:#1f77b4;"/>
   </g>
   <g id="patch_42">
    <path clip-path="url(#p56782ddca8)" d="M 124.321185 273.312 
L 125.934859 273.312 
L 125.934859 126.432 
L 124.321185 126.432 
z
" style="fill:#1f77b4;"/>
   </g>
   <g id="patch_43">
    <path clip-path="url(#p56782ddca8)" d="M 125.934859 273.312 
L 127.548533 273.312 
L 127.548533 133.632 
L 125.934859 133.632 
z
" style="fill:#1f77b4;"/>
   </g>
   <g id="patch_44">
    <path clip-path="url(#p56782ddca8)" d="M 127.548533 273.312 
L 129.162208 273.312 
L 129.162208 147.312 
L 127.548533 147.312 
z
" style="fill:#1f77b4;"/>
   </g>
   <g id="patch_45">
    <path clip-path="url(#p56782ddca8)" d="M 129.162208 273.312 
L 130.775882 273.312 
L 130.775882 125.712 
L 129.162208 125.712 
z
" style="fill:#1f77b4;"/>
   </g>
   <g id="patch_46">
    <path clip-path="url(#p56782ddca8)" d="M 130.775882 273.312 
L 132.389556 273.312 
L 132.389556 140.112 
L 130.775882 140.112 
z
" style="fill:#1f77b4;"/>
   </g>
   <g id="patch_47">
    <path clip-path="url(#p56782ddca8)" d="M 132.389556 273.312 
L 134.00323 273.312 
L 134.00323 133.632 
L 132.389556 133.632 
z
" style="fill:#1f77b4;"/>
   </g>
   <g id="patch_48">
    <path clip-path="url(#p56782ddca8)" d="M 134.00323 273.312 
L 135.616904 273.312 
L 135.616904 116.352 
L 134.00323 116.352 
z
" style="fill:#1f77b4;"/>
   </g>
   <g id="patch_49">
    <path clip-path="url(#p56782ddca8)" d="M 135.616904 273.312 
L 137.230579 273.312 
L 137.230579 123.552 
L 135.616904 123.552 
z
" style="fill:#1f77b4;"/>
   </g>
   <g id="patch_50">
    <path clip-path="url(#p56782ddca8)" d="M 137.230579 273.312 
L 138.844253 273.312 
L 138.844253 123.552 
L 137.230579 123.552 
z
" style="fill:#1f77b4;"/>
   </g>
   <g id="patch_51">
    <path clip-path="url(#p56782ddca8)" d="M 138.844253 273.312 
L 140.457927 273.312 
L 140.457927 104.832 
L 138.844253 104.832 
z
" style="fill:#1f77b4;"/>
   </g>
   <g id="patch_52">
    <path clip-path="url(#p56782ddca8)" d="M 140.457927 273.312 
L 142.071601 273.312 
L 142.071601 114.912 
L 140.457927 114.912 
z
" style="fill:#1f77b4;"/>
   </g>
   <g id="patch_53">
    <path clip-path="url(#p56782ddca8)" d="M 142.071601 273.312 
L 143.685275 273.312 
L 143.685275 119.952 
L 142.071601 119.952 
z
" style="fill:#1f77b4;"/>
   </g>
   <g id="patch_54">
    <path clip-path="url(#p56782ddca8)" d="M 143.685275 273.312 
L 145.29895 273.312 
L 145.29895 102.672 
L 143.685275 102.672 
z
" style="fill:#1f77b4;"/>
   </g>
   <g id="patch_55">
    <path clip-path="url(#p56782ddca8)" d="M 145.29895 273.312 
L 146.912624 273.312 
L 146.912624 78.912 
L 145.29895 78.912 
z
" style="fill:#1f77b4;"/>
   </g>
   <g id="patch_56">
    <path clip-path="url(#p56782ddca8)" d="M 146.912624 273.312 
L 148.526298 273.312 
L 148.526298 119.232 
L 146.912624 119.232 
z
" style="fill:#1f77b4;"/>
   </g>
   <g id="patch_57">
    <path clip-path="url(#p56782ddca8)" d="M 148.526298 273.312 
L 150.139972 273.312 
L 150.139972 98.352 
L 148.526298 98.352 
z
" style="fill:#1f77b4;"/>
   </g>
   <g id="patch_58">
    <path clip-path="url(#p56782ddca8)" d="M 150.139972 273.312 
L 151.753647 273.312 
L 151.753647 107.712 
L 150.139972 107.712 
z
" style="fill:#1f77b4;"/>
   </g>
   <g id="patch_59">
    <path clip-path="url(#p56782ddca8)" d="M 151.753647 273.312 
L 153.367321 273.312 
L 153.367321 94.032 
L 151.753647 94.032 
z
" style="fill:#1f77b4;"/>
   </g>
   <g id="patch_60">
    <path clip-path="url(#p56782ddca8)" d="M 153.367321 273.312 
L 154.980995 273.312 
L 154.980995 81.792 
L 153.367321 81.792 
z
" style="fill:#1f77b4;"/>
   </g>
   <g id="patch_61">
    <path clip-path="url(#p56782ddca8)" d="M 154.980995 273.312 
L 156.594669 273.312 
L 156.594669 93.312 
L 154.980995 93.312 
z
" style="fill:#1f77b4;"/>
   </g>
   <g id="patch_62">
    <path clip-path="url(#p56782ddca8)" d="M 156.594669 273.312 
L 158.208343 273.312 
L 158.208343 97.632 
L 156.594669 97.632 
z
" style="fill:#1f77b4;"/>
   </g>
   <g id="patch_63">
    <path clip-path="url(#p56782ddca8)" d="M 158.208343 273.312 
L 159.822018 273.312 
L 159.822018 112.752 
L 158.208343 112.752 
z
" style="fill:#1f77b4;"/>
   </g>
   <g id="patch_64">
    <path clip-path="url(#p56782ddca8)" d="M 159.822018 273.312 
L 161.435692 273.312 
L 161.435692 78.192 
L 159.822018 78.192 
z
" style="fill:#1f77b4;"/>
   </g>
   <g id="patch_65">
    <path clip-path="url(#p56782ddca8)" d="M 161.435692 273.312 
L 163.049366 273.312 
L 163.049366 94.032 
L 161.435692 94.032 
z
" style="fill:#1f77b4;"/>
   </g>
   <g id="patch_66">
    <path clip-path="url(#p56782ddca8)" d="M 163.049366 273.312 
L 164.66304 273.312 
L 164.66304 88.272 
L 163.049366 88.272 
z
" style="fill:#1f77b4;"/>
   </g>
   <g id="patch_67">
    <path clip-path="url(#p56782ddca8)" d="M 164.66304 273.312 
L 166.276714 273.312 
L 166.276714 68.832 
L 164.66304 68.832 
z
" style="fill:#1f77b4;"/>
   </g>
   <g id="patch_68">
    <path clip-path="url(#p56782ddca8)" d="M 166.276714 273.312 
L 167.890389 273.312 
L 167.890389 104.832 
L 166.276714 104.832 
z
" style="fill:#1f77b4;"/>
   </g>
   <g id="patch_69">
    <path clip-path="url(#p56782ddca8)" d="M 167.890389 273.312 
L 169.504063 273.312 
L 169.504063 71.712 
L 167.890389 71.712 
z
" style="fill:#1f77b4;"/>
   </g>
   <g id="patch_70">
    <path clip-path="url(#p56782ddca8)" d="M 169.504063 273.312 
L 171.117737 273.312 
L 171.117737 59.472 
L 169.504063 59.472 
z
" style="fill:#1f77b4;"/>
   </g>
   <g id="patch_71">
    <path clip-path="url(#p56782ddca8)" d="M 171.117737 273.312 
L 172.731411 273.312 
L 172.731411 83.232 
L 171.117737 83.232 
z
" style="fill:#1f77b4;"/>
   </g>
   <g id="patch_72">
    <path clip-path="url(#p56782ddca8)" d="M 172.731411 273.312 
L 174.345086 273.312 
L 174.345086 81.792 
L 172.731411 81.792 
z
" style="fill:#1f77b4;"/>
   </g>
   <g id="patch_73">
    <path clip-path="url(#p56782ddca8)" d="M 174.345086 273.312 
L 175.95876 273.312 
L 175.95876 86.832 
L 174.345086 86.832 
z
" style="fill:#1f77b4;"/>
   </g>
   <g id="patch_74">
    <path clip-path="url(#p56782ddca8)" d="M 175.95876 273.312 
L 177.572434 273.312 
L 177.572434 76.032 
L 175.95876 76.032 
z
" style="fill:#1f77b4;"/>
   </g>
   <g id="patch_75">
    <path clip-path="url(#p56782ddca8)" d="M 177.572434 273.312 
L 179.186108 273.312 
L 179.186108 50.112 
L 177.572434 50.112 
z
" style="fill:#1f77b4;"/>
   </g>
   <g id="patch_76">
    <path clip-path="url(#p56782ddca8)" d="M 179.186108 273.312 
L 180.799782 273.312 
L 180.799782 65.952 
L 179.186108 65.952 
z
" style="fill:#1f77b4;"/>
   </g>
   <g id="patch_77">
    <path clip-path="url(#p56782ddca8)" d="M 180.799782 273.312 
L 182.413457 273.312 
L 182.413457 76.752 
L 180.799782 76.752 
z
" style="fill:#1f77b4;"/>
   </g>
   <g id="patch_78">
    <path clip-path="url(#p56782ddca8)" d="M 182.413457 273.312 
L 184.027131 273.312 
L 184.027131 71.712 
L 182.413457 71.712 
z
" style="fill:#1f77b4;"/>
   </g>
   <g id="patch_79">
    <path clip-path="url(#p56782ddca8)" d="M 184.027131 273.312 
L 185.640805 273.312 
L 185.640805 44.352 
L 184.027131 44.352 
z
" style="fill:#1f77b4;"/>
   </g>
   <g id="patch_80">
    <path clip-path="url(#p56782ddca8)" d="M 185.640805 273.312 
L 187.254479 273.312 
L 187.254479 73.872 
L 185.640805 73.872 
z
" style="fill:#1f77b4;"/>
   </g>
   <g id="patch_81">
    <path clip-path="url(#p56782ddca8)" d="M 187.254479 273.312 
L 188.868153 273.312 
L 188.868153 46.512 
L 187.254479 46.512 
z
" style="fill:#1f77b4;"/>
   </g>
   <g id="patch_82">
    <path clip-path="url(#p56782ddca8)" d="M 188.868153 273.312 
L 190.481828 273.312 
L 190.481828 54.432 
L 188.868153 54.432 
z
" style="fill:#1f77b4;"/>
   </g>
   <g id="patch_83">
    <path clip-path="url(#p56782ddca8)" d="M 190.481828 273.312 
L 192.095502 273.312 
L 192.095502 72.432 
L 190.481828 72.432 
z
" style="fill:#1f77b4;"/>
   </g>
   <g id="patch_84">
    <path clip-path="url(#p56782ddca8)" d="M 192.095502 273.312 
L 193.709176 273.312 
L 193.709176 78.912 
L 192.095502 78.912 
z
" style="fill:#1f77b4;"/>
   </g>
   <g id="patch_85">
    <path clip-path="url(#p56782ddca8)" d="M 193.709176 273.312 
L 195.32285 273.312 
L 195.32285 68.832 
L 193.709176 68.832 
z
" style="fill:#1f77b4;"/>
   </g>
   <g id="patch_86">
    <path clip-path="url(#p56782ddca8)" d="M 195.32285 273.312 
L 196.936525 273.312 
L 196.936525 62.352 
L 195.32285 62.352 
z
" style="fill:#1f77b4;"/>
   </g>
   <g id="patch_87">
    <path clip-path="url(#p56782ddca8)" d="M 196.936525 273.312 
L 198.550199 273.312 
L 198.550199 57.312 
L 196.936525 57.312 
z
" style="fill:#1f77b4;"/>
   </g>
   <g id="patch_88">
    <path clip-path="url(#p56782ddca8)" d="M 198.550199 273.312 
L 200.163873 273.312 
L 200.163873 46.512 
L 198.550199 46.512 
z
" style="fill:#1f77b4;"/>
   </g>
   <g id="patch_89">
    <path clip-path="url(#p56782ddca8)" d="M 200.163873 273.312 
L 201.777547 273.312 
L 201.777547 65.952 
L 200.163873 65.952 
z
" style="fill:#1f77b4;"/>
   </g>
   <g id="patch_90">
    <path clip-path="url(#p56782ddca8)" d="M 201.777547 273.312 
L 203.391221 273.312 
L 203.391221 55.152 
L 201.777547 55.152 
z
" style="fill:#1f77b4;"/>
   </g>
   <g id="patch_91">
    <path clip-path="url(#p56782ddca8)" d="M 203.391221 273.312 
L 205.004896 273.312 
L 205.004896 47.232 
L 203.391221 47.232 
z
" style="fill:#1f77b4;"/>
   </g>
   <g id="patch_92">
    <path clip-path="url(#p56782ddca8)" d="M 205.004896 273.312 
L 206.61857 273.312 
L 206.61857 60.912 
L 205.004896 60.912 
z
" style="fill:#1f77b4;"/>
   </g>
   <g id="patch_93">
    <path clip-path="url(#p56782ddca8)" d="M 206.61857 273.312 
L 208.232244 273.312 
L 208.232244 19.872 
L 206.61857 19.872 
z
" style="fill:#1f77b4;"/>
   </g>
   <g id="patch_94">
    <path clip-path="url(#p56782ddca8)" d="M 208.232244 273.312 
L 209.845918 273.312 
L 209.845918 47.952 
L 208.232244 47.952 
z
" style="fill:#1f77b4;"/>
   </g>
   <g id="patch_95">
    <path clip-path="url(#p56782ddca8)" d="M 209.845918 273.312 
L 211.459592 273.312 
L 211.459592 50.112 
L 209.845918 50.112 
z
" style="fill:#1f77b4;"/>
   </g>
   <g id="patch_96">
    <path clip-path="url(#p56782ddca8)" d="M 211.459592 273.312 
L 213.073267 273.312 
L 213.073267 54.432 
L 211.459592 54.432 
z
" style="fill:#1f77b4;"/>
   </g>
   <g id="patch_97">
    <path clip-path="url(#p56782ddca8)" d="M 213.073267 273.312 
L 214.686941 273.312 
L 214.686941 55.152 
L 213.073267 55.152 
z
" style="fill:#1f77b4;"/>
   </g>
   <g id="patch_98">
    <path clip-path="url(#p56782ddca8)" d="M 214.686941 273.312 
L 216.300615 273.312 
L 216.300615 65.952 
L 214.686941 65.952 
z
" style="fill:#1f77b4;"/>
   </g>
   <g id="patch_99">
    <path clip-path="url(#p56782ddca8)" d="M 216.300615 273.312 
L 217.914289 273.312 
L 217.914289 24.912 
L 216.300615 24.912 
z
" style="fill:#1f77b4;"/>
   </g>
   <g id="patch_100">
    <path clip-path="url(#p56782ddca8)" d="M 217.914289 273.312 
L 219.527964 273.312 
L 219.527964 33.552 
L 217.914289 33.552 
z
" style="fill:#1f77b4;"/>
   </g>
   <g id="patch_101">
    <path clip-path="url(#p56782ddca8)" d="M 219.527964 273.312 
L 221.141638 273.312 
L 221.141638 75.312 
L 219.527964 75.312 
z
" style="fill:#1f77b4;"/>
   </g>
   <g id="patch_102">
    <path clip-path="url(#p56782ddca8)" d="M 221.141638 273.312 
L 222.755312 273.312 
L 222.755312 48.672 
L 221.141638 48.672 
z
" style="fill:#1f77b4;"/>
   </g>
   <g id="patch_103">
    <path clip-path="url(#p56782ddca8)" d="M 222.755312 273.312 
L 224.368986 273.312 
L 224.368986 20.592 
L 222.755312 20.592 
z
" style="fill:#1f77b4;"/>
   </g>
   <g id="patch_104">
    <path clip-path="url(#p56782ddca8)" d="M 224.368986 273.312 
L 225.98266 273.312 
L 225.98266 40.752 
L 224.368986 40.752 
z
" style="fill:#1f77b4;"/>
   </g>
   <g id="patch_105">
    <path clip-path="url(#p56782ddca8)" d="M 225.98266 273.312 
L 227.596335 273.312 
L 227.596335 48.672 
L 225.98266 48.672 
z
" style="fill:#1f77b4;"/>
   </g>
   <g id="patch_106">
    <path clip-path="url(#p56782ddca8)" d="M 227.596335 273.312 
L 229.210009 273.312 
L 229.210009 52.272 
L 227.596335 52.272 
z
" style="fill:#1f77b4;"/>
   </g>
   <g id="patch_107">
    <path clip-path="url(#p56782ddca8)" d="M 229.210009 273.312 
L 230.823683 273.312 
L 230.823683 40.032 
L 229.210009 40.032 
z
" style="fill:#1f77b4;"/>
   </g>
   <g id="patch_108">
    <path clip-path="url(#p56782ddca8)" d="M 230.823683 273.312 
L 232.437357 273.312 
L 232.437357 51.552 
L 230.823683 51.552 
z
" style="fill:#1f77b4;"/>
   </g>
   <g id="patch_109">
    <path clip-path="url(#p56782ddca8)" d="M 232.437357 273.312 
L 234.051031 273.312 
L 234.051031 66.672 
L 232.437357 66.672 
z
" style="fill:#1f77b4;"/>
   </g>
   <g id="patch_110">
    <path clip-path="url(#p56782ddca8)" d="M 234.051031 273.312 
L 235.664706 273.312 
L 235.664706 62.352 
L 234.051031 62.352 
z
" style="fill:#1f77b4;"/>
   </g>
   <g id="patch_111">
    <path clip-path="url(#p56782ddca8)" d="M 235.664706 273.312 
L 237.27838 273.312 
L 237.27838 37.872 
L 235.664706 37.872 
z
" style="fill:#1f77b4;"/>
   </g>
   <g id="patch_112">
    <path clip-path="url(#p56782ddca8)" d="M 237.27838 273.312 
L 238.892054 273.312 
L 238.892054 31.392 
L 237.27838 31.392 
z
" style="fill:#1f77b4;"/>
   </g>
   <g id="patch_113">
    <path clip-path="url(#p56782ddca8)" d="M 238.892054 273.312 
L 240.505728 273.312 
L 240.505728 61.632 
L 238.892054 61.632 
z
" style="fill:#1f77b4;"/>
   </g>
   <g id="patch_114">
    <path clip-path="url(#p56782ddca8)" d="M 240.505728 273.312 
L 242.119403 273.312 
L 242.119403 60.912 
L 240.505728 60.912 
z
" style="fill:#1f77b4;"/>
   </g>
   <g id="patch_115">
    <path clip-path="url(#p56782ddca8)" d="M 242.119403 273.312 
L 243.733077 273.312 
L 243.733077 45.072 
L 242.119403 45.072 
z
" style="fill:#1f77b4;"/>
   </g>
   <g id="patch_116">
    <path clip-path="url(#p56782ddca8)" d="M 243.733077 273.312 
L 245.346751 273.312 
L 245.346751 32.832 
L 243.733077 32.832 
z
" style="fill:#1f77b4;"/>
   </g>
   <g id="patch_117">
    <path clip-path="url(#p56782ddca8)" d="M 245.346751 273.312 
L 246.960425 273.312 
L 246.960425 39.312 
L 245.346751 39.312 
z
" style="fill:#1f77b4;"/>
   </g>
   <g id="patch_118">
    <path clip-path="url(#p56782ddca8)" d="M 246.960425 273.312 
L 248.574099 273.312 
L 248.574099 47.952 
L 246.960425 47.952 
z
" style="fill:#1f77b4;"/>
   </g>
   <g id="patch_119">
    <path clip-path="url(#p56782ddca8)" d="M 248.574099 273.312 
L 250.187774 273.312 
L 250.187774 46.512 
L 248.574099 46.512 
z
" style="fill:#1f77b4;"/>
   </g>
   <g id="patch_120">
    <path clip-path="url(#p56782ddca8)" d="M 250.187774 273.312 
L 251.801448 273.312 
L 251.801448 57.312 
L 250.187774 57.312 
z
" style="fill:#1f77b4;"/>
   </g>
   <g id="patch_121">
    <path clip-path="url(#p56782ddca8)" d="M 251.801448 273.312 
L 253.415122 273.312 
L 253.415122 58.752 
L 251.801448 58.752 
z
" style="fill:#1f77b4;"/>
   </g>
   <g id="patch_122">
    <path clip-path="url(#p56782ddca8)" d="M 253.415122 273.312 
L 255.028796 273.312 
L 255.028796 58.032 
L 253.415122 58.032 
z
" style="fill:#1f77b4;"/>
   </g>
   <g id="patch_123">
    <path clip-path="url(#p56782ddca8)" d="M 255.028796 273.312 
L 256.64247 273.312 
L 256.64247 55.152 
L 255.028796 55.152 
z
" style="fill:#1f77b4;"/>
   </g>
   <g id="patch_124">
    <path clip-path="url(#p56782ddca8)" d="M 256.64247 273.312 
L 258.256145 273.312 
L 258.256145 68.112 
L 256.64247 68.112 
z
" style="fill:#1f77b4;"/>
   </g>
   <g id="patch_125">
    <path clip-path="url(#p56782ddca8)" d="M 258.256145 273.312 
L 259.869819 273.312 
L 259.869819 58.032 
L 258.256145 58.032 
z
" style="fill:#1f77b4;"/>
   </g>
   <g id="patch_126">
    <path clip-path="url(#p56782ddca8)" d="M 259.869819 273.312 
L 261.483493 273.312 
L 261.483493 63.792 
L 259.869819 63.792 
z
" style="fill:#1f77b4;"/>
   </g>
   <g id="patch_127">
    <path clip-path="url(#p56782ddca8)" d="M 261.483493 273.312 
L 263.097167 273.312 
L 263.097167 58.032 
L 261.483493 58.032 
z
" style="fill:#1f77b4;"/>
   </g>
   <g id="patch_128">
    <path clip-path="url(#p56782ddca8)" d="M 263.097167 273.312 
L 264.710842 273.312 
L 264.710842 65.952 
L 263.097167 65.952 
z
" style="fill:#1f77b4;"/>
   </g>
   <g id="patch_129">
    <path clip-path="url(#p56782ddca8)" d="M 264.710842 273.312 
L 266.324516 273.312 
L 266.324516 58.032 
L 264.710842 58.032 
z
" style="fill:#1f77b4;"/>
   </g>
   <g id="patch_130">
    <path clip-path="url(#p56782ddca8)" d="M 266.324516 273.312 
L 267.93819 273.312 
L 267.93819 71.712 
L 266.324516 71.712 
z
" style="fill:#1f77b4;"/>
   </g>
   <g id="patch_131">
    <path clip-path="url(#p56782ddca8)" d="M 267.93819 273.312 
L 269.551864 273.312 
L 269.551864 76.752 
L 267.93819 76.752 
z
" style="fill:#1f77b4;"/>
   </g>
   <g id="patch_132">
    <path clip-path="url(#p56782ddca8)" d="M 269.551864 273.312 
L 271.165538 273.312 
L 271.165538 70.272 
L 269.551864 70.272 
z
" style="fill:#1f77b4;"/>
   </g>
   <g id="patch_133">
    <path clip-path="url(#p56782ddca8)" d="M 271.165538 273.312 
L 272.779213 273.312 
L 272.779213 65.232 
L 271.165538 65.232 
z
" style="fill:#1f77b4;"/>
   </g>
   <g id="patch_134">
    <path clip-path="url(#p56782ddca8)" d="M 272.779213 273.312 
L 274.392887 273.312 
L 274.392887 75.312 
L 272.779213 75.312 
z
" style="fill:#1f77b4;"/>
   </g>
   <g id="patch_135">
    <path clip-path="url(#p56782ddca8)" d="M 274.392887 273.312 
L 276.006561 273.312 
L 276.006561 78.192 
L 274.392887 78.192 
z
" style="fill:#1f77b4;"/>
   </g>
   <g id="patch_136">
    <path clip-path="url(#p56782ddca8)" d="M 276.006561 273.312 
L 277.620235 273.312 
L 277.620235 85.392 
L 276.006561 85.392 
z
" style="fill:#1f77b4;"/>
   </g>
   <g id="patch_137">
    <path clip-path="url(#p56782ddca8)" d="M 277.620235 273.312 
L 279.233909 273.312 
L 279.233909 58.032 
L 277.620235 58.032 
z
" style="fill:#1f77b4;"/>
   </g>
   <g id="patch_138">
    <path clip-path="url(#p56782ddca8)" d="M 279.233909 273.312 
L 280.847584 273.312 
L 280.847584 69.552 
L 279.233909 69.552 
z
" style="fill:#1f77b4;"/>
   </g>
   <g id="patch_139">
    <path clip-path="url(#p56782ddca8)" d="M 280.847584 273.312 
L 282.461258 273.312 
L 282.461258 85.392 
L 280.847584 85.392 
z
" style="fill:#1f77b4;"/>
   </g>
   <g id="patch_140">
    <path clip-path="url(#p56782ddca8)" d="M 282.461258 273.312 
L 284.074932 273.312 
L 284.074932 71.712 
L 282.461258 71.712 
z
" style="fill:#1f77b4;"/>
   </g>
   <g id="patch_141">
    <path clip-path="url(#p56782ddca8)" d="M 284.074932 273.312 
L 285.688606 273.312 
L 285.688606 100.512 
L 284.074932 100.512 
z
" style="fill:#1f77b4;"/>
   </g>
   <g id="patch_142">
    <path clip-path="url(#p56782ddca8)" d="M 285.688606 273.312 
L 287.302281 273.312 
L 287.302281 89.712 
L 285.688606 89.712 
z
" style="fill:#1f77b4;"/>
   </g>
   <g id="patch_143">
    <path clip-path="url(#p56782ddca8)" d="M 287.302281 273.312 
L 288.915955 273.312 
L 288.915955 110.592 
L 287.302281 110.592 
z
" style="fill:#1f77b4;"/>
   </g>
   <g id="patch_144">
    <path clip-path="url(#p56782ddca8)" d="M 288.915955 273.312 
L 290.529629 273.312 
L 290.529629 106.272 
L 288.915955 106.272 
z
" style="fill:#1f77b4;"/>
   </g>
   <g id="patch_145">
    <path clip-path="url(#p56782ddca8)" d="M 290.529629 273.312 
L 292.143303 273.312 
L 292.143303 109.152 
L 290.529629 109.152 
z
" style="fill:#1f77b4;"/>
   </g>
   <g id="patch_146">
    <path clip-path="url(#p56782ddca8)" d="M 292.143303 273.312 
L 293.756977 273.312 
L 293.756977 91.872 
L 292.143303 91.872 
z
" style="fill:#1f77b4;"/>
   </g>
   <g id="patch_147">
    <path clip-path="url(#p56782ddca8)" d="M 293.756977 273.312 
L 295.370652 273.312 
L 295.370652 101.952 
L 293.756977 101.952 
z
" style="fill:#1f77b4;"/>
   </g>
   <g id="patch_148">
    <path clip-path="url(#p56782ddca8)" d="M 295.370652 273.312 
L 296.984326 273.312 
L 296.984326 99.792 
L 295.370652 99.792 
z
" style="fill:#1f77b4;"/>
   </g>
   <g id="patch_149">
    <path clip-path="url(#p56782ddca8)" d="M 296.984326 273.312 
L 298.598 273.312 
L 298.598 116.352 
L 296.984326 116.352 
z
" style="fill:#1f77b4;"/>
   </g>
   <g id="patch_150">
    <path clip-path="url(#p56782ddca8)" d="M 298.598 273.312 
L 300.211674 273.312 
L 300.211674 121.392 
L 298.598 121.392 
z
" style="fill:#1f77b4;"/>
   </g>
   <g id="patch_151">
    <path clip-path="url(#p56782ddca8)" d="M 300.211674 273.312 
L 301.825348 273.312 
L 301.825348 108.432 
L 300.211674 108.432 
z
" style="fill:#1f77b4;"/>
   </g>
   <g id="patch_152">
    <path clip-path="url(#p56782ddca8)" d="M 301.825348 273.312 
L 303.439023 273.312 
L 303.439023 123.552 
L 301.825348 123.552 
z
" style="fill:#1f77b4;"/>
   </g>
   <g id="patch_153">
    <path clip-path="url(#p56782ddca8)" d="M 303.439023 273.312 
L 305.052697 273.312 
L 305.052697 114.912 
L 303.439023 114.912 
z
" style="fill:#1f77b4;"/>
   </g>
   <g id="patch_154">
    <path clip-path="url(#p56782ddca8)" d="M 305.052697 273.312 
L 306.666371 273.312 
L 306.666371 122.112 
L 305.052697 122.112 
z
" style="fill:#1f77b4;"/>
   </g>
   <g id="patch_155">
    <path clip-path="url(#p56782ddca8)" d="M 306.666371 273.312 
L 308.280045 273.312 
L 308.280045 114.192 
L 306.666371 114.192 
z
" style="fill:#1f77b4;"/>
   </g>
   <g id="patch_156">
    <path clip-path="url(#p56782ddca8)" d="M 308.280045 273.312 
L 309.89372 273.312 
L 309.89372 142.272 
L 308.280045 142.272 
z
" style="fill:#1f77b4;"/>
   </g>
   <g id="patch_157">
    <path clip-path="url(#p56782ddca8)" d="M 309.89372 273.312 
L 311.507394 273.312 
L 311.507394 117.072 
L 309.89372 117.072 
z
" style="fill:#1f77b4;"/>
   </g>
   <g id="patch_158">
    <path clip-path="url(#p56782ddca8)" d="M 311.507394 273.312 
L 313.121068 273.312 
L 313.121068 137.952 
L 311.507394 137.952 
z
" style="fill:#1f77b4;"/>
   </g>
   <g id="patch_159">
    <path clip-path="url(#p56782ddca8)" d="M 313.121068 273.312 
L 314.734742 273.312 
L 314.734742 126.432 
L 313.121068 126.432 
z
" style="fill:#1f77b4;"/>
   </g>
   <g id="patch_160">
    <path clip-path="url(#p56782ddca8)" d="M 314.734742 273.312 
L 316.348416 273.312 
L 316.348416 115.632 
L 314.734742 115.632 
z
" style="fill:#1f77b4;"/>
   </g>
   <g id="patch_161">
    <path clip-path="url(#p56782ddca8)" d="M 316.348416 273.312 
L 317.962091 273.312 
L 317.962091 142.272 
L 316.348416 142.272 
z
" style="fill:#1f77b4;"/>
   </g>
   <g id="patch_162">
    <path clip-path="url(#p56782ddca8)" d="M 317.962091 273.312 
L 319.575765 273.312 
L 319.575765 135.792 
L 317.962091 135.792 
z
" style="fill:#1f77b4;"/>
   </g>
   <g id="patch_163">
    <path clip-path="url(#p56782ddca8)" d="M 319.575765 273.312 
L 321.189439 273.312 
L 321.189439 160.272 
L 319.575765 160.272 
z
" style="fill:#1f77b4;"/>
   </g>
   <g id="patch_164">
    <path clip-path="url(#p56782ddca8)" d="M 321.189439 273.312 
L 322.803113 273.312 
L 322.803113 142.272 
L 321.189439 142.272 
z
" style="fill:#1f77b4;"/>
   </g>
   <g id="patch_165">
    <path clip-path="url(#p56782ddca8)" d="M 322.803113 273.312 
L 324.416787 273.312 
L 324.416787 155.952 
L 322.803113 155.952 
z
" style="fill:#1f77b4;"/>
   </g>
   <g id="patch_166">
    <path clip-path="url(#p56782ddca8)" d="M 324.416787 273.312 
L 326.030462 273.312 
L 326.030462 161.712 
L 324.416787 161.712 
z
" style="fill:#1f77b4;"/>
   </g>
   <g id="patch_167">
    <path clip-path="url(#p56782ddca8)" d="M 326.030462 273.312 
L 327.644136 273.312 
L 327.644136 157.392 
L 326.030462 157.392 
z
" style="fill:#1f77b4;"/>
   </g>
   <g id="patch_168">
    <path clip-path="url(#p56782ddca8)" d="M 327.644136 273.312 
L 329.25781 273.312 
L 329.25781 157.392 
L 327.644136 157.392 
z
" style="fill:#1f77b4;"/>
   </g>
   <g id="patch_169">
    <path clip-path="url(#p56782ddca8)" d="M 329.25781 273.312 
L 330.871484 273.312 
L 330.871484 171.072 
L 329.25781 171.072 
z
" style="fill:#1f77b4;"/>
   </g>
   <g id="patch_170">
    <path clip-path="url(#p56782ddca8)" d="M 330.871484 273.312 
L 332.485159 273.312 
L 332.485159 168.912 
L 330.871484 168.912 
z
" style="fill:#1f77b4;"/>
   </g>
   <g id="patch_171">
    <path clip-path="url(#p56782ddca8)" d="M 332.485159 273.312 
L 334.098833 273.312 
L 334.098833 171.072 
L 332.485159 171.072 
z
" style="fill:#1f77b4;"/>
   </g>
   <g id="patch_172">
    <path clip-path="url(#p56782ddca8)" d="M 334.098833 273.312 
L 335.712507 273.312 
L 335.712507 157.392 
L 334.098833 157.392 
z
" style="fill:#1f77b4;"/>
   </g>
   <g id="patch_173">
    <path clip-path="url(#p56782ddca8)" d="M 335.712507 273.312 
L 337.326181 273.312 
L 337.326181 166.032 
L 335.712507 166.032 
z
" style="fill:#1f77b4;"/>
   </g>
   <g id="patch_174">
    <path clip-path="url(#p56782ddca8)" d="M 337.326181 273.312 
L 338.939855 273.312 
L 338.939855 166.032 
L 337.326181 166.032 
z
" style="fill:#1f77b4;"/>
   </g>
   <g id="patch_175">
    <path clip-path="url(#p56782ddca8)" d="M 338.939855 273.312 
L 340.55353 273.312 
L 340.55353 178.272 
L 338.939855 178.272 
z
" style="fill:#1f77b4;"/>
   </g>
   <g id="patch_176">
    <path clip-path="url(#p56782ddca8)" d="M 340.55353 273.312 
L 342.167204 273.312 
L 342.167204 192.672 
L 340.55353 192.672 
z
" style="fill:#1f77b4;"/>
   </g>
   <g id="patch_177">
    <path clip-path="url(#p56782ddca8)" d="M 342.167204 273.312 
L 343.780878 273.312 
L 343.780878 202.032 
L 342.167204 202.032 
z
" style="fill:#1f77b4;"/>
   </g>
   <g id="patch_178">
    <path clip-path="url(#p56782ddca8)" d="M 343.780878 273.312 
L 345.394552 273.312 
L 345.394552 174.672 
L 343.780878 174.672 
z
" style="fill:#1f77b4;"/>
   </g>
   <g id="patch_179">
    <path clip-path="url(#p56782ddca8)" d="M 345.394552 273.312 
L 347.008226 273.312 
L 347.008226 182.592 
L 345.394552 182.592 
z
" style="fill:#1f77b4;"/>
   </g>
   <g id="patch_180">
    <path clip-path="url(#p56782ddca8)" d="M 347.008226 273.312 
L 348.621901 273.312 
L 348.621901 204.912 
L 347.008226 204.912 
z
" style="fill:#1f77b4;"/>
   </g>
   <g id="patch_181">
    <path clip-path="url(#p56782ddca8)" d="M 348.621901 273.312 
L 350.235575 273.312 
L 350.235575 199.152 
L 348.621901 199.152 
z
" style="fill:#1f77b4;"/>
   </g>
   <g id="patch_182">
    <path clip-path="url(#p56782ddca8)" d="M 350.235575 273.312 
L 351.849249 273.312 
L 351.849249 209.232 
L 350.235575 209.232 
z
" style="fill:#1f77b4;"/>
   </g>
   <g id="patch_183">
    <path clip-path="url(#p56782ddca8)" d="M 351.849249 273.312 
L 353.462923 273.312 
L 353.462923 177.552 
L 351.849249 177.552 
z
" style="fill:#1f77b4;"/>
   </g>
   <g id="patch_184">
    <path clip-path="url(#p56782ddca8)" d="M 353.462923 273.312 
L 355.076598 273.312 
L 355.076598 219.312 
L 353.462923 219.312 
z
" style="fill:#1f77b4;"/>
   </g>
   <g id="patch_185">
    <path clip-path="url(#p56782ddca8)" d="M 355.076598 273.312 
L 356.690272 273.312 
L 356.690272 205.632 
L 355.076598 205.632 
z
" style="fill:#1f77b4;"/>
   </g>
   <g id="patch_186">
    <path clip-path="url(#p56782ddca8)" d="M 356.690272 273.312 
L 358.303946 273.312 
L 358.303946 219.312 
L 356.690272 219.312 
z
" style="fill:#1f77b4;"/>
   </g>
   <g id="patch_187">
    <path clip-path="url(#p56782ddca8)" d="M 358.303946 273.312 
L 359.91762 273.312 
L 359.91762 219.312 
L 358.303946 219.312 
z
" style="fill:#1f77b4;"/>
   </g>
   <g id="patch_188">
    <path clip-path="url(#p56782ddca8)" d="M 359.91762 273.312 
L 361.531294 273.312 
L 361.531294 217.152 
L 359.91762 217.152 
z
" style="fill:#1f77b4;"/>
   </g>
   <g id="patch_189">
    <path clip-path="url(#p56782ddca8)" d="M 361.531294 273.312 
L 363.144969 273.312 
L 363.144969 222.192 
L 361.531294 222.192 
z
" style="fill:#1f77b4;"/>
   </g>
   <g id="patch_190">
    <path clip-path="url(#p56782ddca8)" d="M 363.144969 273.312 
L 364.758643 273.312 
L 364.758643 223.632 
L 363.144969 223.632 
z
" style="fill:#1f77b4;"/>
   </g>
   <g id="patch_191">
    <path clip-path="url(#p56782ddca8)" d="M 364.758643 273.312 
L 366.372317 273.312 
L 366.372317 225.072 
L 364.758643 225.072 
z
" style="fill:#1f77b4;"/>
   </g>
   <g id="patch_192">
    <path clip-path="url(#p56782ddca8)" d="M 366.372317 273.312 
L 367.985991 273.312 
L 367.985991 237.312 
L 366.372317 237.312 
z
" style="fill:#1f77b4;"/>
   </g>
   <g id="patch_193">
    <path clip-path="url(#p56782ddca8)" d="M 367.985991 273.312 
L 369.599665 273.312 
L 369.599665 239.472 
L 367.985991 239.472 
z
" style="fill:#1f77b4;"/>
   </g>
   <g id="patch_194">
    <path clip-path="url(#p56782ddca8)" d="M 369.599665 273.312 
L 371.21334 273.312 
L 371.21334 246.672 
L 369.599665 246.672 
z
" style="fill:#1f77b4;"/>
   </g>
   <g id="patch_195">
    <path clip-path="url(#p56782ddca8)" d="M 371.21334 273.312 
L 372.827014 273.312 
L 372.827014 246.672 
L 371.21334 246.672 
z
" style="fill:#1f77b4;"/>
   </g>
   <g id="patch_196">
    <path clip-path="url(#p56782ddca8)" d="M 372.827014 273.312 
L 374.440688 273.312 
L 374.440688 239.472 
L 372.827014 239.472 
z
" style="fill:#1f77b4;"/>
   </g>
   <g id="patch_197">
    <path clip-path="url(#p56782ddca8)" d="M 374.440688 273.312 
L 376.054362 273.312 
L 376.054362 256.032 
L 374.440688 256.032 
z
" style="fill:#1f77b4;"/>
   </g>
   <g id="patch_198">
    <path clip-path="url(#p56782ddca8)" d="M 376.054362 273.312 
L 377.668037 273.312 
L 377.668037 257.472 
L 376.054362 257.472 
z
" style="fill:#1f77b4;"/>
   </g>
   <g id="patch_199">
    <path clip-path="url(#p56782ddca8)" d="M 377.668037 273.312 
L 379.281711 273.312 
L 379.281711 260.352 
L 377.668037 260.352 
z
" style="fill:#1f77b4;"/>
   </g>
   <g id="patch_200">
    <path clip-path="url(#p56782ddca8)" d="M 379.281711 273.312 
L 380.895385 273.312 
L 380.895385 263.952 
L 379.281711 263.952 
z
" style="fill:#1f77b4;"/>
   </g>
   <g id="patch_201">
    <path clip-path="url(#p56782ddca8)" d="M 380.895385 273.312 
L 382.509059 273.312 
L 382.509059 268.992 
L 380.895385 268.992 
z
" style="fill:#1f77b4;"/>
   </g>
   <g id="patch_202">
    <path clip-path="url(#p56782ddca8)" d="M 382.509059 273.312 
L 384.122733 273.312 
L 384.122733 268.272 
L 382.509059 268.272 
z
" style="fill:#1f77b4;"/>
   </g>
   <g id="matplotlib.axis_1">
    <g id="xtick_1">
     <g id="line2d_1">
      <defs>
       <path d="M 0 0 
L 0 3.5 
" id="m34ca50fca1" style="stroke:#000000;stroke-width:0.8;"/>
      </defs>
      <g>
       <use style="stroke:#000000;stroke-width:0.8;" x="60.013977" xlink:href="#m34ca50fca1" y="273.312"/>
      </g>
     </g>
     <g id="text_1">
      <!-- 0.0 -->
      <g transform="translate(52.062415 287.910437)scale(0.1 -0.1)">
       <defs>
        <path d="M 2034 4250 
Q 1547 4250 1301 3770 
Q 1056 3291 1056 2328 
Q 1056 1369 1301 889 
Q 1547 409 2034 409 
Q 2525 409 2770 889 
Q 3016 1369 3016 2328 
Q 3016 3291 2770 3770 
Q 2525 4250 2034 4250 
z
M 2034 4750 
Q 2819 4750 3233 4129 
Q 3647 3509 3647 2328 
Q 3647 1150 3233 529 
Q 2819 -91 2034 -91 
Q 1250 -91 836 529 
Q 422 1150 422 2328 
Q 422 3509 836 4129 
Q 1250 4750 2034 4750 
z
" id="DejaVuSans-30" transform="scale(0.015625)"/>
        <path d="M 684 794 
L 1344 794 
L 1344 0 
L 684 0 
L 684 794 
z
" id="DejaVuSans-2e" transform="scale(0.015625)"/>
       </defs>
       <use xlink:href="#DejaVuSans-30"/>
       <use x="63.623047" xlink:href="#DejaVuSans-2e"/>
       <use x="95.410156" xlink:href="#DejaVuSans-30"/>
      </g>
     </g>
    </g>
    <g id="xtick_2">
     <g id="line2d_2">
      <g>
       <use style="stroke:#000000;stroke-width:0.8;" x="101.350278" xlink:href="#m34ca50fca1" y="273.312"/>
      </g>
     </g>
     <g id="text_2">
      <!-- 0.2 -->
      <g transform="translate(93.398715 287.910437)scale(0.1 -0.1)">
       <defs>
        <path d="M 1228 531 
L 3431 531 
L 3431 0 
L 469 0 
L 469 531 
Q 828 903 1448 1529 
Q 2069 2156 2228 2338 
Q 2531 2678 2651 2914 
Q 2772 3150 2772 3378 
Q 2772 3750 2511 3984 
Q 2250 4219 1831 4219 
Q 1534 4219 1204 4116 
Q 875 4013 500 3803 
L 500 4441 
Q 881 4594 1212 4672 
Q 1544 4750 1819 4750 
Q 2544 4750 2975 4387 
Q 3406 4025 3406 3419 
Q 3406 3131 3298 2873 
Q 3191 2616 2906 2266 
Q 2828 2175 2409 1742 
Q 1991 1309 1228 531 
z
" id="DejaVuSans-32" transform="scale(0.015625)"/>
       </defs>
       <use xlink:href="#DejaVuSans-30"/>
       <use x="63.623047" xlink:href="#DejaVuSans-2e"/>
       <use x="95.410156" xlink:href="#DejaVuSans-32"/>
      </g>
     </g>
    </g>
    <g id="xtick_3">
     <g id="line2d_3">
      <g>
       <use style="stroke:#000000;stroke-width:0.8;" x="142.686578" xlink:href="#m34ca50fca1" y="273.312"/>
      </g>
     </g>
     <g id="text_3">
      <!-- 0.4 -->
      <g transform="translate(134.735016 287.910437)scale(0.1 -0.1)">
       <defs>
        <path d="M 2419 4116 
L 825 1625 
L 2419 1625 
L 2419 4116 
z
M 2253 4666 
L 3047 4666 
L 3047 1625 
L 3713 1625 
L 3713 1100 
L 3047 1100 
L 3047 0 
L 2419 0 
L 2419 1100 
L 313 1100 
L 313 1709 
L 2253 4666 
z
" id="DejaVuSans-34" transform="scale(0.015625)"/>
       </defs>
       <use xlink:href="#DejaVuSans-30"/>
       <use x="63.623047" xlink:href="#DejaVuSans-2e"/>
       <use x="95.410156" xlink:href="#DejaVuSans-34"/>
      </g>
     </g>
    </g>
    <g id="xtick_4">
     <g id="line2d_4">
      <g>
       <use style="stroke:#000000;stroke-width:0.8;" x="184.022879" xlink:href="#m34ca50fca1" y="273.312"/>
      </g>
     </g>
     <g id="text_4">
      <!-- 0.6 -->
      <g transform="translate(176.071316 287.910437)scale(0.1 -0.1)">
       <defs>
        <path d="M 2113 2584 
Q 1688 2584 1439 2293 
Q 1191 2003 1191 1497 
Q 1191 994 1439 701 
Q 1688 409 2113 409 
Q 2538 409 2786 701 
Q 3034 994 3034 1497 
Q 3034 2003 2786 2293 
Q 2538 2584 2113 2584 
z
M 3366 4563 
L 3366 3988 
Q 3128 4100 2886 4159 
Q 2644 4219 2406 4219 
Q 1781 4219 1451 3797 
Q 1122 3375 1075 2522 
Q 1259 2794 1537 2939 
Q 1816 3084 2150 3084 
Q 2853 3084 3261 2657 
Q 3669 2231 3669 1497 
Q 3669 778 3244 343 
Q 2819 -91 2113 -91 
Q 1303 -91 875 529 
Q 447 1150 447 2328 
Q 447 3434 972 4092 
Q 1497 4750 2381 4750 
Q 2619 4750 2861 4703 
Q 3103 4656 3366 4563 
z
" id="DejaVuSans-36" transform="scale(0.015625)"/>
       </defs>
       <use xlink:href="#DejaVuSans-30"/>
       <use x="63.623047" xlink:href="#DejaVuSans-2e"/>
       <use x="95.410156" xlink:href="#DejaVuSans-36"/>
      </g>
     </g>
    </g>
    <g id="xtick_5">
     <g id="line2d_5">
      <g>
       <use style="stroke:#000000;stroke-width:0.8;" x="225.35918" xlink:href="#m34ca50fca1" y="273.312"/>
      </g>
     </g>
     <g id="text_5">
      <!-- 0.8 -->
      <g transform="translate(217.407617 287.910437)scale(0.1 -0.1)">
       <defs>
        <path d="M 2034 2216 
Q 1584 2216 1326 1975 
Q 1069 1734 1069 1313 
Q 1069 891 1326 650 
Q 1584 409 2034 409 
Q 2484 409 2743 651 
Q 3003 894 3003 1313 
Q 3003 1734 2745 1975 
Q 2488 2216 2034 2216 
z
M 1403 2484 
Q 997 2584 770 2862 
Q 544 3141 544 3541 
Q 544 4100 942 4425 
Q 1341 4750 2034 4750 
Q 2731 4750 3128 4425 
Q 3525 4100 3525 3541 
Q 3525 3141 3298 2862 
Q 3072 2584 2669 2484 
Q 3125 2378 3379 2068 
Q 3634 1759 3634 1313 
Q 3634 634 3220 271 
Q 2806 -91 2034 -91 
Q 1263 -91 848 271 
Q 434 634 434 1313 
Q 434 1759 690 2068 
Q 947 2378 1403 2484 
z
M 1172 3481 
Q 1172 3119 1398 2916 
Q 1625 2713 2034 2713 
Q 2441 2713 2670 2916 
Q 2900 3119 2900 3481 
Q 2900 3844 2670 4047 
Q 2441 4250 2034 4250 
Q 1625 4250 1398 4047 
Q 1172 3844 1172 3481 
z
" id="DejaVuSans-38" transform="scale(0.015625)"/>
       </defs>
       <use xlink:href="#DejaVuSans-30"/>
       <use x="63.623047" xlink:href="#DejaVuSans-2e"/>
       <use x="95.410156" xlink:href="#DejaVuSans-38"/>
      </g>
     </g>
    </g>
    <g id="xtick_6">
     <g id="line2d_6">
      <g>
       <use style="stroke:#000000;stroke-width:0.8;" x="266.69548" xlink:href="#m34ca50fca1" y="273.312"/>
      </g>
     </g>
     <g id="text_6">
      <!-- 1.0 -->
      <g transform="translate(258.743918 287.910437)scale(0.1 -0.1)">
       <defs>
        <path d="M 794 531 
L 1825 531 
L 1825 4091 
L 703 3866 
L 703 4441 
L 1819 4666 
L 2450 4666 
L 2450 531 
L 3481 531 
L 3481 0 
L 794 0 
L 794 531 
z
" id="DejaVuSans-31" transform="scale(0.015625)"/>
       </defs>
       <use xlink:href="#DejaVuSans-31"/>
       <use x="63.623047" xlink:href="#DejaVuSans-2e"/>
       <use x="95.410156" xlink:href="#DejaVuSans-30"/>
      </g>
     </g>
    </g>
    <g id="xtick_7">
     <g id="line2d_7">
      <g>
       <use style="stroke:#000000;stroke-width:0.8;" x="308.031781" xlink:href="#m34ca50fca1" y="273.312"/>
      </g>
     </g>
     <g id="text_7">
      <!-- 1.2 -->
      <g transform="translate(300.080218 287.910437)scale(0.1 -0.1)">
       <use xlink:href="#DejaVuSans-31"/>
       <use x="63.623047" xlink:href="#DejaVuSans-2e"/>
       <use x="95.410156" xlink:href="#DejaVuSans-32"/>
      </g>
     </g>
    </g>
    <g id="xtick_8">
     <g id="line2d_8">
      <g>
       <use style="stroke:#000000;stroke-width:0.8;" x="349.368081" xlink:href="#m34ca50fca1" y="273.312"/>
      </g>
     </g>
     <g id="text_8">
      <!-- 1.4 -->
      <g transform="translate(341.416519 287.910437)scale(0.1 -0.1)">
       <use xlink:href="#DejaVuSans-31"/>
       <use x="63.623047" xlink:href="#DejaVuSans-2e"/>
       <use x="95.410156" xlink:href="#DejaVuSans-34"/>
      </g>
     </g>
    </g>
    <g id="xtick_9">
     <g id="line2d_9">
      <g>
       <use style="stroke:#000000;stroke-width:0.8;" x="390.704382" xlink:href="#m34ca50fca1" y="273.312"/>
      </g>
     </g>
     <g id="text_9">
      <!-- 1.6 -->
      <g transform="translate(382.752819 287.910437)scale(0.1 -0.1)">
       <use xlink:href="#DejaVuSans-31"/>
       <use x="63.623047" xlink:href="#DejaVuSans-2e"/>
       <use x="95.410156" xlink:href="#DejaVuSans-36"/>
      </g>
     </g>
    </g>
    <g id="text_10">
     <!-- Angle with normal (rad) -->
     <g transform="translate(163.023281 301.588562)scale(0.1 -0.1)">
      <defs>
       <path d="M 2188 4044 
L 1331 1722 
L 3047 1722 
L 2188 4044 
z
M 1831 4666 
L 2547 4666 
L 4325 0 
L 3669 0 
L 3244 1197 
L 1141 1197 
L 716 0 
L 50 0 
L 1831 4666 
z
" id="DejaVuSans-41" transform="scale(0.015625)"/>
       <path d="M 3513 2113 
L 3513 0 
L 2938 0 
L 2938 2094 
Q 2938 2591 2744 2837 
Q 2550 3084 2163 3084 
Q 1697 3084 1428 2787 
Q 1159 2491 1159 1978 
L 1159 0 
L 581 0 
L 581 3500 
L 1159 3500 
L 1159 2956 
Q 1366 3272 1645 3428 
Q 1925 3584 2291 3584 
Q 2894 3584 3203 3211 
Q 3513 2838 3513 2113 
z
" id="DejaVuSans-6e" transform="scale(0.015625)"/>
       <path d="M 2906 1791 
Q 2906 2416 2648 2759 
Q 2391 3103 1925 3103 
Q 1463 3103 1205 2759 
Q 947 2416 947 1791 
Q 947 1169 1205 825 
Q 1463 481 1925 481 
Q 2391 481 2648 825 
Q 2906 1169 2906 1791 
z
M 3481 434 
Q 3481 -459 3084 -895 
Q 2688 -1331 1869 -1331 
Q 1566 -1331 1297 -1286 
Q 1028 -1241 775 -1147 
L 775 -588 
Q 1028 -725 1275 -790 
Q 1522 -856 1778 -856 
Q 2344 -856 2625 -561 
Q 2906 -266 2906 331 
L 2906 616 
Q 2728 306 2450 153 
Q 2172 0 1784 0 
Q 1141 0 747 490 
Q 353 981 353 1791 
Q 353 2603 747 3093 
Q 1141 3584 1784 3584 
Q 2172 3584 2450 3431 
Q 2728 3278 2906 2969 
L 2906 3500 
L 3481 3500 
L 3481 434 
z
" id="DejaVuSans-67" transform="scale(0.015625)"/>
       <path d="M 603 4863 
L 1178 4863 
L 1178 0 
L 603 0 
L 603 4863 
z
" id="DejaVuSans-6c" transform="scale(0.015625)"/>
       <path d="M 3597 1894 
L 3597 1613 
L 953 1613 
Q 991 1019 1311 708 
Q 1631 397 2203 397 
Q 2534 397 2845 478 
Q 3156 559 3463 722 
L 3463 178 
Q 3153 47 2828 -22 
Q 2503 -91 2169 -91 
Q 1331 -91 842 396 
Q 353 884 353 1716 
Q 353 2575 817 3079 
Q 1281 3584 2069 3584 
Q 2775 3584 3186 3129 
Q 3597 2675 3597 1894 
z
M 3022 2063 
Q 3016 2534 2758 2815 
Q 2500 3097 2075 3097 
Q 1594 3097 1305 2825 
Q 1016 2553 972 2059 
L 3022 2063 
z
" id="DejaVuSans-65" transform="scale(0.015625)"/>
       <path id="DejaVuSans-20" transform="scale(0.015625)"/>
       <path d="M 269 3500 
L 844 3500 
L 1563 769 
L 2278 3500 
L 2956 3500 
L 3675 769 
L 4391 3500 
L 4966 3500 
L 4050 0 
L 3372 0 
L 2619 2869 
L 1863 0 
L 1184 0 
L 269 3500 
z
" id="DejaVuSans-77" transform="scale(0.015625)"/>
       <path d="M 603 3500 
L 1178 3500 
L 1178 0 
L 603 0 
L 603 3500 
z
M 603 4863 
L 1178 4863 
L 1178 4134 
L 603 4134 
L 603 4863 
z
" id="DejaVuSans-69" transform="scale(0.015625)"/>
       <path d="M 1172 4494 
L 1172 3500 
L 2356 3500 
L 2356 3053 
L 1172 3053 
L 1172 1153 
Q 1172 725 1289 603 
Q 1406 481 1766 481 
L 2356 481 
L 2356 0 
L 1766 0 
Q 1100 0 847 248 
Q 594 497 594 1153 
L 594 3053 
L 172 3053 
L 172 3500 
L 594 3500 
L 594 4494 
L 1172 4494 
z
" id="DejaVuSans-74" transform="scale(0.015625)"/>
       <path d="M 3513 2113 
L 3513 0 
L 2938 0 
L 2938 2094 
Q 2938 2591 2744 2837 
Q 2550 3084 2163 3084 
Q 1697 3084 1428 2787 
Q 1159 2491 1159 1978 
L 1159 0 
L 581 0 
L 581 4863 
L 1159 4863 
L 1159 2956 
Q 1366 3272 1645 3428 
Q 1925 3584 2291 3584 
Q 2894 3584 3203 3211 
Q 3513 2838 3513 2113 
z
" id="DejaVuSans-68" transform="scale(0.015625)"/>
       <path d="M 1959 3097 
Q 1497 3097 1228 2736 
Q 959 2375 959 1747 
Q 959 1119 1226 758 
Q 1494 397 1959 397 
Q 2419 397 2687 759 
Q 2956 1122 2956 1747 
Q 2956 2369 2687 2733 
Q 2419 3097 1959 3097 
z
M 1959 3584 
Q 2709 3584 3137 3096 
Q 3566 2609 3566 1747 
Q 3566 888 3137 398 
Q 2709 -91 1959 -91 
Q 1206 -91 779 398 
Q 353 888 353 1747 
Q 353 2609 779 3096 
Q 1206 3584 1959 3584 
z
" id="DejaVuSans-6f" transform="scale(0.015625)"/>
       <path d="M 2631 2963 
Q 2534 3019 2420 3045 
Q 2306 3072 2169 3072 
Q 1681 3072 1420 2755 
Q 1159 2438 1159 1844 
L 1159 0 
L 581 0 
L 581 3500 
L 1159 3500 
L 1159 2956 
Q 1341 3275 1631 3429 
Q 1922 3584 2338 3584 
Q 2397 3584 2469 3576 
Q 2541 3569 2628 3553 
L 2631 2963 
z
" id="DejaVuSans-72" transform="scale(0.015625)"/>
       <path d="M 3328 2828 
Q 3544 3216 3844 3400 
Q 4144 3584 4550 3584 
Q 5097 3584 5394 3201 
Q 5691 2819 5691 2113 
L 5691 0 
L 5113 0 
L 5113 2094 
Q 5113 2597 4934 2840 
Q 4756 3084 4391 3084 
Q 3944 3084 3684 2787 
Q 3425 2491 3425 1978 
L 3425 0 
L 2847 0 
L 2847 2094 
Q 2847 2600 2669 2842 
Q 2491 3084 2119 3084 
Q 1678 3084 1418 2786 
Q 1159 2488 1159 1978 
L 1159 0 
L 581 0 
L 581 3500 
L 1159 3500 
L 1159 2956 
Q 1356 3278 1631 3431 
Q 1906 3584 2284 3584 
Q 2666 3584 2933 3390 
Q 3200 3197 3328 2828 
z
" id="DejaVuSans-6d" transform="scale(0.015625)"/>
       <path d="M 2194 1759 
Q 1497 1759 1228 1600 
Q 959 1441 959 1056 
Q 959 750 1161 570 
Q 1363 391 1709 391 
Q 2188 391 2477 730 
Q 2766 1069 2766 1631 
L 2766 1759 
L 2194 1759 
z
M 3341 1997 
L 3341 0 
L 2766 0 
L 2766 531 
Q 2569 213 2275 61 
Q 1981 -91 1556 -91 
Q 1019 -91 701 211 
Q 384 513 384 1019 
Q 384 1609 779 1909 
Q 1175 2209 1959 2209 
L 2766 2209 
L 2766 2266 
Q 2766 2663 2505 2880 
Q 2244 3097 1772 3097 
Q 1472 3097 1187 3025 
Q 903 2953 641 2809 
L 641 3341 
Q 956 3463 1253 3523 
Q 1550 3584 1831 3584 
Q 2591 3584 2966 3190 
Q 3341 2797 3341 1997 
z
" id="DejaVuSans-61" transform="scale(0.015625)"/>
       <path d="M 1984 4856 
Q 1566 4138 1362 3434 
Q 1159 2731 1159 2009 
Q 1159 1288 1364 580 
Q 1569 -128 1984 -844 
L 1484 -844 
Q 1016 -109 783 600 
Q 550 1309 550 2009 
Q 550 2706 781 3412 
Q 1013 4119 1484 4856 
L 1984 4856 
z
" id="DejaVuSans-28" transform="scale(0.015625)"/>
       <path d="M 2906 2969 
L 2906 4863 
L 3481 4863 
L 3481 0 
L 2906 0 
L 2906 525 
Q 2725 213 2448 61 
Q 2172 -91 1784 -91 
Q 1150 -91 751 415 
Q 353 922 353 1747 
Q 353 2572 751 3078 
Q 1150 3584 1784 3584 
Q 2172 3584 2448 3432 
Q 2725 3281 2906 2969 
z
M 947 1747 
Q 947 1113 1208 752 
Q 1469 391 1925 391 
Q 2381 391 2643 752 
Q 2906 1113 2906 1747 
Q 2906 2381 2643 2742 
Q 2381 3103 1925 3103 
Q 1469 3103 1208 2742 
Q 947 2381 947 1747 
z
" id="DejaVuSans-64" transform="scale(0.015625)"/>
       <path d="M 513 4856 
L 1013 4856 
Q 1481 4119 1714 3412 
Q 1947 2706 1947 2009 
Q 1947 1309 1714 600 
Q 1481 -109 1013 -844 
L 513 -844 
Q 928 -128 1133 580 
Q 1338 1288 1338 2009 
Q 1338 2731 1133 3434 
Q 928 4138 513 4856 
z
" id="DejaVuSans-29" transform="scale(0.015625)"/>
      </defs>
      <use xlink:href="#DejaVuSans-41"/>
      <use x="68.408203" xlink:href="#DejaVuSans-6e"/>
      <use x="131.787109" xlink:href="#DejaVuSans-67"/>
      <use x="195.263672" xlink:href="#DejaVuSans-6c"/>
      <use x="223.046875" xlink:href="#DejaVuSans-65"/>
      <use x="284.570312" xlink:href="#DejaVuSans-20"/>
      <use x="316.357422" xlink:href="#DejaVuSans-77"/>
      <use x="398.144531" xlink:href="#DejaVuSans-69"/>
      <use x="425.927734" xlink:href="#DejaVuSans-74"/>
      <use x="465.136719" xlink:href="#DejaVuSans-68"/>
      <use x="528.515625" xlink:href="#DejaVuSans-20"/>
      <use x="560.302734" xlink:href="#DejaVuSans-6e"/>
      <use x="623.681641" xlink:href="#DejaVuSans-6f"/>
      <use x="684.863281" xlink:href="#DejaVuSans-72"/>
      <use x="724.226562" xlink:href="#DejaVuSans-6d"/>
      <use x="821.638672" xlink:href="#DejaVuSans-61"/>
      <use x="882.917969" xlink:href="#DejaVuSans-6c"/>
      <use x="910.701172" xlink:href="#DejaVuSans-20"/>
      <use x="942.488281" xlink:href="#DejaVuSans-28"/>
      <use x="981.501953" xlink:href="#DejaVuSans-72"/>
      <use x="1022.615234" xlink:href="#DejaVuSans-61"/>
      <use x="1083.894531" xlink:href="#DejaVuSans-64"/>
      <use x="1147.371094" xlink:href="#DejaVuSans-29"/>
     </g>
    </g>
   </g>
   <g id="matplotlib.axis_2">
    <g id="ytick_1">
     <g id="line2d_10">
      <defs>
       <path d="M 0 0 
L -3.5 0 
" id="me8af14e4f1" style="stroke:#000000;stroke-width:0.8;"/>
      </defs>
      <g>
       <use style="stroke:#000000;stroke-width:0.8;" x="43.78125" xlink:href="#me8af14e4f1" y="273.312"/>
      </g>
     </g>
     <g id="text_11">
      <!-- 0.0 -->
      <g transform="translate(20.878125 277.111219)scale(0.1 -0.1)">
       <use xlink:href="#DejaVuSans-30"/>
       <use x="63.623047" xlink:href="#DejaVuSans-2e"/>
       <use x="95.410156" xlink:href="#DejaVuSans-30"/>
      </g>
     </g>
    </g>
    <g id="ytick_2">
     <g id="line2d_11">
      <g>
       <use style="stroke:#000000;stroke-width:0.8;" x="43.78125" xlink:href="#me8af14e4f1" y="228.340566"/>
      </g>
     </g>
     <g id="text_12">
      <!-- 0.2 -->
      <g transform="translate(20.878125 232.139785)scale(0.1 -0.1)">
       <use xlink:href="#DejaVuSans-30"/>
       <use x="63.623047" xlink:href="#DejaVuSans-2e"/>
       <use x="95.410156" xlink:href="#DejaVuSans-32"/>
      </g>
     </g>
    </g>
    <g id="ytick_3">
     <g id="line2d_12">
      <g>
       <use style="stroke:#000000;stroke-width:0.8;" x="43.78125" xlink:href="#me8af14e4f1" y="183.369133"/>
      </g>
     </g>
     <g id="text_13">
      <!-- 0.4 -->
      <g transform="translate(20.878125 187.168352)scale(0.1 -0.1)">
       <use xlink:href="#DejaVuSans-30"/>
       <use x="63.623047" xlink:href="#DejaVuSans-2e"/>
       <use x="95.410156" xlink:href="#DejaVuSans-34"/>
      </g>
     </g>
    </g>
    <g id="ytick_4">
     <g id="line2d_13">
      <g>
       <use style="stroke:#000000;stroke-width:0.8;" x="43.78125" xlink:href="#me8af14e4f1" y="138.397699"/>
      </g>
     </g>
     <g id="text_14">
      <!-- 0.6 -->
      <g transform="translate(20.878125 142.196918)scale(0.1 -0.1)">
       <use xlink:href="#DejaVuSans-30"/>
       <use x="63.623047" xlink:href="#DejaVuSans-2e"/>
       <use x="95.410156" xlink:href="#DejaVuSans-36"/>
      </g>
     </g>
    </g>
    <g id="ytick_5">
     <g id="line2d_14">
      <g>
       <use style="stroke:#000000;stroke-width:0.8;" x="43.78125" xlink:href="#me8af14e4f1" y="93.426266"/>
      </g>
     </g>
     <g id="text_15">
      <!-- 0.8 -->
      <g transform="translate(20.878125 97.225485)scale(0.1 -0.1)">
       <use xlink:href="#DejaVuSans-30"/>
       <use x="63.623047" xlink:href="#DejaVuSans-2e"/>
       <use x="95.410156" xlink:href="#DejaVuSans-38"/>
      </g>
     </g>
    </g>
    <g id="ytick_6">
     <g id="line2d_15">
      <g>
       <use style="stroke:#000000;stroke-width:0.8;" x="43.78125" xlink:href="#me8af14e4f1" y="48.454832"/>
      </g>
     </g>
     <g id="text_16">
      <!-- 1.0 -->
      <g transform="translate(20.878125 52.254051)scale(0.1 -0.1)">
       <use xlink:href="#DejaVuSans-31"/>
       <use x="63.623047" xlink:href="#DejaVuSans-2e"/>
       <use x="95.410156" xlink:href="#DejaVuSans-30"/>
      </g>
     </g>
    </g>
    <g id="text_17">
     <!-- Probability density -->
     <g transform="translate(14.798438 186.606781)rotate(-90)scale(0.1 -0.1)">
      <defs>
       <path d="M 1259 4147 
L 1259 2394 
L 2053 2394 
Q 2494 2394 2734 2622 
Q 2975 2850 2975 3272 
Q 2975 3691 2734 3919 
Q 2494 4147 2053 4147 
L 1259 4147 
z
M 628 4666 
L 2053 4666 
Q 2838 4666 3239 4311 
Q 3641 3956 3641 3272 
Q 3641 2581 3239 2228 
Q 2838 1875 2053 1875 
L 1259 1875 
L 1259 0 
L 628 0 
L 628 4666 
z
" id="DejaVuSans-50" transform="scale(0.015625)"/>
       <path d="M 3116 1747 
Q 3116 2381 2855 2742 
Q 2594 3103 2138 3103 
Q 1681 3103 1420 2742 
Q 1159 2381 1159 1747 
Q 1159 1113 1420 752 
Q 1681 391 2138 391 
Q 2594 391 2855 752 
Q 3116 1113 3116 1747 
z
M 1159 2969 
Q 1341 3281 1617 3432 
Q 1894 3584 2278 3584 
Q 2916 3584 3314 3078 
Q 3713 2572 3713 1747 
Q 3713 922 3314 415 
Q 2916 -91 2278 -91 
Q 1894 -91 1617 61 
Q 1341 213 1159 525 
L 1159 0 
L 581 0 
L 581 4863 
L 1159 4863 
L 1159 2969 
z
" id="DejaVuSans-62" transform="scale(0.015625)"/>
       <path d="M 2059 -325 
Q 1816 -950 1584 -1140 
Q 1353 -1331 966 -1331 
L 506 -1331 
L 506 -850 
L 844 -850 
Q 1081 -850 1212 -737 
Q 1344 -625 1503 -206 
L 1606 56 
L 191 3500 
L 800 3500 
L 1894 763 
L 2988 3500 
L 3597 3500 
L 2059 -325 
z
" id="DejaVuSans-79" transform="scale(0.015625)"/>
       <path d="M 2834 3397 
L 2834 2853 
Q 2591 2978 2328 3040 
Q 2066 3103 1784 3103 
Q 1356 3103 1142 2972 
Q 928 2841 928 2578 
Q 928 2378 1081 2264 
Q 1234 2150 1697 2047 
L 1894 2003 
Q 2506 1872 2764 1633 
Q 3022 1394 3022 966 
Q 3022 478 2636 193 
Q 2250 -91 1575 -91 
Q 1294 -91 989 -36 
Q 684 19 347 128 
L 347 722 
Q 666 556 975 473 
Q 1284 391 1588 391 
Q 1994 391 2212 530 
Q 2431 669 2431 922 
Q 2431 1156 2273 1281 
Q 2116 1406 1581 1522 
L 1381 1569 
Q 847 1681 609 1914 
Q 372 2147 372 2553 
Q 372 3047 722 3315 
Q 1072 3584 1716 3584 
Q 2034 3584 2315 3537 
Q 2597 3491 2834 3397 
z
" id="DejaVuSans-73" transform="scale(0.015625)"/>
      </defs>
      <use xlink:href="#DejaVuSans-50"/>
      <use x="58.552734" xlink:href="#DejaVuSans-72"/>
      <use x="97.416016" xlink:href="#DejaVuSans-6f"/>
      <use x="158.597656" xlink:href="#DejaVuSans-62"/>
      <use x="222.074219" xlink:href="#DejaVuSans-61"/>
      <use x="283.353516" xlink:href="#DejaVuSans-62"/>
      <use x="346.830078" xlink:href="#DejaVuSans-69"/>
      <use x="374.613281" xlink:href="#DejaVuSans-6c"/>
      <use x="402.396484" xlink:href="#DejaVuSans-69"/>
      <use x="430.179688" xlink:href="#DejaVuSans-74"/>
      <use x="469.388672" xlink:href="#DejaVuSans-79"/>
      <use x="528.568359" xlink:href="#DejaVuSans-20"/>
      <use x="560.355469" xlink:href="#DejaVuSans-64"/>
      <use x="623.832031" xlink:href="#DejaVuSans-65"/>
      <use x="685.355469" xlink:href="#DejaVuSans-6e"/>
      <use x="748.734375" xlink:href="#DejaVuSans-73"/>
      <use x="800.833984" xlink:href="#DejaVuSans-69"/>
      <use x="828.617188" xlink:href="#DejaVuSans-74"/>
      <use x="867.826172" xlink:href="#DejaVuSans-79"/>
     </g>
    </g>
   </g>
   <g id="line2d_16">
    <path clip-path="url(#p56782ddca8)" d="M 60.013977 273.312 
L 79.837728 230.441936 
L 90.237073 208.483612 
L 99.01152 190.457666 
L 106.811029 174.931815 
L 113.960578 161.189745 
L 120.460169 149.160792 
L 126.63478 138.187315 
L 132.484411 128.235631 
L 138.009063 119.263009 
L 143.208736 111.219839 
L 148.408408 103.586948 
L 153.283101 96.820925 
L 158.157794 90.447541 
L 162.707507 84.865819 
L 167.257221 79.649306 
L 171.481954 75.14126 
L 175.706688 70.964372 
L 179.606442 67.408756 
L 183.506197 64.146325 
L 187.405951 61.181726 
L 190.980726 58.729426 
L 194.555501 56.533872 
L 198.130275 54.597693 
L 201.70505 52.923204 
L 205.279825 51.512409 
L 208.52962 50.46012 
L 211.779415 49.6282 
L 215.029211 49.017471 
L 218.279006 48.628536 
L 221.528801 48.461781 
L 224.778596 48.517371 
L 228.028392 48.79525 
L 231.278187 49.295144 
L 234.527982 50.016558 
L 237.777777 50.958779 
L 241.027573 52.120875 
L 244.277368 53.501698 
L 247.852143 55.271595 
L 251.426917 57.302377 
L 255.001692 59.591613 
L 258.576467 62.136564 
L 262.476221 65.200931 
L 266.375976 68.561627 
L 270.27573 72.213867 
L 274.500464 76.493419 
L 278.725198 81.101869 
L 282.949931 86.031515 
L 287.499645 91.690113 
L 292.049358 97.700695 
L 296.924051 104.517951 
L 301.798744 111.710723 
L 306.998416 119.77887 
L 312.523068 128.776599 
L 318.3727 138.753179 
L 324.547311 149.750968 
L 331.046901 161.803235 
L 337.871471 174.931815 
L 345.346 189.800715 
L 353.795468 207.130722 
L 363.544854 227.668816 
L 375.894076 254.24278 
L 384.668523 273.312 
L 384.668523 273.312 
" style="fill:none;stroke:#ff7f0e;stroke-linecap:square;stroke-width:1.5;"/>
   </g>
   <g id="patch_203">
    <path d="M 43.78125 273.312 
L 43.78125 7.2 
" style="fill:none;stroke:#000000;stroke-linecap:square;stroke-linejoin:miter;stroke-width:0.8;"/>
   </g>
   <g id="patch_204">
    <path d="M 400.90125 273.312 
L 400.90125 7.2 
" style="fill:none;stroke:#000000;stroke-linecap:square;stroke-linejoin:miter;stroke-width:0.8;"/>
   </g>
   <g id="patch_205">
    <path d="M 43.78125 273.312 
L 400.90125 273.312 
" style="fill:none;stroke:#000000;stroke-linecap:square;stroke-linejoin:miter;stroke-width:0.8;"/>
   </g>
   <g id="patch_206">
    <path d="M 43.78125 7.2 
L 400.90125 7.2 
" style="fill:none;stroke:#000000;stroke-linecap:square;stroke-linejoin:miter;stroke-width:0.8;"/>
   </g>
  </g>
 </g>
 <defs>
  <clipPath id="p56782ddca8">
   <rect height="266.112" width="357.12" x="43.78125" y="7.2"/>
  </clipPath>
 </defs>
</svg>
