<?xml version="1.0" encoding="utf-8" standalone="no"?>
<!DOCTYPE svg PUBLIC "-//W3C//DTD SVG 1.1//EN"
  "http://www.w3.org/Graphics/SVG/1.1/DTD/svg11.dtd">
<svg height="311.073481pt" version="1.1" viewBox="0 0 408.10125 311.073481" width="408.10125pt" xmlns="http://www.w3.org/2000/svg" xmlns:xlink="http://www.w3.org/1999/xlink">
 <metadata>
  <rdf:RDF xmlns:cc="http://creativecommons.org/ns#" xmlns:dc="http://purl.org/dc/elements/1.1/" xmlns:rdf="http://www.w3.org/1999/02/22-rdf-syntax-ns#">
   <cc:Work>
    <dc:type rdf:resource="http://purl.org/dc/dcmitype/StillImage"/>
    <dc:date>2021-06-22T16:00:41.758457</dc:date>
    <dc:format>image/svg+xml</dc:format>
    <dc:creator>
     <cc:Agent>
      <dc:title>Matplotlib v3.4.2, https://matplotlib.org/</dc:title>
     </cc:Agent>
    </dc:creator>
   </cc:Work>
  </rdf:RDF>
 </metadata>
 <defs>
  <style type="text/css">*{stroke-linecap:butt;stroke-linejoin:round;}</style>
 </defs>
 <g id="figure_1">
  <g id="patch_1">
   <path d="M 0 311.073481 
L 408.10125 311.073481 
L 408.10125 0 
L 0 0 
z
" style="fill:#ffffff;"/>
  </g>
  <g id="axes_1">
   <g id="patch_2">
    <path d="M 43.78125 273.517231 
L 400.90125 273.517231 
L 400.90125 7.405231 
L 43.78125 7.405231 
z
" style="fill:#ffffff;"/>
   </g>
   <g id="patch_3">
    <path clip-path="url(#p1a4f759ccf)" d="M 61.522435 273.517231 
L 63.13699 273.517231 
L 63.13699 270.016679 
L 61.522435 270.016679 
z
" style="fill:#1f77b4;"/>
   </g>
   <g id="patch_4">
    <path clip-path="url(#p1a4f759ccf)" d="M 63.13699 273.517231 
L 64.751545 273.517231 
L 64.751545 265.816016 
L 63.13699 265.816016 
z
" style="fill:#1f77b4;"/>
   </g>
   <g id="patch_5">
    <path clip-path="url(#p1a4f759ccf)" d="M 64.751545 273.517231 
L 66.3661 273.517231 
L 66.3661 261.615353 
L 64.751545 261.615353 
z
" style="fill:#1f77b4;"/>
   </g>
   <g id="patch_6">
    <path clip-path="url(#p1a4f759ccf)" d="M 66.3661 273.517231 
L 67.980656 273.517231 
L 67.980656 262.315463 
L 66.3661 262.315463 
z
" style="fill:#1f77b4;"/>
   </g>
   <g id="patch_7">
    <path clip-path="url(#p1a4f759ccf)" d="M 67.980656 273.517231 
L 69.595211 273.517231 
L 69.595211 255.314358 
L 67.980656 255.314358 
z
" style="fill:#1f77b4;"/>
   </g>
   <g id="patch_8">
    <path clip-path="url(#p1a4f759ccf)" d="M 69.595211 273.517231 
L 71.209766 273.517231 
L 71.209766 253.914137 
L 69.595211 253.914137 
z
" style="fill:#1f77b4;"/>
   </g>
   <g id="patch_9">
    <path clip-path="url(#p1a4f759ccf)" d="M 71.209766 273.517231 
L 72.824321 273.517231 
L 72.824321 245.512811 
L 71.209766 245.512811 
z
" style="fill:#1f77b4;"/>
   </g>
   <g id="patch_10">
    <path clip-path="url(#p1a4f759ccf)" d="M 72.824321 273.517231 
L 74.438876 273.517231 
L 74.438876 253.214027 
L 72.824321 253.214027 
z
" style="fill:#1f77b4;"/>
   </g>
   <g id="patch_11">
    <path clip-path="url(#p1a4f759ccf)" d="M 74.438876 273.517231 
L 76.053432 273.517231 
L 76.053432 242.712369 
L 74.438876 242.712369 
z
" style="fill:#1f77b4;"/>
   </g>
   <g id="patch_12">
    <path clip-path="url(#p1a4f759ccf)" d="M 76.053432 273.517231 
L 77.667987 273.517231 
L 77.667987 247.613143 
L 76.053432 247.613143 
z
" style="fill:#1f77b4;"/>
   </g>
   <g id="patch_13">
    <path clip-path="url(#p1a4f759ccf)" d="M 77.667987 273.517231 
L 79.282542 273.517231 
L 79.282542 242.712369 
L 77.667987 242.712369 
z
" style="fill:#1f77b4;"/>
   </g>
   <g id="patch_14">
    <path clip-path="url(#p1a4f759ccf)" d="M 79.282542 273.517231 
L 80.897097 273.517231 
L 80.897097 235.711264 
L 79.282542 235.711264 
z
" style="fill:#1f77b4;"/>
   </g>
   <g id="patch_15">
    <path clip-path="url(#p1a4f759ccf)" d="M 80.897097 273.517231 
L 82.511652 273.517231 
L 82.511652 229.41027 
L 80.897097 229.41027 
z
" style="fill:#1f77b4;"/>
   </g>
   <g id="patch_16">
    <path clip-path="url(#p1a4f759ccf)" d="M 82.511652 273.517231 
L 84.126207 273.517231 
L 84.126207 226.609828 
L 82.511652 226.609828 
z
" style="fill:#1f77b4;"/>
   </g>
   <g id="patch_17">
    <path clip-path="url(#p1a4f759ccf)" d="M 84.126207 273.517231 
L 85.740763 273.517231 
L 85.740763 221.709054 
L 84.126207 221.709054 
z
" style="fill:#1f77b4;"/>
   </g>
   <g id="patch_18">
    <path clip-path="url(#p1a4f759ccf)" d="M 85.740763 273.517231 
L 87.355318 273.517231 
L 87.355318 221.008944 
L 85.740763 221.008944 
z
" style="fill:#1f77b4;"/>
   </g>
   <g id="patch_19">
    <path clip-path="url(#p1a4f759ccf)" d="M 87.355318 273.517231 
L 88.969873 273.517231 
L 88.969873 214.707949 
L 87.355318 214.707949 
z
" style="fill:#1f77b4;"/>
   </g>
   <g id="patch_20">
    <path clip-path="url(#p1a4f759ccf)" d="M 88.969873 273.517231 
L 90.584428 273.517231 
L 90.584428 208.406955 
L 88.969873 208.406955 
z
" style="fill:#1f77b4;"/>
   </g>
   <g id="patch_21">
    <path clip-path="url(#p1a4f759ccf)" d="M 90.584428 273.517231 
L 92.198983 273.517231 
L 92.198983 207.706844 
L 90.584428 207.706844 
z
" style="fill:#1f77b4;"/>
   </g>
   <g id="patch_22">
    <path clip-path="url(#p1a4f759ccf)" d="M 92.198983 273.517231 
L 93.813538 273.517231 
L 93.813538 216.808281 
L 92.198983 216.808281 
z
" style="fill:#1f77b4;"/>
   </g>
   <g id="patch_23">
    <path clip-path="url(#p1a4f759ccf)" d="M 93.813538 273.517231 
L 95.428094 273.517231 
L 95.428094 195.104855 
L 93.813538 195.104855 
z
" style="fill:#1f77b4;"/>
   </g>
   <g id="patch_24">
    <path clip-path="url(#p1a4f759ccf)" d="M 95.428094 273.517231 
L 97.042649 273.517231 
L 97.042649 207.006734 
L 95.428094 207.006734 
z
" style="fill:#1f77b4;"/>
   </g>
   <g id="patch_25">
    <path clip-path="url(#p1a4f759ccf)" d="M 97.042649 273.517231 
L 98.657204 273.517231 
L 98.657204 200.005629 
L 97.042649 200.005629 
z
" style="fill:#1f77b4;"/>
   </g>
   <g id="patch_26">
    <path clip-path="url(#p1a4f759ccf)" d="M 98.657204 273.517231 
L 100.271759 273.517231 
L 100.271759 184.603198 
L 98.657204 184.603198 
z
" style="fill:#1f77b4;"/>
   </g>
   <g id="patch_27">
    <path clip-path="url(#p1a4f759ccf)" d="M 100.271759 273.517231 
L 101.886314 273.517231 
L 101.886314 197.905297 
L 100.271759 197.905297 
z
" style="fill:#1f77b4;"/>
   </g>
   <g id="patch_28">
    <path clip-path="url(#p1a4f759ccf)" d="M 101.886314 273.517231 
L 103.50087 273.517231 
L 103.50087 188.803861 
L 101.886314 188.803861 
z
" style="fill:#1f77b4;"/>
   </g>
   <g id="patch_29">
    <path clip-path="url(#p1a4f759ccf)" d="M 103.50087 273.517231 
L 105.115425 273.517231 
L 105.115425 178.302203 
L 103.50087 178.302203 
z
" style="fill:#1f77b4;"/>
   </g>
   <g id="patch_30">
    <path clip-path="url(#p1a4f759ccf)" d="M 105.115425 273.517231 
L 106.72998 273.517231 
L 106.72998 185.303308 
L 105.115425 185.303308 
z
" style="fill:#1f77b4;"/>
   </g>
   <g id="patch_31">
    <path clip-path="url(#p1a4f759ccf)" d="M 106.72998 273.517231 
L 108.344535 273.517231 
L 108.344535 164.299993 
L 106.72998 164.299993 
z
" style="fill:#1f77b4;"/>
   </g>
   <g id="patch_32">
    <path clip-path="url(#p1a4f759ccf)" d="M 108.344535 273.517231 
L 109.95909 273.517231 
L 109.95909 183.903087 
L 108.344535 183.903087 
z
" style="fill:#1f77b4;"/>
   </g>
   <g id="patch_33">
    <path clip-path="url(#p1a4f759ccf)" d="M 109.95909 273.517231 
L 111.573645 273.517231 
L 111.573645 188.803861 
L 109.95909 188.803861 
z
" style="fill:#1f77b4;"/>
   </g>
   <g id="patch_34">
    <path clip-path="url(#p1a4f759ccf)" d="M 111.573645 273.517231 
L 113.188201 273.517231 
L 113.188201 169.900877 
L 111.573645 169.900877 
z
" style="fill:#1f77b4;"/>
   </g>
   <g id="patch_35">
    <path clip-path="url(#p1a4f759ccf)" d="M 113.188201 273.517231 
L 114.802756 273.517231 
L 114.802756 157.998999 
L 113.188201 157.998999 
z
" style="fill:#1f77b4;"/>
   </g>
   <g id="patch_36">
    <path clip-path="url(#p1a4f759ccf)" d="M 114.802756 273.517231 
L 116.417311 273.517231 
L 116.417311 170.600988 
L 114.802756 170.600988 
z
" style="fill:#1f77b4;"/>
   </g>
   <g id="patch_37">
    <path clip-path="url(#p1a4f759ccf)" d="M 116.417311 273.517231 
L 118.031866 273.517231 
L 118.031866 150.297783 
L 116.417311 150.297783 
z
" style="fill:#1f77b4;"/>
   </g>
   <g id="patch_38">
    <path clip-path="url(#p1a4f759ccf)" d="M 118.031866 273.517231 
L 119.646421 273.517231 
L 119.646421 167.800546 
L 118.031866 167.800546 
z
" style="fill:#1f77b4;"/>
   </g>
   <g id="patch_39">
    <path clip-path="url(#p1a4f759ccf)" d="M 119.646421 273.517231 
L 121.260976 273.517231 
L 121.260976 151.698004 
L 119.646421 151.698004 
z
" style="fill:#1f77b4;"/>
   </g>
   <g id="patch_40">
    <path clip-path="url(#p1a4f759ccf)" d="M 121.260976 273.517231 
L 122.875532 273.517231 
L 122.875532 152.398115 
L 121.260976 152.398115 
z
" style="fill:#1f77b4;"/>
   </g>
   <g id="patch_41">
    <path clip-path="url(#p1a4f759ccf)" d="M 122.875532 273.517231 
L 124.490087 273.517231 
L 124.490087 137.695795 
L 122.875532 137.695795 
z
" style="fill:#1f77b4;"/>
   </g>
   <g id="patch_42">
    <path clip-path="url(#p1a4f759ccf)" d="M 124.490087 273.517231 
L 126.104642 273.517231 
L 126.104642 139.096016 
L 124.490087 139.096016 
z
" style="fill:#1f77b4;"/>
   </g>
   <g id="patch_43">
    <path clip-path="url(#p1a4f759ccf)" d="M 126.104642 273.517231 
L 127.719197 273.517231 
L 127.719197 136.295574 
L 126.104642 136.295574 
z
" style="fill:#1f77b4;"/>
   </g>
   <g id="patch_44">
    <path clip-path="url(#p1a4f759ccf)" d="M 127.719197 273.517231 
L 129.333752 273.517231 
L 129.333752 152.398115 
L 127.719197 152.398115 
z
" style="fill:#1f77b4;"/>
   </g>
   <g id="patch_45">
    <path clip-path="url(#p1a4f759ccf)" d="M 129.333752 273.517231 
L 130.948307 273.517231 
L 130.948307 139.096016 
L 129.333752 139.096016 
z
" style="fill:#1f77b4;"/>
   </g>
   <g id="patch_46">
    <path clip-path="url(#p1a4f759ccf)" d="M 130.948307 273.517231 
L 132.562863 273.517231 
L 132.562863 129.994579 
L 130.948307 129.994579 
z
" style="fill:#1f77b4;"/>
   </g>
   <g id="patch_47">
    <path clip-path="url(#p1a4f759ccf)" d="M 132.562863 273.517231 
L 134.177418 273.517231 
L 134.177418 115.992369 
L 132.562863 115.992369 
z
" style="fill:#1f77b4;"/>
   </g>
   <g id="patch_48">
    <path clip-path="url(#p1a4f759ccf)" d="M 134.177418 273.517231 
L 135.791973 273.517231 
L 135.791973 115.292259 
L 134.177418 115.292259 
z
" style="fill:#1f77b4;"/>
   </g>
   <g id="patch_49">
    <path clip-path="url(#p1a4f759ccf)" d="M 135.791973 273.517231 
L 137.406528 273.517231 
L 137.406528 120.893143 
L 135.791973 120.893143 
z
" style="fill:#1f77b4;"/>
   </g>
   <g id="patch_50">
    <path clip-path="url(#p1a4f759ccf)" d="M 137.406528 273.517231 
L 139.021083 273.517231 
L 139.021083 106.190822 
L 137.406528 106.190822 
z
" style="fill:#1f77b4;"/>
   </g>
   <g id="patch_51">
    <path clip-path="url(#p1a4f759ccf)" d="M 139.021083 273.517231 
L 140.635639 273.517231 
L 140.635639 120.893143 
L 139.021083 120.893143 
z
" style="fill:#1f77b4;"/>
   </g>
   <g id="patch_52">
    <path clip-path="url(#p1a4f759ccf)" d="M 140.635639 273.517231 
L 142.250194 273.517231 
L 142.250194 115.292259 
L 140.635639 115.292259 
z
" style="fill:#1f77b4;"/>
   </g>
   <g id="patch_53">
    <path clip-path="url(#p1a4f759ccf)" d="M 142.250194 273.517231 
L 143.864749 273.517231 
L 143.864749 89.38817 
L 142.250194 89.38817 
z
" style="fill:#1f77b4;"/>
   </g>
   <g id="patch_54">
    <path clip-path="url(#p1a4f759ccf)" d="M 143.864749 273.517231 
L 145.479304 273.517231 
L 145.479304 123.693585 
L 143.864749 123.693585 
z
" style="fill:#1f77b4;"/>
   </g>
   <g id="patch_55">
    <path clip-path="url(#p1a4f759ccf)" d="M 145.479304 273.517231 
L 147.093859 273.517231 
L 147.093859 113.892038 
L 145.479304 113.892038 
z
" style="fill:#1f77b4;"/>
   </g>
   <g id="patch_56">
    <path clip-path="url(#p1a4f759ccf)" d="M 147.093859 273.517231 
L 148.708414 273.517231 
L 148.708414 125.093806 
L 147.093859 125.093806 
z
" style="fill:#1f77b4;"/>
   </g>
   <g id="patch_57">
    <path clip-path="url(#p1a4f759ccf)" d="M 148.708414 273.517231 
L 150.32297 273.517231 
L 150.32297 94.989054 
L 148.708414 94.989054 
z
" style="fill:#1f77b4;"/>
   </g>
   <g id="patch_58">
    <path clip-path="url(#p1a4f759ccf)" d="M 150.32297 273.517231 
L 151.937525 273.517231 
L 151.937525 107.591043 
L 150.32297 107.591043 
z
" style="fill:#1f77b4;"/>
   </g>
   <g id="patch_59">
    <path clip-path="url(#p1a4f759ccf)" d="M 151.937525 273.517231 
L 153.55208 273.517231 
L 153.55208 120.193032 
L 151.937525 120.193032 
z
" style="fill:#1f77b4;"/>
   </g>
   <g id="patch_60">
    <path clip-path="url(#p1a4f759ccf)" d="M 153.55208 273.517231 
L 155.166635 273.517231 
L 155.166635 84.487397 
L 153.55208 84.487397 
z
" style="fill:#1f77b4;"/>
   </g>
   <g id="patch_61">
    <path clip-path="url(#p1a4f759ccf)" d="M 155.166635 273.517231 
L 156.78119 273.517231 
L 156.78119 110.391485 
L 155.166635 110.391485 
z
" style="fill:#1f77b4;"/>
   </g>
   <g id="patch_62">
    <path clip-path="url(#p1a4f759ccf)" d="M 156.78119 273.517231 
L 158.395745 273.517231 
L 158.395745 90.788391 
L 156.78119 90.788391 
z
" style="fill:#1f77b4;"/>
   </g>
   <g id="patch_63">
    <path clip-path="url(#p1a4f759ccf)" d="M 158.395745 273.517231 
L 160.010301 273.517231 
L 160.010301 113.892038 
L 158.395745 113.892038 
z
" style="fill:#1f77b4;"/>
   </g>
   <g id="patch_64">
    <path clip-path="url(#p1a4f759ccf)" d="M 160.010301 273.517231 
L 161.624856 273.517231 
L 161.624856 92.188612 
L 160.010301 92.188612 
z
" style="fill:#1f77b4;"/>
   </g>
   <g id="patch_65">
    <path clip-path="url(#p1a4f759ccf)" d="M 161.624856 273.517231 
L 163.239411 273.517231 
L 163.239411 92.188612 
L 161.624856 92.188612 
z
" style="fill:#1f77b4;"/>
   </g>
   <g id="patch_66">
    <path clip-path="url(#p1a4f759ccf)" d="M 163.239411 273.517231 
L 164.853966 273.517231 
L 164.853966 81.686955 
L 163.239411 81.686955 
z
" style="fill:#1f77b4;"/>
   </g>
   <g id="patch_67">
    <path clip-path="url(#p1a4f759ccf)" d="M 164.853966 273.517231 
L 166.468521 273.517231 
L 166.468521 92.188612 
L 164.853966 92.188612 
z
" style="fill:#1f77b4;"/>
   </g>
   <g id="patch_68">
    <path clip-path="url(#p1a4f759ccf)" d="M 166.468521 273.517231 
L 168.083077 273.517231 
L 168.083077 69.785076 
L 166.468521 69.785076 
z
" style="fill:#1f77b4;"/>
   </g>
   <g id="patch_69">
    <path clip-path="url(#p1a4f759ccf)" d="M 168.083077 273.517231 
L 169.697632 273.517231 
L 169.697632 61.38375 
L 168.083077 61.38375 
z
" style="fill:#1f77b4;"/>
   </g>
   <g id="patch_70">
    <path clip-path="url(#p1a4f759ccf)" d="M 169.697632 273.517231 
L 171.312187 273.517231 
L 171.312187 62.083861 
L 169.697632 62.083861 
z
" style="fill:#1f77b4;"/>
   </g>
   <g id="patch_71">
    <path clip-path="url(#p1a4f759ccf)" d="M 171.312187 273.517231 
L 172.926742 273.517231 
L 172.926742 86.587728 
L 171.312187 86.587728 
z
" style="fill:#1f77b4;"/>
   </g>
   <g id="patch_72">
    <path clip-path="url(#p1a4f759ccf)" d="M 172.926742 273.517231 
L 174.541297 273.517231 
L 174.541297 85.887618 
L 172.926742 85.887618 
z
" style="fill:#1f77b4;"/>
   </g>
   <g id="patch_73">
    <path clip-path="url(#p1a4f759ccf)" d="M 174.541297 273.517231 
L 176.155852 273.517231 
L 176.155852 72.585518 
L 174.541297 72.585518 
z
" style="fill:#1f77b4;"/>
   </g>
   <g id="patch_74">
    <path clip-path="url(#p1a4f759ccf)" d="M 176.155852 273.517231 
L 177.770408 273.517231 
L 177.770408 66.284524 
L 176.155852 66.284524 
z
" style="fill:#1f77b4;"/>
   </g>
   <g id="patch_75">
    <path clip-path="url(#p1a4f759ccf)" d="M 177.770408 273.517231 
L 179.384963 273.517231 
L 179.384963 78.186402 
L 177.770408 78.186402 
z
" style="fill:#1f77b4;"/>
   </g>
   <g id="patch_76">
    <path clip-path="url(#p1a4f759ccf)" d="M 179.384963 273.517231 
L 180.999518 273.517231 
L 180.999518 60.68364 
L 179.384963 60.68364 
z
" style="fill:#1f77b4;"/>
   </g>
   <g id="patch_77">
    <path clip-path="url(#p1a4f759ccf)" d="M 180.999518 273.517231 
L 182.614073 273.517231 
L 182.614073 66.284524 
L 180.999518 66.284524 
z
" style="fill:#1f77b4;"/>
   </g>
   <g id="patch_78">
    <path clip-path="url(#p1a4f759ccf)" d="M 182.614073 273.517231 
L 184.228628 273.517231 
L 184.228628 73.285629 
L 182.614073 73.285629 
z
" style="fill:#1f77b4;"/>
   </g>
   <g id="patch_79">
    <path clip-path="url(#p1a4f759ccf)" d="M 184.228628 273.517231 
L 185.843183 273.517231 
L 185.843183 57.883198 
L 184.228628 57.883198 
z
" style="fill:#1f77b4;"/>
   </g>
   <g id="patch_80">
    <path clip-path="url(#p1a4f759ccf)" d="M 185.843183 273.517231 
L 187.457739 273.517231 
L 187.457739 56.482977 
L 185.843183 56.482977 
z
" style="fill:#1f77b4;"/>
   </g>
   <g id="patch_81">
    <path clip-path="url(#p1a4f759ccf)" d="M 187.457739 273.517231 
L 189.072294 273.517231 
L 189.072294 81.686955 
L 187.457739 81.686955 
z
" style="fill:#1f77b4;"/>
   </g>
   <g id="patch_82">
    <path clip-path="url(#p1a4f759ccf)" d="M 189.072294 273.517231 
L 190.686849 273.517231 
L 190.686849 56.482977 
L 189.072294 56.482977 
z
" style="fill:#1f77b4;"/>
   </g>
   <g id="patch_83">
    <path clip-path="url(#p1a4f759ccf)" d="M 190.686849 273.517231 
L 192.301404 273.517231 
L 192.301404 70.485187 
L 190.686849 70.485187 
z
" style="fill:#1f77b4;"/>
   </g>
   <g id="patch_84">
    <path clip-path="url(#p1a4f759ccf)" d="M 192.301404 273.517231 
L 193.915959 273.517231 
L 193.915959 70.485187 
L 192.301404 70.485187 
z
" style="fill:#1f77b4;"/>
   </g>
   <g id="patch_85">
    <path clip-path="url(#p1a4f759ccf)" d="M 193.915959 273.517231 
L 195.530515 273.517231 
L 195.530515 58.583308 
L 193.915959 58.583308 
z
" style="fill:#1f77b4;"/>
   </g>
   <g id="patch_86">
    <path clip-path="url(#p1a4f759ccf)" d="M 195.530515 273.517231 
L 197.14507 273.517231 
L 197.14507 62.083861 
L 195.530515 62.083861 
z
" style="fill:#1f77b4;"/>
   </g>
   <g id="patch_87">
    <path clip-path="url(#p1a4f759ccf)" d="M 197.14507 273.517231 
L 198.759625 273.517231 
L 198.759625 71.185297 
L 197.14507 71.185297 
z
" style="fill:#1f77b4;"/>
   </g>
   <g id="patch_88">
    <path clip-path="url(#p1a4f759ccf)" d="M 198.759625 273.517231 
L 200.37418 273.517231 
L 200.37418 37.579993 
L 198.759625 37.579993 
z
" style="fill:#1f77b4;"/>
   </g>
   <g id="patch_89">
    <path clip-path="url(#p1a4f759ccf)" d="M 200.37418 273.517231 
L 201.988735 273.517231 
L 201.988735 57.183087 
L 200.37418 57.183087 
z
" style="fill:#1f77b4;"/>
   </g>
   <g id="patch_90">
    <path clip-path="url(#p1a4f759ccf)" d="M 201.988735 273.517231 
L 203.60329 273.517231 
L 203.60329 62.083861 
L 201.988735 62.083861 
z
" style="fill:#1f77b4;"/>
   </g>
   <g id="patch_91">
    <path clip-path="url(#p1a4f759ccf)" d="M 203.60329 273.517231 
L 205.217846 273.517231 
L 205.217846 69.785076 
L 203.60329 69.785076 
z
" style="fill:#1f77b4;"/>
   </g>
   <g id="patch_92">
    <path clip-path="url(#p1a4f759ccf)" d="M 205.217846 273.517231 
L 206.832401 273.517231 
L 206.832401 61.38375 
L 205.217846 61.38375 
z
" style="fill:#1f77b4;"/>
   </g>
   <g id="patch_93">
    <path clip-path="url(#p1a4f759ccf)" d="M 206.832401 273.517231 
L 208.446956 273.517231 
L 208.446956 70.485187 
L 206.832401 70.485187 
z
" style="fill:#1f77b4;"/>
   </g>
   <g id="patch_94">
    <path clip-path="url(#p1a4f759ccf)" d="M 208.446956 273.517231 
L 210.061511 273.517231 
L 210.061511 24.277894 
L 208.446956 24.277894 
z
" style="fill:#1f77b4;"/>
   </g>
   <g id="patch_95">
    <path clip-path="url(#p1a4f759ccf)" d="M 210.061511 273.517231 
L 211.676066 273.517231 
L 211.676066 44.581098 
L 210.061511 44.581098 
z
" style="fill:#1f77b4;"/>
   </g>
   <g id="patch_96">
    <path clip-path="url(#p1a4f759ccf)" d="M 211.676066 273.517231 
L 213.290621 273.517231 
L 213.290621 50.882093 
L 211.676066 50.882093 
z
" style="fill:#1f77b4;"/>
   </g>
   <g id="patch_97">
    <path clip-path="url(#p1a4f759ccf)" d="M 213.290621 273.517231 
L 214.905177 273.517231 
L 214.905177 55.082756 
L 213.290621 55.082756 
z
" style="fill:#1f77b4;"/>
   </g>
   <g id="patch_98">
    <path clip-path="url(#p1a4f759ccf)" d="M 214.905177 273.517231 
L 216.519732 273.517231 
L 216.519732 45.981319 
L 214.905177 45.981319 
z
" style="fill:#1f77b4;"/>
   </g>
   <g id="patch_99">
    <path clip-path="url(#p1a4f759ccf)" d="M 216.519732 273.517231 
L 218.134287 273.517231 
L 218.134287 36.879883 
L 216.519732 36.879883 
z
" style="fill:#1f77b4;"/>
   </g>
   <g id="patch_100">
    <path clip-path="url(#p1a4f759ccf)" d="M 218.134287 273.517231 
L 219.748842 273.517231 
L 219.748842 53.682535 
L 218.134287 53.682535 
z
" style="fill:#1f77b4;"/>
   </g>
   <g id="patch_101">
    <path clip-path="url(#p1a4f759ccf)" d="M 219.748842 273.517231 
L 221.363397 273.517231 
L 221.363397 45.281209 
L 219.748842 45.281209 
z
" style="fill:#1f77b4;"/>
   </g>
   <g id="patch_102">
    <path clip-path="url(#p1a4f759ccf)" d="M 221.363397 273.517231 
L 222.977953 273.517231 
L 222.977953 64.884303 
L 221.363397 64.884303 
z
" style="fill:#1f77b4;"/>
   </g>
   <g id="patch_103">
    <path clip-path="url(#p1a4f759ccf)" d="M 222.977953 273.517231 
L 224.592508 273.517231 
L 224.592508 55.082756 
L 222.977953 55.082756 
z
" style="fill:#1f77b4;"/>
   </g>
   <g id="patch_104">
    <path clip-path="url(#p1a4f759ccf)" d="M 224.592508 273.517231 
L 226.207063 273.517231 
L 226.207063 34.779551 
L 224.592508 34.779551 
z
" style="fill:#1f77b4;"/>
   </g>
   <g id="patch_105">
    <path clip-path="url(#p1a4f759ccf)" d="M 226.207063 273.517231 
L 227.821618 273.517231 
L 227.821618 43.880988 
L 226.207063 43.880988 
z
" style="fill:#1f77b4;"/>
   </g>
   <g id="patch_106">
    <path clip-path="url(#p1a4f759ccf)" d="M 227.821618 273.517231 
L 229.436173 273.517231 
L 229.436173 48.081651 
L 227.821618 48.081651 
z
" style="fill:#1f77b4;"/>
   </g>
   <g id="patch_107">
    <path clip-path="url(#p1a4f759ccf)" d="M 229.436173 273.517231 
L 231.050728 273.517231 
L 231.050728 77.486292 
L 229.436173 77.486292 
z
" style="fill:#1f77b4;"/>
   </g>
   <g id="patch_108">
    <path clip-path="url(#p1a4f759ccf)" d="M 231.050728 273.517231 
L 232.665284 273.517231 
L 232.665284 71.885408 
L 231.050728 71.885408 
z
" style="fill:#1f77b4;"/>
   </g>
   <g id="patch_109">
    <path clip-path="url(#p1a4f759ccf)" d="M 232.665284 273.517231 
L 234.279839 273.517231 
L 234.279839 57.183087 
L 232.665284 57.183087 
z
" style="fill:#1f77b4;"/>
   </g>
   <g id="patch_110">
    <path clip-path="url(#p1a4f759ccf)" d="M 234.279839 273.517231 
L 235.894394 273.517231 
L 235.894394 20.077231 
L 234.279839 20.077231 
z
" style="fill:#1f77b4;"/>
   </g>
   <g id="patch_111">
    <path clip-path="url(#p1a4f759ccf)" d="M 235.894394 273.517231 
L 237.508949 273.517231 
L 237.508949 54.382645 
L 235.894394 54.382645 
z
" style="fill:#1f77b4;"/>
   </g>
   <g id="patch_112">
    <path clip-path="url(#p1a4f759ccf)" d="M 237.508949 273.517231 
L 239.123504 273.517231 
L 239.123504 63.484082 
L 237.508949 63.484082 
z
" style="fill:#1f77b4;"/>
   </g>
   <g id="patch_113">
    <path clip-path="url(#p1a4f759ccf)" d="M 239.123504 273.517231 
L 240.738059 273.517231 
L 240.738059 69.785076 
L 239.123504 69.785076 
z
" style="fill:#1f77b4;"/>
   </g>
   <g id="patch_114">
    <path clip-path="url(#p1a4f759ccf)" d="M 240.738059 273.517231 
L 242.352615 273.517231 
L 242.352615 59.283419 
L 240.738059 59.283419 
z
" style="fill:#1f77b4;"/>
   </g>
   <g id="patch_115">
    <path clip-path="url(#p1a4f759ccf)" d="M 242.352615 273.517231 
L 243.96717 273.517231 
L 243.96717 80.286734 
L 242.352615 80.286734 
z
" style="fill:#1f77b4;"/>
   </g>
   <g id="patch_116">
    <path clip-path="url(#p1a4f759ccf)" d="M 243.96717 273.517231 
L 245.581725 273.517231 
L 245.581725 33.37933 
L 243.96717 33.37933 
z
" style="fill:#1f77b4;"/>
   </g>
   <g id="patch_117">
    <path clip-path="url(#p1a4f759ccf)" d="M 245.581725 273.517231 
L 247.19628 273.517231 
L 247.19628 63.484082 
L 245.581725 63.484082 
z
" style="fill:#1f77b4;"/>
   </g>
   <g id="patch_118">
    <path clip-path="url(#p1a4f759ccf)" d="M 247.19628 273.517231 
L 248.810835 273.517231 
L 248.810835 50.882093 
L 247.19628 50.882093 
z
" style="fill:#1f77b4;"/>
   </g>
   <g id="patch_119">
    <path clip-path="url(#p1a4f759ccf)" d="M 248.810835 273.517231 
L 250.42539 273.517231 
L 250.42539 50.882093 
L 248.810835 50.882093 
z
" style="fill:#1f77b4;"/>
   </g>
   <g id="patch_120">
    <path clip-path="url(#p1a4f759ccf)" d="M 250.42539 273.517231 
L 252.039946 273.517231 
L 252.039946 77.486292 
L 250.42539 77.486292 
z
" style="fill:#1f77b4;"/>
   </g>
   <g id="patch_121">
    <path clip-path="url(#p1a4f759ccf)" d="M 252.039946 273.517231 
L 253.654501 273.517231 
L 253.654501 71.185297 
L 252.039946 71.185297 
z
" style="fill:#1f77b4;"/>
   </g>
   <g id="patch_122">
    <path clip-path="url(#p1a4f759ccf)" d="M 253.654501 273.517231 
L 255.269056 273.517231 
L 255.269056 73.285629 
L 253.654501 73.285629 
z
" style="fill:#1f77b4;"/>
   </g>
   <g id="patch_123">
    <path clip-path="url(#p1a4f759ccf)" d="M 255.269056 273.517231 
L 256.883611 273.517231 
L 256.883611 55.782866 
L 255.269056 55.782866 
z
" style="fill:#1f77b4;"/>
   </g>
   <g id="patch_124">
    <path clip-path="url(#p1a4f759ccf)" d="M 256.883611 273.517231 
L 258.498166 273.517231 
L 258.498166 72.585518 
L 256.883611 72.585518 
z
" style="fill:#1f77b4;"/>
   </g>
   <g id="patch_125">
    <path clip-path="url(#p1a4f759ccf)" d="M 258.498166 273.517231 
L 260.112722 273.517231 
L 260.112722 66.284524 
L 258.498166 66.284524 
z
" style="fill:#1f77b4;"/>
   </g>
   <g id="patch_126">
    <path clip-path="url(#p1a4f759ccf)" d="M 260.112722 273.517231 
L 261.727277 273.517231 
L 261.727277 71.885408 
L 260.112722 71.885408 
z
" style="fill:#1f77b4;"/>
   </g>
   <g id="patch_127">
    <path clip-path="url(#p1a4f759ccf)" d="M 261.727277 273.517231 
L 263.341832 273.517231 
L 263.341832 63.484082 
L 261.727277 63.484082 
z
" style="fill:#1f77b4;"/>
   </g>
   <g id="patch_128">
    <path clip-path="url(#p1a4f759ccf)" d="M 263.341832 273.517231 
L 264.956387 273.517231 
L 264.956387 74.68585 
L 263.341832 74.68585 
z
" style="fill:#1f77b4;"/>
   </g>
   <g id="patch_129">
    <path clip-path="url(#p1a4f759ccf)" d="M 264.956387 273.517231 
L 266.570942 273.517231 
L 266.570942 80.986844 
L 264.956387 80.986844 
z
" style="fill:#1f77b4;"/>
   </g>
   <g id="patch_130">
    <path clip-path="url(#p1a4f759ccf)" d="M 266.570942 273.517231 
L 268.185497 273.517231 
L 268.185497 103.39038 
L 266.570942 103.39038 
z
" style="fill:#1f77b4;"/>
   </g>
   <g id="patch_131">
    <path clip-path="url(#p1a4f759ccf)" d="M 268.185497 273.517231 
L 269.800053 273.517231 
L 269.800053 90.088281 
L 268.185497 90.088281 
z
" style="fill:#1f77b4;"/>
   </g>
   <g id="patch_132">
    <path clip-path="url(#p1a4f759ccf)" d="M 269.800053 273.517231 
L 271.414608 273.517231 
L 271.414608 83.787286 
L 269.800053 83.787286 
z
" style="fill:#1f77b4;"/>
   </g>
   <g id="patch_133">
    <path clip-path="url(#p1a4f759ccf)" d="M 271.414608 273.517231 
L 273.029163 273.517231 
L 273.029163 73.285629 
L 271.414608 73.285629 
z
" style="fill:#1f77b4;"/>
   </g>
   <g id="patch_134">
    <path clip-path="url(#p1a4f759ccf)" d="M 273.029163 273.517231 
L 274.643718 273.517231 
L 274.643718 74.68585 
L 273.029163 74.68585 
z
" style="fill:#1f77b4;"/>
   </g>
   <g id="patch_135">
    <path clip-path="url(#p1a4f759ccf)" d="M 274.643718 273.517231 
L 276.258273 273.517231 
L 276.258273 68.384855 
L 274.643718 68.384855 
z
" style="fill:#1f77b4;"/>
   </g>
   <g id="patch_136">
    <path clip-path="url(#p1a4f759ccf)" d="M 276.258273 273.517231 
L 277.872828 273.517231 
L 277.872828 93.588833 
L 276.258273 93.588833 
z
" style="fill:#1f77b4;"/>
   </g>
   <g id="patch_137">
    <path clip-path="url(#p1a4f759ccf)" d="M 277.872828 273.517231 
L 279.487384 273.517231 
L 279.487384 79.586623 
L 277.872828 79.586623 
z
" style="fill:#1f77b4;"/>
   </g>
   <g id="patch_138">
    <path clip-path="url(#p1a4f759ccf)" d="M 279.487384 273.517231 
L 281.101939 273.517231 
L 281.101939 90.088281 
L 279.487384 90.088281 
z
" style="fill:#1f77b4;"/>
   </g>
   <g id="patch_139">
    <path clip-path="url(#p1a4f759ccf)" d="M 281.101939 273.517231 
L 282.716494 273.517231 
L 282.716494 97.089386 
L 281.101939 97.089386 
z
" style="fill:#1f77b4;"/>
   </g>
   <g id="patch_140">
    <path clip-path="url(#p1a4f759ccf)" d="M 282.716494 273.517231 
L 284.331049 273.517231 
L 284.331049 86.587728 
L 282.716494 86.587728 
z
" style="fill:#1f77b4;"/>
   </g>
   <g id="patch_141">
    <path clip-path="url(#p1a4f759ccf)" d="M 284.331049 273.517231 
L 285.945604 273.517231 
L 285.945604 108.291154 
L 284.331049 108.291154 
z
" style="fill:#1f77b4;"/>
   </g>
   <g id="patch_142">
    <path clip-path="url(#p1a4f759ccf)" d="M 285.945604 273.517231 
L 287.56016 273.517231 
L 287.56016 94.989054 
L 285.945604 94.989054 
z
" style="fill:#1f77b4;"/>
   </g>
   <g id="patch_143">
    <path clip-path="url(#p1a4f759ccf)" d="M 287.56016 273.517231 
L 289.174715 273.517231 
L 289.174715 97.789496 
L 287.56016 97.789496 
z
" style="fill:#1f77b4;"/>
   </g>
   <g id="patch_144">
    <path clip-path="url(#p1a4f759ccf)" d="M 289.174715 273.517231 
L 290.78927 273.517231 
L 290.78927 101.990159 
L 289.174715 101.990159 
z
" style="fill:#1f77b4;"/>
   </g>
   <g id="patch_145">
    <path clip-path="url(#p1a4f759ccf)" d="M 290.78927 273.517231 
L 292.403825 273.517231 
L 292.403825 104.790601 
L 290.78927 104.790601 
z
" style="fill:#1f77b4;"/>
   </g>
   <g id="patch_146">
    <path clip-path="url(#p1a4f759ccf)" d="M 292.403825 273.517231 
L 294.01838 273.517231 
L 294.01838 104.090491 
L 292.403825 104.090491 
z
" style="fill:#1f77b4;"/>
   </g>
   <g id="patch_147">
    <path clip-path="url(#p1a4f759ccf)" d="M 294.01838 273.517231 
L 295.632935 273.517231 
L 295.632935 119.492922 
L 294.01838 119.492922 
z
" style="fill:#1f77b4;"/>
   </g>
   <g id="patch_148">
    <path clip-path="url(#p1a4f759ccf)" d="M 295.632935 273.517231 
L 297.247491 273.517231 
L 297.247491 110.391485 
L 295.632935 110.391485 
z
" style="fill:#1f77b4;"/>
   </g>
   <g id="patch_149">
    <path clip-path="url(#p1a4f759ccf)" d="M 297.247491 273.517231 
L 298.862046 273.517231 
L 298.862046 103.39038 
L 297.247491 103.39038 
z
" style="fill:#1f77b4;"/>
   </g>
   <g id="patch_150">
    <path clip-path="url(#p1a4f759ccf)" d="M 298.862046 273.517231 
L 300.476601 273.517231 
L 300.476601 109.691375 
L 298.862046 109.691375 
z
" style="fill:#1f77b4;"/>
   </g>
   <g id="patch_151">
    <path clip-path="url(#p1a4f759ccf)" d="M 300.476601 273.517231 
L 302.091156 273.517231 
L 302.091156 104.790601 
L 300.476601 104.790601 
z
" style="fill:#1f77b4;"/>
   </g>
   <g id="patch_152">
    <path clip-path="url(#p1a4f759ccf)" d="M 302.091156 273.517231 
L 303.705711 273.517231 
L 303.705711 124.393695 
L 302.091156 124.393695 
z
" style="fill:#1f77b4;"/>
   </g>
   <g id="patch_153">
    <path clip-path="url(#p1a4f759ccf)" d="M 303.705711 273.517231 
L 305.320266 273.517231 
L 305.320266 100.589938 
L 303.705711 100.589938 
z
" style="fill:#1f77b4;"/>
   </g>
   <g id="patch_154">
    <path clip-path="url(#p1a4f759ccf)" d="M 305.320266 273.517231 
L 306.934822 273.517231 
L 306.934822 133.495132 
L 305.320266 133.495132 
z
" style="fill:#1f77b4;"/>
   </g>
   <g id="patch_155">
    <path clip-path="url(#p1a4f759ccf)" d="M 306.934822 273.517231 
L 308.549377 273.517231 
L 308.549377 138.395905 
L 306.934822 138.395905 
z
" style="fill:#1f77b4;"/>
   </g>
   <g id="patch_156">
    <path clip-path="url(#p1a4f759ccf)" d="M 308.549377 273.517231 
L 310.163932 273.517231 
L 310.163932 138.395905 
L 308.549377 138.395905 
z
" style="fill:#1f77b4;"/>
   </g>
   <g id="patch_157">
    <path clip-path="url(#p1a4f759ccf)" d="M 310.163932 273.517231 
L 311.778487 273.517231 
L 311.778487 126.494027 
L 310.163932 126.494027 
z
" style="fill:#1f77b4;"/>
   </g>
   <g id="patch_158">
    <path clip-path="url(#p1a4f759ccf)" d="M 311.778487 273.517231 
L 313.393042 273.517231 
L 313.393042 139.096016 
L 311.778487 139.096016 
z
" style="fill:#1f77b4;"/>
   </g>
   <g id="patch_159">
    <path clip-path="url(#p1a4f759ccf)" d="M 313.393042 273.517231 
L 315.007598 273.517231 
L 315.007598 127.194137 
L 313.393042 127.194137 
z
" style="fill:#1f77b4;"/>
   </g>
   <g id="patch_160">
    <path clip-path="url(#p1a4f759ccf)" d="M 315.007598 273.517231 
L 316.622153 273.517231 
L 316.622153 130.69469 
L 315.007598 130.69469 
z
" style="fill:#1f77b4;"/>
   </g>
   <g id="patch_161">
    <path clip-path="url(#p1a4f759ccf)" d="M 316.622153 273.517231 
L 318.236708 273.517231 
L 318.236708 146.797231 
L 316.622153 146.797231 
z
" style="fill:#1f77b4;"/>
   </g>
   <g id="patch_162">
    <path clip-path="url(#p1a4f759ccf)" d="M 318.236708 273.517231 
L 319.851263 273.517231 
L 319.851263 141.196347 
L 318.236708 141.196347 
z
" style="fill:#1f77b4;"/>
   </g>
   <g id="patch_163">
    <path clip-path="url(#p1a4f759ccf)" d="M 319.851263 273.517231 
L 321.465818 273.517231 
L 321.465818 156.598778 
L 319.851263 156.598778 
z
" style="fill:#1f77b4;"/>
   </g>
   <g id="patch_164">
    <path clip-path="url(#p1a4f759ccf)" d="M 321.465818 273.517231 
L 323.080373 273.517231 
L 323.080373 159.39922 
L 321.465818 159.39922 
z
" style="fill:#1f77b4;"/>
   </g>
   <g id="patch_165">
    <path clip-path="url(#p1a4f759ccf)" d="M 323.080373 273.517231 
L 324.694929 273.517231 
L 324.694929 148.897562 
L 323.080373 148.897562 
z
" style="fill:#1f77b4;"/>
   </g>
   <g id="patch_166">
    <path clip-path="url(#p1a4f759ccf)" d="M 324.694929 273.517231 
L 326.309484 273.517231 
L 326.309484 150.297783 
L 324.694929 150.297783 
z
" style="fill:#1f77b4;"/>
   </g>
   <g id="patch_167">
    <path clip-path="url(#p1a4f759ccf)" d="M 326.309484 273.517231 
L 327.924039 273.517231 
L 327.924039 159.39922 
L 326.309484 159.39922 
z
" style="fill:#1f77b4;"/>
   </g>
   <g id="patch_168">
    <path clip-path="url(#p1a4f759ccf)" d="M 327.924039 273.517231 
L 329.538594 273.517231 
L 329.538594 146.097121 
L 327.924039 146.097121 
z
" style="fill:#1f77b4;"/>
   </g>
   <g id="patch_169">
    <path clip-path="url(#p1a4f759ccf)" d="M 329.538594 273.517231 
L 331.153149 273.517231 
L 331.153149 172.001209 
L 329.538594 172.001209 
z
" style="fill:#1f77b4;"/>
   </g>
   <g id="patch_170">
    <path clip-path="url(#p1a4f759ccf)" d="M 331.153149 273.517231 
L 332.767704 273.517231 
L 332.767704 187.40364 
L 331.153149 187.40364 
z
" style="fill:#1f77b4;"/>
   </g>
   <g id="patch_171">
    <path clip-path="url(#p1a4f759ccf)" d="M 332.767704 273.517231 
L 334.38226 273.517231 
L 334.38226 182.502866 
L 332.767704 182.502866 
z
" style="fill:#1f77b4;"/>
   </g>
   <g id="patch_172">
    <path clip-path="url(#p1a4f759ccf)" d="M 334.38226 273.517231 
L 335.996815 273.517231 
L 335.996815 167.100435 
L 334.38226 167.100435 
z
" style="fill:#1f77b4;"/>
   </g>
   <g id="patch_173">
    <path clip-path="url(#p1a4f759ccf)" d="M 335.996815 273.517231 
L 337.61137 273.517231 
L 337.61137 174.10154 
L 335.996815 174.10154 
z
" style="fill:#1f77b4;"/>
   </g>
   <g id="patch_174">
    <path clip-path="url(#p1a4f759ccf)" d="M 337.61137 273.517231 
L 339.225925 273.517231 
L 339.225925 176.901982 
L 337.61137 176.901982 
z
" style="fill:#1f77b4;"/>
   </g>
   <g id="patch_175">
    <path clip-path="url(#p1a4f759ccf)" d="M 339.225925 273.517231 
L 340.84048 273.517231 
L 340.84048 176.901982 
L 339.225925 176.901982 
z
" style="fill:#1f77b4;"/>
   </g>
   <g id="patch_176">
    <path clip-path="url(#p1a4f759ccf)" d="M 340.84048 273.517231 
L 342.455036 273.517231 
L 342.455036 184.603198 
L 340.84048 184.603198 
z
" style="fill:#1f77b4;"/>
   </g>
   <g id="patch_177">
    <path clip-path="url(#p1a4f759ccf)" d="M 342.455036 273.517231 
L 344.069591 273.517231 
L 344.069591 182.502866 
L 342.455036 182.502866 
z
" style="fill:#1f77b4;"/>
   </g>
   <g id="patch_178">
    <path clip-path="url(#p1a4f759ccf)" d="M 344.069591 273.517231 
L 345.684146 273.517231 
L 345.684146 191.604303 
L 344.069591 191.604303 
z
" style="fill:#1f77b4;"/>
   </g>
   <g id="patch_179">
    <path clip-path="url(#p1a4f759ccf)" d="M 345.684146 273.517231 
L 347.298701 273.517231 
L 347.298701 198.605408 
L 345.684146 198.605408 
z
" style="fill:#1f77b4;"/>
   </g>
   <g id="patch_180">
    <path clip-path="url(#p1a4f759ccf)" d="M 347.298701 273.517231 
L 348.913256 273.517231 
L 348.913256 200.005629 
L 347.298701 200.005629 
z
" style="fill:#1f77b4;"/>
   </g>
   <g id="patch_181">
    <path clip-path="url(#p1a4f759ccf)" d="M 348.913256 273.517231 
L 350.527811 273.517231 
L 350.527811 204.206292 
L 348.913256 204.206292 
z
" style="fill:#1f77b4;"/>
   </g>
   <g id="patch_182">
    <path clip-path="url(#p1a4f759ccf)" d="M 350.527811 273.517231 
L 352.142367 273.517231 
L 352.142367 207.706844 
L 350.527811 207.706844 
z
" style="fill:#1f77b4;"/>
   </g>
   <g id="patch_183">
    <path clip-path="url(#p1a4f759ccf)" d="M 352.142367 273.517231 
L 353.756922 273.517231 
L 353.756922 209.807176 
L 352.142367 209.807176 
z
" style="fill:#1f77b4;"/>
   </g>
   <g id="patch_184">
    <path clip-path="url(#p1a4f759ccf)" d="M 353.756922 273.517231 
L 355.371477 273.517231 
L 355.371477 221.709054 
L 353.756922 221.709054 
z
" style="fill:#1f77b4;"/>
   </g>
   <g id="patch_185">
    <path clip-path="url(#p1a4f759ccf)" d="M 355.371477 273.517231 
L 356.986032 273.517231 
L 356.986032 215.40806 
L 355.371477 215.40806 
z
" style="fill:#1f77b4;"/>
   </g>
   <g id="patch_186">
    <path clip-path="url(#p1a4f759ccf)" d="M 356.986032 273.517231 
L 358.600587 273.517231 
L 358.600587 206.306623 
L 356.986032 206.306623 
z
" style="fill:#1f77b4;"/>
   </g>
   <g id="patch_187">
    <path clip-path="url(#p1a4f759ccf)" d="M 358.600587 273.517231 
L 360.215142 273.517231 
L 360.215142 218.908612 
L 358.600587 218.908612 
z
" style="fill:#1f77b4;"/>
   </g>
   <g id="patch_188">
    <path clip-path="url(#p1a4f759ccf)" d="M 360.215142 273.517231 
L 361.829698 273.517231 
L 361.829698 221.709054 
L 360.215142 221.709054 
z
" style="fill:#1f77b4;"/>
   </g>
   <g id="patch_189">
    <path clip-path="url(#p1a4f759ccf)" d="M 361.829698 273.517231 
L 363.444253 273.517231 
L 363.444253 230.11038 
L 361.829698 230.11038 
z
" style="fill:#1f77b4;"/>
   </g>
   <g id="patch_190">
    <path clip-path="url(#p1a4f759ccf)" d="M 363.444253 273.517231 
L 365.058808 273.517231 
L 365.058808 236.411375 
L 363.444253 236.411375 
z
" style="fill:#1f77b4;"/>
   </g>
   <g id="patch_191">
    <path clip-path="url(#p1a4f759ccf)" d="M 365.058808 273.517231 
L 366.673363 273.517231 
L 366.673363 237.811596 
L 365.058808 237.811596 
z
" style="fill:#1f77b4;"/>
   </g>
   <g id="patch_192">
    <path clip-path="url(#p1a4f759ccf)" d="M 366.673363 273.517231 
L 368.287918 273.517231 
L 368.287918 239.211817 
L 366.673363 239.211817 
z
" style="fill:#1f77b4;"/>
   </g>
   <g id="patch_193">
    <path clip-path="url(#p1a4f759ccf)" d="M 368.287918 273.517231 
L 369.902473 273.517231 
L 369.902473 232.910822 
L 368.287918 232.910822 
z
" style="fill:#1f77b4;"/>
   </g>
   <g id="patch_194">
    <path clip-path="url(#p1a4f759ccf)" d="M 369.902473 273.517231 
L 371.517029 273.517231 
L 371.517029 253.914137 
L 369.902473 253.914137 
z
" style="fill:#1f77b4;"/>
   </g>
   <g id="patch_195">
    <path clip-path="url(#p1a4f759ccf)" d="M 371.517029 273.517231 
L 373.131584 273.517231 
L 373.131584 250.413585 
L 371.517029 250.413585 
z
" style="fill:#1f77b4;"/>
   </g>
   <g id="patch_196">
    <path clip-path="url(#p1a4f759ccf)" d="M 373.131584 273.517231 
L 374.746139 273.517231 
L 374.746139 247.613143 
L 373.131584 247.613143 
z
" style="fill:#1f77b4;"/>
   </g>
   <g id="patch_197">
    <path clip-path="url(#p1a4f759ccf)" d="M 374.746139 273.517231 
L 376.360694 273.517231 
L 376.360694 245.512811 
L 374.746139 245.512811 
z
" style="fill:#1f77b4;"/>
   </g>
   <g id="patch_198">
    <path clip-path="url(#p1a4f759ccf)" d="M 376.360694 273.517231 
L 377.975249 273.517231 
L 377.975249 260.215132 
L 376.360694 260.215132 
z
" style="fill:#1f77b4;"/>
   </g>
   <g id="patch_199">
    <path clip-path="url(#p1a4f759ccf)" d="M 377.975249 273.517231 
L 379.589805 273.517231 
L 379.589805 259.515021 
L 377.975249 259.515021 
z
" style="fill:#1f77b4;"/>
   </g>
   <g id="patch_200">
    <path clip-path="url(#p1a4f759ccf)" d="M 379.589805 273.517231 
L 381.20436 273.517231 
L 381.20436 265.115905 
L 379.589805 265.115905 
z
" style="fill:#1f77b4;"/>
   </g>
   <g id="patch_201">
    <path clip-path="url(#p1a4f759ccf)" d="M 381.20436 273.517231 
L 382.818915 273.517231 
L 382.818915 271.4169 
L 381.20436 271.4169 
z
" style="fill:#1f77b4;"/>
   </g>
   <g id="patch_202">
    <path clip-path="url(#p1a4f759ccf)" d="M 382.818915 273.517231 
L 384.43347 273.517231 
L 384.43347 271.4169 
L 382.818915 271.4169 
z
" style="fill:#1f77b4;"/>
   </g>
   <g id="matplotlib.axis_1">
    <g id="xtick_1">
     <g id="line2d_1">
      <defs>
       <path d="M 0 0 
L 0 3.5 
" id="m3b2919d3bf" style="stroke:#000000;stroke-width:0.8;"/>
      </defs>
      <g>
       <use style="stroke:#000000;stroke-width:0.8;" x="60.013977" xlink:href="#m3b2919d3bf" y="273.517231"/>
      </g>
     </g>
     <g id="text_1">
      <!-- 0.0 -->
      <g transform="translate(52.062415 288.115668)scale(0.1 -0.1)">
       <defs>
        <path d="M 2034 4250 
Q 1547 4250 1301 3770 
Q 1056 3291 1056 2328 
Q 1056 1369 1301 889 
Q 1547 409 2034 409 
Q 2525 409 2770 889 
Q 3016 1369 3016 2328 
Q 3016 3291 2770 3770 
Q 2525 4250 2034 4250 
z
M 2034 4750 
Q 2819 4750 3233 4129 
Q 3647 3509 3647 2328 
Q 3647 1150 3233 529 
Q 2819 -91 2034 -91 
Q 1250 -91 836 529 
Q 422 1150 422 2328 
Q 422 3509 836 4129 
Q 1250 4750 2034 4750 
z
" id="DejaVuSans-30" transform="scale(0.015625)"/>
        <path d="M 684 794 
L 1344 794 
L 1344 0 
L 684 0 
L 684 794 
z
" id="DejaVuSans-2e" transform="scale(0.015625)"/>
       </defs>
       <use xlink:href="#DejaVuSans-30"/>
       <use x="63.623047" xlink:href="#DejaVuSans-2e"/>
       <use x="95.410156" xlink:href="#DejaVuSans-30"/>
      </g>
     </g>
    </g>
    <g id="xtick_2">
     <g id="line2d_2">
      <g>
       <use style="stroke:#000000;stroke-width:0.8;" x="101.350278" xlink:href="#m3b2919d3bf" y="273.517231"/>
      </g>
     </g>
     <g id="text_2">
      <!-- 0.2 -->
      <g transform="translate(93.398715 288.115668)scale(0.1 -0.1)">
       <defs>
        <path d="M 1228 531 
L 3431 531 
L 3431 0 
L 469 0 
L 469 531 
Q 828 903 1448 1529 
Q 2069 2156 2228 2338 
Q 2531 2678 2651 2914 
Q 2772 3150 2772 3378 
Q 2772 3750 2511 3984 
Q 2250 4219 1831 4219 
Q 1534 4219 1204 4116 
Q 875 4013 500 3803 
L 500 4441 
Q 881 4594 1212 4672 
Q 1544 4750 1819 4750 
Q 2544 4750 2975 4387 
Q 3406 4025 3406 3419 
Q 3406 3131 3298 2873 
Q 3191 2616 2906 2266 
Q 2828 2175 2409 1742 
Q 1991 1309 1228 531 
z
" id="DejaVuSans-32" transform="scale(0.015625)"/>
       </defs>
       <use xlink:href="#DejaVuSans-30"/>
       <use x="63.623047" xlink:href="#DejaVuSans-2e"/>
       <use x="95.410156" xlink:href="#DejaVuSans-32"/>
      </g>
     </g>
    </g>
    <g id="xtick_3">
     <g id="line2d_3">
      <g>
       <use style="stroke:#000000;stroke-width:0.8;" x="142.686578" xlink:href="#m3b2919d3bf" y="273.517231"/>
      </g>
     </g>
     <g id="text_3">
      <!-- 0.4 -->
      <g transform="translate(134.735016 288.115668)scale(0.1 -0.1)">
       <defs>
        <path d="M 2419 4116 
L 825 1625 
L 2419 1625 
L 2419 4116 
z
M 2253 4666 
L 3047 4666 
L 3047 1625 
L 3713 1625 
L 3713 1100 
L 3047 1100 
L 3047 0 
L 2419 0 
L 2419 1100 
L 313 1100 
L 313 1709 
L 2253 4666 
z
" id="DejaVuSans-34" transform="scale(0.015625)"/>
       </defs>
       <use xlink:href="#DejaVuSans-30"/>
       <use x="63.623047" xlink:href="#DejaVuSans-2e"/>
       <use x="95.410156" xlink:href="#DejaVuSans-34"/>
      </g>
     </g>
    </g>
    <g id="xtick_4">
     <g id="line2d_4">
      <g>
       <use style="stroke:#000000;stroke-width:0.8;" x="184.022879" xlink:href="#m3b2919d3bf" y="273.517231"/>
      </g>
     </g>
     <g id="text_4">
      <!-- 0.6 -->
      <g transform="translate(176.071316 288.115668)scale(0.1 -0.1)">
       <defs>
        <path d="M 2113 2584 
Q 1688 2584 1439 2293 
Q 1191 2003 1191 1497 
Q 1191 994 1439 701 
Q 1688 409 2113 409 
Q 2538 409 2786 701 
Q 3034 994 3034 1497 
Q 3034 2003 2786 2293 
Q 2538 2584 2113 2584 
z
M 3366 4563 
L 3366 3988 
Q 3128 4100 2886 4159 
Q 2644 4219 2406 4219 
Q 1781 4219 1451 3797 
Q 1122 3375 1075 2522 
Q 1259 2794 1537 2939 
Q 1816 3084 2150 3084 
Q 2853 3084 3261 2657 
Q 3669 2231 3669 1497 
Q 3669 778 3244 343 
Q 2819 -91 2113 -91 
Q 1303 -91 875 529 
Q 447 1150 447 2328 
Q 447 3434 972 4092 
Q 1497 4750 2381 4750 
Q 2619 4750 2861 4703 
Q 3103 4656 3366 4563 
z
" id="DejaVuSans-36" transform="scale(0.015625)"/>
       </defs>
       <use xlink:href="#DejaVuSans-30"/>
       <use x="63.623047" xlink:href="#DejaVuSans-2e"/>
       <use x="95.410156" xlink:href="#DejaVuSans-36"/>
      </g>
     </g>
    </g>
    <g id="xtick_5">
     <g id="line2d_5">
      <g>
       <use style="stroke:#000000;stroke-width:0.8;" x="225.35918" xlink:href="#m3b2919d3bf" y="273.517231"/>
      </g>
     </g>
     <g id="text_5">
      <!-- 0.8 -->
      <g transform="translate(217.407617 288.115668)scale(0.1 -0.1)">
       <defs>
        <path d="M 2034 2216 
Q 1584 2216 1326 1975 
Q 1069 1734 1069 1313 
Q 1069 891 1326 650 
Q 1584 409 2034 409 
Q 2484 409 2743 651 
Q 3003 894 3003 1313 
Q 3003 1734 2745 1975 
Q 2488 2216 2034 2216 
z
M 1403 2484 
Q 997 2584 770 2862 
Q 544 3141 544 3541 
Q 544 4100 942 4425 
Q 1341 4750 2034 4750 
Q 2731 4750 3128 4425 
Q 3525 4100 3525 3541 
Q 3525 3141 3298 2862 
Q 3072 2584 2669 2484 
Q 3125 2378 3379 2068 
Q 3634 1759 3634 1313 
Q 3634 634 3220 271 
Q 2806 -91 2034 -91 
Q 1263 -91 848 271 
Q 434 634 434 1313 
Q 434 1759 690 2068 
Q 947 2378 1403 2484 
z
M 1172 3481 
Q 1172 3119 1398 2916 
Q 1625 2713 2034 2713 
Q 2441 2713 2670 2916 
Q 2900 3119 2900 3481 
Q 2900 3844 2670 4047 
Q 2441 4250 2034 4250 
Q 1625 4250 1398 4047 
Q 1172 3844 1172 3481 
z
" id="DejaVuSans-38" transform="scale(0.015625)"/>
       </defs>
       <use xlink:href="#DejaVuSans-30"/>
       <use x="63.623047" xlink:href="#DejaVuSans-2e"/>
       <use x="95.410156" xlink:href="#DejaVuSans-38"/>
      </g>
     </g>
    </g>
    <g id="xtick_6">
     <g id="line2d_6">
      <g>
       <use style="stroke:#000000;stroke-width:0.8;" x="266.69548" xlink:href="#m3b2919d3bf" y="273.517231"/>
      </g>
     </g>
     <g id="text_6">
      <!-- 1.0 -->
      <g transform="translate(258.743918 288.115668)scale(0.1 -0.1)">
       <defs>
        <path d="M 794 531 
L 1825 531 
L 1825 4091 
L 703 3866 
L 703 4441 
L 1819 4666 
L 2450 4666 
L 2450 531 
L 3481 531 
L 3481 0 
L 794 0 
L 794 531 
z
" id="DejaVuSans-31" transform="scale(0.015625)"/>
       </defs>
       <use xlink:href="#DejaVuSans-31"/>
       <use x="63.623047" xlink:href="#DejaVuSans-2e"/>
       <use x="95.410156" xlink:href="#DejaVuSans-30"/>
      </g>
     </g>
    </g>
    <g id="xtick_7">
     <g id="line2d_7">
      <g>
       <use style="stroke:#000000;stroke-width:0.8;" x="308.031781" xlink:href="#m3b2919d3bf" y="273.517231"/>
      </g>
     </g>
     <g id="text_7">
      <!-- 1.2 -->
      <g transform="translate(300.080218 288.115668)scale(0.1 -0.1)">
       <use xlink:href="#DejaVuSans-31"/>
       <use x="63.623047" xlink:href="#DejaVuSans-2e"/>
       <use x="95.410156" xlink:href="#DejaVuSans-32"/>
      </g>
     </g>
    </g>
    <g id="xtick_8">
     <g id="line2d_8">
      <g>
       <use style="stroke:#000000;stroke-width:0.8;" x="349.368081" xlink:href="#m3b2919d3bf" y="273.517231"/>
      </g>
     </g>
     <g id="text_8">
      <!-- 1.4 -->
      <g transform="translate(341.416519 288.115668)scale(0.1 -0.1)">
       <use xlink:href="#DejaVuSans-31"/>
       <use x="63.623047" xlink:href="#DejaVuSans-2e"/>
       <use x="95.410156" xlink:href="#DejaVuSans-34"/>
      </g>
     </g>
    </g>
    <g id="xtick_9">
     <g id="line2d_9">
      <g>
       <use style="stroke:#000000;stroke-width:0.8;" x="390.704382" xlink:href="#m3b2919d3bf" y="273.517231"/>
      </g>
     </g>
     <g id="text_9">
      <!-- 1.6 -->
      <g transform="translate(382.752819 288.115668)scale(0.1 -0.1)">
       <use xlink:href="#DejaVuSans-31"/>
       <use x="63.623047" xlink:href="#DejaVuSans-2e"/>
       <use x="95.410156" xlink:href="#DejaVuSans-36"/>
      </g>
     </g>
    </g>
    <g id="text_10">
     <!-- Angle with normal (rad) -->
     <g transform="translate(163.023281 301.793793)scale(0.1 -0.1)">
      <defs>
       <path d="M 2188 4044 
L 1331 1722 
L 3047 1722 
L 2188 4044 
z
M 1831 4666 
L 2547 4666 
L 4325 0 
L 3669 0 
L 3244 1197 
L 1141 1197 
L 716 0 
L 50 0 
L 1831 4666 
z
" id="DejaVuSans-41" transform="scale(0.015625)"/>
       <path d="M 3513 2113 
L 3513 0 
L 2938 0 
L 2938 2094 
Q 2938 2591 2744 2837 
Q 2550 3084 2163 3084 
Q 1697 3084 1428 2787 
Q 1159 2491 1159 1978 
L 1159 0 
L 581 0 
L 581 3500 
L 1159 3500 
L 1159 2956 
Q 1366 3272 1645 3428 
Q 1925 3584 2291 3584 
Q 2894 3584 3203 3211 
Q 3513 2838 3513 2113 
z
" id="DejaVuSans-6e" transform="scale(0.015625)"/>
       <path d="M 2906 1791 
Q 2906 2416 2648 2759 
Q 2391 3103 1925 3103 
Q 1463 3103 1205 2759 
Q 947 2416 947 1791 
Q 947 1169 1205 825 
Q 1463 481 1925 481 
Q 2391 481 2648 825 
Q 2906 1169 2906 1791 
z
M 3481 434 
Q 3481 -459 3084 -895 
Q 2688 -1331 1869 -1331 
Q 1566 -1331 1297 -1286 
Q 1028 -1241 775 -1147 
L 775 -588 
Q 1028 -725 1275 -790 
Q 1522 -856 1778 -856 
Q 2344 -856 2625 -561 
Q 2906 -266 2906 331 
L 2906 616 
Q 2728 306 2450 153 
Q 2172 0 1784 0 
Q 1141 0 747 490 
Q 353 981 353 1791 
Q 353 2603 747 3093 
Q 1141 3584 1784 3584 
Q 2172 3584 2450 3431 
Q 2728 3278 2906 2969 
L 2906 3500 
L 3481 3500 
L 3481 434 
z
" id="DejaVuSans-67" transform="scale(0.015625)"/>
       <path d="M 603 4863 
L 1178 4863 
L 1178 0 
L 603 0 
L 603 4863 
z
" id="DejaVuSans-6c" transform="scale(0.015625)"/>
       <path d="M 3597 1894 
L 3597 1613 
L 953 1613 
Q 991 1019 1311 708 
Q 1631 397 2203 397 
Q 2534 397 2845 478 
Q 3156 559 3463 722 
L 3463 178 
Q 3153 47 2828 -22 
Q 2503 -91 2169 -91 
Q 1331 -91 842 396 
Q 353 884 353 1716 
Q 353 2575 817 3079 
Q 1281 3584 2069 3584 
Q 2775 3584 3186 3129 
Q 3597 2675 3597 1894 
z
M 3022 2063 
Q 3016 2534 2758 2815 
Q 2500 3097 2075 3097 
Q 1594 3097 1305 2825 
Q 1016 2553 972 2059 
L 3022 2063 
z
" id="DejaVuSans-65" transform="scale(0.015625)"/>
       <path id="DejaVuSans-20" transform="scale(0.015625)"/>
       <path d="M 269 3500 
L 844 3500 
L 1563 769 
L 2278 3500 
L 2956 3500 
L 3675 769 
L 4391 3500 
L 4966 3500 
L 4050 0 
L 3372 0 
L 2619 2869 
L 1863 0 
L 1184 0 
L 269 3500 
z
" id="DejaVuSans-77" transform="scale(0.015625)"/>
       <path d="M 603 3500 
L 1178 3500 
L 1178 0 
L 603 0 
L 603 3500 
z
M 603 4863 
L 1178 4863 
L 1178 4134 
L 603 4134 
L 603 4863 
z
" id="DejaVuSans-69" transform="scale(0.015625)"/>
       <path d="M 1172 4494 
L 1172 3500 
L 2356 3500 
L 2356 3053 
L 1172 3053 
L 1172 1153 
Q 1172 725 1289 603 
Q 1406 481 1766 481 
L 2356 481 
L 2356 0 
L 1766 0 
Q 1100 0 847 248 
Q 594 497 594 1153 
L 594 3053 
L 172 3053 
L 172 3500 
L 594 3500 
L 594 4494 
L 1172 4494 
z
" id="DejaVuSans-74" transform="scale(0.015625)"/>
       <path d="M 3513 2113 
L 3513 0 
L 2938 0 
L 2938 2094 
Q 2938 2591 2744 2837 
Q 2550 3084 2163 3084 
Q 1697 3084 1428 2787 
Q 1159 2491 1159 1978 
L 1159 0 
L 581 0 
L 581 4863 
L 1159 4863 
L 1159 2956 
Q 1366 3272 1645 3428 
Q 1925 3584 2291 3584 
Q 2894 3584 3203 3211 
Q 3513 2838 3513 2113 
z
" id="DejaVuSans-68" transform="scale(0.015625)"/>
       <path d="M 1959 3097 
Q 1497 3097 1228 2736 
Q 959 2375 959 1747 
Q 959 1119 1226 758 
Q 1494 397 1959 397 
Q 2419 397 2687 759 
Q 2956 1122 2956 1747 
Q 2956 2369 2687 2733 
Q 2419 3097 1959 3097 
z
M 1959 3584 
Q 2709 3584 3137 3096 
Q 3566 2609 3566 1747 
Q 3566 888 3137 398 
Q 2709 -91 1959 -91 
Q 1206 -91 779 398 
Q 353 888 353 1747 
Q 353 2609 779 3096 
Q 1206 3584 1959 3584 
z
" id="DejaVuSans-6f" transform="scale(0.015625)"/>
       <path d="M 2631 2963 
Q 2534 3019 2420 3045 
Q 2306 3072 2169 3072 
Q 1681 3072 1420 2755 
Q 1159 2438 1159 1844 
L 1159 0 
L 581 0 
L 581 3500 
L 1159 3500 
L 1159 2956 
Q 1341 3275 1631 3429 
Q 1922 3584 2338 3584 
Q 2397 3584 2469 3576 
Q 2541 3569 2628 3553 
L 2631 2963 
z
" id="DejaVuSans-72" transform="scale(0.015625)"/>
       <path d="M 3328 2828 
Q 3544 3216 3844 3400 
Q 4144 3584 4550 3584 
Q 5097 3584 5394 3201 
Q 5691 2819 5691 2113 
L 5691 0 
L 5113 0 
L 5113 2094 
Q 5113 2597 4934 2840 
Q 4756 3084 4391 3084 
Q 3944 3084 3684 2787 
Q 3425 2491 3425 1978 
L 3425 0 
L 2847 0 
L 2847 2094 
Q 2847 2600 2669 2842 
Q 2491 3084 2119 3084 
Q 1678 3084 1418 2786 
Q 1159 2488 1159 1978 
L 1159 0 
L 581 0 
L 581 3500 
L 1159 3500 
L 1159 2956 
Q 1356 3278 1631 3431 
Q 1906 3584 2284 3584 
Q 2666 3584 2933 3390 
Q 3200 3197 3328 2828 
z
" id="DejaVuSans-6d" transform="scale(0.015625)"/>
       <path d="M 2194 1759 
Q 1497 1759 1228 1600 
Q 959 1441 959 1056 
Q 959 750 1161 570 
Q 1363 391 1709 391 
Q 2188 391 2477 730 
Q 2766 1069 2766 1631 
L 2766 1759 
L 2194 1759 
z
M 3341 1997 
L 3341 0 
L 2766 0 
L 2766 531 
Q 2569 213 2275 61 
Q 1981 -91 1556 -91 
Q 1019 -91 701 211 
Q 384 513 384 1019 
Q 384 1609 779 1909 
Q 1175 2209 1959 2209 
L 2766 2209 
L 2766 2266 
Q 2766 2663 2505 2880 
Q 2244 3097 1772 3097 
Q 1472 3097 1187 3025 
Q 903 2953 641 2809 
L 641 3341 
Q 956 3463 1253 3523 
Q 1550 3584 1831 3584 
Q 2591 3584 2966 3190 
Q 3341 2797 3341 1997 
z
" id="DejaVuSans-61" transform="scale(0.015625)"/>
       <path d="M 1984 4856 
Q 1566 4138 1362 3434 
Q 1159 2731 1159 2009 
Q 1159 1288 1364 580 
Q 1569 -128 1984 -844 
L 1484 -844 
Q 1016 -109 783 600 
Q 550 1309 550 2009 
Q 550 2706 781 3412 
Q 1013 4119 1484 4856 
L 1984 4856 
z
" id="DejaVuSans-28" transform="scale(0.015625)"/>
       <path d="M 2906 2969 
L 2906 4863 
L 3481 4863 
L 3481 0 
L 2906 0 
L 2906 525 
Q 2725 213 2448 61 
Q 2172 -91 1784 -91 
Q 1150 -91 751 415 
Q 353 922 353 1747 
Q 353 2572 751 3078 
Q 1150 3584 1784 3584 
Q 2172 3584 2448 3432 
Q 2725 3281 2906 2969 
z
M 947 1747 
Q 947 1113 1208 752 
Q 1469 391 1925 391 
Q 2381 391 2643 752 
Q 2906 1113 2906 1747 
Q 2906 2381 2643 2742 
Q 2381 3103 1925 3103 
Q 1469 3103 1208 2742 
Q 947 2381 947 1747 
z
" id="DejaVuSans-64" transform="scale(0.015625)"/>
       <path d="M 513 4856 
L 1013 4856 
Q 1481 4119 1714 3412 
Q 1947 2706 1947 2009 
Q 1947 1309 1714 600 
Q 1481 -109 1013 -844 
L 513 -844 
Q 928 -128 1133 580 
Q 1338 1288 1338 2009 
Q 1338 2731 1133 3434 
Q 928 4138 513 4856 
z
" id="DejaVuSans-29" transform="scale(0.015625)"/>
      </defs>
      <use xlink:href="#DejaVuSans-41"/>
      <use x="68.408203" xlink:href="#DejaVuSans-6e"/>
      <use x="131.787109" xlink:href="#DejaVuSans-67"/>
      <use x="195.263672" xlink:href="#DejaVuSans-6c"/>
      <use x="223.046875" xlink:href="#DejaVuSans-65"/>
      <use x="284.570312" xlink:href="#DejaVuSans-20"/>
      <use x="316.357422" xlink:href="#DejaVuSans-77"/>
      <use x="398.144531" xlink:href="#DejaVuSans-69"/>
      <use x="425.927734" xlink:href="#DejaVuSans-74"/>
      <use x="465.136719" xlink:href="#DejaVuSans-68"/>
      <use x="528.515625" xlink:href="#DejaVuSans-20"/>
      <use x="560.302734" xlink:href="#DejaVuSans-6e"/>
      <use x="623.681641" xlink:href="#DejaVuSans-6f"/>
      <use x="684.863281" xlink:href="#DejaVuSans-72"/>
      <use x="724.226562" xlink:href="#DejaVuSans-6d"/>
      <use x="821.638672" xlink:href="#DejaVuSans-61"/>
      <use x="882.917969" xlink:href="#DejaVuSans-6c"/>
      <use x="910.701172" xlink:href="#DejaVuSans-20"/>
      <use x="942.488281" xlink:href="#DejaVuSans-28"/>
      <use x="981.501953" xlink:href="#DejaVuSans-72"/>
      <use x="1022.615234" xlink:href="#DejaVuSans-61"/>
      <use x="1083.894531" xlink:href="#DejaVuSans-64"/>
      <use x="1147.371094" xlink:href="#DejaVuSans-29"/>
     </g>
    </g>
   </g>
   <g id="matplotlib.axis_2">
    <g id="ytick_1">
     <g id="line2d_10">
      <defs>
       <path d="M 0 0 
L -3.5 0 
" id="m68a287a7ac" style="stroke:#000000;stroke-width:0.8;"/>
      </defs>
      <g>
       <use style="stroke:#000000;stroke-width:0.8;" x="43.78125" xlink:href="#m68a287a7ac" y="273.517231"/>
      </g>
     </g>
     <g id="text_11">
      <!-- 0.0 -->
      <g transform="translate(20.878125 277.31645)scale(0.1 -0.1)">
       <use xlink:href="#DejaVuSans-30"/>
       <use x="63.623047" xlink:href="#DejaVuSans-2e"/>
       <use x="95.410156" xlink:href="#DejaVuSans-30"/>
      </g>
     </g>
    </g>
    <g id="ytick_2">
     <g id="line2d_11">
      <g>
       <use style="stroke:#000000;stroke-width:0.8;" x="43.78125" xlink:href="#m68a287a7ac" y="229.764229"/>
      </g>
     </g>
     <g id="text_12">
      <!-- 0.2 -->
      <g transform="translate(20.878125 233.563448)scale(0.1 -0.1)">
       <use xlink:href="#DejaVuSans-30"/>
       <use x="63.623047" xlink:href="#DejaVuSans-2e"/>
       <use x="95.410156" xlink:href="#DejaVuSans-32"/>
      </g>
     </g>
    </g>
    <g id="ytick_3">
     <g id="line2d_12">
      <g>
       <use style="stroke:#000000;stroke-width:0.8;" x="43.78125" xlink:href="#m68a287a7ac" y="186.011227"/>
      </g>
     </g>
     <g id="text_13">
      <!-- 0.4 -->
      <g transform="translate(20.878125 189.810446)scale(0.1 -0.1)">
       <use xlink:href="#DejaVuSans-30"/>
       <use x="63.623047" xlink:href="#DejaVuSans-2e"/>
       <use x="95.410156" xlink:href="#DejaVuSans-34"/>
      </g>
     </g>
    </g>
    <g id="ytick_4">
     <g id="line2d_13">
      <g>
       <use style="stroke:#000000;stroke-width:0.8;" x="43.78125" xlink:href="#m68a287a7ac" y="142.258225"/>
      </g>
     </g>
     <g id="text_14">
      <!-- 0.6 -->
      <g transform="translate(20.878125 146.057444)scale(0.1 -0.1)">
       <use xlink:href="#DejaVuSans-30"/>
       <use x="63.623047" xlink:href="#DejaVuSans-2e"/>
       <use x="95.410156" xlink:href="#DejaVuSans-36"/>
      </g>
     </g>
    </g>
    <g id="ytick_5">
     <g id="line2d_14">
      <g>
       <use style="stroke:#000000;stroke-width:0.8;" x="43.78125" xlink:href="#m68a287a7ac" y="98.505223"/>
      </g>
     </g>
     <g id="text_15">
      <!-- 0.8 -->
      <g transform="translate(20.878125 102.304442)scale(0.1 -0.1)">
       <use xlink:href="#DejaVuSans-30"/>
       <use x="63.623047" xlink:href="#DejaVuSans-2e"/>
       <use x="95.410156" xlink:href="#DejaVuSans-38"/>
      </g>
     </g>
    </g>
    <g id="ytick_6">
     <g id="line2d_15">
      <g>
       <use style="stroke:#000000;stroke-width:0.8;" x="43.78125" xlink:href="#m68a287a7ac" y="54.752221"/>
      </g>
     </g>
     <g id="text_16">
      <!-- 1.0 -->
      <g transform="translate(20.878125 58.55144)scale(0.1 -0.1)">
       <use xlink:href="#DejaVuSans-31"/>
       <use x="63.623047" xlink:href="#DejaVuSans-2e"/>
       <use x="95.410156" xlink:href="#DejaVuSans-30"/>
      </g>
     </g>
    </g>
    <g id="ytick_7">
     <g id="line2d_16">
      <g>
       <use style="stroke:#000000;stroke-width:0.8;" x="43.78125" xlink:href="#m68a287a7ac" y="10.999219"/>
      </g>
     </g>
     <g id="text_17">
      <!-- 1.2 -->
      <g transform="translate(20.878125 14.798437)scale(0.1 -0.1)">
       <use xlink:href="#DejaVuSans-31"/>
       <use x="63.623047" xlink:href="#DejaVuSans-2e"/>
       <use x="95.410156" xlink:href="#DejaVuSans-32"/>
      </g>
     </g>
    </g>
    <g id="text_18">
     <!-- Probability density -->
     <g transform="translate(14.798438 186.812012)rotate(-90)scale(0.1 -0.1)">
      <defs>
       <path d="M 1259 4147 
L 1259 2394 
L 2053 2394 
Q 2494 2394 2734 2622 
Q 2975 2850 2975 3272 
Q 2975 3691 2734 3919 
Q 2494 4147 2053 4147 
L 1259 4147 
z
M 628 4666 
L 2053 4666 
Q 2838 4666 3239 4311 
Q 3641 3956 3641 3272 
Q 3641 2581 3239 2228 
Q 2838 1875 2053 1875 
L 1259 1875 
L 1259 0 
L 628 0 
L 628 4666 
z
" id="DejaVuSans-50" transform="scale(0.015625)"/>
       <path d="M 3116 1747 
Q 3116 2381 2855 2742 
Q 2594 3103 2138 3103 
Q 1681 3103 1420 2742 
Q 1159 2381 1159 1747 
Q 1159 1113 1420 752 
Q 1681 391 2138 391 
Q 2594 391 2855 752 
Q 3116 1113 3116 1747 
z
M 1159 2969 
Q 1341 3281 1617 3432 
Q 1894 3584 2278 3584 
Q 2916 3584 3314 3078 
Q 3713 2572 3713 1747 
Q 3713 922 3314 415 
Q 2916 -91 2278 -91 
Q 1894 -91 1617 61 
Q 1341 213 1159 525 
L 1159 0 
L 581 0 
L 581 4863 
L 1159 4863 
L 1159 2969 
z
" id="DejaVuSans-62" transform="scale(0.015625)"/>
       <path d="M 2059 -325 
Q 1816 -950 1584 -1140 
Q 1353 -1331 966 -1331 
L 506 -1331 
L 506 -850 
L 844 -850 
Q 1081 -850 1212 -737 
Q 1344 -625 1503 -206 
L 1606 56 
L 191 3500 
L 800 3500 
L 1894 763 
L 2988 3500 
L 3597 3500 
L 2059 -325 
z
" id="DejaVuSans-79" transform="scale(0.015625)"/>
       <path d="M 2834 3397 
L 2834 2853 
Q 2591 2978 2328 3040 
Q 2066 3103 1784 3103 
Q 1356 3103 1142 2972 
Q 928 2841 928 2578 
Q 928 2378 1081 2264 
Q 1234 2150 1697 2047 
L 1894 2003 
Q 2506 1872 2764 1633 
Q 3022 1394 3022 966 
Q 3022 478 2636 193 
Q 2250 -91 1575 -91 
Q 1294 -91 989 -36 
Q 684 19 347 128 
L 347 722 
Q 666 556 975 473 
Q 1284 391 1588 391 
Q 1994 391 2212 530 
Q 2431 669 2431 922 
Q 2431 1156 2273 1281 
Q 2116 1406 1581 1522 
L 1381 1569 
Q 847 1681 609 1914 
Q 372 2147 372 2553 
Q 372 3047 722 3315 
Q 1072 3584 1716 3584 
Q 2034 3584 2315 3537 
Q 2597 3491 2834 3397 
z
" id="DejaVuSans-73" transform="scale(0.015625)"/>
      </defs>
      <use xlink:href="#DejaVuSans-50"/>
      <use x="58.552734" xlink:href="#DejaVuSans-72"/>
      <use x="97.416016" xlink:href="#DejaVuSans-6f"/>
      <use x="158.597656" xlink:href="#DejaVuSans-62"/>
      <use x="222.074219" xlink:href="#DejaVuSans-61"/>
      <use x="283.353516" xlink:href="#DejaVuSans-62"/>
      <use x="346.830078" xlink:href="#DejaVuSans-69"/>
      <use x="374.613281" xlink:href="#DejaVuSans-6c"/>
      <use x="402.396484" xlink:href="#DejaVuSans-69"/>
      <use x="430.179688" xlink:href="#DejaVuSans-74"/>
      <use x="469.388672" xlink:href="#DejaVuSans-79"/>
      <use x="528.568359" xlink:href="#DejaVuSans-20"/>
      <use x="560.355469" xlink:href="#DejaVuSans-64"/>
      <use x="623.832031" xlink:href="#DejaVuSans-65"/>
      <use x="685.355469" xlink:href="#DejaVuSans-6e"/>
      <use x="748.734375" xlink:href="#DejaVuSans-73"/>
      <use x="800.833984" xlink:href="#DejaVuSans-69"/>
      <use x="828.617188" xlink:href="#DejaVuSans-74"/>
      <use x="867.826172" xlink:href="#DejaVuSans-79"/>
     </g>
    </g>
   </g>
   <g id="line2d_17">
    <path clip-path="url(#p1a4f759ccf)" d="M 60.013977 273.517231 
L 79.837728 231.808666 
L 90.237073 210.445268 
L 99.01152 192.907707 
L 106.811029 177.802505 
L 113.960578 164.432756 
L 120.460169 152.729708 
L 126.63478 142.053541 
L 132.484411 132.371482 
L 138.009063 123.641959 
L 143.208736 115.816706 
L 148.408408 108.390617 
L 153.283101 101.807909 
L 158.157794 95.607202 
L 162.707507 90.176708 
L 167.257221 85.101528 
L 171.481954 80.715621 
L 175.706688 76.6519 
L 179.606442 73.192617 
L 183.506197 70.018577 
L 187.405951 67.134299 
L 191.305705 64.543889 
L 194.88048 62.430661 
L 198.455255 60.569996 
L 202.03003 58.964122 
L 205.604804 57.614959 
L 208.8546 56.612578 
L 212.104395 55.824684 
L 215.35419 55.252057 
L 218.603985 54.895263 
L 221.853781 54.754655 
L 225.103576 54.830371 
L 228.353371 55.122337 
L 231.603166 55.630263 
L 234.852962 56.353649 
L 238.102757 57.291778 
L 241.352552 58.443723 
L 244.927327 59.956454 
L 248.502102 61.72471 
L 252.076877 63.746373 
L 255.651651 66.019027 
L 259.226426 68.539951 
L 263.12618 71.56965 
L 267.025935 74.886902 
L 270.925689 78.486983 
L 275.150423 82.700283 
L 279.375157 87.23245 
L 283.92487 92.461153 
L 288.474583 98.040743 
L 293.024297 103.960406 
L 297.89899 110.667235 
L 303.098662 118.22013 
L 308.298334 126.166105 
L 313.822986 135.01689 
L 319.672618 144.819096 
L 325.847229 155.612468 
L 332.346819 167.427766 
L 339.496369 180.907296 
L 347.295877 196.1153 
L 355.745345 213.085172 
L 365.81971 233.83651 
L 379.46885 262.514539 
L 384.668523 273.517231 
L 384.668523 273.517231 
" style="fill:none;stroke:#ff7f0e;stroke-linecap:square;stroke-width:1.5;"/>
   </g>
   <g id="patch_203">
    <path d="M 43.78125 273.517231 
L 43.78125 7.405231 
" style="fill:none;stroke:#000000;stroke-linecap:square;stroke-linejoin:miter;stroke-width:0.8;"/>
   </g>
   <g id="patch_204">
    <path d="M 400.90125 273.517231 
L 400.90125 7.405231 
" style="fill:none;stroke:#000000;stroke-linecap:square;stroke-linejoin:miter;stroke-width:0.8;"/>
   </g>
   <g id="patch_205">
    <path d="M 43.78125 273.517231 
L 400.90125 273.517231 
" style="fill:none;stroke:#000000;stroke-linecap:square;stroke-linejoin:miter;stroke-width:0.8;"/>
   </g>
   <g id="patch_206">
    <path d="M 43.78125 7.405231 
L 400.90125 7.405231 
" style="fill:none;stroke:#000000;stroke-linecap:square;stroke-linejoin:miter;stroke-width:0.8;"/>
   </g>
  </g>
 </g>
 <defs>
  <clipPath id="p1a4f759ccf">
   <rect height="266.112" width="357.12" x="43.78125" y="7.405231"/>
  </clipPath>
 </defs>
</svg>
