<?xml version="1.0" encoding="utf-8" standalone="no"?>
<!DOCTYPE svg PUBLIC "-//W3C//DTD SVG 1.1//EN"
  "http://www.w3.org/Graphics/SVG/1.1/DTD/svg11.dtd">
<svg height="310.86825pt" version="1.1" viewBox="0 0 408.10125 310.86825" width="408.10125pt" xmlns="http://www.w3.org/2000/svg" xmlns:xlink="http://www.w3.org/1999/xlink">
 <metadata>
  <rdf:RDF xmlns:cc="http://creativecommons.org/ns#" xmlns:dc="http://purl.org/dc/elements/1.1/" xmlns:rdf="http://www.w3.org/1999/02/22-rdf-syntax-ns#">
   <cc:Work>
    <dc:type rdf:resource="http://purl.org/dc/dcmitype/StillImage"/>
    <dc:date>2021-06-23T16:53:31.016822</dc:date>
    <dc:format>image/svg+xml</dc:format>
    <dc:creator>
     <cc:Agent>
      <dc:title>Matplotlib v3.4.2, https://matplotlib.org/</dc:title>
     </cc:Agent>
    </dc:creator>
   </cc:Work>
  </rdf:RDF>
 </metadata>
 <defs>
  <style type="text/css">*{stroke-linecap:butt;stroke-linejoin:round;}</style>
 </defs>
 <g id="figure_1">
  <g id="patch_1">
   <path d="M 0 310.86825 
L 408.10125 310.86825 
L 408.10125 0 
L 0 0 
z
" style="fill:#ffffff;"/>
  </g>
  <g id="axes_1">
   <g id="patch_2">
    <path d="M 43.78125 273.312 
L 400.90125 273.312 
L 400.90125 7.2 
L 43.78125 7.2 
z
" style="fill:#ffffff;"/>
   </g>
   <g id="patch_3">
    <path clip-path="url(#pf64cd57e02)" d="M 61.504587 273.312 
L 63.120387 273.312 
L 63.120387 270.959889 
L 61.504587 270.959889 
z
" style="fill:#1f77b4;"/>
   </g>
   <g id="patch_4">
    <path clip-path="url(#pf64cd57e02)" d="M 63.120387 273.312 
L 64.736188 273.312 
L 64.736188 271.547916 
L 63.120387 271.547916 
z
" style="fill:#1f77b4;"/>
   </g>
   <g id="patch_5">
    <path clip-path="url(#pf64cd57e02)" d="M 64.736188 273.312 
L 66.351988 273.312 
L 66.351988 268.607777 
L 64.736188 268.607777 
z
" style="fill:#1f77b4;"/>
   </g>
   <g id="patch_6">
    <path clip-path="url(#pf64cd57e02)" d="M 66.351988 273.312 
L 67.967789 273.312 
L 67.967789 267.431722 
L 66.351988 267.431722 
z
" style="fill:#1f77b4;"/>
   </g>
   <g id="patch_7">
    <path clip-path="url(#pf64cd57e02)" d="M 67.967789 273.312 
L 69.583589 273.312 
L 69.583589 269.783833 
L 67.967789 269.783833 
z
" style="fill:#1f77b4;"/>
   </g>
   <g id="patch_8">
    <path clip-path="url(#pf64cd57e02)" d="M 69.583589 273.312 
L 71.19939 273.312 
L 71.19939 266.255666 
L 69.583589 266.255666 
z
" style="fill:#1f77b4;"/>
   </g>
   <g id="patch_9">
    <path clip-path="url(#pf64cd57e02)" d="M 71.19939 273.312 
L 72.81519 273.312 
L 72.81519 263.315527 
L 71.19939 263.315527 
z
" style="fill:#1f77b4;"/>
   </g>
   <g id="patch_10">
    <path clip-path="url(#pf64cd57e02)" d="M 72.81519 273.312 
L 74.430991 273.312 
L 74.430991 263.315527 
L 72.81519 263.315527 
z
" style="fill:#1f77b4;"/>
   </g>
   <g id="patch_11">
    <path clip-path="url(#pf64cd57e02)" d="M 74.430991 273.312 
L 76.046791 273.312 
L 76.046791 264.491582 
L 74.430991 264.491582 
z
" style="fill:#1f77b4;"/>
   </g>
   <g id="patch_12">
    <path clip-path="url(#pf64cd57e02)" d="M 76.046791 273.312 
L 77.662592 273.312 
L 77.662592 262.727499 
L 76.046791 262.727499 
z
" style="fill:#1f77b4;"/>
   </g>
   <g id="patch_13">
    <path clip-path="url(#pf64cd57e02)" d="M 77.662592 273.312 
L 79.278392 273.312 
L 79.278392 256.259193 
L 77.662592 256.259193 
z
" style="fill:#1f77b4;"/>
   </g>
   <g id="patch_14">
    <path clip-path="url(#pf64cd57e02)" d="M 79.278392 273.312 
L 80.894193 273.312 
L 80.894193 259.78736 
L 79.278392 259.78736 
z
" style="fill:#1f77b4;"/>
   </g>
   <g id="patch_15">
    <path clip-path="url(#pf64cd57e02)" d="M 80.894193 273.312 
L 82.509993 273.312 
L 82.509993 258.611304 
L 80.894193 258.611304 
z
" style="fill:#1f77b4;"/>
   </g>
   <g id="patch_16">
    <path clip-path="url(#pf64cd57e02)" d="M 82.509993 273.312 
L 84.125794 273.312 
L 84.125794 256.259193 
L 82.509993 256.259193 
z
" style="fill:#1f77b4;"/>
   </g>
   <g id="patch_17">
    <path clip-path="url(#pf64cd57e02)" d="M 84.125794 273.312 
L 85.741594 273.312 
L 85.741594 257.435248 
L 84.125794 257.435248 
z
" style="fill:#1f77b4;"/>
   </g>
   <g id="patch_18">
    <path clip-path="url(#pf64cd57e02)" d="M 85.741594 273.312 
L 87.357395 273.312 
L 87.357395 252.731026 
L 85.741594 252.731026 
z
" style="fill:#1f77b4;"/>
   </g>
   <g id="patch_19">
    <path clip-path="url(#pf64cd57e02)" d="M 87.357395 273.312 
L 88.973195 273.312 
L 88.973195 255.083137 
L 87.357395 255.083137 
z
" style="fill:#1f77b4;"/>
   </g>
   <g id="patch_20">
    <path clip-path="url(#pf64cd57e02)" d="M 88.973195 273.312 
L 90.588996 273.312 
L 90.588996 248.026803 
L 88.973195 248.026803 
z
" style="fill:#1f77b4;"/>
   </g>
   <g id="patch_21">
    <path clip-path="url(#pf64cd57e02)" d="M 90.588996 273.312 
L 92.204796 273.312 
L 92.204796 253.319053 
L 90.588996 253.319053 
z
" style="fill:#1f77b4;"/>
   </g>
   <g id="patch_22">
    <path clip-path="url(#pf64cd57e02)" d="M 92.204796 273.312 
L 93.820597 273.312 
L 93.820597 254.495109 
L 92.204796 254.495109 
z
" style="fill:#1f77b4;"/>
   </g>
   <g id="patch_23">
    <path clip-path="url(#pf64cd57e02)" d="M 93.820597 273.312 
L 95.436397 273.312 
L 95.436397 243.910608 
L 93.820597 243.910608 
z
" style="fill:#1f77b4;"/>
   </g>
   <g id="patch_24">
    <path clip-path="url(#pf64cd57e02)" d="M 95.436397 273.312 
L 97.052198 273.312 
L 97.052198 244.498636 
L 95.436397 244.498636 
z
" style="fill:#1f77b4;"/>
   </g>
   <g id="patch_25">
    <path clip-path="url(#pf64cd57e02)" d="M 97.052198 273.312 
L 98.667998 273.312 
L 98.667998 244.498636 
L 97.052198 244.498636 
z
" style="fill:#1f77b4;"/>
   </g>
   <g id="patch_26">
    <path clip-path="url(#pf64cd57e02)" d="M 98.667998 273.312 
L 100.283799 273.312 
L 100.283799 236.854274 
L 98.667998 236.854274 
z
" style="fill:#1f77b4;"/>
   </g>
   <g id="patch_27">
    <path clip-path="url(#pf64cd57e02)" d="M 100.283799 273.312 
L 101.899599 273.312 
L 101.899599 247.438775 
L 100.283799 247.438775 
z
" style="fill:#1f77b4;"/>
   </g>
   <g id="patch_28">
    <path clip-path="url(#pf64cd57e02)" d="M 101.899599 273.312 
L 103.5154 273.312 
L 103.5154 243.32258 
L 101.899599 243.32258 
z
" style="fill:#1f77b4;"/>
   </g>
   <g id="patch_29">
    <path clip-path="url(#pf64cd57e02)" d="M 103.5154 273.312 
L 105.1312 273.312 
L 105.1312 236.266246 
L 103.5154 236.266246 
z
" style="fill:#1f77b4;"/>
   </g>
   <g id="patch_30">
    <path clip-path="url(#pf64cd57e02)" d="M 105.1312 273.312 
L 106.747001 273.312 
L 106.747001 236.266246 
L 105.1312 236.266246 
z
" style="fill:#1f77b4;"/>
   </g>
   <g id="patch_31">
    <path clip-path="url(#pf64cd57e02)" d="M 106.747001 273.312 
L 108.362802 273.312 
L 108.362802 231.562023 
L 106.747001 231.562023 
z
" style="fill:#1f77b4;"/>
   </g>
   <g id="patch_32">
    <path clip-path="url(#pf64cd57e02)" d="M 108.362802 273.312 
L 109.978602 273.312 
L 109.978602 235.09019 
L 108.362802 235.09019 
z
" style="fill:#1f77b4;"/>
   </g>
   <g id="patch_33">
    <path clip-path="url(#pf64cd57e02)" d="M 109.978602 273.312 
L 111.594403 273.312 
L 111.594403 228.033856 
L 109.978602 228.033856 
z
" style="fill:#1f77b4;"/>
   </g>
   <g id="patch_34">
    <path clip-path="url(#pf64cd57e02)" d="M 111.594403 273.312 
L 113.210203 273.312 
L 113.210203 230.385968 
L 111.594403 230.385968 
z
" style="fill:#1f77b4;"/>
   </g>
   <g id="patch_35">
    <path clip-path="url(#pf64cd57e02)" d="M 113.210203 273.312 
L 114.826004 273.312 
L 114.826004 228.033856 
L 113.210203 228.033856 
z
" style="fill:#1f77b4;"/>
   </g>
   <g id="patch_36">
    <path clip-path="url(#pf64cd57e02)" d="M 114.826004 273.312 
L 116.441804 273.312 
L 116.441804 236.854274 
L 114.826004 236.854274 
z
" style="fill:#1f77b4;"/>
   </g>
   <g id="patch_37">
    <path clip-path="url(#pf64cd57e02)" d="M 116.441804 273.312 
L 118.057605 273.312 
L 118.057605 232.738079 
L 116.441804 232.738079 
z
" style="fill:#1f77b4;"/>
   </g>
   <g id="patch_38">
    <path clip-path="url(#pf64cd57e02)" d="M 118.057605 273.312 
L 119.673405 273.312 
L 119.673405 229.79794 
L 118.057605 229.79794 
z
" style="fill:#1f77b4;"/>
   </g>
   <g id="patch_39">
    <path clip-path="url(#pf64cd57e02)" d="M 119.673405 273.312 
L 121.289206 273.312 
L 121.289206 217.449355 
L 119.673405 217.449355 
z
" style="fill:#1f77b4;"/>
   </g>
   <g id="patch_40">
    <path clip-path="url(#pf64cd57e02)" d="M 121.289206 273.312 
L 122.905006 273.312 
L 122.905006 224.505689 
L 121.289206 224.505689 
z
" style="fill:#1f77b4;"/>
   </g>
   <g id="patch_41">
    <path clip-path="url(#pf64cd57e02)" d="M 122.905006 273.312 
L 124.520807 273.312 
L 124.520807 227.445828 
L 122.905006 227.445828 
z
" style="fill:#1f77b4;"/>
   </g>
   <g id="patch_42">
    <path clip-path="url(#pf64cd57e02)" d="M 124.520807 273.312 
L 126.136607 273.312 
L 126.136607 231.562023 
L 124.520807 231.562023 
z
" style="fill:#1f77b4;"/>
   </g>
   <g id="patch_43">
    <path clip-path="url(#pf64cd57e02)" d="M 126.136607 273.312 
L 127.752408 273.312 
L 127.752408 220.977522 
L 126.136607 220.977522 
z
" style="fill:#1f77b4;"/>
   </g>
   <g id="patch_44">
    <path clip-path="url(#pf64cd57e02)" d="M 127.752408 273.312 
L 129.368208 273.312 
L 129.368208 219.801466 
L 127.752408 219.801466 
z
" style="fill:#1f77b4;"/>
   </g>
   <g id="patch_45">
    <path clip-path="url(#pf64cd57e02)" d="M 129.368208 273.312 
L 130.984009 273.312 
L 130.984009 219.801466 
L 129.368208 219.801466 
z
" style="fill:#1f77b4;"/>
   </g>
   <g id="patch_46">
    <path clip-path="url(#pf64cd57e02)" d="M 130.984009 273.312 
L 132.599809 273.312 
L 132.599809 206.864854 
L 130.984009 206.864854 
z
" style="fill:#1f77b4;"/>
   </g>
   <g id="patch_47">
    <path clip-path="url(#pf64cd57e02)" d="M 132.599809 273.312 
L 134.21561 273.312 
L 134.21561 220.389494 
L 132.599809 220.389494 
z
" style="fill:#1f77b4;"/>
   </g>
   <g id="patch_48">
    <path clip-path="url(#pf64cd57e02)" d="M 134.21561 273.312 
L 135.83141 273.312 
L 135.83141 213.921188 
L 134.21561 213.921188 
z
" style="fill:#1f77b4;"/>
   </g>
   <g id="patch_49">
    <path clip-path="url(#pf64cd57e02)" d="M 135.83141 273.312 
L 137.447211 273.312 
L 137.447211 215.685271 
L 135.83141 215.685271 
z
" style="fill:#1f77b4;"/>
   </g>
   <g id="patch_50">
    <path clip-path="url(#pf64cd57e02)" d="M 137.447211 273.312 
L 139.063011 273.312 
L 139.063011 209.804993 
L 137.447211 209.804993 
z
" style="fill:#1f77b4;"/>
   </g>
   <g id="patch_51">
    <path clip-path="url(#pf64cd57e02)" d="M 139.063011 273.312 
L 140.678812 273.312 
L 140.678812 214.509216 
L 139.063011 214.509216 
z
" style="fill:#1f77b4;"/>
   </g>
   <g id="patch_52">
    <path clip-path="url(#pf64cd57e02)" d="M 140.678812 273.312 
L 142.294612 273.312 
L 142.294612 212.157104 
L 140.678812 212.157104 
z
" style="fill:#1f77b4;"/>
   </g>
   <g id="patch_53">
    <path clip-path="url(#pf64cd57e02)" d="M 142.294612 273.312 
L 143.910413 273.312 
L 143.910413 210.393021 
L 142.294612 210.393021 
z
" style="fill:#1f77b4;"/>
   </g>
   <g id="patch_54">
    <path clip-path="url(#pf64cd57e02)" d="M 143.910413 273.312 
L 145.526213 273.312 
L 145.526213 217.449355 
L 143.910413 217.449355 
z
" style="fill:#1f77b4;"/>
   </g>
   <g id="patch_55">
    <path clip-path="url(#pf64cd57e02)" d="M 145.526213 273.312 
L 147.142014 273.312 
L 147.142014 209.216965 
L 145.526213 209.216965 
z
" style="fill:#1f77b4;"/>
   </g>
   <g id="patch_56">
    <path clip-path="url(#pf64cd57e02)" d="M 147.142014 273.312 
L 148.757814 273.312 
L 148.757814 217.449355 
L 147.142014 217.449355 
z
" style="fill:#1f77b4;"/>
   </g>
   <g id="patch_57">
    <path clip-path="url(#pf64cd57e02)" d="M 148.757814 273.312 
L 150.373615 273.312 
L 150.373615 201.572603 
L 148.757814 201.572603 
z
" style="fill:#1f77b4;"/>
   </g>
   <g id="patch_58">
    <path clip-path="url(#pf64cd57e02)" d="M 150.373615 273.312 
L 151.989415 273.312 
L 151.989415 215.097244 
L 150.373615 215.097244 
z
" style="fill:#1f77b4;"/>
   </g>
   <g id="patch_59">
    <path clip-path="url(#pf64cd57e02)" d="M 151.989415 273.312 
L 153.605216 273.312 
L 153.605216 214.509216 
L 151.989415 214.509216 
z
" style="fill:#1f77b4;"/>
   </g>
   <g id="patch_60">
    <path clip-path="url(#pf64cd57e02)" d="M 153.605216 273.312 
L 155.221017 273.312 
L 155.221017 207.452882 
L 153.605216 207.452882 
z
" style="fill:#1f77b4;"/>
   </g>
   <g id="patch_61">
    <path clip-path="url(#pf64cd57e02)" d="M 155.221017 273.312 
L 156.836817 273.312 
L 156.836817 206.276826 
L 155.221017 206.276826 
z
" style="fill:#1f77b4;"/>
   </g>
   <g id="patch_62">
    <path clip-path="url(#pf64cd57e02)" d="M 156.836817 273.312 
L 158.452618 273.312 
L 158.452618 208.628937 
L 156.836817 208.628937 
z
" style="fill:#1f77b4;"/>
   </g>
   <g id="patch_63">
    <path clip-path="url(#pf64cd57e02)" d="M 158.452618 273.312 
L 160.068418 273.312 
L 160.068418 205.10077 
L 158.452618 205.10077 
z
" style="fill:#1f77b4;"/>
   </g>
   <g id="patch_64">
    <path clip-path="url(#pf64cd57e02)" d="M 160.068418 273.312 
L 161.684219 273.312 
L 161.684219 194.516269 
L 160.068418 194.516269 
z
" style="fill:#1f77b4;"/>
   </g>
   <g id="patch_65">
    <path clip-path="url(#pf64cd57e02)" d="M 161.684219 273.312 
L 163.300019 273.312 
L 163.300019 216.273299 
L 161.684219 216.273299 
z
" style="fill:#1f77b4;"/>
   </g>
   <g id="patch_66">
    <path clip-path="url(#pf64cd57e02)" d="M 163.300019 273.312 
L 164.91582 273.312 
L 164.91582 202.748659 
L 163.300019 202.748659 
z
" style="fill:#1f77b4;"/>
   </g>
   <g id="patch_67">
    <path clip-path="url(#pf64cd57e02)" d="M 164.91582 273.312 
L 166.53162 273.312 
L 166.53162 194.516269 
L 164.91582 194.516269 
z
" style="fill:#1f77b4;"/>
   </g>
   <g id="patch_68">
    <path clip-path="url(#pf64cd57e02)" d="M 166.53162 273.312 
L 168.147421 273.312 
L 168.147421 200.984575 
L 166.53162 200.984575 
z
" style="fill:#1f77b4;"/>
   </g>
   <g id="patch_69">
    <path clip-path="url(#pf64cd57e02)" d="M 168.147421 273.312 
L 169.763221 273.312 
L 169.763221 198.632464 
L 168.147421 198.632464 
z
" style="fill:#1f77b4;"/>
   </g>
   <g id="patch_70">
    <path clip-path="url(#pf64cd57e02)" d="M 169.763221 273.312 
L 171.379022 273.312 
L 171.379022 201.572603 
L 169.763221 201.572603 
z
" style="fill:#1f77b4;"/>
   </g>
   <g id="patch_71">
    <path clip-path="url(#pf64cd57e02)" d="M 171.379022 273.312 
L 172.994822 273.312 
L 172.994822 185.107824 
L 171.379022 185.107824 
z
" style="fill:#1f77b4;"/>
   </g>
   <g id="patch_72">
    <path clip-path="url(#pf64cd57e02)" d="M 172.994822 273.312 
L 174.610623 273.312 
L 174.610623 182.755712 
L 172.994822 182.755712 
z
" style="fill:#1f77b4;"/>
   </g>
   <g id="patch_73">
    <path clip-path="url(#pf64cd57e02)" d="M 174.610623 273.312 
L 176.226423 273.312 
L 176.226423 182.755712 
L 174.610623 182.755712 
z
" style="fill:#1f77b4;"/>
   </g>
   <g id="patch_74">
    <path clip-path="url(#pf64cd57e02)" d="M 176.226423 273.312 
L 177.842224 273.312 
L 177.842224 191.57613 
L 176.226423 191.57613 
z
" style="fill:#1f77b4;"/>
   </g>
   <g id="patch_75">
    <path clip-path="url(#pf64cd57e02)" d="M 177.842224 273.312 
L 179.458024 273.312 
L 179.458024 188.047963 
L 177.842224 188.047963 
z
" style="fill:#1f77b4;"/>
   </g>
   <g id="patch_76">
    <path clip-path="url(#pf64cd57e02)" d="M 179.458024 273.312 
L 181.073825 273.312 
L 181.073825 179.815573 
L 179.458024 179.815573 
z
" style="fill:#1f77b4;"/>
   </g>
   <g id="patch_77">
    <path clip-path="url(#pf64cd57e02)" d="M 181.073825 273.312 
L 182.689625 273.312 
L 182.689625 185.695852 
L 181.073825 185.695852 
z
" style="fill:#1f77b4;"/>
   </g>
   <g id="patch_78">
    <path clip-path="url(#pf64cd57e02)" d="M 182.689625 273.312 
L 184.305426 273.312 
L 184.305426 189.812046 
L 182.689625 189.812046 
z
" style="fill:#1f77b4;"/>
   </g>
   <g id="patch_79">
    <path clip-path="url(#pf64cd57e02)" d="M 184.305426 273.312 
L 185.921226 273.312 
L 185.921226 183.34374 
L 184.305426 183.34374 
z
" style="fill:#1f77b4;"/>
   </g>
   <g id="patch_80">
    <path clip-path="url(#pf64cd57e02)" d="M 185.921226 273.312 
L 187.537027 273.312 
L 187.537027 185.695852 
L 185.921226 185.695852 
z
" style="fill:#1f77b4;"/>
   </g>
   <g id="patch_81">
    <path clip-path="url(#pf64cd57e02)" d="M 187.537027 273.312 
L 189.152827 273.312 
L 189.152827 177.463462 
L 187.537027 177.463462 
z
" style="fill:#1f77b4;"/>
   </g>
   <g id="patch_82">
    <path clip-path="url(#pf64cd57e02)" d="M 189.152827 273.312 
L 190.768628 273.312 
L 190.768628 190.988102 
L 189.152827 190.988102 
z
" style="fill:#1f77b4;"/>
   </g>
   <g id="patch_83">
    <path clip-path="url(#pf64cd57e02)" d="M 190.768628 273.312 
L 192.384428 273.312 
L 192.384428 187.459935 
L 190.768628 187.459935 
z
" style="fill:#1f77b4;"/>
   </g>
   <g id="patch_84">
    <path clip-path="url(#pf64cd57e02)" d="M 192.384428 273.312 
L 194.000229 273.312 
L 194.000229 183.34374 
L 192.384428 183.34374 
z
" style="fill:#1f77b4;"/>
   </g>
   <g id="patch_85">
    <path clip-path="url(#pf64cd57e02)" d="M 194.000229 273.312 
L 195.616029 273.312 
L 195.616029 179.227545 
L 194.000229 179.227545 
z
" style="fill:#1f77b4;"/>
   </g>
   <g id="patch_86">
    <path clip-path="url(#pf64cd57e02)" d="M 195.616029 273.312 
L 197.23183 273.312 
L 197.23183 174.523323 
L 195.616029 174.523323 
z
" style="fill:#1f77b4;"/>
   </g>
   <g id="patch_87">
    <path clip-path="url(#pf64cd57e02)" d="M 197.23183 273.312 
L 198.84763 273.312 
L 198.84763 182.167684 
L 197.23183 182.167684 
z
" style="fill:#1f77b4;"/>
   </g>
   <g id="patch_88">
    <path clip-path="url(#pf64cd57e02)" d="M 198.84763 273.312 
L 200.463431 273.312 
L 200.463431 159.234599 
L 198.84763 159.234599 
z
" style="fill:#1f77b4;"/>
   </g>
   <g id="patch_89">
    <path clip-path="url(#pf64cd57e02)" d="M 200.463431 273.312 
L 202.079232 273.312 
L 202.079232 168.643044 
L 200.463431 168.643044 
z
" style="fill:#1f77b4;"/>
   </g>
   <g id="patch_90">
    <path clip-path="url(#pf64cd57e02)" d="M 202.079232 273.312 
L 203.695032 273.312 
L 203.695032 162.174738 
L 202.079232 162.174738 
z
" style="fill:#1f77b4;"/>
   </g>
   <g id="patch_91">
    <path clip-path="url(#pf64cd57e02)" d="M 203.695032 273.312 
L 205.310833 273.312 
L 205.310833 169.8191 
L 203.695032 169.8191 
z
" style="fill:#1f77b4;"/>
   </g>
   <g id="patch_92">
    <path clip-path="url(#pf64cd57e02)" d="M 205.310833 273.312 
L 206.926633 273.312 
L 206.926633 173.935295 
L 205.310833 173.935295 
z
" style="fill:#1f77b4;"/>
   </g>
   <g id="patch_93">
    <path clip-path="url(#pf64cd57e02)" d="M 206.926633 273.312 
L 208.542434 273.312 
L 208.542434 172.759239 
L 206.926633 172.759239 
z
" style="fill:#1f77b4;"/>
   </g>
   <g id="patch_94">
    <path clip-path="url(#pf64cd57e02)" d="M 208.542434 273.312 
L 210.158234 273.312 
L 210.158234 160.998682 
L 208.542434 160.998682 
z
" style="fill:#1f77b4;"/>
   </g>
   <g id="patch_95">
    <path clip-path="url(#pf64cd57e02)" d="M 210.158234 273.312 
L 211.774035 273.312 
L 211.774035 156.882487 
L 210.158234 156.882487 
z
" style="fill:#1f77b4;"/>
   </g>
   <g id="patch_96">
    <path clip-path="url(#pf64cd57e02)" d="M 211.774035 273.312 
L 213.389835 273.312 
L 213.389835 162.762766 
L 211.774035 162.762766 
z
" style="fill:#1f77b4;"/>
   </g>
   <g id="patch_97">
    <path clip-path="url(#pf64cd57e02)" d="M 213.389835 273.312 
L 215.005636 273.312 
L 215.005636 159.234599 
L 213.389835 159.234599 
z
" style="fill:#1f77b4;"/>
   </g>
   <g id="patch_98">
    <path clip-path="url(#pf64cd57e02)" d="M 215.005636 273.312 
L 216.621436 273.312 
L 216.621436 171.583183 
L 215.005636 171.583183 
z
" style="fill:#1f77b4;"/>
   </g>
   <g id="patch_99">
    <path clip-path="url(#pf64cd57e02)" d="M 216.621436 273.312 
L 218.237237 273.312 
L 218.237237 159.822626 
L 216.621436 159.822626 
z
" style="fill:#1f77b4;"/>
   </g>
   <g id="patch_100">
    <path clip-path="url(#pf64cd57e02)" d="M 218.237237 273.312 
L 219.853037 273.312 
L 219.853037 168.643044 
L 218.237237 168.643044 
z
" style="fill:#1f77b4;"/>
   </g>
   <g id="patch_101">
    <path clip-path="url(#pf64cd57e02)" d="M 219.853037 273.312 
L 221.468838 273.312 
L 221.468838 151.590237 
L 219.853037 151.590237 
z
" style="fill:#1f77b4;"/>
   </g>
   <g id="patch_102">
    <path clip-path="url(#pf64cd57e02)" d="M 221.468838 273.312 
L 223.084638 273.312 
L 223.084638 157.470515 
L 221.468838 157.470515 
z
" style="fill:#1f77b4;"/>
   </g>
   <g id="patch_103">
    <path clip-path="url(#pf64cd57e02)" d="M 223.084638 273.312 
L 224.700439 273.312 
L 224.700439 158.058543 
L 223.084638 158.058543 
z
" style="fill:#1f77b4;"/>
   </g>
   <g id="patch_104">
    <path clip-path="url(#pf64cd57e02)" d="M 224.700439 273.312 
L 226.316239 273.312 
L 226.316239 156.882487 
L 224.700439 156.882487 
z
" style="fill:#1f77b4;"/>
   </g>
   <g id="patch_105">
    <path clip-path="url(#pf64cd57e02)" d="M 226.316239 273.312 
L 227.93204 273.312 
L 227.93204 159.822626 
L 226.316239 159.822626 
z
" style="fill:#1f77b4;"/>
   </g>
   <g id="patch_106">
    <path clip-path="url(#pf64cd57e02)" d="M 227.93204 273.312 
L 229.54784 273.312 
L 229.54784 145.12193 
L 227.93204 145.12193 
z
" style="fill:#1f77b4;"/>
   </g>
   <g id="patch_107">
    <path clip-path="url(#pf64cd57e02)" d="M 229.54784 273.312 
L 231.163641 273.312 
L 231.163641 142.181791 
L 229.54784 142.181791 
z
" style="fill:#1f77b4;"/>
   </g>
   <g id="patch_108">
    <path clip-path="url(#pf64cd57e02)" d="M 231.163641 273.312 
L 232.779441 273.312 
L 232.779441 133.949401 
L 231.163641 133.949401 
z
" style="fill:#1f77b4;"/>
   </g>
   <g id="patch_109">
    <path clip-path="url(#pf64cd57e02)" d="M 232.779441 273.312 
L 234.395242 273.312 
L 234.395242 146.886014 
L 232.779441 146.886014 
z
" style="fill:#1f77b4;"/>
   </g>
   <g id="patch_110">
    <path clip-path="url(#pf64cd57e02)" d="M 234.395242 273.312 
L 236.011042 273.312 
L 236.011042 139.82968 
L 234.395242 139.82968 
z
" style="fill:#1f77b4;"/>
   </g>
   <g id="patch_111">
    <path clip-path="url(#pf64cd57e02)" d="M 236.011042 273.312 
L 237.626843 273.312 
L 237.626843 162.762766 
L 236.011042 162.762766 
z
" style="fill:#1f77b4;"/>
   </g>
   <g id="patch_112">
    <path clip-path="url(#pf64cd57e02)" d="M 237.626843 273.312 
L 239.242643 273.312 
L 239.242643 142.181791 
L 237.626843 142.181791 
z
" style="fill:#1f77b4;"/>
   </g>
   <g id="patch_113">
    <path clip-path="url(#pf64cd57e02)" d="M 239.242643 273.312 
L 240.858444 273.312 
L 240.858444 160.410654 
L 239.242643 160.410654 
z
" style="fill:#1f77b4;"/>
   </g>
   <g id="patch_114">
    <path clip-path="url(#pf64cd57e02)" d="M 240.858444 273.312 
L 242.474244 273.312 
L 242.474244 134.537429 
L 240.858444 134.537429 
z
" style="fill:#1f77b4;"/>
   </g>
   <g id="patch_115">
    <path clip-path="url(#pf64cd57e02)" d="M 242.474244 273.312 
L 244.090045 273.312 
L 244.090045 152.178265 
L 242.474244 152.178265 
z
" style="fill:#1f77b4;"/>
   </g>
   <g id="patch_116">
    <path clip-path="url(#pf64cd57e02)" d="M 244.090045 273.312 
L 245.705845 273.312 
L 245.705845 142.769819 
L 244.090045 142.769819 
z
" style="fill:#1f77b4;"/>
   </g>
   <g id="patch_117">
    <path clip-path="url(#pf64cd57e02)" d="M 245.705845 273.312 
L 247.321646 273.312 
L 247.321646 141.593763 
L 245.705845 141.593763 
z
" style="fill:#1f77b4;"/>
   </g>
   <g id="patch_118">
    <path clip-path="url(#pf64cd57e02)" d="M 247.321646 273.312 
L 248.937447 273.312 
L 248.937447 135.713485 
L 247.321646 135.713485 
z
" style="fill:#1f77b4;"/>
   </g>
   <g id="patch_119">
    <path clip-path="url(#pf64cd57e02)" d="M 248.937447 273.312 
L 250.553247 273.312 
L 250.553247 145.709958 
L 248.937447 145.709958 
z
" style="fill:#1f77b4;"/>
   </g>
   <g id="patch_120">
    <path clip-path="url(#pf64cd57e02)" d="M 250.553247 273.312 
L 252.169048 273.312 
L 252.169048 145.12193 
L 250.553247 145.12193 
z
" style="fill:#1f77b4;"/>
   </g>
   <g id="patch_121">
    <path clip-path="url(#pf64cd57e02)" d="M 252.169048 273.312 
L 253.784848 273.312 
L 253.784848 149.238125 
L 252.169048 149.238125 
z
" style="fill:#1f77b4;"/>
   </g>
   <g id="patch_122">
    <path clip-path="url(#pf64cd57e02)" d="M 253.784848 273.312 
L 255.400649 273.312 
L 255.400649 108.664204 
L 253.784848 108.664204 
z
" style="fill:#1f77b4;"/>
   </g>
   <g id="patch_123">
    <path clip-path="url(#pf64cd57e02)" d="M 255.400649 273.312 
L 257.016449 273.312 
L 257.016449 125.128984 
L 255.400649 125.128984 
z
" style="fill:#1f77b4;"/>
   </g>
   <g id="patch_124">
    <path clip-path="url(#pf64cd57e02)" d="M 257.016449 273.312 
L 258.63225 273.312 
L 258.63225 137.477568 
L 257.016449 137.477568 
z
" style="fill:#1f77b4;"/>
   </g>
   <g id="patch_125">
    <path clip-path="url(#pf64cd57e02)" d="M 258.63225 273.312 
L 260.24805 273.312 
L 260.24805 131.009262 
L 258.63225 131.009262 
z
" style="fill:#1f77b4;"/>
   </g>
   <g id="patch_126">
    <path clip-path="url(#pf64cd57e02)" d="M 260.24805 273.312 
L 261.863851 273.312 
L 261.863851 133.949401 
L 260.24805 133.949401 
z
" style="fill:#1f77b4;"/>
   </g>
   <g id="patch_127">
    <path clip-path="url(#pf64cd57e02)" d="M 261.863851 273.312 
L 263.479651 273.312 
L 263.479651 115.720538 
L 261.863851 115.720538 
z
" style="fill:#1f77b4;"/>
   </g>
   <g id="patch_128">
    <path clip-path="url(#pf64cd57e02)" d="M 263.479651 273.312 
L 265.095452 273.312 
L 265.095452 111.016316 
L 263.479651 111.016316 
z
" style="fill:#1f77b4;"/>
   </g>
   <g id="patch_129">
    <path clip-path="url(#pf64cd57e02)" d="M 265.095452 273.312 
L 266.711252 273.312 
L 266.711252 111.604343 
L 265.095452 111.604343 
z
" style="fill:#1f77b4;"/>
   </g>
   <g id="patch_130">
    <path clip-path="url(#pf64cd57e02)" d="M 266.711252 273.312 
L 268.327053 273.312 
L 268.327053 124.540956 
L 266.711252 124.540956 
z
" style="fill:#1f77b4;"/>
   </g>
   <g id="patch_131">
    <path clip-path="url(#pf64cd57e02)" d="M 268.327053 273.312 
L 269.942853 273.312 
L 269.942853 127.481095 
L 268.327053 127.481095 
z
" style="fill:#1f77b4;"/>
   </g>
   <g id="patch_132">
    <path clip-path="url(#pf64cd57e02)" d="M 269.942853 273.312 
L 271.558654 273.312 
L 271.558654 118.660677 
L 269.942853 118.660677 
z
" style="fill:#1f77b4;"/>
   </g>
   <g id="patch_133">
    <path clip-path="url(#pf64cd57e02)" d="M 271.558654 273.312 
L 273.174454 273.312 
L 273.174454 119.248705 
L 271.558654 119.248705 
z
" style="fill:#1f77b4;"/>
   </g>
   <g id="patch_134">
    <path clip-path="url(#pf64cd57e02)" d="M 273.174454 273.312 
L 274.790255 273.312 
L 274.790255 108.076176 
L 273.174454 108.076176 
z
" style="fill:#1f77b4;"/>
   </g>
   <g id="patch_135">
    <path clip-path="url(#pf64cd57e02)" d="M 274.790255 273.312 
L 276.406055 273.312 
L 276.406055 131.009262 
L 274.790255 131.009262 
z
" style="fill:#1f77b4;"/>
   </g>
   <g id="patch_136">
    <path clip-path="url(#pf64cd57e02)" d="M 276.406055 273.312 
L 278.021856 273.312 
L 278.021856 119.248705 
L 276.406055 119.248705 
z
" style="fill:#1f77b4;"/>
   </g>
   <g id="patch_137">
    <path clip-path="url(#pf64cd57e02)" d="M 278.021856 273.312 
L 279.637656 273.312 
L 279.637656 122.776872 
L 278.021856 122.776872 
z
" style="fill:#1f77b4;"/>
   </g>
   <g id="patch_138">
    <path clip-path="url(#pf64cd57e02)" d="M 279.637656 273.312 
L 281.253457 273.312 
L 281.253457 122.776872 
L 279.637656 122.776872 
z
" style="fill:#1f77b4;"/>
   </g>
   <g id="patch_139">
    <path clip-path="url(#pf64cd57e02)" d="M 281.253457 273.312 
L 282.869257 273.312 
L 282.869257 97.491675 
L 281.253457 97.491675 
z
" style="fill:#1f77b4;"/>
   </g>
   <g id="patch_140">
    <path clip-path="url(#pf64cd57e02)" d="M 282.869257 273.312 
L 284.485058 273.312 
L 284.485058 115.13251 
L 282.869257 115.13251 
z
" style="fill:#1f77b4;"/>
   </g>
   <g id="patch_141">
    <path clip-path="url(#pf64cd57e02)" d="M 284.485058 273.312 
L 286.100858 273.312 
L 286.100858 115.13251 
L 284.485058 115.13251 
z
" style="fill:#1f77b4;"/>
   </g>
   <g id="patch_142">
    <path clip-path="url(#pf64cd57e02)" d="M 286.100858 273.312 
L 287.716659 273.312 
L 287.716659 103.959981 
L 286.100858 103.959981 
z
" style="fill:#1f77b4;"/>
   </g>
   <g id="patch_143">
    <path clip-path="url(#pf64cd57e02)" d="M 287.716659 273.312 
L 289.332459 273.312 
L 289.332459 108.076176 
L 287.716659 108.076176 
z
" style="fill:#1f77b4;"/>
   </g>
   <g id="patch_144">
    <path clip-path="url(#pf64cd57e02)" d="M 289.332459 273.312 
L 290.94826 273.312 
L 290.94826 113.368427 
L 289.332459 113.368427 
z
" style="fill:#1f77b4;"/>
   </g>
   <g id="patch_145">
    <path clip-path="url(#pf64cd57e02)" d="M 290.94826 273.312 
L 292.56406 273.312 
L 292.56406 115.13251 
L 290.94826 115.13251 
z
" style="fill:#1f77b4;"/>
   </g>
   <g id="patch_146">
    <path clip-path="url(#pf64cd57e02)" d="M 292.56406 273.312 
L 294.179861 273.312 
L 294.179861 92.199425 
L 292.56406 92.199425 
z
" style="fill:#1f77b4;"/>
   </g>
   <g id="patch_147">
    <path clip-path="url(#pf64cd57e02)" d="M 294.179861 273.312 
L 295.795662 273.312 
L 295.795662 117.484622 
L 294.179861 117.484622 
z
" style="fill:#1f77b4;"/>
   </g>
   <g id="patch_148">
    <path clip-path="url(#pf64cd57e02)" d="M 295.795662 273.312 
L 297.411462 273.312 
L 297.411462 95.727592 
L 295.795662 95.727592 
z
" style="fill:#1f77b4;"/>
   </g>
   <g id="patch_149">
    <path clip-path="url(#pf64cd57e02)" d="M 297.411462 273.312 
L 299.027263 273.312 
L 299.027263 102.783926 
L 297.411462 102.783926 
z
" style="fill:#1f77b4;"/>
   </g>
   <g id="patch_150">
    <path clip-path="url(#pf64cd57e02)" d="M 299.027263 273.312 
L 300.643063 273.312 
L 300.643063 101.60787 
L 299.027263 101.60787 
z
" style="fill:#1f77b4;"/>
   </g>
   <g id="patch_151">
    <path clip-path="url(#pf64cd57e02)" d="M 300.643063 273.312 
L 302.258864 273.312 
L 302.258864 95.727592 
L 300.643063 95.727592 
z
" style="fill:#1f77b4;"/>
   </g>
   <g id="patch_152">
    <path clip-path="url(#pf64cd57e02)" d="M 302.258864 273.312 
L 303.874664 273.312 
L 303.874664 87.495202 
L 302.258864 87.495202 
z
" style="fill:#1f77b4;"/>
   </g>
   <g id="patch_153">
    <path clip-path="url(#pf64cd57e02)" d="M 303.874664 273.312 
L 305.490465 273.312 
L 305.490465 73.970561 
L 303.874664 73.970561 
z
" style="fill:#1f77b4;"/>
   </g>
   <g id="patch_154">
    <path clip-path="url(#pf64cd57e02)" d="M 305.490465 273.312 
L 307.106265 273.312 
L 307.106265 93.963508 
L 305.490465 93.963508 
z
" style="fill:#1f77b4;"/>
   </g>
   <g id="patch_155">
    <path clip-path="url(#pf64cd57e02)" d="M 307.106265 273.312 
L 308.722066 273.312 
L 308.722066 103.959981 
L 307.106265 103.959981 
z
" style="fill:#1f77b4;"/>
   </g>
   <g id="patch_156">
    <path clip-path="url(#pf64cd57e02)" d="M 308.722066 273.312 
L 310.337866 273.312 
L 310.337866 93.963508 
L 308.722066 93.963508 
z
" style="fill:#1f77b4;"/>
   </g>
   <g id="patch_157">
    <path clip-path="url(#pf64cd57e02)" d="M 310.337866 273.312 
L 311.953667 273.312 
L 311.953667 92.199425 
L 310.337866 92.199425 
z
" style="fill:#1f77b4;"/>
   </g>
   <g id="patch_158">
    <path clip-path="url(#pf64cd57e02)" d="M 311.953667 273.312 
L 313.569467 273.312 
L 313.569467 75.146617 
L 311.953667 75.146617 
z
" style="fill:#1f77b4;"/>
   </g>
   <g id="patch_159">
    <path clip-path="url(#pf64cd57e02)" d="M 313.569467 273.312 
L 315.185268 273.312 
L 315.185268 105.724065 
L 313.569467 105.724065 
z
" style="fill:#1f77b4;"/>
   </g>
   <g id="patch_160">
    <path clip-path="url(#pf64cd57e02)" d="M 315.185268 273.312 
L 316.801068 273.312 
L 316.801068 99.843787 
L 315.185268 99.843787 
z
" style="fill:#1f77b4;"/>
   </g>
   <g id="patch_161">
    <path clip-path="url(#pf64cd57e02)" d="M 316.801068 273.312 
L 318.416869 273.312 
L 318.416869 88.671258 
L 316.801068 88.671258 
z
" style="fill:#1f77b4;"/>
   </g>
   <g id="patch_162">
    <path clip-path="url(#pf64cd57e02)" d="M 318.416869 273.312 
L 320.032669 273.312 
L 320.032669 90.435341 
L 318.416869 90.435341 
z
" style="fill:#1f77b4;"/>
   </g>
   <g id="patch_163">
    <path clip-path="url(#pf64cd57e02)" d="M 320.032669 273.312 
L 321.64847 273.312 
L 321.64847 106.900121 
L 320.032669 106.900121 
z
" style="fill:#1f77b4;"/>
   </g>
   <g id="patch_164">
    <path clip-path="url(#pf64cd57e02)" d="M 321.64847 273.312 
L 323.26427 273.312 
L 323.26427 98.667731 
L 321.64847 98.667731 
z
" style="fill:#1f77b4;"/>
   </g>
   <g id="patch_165">
    <path clip-path="url(#pf64cd57e02)" d="M 323.26427 273.312 
L 324.880071 273.312 
L 324.880071 88.08323 
L 323.26427 88.08323 
z
" style="fill:#1f77b4;"/>
   </g>
   <g id="patch_166">
    <path clip-path="url(#pf64cd57e02)" d="M 324.880071 273.312 
L 326.495871 273.312 
L 326.495871 78.086756 
L 324.880071 78.086756 
z
" style="fill:#1f77b4;"/>
   </g>
   <g id="patch_167">
    <path clip-path="url(#pf64cd57e02)" d="M 326.495871 273.312 
L 328.111672 273.312 
L 328.111672 83.967035 
L 326.495871 83.967035 
z
" style="fill:#1f77b4;"/>
   </g>
   <g id="patch_168">
    <path clip-path="url(#pf64cd57e02)" d="M 328.111672 273.312 
L 329.727472 273.312 
L 329.727472 88.08323 
L 328.111672 88.08323 
z
" style="fill:#1f77b4;"/>
   </g>
   <g id="patch_169">
    <path clip-path="url(#pf64cd57e02)" d="M 329.727472 273.312 
L 331.343273 273.312 
L 331.343273 69.854367 
L 329.727472 69.854367 
z
" style="fill:#1f77b4;"/>
   </g>
   <g id="patch_170">
    <path clip-path="url(#pf64cd57e02)" d="M 331.343273 273.312 
L 332.959073 273.312 
L 332.959073 88.08323 
L 331.343273 88.08323 
z
" style="fill:#1f77b4;"/>
   </g>
   <g id="patch_171">
    <path clip-path="url(#pf64cd57e02)" d="M 332.959073 273.312 
L 334.574874 273.312 
L 334.574874 96.315619 
L 332.959073 96.315619 
z
" style="fill:#1f77b4;"/>
   </g>
   <g id="patch_172">
    <path clip-path="url(#pf64cd57e02)" d="M 334.574874 273.312 
L 336.190674 273.312 
L 336.190674 88.08323 
L 334.574874 88.08323 
z
" style="fill:#1f77b4;"/>
   </g>
   <g id="patch_173">
    <path clip-path="url(#pf64cd57e02)" d="M 336.190674 273.312 
L 337.806475 273.312 
L 337.806475 78.674784 
L 336.190674 78.674784 
z
" style="fill:#1f77b4;"/>
   </g>
   <g id="patch_174">
    <path clip-path="url(#pf64cd57e02)" d="M 337.806475 273.312 
L 339.422275 273.312 
L 339.422275 78.674784 
L 337.806475 78.674784 
z
" style="fill:#1f77b4;"/>
   </g>
   <g id="patch_175">
    <path clip-path="url(#pf64cd57e02)" d="M 339.422275 273.312 
L 341.038076 273.312 
L 341.038076 63.974088 
L 339.422275 63.974088 
z
" style="fill:#1f77b4;"/>
   </g>
   <g id="patch_176">
    <path clip-path="url(#pf64cd57e02)" d="M 341.038076 273.312 
L 342.653877 273.312 
L 342.653877 66.914227 
L 341.038076 66.914227 
z
" style="fill:#1f77b4;"/>
   </g>
   <g id="patch_177">
    <path clip-path="url(#pf64cd57e02)" d="M 342.653877 273.312 
L 344.269677 273.312 
L 344.269677 76.322673 
L 342.653877 76.322673 
z
" style="fill:#1f77b4;"/>
   </g>
   <g id="patch_178">
    <path clip-path="url(#pf64cd57e02)" d="M 344.269677 273.312 
L 345.885478 273.312 
L 345.885478 68.090283 
L 344.269677 68.090283 
z
" style="fill:#1f77b4;"/>
   </g>
   <g id="patch_179">
    <path clip-path="url(#pf64cd57e02)" d="M 345.885478 273.312 
L 347.501278 273.312 
L 347.501278 61.621977 
L 345.885478 61.621977 
z
" style="fill:#1f77b4;"/>
   </g>
   <g id="patch_180">
    <path clip-path="url(#pf64cd57e02)" d="M 347.501278 273.312 
L 349.117079 273.312 
L 349.117079 71.61845 
L 347.501278 71.61845 
z
" style="fill:#1f77b4;"/>
   </g>
   <g id="patch_181">
    <path clip-path="url(#pf64cd57e02)" d="M 349.117079 273.312 
L 350.732879 273.312 
L 350.732879 58.09381 
L 349.117079 58.09381 
z
" style="fill:#1f77b4;"/>
   </g>
   <g id="patch_182">
    <path clip-path="url(#pf64cd57e02)" d="M 350.732879 273.312 
L 352.34868 273.312 
L 352.34868 54.565643 
L 350.732879 54.565643 
z
" style="fill:#1f77b4;"/>
   </g>
   <g id="patch_183">
    <path clip-path="url(#pf64cd57e02)" d="M 352.34868 273.312 
L 353.96448 273.312 
L 353.96448 47.509309 
L 352.34868 47.509309 
z
" style="fill:#1f77b4;"/>
   </g>
   <g id="patch_184">
    <path clip-path="url(#pf64cd57e02)" d="M 353.96448 273.312 
L 355.580281 273.312 
L 355.580281 61.033949 
L 353.96448 61.033949 
z
" style="fill:#1f77b4;"/>
   </g>
   <g id="patch_185">
    <path clip-path="url(#pf64cd57e02)" d="M 355.580281 273.312 
L 357.196081 273.312 
L 357.196081 82.202951 
L 355.580281 82.202951 
z
" style="fill:#1f77b4;"/>
   </g>
   <g id="patch_186">
    <path clip-path="url(#pf64cd57e02)" d="M 357.196081 273.312 
L 358.811882 273.312 
L 358.811882 55.153671 
L 357.196081 55.153671 
z
" style="fill:#1f77b4;"/>
   </g>
   <g id="patch_187">
    <path clip-path="url(#pf64cd57e02)" d="M 358.811882 273.312 
L 360.427682 273.312 
L 360.427682 63.974088 
L 358.811882 63.974088 
z
" style="fill:#1f77b4;"/>
   </g>
   <g id="patch_188">
    <path clip-path="url(#pf64cd57e02)" d="M 360.427682 273.312 
L 362.043483 273.312 
L 362.043483 55.153671 
L 360.427682 55.153671 
z
" style="fill:#1f77b4;"/>
   </g>
   <g id="patch_189">
    <path clip-path="url(#pf64cd57e02)" d="M 362.043483 273.312 
L 363.659283 273.312 
L 363.659283 43.393114 
L 362.043483 43.393114 
z
" style="fill:#1f77b4;"/>
   </g>
   <g id="patch_190">
    <path clip-path="url(#pf64cd57e02)" d="M 363.659283 273.312 
L 365.275084 273.312 
L 365.275084 59.857893 
L 363.659283 59.857893 
z
" style="fill:#1f77b4;"/>
   </g>
   <g id="patch_191">
    <path clip-path="url(#pf64cd57e02)" d="M 365.275084 273.312 
L 366.890884 273.312 
L 366.890884 65.150144 
L 365.275084 65.150144 
z
" style="fill:#1f77b4;"/>
   </g>
   <g id="patch_192">
    <path clip-path="url(#pf64cd57e02)" d="M 366.890884 273.312 
L 368.506685 273.312 
L 368.506685 35.748752 
L 366.890884 35.748752 
z
" style="fill:#1f77b4;"/>
   </g>
   <g id="patch_193">
    <path clip-path="url(#pf64cd57e02)" d="M 368.506685 273.312 
L 370.122485 273.312 
L 370.122485 46.333253 
L 368.506685 46.333253 
z
" style="fill:#1f77b4;"/>
   </g>
   <g id="patch_194">
    <path clip-path="url(#pf64cd57e02)" d="M 370.122485 273.312 
L 371.738286 273.312 
L 371.738286 33.39664 
L 370.122485 33.39664 
z
" style="fill:#1f77b4;"/>
   </g>
   <g id="patch_195">
    <path clip-path="url(#pf64cd57e02)" d="M 371.738286 273.312 
L 373.354086 273.312 
L 373.354086 43.981142 
L 371.738286 43.981142 
z
" style="fill:#1f77b4;"/>
   </g>
   <g id="patch_196">
    <path clip-path="url(#pf64cd57e02)" d="M 373.354086 273.312 
L 374.969887 273.312 
L 374.969887 19.872 
L 373.354086 19.872 
z
" style="fill:#1f77b4;"/>
   </g>
   <g id="patch_197">
    <path clip-path="url(#pf64cd57e02)" d="M 374.969887 273.312 
L 376.585687 273.312 
L 376.585687 56.329726 
L 374.969887 56.329726 
z
" style="fill:#1f77b4;"/>
   </g>
   <g id="patch_198">
    <path clip-path="url(#pf64cd57e02)" d="M 376.585687 273.312 
L 378.201488 273.312 
L 378.201488 31.632557 
L 376.585687 31.632557 
z
" style="fill:#1f77b4;"/>
   </g>
   <g id="patch_199">
    <path clip-path="url(#pf64cd57e02)" d="M 378.201488 273.312 
L 379.817288 273.312 
L 379.817288 41.041002 
L 378.201488 41.041002 
z
" style="fill:#1f77b4;"/>
   </g>
   <g id="patch_200">
    <path clip-path="url(#pf64cd57e02)" d="M 379.817288 273.312 
L 381.433089 273.312 
L 381.433089 51.037476 
L 379.817288 51.037476 
z
" style="fill:#1f77b4;"/>
   </g>
   <g id="patch_201">
    <path clip-path="url(#pf64cd57e02)" d="M 381.433089 273.312 
L 383.048889 273.312 
L 383.048889 28.10439 
L 381.433089 28.10439 
z
" style="fill:#1f77b4;"/>
   </g>
   <g id="patch_202">
    <path clip-path="url(#pf64cd57e02)" d="M 383.048889 273.312 
L 384.66469 273.312 
L 384.66469 44.569169 
L 383.048889 44.569169 
z
" style="fill:#1f77b4;"/>
   </g>
   <g id="matplotlib.axis_1">
    <g id="xtick_1">
     <g id="line2d_1">
      <defs>
       <path d="M 0 0 
L 0 3.5 
" id="mee98f56b62" style="stroke:#000000;stroke-width:0.8;"/>
      </defs>
      <g>
       <use style="stroke:#000000;stroke-width:0.8;" x="60.013977" xlink:href="#mee98f56b62" y="273.312"/>
      </g>
     </g>
     <g id="text_1">
      <!-- 0.0 -->
      <g transform="translate(52.062415 287.910437)scale(0.1 -0.1)">
       <defs>
        <path d="M 2034 4250 
Q 1547 4250 1301 3770 
Q 1056 3291 1056 2328 
Q 1056 1369 1301 889 
Q 1547 409 2034 409 
Q 2525 409 2770 889 
Q 3016 1369 3016 2328 
Q 3016 3291 2770 3770 
Q 2525 4250 2034 4250 
z
M 2034 4750 
Q 2819 4750 3233 4129 
Q 3647 3509 3647 2328 
Q 3647 1150 3233 529 
Q 2819 -91 2034 -91 
Q 1250 -91 836 529 
Q 422 1150 422 2328 
Q 422 3509 836 4129 
Q 1250 4750 2034 4750 
z
" id="DejaVuSans-30" transform="scale(0.015625)"/>
        <path d="M 684 794 
L 1344 794 
L 1344 0 
L 684 0 
L 684 794 
z
" id="DejaVuSans-2e" transform="scale(0.015625)"/>
       </defs>
       <use xlink:href="#DejaVuSans-30"/>
       <use x="63.623047" xlink:href="#DejaVuSans-2e"/>
       <use x="95.410156" xlink:href="#DejaVuSans-30"/>
      </g>
     </g>
    </g>
    <g id="xtick_2">
     <g id="line2d_2">
      <g>
       <use style="stroke:#000000;stroke-width:0.8;" x="124.944886" xlink:href="#mee98f56b62" y="273.312"/>
      </g>
     </g>
     <g id="text_2">
      <!-- 0.2 -->
      <g transform="translate(116.993324 287.910437)scale(0.1 -0.1)">
       <defs>
        <path d="M 1228 531 
L 3431 531 
L 3431 0 
L 469 0 
L 469 531 
Q 828 903 1448 1529 
Q 2069 2156 2228 2338 
Q 2531 2678 2651 2914 
Q 2772 3150 2772 3378 
Q 2772 3750 2511 3984 
Q 2250 4219 1831 4219 
Q 1534 4219 1204 4116 
Q 875 4013 500 3803 
L 500 4441 
Q 881 4594 1212 4672 
Q 1544 4750 1819 4750 
Q 2544 4750 2975 4387 
Q 3406 4025 3406 3419 
Q 3406 3131 3298 2873 
Q 3191 2616 2906 2266 
Q 2828 2175 2409 1742 
Q 1991 1309 1228 531 
z
" id="DejaVuSans-32" transform="scale(0.015625)"/>
       </defs>
       <use xlink:href="#DejaVuSans-30"/>
       <use x="63.623047" xlink:href="#DejaVuSans-2e"/>
       <use x="95.410156" xlink:href="#DejaVuSans-32"/>
      </g>
     </g>
    </g>
    <g id="xtick_3">
     <g id="line2d_3">
      <g>
       <use style="stroke:#000000;stroke-width:0.8;" x="189.875795" xlink:href="#mee98f56b62" y="273.312"/>
      </g>
     </g>
     <g id="text_3">
      <!-- 0.4 -->
      <g transform="translate(181.924233 287.910437)scale(0.1 -0.1)">
       <defs>
        <path d="M 2419 4116 
L 825 1625 
L 2419 1625 
L 2419 4116 
z
M 2253 4666 
L 3047 4666 
L 3047 1625 
L 3713 1625 
L 3713 1100 
L 3047 1100 
L 3047 0 
L 2419 0 
L 2419 1100 
L 313 1100 
L 313 1709 
L 2253 4666 
z
" id="DejaVuSans-34" transform="scale(0.015625)"/>
       </defs>
       <use xlink:href="#DejaVuSans-30"/>
       <use x="63.623047" xlink:href="#DejaVuSans-2e"/>
       <use x="95.410156" xlink:href="#DejaVuSans-34"/>
      </g>
     </g>
    </g>
    <g id="xtick_4">
     <g id="line2d_4">
      <g>
       <use style="stroke:#000000;stroke-width:0.8;" x="254.806705" xlink:href="#mee98f56b62" y="273.312"/>
      </g>
     </g>
     <g id="text_4">
      <!-- 0.6 -->
      <g transform="translate(246.855142 287.910437)scale(0.1 -0.1)">
       <defs>
        <path d="M 2113 2584 
Q 1688 2584 1439 2293 
Q 1191 2003 1191 1497 
Q 1191 994 1439 701 
Q 1688 409 2113 409 
Q 2538 409 2786 701 
Q 3034 994 3034 1497 
Q 3034 2003 2786 2293 
Q 2538 2584 2113 2584 
z
M 3366 4563 
L 3366 3988 
Q 3128 4100 2886 4159 
Q 2644 4219 2406 4219 
Q 1781 4219 1451 3797 
Q 1122 3375 1075 2522 
Q 1259 2794 1537 2939 
Q 1816 3084 2150 3084 
Q 2853 3084 3261 2657 
Q 3669 2231 3669 1497 
Q 3669 778 3244 343 
Q 2819 -91 2113 -91 
Q 1303 -91 875 529 
Q 447 1150 447 2328 
Q 447 3434 972 4092 
Q 1497 4750 2381 4750 
Q 2619 4750 2861 4703 
Q 3103 4656 3366 4563 
z
" id="DejaVuSans-36" transform="scale(0.015625)"/>
       </defs>
       <use xlink:href="#DejaVuSans-30"/>
       <use x="63.623047" xlink:href="#DejaVuSans-2e"/>
       <use x="95.410156" xlink:href="#DejaVuSans-36"/>
      </g>
     </g>
    </g>
    <g id="xtick_5">
     <g id="line2d_5">
      <g>
       <use style="stroke:#000000;stroke-width:0.8;" x="319.737614" xlink:href="#mee98f56b62" y="273.312"/>
      </g>
     </g>
     <g id="text_5">
      <!-- 0.8 -->
      <g transform="translate(311.786051 287.910437)scale(0.1 -0.1)">
       <defs>
        <path d="M 2034 2216 
Q 1584 2216 1326 1975 
Q 1069 1734 1069 1313 
Q 1069 891 1326 650 
Q 1584 409 2034 409 
Q 2484 409 2743 651 
Q 3003 894 3003 1313 
Q 3003 1734 2745 1975 
Q 2488 2216 2034 2216 
z
M 1403 2484 
Q 997 2584 770 2862 
Q 544 3141 544 3541 
Q 544 4100 942 4425 
Q 1341 4750 2034 4750 
Q 2731 4750 3128 4425 
Q 3525 4100 3525 3541 
Q 3525 3141 3298 2862 
Q 3072 2584 2669 2484 
Q 3125 2378 3379 2068 
Q 3634 1759 3634 1313 
Q 3634 634 3220 271 
Q 2806 -91 2034 -91 
Q 1263 -91 848 271 
Q 434 634 434 1313 
Q 434 1759 690 2068 
Q 947 2378 1403 2484 
z
M 1172 3481 
Q 1172 3119 1398 2916 
Q 1625 2713 2034 2713 
Q 2441 2713 2670 2916 
Q 2900 3119 2900 3481 
Q 2900 3844 2670 4047 
Q 2441 4250 2034 4250 
Q 1625 4250 1398 4047 
Q 1172 3844 1172 3481 
z
" id="DejaVuSans-38" transform="scale(0.015625)"/>
       </defs>
       <use xlink:href="#DejaVuSans-30"/>
       <use x="63.623047" xlink:href="#DejaVuSans-2e"/>
       <use x="95.410156" xlink:href="#DejaVuSans-38"/>
      </g>
     </g>
    </g>
    <g id="xtick_6">
     <g id="line2d_6">
      <g>
       <use style="stroke:#000000;stroke-width:0.8;" x="384.668523" xlink:href="#mee98f56b62" y="273.312"/>
      </g>
     </g>
     <g id="text_6">
      <!-- 1.0 -->
      <g transform="translate(376.71696 287.910437)scale(0.1 -0.1)">
       <defs>
        <path d="M 794 531 
L 1825 531 
L 1825 4091 
L 703 3866 
L 703 4441 
L 1819 4666 
L 2450 4666 
L 2450 531 
L 3481 531 
L 3481 0 
L 794 0 
L 794 531 
z
" id="DejaVuSans-31" transform="scale(0.015625)"/>
       </defs>
       <use xlink:href="#DejaVuSans-31"/>
       <use x="63.623047" xlink:href="#DejaVuSans-2e"/>
       <use x="95.410156" xlink:href="#DejaVuSans-30"/>
      </g>
     </g>
    </g>
    <g id="text_7">
     <!-- Propagation direction -->
     <g transform="translate(168.859219 301.588562)scale(0.1 -0.1)">
      <defs>
       <path d="M 1259 4147 
L 1259 2394 
L 2053 2394 
Q 2494 2394 2734 2622 
Q 2975 2850 2975 3272 
Q 2975 3691 2734 3919 
Q 2494 4147 2053 4147 
L 1259 4147 
z
M 628 4666 
L 2053 4666 
Q 2838 4666 3239 4311 
Q 3641 3956 3641 3272 
Q 3641 2581 3239 2228 
Q 2838 1875 2053 1875 
L 1259 1875 
L 1259 0 
L 628 0 
L 628 4666 
z
" id="DejaVuSans-50" transform="scale(0.015625)"/>
       <path d="M 2631 2963 
Q 2534 3019 2420 3045 
Q 2306 3072 2169 3072 
Q 1681 3072 1420 2755 
Q 1159 2438 1159 1844 
L 1159 0 
L 581 0 
L 581 3500 
L 1159 3500 
L 1159 2956 
Q 1341 3275 1631 3429 
Q 1922 3584 2338 3584 
Q 2397 3584 2469 3576 
Q 2541 3569 2628 3553 
L 2631 2963 
z
" id="DejaVuSans-72" transform="scale(0.015625)"/>
       <path d="M 1959 3097 
Q 1497 3097 1228 2736 
Q 959 2375 959 1747 
Q 959 1119 1226 758 
Q 1494 397 1959 397 
Q 2419 397 2687 759 
Q 2956 1122 2956 1747 
Q 2956 2369 2687 2733 
Q 2419 3097 1959 3097 
z
M 1959 3584 
Q 2709 3584 3137 3096 
Q 3566 2609 3566 1747 
Q 3566 888 3137 398 
Q 2709 -91 1959 -91 
Q 1206 -91 779 398 
Q 353 888 353 1747 
Q 353 2609 779 3096 
Q 1206 3584 1959 3584 
z
" id="DejaVuSans-6f" transform="scale(0.015625)"/>
       <path d="M 1159 525 
L 1159 -1331 
L 581 -1331 
L 581 3500 
L 1159 3500 
L 1159 2969 
Q 1341 3281 1617 3432 
Q 1894 3584 2278 3584 
Q 2916 3584 3314 3078 
Q 3713 2572 3713 1747 
Q 3713 922 3314 415 
Q 2916 -91 2278 -91 
Q 1894 -91 1617 61 
Q 1341 213 1159 525 
z
M 3116 1747 
Q 3116 2381 2855 2742 
Q 2594 3103 2138 3103 
Q 1681 3103 1420 2742 
Q 1159 2381 1159 1747 
Q 1159 1113 1420 752 
Q 1681 391 2138 391 
Q 2594 391 2855 752 
Q 3116 1113 3116 1747 
z
" id="DejaVuSans-70" transform="scale(0.015625)"/>
       <path d="M 2194 1759 
Q 1497 1759 1228 1600 
Q 959 1441 959 1056 
Q 959 750 1161 570 
Q 1363 391 1709 391 
Q 2188 391 2477 730 
Q 2766 1069 2766 1631 
L 2766 1759 
L 2194 1759 
z
M 3341 1997 
L 3341 0 
L 2766 0 
L 2766 531 
Q 2569 213 2275 61 
Q 1981 -91 1556 -91 
Q 1019 -91 701 211 
Q 384 513 384 1019 
Q 384 1609 779 1909 
Q 1175 2209 1959 2209 
L 2766 2209 
L 2766 2266 
Q 2766 2663 2505 2880 
Q 2244 3097 1772 3097 
Q 1472 3097 1187 3025 
Q 903 2953 641 2809 
L 641 3341 
Q 956 3463 1253 3523 
Q 1550 3584 1831 3584 
Q 2591 3584 2966 3190 
Q 3341 2797 3341 1997 
z
" id="DejaVuSans-61" transform="scale(0.015625)"/>
       <path d="M 2906 1791 
Q 2906 2416 2648 2759 
Q 2391 3103 1925 3103 
Q 1463 3103 1205 2759 
Q 947 2416 947 1791 
Q 947 1169 1205 825 
Q 1463 481 1925 481 
Q 2391 481 2648 825 
Q 2906 1169 2906 1791 
z
M 3481 434 
Q 3481 -459 3084 -895 
Q 2688 -1331 1869 -1331 
Q 1566 -1331 1297 -1286 
Q 1028 -1241 775 -1147 
L 775 -588 
Q 1028 -725 1275 -790 
Q 1522 -856 1778 -856 
Q 2344 -856 2625 -561 
Q 2906 -266 2906 331 
L 2906 616 
Q 2728 306 2450 153 
Q 2172 0 1784 0 
Q 1141 0 747 490 
Q 353 981 353 1791 
Q 353 2603 747 3093 
Q 1141 3584 1784 3584 
Q 2172 3584 2450 3431 
Q 2728 3278 2906 2969 
L 2906 3500 
L 3481 3500 
L 3481 434 
z
" id="DejaVuSans-67" transform="scale(0.015625)"/>
       <path d="M 1172 4494 
L 1172 3500 
L 2356 3500 
L 2356 3053 
L 1172 3053 
L 1172 1153 
Q 1172 725 1289 603 
Q 1406 481 1766 481 
L 2356 481 
L 2356 0 
L 1766 0 
Q 1100 0 847 248 
Q 594 497 594 1153 
L 594 3053 
L 172 3053 
L 172 3500 
L 594 3500 
L 594 4494 
L 1172 4494 
z
" id="DejaVuSans-74" transform="scale(0.015625)"/>
       <path d="M 603 3500 
L 1178 3500 
L 1178 0 
L 603 0 
L 603 3500 
z
M 603 4863 
L 1178 4863 
L 1178 4134 
L 603 4134 
L 603 4863 
z
" id="DejaVuSans-69" transform="scale(0.015625)"/>
       <path d="M 3513 2113 
L 3513 0 
L 2938 0 
L 2938 2094 
Q 2938 2591 2744 2837 
Q 2550 3084 2163 3084 
Q 1697 3084 1428 2787 
Q 1159 2491 1159 1978 
L 1159 0 
L 581 0 
L 581 3500 
L 1159 3500 
L 1159 2956 
Q 1366 3272 1645 3428 
Q 1925 3584 2291 3584 
Q 2894 3584 3203 3211 
Q 3513 2838 3513 2113 
z
" id="DejaVuSans-6e" transform="scale(0.015625)"/>
       <path id="DejaVuSans-20" transform="scale(0.015625)"/>
       <path d="M 2906 2969 
L 2906 4863 
L 3481 4863 
L 3481 0 
L 2906 0 
L 2906 525 
Q 2725 213 2448 61 
Q 2172 -91 1784 -91 
Q 1150 -91 751 415 
Q 353 922 353 1747 
Q 353 2572 751 3078 
Q 1150 3584 1784 3584 
Q 2172 3584 2448 3432 
Q 2725 3281 2906 2969 
z
M 947 1747 
Q 947 1113 1208 752 
Q 1469 391 1925 391 
Q 2381 391 2643 752 
Q 2906 1113 2906 1747 
Q 2906 2381 2643 2742 
Q 2381 3103 1925 3103 
Q 1469 3103 1208 2742 
Q 947 2381 947 1747 
z
" id="DejaVuSans-64" transform="scale(0.015625)"/>
       <path d="M 3597 1894 
L 3597 1613 
L 953 1613 
Q 991 1019 1311 708 
Q 1631 397 2203 397 
Q 2534 397 2845 478 
Q 3156 559 3463 722 
L 3463 178 
Q 3153 47 2828 -22 
Q 2503 -91 2169 -91 
Q 1331 -91 842 396 
Q 353 884 353 1716 
Q 353 2575 817 3079 
Q 1281 3584 2069 3584 
Q 2775 3584 3186 3129 
Q 3597 2675 3597 1894 
z
M 3022 2063 
Q 3016 2534 2758 2815 
Q 2500 3097 2075 3097 
Q 1594 3097 1305 2825 
Q 1016 2553 972 2059 
L 3022 2063 
z
" id="DejaVuSans-65" transform="scale(0.015625)"/>
       <path d="M 3122 3366 
L 3122 2828 
Q 2878 2963 2633 3030 
Q 2388 3097 2138 3097 
Q 1578 3097 1268 2742 
Q 959 2388 959 1747 
Q 959 1106 1268 751 
Q 1578 397 2138 397 
Q 2388 397 2633 464 
Q 2878 531 3122 666 
L 3122 134 
Q 2881 22 2623 -34 
Q 2366 -91 2075 -91 
Q 1284 -91 818 406 
Q 353 903 353 1747 
Q 353 2603 823 3093 
Q 1294 3584 2113 3584 
Q 2378 3584 2631 3529 
Q 2884 3475 3122 3366 
z
" id="DejaVuSans-63" transform="scale(0.015625)"/>
      </defs>
      <use xlink:href="#DejaVuSans-50"/>
      <use x="58.552734" xlink:href="#DejaVuSans-72"/>
      <use x="97.416016" xlink:href="#DejaVuSans-6f"/>
      <use x="158.597656" xlink:href="#DejaVuSans-70"/>
      <use x="222.074219" xlink:href="#DejaVuSans-61"/>
      <use x="283.353516" xlink:href="#DejaVuSans-67"/>
      <use x="346.830078" xlink:href="#DejaVuSans-61"/>
      <use x="408.109375" xlink:href="#DejaVuSans-74"/>
      <use x="447.318359" xlink:href="#DejaVuSans-69"/>
      <use x="475.101562" xlink:href="#DejaVuSans-6f"/>
      <use x="536.283203" xlink:href="#DejaVuSans-6e"/>
      <use x="599.662109" xlink:href="#DejaVuSans-20"/>
      <use x="631.449219" xlink:href="#DejaVuSans-64"/>
      <use x="694.925781" xlink:href="#DejaVuSans-69"/>
      <use x="722.708984" xlink:href="#DejaVuSans-72"/>
      <use x="761.572266" xlink:href="#DejaVuSans-65"/>
      <use x="823.095703" xlink:href="#DejaVuSans-63"/>
      <use x="878.076172" xlink:href="#DejaVuSans-74"/>
      <use x="917.285156" xlink:href="#DejaVuSans-69"/>
      <use x="945.068359" xlink:href="#DejaVuSans-6f"/>
      <use x="1006.25" xlink:href="#DejaVuSans-6e"/>
     </g>
    </g>
   </g>
   <g id="matplotlib.axis_2">
    <g id="ytick_1">
     <g id="line2d_7">
      <defs>
       <path d="M 0 0 
L -3.5 0 
" id="m91f3a539e6" style="stroke:#000000;stroke-width:0.8;"/>
      </defs>
      <g>
       <use style="stroke:#000000;stroke-width:0.8;" x="43.78125" xlink:href="#m91f3a539e6" y="273.312"/>
      </g>
     </g>
     <g id="text_8">
      <!-- 0.0 -->
      <g transform="translate(20.878125 277.111219)scale(0.1 -0.1)">
       <use xlink:href="#DejaVuSans-30"/>
       <use x="63.623047" xlink:href="#DejaVuSans-2e"/>
       <use x="95.410156" xlink:href="#DejaVuSans-30"/>
      </g>
     </g>
    </g>
    <g id="ytick_2">
     <g id="line2d_8">
      <g>
       <use style="stroke:#000000;stroke-width:0.8;" x="43.78125" xlink:href="#m91f3a539e6" y="214.779895"/>
      </g>
     </g>
     <g id="text_9">
      <!-- 0.5 -->
      <g transform="translate(20.878125 218.579114)scale(0.1 -0.1)">
       <defs>
        <path d="M 691 4666 
L 3169 4666 
L 3169 4134 
L 1269 4134 
L 1269 2991 
Q 1406 3038 1543 3061 
Q 1681 3084 1819 3084 
Q 2600 3084 3056 2656 
Q 3513 2228 3513 1497 
Q 3513 744 3044 326 
Q 2575 -91 1722 -91 
Q 1428 -91 1123 -41 
Q 819 9 494 109 
L 494 744 
Q 775 591 1075 516 
Q 1375 441 1709 441 
Q 2250 441 2565 725 
Q 2881 1009 2881 1497 
Q 2881 1984 2565 2268 
Q 2250 2553 1709 2553 
Q 1456 2553 1204 2497 
Q 953 2441 691 2322 
L 691 4666 
z
" id="DejaVuSans-35" transform="scale(0.015625)"/>
       </defs>
       <use xlink:href="#DejaVuSans-30"/>
       <use x="63.623047" xlink:href="#DejaVuSans-2e"/>
       <use x="95.410156" xlink:href="#DejaVuSans-35"/>
      </g>
     </g>
    </g>
    <g id="ytick_3">
     <g id="line2d_9">
      <g>
       <use style="stroke:#000000;stroke-width:0.8;" x="43.78125" xlink:href="#m91f3a539e6" y="156.247791"/>
      </g>
     </g>
     <g id="text_10">
      <!-- 1.0 -->
      <g transform="translate(20.878125 160.047009)scale(0.1 -0.1)">
       <use xlink:href="#DejaVuSans-31"/>
       <use x="63.623047" xlink:href="#DejaVuSans-2e"/>
       <use x="95.410156" xlink:href="#DejaVuSans-30"/>
      </g>
     </g>
    </g>
    <g id="ytick_4">
     <g id="line2d_10">
      <g>
       <use style="stroke:#000000;stroke-width:0.8;" x="43.78125" xlink:href="#m91f3a539e6" y="97.715686"/>
      </g>
     </g>
     <g id="text_11">
      <!-- 1.5 -->
      <g transform="translate(20.878125 101.514905)scale(0.1 -0.1)">
       <use xlink:href="#DejaVuSans-31"/>
       <use x="63.623047" xlink:href="#DejaVuSans-2e"/>
       <use x="95.410156" xlink:href="#DejaVuSans-35"/>
      </g>
     </g>
    </g>
    <g id="ytick_5">
     <g id="line2d_11">
      <g>
       <use style="stroke:#000000;stroke-width:0.8;" x="43.78125" xlink:href="#m91f3a539e6" y="39.183581"/>
      </g>
     </g>
     <g id="text_12">
      <!-- 2.0 -->
      <g transform="translate(20.878125 42.9828)scale(0.1 -0.1)">
       <use xlink:href="#DejaVuSans-32"/>
       <use x="63.623047" xlink:href="#DejaVuSans-2e"/>
       <use x="95.410156" xlink:href="#DejaVuSans-30"/>
      </g>
     </g>
    </g>
    <g id="text_13">
     <!-- Probability density -->
     <g transform="translate(14.798438 186.606781)rotate(-90)scale(0.1 -0.1)">
      <defs>
       <path d="M 3116 1747 
Q 3116 2381 2855 2742 
Q 2594 3103 2138 3103 
Q 1681 3103 1420 2742 
Q 1159 2381 1159 1747 
Q 1159 1113 1420 752 
Q 1681 391 2138 391 
Q 2594 391 2855 752 
Q 3116 1113 3116 1747 
z
M 1159 2969 
Q 1341 3281 1617 3432 
Q 1894 3584 2278 3584 
Q 2916 3584 3314 3078 
Q 3713 2572 3713 1747 
Q 3713 922 3314 415 
Q 2916 -91 2278 -91 
Q 1894 -91 1617 61 
Q 1341 213 1159 525 
L 1159 0 
L 581 0 
L 581 4863 
L 1159 4863 
L 1159 2969 
z
" id="DejaVuSans-62" transform="scale(0.015625)"/>
       <path d="M 603 4863 
L 1178 4863 
L 1178 0 
L 603 0 
L 603 4863 
z
" id="DejaVuSans-6c" transform="scale(0.015625)"/>
       <path d="M 2059 -325 
Q 1816 -950 1584 -1140 
Q 1353 -1331 966 -1331 
L 506 -1331 
L 506 -850 
L 844 -850 
Q 1081 -850 1212 -737 
Q 1344 -625 1503 -206 
L 1606 56 
L 191 3500 
L 800 3500 
L 1894 763 
L 2988 3500 
L 3597 3500 
L 2059 -325 
z
" id="DejaVuSans-79" transform="scale(0.015625)"/>
       <path d="M 2834 3397 
L 2834 2853 
Q 2591 2978 2328 3040 
Q 2066 3103 1784 3103 
Q 1356 3103 1142 2972 
Q 928 2841 928 2578 
Q 928 2378 1081 2264 
Q 1234 2150 1697 2047 
L 1894 2003 
Q 2506 1872 2764 1633 
Q 3022 1394 3022 966 
Q 3022 478 2636 193 
Q 2250 -91 1575 -91 
Q 1294 -91 989 -36 
Q 684 19 347 128 
L 347 722 
Q 666 556 975 473 
Q 1284 391 1588 391 
Q 1994 391 2212 530 
Q 2431 669 2431 922 
Q 2431 1156 2273 1281 
Q 2116 1406 1581 1522 
L 1381 1569 
Q 847 1681 609 1914 
Q 372 2147 372 2553 
Q 372 3047 722 3315 
Q 1072 3584 1716 3584 
Q 2034 3584 2315 3537 
Q 2597 3491 2834 3397 
z
" id="DejaVuSans-73" transform="scale(0.015625)"/>
      </defs>
      <use xlink:href="#DejaVuSans-50"/>
      <use x="58.552734" xlink:href="#DejaVuSans-72"/>
      <use x="97.416016" xlink:href="#DejaVuSans-6f"/>
      <use x="158.597656" xlink:href="#DejaVuSans-62"/>
      <use x="222.074219" xlink:href="#DejaVuSans-61"/>
      <use x="283.353516" xlink:href="#DejaVuSans-62"/>
      <use x="346.830078" xlink:href="#DejaVuSans-69"/>
      <use x="374.613281" xlink:href="#DejaVuSans-6c"/>
      <use x="402.396484" xlink:href="#DejaVuSans-69"/>
      <use x="430.179688" xlink:href="#DejaVuSans-74"/>
      <use x="469.388672" xlink:href="#DejaVuSans-79"/>
      <use x="528.568359" xlink:href="#DejaVuSans-20"/>
      <use x="560.355469" xlink:href="#DejaVuSans-64"/>
      <use x="623.832031" xlink:href="#DejaVuSans-65"/>
      <use x="685.355469" xlink:href="#DejaVuSans-6e"/>
      <use x="748.734375" xlink:href="#DejaVuSans-73"/>
      <use x="800.833984" xlink:href="#DejaVuSans-69"/>
      <use x="828.617188" xlink:href="#DejaVuSans-74"/>
      <use x="867.826172" xlink:href="#DejaVuSans-79"/>
     </g>
    </g>
   </g>
   <g id="line2d_12">
    <path clip-path="url(#pf64cd57e02)" d="M 60.013977 273.312 
L 384.668523 39.183581 
L 384.668523 39.183581 
" style="fill:none;stroke:#ff7f0e;stroke-linecap:square;stroke-width:1.5;"/>
   </g>
   <g id="patch_203">
    <path d="M 43.78125 273.312 
L 43.78125 7.2 
" style="fill:none;stroke:#000000;stroke-linecap:square;stroke-linejoin:miter;stroke-width:0.8;"/>
   </g>
   <g id="patch_204">
    <path d="M 400.90125 273.312 
L 400.90125 7.2 
" style="fill:none;stroke:#000000;stroke-linecap:square;stroke-linejoin:miter;stroke-width:0.8;"/>
   </g>
   <g id="patch_205">
    <path d="M 43.78125 273.312 
L 400.90125 273.312 
" style="fill:none;stroke:#000000;stroke-linecap:square;stroke-linejoin:miter;stroke-width:0.8;"/>
   </g>
   <g id="patch_206">
    <path d="M 43.78125 7.2 
L 400.90125 7.2 
" style="fill:none;stroke:#000000;stroke-linecap:square;stroke-linejoin:miter;stroke-width:0.8;"/>
   </g>
  </g>
 </g>
 <defs>
  <clipPath id="pf64cd57e02">
   <rect height="266.112" width="357.12" x="43.78125" y="7.2"/>
  </clipPath>
 </defs>
</svg>
