<?xml version="1.0" encoding="utf-8" standalone="no"?>
<!DOCTYPE svg PUBLIC "-//W3C//DTD SVG 1.1//EN"
  "http://www.w3.org/Graphics/SVG/1.1/DTD/svg11.dtd">
<svg height="310.86825pt" version="1.1" viewBox="0 0 408.10125 310.86825" width="408.10125pt" xmlns="http://www.w3.org/2000/svg" xmlns:xlink="http://www.w3.org/1999/xlink">
 <metadata>
  <rdf:RDF xmlns:cc="http://creativecommons.org/ns#" xmlns:dc="http://purl.org/dc/elements/1.1/" xmlns:rdf="http://www.w3.org/1999/02/22-rdf-syntax-ns#">
   <cc:Work>
    <dc:type rdf:resource="http://purl.org/dc/dcmitype/StillImage"/>
    <dc:date>2021-06-22T18:43:43.433577</dc:date>
    <dc:format>image/svg+xml</dc:format>
    <dc:creator>
     <cc:Agent>
      <dc:title>Matplotlib v3.4.2, https://matplotlib.org/</dc:title>
     </cc:Agent>
    </dc:creator>
   </cc:Work>
  </rdf:RDF>
 </metadata>
 <defs>
  <style type="text/css">*{stroke-linecap:butt;stroke-linejoin:round;}</style>
 </defs>
 <g id="figure_1">
  <g id="patch_1">
   <path d="M 0 310.86825 
L 408.10125 310.86825 
L 408.10125 0 
L 0 0 
z
" style="fill:#ffffff;"/>
  </g>
  <g id="axes_1">
   <g id="patch_2">
    <path d="M 43.78125 273.312 
L 400.90125 273.312 
L 400.90125 7.2 
L 43.78125 7.2 
z
" style="fill:#ffffff;"/>
   </g>
   <g id="patch_3">
    <path clip-path="url(#p40528b2be9)" d="M 60.680277 273.312 
L 62.293521 273.312 
L 62.293521 270.365023 
L 60.680277 270.365023 
z
" style="fill:#1f77b4;"/>
   </g>
   <g id="patch_4">
    <path clip-path="url(#p40528b2be9)" d="M 62.293521 273.312 
L 63.906766 273.312 
L 63.906766 265.207814 
L 62.293521 265.207814 
z
" style="fill:#1f77b4;"/>
   </g>
   <g id="patch_5">
    <path clip-path="url(#p40528b2be9)" d="M 63.906766 273.312 
L 65.520011 273.312 
L 65.520011 257.103628 
L 63.906766 257.103628 
z
" style="fill:#1f77b4;"/>
   </g>
   <g id="patch_6">
    <path clip-path="url(#p40528b2be9)" d="M 65.520011 273.312 
L 67.133255 273.312 
L 67.133255 259.31386 
L 65.520011 259.31386 
z
" style="fill:#1f77b4;"/>
   </g>
   <g id="patch_7">
    <path clip-path="url(#p40528b2be9)" d="M 67.133255 273.312 
L 68.7465 273.312 
L 68.7465 254.893395 
L 67.133255 254.893395 
z
" style="fill:#1f77b4;"/>
   </g>
   <g id="patch_8">
    <path clip-path="url(#p40528b2be9)" d="M 68.7465 273.312 
L 70.359745 273.312 
L 70.359745 257.840372 
L 68.7465 257.840372 
z
" style="fill:#1f77b4;"/>
   </g>
   <g id="patch_9">
    <path clip-path="url(#p40528b2be9)" d="M 70.359745 273.312 
L 71.972989 273.312 
L 71.972989 247.525953 
L 70.359745 247.525953 
z
" style="fill:#1f77b4;"/>
   </g>
   <g id="patch_10">
    <path clip-path="url(#p40528b2be9)" d="M 71.972989 273.312 
L 73.586234 273.312 
L 73.586234 237.948279 
L 71.972989 237.948279 
z
" style="fill:#1f77b4;"/>
   </g>
   <g id="patch_11">
    <path clip-path="url(#p40528b2be9)" d="M 73.586234 273.312 
L 75.199478 273.312 
L 75.199478 245.315721 
L 73.586234 245.315721 
z
" style="fill:#1f77b4;"/>
   </g>
   <g id="patch_12">
    <path clip-path="url(#p40528b2be9)" d="M 75.199478 273.312 
L 76.812723 273.312 
L 76.812723 242.368744 
L 75.199478 242.368744 
z
" style="fill:#1f77b4;"/>
   </g>
   <g id="patch_13">
    <path clip-path="url(#p40528b2be9)" d="M 76.812723 273.312 
L 78.425968 273.312 
L 78.425968 232.79107 
L 76.812723 232.79107 
z
" style="fill:#1f77b4;"/>
   </g>
   <g id="patch_14">
    <path clip-path="url(#p40528b2be9)" d="M 78.425968 273.312 
L 80.039212 273.312 
L 80.039212 232.054326 
L 78.425968 232.054326 
z
" style="fill:#1f77b4;"/>
   </g>
   <g id="patch_15">
    <path clip-path="url(#p40528b2be9)" d="M 80.039212 273.312 
L 81.652457 273.312 
L 81.652457 236.474791 
L 80.039212 236.474791 
z
" style="fill:#1f77b4;"/>
   </g>
   <g id="patch_16">
    <path clip-path="url(#p40528b2be9)" d="M 81.652457 273.312 
L 83.265702 273.312 
L 83.265702 223.213395 
L 81.652457 223.213395 
z
" style="fill:#1f77b4;"/>
   </g>
   <g id="patch_17">
    <path clip-path="url(#p40528b2be9)" d="M 83.265702 273.312 
L 84.878946 273.312 
L 84.878946 221.739907 
L 83.265702 221.739907 
z
" style="fill:#1f77b4;"/>
   </g>
   <g id="patch_18">
    <path clip-path="url(#p40528b2be9)" d="M 84.878946 273.312 
L 86.492191 273.312 
L 86.492191 212.898977 
L 84.878946 212.898977 
z
" style="fill:#1f77b4;"/>
   </g>
   <g id="patch_19">
    <path clip-path="url(#p40528b2be9)" d="M 86.492191 273.312 
L 88.105436 273.312 
L 88.105436 212.898977 
L 86.492191 212.898977 
z
" style="fill:#1f77b4;"/>
   </g>
   <g id="patch_20">
    <path clip-path="url(#p40528b2be9)" d="M 88.105436 273.312 
L 89.71868 273.312 
L 89.71868 206.268279 
L 88.105436 206.268279 
z
" style="fill:#1f77b4;"/>
   </g>
   <g id="patch_21">
    <path clip-path="url(#p40528b2be9)" d="M 89.71868 273.312 
L 91.331925 273.312 
L 91.331925 188.586419 
L 89.71868 188.586419 
z
" style="fill:#1f77b4;"/>
   </g>
   <g id="patch_22">
    <path clip-path="url(#p40528b2be9)" d="M 91.331925 273.312 
L 92.945169 273.312 
L 92.945169 201.847814 
L 91.331925 201.847814 
z
" style="fill:#1f77b4;"/>
   </g>
   <g id="patch_23">
    <path clip-path="url(#p40528b2be9)" d="M 92.945169 273.312 
L 94.558414 273.312 
L 94.558414 201.847814 
L 92.945169 201.847814 
z
" style="fill:#1f77b4;"/>
   </g>
   <g id="patch_24">
    <path clip-path="url(#p40528b2be9)" d="M 94.558414 273.312 
L 96.171659 273.312 
L 96.171659 194.480372 
L 94.558414 194.480372 
z
" style="fill:#1f77b4;"/>
   </g>
   <g id="patch_25">
    <path clip-path="url(#p40528b2be9)" d="M 96.171659 273.312 
L 97.784903 273.312 
L 97.784903 179.745488 
L 96.171659 179.745488 
z
" style="fill:#1f77b4;"/>
   </g>
   <g id="patch_26">
    <path clip-path="url(#p40528b2be9)" d="M 97.784903 273.312 
L 99.398148 273.312 
L 99.398148 188.586419 
L 97.784903 188.586419 
z
" style="fill:#1f77b4;"/>
   </g>
   <g id="patch_27">
    <path clip-path="url(#p40528b2be9)" d="M 99.398148 273.312 
L 101.011393 273.312 
L 101.011393 180.482233 
L 99.398148 180.482233 
z
" style="fill:#1f77b4;"/>
   </g>
   <g id="patch_28">
    <path clip-path="url(#p40528b2be9)" d="M 101.011393 273.312 
L 102.624637 273.312 
L 102.624637 172.378047 
L 101.011393 172.378047 
z
" style="fill:#1f77b4;"/>
   </g>
   <g id="patch_29">
    <path clip-path="url(#p40528b2be9)" d="M 102.624637 273.312 
L 104.237882 273.312 
L 104.237882 174.588279 
L 102.624637 174.588279 
z
" style="fill:#1f77b4;"/>
   </g>
   <g id="patch_30">
    <path clip-path="url(#p40528b2be9)" d="M 104.237882 273.312 
L 105.851126 273.312 
L 105.851126 187.11293 
L 104.237882 187.11293 
z
" style="fill:#1f77b4;"/>
   </g>
   <g id="patch_31">
    <path clip-path="url(#p40528b2be9)" d="M 105.851126 273.312 
L 107.464371 273.312 
L 107.464371 165.010605 
L 105.851126 165.010605 
z
" style="fill:#1f77b4;"/>
   </g>
   <g id="patch_32">
    <path clip-path="url(#p40528b2be9)" d="M 107.464371 273.312 
L 109.077616 273.312 
L 109.077616 159.853395 
L 107.464371 159.853395 
z
" style="fill:#1f77b4;"/>
   </g>
   <g id="patch_33">
    <path clip-path="url(#p40528b2be9)" d="M 109.077616 273.312 
L 110.69086 273.312 
L 110.69086 174.588279 
L 109.077616 174.588279 
z
" style="fill:#1f77b4;"/>
   </g>
   <g id="patch_34">
    <path clip-path="url(#p40528b2be9)" d="M 110.69086 273.312 
L 112.304105 273.312 
L 112.304105 166.484093 
L 110.69086 166.484093 
z
" style="fill:#1f77b4;"/>
   </g>
   <g id="patch_35">
    <path clip-path="url(#p40528b2be9)" d="M 112.304105 273.312 
L 113.91735 273.312 
L 113.91735 160.59014 
L 112.304105 160.59014 
z
" style="fill:#1f77b4;"/>
   </g>
   <g id="patch_36">
    <path clip-path="url(#p40528b2be9)" d="M 113.91735 273.312 
L 115.530594 273.312 
L 115.530594 156.169674 
L 113.91735 156.169674 
z
" style="fill:#1f77b4;"/>
   </g>
   <g id="patch_37">
    <path clip-path="url(#p40528b2be9)" d="M 115.530594 273.312 
L 117.143839 273.312 
L 117.143839 158.379907 
L 115.530594 158.379907 
z
" style="fill:#1f77b4;"/>
   </g>
   <g id="patch_38">
    <path clip-path="url(#p40528b2be9)" d="M 117.143839 273.312 
L 118.757084 273.312 
L 118.757084 151.012465 
L 117.143839 151.012465 
z
" style="fill:#1f77b4;"/>
   </g>
   <g id="patch_39">
    <path clip-path="url(#p40528b2be9)" d="M 118.757084 273.312 
L 120.370328 273.312 
L 120.370328 151.749209 
L 118.757084 151.749209 
z
" style="fill:#1f77b4;"/>
   </g>
   <g id="patch_40">
    <path clip-path="url(#p40528b2be9)" d="M 120.370328 273.312 
L 121.983573 273.312 
L 121.983573 139.224558 
L 120.370328 139.224558 
z
" style="fill:#1f77b4;"/>
   </g>
   <g id="patch_41">
    <path clip-path="url(#p40528b2be9)" d="M 121.983573 273.312 
L 123.596817 273.312 
L 123.596817 168.694326 
L 121.983573 168.694326 
z
" style="fill:#1f77b4;"/>
   </g>
   <g id="patch_42">
    <path clip-path="url(#p40528b2be9)" d="M 123.596817 273.312 
L 125.210062 273.312 
L 125.210062 149.538977 
L 123.596817 149.538977 
z
" style="fill:#1f77b4;"/>
   </g>
   <g id="patch_43">
    <path clip-path="url(#p40528b2be9)" d="M 125.210062 273.312 
L 126.823307 273.312 
L 126.823307 133.330605 
L 125.210062 133.330605 
z
" style="fill:#1f77b4;"/>
   </g>
   <g id="patch_44">
    <path clip-path="url(#p40528b2be9)" d="M 126.823307 273.312 
L 128.436551 273.312 
L 128.436551 136.277581 
L 126.823307 136.277581 
z
" style="fill:#1f77b4;"/>
   </g>
   <g id="patch_45">
    <path clip-path="url(#p40528b2be9)" d="M 128.436551 273.312 
L 130.049796 273.312 
L 130.049796 128.91014 
L 128.436551 128.91014 
z
" style="fill:#1f77b4;"/>
   </g>
   <g id="patch_46">
    <path clip-path="url(#p40528b2be9)" d="M 130.049796 273.312 
L 131.663041 273.312 
L 131.663041 137.014326 
L 130.049796 137.014326 
z
" style="fill:#1f77b4;"/>
   </g>
   <g id="patch_47">
    <path clip-path="url(#p40528b2be9)" d="M 131.663041 273.312 
L 133.276285 273.312 
L 133.276285 129.646884 
L 131.663041 129.646884 
z
" style="fill:#1f77b4;"/>
   </g>
   <g id="patch_48">
    <path clip-path="url(#p40528b2be9)" d="M 133.276285 273.312 
L 134.88953 273.312 
L 134.88953 113.438512 
L 133.276285 113.438512 
z
" style="fill:#1f77b4;"/>
   </g>
   <g id="patch_49">
    <path clip-path="url(#p40528b2be9)" d="M 134.88953 273.312 
L 136.502775 273.312 
L 136.502775 111.228279 
L 134.88953 111.228279 
z
" style="fill:#1f77b4;"/>
   </g>
   <g id="patch_50">
    <path clip-path="url(#p40528b2be9)" d="M 136.502775 273.312 
L 138.116019 273.312 
L 138.116019 116.385488 
L 136.502775 116.385488 
z
" style="fill:#1f77b4;"/>
   </g>
   <g id="patch_51">
    <path clip-path="url(#p40528b2be9)" d="M 138.116019 273.312 
L 139.729264 273.312 
L 139.729264 115.648744 
L 138.116019 115.648744 
z
" style="fill:#1f77b4;"/>
   </g>
   <g id="patch_52">
    <path clip-path="url(#p40528b2be9)" d="M 139.729264 273.312 
L 141.342508 273.312 
L 141.342508 109.018047 
L 139.729264 109.018047 
z
" style="fill:#1f77b4;"/>
   </g>
   <g id="patch_53">
    <path clip-path="url(#p40528b2be9)" d="M 141.342508 273.312 
L 142.955753 273.312 
L 142.955753 93.546419 
L 141.342508 93.546419 
z
" style="fill:#1f77b4;"/>
   </g>
   <g id="patch_54">
    <path clip-path="url(#p40528b2be9)" d="M 142.955753 273.312 
L 144.568998 273.312 
L 144.568998 104.597581 
L 142.955753 104.597581 
z
" style="fill:#1f77b4;"/>
   </g>
   <g id="patch_55">
    <path clip-path="url(#p40528b2be9)" d="M 144.568998 273.312 
L 146.182242 273.312 
L 146.182242 101.650605 
L 144.568998 101.650605 
z
" style="fill:#1f77b4;"/>
   </g>
   <g id="patch_56">
    <path clip-path="url(#p40528b2be9)" d="M 146.182242 273.312 
L 147.795487 273.312 
L 147.795487 115.648744 
L 146.182242 115.648744 
z
" style="fill:#1f77b4;"/>
   </g>
   <g id="patch_57">
    <path clip-path="url(#p40528b2be9)" d="M 147.795487 273.312 
L 149.408732 273.312 
L 149.408732 99.440372 
L 147.795487 99.440372 
z
" style="fill:#1f77b4;"/>
   </g>
   <g id="patch_58">
    <path clip-path="url(#p40528b2be9)" d="M 149.408732 273.312 
L 151.021976 273.312 
L 151.021976 90.599442 
L 149.408732 90.599442 
z
" style="fill:#1f77b4;"/>
   </g>
   <g id="patch_59">
    <path clip-path="url(#p40528b2be9)" d="M 151.021976 273.312 
L 152.635221 273.312 
L 152.635221 103.124093 
L 151.021976 103.124093 
z
" style="fill:#1f77b4;"/>
   </g>
   <g id="patch_60">
    <path clip-path="url(#p40528b2be9)" d="M 152.635221 273.312 
L 154.248466 273.312 
L 154.248466 95.756651 
L 152.635221 95.756651 
z
" style="fill:#1f77b4;"/>
   </g>
   <g id="patch_61">
    <path clip-path="url(#p40528b2be9)" d="M 154.248466 273.312 
L 155.86171 273.312 
L 155.86171 70.707349 
L 154.248466 70.707349 
z
" style="fill:#1f77b4;"/>
   </g>
   <g id="patch_62">
    <path clip-path="url(#p40528b2be9)" d="M 155.86171 273.312 
L 157.474955 273.312 
L 157.474955 75.127814 
L 155.86171 75.127814 
z
" style="fill:#1f77b4;"/>
   </g>
   <g id="patch_63">
    <path clip-path="url(#p40528b2be9)" d="M 157.474955 273.312 
L 159.088199 273.312 
L 159.088199 88.389209 
L 157.474955 88.389209 
z
" style="fill:#1f77b4;"/>
   </g>
   <g id="patch_64">
    <path clip-path="url(#p40528b2be9)" d="M 159.088199 273.312 
L 160.701444 273.312 
L 160.701444 95.756651 
L 159.088199 95.756651 
z
" style="fill:#1f77b4;"/>
   </g>
   <g id="patch_65">
    <path clip-path="url(#p40528b2be9)" d="M 160.701444 273.312 
L 162.314689 273.312 
L 162.314689 75.127814 
L 160.701444 75.127814 
z
" style="fill:#1f77b4;"/>
   </g>
   <g id="patch_66">
    <path clip-path="url(#p40528b2be9)" d="M 162.314689 273.312 
L 163.927933 273.312 
L 163.927933 93.546419 
L 162.314689 93.546419 
z
" style="fill:#1f77b4;"/>
   </g>
   <g id="patch_67">
    <path clip-path="url(#p40528b2be9)" d="M 163.927933 273.312 
L 165.541178 273.312 
L 165.541178 83.232 
L 163.927933 83.232 
z
" style="fill:#1f77b4;"/>
   </g>
   <g id="patch_68">
    <path clip-path="url(#p40528b2be9)" d="M 165.541178 273.312 
L 167.154423 273.312 
L 167.154423 62.603163 
L 165.541178 62.603163 
z
" style="fill:#1f77b4;"/>
   </g>
   <g id="patch_69">
    <path clip-path="url(#p40528b2be9)" d="M 167.154423 273.312 
L 168.767667 273.312 
L 168.767667 102.387349 
L 167.154423 102.387349 
z
" style="fill:#1f77b4;"/>
   </g>
   <g id="patch_70">
    <path clip-path="url(#p40528b2be9)" d="M 168.767667 273.312 
L 170.380912 273.312 
L 170.380912 57.445953 
L 168.767667 57.445953 
z
" style="fill:#1f77b4;"/>
   </g>
   <g id="patch_71">
    <path clip-path="url(#p40528b2be9)" d="M 170.380912 273.312 
L 171.994157 273.312 
L 171.994157 72.917581 
L 170.380912 72.917581 
z
" style="fill:#1f77b4;"/>
   </g>
   <g id="patch_72">
    <path clip-path="url(#p40528b2be9)" d="M 171.994157 273.312 
L 173.607401 273.312 
L 173.607401 64.076651 
L 171.994157 64.076651 
z
" style="fill:#1f77b4;"/>
   </g>
   <g id="patch_73">
    <path clip-path="url(#p40528b2be9)" d="M 173.607401 273.312 
L 175.220646 273.312 
L 175.220646 63.339907 
L 173.607401 63.339907 
z
" style="fill:#1f77b4;"/>
   </g>
   <g id="patch_74">
    <path clip-path="url(#p40528b2be9)" d="M 175.220646 273.312 
L 176.83389 273.312 
L 176.83389 67.760372 
L 175.220646 67.760372 
z
" style="fill:#1f77b4;"/>
   </g>
   <g id="patch_75">
    <path clip-path="url(#p40528b2be9)" d="M 176.83389 273.312 
L 178.447135 273.312 
L 178.447135 75.127814 
L 176.83389 75.127814 
z
" style="fill:#1f77b4;"/>
   </g>
   <g id="patch_76">
    <path clip-path="url(#p40528b2be9)" d="M 178.447135 273.312 
L 180.06038 273.312 
L 180.06038 81.758512 
L 178.447135 81.758512 
z
" style="fill:#1f77b4;"/>
   </g>
   <g id="patch_77">
    <path clip-path="url(#p40528b2be9)" d="M 180.06038 273.312 
L 181.673624 273.312 
L 181.673624 63.339907 
L 180.06038 63.339907 
z
" style="fill:#1f77b4;"/>
   </g>
   <g id="patch_78">
    <path clip-path="url(#p40528b2be9)" d="M 181.673624 273.312 
L 183.286869 273.312 
L 183.286869 45.658047 
L 181.673624 45.658047 
z
" style="fill:#1f77b4;"/>
   </g>
   <g id="patch_79">
    <path clip-path="url(#p40528b2be9)" d="M 183.286869 273.312 
L 184.900114 273.312 
L 184.900114 47.868279 
L 183.286869 47.868279 
z
" style="fill:#1f77b4;"/>
   </g>
   <g id="patch_80">
    <path clip-path="url(#p40528b2be9)" d="M 184.900114 273.312 
L 186.513358 273.312 
L 186.513358 56.709209 
L 184.900114 56.709209 
z
" style="fill:#1f77b4;"/>
   </g>
   <g id="patch_81">
    <path clip-path="url(#p40528b2be9)" d="M 186.513358 273.312 
L 188.126603 273.312 
L 188.126603 60.39293 
L 186.513358 60.39293 
z
" style="fill:#1f77b4;"/>
   </g>
   <g id="patch_82">
    <path clip-path="url(#p40528b2be9)" d="M 188.126603 273.312 
L 189.739847 273.312 
L 189.739847 69.970605 
L 188.126603 69.970605 
z
" style="fill:#1f77b4;"/>
   </g>
   <g id="patch_83">
    <path clip-path="url(#p40528b2be9)" d="M 189.739847 273.312 
L 191.353092 273.312 
L 191.353092 47.131535 
L 189.739847 47.131535 
z
" style="fill:#1f77b4;"/>
   </g>
   <g id="patch_84">
    <path clip-path="url(#p40528b2be9)" d="M 191.353092 273.312 
L 192.966337 273.312 
L 192.966337 74.39107 
L 191.353092 74.39107 
z
" style="fill:#1f77b4;"/>
   </g>
   <g id="patch_85">
    <path clip-path="url(#p40528b2be9)" d="M 192.966337 273.312 
L 194.579581 273.312 
L 194.579581 49.341767 
L 192.966337 49.341767 
z
" style="fill:#1f77b4;"/>
   </g>
   <g id="patch_86">
    <path clip-path="url(#p40528b2be9)" d="M 194.579581 273.312 
L 196.192826 273.312 
L 196.192826 40.500837 
L 194.579581 40.500837 
z
" style="fill:#1f77b4;"/>
   </g>
   <g id="patch_87">
    <path clip-path="url(#p40528b2be9)" d="M 196.192826 273.312 
L 197.806071 273.312 
L 197.806071 34.606884 
L 196.192826 34.606884 
z
" style="fill:#1f77b4;"/>
   </g>
   <g id="patch_88">
    <path clip-path="url(#p40528b2be9)" d="M 197.806071 273.312 
L 199.419315 273.312 
L 199.419315 38.290605 
L 197.806071 38.290605 
z
" style="fill:#1f77b4;"/>
   </g>
   <g id="patch_89">
    <path clip-path="url(#p40528b2be9)" d="M 199.419315 273.312 
L 201.03256 273.312 
L 201.03256 41.974326 
L 199.419315 41.974326 
z
" style="fill:#1f77b4;"/>
   </g>
   <g id="patch_90">
    <path clip-path="url(#p40528b2be9)" d="M 201.03256 273.312 
L 202.645805 273.312 
L 202.645805 65.55014 
L 201.03256 65.55014 
z
" style="fill:#1f77b4;"/>
   </g>
   <g id="patch_91">
    <path clip-path="url(#p40528b2be9)" d="M 202.645805 273.312 
L 204.259049 273.312 
L 204.259049 62.603163 
L 202.645805 62.603163 
z
" style="fill:#1f77b4;"/>
   </g>
   <g id="patch_92">
    <path clip-path="url(#p40528b2be9)" d="M 204.259049 273.312 
L 205.872294 273.312 
L 205.872294 55.972465 
L 204.259049 55.972465 
z
" style="fill:#1f77b4;"/>
   </g>
   <g id="patch_93">
    <path clip-path="url(#p40528b2be9)" d="M 205.872294 273.312 
L 207.485538 273.312 
L 207.485538 43.447814 
L 205.872294 43.447814 
z
" style="fill:#1f77b4;"/>
   </g>
   <g id="patch_94">
    <path clip-path="url(#p40528b2be9)" d="M 207.485538 273.312 
L 209.098783 273.312 
L 209.098783 52.288744 
L 207.485538 52.288744 
z
" style="fill:#1f77b4;"/>
   </g>
   <g id="patch_95">
    <path clip-path="url(#p40528b2be9)" d="M 209.098783 273.312 
L 210.712028 273.312 
L 210.712028 52.288744 
L 209.098783 52.288744 
z
" style="fill:#1f77b4;"/>
   </g>
   <g id="patch_96">
    <path clip-path="url(#p40528b2be9)" d="M 210.712028 273.312 
L 212.325272 273.312 
L 212.325272 52.288744 
L 210.712028 52.288744 
z
" style="fill:#1f77b4;"/>
   </g>
   <g id="patch_97">
    <path clip-path="url(#p40528b2be9)" d="M 212.325272 273.312 
L 213.938517 273.312 
L 213.938517 43.447814 
L 212.325272 43.447814 
z
" style="fill:#1f77b4;"/>
   </g>
   <g id="patch_98">
    <path clip-path="url(#p40528b2be9)" d="M 213.938517 273.312 
L 215.551762 273.312 
L 215.551762 50.815256 
L 213.938517 50.815256 
z
" style="fill:#1f77b4;"/>
   </g>
   <g id="patch_99">
    <path clip-path="url(#p40528b2be9)" d="M 215.551762 273.312 
L 217.165006 273.312 
L 217.165006 49.341767 
L 215.551762 49.341767 
z
" style="fill:#1f77b4;"/>
   </g>
   <g id="patch_100">
    <path clip-path="url(#p40528b2be9)" d="M 217.165006 273.312 
L 218.778251 273.312 
L 218.778251 46.394791 
L 217.165006 46.394791 
z
" style="fill:#1f77b4;"/>
   </g>
   <g id="patch_101">
    <path clip-path="url(#p40528b2be9)" d="M 218.778251 273.312 
L 220.391496 273.312 
L 220.391496 61.129674 
L 218.778251 61.129674 
z
" style="fill:#1f77b4;"/>
   </g>
   <g id="patch_102">
    <path clip-path="url(#p40528b2be9)" d="M 220.391496 273.312 
L 222.00474 273.312 
L 222.00474 42.71107 
L 220.391496 42.71107 
z
" style="fill:#1f77b4;"/>
   </g>
   <g id="patch_103">
    <path clip-path="url(#p40528b2be9)" d="M 222.00474 273.312 
L 223.617985 273.312 
L 223.617985 48.605023 
L 222.00474 48.605023 
z
" style="fill:#1f77b4;"/>
   </g>
   <g id="patch_104">
    <path clip-path="url(#p40528b2be9)" d="M 223.617985 273.312 
L 225.231229 273.312 
L 225.231229 53.025488 
L 223.617985 53.025488 
z
" style="fill:#1f77b4;"/>
   </g>
   <g id="patch_105">
    <path clip-path="url(#p40528b2be9)" d="M 225.231229 273.312 
L 226.844474 273.312 
L 226.844474 38.290605 
L 225.231229 38.290605 
z
" style="fill:#1f77b4;"/>
   </g>
   <g id="patch_106">
    <path clip-path="url(#p40528b2be9)" d="M 226.844474 273.312 
L 228.457719 273.312 
L 228.457719 43.447814 
L 226.844474 43.447814 
z
" style="fill:#1f77b4;"/>
   </g>
   <g id="patch_107">
    <path clip-path="url(#p40528b2be9)" d="M 228.457719 273.312 
L 230.070963 273.312 
L 230.070963 70.707349 
L 228.457719 70.707349 
z
" style="fill:#1f77b4;"/>
   </g>
   <g id="patch_108">
    <path clip-path="url(#p40528b2be9)" d="M 230.070963 273.312 
L 231.684208 273.312 
L 231.684208 40.500837 
L 230.070963 40.500837 
z
" style="fill:#1f77b4;"/>
   </g>
   <g id="patch_109">
    <path clip-path="url(#p40528b2be9)" d="M 231.684208 273.312 
L 233.297453 273.312 
L 233.297453 50.078512 
L 231.684208 50.078512 
z
" style="fill:#1f77b4;"/>
   </g>
   <g id="patch_110">
    <path clip-path="url(#p40528b2be9)" d="M 233.297453 273.312 
L 234.910697 273.312 
L 234.910697 47.131535 
L 233.297453 47.131535 
z
" style="fill:#1f77b4;"/>
   </g>
   <g id="patch_111">
    <path clip-path="url(#p40528b2be9)" d="M 234.910697 273.312 
L 236.523942 273.312 
L 236.523942 41.974326 
L 234.910697 41.974326 
z
" style="fill:#1f77b4;"/>
   </g>
   <g id="patch_112">
    <path clip-path="url(#p40528b2be9)" d="M 236.523942 273.312 
L 238.137187 273.312 
L 238.137187 55.235721 
L 236.523942 55.235721 
z
" style="fill:#1f77b4;"/>
   </g>
   <g id="patch_113">
    <path clip-path="url(#p40528b2be9)" d="M 238.137187 273.312 
L 239.750431 273.312 
L 239.750431 41.237581 
L 238.137187 41.237581 
z
" style="fill:#1f77b4;"/>
   </g>
   <g id="patch_114">
    <path clip-path="url(#p40528b2be9)" d="M 239.750431 273.312 
L 241.363676 273.312 
L 241.363676 53.762233 
L 239.750431 53.762233 
z
" style="fill:#1f77b4;"/>
   </g>
   <g id="patch_115">
    <path clip-path="url(#p40528b2be9)" d="M 241.363676 273.312 
L 242.97692 273.312 
L 242.97692 27.976186 
L 241.363676 27.976186 
z
" style="fill:#1f77b4;"/>
   </g>
   <g id="patch_116">
    <path clip-path="url(#p40528b2be9)" d="M 242.97692 273.312 
L 244.590165 273.312 
L 244.590165 19.872 
L 242.97692 19.872 
z
" style="fill:#1f77b4;"/>
   </g>
   <g id="patch_117">
    <path clip-path="url(#p40528b2be9)" d="M 244.590165 273.312 
L 246.20341 273.312 
L 246.20341 58.182698 
L 244.590165 58.182698 
z
" style="fill:#1f77b4;"/>
   </g>
   <g id="patch_118">
    <path clip-path="url(#p40528b2be9)" d="M 246.20341 273.312 
L 247.816654 273.312 
L 247.816654 47.131535 
L 246.20341 47.131535 
z
" style="fill:#1f77b4;"/>
   </g>
   <g id="patch_119">
    <path clip-path="url(#p40528b2be9)" d="M 247.816654 273.312 
L 249.429899 273.312 
L 249.429899 61.129674 
L 247.816654 61.129674 
z
" style="fill:#1f77b4;"/>
   </g>
   <g id="patch_120">
    <path clip-path="url(#p40528b2be9)" d="M 249.429899 273.312 
L 251.043144 273.312 
L 251.043144 38.290605 
L 249.429899 38.290605 
z
" style="fill:#1f77b4;"/>
   </g>
   <g id="patch_121">
    <path clip-path="url(#p40528b2be9)" d="M 251.043144 273.312 
L 252.656388 273.312 
L 252.656388 41.974326 
L 251.043144 41.974326 
z
" style="fill:#1f77b4;"/>
   </g>
   <g id="patch_122">
    <path clip-path="url(#p40528b2be9)" d="M 252.656388 273.312 
L 254.269633 273.312 
L 254.269633 44.921302 
L 252.656388 44.921302 
z
" style="fill:#1f77b4;"/>
   </g>
   <g id="patch_123">
    <path clip-path="url(#p40528b2be9)" d="M 254.269633 273.312 
L 255.882878 273.312 
L 255.882878 53.025488 
L 254.269633 53.025488 
z
" style="fill:#1f77b4;"/>
   </g>
   <g id="patch_124">
    <path clip-path="url(#p40528b2be9)" d="M 255.882878 273.312 
L 257.496122 273.312 
L 257.496122 58.182698 
L 255.882878 58.182698 
z
" style="fill:#1f77b4;"/>
   </g>
   <g id="patch_125">
    <path clip-path="url(#p40528b2be9)" d="M 257.496122 273.312 
L 259.109367 273.312 
L 259.109367 44.921302 
L 257.496122 44.921302 
z
" style="fill:#1f77b4;"/>
   </g>
   <g id="patch_126">
    <path clip-path="url(#p40528b2be9)" d="M 259.109367 273.312 
L 260.722611 273.312 
L 260.722611 64.076651 
L 259.109367 64.076651 
z
" style="fill:#1f77b4;"/>
   </g>
   <g id="patch_127">
    <path clip-path="url(#p40528b2be9)" d="M 260.722611 273.312 
L 262.335856 273.312 
L 262.335856 81.021767 
L 260.722611 81.021767 
z
" style="fill:#1f77b4;"/>
   </g>
   <g id="patch_128">
    <path clip-path="url(#p40528b2be9)" d="M 262.335856 273.312 
L 263.949101 273.312 
L 263.949101 50.078512 
L 262.335856 50.078512 
z
" style="fill:#1f77b4;"/>
   </g>
   <g id="patch_129">
    <path clip-path="url(#p40528b2be9)" d="M 263.949101 273.312 
L 265.562345 273.312 
L 265.562345 44.184558 
L 263.949101 44.184558 
z
" style="fill:#1f77b4;"/>
   </g>
   <g id="patch_130">
    <path clip-path="url(#p40528b2be9)" d="M 265.562345 273.312 
L 267.17559 273.312 
L 267.17559 45.658047 
L 265.562345 45.658047 
z
" style="fill:#1f77b4;"/>
   </g>
   <g id="patch_131">
    <path clip-path="url(#p40528b2be9)" d="M 267.17559 273.312 
L 268.788835 273.312 
L 268.788835 71.444093 
L 267.17559 71.444093 
z
" style="fill:#1f77b4;"/>
   </g>
   <g id="patch_132">
    <path clip-path="url(#p40528b2be9)" d="M 268.788835 273.312 
L 270.402079 273.312 
L 270.402079 66.286884 
L 268.788835 66.286884 
z
" style="fill:#1f77b4;"/>
   </g>
   <g id="patch_133">
    <path clip-path="url(#p40528b2be9)" d="M 270.402079 273.312 
L 272.015324 273.312 
L 272.015324 58.919442 
L 270.402079 58.919442 
z
" style="fill:#1f77b4;"/>
   </g>
   <g id="patch_134">
    <path clip-path="url(#p40528b2be9)" d="M 272.015324 273.312 
L 273.628568 273.312 
L 273.628568 63.339907 
L 272.015324 63.339907 
z
" style="fill:#1f77b4;"/>
   </g>
   <g id="patch_135">
    <path clip-path="url(#p40528b2be9)" d="M 273.628568 273.312 
L 275.241813 273.312 
L 275.241813 78.074791 
L 273.628568 78.074791 
z
" style="fill:#1f77b4;"/>
   </g>
   <g id="patch_136">
    <path clip-path="url(#p40528b2be9)" d="M 275.241813 273.312 
L 276.855058 273.312 
L 276.855058 84.705488 
L 275.241813 84.705488 
z
" style="fill:#1f77b4;"/>
   </g>
   <g id="patch_137">
    <path clip-path="url(#p40528b2be9)" d="M 276.855058 273.312 
L 278.468302 273.312 
L 278.468302 81.021767 
L 276.855058 81.021767 
z
" style="fill:#1f77b4;"/>
   </g>
   <g id="patch_138">
    <path clip-path="url(#p40528b2be9)" d="M 278.468302 273.312 
L 280.081547 273.312 
L 280.081547 73.654326 
L 278.468302 73.654326 
z
" style="fill:#1f77b4;"/>
   </g>
   <g id="patch_139">
    <path clip-path="url(#p40528b2be9)" d="M 280.081547 273.312 
L 281.694792 273.312 
L 281.694792 89.125953 
L 280.081547 89.125953 
z
" style="fill:#1f77b4;"/>
   </g>
   <g id="patch_140">
    <path clip-path="url(#p40528b2be9)" d="M 281.694792 273.312 
L 283.308036 273.312 
L 283.308036 75.864558 
L 281.694792 75.864558 
z
" style="fill:#1f77b4;"/>
   </g>
   <g id="patch_141">
    <path clip-path="url(#p40528b2be9)" d="M 283.308036 273.312 
L 284.921281 273.312 
L 284.921281 89.862698 
L 283.308036 89.862698 
z
" style="fill:#1f77b4;"/>
   </g>
   <g id="patch_142">
    <path clip-path="url(#p40528b2be9)" d="M 284.921281 273.312 
L 286.534526 273.312 
L 286.534526 70.707349 
L 284.921281 70.707349 
z
" style="fill:#1f77b4;"/>
   </g>
   <g id="patch_143">
    <path clip-path="url(#p40528b2be9)" d="M 286.534526 273.312 
L 288.14777 273.312 
L 288.14777 89.125953 
L 286.534526 89.125953 
z
" style="fill:#1f77b4;"/>
   </g>
   <g id="patch_144">
    <path clip-path="url(#p40528b2be9)" d="M 288.14777 273.312 
L 289.761015 273.312 
L 289.761015 100.91386 
L 288.14777 100.91386 
z
" style="fill:#1f77b4;"/>
   </g>
   <g id="patch_145">
    <path clip-path="url(#p40528b2be9)" d="M 289.761015 273.312 
L 291.374259 273.312 
L 291.374259 80.285023 
L 289.761015 80.285023 
z
" style="fill:#1f77b4;"/>
   </g>
   <g id="patch_146">
    <path clip-path="url(#p40528b2be9)" d="M 291.374259 273.312 
L 292.987504 273.312 
L 292.987504 83.968744 
L 291.374259 83.968744 
z
" style="fill:#1f77b4;"/>
   </g>
   <g id="patch_147">
    <path clip-path="url(#p40528b2be9)" d="M 292.987504 273.312 
L 294.600749 273.312 
L 294.600749 98.703628 
L 292.987504 98.703628 
z
" style="fill:#1f77b4;"/>
   </g>
   <g id="patch_148">
    <path clip-path="url(#p40528b2be9)" d="M 294.600749 273.312 
L 296.213993 273.312 
L 296.213993 95.019907 
L 294.600749 95.019907 
z
" style="fill:#1f77b4;"/>
   </g>
   <g id="patch_149">
    <path clip-path="url(#p40528b2be9)" d="M 296.213993 273.312 
L 297.827238 273.312 
L 297.827238 103.124093 
L 296.213993 103.124093 
z
" style="fill:#1f77b4;"/>
   </g>
   <g id="patch_150">
    <path clip-path="url(#p40528b2be9)" d="M 297.827238 273.312 
L 299.440483 273.312 
L 299.440483 114.175256 
L 297.827238 114.175256 
z
" style="fill:#1f77b4;"/>
   </g>
   <g id="patch_151">
    <path clip-path="url(#p40528b2be9)" d="M 299.440483 273.312 
L 301.053727 273.312 
L 301.053727 98.703628 
L 299.440483 98.703628 
z
" style="fill:#1f77b4;"/>
   </g>
   <g id="patch_152">
    <path clip-path="url(#p40528b2be9)" d="M 301.053727 273.312 
L 302.666972 273.312 
L 302.666972 109.754791 
L 301.053727 109.754791 
z
" style="fill:#1f77b4;"/>
   </g>
   <g id="patch_153">
    <path clip-path="url(#p40528b2be9)" d="M 302.666972 273.312 
L 304.280217 273.312 
L 304.280217 106.07107 
L 302.666972 106.07107 
z
" style="fill:#1f77b4;"/>
   </g>
   <g id="patch_154">
    <path clip-path="url(#p40528b2be9)" d="M 304.280217 273.312 
L 305.893461 273.312 
L 305.893461 110.491535 
L 304.280217 110.491535 
z
" style="fill:#1f77b4;"/>
   </g>
   <g id="patch_155">
    <path clip-path="url(#p40528b2be9)" d="M 305.893461 273.312 
L 307.506706 273.312 
L 307.506706 124.489674 
L 305.893461 124.489674 
z
" style="fill:#1f77b4;"/>
   </g>
   <g id="patch_156">
    <path clip-path="url(#p40528b2be9)" d="M 307.506706 273.312 
L 309.11995 273.312 
L 309.11995 137.75107 
L 307.506706 137.75107 
z
" style="fill:#1f77b4;"/>
   </g>
   <g id="patch_157">
    <path clip-path="url(#p40528b2be9)" d="M 309.11995 273.312 
L 310.733195 273.312 
L 310.733195 98.703628 
L 309.11995 98.703628 
z
" style="fill:#1f77b4;"/>
   </g>
   <g id="patch_158">
    <path clip-path="url(#p40528b2be9)" d="M 310.733195 273.312 
L 312.34644 273.312 
L 312.34644 122.279442 
L 310.733195 122.279442 
z
" style="fill:#1f77b4;"/>
   </g>
   <g id="patch_159">
    <path clip-path="url(#p40528b2be9)" d="M 312.34644 273.312 
L 313.959684 273.312 
L 313.959684 123.75293 
L 312.34644 123.75293 
z
" style="fill:#1f77b4;"/>
   </g>
   <g id="patch_160">
    <path clip-path="url(#p40528b2be9)" d="M 313.959684 273.312 
L 315.572929 273.312 
L 315.572929 140.698047 
L 313.959684 140.698047 
z
" style="fill:#1f77b4;"/>
   </g>
   <g id="patch_161">
    <path clip-path="url(#p40528b2be9)" d="M 315.572929 273.312 
L 317.186174 273.312 
L 317.186174 127.436651 
L 315.572929 127.436651 
z
" style="fill:#1f77b4;"/>
   </g>
   <g id="patch_162">
    <path clip-path="url(#p40528b2be9)" d="M 317.186174 273.312 
L 318.799418 273.312 
L 318.799418 136.277581 
L 317.186174 136.277581 
z
" style="fill:#1f77b4;"/>
   </g>
   <g id="patch_163">
    <path clip-path="url(#p40528b2be9)" d="M 318.799418 273.312 
L 320.412663 273.312 
L 320.412663 129.646884 
L 318.799418 129.646884 
z
" style="fill:#1f77b4;"/>
   </g>
   <g id="patch_164">
    <path clip-path="url(#p40528b2be9)" d="M 320.412663 273.312 
L 322.025908 273.312 
L 322.025908 142.908279 
L 320.412663 142.908279 
z
" style="fill:#1f77b4;"/>
   </g>
   <g id="patch_165">
    <path clip-path="url(#p40528b2be9)" d="M 322.025908 273.312 
L 323.639152 273.312 
L 323.639152 148.802233 
L 322.025908 148.802233 
z
" style="fill:#1f77b4;"/>
   </g>
   <g id="patch_166">
    <path clip-path="url(#p40528b2be9)" d="M 323.639152 273.312 
L 325.252397 273.312 
L 325.252397 148.802233 
L 323.639152 148.802233 
z
" style="fill:#1f77b4;"/>
   </g>
   <g id="patch_167">
    <path clip-path="url(#p40528b2be9)" d="M 325.252397 273.312 
L 326.865641 273.312 
L 326.865641 141.434791 
L 325.252397 141.434791 
z
" style="fill:#1f77b4;"/>
   </g>
   <g id="patch_168">
    <path clip-path="url(#p40528b2be9)" d="M 326.865641 273.312 
L 328.478886 273.312 
L 328.478886 151.749209 
L 326.865641 151.749209 
z
" style="fill:#1f77b4;"/>
   </g>
   <g id="patch_169">
    <path clip-path="url(#p40528b2be9)" d="M 328.478886 273.312 
L 330.092131 273.312 
L 330.092131 141.434791 
L 328.478886 141.434791 
z
" style="fill:#1f77b4;"/>
   </g>
   <g id="patch_170">
    <path clip-path="url(#p40528b2be9)" d="M 330.092131 273.312 
L 331.705375 273.312 
L 331.705375 157.643163 
L 330.092131 157.643163 
z
" style="fill:#1f77b4;"/>
   </g>
   <g id="patch_171">
    <path clip-path="url(#p40528b2be9)" d="M 331.705375 273.312 
L 333.31862 273.312 
L 333.31862 155.43293 
L 331.705375 155.43293 
z
" style="fill:#1f77b4;"/>
   </g>
   <g id="patch_172">
    <path clip-path="url(#p40528b2be9)" d="M 333.31862 273.312 
L 334.931865 273.312 
L 334.931865 161.326884 
L 333.31862 161.326884 
z
" style="fill:#1f77b4;"/>
   </g>
   <g id="patch_173">
    <path clip-path="url(#p40528b2be9)" d="M 334.931865 273.312 
L 336.545109 273.312 
L 336.545109 153.959442 
L 334.931865 153.959442 
z
" style="fill:#1f77b4;"/>
   </g>
   <g id="patch_174">
    <path clip-path="url(#p40528b2be9)" d="M 336.545109 273.312 
L 338.158354 273.312 
L 338.158354 176.798512 
L 336.545109 176.798512 
z
" style="fill:#1f77b4;"/>
   </g>
   <g id="patch_175">
    <path clip-path="url(#p40528b2be9)" d="M 338.158354 273.312 
L 339.771598 273.312 
L 339.771598 188.586419 
L 338.158354 188.586419 
z
" style="fill:#1f77b4;"/>
   </g>
   <g id="patch_176">
    <path clip-path="url(#p40528b2be9)" d="M 339.771598 273.312 
L 341.384843 273.312 
L 341.384843 163.537116 
L 339.771598 163.537116 
z
" style="fill:#1f77b4;"/>
   </g>
   <g id="patch_177">
    <path clip-path="url(#p40528b2be9)" d="M 341.384843 273.312 
L 342.998088 273.312 
L 342.998088 171.641302 
L 341.384843 171.641302 
z
" style="fill:#1f77b4;"/>
   </g>
   <g id="patch_178">
    <path clip-path="url(#p40528b2be9)" d="M 342.998088 273.312 
L 344.611332 273.312 
L 344.611332 170.904558 
L 342.998088 170.904558 
z
" style="fill:#1f77b4;"/>
   </g>
   <g id="patch_179">
    <path clip-path="url(#p40528b2be9)" d="M 344.611332 273.312 
L 346.224577 273.312 
L 346.224577 193.743628 
L 344.611332 193.743628 
z
" style="fill:#1f77b4;"/>
   </g>
   <g id="patch_180">
    <path clip-path="url(#p40528b2be9)" d="M 346.224577 273.312 
L 347.837822 273.312 
L 347.837822 186.376186 
L 346.224577 186.376186 
z
" style="fill:#1f77b4;"/>
   </g>
   <g id="patch_181">
    <path clip-path="url(#p40528b2be9)" d="M 347.837822 273.312 
L 349.451066 273.312 
L 349.451066 192.27014 
L 347.837822 192.27014 
z
" style="fill:#1f77b4;"/>
   </g>
   <g id="patch_182">
    <path clip-path="url(#p40528b2be9)" d="M 349.451066 273.312 
L 351.064311 273.312 
L 351.064311 188.586419 
L 349.451066 188.586419 
z
" style="fill:#1f77b4;"/>
   </g>
   <g id="patch_183">
    <path clip-path="url(#p40528b2be9)" d="M 351.064311 273.312 
L 352.677556 273.312 
L 352.677556 208.478512 
L 351.064311 208.478512 
z
" style="fill:#1f77b4;"/>
   </g>
   <g id="patch_184">
    <path clip-path="url(#p40528b2be9)" d="M 352.677556 273.312 
L 354.2908 273.312 
L 354.2908 220.266419 
L 352.677556 220.266419 
z
" style="fill:#1f77b4;"/>
   </g>
   <g id="patch_185">
    <path clip-path="url(#p40528b2be9)" d="M 354.2908 273.312 
L 355.904045 273.312 
L 355.904045 209.952 
L 354.2908 209.952 
z
" style="fill:#1f77b4;"/>
   </g>
   <g id="patch_186">
    <path clip-path="url(#p40528b2be9)" d="M 355.904045 273.312 
L 357.517289 273.312 
L 357.517289 220.266419 
L 355.904045 220.266419 
z
" style="fill:#1f77b4;"/>
   </g>
   <g id="patch_187">
    <path clip-path="url(#p40528b2be9)" d="M 357.517289 273.312 
L 359.130534 273.312 
L 359.130534 214.372465 
L 357.517289 214.372465 
z
" style="fill:#1f77b4;"/>
   </g>
   <g id="patch_188">
    <path clip-path="url(#p40528b2be9)" d="M 359.130534 273.312 
L 360.743779 273.312 
L 360.743779 214.372465 
L 359.130534 214.372465 
z
" style="fill:#1f77b4;"/>
   </g>
   <g id="patch_189">
    <path clip-path="url(#p40528b2be9)" d="M 360.743779 273.312 
L 362.357023 273.312 
L 362.357023 226.160372 
L 360.743779 226.160372 
z
" style="fill:#1f77b4;"/>
   </g>
   <g id="patch_190">
    <path clip-path="url(#p40528b2be9)" d="M 362.357023 273.312 
L 363.970268 273.312 
L 363.970268 227.63386 
L 362.357023 227.63386 
z
" style="fill:#1f77b4;"/>
   </g>
   <g id="patch_191">
    <path clip-path="url(#p40528b2be9)" d="M 363.970268 273.312 
L 365.583513 273.312 
L 365.583513 234.264558 
L 363.970268 234.264558 
z
" style="fill:#1f77b4;"/>
   </g>
   <g id="patch_192">
    <path clip-path="url(#p40528b2be9)" d="M 365.583513 273.312 
L 367.196757 273.312 
L 367.196757 237.948279 
L 365.583513 237.948279 
z
" style="fill:#1f77b4;"/>
   </g>
   <g id="patch_193">
    <path clip-path="url(#p40528b2be9)" d="M 367.196757 273.312 
L 368.810002 273.312 
L 368.810002 241.632 
L 367.196757 241.632 
z
" style="fill:#1f77b4;"/>
   </g>
   <g id="patch_194">
    <path clip-path="url(#p40528b2be9)" d="M 368.810002 273.312 
L 370.423247 273.312 
L 370.423247 237.948279 
L 368.810002 237.948279 
z
" style="fill:#1f77b4;"/>
   </g>
   <g id="patch_195">
    <path clip-path="url(#p40528b2be9)" d="M 370.423247 273.312 
L 372.036491 273.312 
L 372.036491 248.262698 
L 370.423247 248.262698 
z
" style="fill:#1f77b4;"/>
   </g>
   <g id="patch_196">
    <path clip-path="url(#p40528b2be9)" d="M 372.036491 273.312 
L 373.649736 273.312 
L 373.649736 250.47293 
L 372.036491 250.47293 
z
" style="fill:#1f77b4;"/>
   </g>
   <g id="patch_197">
    <path clip-path="url(#p40528b2be9)" d="M 373.649736 273.312 
L 375.26298 273.312 
L 375.26298 252.683163 
L 373.649736 252.683163 
z
" style="fill:#1f77b4;"/>
   </g>
   <g id="patch_198">
    <path clip-path="url(#p40528b2be9)" d="M 375.26298 273.312 
L 376.876225 273.312 
L 376.876225 255.63014 
L 375.26298 255.63014 
z
" style="fill:#1f77b4;"/>
   </g>
   <g id="patch_199">
    <path clip-path="url(#p40528b2be9)" d="M 376.876225 273.312 
L 378.48947 273.312 
L 378.48947 257.840372 
L 376.876225 257.840372 
z
" style="fill:#1f77b4;"/>
   </g>
   <g id="patch_200">
    <path clip-path="url(#p40528b2be9)" d="M 378.48947 273.312 
L 380.102714 273.312 
L 380.102714 267.418047 
L 378.48947 267.418047 
z
" style="fill:#1f77b4;"/>
   </g>
   <g id="patch_201">
    <path clip-path="url(#p40528b2be9)" d="M 380.102714 273.312 
L 381.715959 273.312 
L 381.715959 265.944558 
L 380.102714 265.944558 
z
" style="fill:#1f77b4;"/>
   </g>
   <g id="patch_202">
    <path clip-path="url(#p40528b2be9)" d="M 381.715959 273.312 
L 383.329204 273.312 
L 383.329204 265.944558 
L 381.715959 265.944558 
z
" style="fill:#1f77b4;"/>
   </g>
   <g id="matplotlib.axis_1">
    <g id="xtick_1">
     <g id="line2d_1">
      <defs>
       <path d="M 0 0 
L 0 3.5 
" id="m04c3808a07" style="stroke:#000000;stroke-width:0.8;"/>
      </defs>
      <g>
       <use style="stroke:#000000;stroke-width:0.8;" x="60.013977" xlink:href="#m04c3808a07" y="273.312"/>
      </g>
     </g>
     <g id="text_1">
      <!-- 0.0 -->
      <g transform="translate(52.062415 287.910437)scale(0.1 -0.1)">
       <defs>
        <path d="M 2034 4250 
Q 1547 4250 1301 3770 
Q 1056 3291 1056 2328 
Q 1056 1369 1301 889 
Q 1547 409 2034 409 
Q 2525 409 2770 889 
Q 3016 1369 3016 2328 
Q 3016 3291 2770 3770 
Q 2525 4250 2034 4250 
z
M 2034 4750 
Q 2819 4750 3233 4129 
Q 3647 3509 3647 2328 
Q 3647 1150 3233 529 
Q 2819 -91 2034 -91 
Q 1250 -91 836 529 
Q 422 1150 422 2328 
Q 422 3509 836 4129 
Q 1250 4750 2034 4750 
z
" id="DejaVuSans-30" transform="scale(0.015625)"/>
        <path d="M 684 794 
L 1344 794 
L 1344 0 
L 684 0 
L 684 794 
z
" id="DejaVuSans-2e" transform="scale(0.015625)"/>
       </defs>
       <use xlink:href="#DejaVuSans-30"/>
       <use x="63.623047" xlink:href="#DejaVuSans-2e"/>
       <use x="95.410156" xlink:href="#DejaVuSans-30"/>
      </g>
     </g>
    </g>
    <g id="xtick_2">
     <g id="line2d_2">
      <g>
       <use style="stroke:#000000;stroke-width:0.8;" x="101.350278" xlink:href="#m04c3808a07" y="273.312"/>
      </g>
     </g>
     <g id="text_2">
      <!-- 0.2 -->
      <g transform="translate(93.398715 287.910437)scale(0.1 -0.1)">
       <defs>
        <path d="M 1228 531 
L 3431 531 
L 3431 0 
L 469 0 
L 469 531 
Q 828 903 1448 1529 
Q 2069 2156 2228 2338 
Q 2531 2678 2651 2914 
Q 2772 3150 2772 3378 
Q 2772 3750 2511 3984 
Q 2250 4219 1831 4219 
Q 1534 4219 1204 4116 
Q 875 4013 500 3803 
L 500 4441 
Q 881 4594 1212 4672 
Q 1544 4750 1819 4750 
Q 2544 4750 2975 4387 
Q 3406 4025 3406 3419 
Q 3406 3131 3298 2873 
Q 3191 2616 2906 2266 
Q 2828 2175 2409 1742 
Q 1991 1309 1228 531 
z
" id="DejaVuSans-32" transform="scale(0.015625)"/>
       </defs>
       <use xlink:href="#DejaVuSans-30"/>
       <use x="63.623047" xlink:href="#DejaVuSans-2e"/>
       <use x="95.410156" xlink:href="#DejaVuSans-32"/>
      </g>
     </g>
    </g>
    <g id="xtick_3">
     <g id="line2d_3">
      <g>
       <use style="stroke:#000000;stroke-width:0.8;" x="142.686578" xlink:href="#m04c3808a07" y="273.312"/>
      </g>
     </g>
     <g id="text_3">
      <!-- 0.4 -->
      <g transform="translate(134.735016 287.910437)scale(0.1 -0.1)">
       <defs>
        <path d="M 2419 4116 
L 825 1625 
L 2419 1625 
L 2419 4116 
z
M 2253 4666 
L 3047 4666 
L 3047 1625 
L 3713 1625 
L 3713 1100 
L 3047 1100 
L 3047 0 
L 2419 0 
L 2419 1100 
L 313 1100 
L 313 1709 
L 2253 4666 
z
" id="DejaVuSans-34" transform="scale(0.015625)"/>
       </defs>
       <use xlink:href="#DejaVuSans-30"/>
       <use x="63.623047" xlink:href="#DejaVuSans-2e"/>
       <use x="95.410156" xlink:href="#DejaVuSans-34"/>
      </g>
     </g>
    </g>
    <g id="xtick_4">
     <g id="line2d_4">
      <g>
       <use style="stroke:#000000;stroke-width:0.8;" x="184.022879" xlink:href="#m04c3808a07" y="273.312"/>
      </g>
     </g>
     <g id="text_4">
      <!-- 0.6 -->
      <g transform="translate(176.071316 287.910437)scale(0.1 -0.1)">
       <defs>
        <path d="M 2113 2584 
Q 1688 2584 1439 2293 
Q 1191 2003 1191 1497 
Q 1191 994 1439 701 
Q 1688 409 2113 409 
Q 2538 409 2786 701 
Q 3034 994 3034 1497 
Q 3034 2003 2786 2293 
Q 2538 2584 2113 2584 
z
M 3366 4563 
L 3366 3988 
Q 3128 4100 2886 4159 
Q 2644 4219 2406 4219 
Q 1781 4219 1451 3797 
Q 1122 3375 1075 2522 
Q 1259 2794 1537 2939 
Q 1816 3084 2150 3084 
Q 2853 3084 3261 2657 
Q 3669 2231 3669 1497 
Q 3669 778 3244 343 
Q 2819 -91 2113 -91 
Q 1303 -91 875 529 
Q 447 1150 447 2328 
Q 447 3434 972 4092 
Q 1497 4750 2381 4750 
Q 2619 4750 2861 4703 
Q 3103 4656 3366 4563 
z
" id="DejaVuSans-36" transform="scale(0.015625)"/>
       </defs>
       <use xlink:href="#DejaVuSans-30"/>
       <use x="63.623047" xlink:href="#DejaVuSans-2e"/>
       <use x="95.410156" xlink:href="#DejaVuSans-36"/>
      </g>
     </g>
    </g>
    <g id="xtick_5">
     <g id="line2d_5">
      <g>
       <use style="stroke:#000000;stroke-width:0.8;" x="225.35918" xlink:href="#m04c3808a07" y="273.312"/>
      </g>
     </g>
     <g id="text_5">
      <!-- 0.8 -->
      <g transform="translate(217.407617 287.910437)scale(0.1 -0.1)">
       <defs>
        <path d="M 2034 2216 
Q 1584 2216 1326 1975 
Q 1069 1734 1069 1313 
Q 1069 891 1326 650 
Q 1584 409 2034 409 
Q 2484 409 2743 651 
Q 3003 894 3003 1313 
Q 3003 1734 2745 1975 
Q 2488 2216 2034 2216 
z
M 1403 2484 
Q 997 2584 770 2862 
Q 544 3141 544 3541 
Q 544 4100 942 4425 
Q 1341 4750 2034 4750 
Q 2731 4750 3128 4425 
Q 3525 4100 3525 3541 
Q 3525 3141 3298 2862 
Q 3072 2584 2669 2484 
Q 3125 2378 3379 2068 
Q 3634 1759 3634 1313 
Q 3634 634 3220 271 
Q 2806 -91 2034 -91 
Q 1263 -91 848 271 
Q 434 634 434 1313 
Q 434 1759 690 2068 
Q 947 2378 1403 2484 
z
M 1172 3481 
Q 1172 3119 1398 2916 
Q 1625 2713 2034 2713 
Q 2441 2713 2670 2916 
Q 2900 3119 2900 3481 
Q 2900 3844 2670 4047 
Q 2441 4250 2034 4250 
Q 1625 4250 1398 4047 
Q 1172 3844 1172 3481 
z
" id="DejaVuSans-38" transform="scale(0.015625)"/>
       </defs>
       <use xlink:href="#DejaVuSans-30"/>
       <use x="63.623047" xlink:href="#DejaVuSans-2e"/>
       <use x="95.410156" xlink:href="#DejaVuSans-38"/>
      </g>
     </g>
    </g>
    <g id="xtick_6">
     <g id="line2d_6">
      <g>
       <use style="stroke:#000000;stroke-width:0.8;" x="266.69548" xlink:href="#m04c3808a07" y="273.312"/>
      </g>
     </g>
     <g id="text_6">
      <!-- 1.0 -->
      <g transform="translate(258.743918 287.910437)scale(0.1 -0.1)">
       <defs>
        <path d="M 794 531 
L 1825 531 
L 1825 4091 
L 703 3866 
L 703 4441 
L 1819 4666 
L 2450 4666 
L 2450 531 
L 3481 531 
L 3481 0 
L 794 0 
L 794 531 
z
" id="DejaVuSans-31" transform="scale(0.015625)"/>
       </defs>
       <use xlink:href="#DejaVuSans-31"/>
       <use x="63.623047" xlink:href="#DejaVuSans-2e"/>
       <use x="95.410156" xlink:href="#DejaVuSans-30"/>
      </g>
     </g>
    </g>
    <g id="xtick_7">
     <g id="line2d_7">
      <g>
       <use style="stroke:#000000;stroke-width:0.8;" x="308.031781" xlink:href="#m04c3808a07" y="273.312"/>
      </g>
     </g>
     <g id="text_7">
      <!-- 1.2 -->
      <g transform="translate(300.080218 287.910437)scale(0.1 -0.1)">
       <use xlink:href="#DejaVuSans-31"/>
       <use x="63.623047" xlink:href="#DejaVuSans-2e"/>
       <use x="95.410156" xlink:href="#DejaVuSans-32"/>
      </g>
     </g>
    </g>
    <g id="xtick_8">
     <g id="line2d_8">
      <g>
       <use style="stroke:#000000;stroke-width:0.8;" x="349.368081" xlink:href="#m04c3808a07" y="273.312"/>
      </g>
     </g>
     <g id="text_8">
      <!-- 1.4 -->
      <g transform="translate(341.416519 287.910437)scale(0.1 -0.1)">
       <use xlink:href="#DejaVuSans-31"/>
       <use x="63.623047" xlink:href="#DejaVuSans-2e"/>
       <use x="95.410156" xlink:href="#DejaVuSans-34"/>
      </g>
     </g>
    </g>
    <g id="xtick_9">
     <g id="line2d_9">
      <g>
       <use style="stroke:#000000;stroke-width:0.8;" x="390.704382" xlink:href="#m04c3808a07" y="273.312"/>
      </g>
     </g>
     <g id="text_9">
      <!-- 1.6 -->
      <g transform="translate(382.752819 287.910437)scale(0.1 -0.1)">
       <use xlink:href="#DejaVuSans-31"/>
       <use x="63.623047" xlink:href="#DejaVuSans-2e"/>
       <use x="95.410156" xlink:href="#DejaVuSans-36"/>
      </g>
     </g>
    </g>
    <g id="text_10">
     <!-- Angle with normal (rad) -->
     <g transform="translate(163.023281 301.588562)scale(0.1 -0.1)">
      <defs>
       <path d="M 2188 4044 
L 1331 1722 
L 3047 1722 
L 2188 4044 
z
M 1831 4666 
L 2547 4666 
L 4325 0 
L 3669 0 
L 3244 1197 
L 1141 1197 
L 716 0 
L 50 0 
L 1831 4666 
z
" id="DejaVuSans-41" transform="scale(0.015625)"/>
       <path d="M 3513 2113 
L 3513 0 
L 2938 0 
L 2938 2094 
Q 2938 2591 2744 2837 
Q 2550 3084 2163 3084 
Q 1697 3084 1428 2787 
Q 1159 2491 1159 1978 
L 1159 0 
L 581 0 
L 581 3500 
L 1159 3500 
L 1159 2956 
Q 1366 3272 1645 3428 
Q 1925 3584 2291 3584 
Q 2894 3584 3203 3211 
Q 3513 2838 3513 2113 
z
" id="DejaVuSans-6e" transform="scale(0.015625)"/>
       <path d="M 2906 1791 
Q 2906 2416 2648 2759 
Q 2391 3103 1925 3103 
Q 1463 3103 1205 2759 
Q 947 2416 947 1791 
Q 947 1169 1205 825 
Q 1463 481 1925 481 
Q 2391 481 2648 825 
Q 2906 1169 2906 1791 
z
M 3481 434 
Q 3481 -459 3084 -895 
Q 2688 -1331 1869 -1331 
Q 1566 -1331 1297 -1286 
Q 1028 -1241 775 -1147 
L 775 -588 
Q 1028 -725 1275 -790 
Q 1522 -856 1778 -856 
Q 2344 -856 2625 -561 
Q 2906 -266 2906 331 
L 2906 616 
Q 2728 306 2450 153 
Q 2172 0 1784 0 
Q 1141 0 747 490 
Q 353 981 353 1791 
Q 353 2603 747 3093 
Q 1141 3584 1784 3584 
Q 2172 3584 2450 3431 
Q 2728 3278 2906 2969 
L 2906 3500 
L 3481 3500 
L 3481 434 
z
" id="DejaVuSans-67" transform="scale(0.015625)"/>
       <path d="M 603 4863 
L 1178 4863 
L 1178 0 
L 603 0 
L 603 4863 
z
" id="DejaVuSans-6c" transform="scale(0.015625)"/>
       <path d="M 3597 1894 
L 3597 1613 
L 953 1613 
Q 991 1019 1311 708 
Q 1631 397 2203 397 
Q 2534 397 2845 478 
Q 3156 559 3463 722 
L 3463 178 
Q 3153 47 2828 -22 
Q 2503 -91 2169 -91 
Q 1331 -91 842 396 
Q 353 884 353 1716 
Q 353 2575 817 3079 
Q 1281 3584 2069 3584 
Q 2775 3584 3186 3129 
Q 3597 2675 3597 1894 
z
M 3022 2063 
Q 3016 2534 2758 2815 
Q 2500 3097 2075 3097 
Q 1594 3097 1305 2825 
Q 1016 2553 972 2059 
L 3022 2063 
z
" id="DejaVuSans-65" transform="scale(0.015625)"/>
       <path id="DejaVuSans-20" transform="scale(0.015625)"/>
       <path d="M 269 3500 
L 844 3500 
L 1563 769 
L 2278 3500 
L 2956 3500 
L 3675 769 
L 4391 3500 
L 4966 3500 
L 4050 0 
L 3372 0 
L 2619 2869 
L 1863 0 
L 1184 0 
L 269 3500 
z
" id="DejaVuSans-77" transform="scale(0.015625)"/>
       <path d="M 603 3500 
L 1178 3500 
L 1178 0 
L 603 0 
L 603 3500 
z
M 603 4863 
L 1178 4863 
L 1178 4134 
L 603 4134 
L 603 4863 
z
" id="DejaVuSans-69" transform="scale(0.015625)"/>
       <path d="M 1172 4494 
L 1172 3500 
L 2356 3500 
L 2356 3053 
L 1172 3053 
L 1172 1153 
Q 1172 725 1289 603 
Q 1406 481 1766 481 
L 2356 481 
L 2356 0 
L 1766 0 
Q 1100 0 847 248 
Q 594 497 594 1153 
L 594 3053 
L 172 3053 
L 172 3500 
L 594 3500 
L 594 4494 
L 1172 4494 
z
" id="DejaVuSans-74" transform="scale(0.015625)"/>
       <path d="M 3513 2113 
L 3513 0 
L 2938 0 
L 2938 2094 
Q 2938 2591 2744 2837 
Q 2550 3084 2163 3084 
Q 1697 3084 1428 2787 
Q 1159 2491 1159 1978 
L 1159 0 
L 581 0 
L 581 4863 
L 1159 4863 
L 1159 2956 
Q 1366 3272 1645 3428 
Q 1925 3584 2291 3584 
Q 2894 3584 3203 3211 
Q 3513 2838 3513 2113 
z
" id="DejaVuSans-68" transform="scale(0.015625)"/>
       <path d="M 1959 3097 
Q 1497 3097 1228 2736 
Q 959 2375 959 1747 
Q 959 1119 1226 758 
Q 1494 397 1959 397 
Q 2419 397 2687 759 
Q 2956 1122 2956 1747 
Q 2956 2369 2687 2733 
Q 2419 3097 1959 3097 
z
M 1959 3584 
Q 2709 3584 3137 3096 
Q 3566 2609 3566 1747 
Q 3566 888 3137 398 
Q 2709 -91 1959 -91 
Q 1206 -91 779 398 
Q 353 888 353 1747 
Q 353 2609 779 3096 
Q 1206 3584 1959 3584 
z
" id="DejaVuSans-6f" transform="scale(0.015625)"/>
       <path d="M 2631 2963 
Q 2534 3019 2420 3045 
Q 2306 3072 2169 3072 
Q 1681 3072 1420 2755 
Q 1159 2438 1159 1844 
L 1159 0 
L 581 0 
L 581 3500 
L 1159 3500 
L 1159 2956 
Q 1341 3275 1631 3429 
Q 1922 3584 2338 3584 
Q 2397 3584 2469 3576 
Q 2541 3569 2628 3553 
L 2631 2963 
z
" id="DejaVuSans-72" transform="scale(0.015625)"/>
       <path d="M 3328 2828 
Q 3544 3216 3844 3400 
Q 4144 3584 4550 3584 
Q 5097 3584 5394 3201 
Q 5691 2819 5691 2113 
L 5691 0 
L 5113 0 
L 5113 2094 
Q 5113 2597 4934 2840 
Q 4756 3084 4391 3084 
Q 3944 3084 3684 2787 
Q 3425 2491 3425 1978 
L 3425 0 
L 2847 0 
L 2847 2094 
Q 2847 2600 2669 2842 
Q 2491 3084 2119 3084 
Q 1678 3084 1418 2786 
Q 1159 2488 1159 1978 
L 1159 0 
L 581 0 
L 581 3500 
L 1159 3500 
L 1159 2956 
Q 1356 3278 1631 3431 
Q 1906 3584 2284 3584 
Q 2666 3584 2933 3390 
Q 3200 3197 3328 2828 
z
" id="DejaVuSans-6d" transform="scale(0.015625)"/>
       <path d="M 2194 1759 
Q 1497 1759 1228 1600 
Q 959 1441 959 1056 
Q 959 750 1161 570 
Q 1363 391 1709 391 
Q 2188 391 2477 730 
Q 2766 1069 2766 1631 
L 2766 1759 
L 2194 1759 
z
M 3341 1997 
L 3341 0 
L 2766 0 
L 2766 531 
Q 2569 213 2275 61 
Q 1981 -91 1556 -91 
Q 1019 -91 701 211 
Q 384 513 384 1019 
Q 384 1609 779 1909 
Q 1175 2209 1959 2209 
L 2766 2209 
L 2766 2266 
Q 2766 2663 2505 2880 
Q 2244 3097 1772 3097 
Q 1472 3097 1187 3025 
Q 903 2953 641 2809 
L 641 3341 
Q 956 3463 1253 3523 
Q 1550 3584 1831 3584 
Q 2591 3584 2966 3190 
Q 3341 2797 3341 1997 
z
" id="DejaVuSans-61" transform="scale(0.015625)"/>
       <path d="M 1984 4856 
Q 1566 4138 1362 3434 
Q 1159 2731 1159 2009 
Q 1159 1288 1364 580 
Q 1569 -128 1984 -844 
L 1484 -844 
Q 1016 -109 783 600 
Q 550 1309 550 2009 
Q 550 2706 781 3412 
Q 1013 4119 1484 4856 
L 1984 4856 
z
" id="DejaVuSans-28" transform="scale(0.015625)"/>
       <path d="M 2906 2969 
L 2906 4863 
L 3481 4863 
L 3481 0 
L 2906 0 
L 2906 525 
Q 2725 213 2448 61 
Q 2172 -91 1784 -91 
Q 1150 -91 751 415 
Q 353 922 353 1747 
Q 353 2572 751 3078 
Q 1150 3584 1784 3584 
Q 2172 3584 2448 3432 
Q 2725 3281 2906 2969 
z
M 947 1747 
Q 947 1113 1208 752 
Q 1469 391 1925 391 
Q 2381 391 2643 752 
Q 2906 1113 2906 1747 
Q 2906 2381 2643 2742 
Q 2381 3103 1925 3103 
Q 1469 3103 1208 2742 
Q 947 2381 947 1747 
z
" id="DejaVuSans-64" transform="scale(0.015625)"/>
       <path d="M 513 4856 
L 1013 4856 
Q 1481 4119 1714 3412 
Q 1947 2706 1947 2009 
Q 1947 1309 1714 600 
Q 1481 -109 1013 -844 
L 513 -844 
Q 928 -128 1133 580 
Q 1338 1288 1338 2009 
Q 1338 2731 1133 3434 
Q 928 4138 513 4856 
z
" id="DejaVuSans-29" transform="scale(0.015625)"/>
      </defs>
      <use xlink:href="#DejaVuSans-41"/>
      <use x="68.408203" xlink:href="#DejaVuSans-6e"/>
      <use x="131.787109" xlink:href="#DejaVuSans-67"/>
      <use x="195.263672" xlink:href="#DejaVuSans-6c"/>
      <use x="223.046875" xlink:href="#DejaVuSans-65"/>
      <use x="284.570312" xlink:href="#DejaVuSans-20"/>
      <use x="316.357422" xlink:href="#DejaVuSans-77"/>
      <use x="398.144531" xlink:href="#DejaVuSans-69"/>
      <use x="425.927734" xlink:href="#DejaVuSans-74"/>
      <use x="465.136719" xlink:href="#DejaVuSans-68"/>
      <use x="528.515625" xlink:href="#DejaVuSans-20"/>
      <use x="560.302734" xlink:href="#DejaVuSans-6e"/>
      <use x="623.681641" xlink:href="#DejaVuSans-6f"/>
      <use x="684.863281" xlink:href="#DejaVuSans-72"/>
      <use x="724.226562" xlink:href="#DejaVuSans-6d"/>
      <use x="821.638672" xlink:href="#DejaVuSans-61"/>
      <use x="882.917969" xlink:href="#DejaVuSans-6c"/>
      <use x="910.701172" xlink:href="#DejaVuSans-20"/>
      <use x="942.488281" xlink:href="#DejaVuSans-28"/>
      <use x="981.501953" xlink:href="#DejaVuSans-72"/>
      <use x="1022.615234" xlink:href="#DejaVuSans-61"/>
      <use x="1083.894531" xlink:href="#DejaVuSans-64"/>
      <use x="1147.371094" xlink:href="#DejaVuSans-29"/>
     </g>
    </g>
   </g>
   <g id="matplotlib.axis_2">
    <g id="ytick_1">
     <g id="line2d_10">
      <defs>
       <path d="M 0 0 
L -3.5 0 
" id="mf3f29e876f" style="stroke:#000000;stroke-width:0.8;"/>
      </defs>
      <g>
       <use style="stroke:#000000;stroke-width:0.8;" x="43.78125" xlink:href="#mf3f29e876f" y="273.312"/>
      </g>
     </g>
     <g id="text_11">
      <!-- 0.0 -->
      <g transform="translate(20.878125 277.111219)scale(0.1 -0.1)">
       <use xlink:href="#DejaVuSans-30"/>
       <use x="63.623047" xlink:href="#DejaVuSans-2e"/>
       <use x="95.410156" xlink:href="#DejaVuSans-30"/>
      </g>
     </g>
    </g>
    <g id="ytick_2">
     <g id="line2d_11">
      <g>
       <use style="stroke:#000000;stroke-width:0.8;" x="43.78125" xlink:href="#mf3f29e876f" y="227.30697"/>
      </g>
     </g>
     <g id="text_12">
      <!-- 0.2 -->
      <g transform="translate(20.878125 231.106188)scale(0.1 -0.1)">
       <use xlink:href="#DejaVuSans-30"/>
       <use x="63.623047" xlink:href="#DejaVuSans-2e"/>
       <use x="95.410156" xlink:href="#DejaVuSans-32"/>
      </g>
     </g>
    </g>
    <g id="ytick_3">
     <g id="line2d_12">
      <g>
       <use style="stroke:#000000;stroke-width:0.8;" x="43.78125" xlink:href="#mf3f29e876f" y="181.301939"/>
      </g>
     </g>
     <g id="text_13">
      <!-- 0.4 -->
      <g transform="translate(20.878125 185.101158)scale(0.1 -0.1)">
       <use xlink:href="#DejaVuSans-30"/>
       <use x="63.623047" xlink:href="#DejaVuSans-2e"/>
       <use x="95.410156" xlink:href="#DejaVuSans-34"/>
      </g>
     </g>
    </g>
    <g id="ytick_4">
     <g id="line2d_13">
      <g>
       <use style="stroke:#000000;stroke-width:0.8;" x="43.78125" xlink:href="#mf3f29e876f" y="135.296909"/>
      </g>
     </g>
     <g id="text_14">
      <!-- 0.6 -->
      <g transform="translate(20.878125 139.096127)scale(0.1 -0.1)">
       <use xlink:href="#DejaVuSans-30"/>
       <use x="63.623047" xlink:href="#DejaVuSans-2e"/>
       <use x="95.410156" xlink:href="#DejaVuSans-36"/>
      </g>
     </g>
    </g>
    <g id="ytick_5">
     <g id="line2d_14">
      <g>
       <use style="stroke:#000000;stroke-width:0.8;" x="43.78125" xlink:href="#mf3f29e876f" y="89.291878"/>
      </g>
     </g>
     <g id="text_15">
      <!-- 0.8 -->
      <g transform="translate(20.878125 93.091097)scale(0.1 -0.1)">
       <use xlink:href="#DejaVuSans-30"/>
       <use x="63.623047" xlink:href="#DejaVuSans-2e"/>
       <use x="95.410156" xlink:href="#DejaVuSans-38"/>
      </g>
     </g>
    </g>
    <g id="ytick_6">
     <g id="line2d_15">
      <g>
       <use style="stroke:#000000;stroke-width:0.8;" x="43.78125" xlink:href="#mf3f29e876f" y="43.286848"/>
      </g>
     </g>
     <g id="text_16">
      <!-- 1.0 -->
      <g transform="translate(20.878125 47.086066)scale(0.1 -0.1)">
       <use xlink:href="#DejaVuSans-31"/>
       <use x="63.623047" xlink:href="#DejaVuSans-2e"/>
       <use x="95.410156" xlink:href="#DejaVuSans-30"/>
      </g>
     </g>
    </g>
    <g id="text_17">
     <!-- Probability density -->
     <g transform="translate(14.798438 186.606781)rotate(-90)scale(0.1 -0.1)">
      <defs>
       <path d="M 1259 4147 
L 1259 2394 
L 2053 2394 
Q 2494 2394 2734 2622 
Q 2975 2850 2975 3272 
Q 2975 3691 2734 3919 
Q 2494 4147 2053 4147 
L 1259 4147 
z
M 628 4666 
L 2053 4666 
Q 2838 4666 3239 4311 
Q 3641 3956 3641 3272 
Q 3641 2581 3239 2228 
Q 2838 1875 2053 1875 
L 1259 1875 
L 1259 0 
L 628 0 
L 628 4666 
z
" id="DejaVuSans-50" transform="scale(0.015625)"/>
       <path d="M 3116 1747 
Q 3116 2381 2855 2742 
Q 2594 3103 2138 3103 
Q 1681 3103 1420 2742 
Q 1159 2381 1159 1747 
Q 1159 1113 1420 752 
Q 1681 391 2138 391 
Q 2594 391 2855 752 
Q 3116 1113 3116 1747 
z
M 1159 2969 
Q 1341 3281 1617 3432 
Q 1894 3584 2278 3584 
Q 2916 3584 3314 3078 
Q 3713 2572 3713 1747 
Q 3713 922 3314 415 
Q 2916 -91 2278 -91 
Q 1894 -91 1617 61 
Q 1341 213 1159 525 
L 1159 0 
L 581 0 
L 581 4863 
L 1159 4863 
L 1159 2969 
z
" id="DejaVuSans-62" transform="scale(0.015625)"/>
       <path d="M 2059 -325 
Q 1816 -950 1584 -1140 
Q 1353 -1331 966 -1331 
L 506 -1331 
L 506 -850 
L 844 -850 
Q 1081 -850 1212 -737 
Q 1344 -625 1503 -206 
L 1606 56 
L 191 3500 
L 800 3500 
L 1894 763 
L 2988 3500 
L 3597 3500 
L 2059 -325 
z
" id="DejaVuSans-79" transform="scale(0.015625)"/>
       <path d="M 2834 3397 
L 2834 2853 
Q 2591 2978 2328 3040 
Q 2066 3103 1784 3103 
Q 1356 3103 1142 2972 
Q 928 2841 928 2578 
Q 928 2378 1081 2264 
Q 1234 2150 1697 2047 
L 1894 2003 
Q 2506 1872 2764 1633 
Q 3022 1394 3022 966 
Q 3022 478 2636 193 
Q 2250 -91 1575 -91 
Q 1294 -91 989 -36 
Q 684 19 347 128 
L 347 722 
Q 666 556 975 473 
Q 1284 391 1588 391 
Q 1994 391 2212 530 
Q 2431 669 2431 922 
Q 2431 1156 2273 1281 
Q 2116 1406 1581 1522 
L 1381 1569 
Q 847 1681 609 1914 
Q 372 2147 372 2553 
Q 372 3047 722 3315 
Q 1072 3584 1716 3584 
Q 2034 3584 2315 3537 
Q 2597 3491 2834 3397 
z
" id="DejaVuSans-73" transform="scale(0.015625)"/>
      </defs>
      <use xlink:href="#DejaVuSans-50"/>
      <use x="58.552734" xlink:href="#DejaVuSans-72"/>
      <use x="97.416016" xlink:href="#DejaVuSans-6f"/>
      <use x="158.597656" xlink:href="#DejaVuSans-62"/>
      <use x="222.074219" xlink:href="#DejaVuSans-61"/>
      <use x="283.353516" xlink:href="#DejaVuSans-62"/>
      <use x="346.830078" xlink:href="#DejaVuSans-69"/>
      <use x="374.613281" xlink:href="#DejaVuSans-6c"/>
      <use x="402.396484" xlink:href="#DejaVuSans-69"/>
      <use x="430.179688" xlink:href="#DejaVuSans-74"/>
      <use x="469.388672" xlink:href="#DejaVuSans-79"/>
      <use x="528.568359" xlink:href="#DejaVuSans-20"/>
      <use x="560.355469" xlink:href="#DejaVuSans-64"/>
      <use x="623.832031" xlink:href="#DejaVuSans-65"/>
      <use x="685.355469" xlink:href="#DejaVuSans-6e"/>
      <use x="748.734375" xlink:href="#DejaVuSans-73"/>
      <use x="800.833984" xlink:href="#DejaVuSans-69"/>
      <use x="828.617188" xlink:href="#DejaVuSans-74"/>
      <use x="867.826172" xlink:href="#DejaVuSans-79"/>
     </g>
    </g>
   </g>
   <g id="line2d_16">
    <path clip-path="url(#p40528b2be9)" d="M 60.013977 273.312 
L 79.837728 229.456636 
L 90.237073 206.993635 
L 99.01152 188.553391 
L 106.811029 172.670703 
L 113.960578 158.612794 
L 120.460169 146.307374 
L 126.63478 135.081689 
L 132.484411 124.901282 
L 138.009063 115.722437 
L 143.208736 107.494408 
L 148.408408 99.686087 
L 153.283101 92.764558 
L 157.832814 86.666558 
L 162.382528 80.930278 
L 166.932241 75.566834 
L 171.156975 70.929431 
L 175.381709 66.630224 
L 179.281463 62.968122 
L 183.181217 59.605528 
L 187.080972 56.547231 
L 190.655746 54.014836 
L 194.230521 51.744828 
L 197.805296 49.739925 
L 201.380071 48.002524 
L 204.629866 46.656955 
L 207.879661 45.535515 
L 211.129456 44.639313 
L 214.379252 43.969236 
L 217.629047 43.525945 
L 220.878842 43.30988 
L 224.128637 43.321253 
L 227.378433 43.560054 
L 230.628228 44.026047 
L 233.878023 44.718771 
L 237.127818 45.63754 
L 240.377614 46.781446 
L 243.627409 48.149359 
L 247.202184 49.911169 
L 250.776958 51.940277 
L 254.351733 54.234255 
L 257.926508 56.790358 
L 261.501283 59.605528 
L 265.401037 62.968122 
L 269.300791 66.630224 
L 273.200546 70.586621 
L 277.425279 75.198276 
L 281.650013 80.140994 
L 286.199727 85.824676 
L 290.74944 91.87171 
L 295.624133 98.740554 
L 300.498826 105.997767 
L 305.698498 114.148656 
L 311.22315 123.249908 
L 316.747802 132.779939 
L 322.597433 143.307634 
L 328.772044 154.871292 
L 335.596614 168.142245 
L 342.746164 182.535908 
L 350.870652 199.415651 
L 359.970079 218.857867 
L 371.019383 243.018771 
L 384.668523 273.312 
L 384.668523 273.312 
" style="fill:none;stroke:#ff7f0e;stroke-linecap:square;stroke-width:1.5;"/>
   </g>
   <g id="patch_203">
    <path d="M 43.78125 273.312 
L 43.78125 7.2 
" style="fill:none;stroke:#000000;stroke-linecap:square;stroke-linejoin:miter;stroke-width:0.8;"/>
   </g>
   <g id="patch_204">
    <path d="M 400.90125 273.312 
L 400.90125 7.2 
" style="fill:none;stroke:#000000;stroke-linecap:square;stroke-linejoin:miter;stroke-width:0.8;"/>
   </g>
   <g id="patch_205">
    <path d="M 43.78125 273.312 
L 400.90125 273.312 
" style="fill:none;stroke:#000000;stroke-linecap:square;stroke-linejoin:miter;stroke-width:0.8;"/>
   </g>
   <g id="patch_206">
    <path d="M 43.78125 7.2 
L 400.90125 7.2 
" style="fill:none;stroke:#000000;stroke-linecap:square;stroke-linejoin:miter;stroke-width:0.8;"/>
   </g>
  </g>
 </g>
 <defs>
  <clipPath id="p40528b2be9">
   <rect height="266.112" width="357.12" x="43.78125" y="7.2"/>
  </clipPath>
 </defs>
</svg>
