<?xml version="1.0" encoding="utf-8" standalone="no"?>
<!DOCTYPE svg PUBLIC "-//W3C//DTD SVG 1.1//EN"
  "http://www.w3.org/Graphics/SVG/1.1/DTD/svg11.dtd">
<svg height="310.86825pt" version="1.1" viewBox="0 0 408.10125 310.86825" width="408.10125pt" xmlns="http://www.w3.org/2000/svg" xmlns:xlink="http://www.w3.org/1999/xlink">
 <metadata>
  <rdf:RDF xmlns:cc="http://creativecommons.org/ns#" xmlns:dc="http://purl.org/dc/elements/1.1/" xmlns:rdf="http://www.w3.org/1999/02/22-rdf-syntax-ns#">
   <cc:Work>
    <dc:type rdf:resource="http://purl.org/dc/dcmitype/StillImage"/>
    <dc:date>2021-06-23T16:53:32.138373</dc:date>
    <dc:format>image/svg+xml</dc:format>
    <dc:creator>
     <cc:Agent>
      <dc:title>Matplotlib v3.4.2, https://matplotlib.org/</dc:title>
     </cc:Agent>
    </dc:creator>
   </cc:Work>
  </rdf:RDF>
 </metadata>
 <defs>
  <style type="text/css">*{stroke-linecap:butt;stroke-linejoin:round;}</style>
 </defs>
 <g id="figure_1">
  <g id="patch_1">
   <path d="M 0 310.86825 
L 408.10125 310.86825 
L 408.10125 0 
L 0 0 
z
" style="fill:#ffffff;"/>
  </g>
  <g id="axes_1">
   <g id="patch_2">
    <path d="M 43.78125 273.312 
L 400.90125 273.312 
L 400.90125 7.2 
L 43.78125 7.2 
z
" style="fill:#ffffff;"/>
   </g>
   <g id="patch_3">
    <path clip-path="url(#p6532b0a3f4)" d="M 61.018276 273.312 
L 62.631783 273.312 
L 62.631783 266.523429 
L 61.018276 266.523429 
z
" style="fill:#1f77b4;"/>
   </g>
   <g id="patch_4">
    <path clip-path="url(#p6532b0a3f4)" d="M 62.631783 273.312 
L 64.245289 273.312 
L 64.245289 260.489143 
L 62.631783 260.489143 
z
" style="fill:#1f77b4;"/>
   </g>
   <g id="patch_5">
    <path clip-path="url(#p6532b0a3f4)" d="M 64.245289 273.312 
L 65.858795 273.312 
L 65.858795 268.032 
L 64.245289 268.032 
z
" style="fill:#1f77b4;"/>
   </g>
   <g id="patch_6">
    <path clip-path="url(#p6532b0a3f4)" d="M 65.858795 273.312 
L 67.472302 273.312 
L 67.472302 252.192 
L 65.858795 252.192 
z
" style="fill:#1f77b4;"/>
   </g>
   <g id="patch_7">
    <path clip-path="url(#p6532b0a3f4)" d="M 67.472302 273.312 
L 69.085808 273.312 
L 69.085808 250.683429 
L 67.472302 250.683429 
z
" style="fill:#1f77b4;"/>
   </g>
   <g id="patch_8">
    <path clip-path="url(#p6532b0a3f4)" d="M 69.085808 273.312 
L 70.699315 273.312 
L 70.699315 259.734857 
L 69.085808 259.734857 
z
" style="fill:#1f77b4;"/>
   </g>
   <g id="patch_9">
    <path clip-path="url(#p6532b0a3f4)" d="M 70.699315 273.312 
L 72.312821 273.312 
L 72.312821 256.717714 
L 70.699315 256.717714 
z
" style="fill:#1f77b4;"/>
   </g>
   <g id="patch_10">
    <path clip-path="url(#p6532b0a3f4)" d="M 72.312821 273.312 
L 73.926328 273.312 
L 73.926328 247.666286 
L 72.312821 247.666286 
z
" style="fill:#1f77b4;"/>
   </g>
   <g id="patch_11">
    <path clip-path="url(#p6532b0a3f4)" d="M 73.926328 273.312 
L 75.539834 273.312 
L 75.539834 237.860571 
L 73.926328 237.860571 
z
" style="fill:#1f77b4;"/>
   </g>
   <g id="patch_12">
    <path clip-path="url(#p6532b0a3f4)" d="M 75.539834 273.312 
L 77.153341 273.312 
L 77.153341 232.580571 
L 75.539834 232.580571 
z
" style="fill:#1f77b4;"/>
   </g>
   <g id="patch_13">
    <path clip-path="url(#p6532b0a3f4)" d="M 77.153341 273.312 
L 78.766847 273.312 
L 78.766847 228.054857 
L 77.153341 228.054857 
z
" style="fill:#1f77b4;"/>
   </g>
   <g id="patch_14">
    <path clip-path="url(#p6532b0a3f4)" d="M 78.766847 273.312 
L 80.380354 273.312 
L 80.380354 234.089143 
L 78.766847 234.089143 
z
" style="fill:#1f77b4;"/>
   </g>
   <g id="patch_15">
    <path clip-path="url(#p6532b0a3f4)" d="M 80.380354 273.312 
L 81.99386 273.312 
L 81.99386 231.826286 
L 80.380354 231.826286 
z
" style="fill:#1f77b4;"/>
   </g>
   <g id="patch_16">
    <path clip-path="url(#p6532b0a3f4)" d="M 81.99386 273.312 
L 83.607367 273.312 
L 83.607367 212.969143 
L 81.99386 212.969143 
z
" style="fill:#1f77b4;"/>
   </g>
   <g id="patch_17">
    <path clip-path="url(#p6532b0a3f4)" d="M 83.607367 273.312 
L 85.220873 273.312 
L 85.220873 201.654857 
L 83.607367 201.654857 
z
" style="fill:#1f77b4;"/>
   </g>
   <g id="patch_18">
    <path clip-path="url(#p6532b0a3f4)" d="M 85.220873 273.312 
L 86.834379 273.312 
L 86.834379 201.654857 
L 85.220873 201.654857 
z
" style="fill:#1f77b4;"/>
   </g>
   <g id="patch_19">
    <path clip-path="url(#p6532b0a3f4)" d="M 86.834379 273.312 
L 88.447886 273.312 
L 88.447886 225.037714 
L 86.834379 225.037714 
z
" style="fill:#1f77b4;"/>
   </g>
   <g id="patch_20">
    <path clip-path="url(#p6532b0a3f4)" d="M 88.447886 273.312 
L 90.061392 273.312 
L 90.061392 207.689143 
L 88.447886 207.689143 
z
" style="fill:#1f77b4;"/>
   </g>
   <g id="patch_21">
    <path clip-path="url(#p6532b0a3f4)" d="M 90.061392 273.312 
L 91.674899 273.312 
L 91.674899 213.723429 
L 90.061392 213.723429 
z
" style="fill:#1f77b4;"/>
   </g>
   <g id="patch_22">
    <path clip-path="url(#p6532b0a3f4)" d="M 91.674899 273.312 
L 93.288405 273.312 
L 93.288405 209.952 
L 91.674899 209.952 
z
" style="fill:#1f77b4;"/>
   </g>
   <g id="patch_23">
    <path clip-path="url(#p6532b0a3f4)" d="M 93.288405 273.312 
L 94.901912 273.312 
L 94.901912 191.094857 
L 93.288405 191.094857 
z
" style="fill:#1f77b4;"/>
   </g>
   <g id="patch_24">
    <path clip-path="url(#p6532b0a3f4)" d="M 94.901912 273.312 
L 96.515418 273.312 
L 96.515418 183.552 
L 94.901912 183.552 
z
" style="fill:#1f77b4;"/>
   </g>
   <g id="patch_25">
    <path clip-path="url(#p6532b0a3f4)" d="M 96.515418 273.312 
L 98.128925 273.312 
L 98.128925 188.077714 
L 96.515418 188.077714 
z
" style="fill:#1f77b4;"/>
   </g>
   <g id="patch_26">
    <path clip-path="url(#p6532b0a3f4)" d="M 98.128925 273.312 
L 99.742431 273.312 
L 99.742431 194.112 
L 98.128925 194.112 
z
" style="fill:#1f77b4;"/>
   </g>
   <g id="patch_27">
    <path clip-path="url(#p6532b0a3f4)" d="M 99.742431 273.312 
L 101.355938 273.312 
L 101.355938 185.814857 
L 99.742431 185.814857 
z
" style="fill:#1f77b4;"/>
   </g>
   <g id="patch_28">
    <path clip-path="url(#p6532b0a3f4)" d="M 101.355938 273.312 
L 102.969444 273.312 
L 102.969444 169.220571 
L 101.355938 169.220571 
z
" style="fill:#1f77b4;"/>
   </g>
   <g id="patch_29">
    <path clip-path="url(#p6532b0a3f4)" d="M 102.969444 273.312 
L 104.582951 273.312 
L 104.582951 154.134857 
L 102.969444 154.134857 
z
" style="fill:#1f77b4;"/>
   </g>
   <g id="patch_30">
    <path clip-path="url(#p6532b0a3f4)" d="M 104.582951 273.312 
L 106.196457 273.312 
L 106.196457 189.586286 
L 104.582951 189.586286 
z
" style="fill:#1f77b4;"/>
   </g>
   <g id="patch_31">
    <path clip-path="url(#p6532b0a3f4)" d="M 106.196457 273.312 
L 107.809963 273.312 
L 107.809963 163.940571 
L 106.196457 163.940571 
z
" style="fill:#1f77b4;"/>
   </g>
   <g id="patch_32">
    <path clip-path="url(#p6532b0a3f4)" d="M 107.809963 273.312 
L 109.42347 273.312 
L 109.42347 168.466286 
L 107.809963 168.466286 
z
" style="fill:#1f77b4;"/>
   </g>
   <g id="patch_33">
    <path clip-path="url(#p6532b0a3f4)" d="M 109.42347 273.312 
L 111.036976 273.312 
L 111.036976 176.009143 
L 109.42347 176.009143 
z
" style="fill:#1f77b4;"/>
   </g>
   <g id="patch_34">
    <path clip-path="url(#p6532b0a3f4)" d="M 111.036976 273.312 
L 112.650483 273.312 
L 112.650483 141.312 
L 111.036976 141.312 
z
" style="fill:#1f77b4;"/>
   </g>
   <g id="patch_35">
    <path clip-path="url(#p6532b0a3f4)" d="M 112.650483 273.312 
L 114.263989 273.312 
L 114.263989 148.854857 
L 112.650483 148.854857 
z
" style="fill:#1f77b4;"/>
   </g>
   <g id="patch_36">
    <path clip-path="url(#p6532b0a3f4)" d="M 114.263989 273.312 
L 115.877496 273.312 
L 115.877496 152.626286 
L 114.263989 152.626286 
z
" style="fill:#1f77b4;"/>
   </g>
   <g id="patch_37">
    <path clip-path="url(#p6532b0a3f4)" d="M 115.877496 273.312 
L 117.491002 273.312 
L 117.491002 145.083429 
L 115.877496 145.083429 
z
" style="fill:#1f77b4;"/>
   </g>
   <g id="patch_38">
    <path clip-path="url(#p6532b0a3f4)" d="M 117.491002 273.312 
L 119.104509 273.312 
L 119.104509 137.540571 
L 117.491002 137.540571 
z
" style="fill:#1f77b4;"/>
   </g>
   <g id="patch_39">
    <path clip-path="url(#p6532b0a3f4)" d="M 119.104509 273.312 
L 120.718015 273.312 
L 120.718015 149.609143 
L 119.104509 149.609143 
z
" style="fill:#1f77b4;"/>
   </g>
   <g id="patch_40">
    <path clip-path="url(#p6532b0a3f4)" d="M 120.718015 273.312 
L 122.331522 273.312 
L 122.331522 122.454857 
L 120.718015 122.454857 
z
" style="fill:#1f77b4;"/>
   </g>
   <g id="patch_41">
    <path clip-path="url(#p6532b0a3f4)" d="M 122.331522 273.312 
L 123.945028 273.312 
L 123.945028 129.997714 
L 122.331522 129.997714 
z
" style="fill:#1f77b4;"/>
   </g>
   <g id="patch_42">
    <path clip-path="url(#p6532b0a3f4)" d="M 123.945028 273.312 
L 125.558534 273.312 
L 125.558534 142.820571 
L 123.945028 142.820571 
z
" style="fill:#1f77b4;"/>
   </g>
   <g id="patch_43">
    <path clip-path="url(#p6532b0a3f4)" d="M 125.558534 273.312 
L 127.172041 273.312 
L 127.172041 131.506286 
L 125.558534 131.506286 
z
" style="fill:#1f77b4;"/>
   </g>
   <g id="patch_44">
    <path clip-path="url(#p6532b0a3f4)" d="M 127.172041 273.312 
L 128.785547 273.312 
L 128.785547 105.106286 
L 127.172041 105.106286 
z
" style="fill:#1f77b4;"/>
   </g>
   <g id="patch_45">
    <path clip-path="url(#p6532b0a3f4)" d="M 128.785547 273.312 
L 130.399054 273.312 
L 130.399054 129.997714 
L 128.785547 129.997714 
z
" style="fill:#1f77b4;"/>
   </g>
   <g id="patch_46">
    <path clip-path="url(#p6532b0a3f4)" d="M 130.399054 273.312 
L 132.01256 273.312 
L 132.01256 131.506286 
L 130.399054 131.506286 
z
" style="fill:#1f77b4;"/>
   </g>
   <g id="patch_47">
    <path clip-path="url(#p6532b0a3f4)" d="M 132.01256 273.312 
L 133.626067 273.312 
L 133.626067 126.226286 
L 132.01256 126.226286 
z
" style="fill:#1f77b4;"/>
   </g>
   <g id="patch_48">
    <path clip-path="url(#p6532b0a3f4)" d="M 133.626067 273.312 
L 135.239573 273.312 
L 135.239573 124.717714 
L 133.626067 124.717714 
z
" style="fill:#1f77b4;"/>
   </g>
   <g id="patch_49">
    <path clip-path="url(#p6532b0a3f4)" d="M 135.239573 273.312 
L 136.85308 273.312 
L 136.85308 123.963429 
L 135.239573 123.963429 
z
" style="fill:#1f77b4;"/>
   </g>
   <g id="patch_50">
    <path clip-path="url(#p6532b0a3f4)" d="M 136.85308 273.312 
L 138.466586 273.312 
L 138.466586 72.672 
L 136.85308 72.672 
z
" style="fill:#1f77b4;"/>
   </g>
   <g id="patch_51">
    <path clip-path="url(#p6532b0a3f4)" d="M 138.466586 273.312 
L 140.080093 273.312 
L 140.080093 119.437714 
L 138.466586 119.437714 
z
" style="fill:#1f77b4;"/>
   </g>
   <g id="patch_52">
    <path clip-path="url(#p6532b0a3f4)" d="M 140.080093 273.312 
L 141.693599 273.312 
L 141.693599 123.209143 
L 140.080093 123.209143 
z
" style="fill:#1f77b4;"/>
   </g>
   <g id="patch_53">
    <path clip-path="url(#p6532b0a3f4)" d="M 141.693599 273.312 
L 143.307106 273.312 
L 143.307106 108.877714 
L 141.693599 108.877714 
z
" style="fill:#1f77b4;"/>
   </g>
   <g id="patch_54">
    <path clip-path="url(#p6532b0a3f4)" d="M 143.307106 273.312 
L 144.920612 273.312 
L 144.920612 104.352 
L 143.307106 104.352 
z
" style="fill:#1f77b4;"/>
   </g>
   <g id="patch_55">
    <path clip-path="url(#p6532b0a3f4)" d="M 144.920612 273.312 
L 146.534118 273.312 
L 146.534118 90.020571 
L 144.920612 90.020571 
z
" style="fill:#1f77b4;"/>
   </g>
   <g id="patch_56">
    <path clip-path="url(#p6532b0a3f4)" d="M 146.534118 273.312 
L 148.147625 273.312 
L 148.147625 126.226286 
L 146.534118 126.226286 
z
" style="fill:#1f77b4;"/>
   </g>
   <g id="patch_57">
    <path clip-path="url(#p6532b0a3f4)" d="M 148.147625 273.312 
L 149.761131 273.312 
L 149.761131 96.054857 
L 148.147625 96.054857 
z
" style="fill:#1f77b4;"/>
   </g>
   <g id="patch_58">
    <path clip-path="url(#p6532b0a3f4)" d="M 149.761131 273.312 
L 151.374638 273.312 
L 151.374638 68.900571 
L 149.761131 68.900571 
z
" style="fill:#1f77b4;"/>
   </g>
   <g id="patch_59">
    <path clip-path="url(#p6532b0a3f4)" d="M 151.374638 273.312 
L 152.988144 273.312 
L 152.988144 94.546286 
L 151.374638 94.546286 
z
" style="fill:#1f77b4;"/>
   </g>
   <g id="patch_60">
    <path clip-path="url(#p6532b0a3f4)" d="M 152.988144 273.312 
L 154.601651 273.312 
L 154.601651 69.654857 
L 152.988144 69.654857 
z
" style="fill:#1f77b4;"/>
   </g>
   <g id="patch_61">
    <path clip-path="url(#p6532b0a3f4)" d="M 154.601651 273.312 
L 156.215157 273.312 
L 156.215157 82.477714 
L 154.601651 82.477714 
z
" style="fill:#1f77b4;"/>
   </g>
   <g id="patch_62">
    <path clip-path="url(#p6532b0a3f4)" d="M 156.215157 273.312 
L 157.828664 273.312 
L 157.828664 90.774857 
L 156.215157 90.774857 
z
" style="fill:#1f77b4;"/>
   </g>
   <g id="patch_63">
    <path clip-path="url(#p6532b0a3f4)" d="M 157.828664 273.312 
L 159.44217 273.312 
L 159.44217 74.934857 
L 157.828664 74.934857 
z
" style="fill:#1f77b4;"/>
   </g>
   <g id="patch_64">
    <path clip-path="url(#p6532b0a3f4)" d="M 159.44217 273.312 
L 161.055677 273.312 
L 161.055677 86.249143 
L 159.44217 86.249143 
z
" style="fill:#1f77b4;"/>
   </g>
   <g id="patch_65">
    <path clip-path="url(#p6532b0a3f4)" d="M 161.055677 273.312 
L 162.669183 273.312 
L 162.669183 58.340571 
L 161.055677 58.340571 
z
" style="fill:#1f77b4;"/>
   </g>
   <g id="patch_66">
    <path clip-path="url(#p6532b0a3f4)" d="M 162.669183 273.312 
L 164.28269 273.312 
L 164.28269 87.757714 
L 162.669183 87.757714 
z
" style="fill:#1f77b4;"/>
   </g>
   <g id="patch_67">
    <path clip-path="url(#p6532b0a3f4)" d="M 164.28269 273.312 
L 165.896196 273.312 
L 165.896196 83.232 
L 164.28269 83.232 
z
" style="fill:#1f77b4;"/>
   </g>
   <g id="patch_68">
    <path clip-path="url(#p6532b0a3f4)" d="M 165.896196 273.312 
L 167.509702 273.312 
L 167.509702 73.426286 
L 165.896196 73.426286 
z
" style="fill:#1f77b4;"/>
   </g>
   <g id="patch_69">
    <path clip-path="url(#p6532b0a3f4)" d="M 167.509702 273.312 
L 169.123209 273.312 
L 169.123209 70.409143 
L 167.509702 70.409143 
z
" style="fill:#1f77b4;"/>
   </g>
   <g id="patch_70">
    <path clip-path="url(#p6532b0a3f4)" d="M 169.123209 273.312 
L 170.736715 273.312 
L 170.736715 53.060571 
L 169.123209 53.060571 
z
" style="fill:#1f77b4;"/>
   </g>
   <g id="patch_71">
    <path clip-path="url(#p6532b0a3f4)" d="M 170.736715 273.312 
L 172.350222 273.312 
L 172.350222 73.426286 
L 170.736715 73.426286 
z
" style="fill:#1f77b4;"/>
   </g>
   <g id="patch_72">
    <path clip-path="url(#p6532b0a3f4)" d="M 172.350222 273.312 
L 173.963728 273.312 
L 173.963728 64.374857 
L 172.350222 64.374857 
z
" style="fill:#1f77b4;"/>
   </g>
   <g id="patch_73">
    <path clip-path="url(#p6532b0a3f4)" d="M 173.963728 273.312 
L 175.577235 273.312 
L 175.577235 72.672 
L 173.963728 72.672 
z
" style="fill:#1f77b4;"/>
   </g>
   <g id="patch_74">
    <path clip-path="url(#p6532b0a3f4)" d="M 175.577235 273.312 
L 177.190741 273.312 
L 177.190741 77.952 
L 175.577235 77.952 
z
" style="fill:#1f77b4;"/>
   </g>
   <g id="patch_75">
    <path clip-path="url(#p6532b0a3f4)" d="M 177.190741 273.312 
L 178.804248 273.312 
L 178.804248 81.723429 
L 177.190741 81.723429 
z
" style="fill:#1f77b4;"/>
   </g>
   <g id="patch_76">
    <path clip-path="url(#p6532b0a3f4)" d="M 178.804248 273.312 
L 180.417754 273.312 
L 180.417754 64.374857 
L 178.804248 64.374857 
z
" style="fill:#1f77b4;"/>
   </g>
   <g id="patch_77">
    <path clip-path="url(#p6532b0a3f4)" d="M 180.417754 273.312 
L 182.031261 273.312 
L 182.031261 50.043429 
L 180.417754 50.043429 
z
" style="fill:#1f77b4;"/>
   </g>
   <g id="patch_78">
    <path clip-path="url(#p6532b0a3f4)" d="M 182.031261 273.312 
L 183.644767 273.312 
L 183.644767 64.374857 
L 182.031261 64.374857 
z
" style="fill:#1f77b4;"/>
   </g>
   <g id="patch_79">
    <path clip-path="url(#p6532b0a3f4)" d="M 183.644767 273.312 
L 185.258273 273.312 
L 185.258273 55.323429 
L 183.644767 55.323429 
z
" style="fill:#1f77b4;"/>
   </g>
   <g id="patch_80">
    <path clip-path="url(#p6532b0a3f4)" d="M 185.258273 273.312 
L 186.87178 273.312 
L 186.87178 57.586286 
L 185.258273 57.586286 
z
" style="fill:#1f77b4;"/>
   </g>
   <g id="patch_81">
    <path clip-path="url(#p6532b0a3f4)" d="M 186.87178 273.312 
L 188.485286 273.312 
L 188.485286 43.254857 
L 186.87178 43.254857 
z
" style="fill:#1f77b4;"/>
   </g>
   <g id="patch_82">
    <path clip-path="url(#p6532b0a3f4)" d="M 188.485286 273.312 
L 190.098793 273.312 
L 190.098793 75.689143 
L 188.485286 75.689143 
z
" style="fill:#1f77b4;"/>
   </g>
   <g id="patch_83">
    <path clip-path="url(#p6532b0a3f4)" d="M 190.098793 273.312 
L 191.712299 273.312 
L 191.712299 66.637714 
L 190.098793 66.637714 
z
" style="fill:#1f77b4;"/>
   </g>
   <g id="patch_84">
    <path clip-path="url(#p6532b0a3f4)" d="M 191.712299 273.312 
L 193.325806 273.312 
L 193.325806 59.094857 
L 191.712299 59.094857 
z
" style="fill:#1f77b4;"/>
   </g>
   <g id="patch_85">
    <path clip-path="url(#p6532b0a3f4)" d="M 193.325806 273.312 
L 194.939312 273.312 
L 194.939312 45.517714 
L 193.325806 45.517714 
z
" style="fill:#1f77b4;"/>
   </g>
   <g id="patch_86">
    <path clip-path="url(#p6532b0a3f4)" d="M 194.939312 273.312 
L 196.552819 273.312 
L 196.552819 52.306286 
L 194.939312 52.306286 
z
" style="fill:#1f77b4;"/>
   </g>
   <g id="patch_87">
    <path clip-path="url(#p6532b0a3f4)" d="M 196.552819 273.312 
L 198.166325 273.312 
L 198.166325 58.340571 
L 196.552819 58.340571 
z
" style="fill:#1f77b4;"/>
   </g>
   <g id="patch_88">
    <path clip-path="url(#p6532b0a3f4)" d="M 198.166325 273.312 
L 199.779832 273.312 
L 199.779832 62.866286 
L 198.166325 62.866286 
z
" style="fill:#1f77b4;"/>
   </g>
   <g id="patch_89">
    <path clip-path="url(#p6532b0a3f4)" d="M 199.779832 273.312 
L 201.393338 273.312 
L 201.393338 29.677714 
L 199.779832 29.677714 
z
" style="fill:#1f77b4;"/>
   </g>
   <g id="patch_90">
    <path clip-path="url(#p6532b0a3f4)" d="M 201.393338 273.312 
L 203.006845 273.312 
L 203.006845 39.483429 
L 201.393338 39.483429 
z
" style="fill:#1f77b4;"/>
   </g>
   <g id="patch_91">
    <path clip-path="url(#p6532b0a3f4)" d="M 203.006845 273.312 
L 204.620351 273.312 
L 204.620351 44.009143 
L 203.006845 44.009143 
z
" style="fill:#1f77b4;"/>
   </g>
   <g id="patch_92">
    <path clip-path="url(#p6532b0a3f4)" d="M 204.620351 273.312 
L 206.233857 273.312 
L 206.233857 44.763429 
L 204.620351 44.763429 
z
" style="fill:#1f77b4;"/>
   </g>
   <g id="patch_93">
    <path clip-path="url(#p6532b0a3f4)" d="M 206.233857 273.312 
L 207.847364 273.312 
L 207.847364 34.203429 
L 206.233857 34.203429 
z
" style="fill:#1f77b4;"/>
   </g>
   <g id="patch_94">
    <path clip-path="url(#p6532b0a3f4)" d="M 207.847364 273.312 
L 209.46087 273.312 
L 209.46087 19.872 
L 207.847364 19.872 
z
" style="fill:#1f77b4;"/>
   </g>
   <g id="patch_95">
    <path clip-path="url(#p6532b0a3f4)" d="M 209.46087 273.312 
L 211.074377 273.312 
L 211.074377 26.660571 
L 209.46087 26.660571 
z
" style="fill:#1f77b4;"/>
   </g>
   <g id="patch_96">
    <path clip-path="url(#p6532b0a3f4)" d="M 211.074377 273.312 
L 212.687883 273.312 
L 212.687883 37.220571 
L 211.074377 37.220571 
z
" style="fill:#1f77b4;"/>
   </g>
   <g id="patch_97">
    <path clip-path="url(#p6532b0a3f4)" d="M 212.687883 273.312 
L 214.30139 273.312 
L 214.30139 35.712 
L 212.687883 35.712 
z
" style="fill:#1f77b4;"/>
   </g>
   <g id="patch_98">
    <path clip-path="url(#p6532b0a3f4)" d="M 214.30139 273.312 
L 215.914896 273.312 
L 215.914896 37.220571 
L 214.30139 37.220571 
z
" style="fill:#1f77b4;"/>
   </g>
   <g id="patch_99">
    <path clip-path="url(#p6532b0a3f4)" d="M 215.914896 273.312 
L 217.528403 273.312 
L 217.528403 29.677714 
L 215.914896 29.677714 
z
" style="fill:#1f77b4;"/>
   </g>
   <g id="patch_100">
    <path clip-path="url(#p6532b0a3f4)" d="M 217.528403 273.312 
L 219.141909 273.312 
L 219.141909 45.517714 
L 217.528403 45.517714 
z
" style="fill:#1f77b4;"/>
   </g>
   <g id="patch_101">
    <path clip-path="url(#p6532b0a3f4)" d="M 219.141909 273.312 
L 220.755416 273.312 
L 220.755416 34.203429 
L 219.141909 34.203429 
z
" style="fill:#1f77b4;"/>
   </g>
   <g id="patch_102">
    <path clip-path="url(#p6532b0a3f4)" d="M 220.755416 273.312 
L 222.368922 273.312 
L 222.368922 59.094857 
L 220.755416 59.094857 
z
" style="fill:#1f77b4;"/>
   </g>
   <g id="patch_103">
    <path clip-path="url(#p6532b0a3f4)" d="M 222.368922 273.312 
L 223.982429 273.312 
L 223.982429 34.203429 
L 222.368922 34.203429 
z
" style="fill:#1f77b4;"/>
   </g>
   <g id="patch_104">
    <path clip-path="url(#p6532b0a3f4)" d="M 223.982429 273.312 
L 225.595935 273.312 
L 225.595935 22.134857 
L 223.982429 22.134857 
z
" style="fill:#1f77b4;"/>
   </g>
   <g id="patch_105">
    <path clip-path="url(#p6532b0a3f4)" d="M 225.595935 273.312 
L 227.209441 273.312 
L 227.209441 53.814857 
L 225.595935 53.814857 
z
" style="fill:#1f77b4;"/>
   </g>
   <g id="patch_106">
    <path clip-path="url(#p6532b0a3f4)" d="M 227.209441 273.312 
L 228.822948 273.312 
L 228.822948 42.500571 
L 227.209441 42.500571 
z
" style="fill:#1f77b4;"/>
   </g>
   <g id="patch_107">
    <path clip-path="url(#p6532b0a3f4)" d="M 228.822948 273.312 
L 230.436454 273.312 
L 230.436454 21.380571 
L 228.822948 21.380571 
z
" style="fill:#1f77b4;"/>
   </g>
   <g id="patch_108">
    <path clip-path="url(#p6532b0a3f4)" d="M 230.436454 273.312 
L 232.049961 273.312 
L 232.049961 58.340571 
L 230.436454 58.340571 
z
" style="fill:#1f77b4;"/>
   </g>
   <g id="patch_109">
    <path clip-path="url(#p6532b0a3f4)" d="M 232.049961 273.312 
L 233.663467 273.312 
L 233.663467 29.677714 
L 232.049961 29.677714 
z
" style="fill:#1f77b4;"/>
   </g>
   <g id="patch_110">
    <path clip-path="url(#p6532b0a3f4)" d="M 233.663467 273.312 
L 235.276974 273.312 
L 235.276974 61.357714 
L 233.663467 61.357714 
z
" style="fill:#1f77b4;"/>
   </g>
   <g id="patch_111">
    <path clip-path="url(#p6532b0a3f4)" d="M 235.276974 273.312 
L 236.89048 273.312 
L 236.89048 20.626286 
L 235.276974 20.626286 
z
" style="fill:#1f77b4;"/>
   </g>
   <g id="patch_112">
    <path clip-path="url(#p6532b0a3f4)" d="M 236.89048 273.312 
L 238.503987 273.312 
L 238.503987 44.763429 
L 236.89048 44.763429 
z
" style="fill:#1f77b4;"/>
   </g>
   <g id="patch_113">
    <path clip-path="url(#p6532b0a3f4)" d="M 238.503987 273.312 
L 240.117493 273.312 
L 240.117493 46.272 
L 238.503987 46.272 
z
" style="fill:#1f77b4;"/>
   </g>
   <g id="patch_114">
    <path clip-path="url(#p6532b0a3f4)" d="M 240.117493 273.312 
L 241.731 273.312 
L 241.731 37.974857 
L 240.117493 37.974857 
z
" style="fill:#1f77b4;"/>
   </g>
   <g id="patch_115">
    <path clip-path="url(#p6532b0a3f4)" d="M 241.731 273.312 
L 243.344506 273.312 
L 243.344506 27.414857 
L 241.731 27.414857 
z
" style="fill:#1f77b4;"/>
   </g>
   <g id="patch_116">
    <path clip-path="url(#p6532b0a3f4)" d="M 243.344506 273.312 
L 244.958013 273.312 
L 244.958013 23.643429 
L 243.344506 23.643429 
z
" style="fill:#1f77b4;"/>
   </g>
   <g id="patch_117">
    <path clip-path="url(#p6532b0a3f4)" d="M 244.958013 273.312 
L 246.571519 273.312 
L 246.571519 29.677714 
L 244.958013 29.677714 
z
" style="fill:#1f77b4;"/>
   </g>
   <g id="patch_118">
    <path clip-path="url(#p6532b0a3f4)" d="M 246.571519 273.312 
L 248.185025 273.312 
L 248.185025 45.517714 
L 246.571519 45.517714 
z
" style="fill:#1f77b4;"/>
   </g>
   <g id="patch_119">
    <path clip-path="url(#p6532b0a3f4)" d="M 248.185025 273.312 
L 249.798532 273.312 
L 249.798532 63.620571 
L 248.185025 63.620571 
z
" style="fill:#1f77b4;"/>
   </g>
   <g id="patch_120">
    <path clip-path="url(#p6532b0a3f4)" d="M 249.798532 273.312 
L 251.412038 273.312 
L 251.412038 40.237714 
L 249.798532 40.237714 
z
" style="fill:#1f77b4;"/>
   </g>
   <g id="patch_121">
    <path clip-path="url(#p6532b0a3f4)" d="M 251.412038 273.312 
L 253.025545 273.312 
L 253.025545 30.432 
L 251.412038 30.432 
z
" style="fill:#1f77b4;"/>
   </g>
   <g id="patch_122">
    <path clip-path="url(#p6532b0a3f4)" d="M 253.025545 273.312 
L 254.639051 273.312 
L 254.639051 56.832 
L 253.025545 56.832 
z
" style="fill:#1f77b4;"/>
   </g>
   <g id="patch_123">
    <path clip-path="url(#p6532b0a3f4)" d="M 254.639051 273.312 
L 256.252558 273.312 
L 256.252558 71.917714 
L 254.639051 71.917714 
z
" style="fill:#1f77b4;"/>
   </g>
   <g id="patch_124">
    <path clip-path="url(#p6532b0a3f4)" d="M 256.252558 273.312 
L 257.866064 273.312 
L 257.866064 44.009143 
L 256.252558 44.009143 
z
" style="fill:#1f77b4;"/>
   </g>
   <g id="patch_125">
    <path clip-path="url(#p6532b0a3f4)" d="M 257.866064 273.312 
L 259.479571 273.312 
L 259.479571 56.077714 
L 257.866064 56.077714 
z
" style="fill:#1f77b4;"/>
   </g>
   <g id="patch_126">
    <path clip-path="url(#p6532b0a3f4)" d="M 259.479571 273.312 
L 261.093077 273.312 
L 261.093077 71.163429 
L 259.479571 71.163429 
z
" style="fill:#1f77b4;"/>
   </g>
   <g id="patch_127">
    <path clip-path="url(#p6532b0a3f4)" d="M 261.093077 273.312 
L 262.706584 273.312 
L 262.706584 48.534857 
L 261.093077 48.534857 
z
" style="fill:#1f77b4;"/>
   </g>
   <g id="patch_128">
    <path clip-path="url(#p6532b0a3f4)" d="M 262.706584 273.312 
L 264.32009 273.312 
L 264.32009 80.969143 
L 262.706584 80.969143 
z
" style="fill:#1f77b4;"/>
   </g>
   <g id="patch_129">
    <path clip-path="url(#p6532b0a3f4)" d="M 264.32009 273.312 
L 265.933596 273.312 
L 265.933596 65.129143 
L 264.32009 65.129143 
z
" style="fill:#1f77b4;"/>
   </g>
   <g id="patch_130">
    <path clip-path="url(#p6532b0a3f4)" d="M 265.933596 273.312 
L 267.547103 273.312 
L 267.547103 56.832 
L 265.933596 56.832 
z
" style="fill:#1f77b4;"/>
   </g>
   <g id="patch_131">
    <path clip-path="url(#p6532b0a3f4)" d="M 267.547103 273.312 
L 269.160609 273.312 
L 269.160609 53.060571 
L 267.547103 53.060571 
z
" style="fill:#1f77b4;"/>
   </g>
   <g id="patch_132">
    <path clip-path="url(#p6532b0a3f4)" d="M 269.160609 273.312 
L 270.774116 273.312 
L 270.774116 43.254857 
L 269.160609 43.254857 
z
" style="fill:#1f77b4;"/>
   </g>
   <g id="patch_133">
    <path clip-path="url(#p6532b0a3f4)" d="M 270.774116 273.312 
L 272.387622 273.312 
L 272.387622 48.534857 
L 270.774116 48.534857 
z
" style="fill:#1f77b4;"/>
   </g>
   <g id="patch_134">
    <path clip-path="url(#p6532b0a3f4)" d="M 272.387622 273.312 
L 274.001129 273.312 
L 274.001129 77.952 
L 272.387622 77.952 
z
" style="fill:#1f77b4;"/>
   </g>
   <g id="patch_135">
    <path clip-path="url(#p6532b0a3f4)" d="M 274.001129 273.312 
L 275.614635 273.312 
L 275.614635 65.883429 
L 274.001129 65.883429 
z
" style="fill:#1f77b4;"/>
   </g>
   <g id="patch_136">
    <path clip-path="url(#p6532b0a3f4)" d="M 275.614635 273.312 
L 277.228142 273.312 
L 277.228142 83.232 
L 275.614635 83.232 
z
" style="fill:#1f77b4;"/>
   </g>
   <g id="patch_137">
    <path clip-path="url(#p6532b0a3f4)" d="M 277.228142 273.312 
L 278.841648 273.312 
L 278.841648 63.620571 
L 277.228142 63.620571 
z
" style="fill:#1f77b4;"/>
   </g>
   <g id="patch_138">
    <path clip-path="url(#p6532b0a3f4)" d="M 278.841648 273.312 
L 280.455155 273.312 
L 280.455155 77.197714 
L 278.841648 77.197714 
z
" style="fill:#1f77b4;"/>
   </g>
   <g id="patch_139">
    <path clip-path="url(#p6532b0a3f4)" d="M 280.455155 273.312 
L 282.068661 273.312 
L 282.068661 87.003429 
L 280.455155 87.003429 
z
" style="fill:#1f77b4;"/>
   </g>
   <g id="patch_140">
    <path clip-path="url(#p6532b0a3f4)" d="M 282.068661 273.312 
L 283.682168 273.312 
L 283.682168 79.460571 
L 282.068661 79.460571 
z
" style="fill:#1f77b4;"/>
   </g>
   <g id="patch_141">
    <path clip-path="url(#p6532b0a3f4)" d="M 283.682168 273.312 
L 285.295674 273.312 
L 285.295674 66.637714 
L 283.682168 66.637714 
z
" style="fill:#1f77b4;"/>
   </g>
   <g id="patch_142">
    <path clip-path="url(#p6532b0a3f4)" d="M 285.295674 273.312 
L 286.90918 273.312 
L 286.90918 78.706286 
L 285.295674 78.706286 
z
" style="fill:#1f77b4;"/>
   </g>
   <g id="patch_143">
    <path clip-path="url(#p6532b0a3f4)" d="M 286.90918 273.312 
L 288.522687 273.312 
L 288.522687 94.546286 
L 286.90918 94.546286 
z
" style="fill:#1f77b4;"/>
   </g>
   <g id="patch_144">
    <path clip-path="url(#p6532b0a3f4)" d="M 288.522687 273.312 
L 290.136193 273.312 
L 290.136193 88.512 
L 288.522687 88.512 
z
" style="fill:#1f77b4;"/>
   </g>
   <g id="patch_145">
    <path clip-path="url(#p6532b0a3f4)" d="M 290.136193 273.312 
L 291.7497 273.312 
L 291.7497 69.654857 
L 290.136193 69.654857 
z
" style="fill:#1f77b4;"/>
   </g>
   <g id="patch_146">
    <path clip-path="url(#p6532b0a3f4)" d="M 291.7497 273.312 
L 293.363206 273.312 
L 293.363206 73.426286 
L 291.7497 73.426286 
z
" style="fill:#1f77b4;"/>
   </g>
   <g id="patch_147">
    <path clip-path="url(#p6532b0a3f4)" d="M 293.363206 273.312 
L 294.976713 273.312 
L 294.976713 99.072 
L 293.363206 99.072 
z
" style="fill:#1f77b4;"/>
   </g>
   <g id="patch_148">
    <path clip-path="url(#p6532b0a3f4)" d="M 294.976713 273.312 
L 296.590219 273.312 
L 296.590219 107.369143 
L 294.976713 107.369143 
z
" style="fill:#1f77b4;"/>
   </g>
   <g id="patch_149">
    <path clip-path="url(#p6532b0a3f4)" d="M 296.590219 273.312 
L 298.203726 273.312 
L 298.203726 108.877714 
L 296.590219 108.877714 
z
" style="fill:#1f77b4;"/>
   </g>
   <g id="patch_150">
    <path clip-path="url(#p6532b0a3f4)" d="M 298.203726 273.312 
L 299.817232 273.312 
L 299.817232 113.403429 
L 298.203726 113.403429 
z
" style="fill:#1f77b4;"/>
   </g>
   <g id="patch_151">
    <path clip-path="url(#p6532b0a3f4)" d="M 299.817232 273.312 
L 301.430739 273.312 
L 301.430739 100.580571 
L 299.817232 100.580571 
z
" style="fill:#1f77b4;"/>
   </g>
   <g id="patch_152">
    <path clip-path="url(#p6532b0a3f4)" d="M 301.430739 273.312 
L 303.044245 273.312 
L 303.044245 110.386286 
L 301.430739 110.386286 
z
" style="fill:#1f77b4;"/>
   </g>
   <g id="patch_153">
    <path clip-path="url(#p6532b0a3f4)" d="M 303.044245 273.312 
L 304.657752 273.312 
L 304.657752 119.437714 
L 303.044245 119.437714 
z
" style="fill:#1f77b4;"/>
   </g>
   <g id="patch_154">
    <path clip-path="url(#p6532b0a3f4)" d="M 304.657752 273.312 
L 306.271258 273.312 
L 306.271258 107.369143 
L 304.657752 107.369143 
z
" style="fill:#1f77b4;"/>
   </g>
   <g id="patch_155">
    <path clip-path="url(#p6532b0a3f4)" d="M 306.271258 273.312 
L 307.884764 273.312 
L 307.884764 103.597714 
L 306.271258 103.597714 
z
" style="fill:#1f77b4;"/>
   </g>
   <g id="patch_156">
    <path clip-path="url(#p6532b0a3f4)" d="M 307.884764 273.312 
L 309.498271 273.312 
L 309.498271 109.632 
L 307.884764 109.632 
z
" style="fill:#1f77b4;"/>
   </g>
   <g id="patch_157">
    <path clip-path="url(#p6532b0a3f4)" d="M 309.498271 273.312 
L 311.111777 273.312 
L 311.111777 105.860571 
L 309.498271 105.860571 
z
" style="fill:#1f77b4;"/>
   </g>
   <g id="patch_158">
    <path clip-path="url(#p6532b0a3f4)" d="M 311.111777 273.312 
L 312.725284 273.312 
L 312.725284 120.192 
L 311.111777 120.192 
z
" style="fill:#1f77b4;"/>
   </g>
   <g id="patch_159">
    <path clip-path="url(#p6532b0a3f4)" d="M 312.725284 273.312 
L 314.33879 273.312 
L 314.33879 129.243429 
L 312.725284 129.243429 
z
" style="fill:#1f77b4;"/>
   </g>
   <g id="patch_160">
    <path clip-path="url(#p6532b0a3f4)" d="M 314.33879 273.312 
L 315.952297 273.312 
L 315.952297 135.277714 
L 314.33879 135.277714 
z
" style="fill:#1f77b4;"/>
   </g>
   <g id="patch_161">
    <path clip-path="url(#p6532b0a3f4)" d="M 315.952297 273.312 
L 317.565803 273.312 
L 317.565803 130.752 
L 315.952297 130.752 
z
" style="fill:#1f77b4;"/>
   </g>
   <g id="patch_162">
    <path clip-path="url(#p6532b0a3f4)" d="M 317.565803 273.312 
L 319.17931 273.312 
L 319.17931 154.889143 
L 317.565803 154.889143 
z
" style="fill:#1f77b4;"/>
   </g>
   <g id="patch_163">
    <path clip-path="url(#p6532b0a3f4)" d="M 319.17931 273.312 
L 320.792816 273.312 
L 320.792816 136.786286 
L 319.17931 136.786286 
z
" style="fill:#1f77b4;"/>
   </g>
   <g id="patch_164">
    <path clip-path="url(#p6532b0a3f4)" d="M 320.792816 273.312 
L 322.406323 273.312 
L 322.406323 142.066286 
L 320.792816 142.066286 
z
" style="fill:#1f77b4;"/>
   </g>
   <g id="patch_165">
    <path clip-path="url(#p6532b0a3f4)" d="M 322.406323 273.312 
L 324.019829 273.312 
L 324.019829 144.329143 
L 322.406323 144.329143 
z
" style="fill:#1f77b4;"/>
   </g>
   <g id="patch_166">
    <path clip-path="url(#p6532b0a3f4)" d="M 324.019829 273.312 
L 325.633336 273.312 
L 325.633336 164.694857 
L 324.019829 164.694857 
z
" style="fill:#1f77b4;"/>
   </g>
   <g id="patch_167">
    <path clip-path="url(#p6532b0a3f4)" d="M 325.633336 273.312 
L 327.246842 273.312 
L 327.246842 148.100571 
L 325.633336 148.100571 
z
" style="fill:#1f77b4;"/>
   </g>
   <g id="patch_168">
    <path clip-path="url(#p6532b0a3f4)" d="M 327.246842 273.312 
L 328.860348 273.312 
L 328.860348 159.414857 
L 327.246842 159.414857 
z
" style="fill:#1f77b4;"/>
   </g>
   <g id="patch_169">
    <path clip-path="url(#p6532b0a3f4)" d="M 328.860348 273.312 
L 330.473855 273.312 
L 330.473855 154.889143 
L 328.860348 154.889143 
z
" style="fill:#1f77b4;"/>
   </g>
   <g id="patch_170">
    <path clip-path="url(#p6532b0a3f4)" d="M 330.473855 273.312 
L 332.087361 273.312 
L 332.087361 156.397714 
L 330.473855 156.397714 
z
" style="fill:#1f77b4;"/>
   </g>
   <g id="patch_171">
    <path clip-path="url(#p6532b0a3f4)" d="M 332.087361 273.312 
L 333.700868 273.312 
L 333.700868 144.329143 
L 332.087361 144.329143 
z
" style="fill:#1f77b4;"/>
   </g>
   <g id="patch_172">
    <path clip-path="url(#p6532b0a3f4)" d="M 333.700868 273.312 
L 335.314374 273.312 
L 335.314374 155.643429 
L 333.700868 155.643429 
z
" style="fill:#1f77b4;"/>
   </g>
   <g id="patch_173">
    <path clip-path="url(#p6532b0a3f4)" d="M 335.314374 273.312 
L 336.927881 273.312 
L 336.927881 160.923429 
L 335.314374 160.923429 
z
" style="fill:#1f77b4;"/>
   </g>
   <g id="patch_174">
    <path clip-path="url(#p6532b0a3f4)" d="M 336.927881 273.312 
L 338.541387 273.312 
L 338.541387 157.152 
L 336.927881 157.152 
z
" style="fill:#1f77b4;"/>
   </g>
   <g id="patch_175">
    <path clip-path="url(#p6532b0a3f4)" d="M 338.541387 273.312 
L 340.154894 273.312 
L 340.154894 163.940571 
L 338.541387 163.940571 
z
" style="fill:#1f77b4;"/>
   </g>
   <g id="patch_176">
    <path clip-path="url(#p6532b0a3f4)" d="M 340.154894 273.312 
L 341.7684 273.312 
L 341.7684 166.957714 
L 340.154894 166.957714 
z
" style="fill:#1f77b4;"/>
   </g>
   <g id="patch_177">
    <path clip-path="url(#p6532b0a3f4)" d="M 341.7684 273.312 
L 343.381907 273.312 
L 343.381907 185.814857 
L 341.7684 185.814857 
z
" style="fill:#1f77b4;"/>
   </g>
   <g id="patch_178">
    <path clip-path="url(#p6532b0a3f4)" d="M 343.381907 273.312 
L 344.995413 273.312 
L 344.995413 179.026286 
L 343.381907 179.026286 
z
" style="fill:#1f77b4;"/>
   </g>
   <g id="patch_179">
    <path clip-path="url(#p6532b0a3f4)" d="M 344.995413 273.312 
L 346.608919 273.312 
L 346.608919 169.220571 
L 344.995413 169.220571 
z
" style="fill:#1f77b4;"/>
   </g>
   <g id="patch_180">
    <path clip-path="url(#p6532b0a3f4)" d="M 346.608919 273.312 
L 348.222426 273.312 
L 348.222426 186.569143 
L 346.608919 186.569143 
z
" style="fill:#1f77b4;"/>
   </g>
   <g id="patch_181">
    <path clip-path="url(#p6532b0a3f4)" d="M 348.222426 273.312 
L 349.835932 273.312 
L 349.835932 201.654857 
L 348.222426 201.654857 
z
" style="fill:#1f77b4;"/>
   </g>
   <g id="patch_182">
    <path clip-path="url(#p6532b0a3f4)" d="M 349.835932 273.312 
L 351.449439 273.312 
L 351.449439 185.814857 
L 349.835932 185.814857 
z
" style="fill:#1f77b4;"/>
   </g>
   <g id="patch_183">
    <path clip-path="url(#p6532b0a3f4)" d="M 351.449439 273.312 
L 353.062945 273.312 
L 353.062945 184.306286 
L 351.449439 184.306286 
z
" style="fill:#1f77b4;"/>
   </g>
   <g id="patch_184">
    <path clip-path="url(#p6532b0a3f4)" d="M 353.062945 273.312 
L 354.676452 273.312 
L 354.676452 194.112 
L 353.062945 194.112 
z
" style="fill:#1f77b4;"/>
   </g>
   <g id="patch_185">
    <path clip-path="url(#p6532b0a3f4)" d="M 354.676452 273.312 
L 356.289958 273.312 
L 356.289958 200.900571 
L 354.676452 200.900571 
z
" style="fill:#1f77b4;"/>
   </g>
   <g id="patch_186">
    <path clip-path="url(#p6532b0a3f4)" d="M 356.289958 273.312 
L 357.903465 273.312 
L 357.903465 207.689143 
L 356.289958 207.689143 
z
" style="fill:#1f77b4;"/>
   </g>
   <g id="patch_187">
    <path clip-path="url(#p6532b0a3f4)" d="M 357.903465 273.312 
L 359.516971 273.312 
L 359.516971 215.986286 
L 357.903465 215.986286 
z
" style="fill:#1f77b4;"/>
   </g>
   <g id="patch_188">
    <path clip-path="url(#p6532b0a3f4)" d="M 359.516971 273.312 
L 361.130478 273.312 
L 361.130478 207.689143 
L 359.516971 207.689143 
z
" style="fill:#1f77b4;"/>
   </g>
   <g id="patch_189">
    <path clip-path="url(#p6532b0a3f4)" d="M 361.130478 273.312 
L 362.743984 273.312 
L 362.743984 215.232 
L 361.130478 215.232 
z
" style="fill:#1f77b4;"/>
   </g>
   <g id="patch_190">
    <path clip-path="url(#p6532b0a3f4)" d="M 362.743984 273.312 
L 364.357491 273.312 
L 364.357491 231.072 
L 362.743984 231.072 
z
" style="fill:#1f77b4;"/>
   </g>
   <g id="patch_191">
    <path clip-path="url(#p6532b0a3f4)" d="M 364.357491 273.312 
L 365.970997 273.312 
L 365.970997 228.809143 
L 364.357491 228.809143 
z
" style="fill:#1f77b4;"/>
   </g>
   <g id="patch_192">
    <path clip-path="url(#p6532b0a3f4)" d="M 365.970997 273.312 
L 367.584503 273.312 
L 367.584503 229.563429 
L 365.970997 229.563429 
z
" style="fill:#1f77b4;"/>
   </g>
   <g id="patch_193">
    <path clip-path="url(#p6532b0a3f4)" d="M 367.584503 273.312 
L 369.19801 273.312 
L 369.19801 243.894857 
L 367.584503 243.894857 
z
" style="fill:#1f77b4;"/>
   </g>
   <g id="patch_194">
    <path clip-path="url(#p6532b0a3f4)" d="M 369.19801 273.312 
L 370.811516 273.312 
L 370.811516 240.123429 
L 369.19801 240.123429 
z
" style="fill:#1f77b4;"/>
   </g>
   <g id="patch_195">
    <path clip-path="url(#p6532b0a3f4)" d="M 370.811516 273.312 
L 372.425023 273.312 
L 372.425023 243.140571 
L 370.811516 243.140571 
z
" style="fill:#1f77b4;"/>
   </g>
   <g id="patch_196">
    <path clip-path="url(#p6532b0a3f4)" d="M 372.425023 273.312 
L 374.038529 273.312 
L 374.038529 246.912 
L 372.425023 246.912 
z
" style="fill:#1f77b4;"/>
   </g>
   <g id="patch_197">
    <path clip-path="url(#p6532b0a3f4)" d="M 374.038529 273.312 
L 375.652036 273.312 
L 375.652036 252.946286 
L 374.038529 252.946286 
z
" style="fill:#1f77b4;"/>
   </g>
   <g id="patch_198">
    <path clip-path="url(#p6532b0a3f4)" d="M 375.652036 273.312 
L 377.265542 273.312 
L 377.265542 249.174857 
L 375.652036 249.174857 
z
" style="fill:#1f77b4;"/>
   </g>
   <g id="patch_199">
    <path clip-path="url(#p6532b0a3f4)" d="M 377.265542 273.312 
L 378.879049 273.312 
L 378.879049 261.997714 
L 377.265542 261.997714 
z
" style="fill:#1f77b4;"/>
   </g>
   <g id="patch_200">
    <path clip-path="url(#p6532b0a3f4)" d="M 378.879049 273.312 
L 380.492555 273.312 
L 380.492555 265.014857 
L 378.879049 265.014857 
z
" style="fill:#1f77b4;"/>
   </g>
   <g id="patch_201">
    <path clip-path="url(#p6532b0a3f4)" d="M 380.492555 273.312 
L 382.106062 273.312 
L 382.106062 263.506286 
L 380.492555 263.506286 
z
" style="fill:#1f77b4;"/>
   </g>
   <g id="patch_202">
    <path clip-path="url(#p6532b0a3f4)" d="M 382.106062 273.312 
L 383.719568 273.312 
L 383.719568 269.540571 
L 382.106062 269.540571 
z
" style="fill:#1f77b4;"/>
   </g>
   <g id="matplotlib.axis_1">
    <g id="xtick_1">
     <g id="line2d_1">
      <defs>
       <path d="M 0 0 
L 0 3.5 
" id="m653f4c3ccd" style="stroke:#000000;stroke-width:0.8;"/>
      </defs>
      <g>
       <use style="stroke:#000000;stroke-width:0.8;" x="60.013977" xlink:href="#m653f4c3ccd" y="273.312"/>
      </g>
     </g>
     <g id="text_1">
      <!-- 0.0 -->
      <g transform="translate(52.062415 287.910437)scale(0.1 -0.1)">
       <defs>
        <path d="M 2034 4250 
Q 1547 4250 1301 3770 
Q 1056 3291 1056 2328 
Q 1056 1369 1301 889 
Q 1547 409 2034 409 
Q 2525 409 2770 889 
Q 3016 1369 3016 2328 
Q 3016 3291 2770 3770 
Q 2525 4250 2034 4250 
z
M 2034 4750 
Q 2819 4750 3233 4129 
Q 3647 3509 3647 2328 
Q 3647 1150 3233 529 
Q 2819 -91 2034 -91 
Q 1250 -91 836 529 
Q 422 1150 422 2328 
Q 422 3509 836 4129 
Q 1250 4750 2034 4750 
z
" id="DejaVuSans-30" transform="scale(0.015625)"/>
        <path d="M 684 794 
L 1344 794 
L 1344 0 
L 684 0 
L 684 794 
z
" id="DejaVuSans-2e" transform="scale(0.015625)"/>
       </defs>
       <use xlink:href="#DejaVuSans-30"/>
       <use x="63.623047" xlink:href="#DejaVuSans-2e"/>
       <use x="95.410156" xlink:href="#DejaVuSans-30"/>
      </g>
     </g>
    </g>
    <g id="xtick_2">
     <g id="line2d_2">
      <g>
       <use style="stroke:#000000;stroke-width:0.8;" x="101.350278" xlink:href="#m653f4c3ccd" y="273.312"/>
      </g>
     </g>
     <g id="text_2">
      <!-- 0.2 -->
      <g transform="translate(93.398715 287.910437)scale(0.1 -0.1)">
       <defs>
        <path d="M 1228 531 
L 3431 531 
L 3431 0 
L 469 0 
L 469 531 
Q 828 903 1448 1529 
Q 2069 2156 2228 2338 
Q 2531 2678 2651 2914 
Q 2772 3150 2772 3378 
Q 2772 3750 2511 3984 
Q 2250 4219 1831 4219 
Q 1534 4219 1204 4116 
Q 875 4013 500 3803 
L 500 4441 
Q 881 4594 1212 4672 
Q 1544 4750 1819 4750 
Q 2544 4750 2975 4387 
Q 3406 4025 3406 3419 
Q 3406 3131 3298 2873 
Q 3191 2616 2906 2266 
Q 2828 2175 2409 1742 
Q 1991 1309 1228 531 
z
" id="DejaVuSans-32" transform="scale(0.015625)"/>
       </defs>
       <use xlink:href="#DejaVuSans-30"/>
       <use x="63.623047" xlink:href="#DejaVuSans-2e"/>
       <use x="95.410156" xlink:href="#DejaVuSans-32"/>
      </g>
     </g>
    </g>
    <g id="xtick_3">
     <g id="line2d_3">
      <g>
       <use style="stroke:#000000;stroke-width:0.8;" x="142.686578" xlink:href="#m653f4c3ccd" y="273.312"/>
      </g>
     </g>
     <g id="text_3">
      <!-- 0.4 -->
      <g transform="translate(134.735016 287.910437)scale(0.1 -0.1)">
       <defs>
        <path d="M 2419 4116 
L 825 1625 
L 2419 1625 
L 2419 4116 
z
M 2253 4666 
L 3047 4666 
L 3047 1625 
L 3713 1625 
L 3713 1100 
L 3047 1100 
L 3047 0 
L 2419 0 
L 2419 1100 
L 313 1100 
L 313 1709 
L 2253 4666 
z
" id="DejaVuSans-34" transform="scale(0.015625)"/>
       </defs>
       <use xlink:href="#DejaVuSans-30"/>
       <use x="63.623047" xlink:href="#DejaVuSans-2e"/>
       <use x="95.410156" xlink:href="#DejaVuSans-34"/>
      </g>
     </g>
    </g>
    <g id="xtick_4">
     <g id="line2d_4">
      <g>
       <use style="stroke:#000000;stroke-width:0.8;" x="184.022879" xlink:href="#m653f4c3ccd" y="273.312"/>
      </g>
     </g>
     <g id="text_4">
      <!-- 0.6 -->
      <g transform="translate(176.071316 287.910437)scale(0.1 -0.1)">
       <defs>
        <path d="M 2113 2584 
Q 1688 2584 1439 2293 
Q 1191 2003 1191 1497 
Q 1191 994 1439 701 
Q 1688 409 2113 409 
Q 2538 409 2786 701 
Q 3034 994 3034 1497 
Q 3034 2003 2786 2293 
Q 2538 2584 2113 2584 
z
M 3366 4563 
L 3366 3988 
Q 3128 4100 2886 4159 
Q 2644 4219 2406 4219 
Q 1781 4219 1451 3797 
Q 1122 3375 1075 2522 
Q 1259 2794 1537 2939 
Q 1816 3084 2150 3084 
Q 2853 3084 3261 2657 
Q 3669 2231 3669 1497 
Q 3669 778 3244 343 
Q 2819 -91 2113 -91 
Q 1303 -91 875 529 
Q 447 1150 447 2328 
Q 447 3434 972 4092 
Q 1497 4750 2381 4750 
Q 2619 4750 2861 4703 
Q 3103 4656 3366 4563 
z
" id="DejaVuSans-36" transform="scale(0.015625)"/>
       </defs>
       <use xlink:href="#DejaVuSans-30"/>
       <use x="63.623047" xlink:href="#DejaVuSans-2e"/>
       <use x="95.410156" xlink:href="#DejaVuSans-36"/>
      </g>
     </g>
    </g>
    <g id="xtick_5">
     <g id="line2d_5">
      <g>
       <use style="stroke:#000000;stroke-width:0.8;" x="225.35918" xlink:href="#m653f4c3ccd" y="273.312"/>
      </g>
     </g>
     <g id="text_5">
      <!-- 0.8 -->
      <g transform="translate(217.407617 287.910437)scale(0.1 -0.1)">
       <defs>
        <path d="M 2034 2216 
Q 1584 2216 1326 1975 
Q 1069 1734 1069 1313 
Q 1069 891 1326 650 
Q 1584 409 2034 409 
Q 2484 409 2743 651 
Q 3003 894 3003 1313 
Q 3003 1734 2745 1975 
Q 2488 2216 2034 2216 
z
M 1403 2484 
Q 997 2584 770 2862 
Q 544 3141 544 3541 
Q 544 4100 942 4425 
Q 1341 4750 2034 4750 
Q 2731 4750 3128 4425 
Q 3525 4100 3525 3541 
Q 3525 3141 3298 2862 
Q 3072 2584 2669 2484 
Q 3125 2378 3379 2068 
Q 3634 1759 3634 1313 
Q 3634 634 3220 271 
Q 2806 -91 2034 -91 
Q 1263 -91 848 271 
Q 434 634 434 1313 
Q 434 1759 690 2068 
Q 947 2378 1403 2484 
z
M 1172 3481 
Q 1172 3119 1398 2916 
Q 1625 2713 2034 2713 
Q 2441 2713 2670 2916 
Q 2900 3119 2900 3481 
Q 2900 3844 2670 4047 
Q 2441 4250 2034 4250 
Q 1625 4250 1398 4047 
Q 1172 3844 1172 3481 
z
" id="DejaVuSans-38" transform="scale(0.015625)"/>
       </defs>
       <use xlink:href="#DejaVuSans-30"/>
       <use x="63.623047" xlink:href="#DejaVuSans-2e"/>
       <use x="95.410156" xlink:href="#DejaVuSans-38"/>
      </g>
     </g>
    </g>
    <g id="xtick_6">
     <g id="line2d_6">
      <g>
       <use style="stroke:#000000;stroke-width:0.8;" x="266.69548" xlink:href="#m653f4c3ccd" y="273.312"/>
      </g>
     </g>
     <g id="text_6">
      <!-- 1.0 -->
      <g transform="translate(258.743918 287.910437)scale(0.1 -0.1)">
       <defs>
        <path d="M 794 531 
L 1825 531 
L 1825 4091 
L 703 3866 
L 703 4441 
L 1819 4666 
L 2450 4666 
L 2450 531 
L 3481 531 
L 3481 0 
L 794 0 
L 794 531 
z
" id="DejaVuSans-31" transform="scale(0.015625)"/>
       </defs>
       <use xlink:href="#DejaVuSans-31"/>
       <use x="63.623047" xlink:href="#DejaVuSans-2e"/>
       <use x="95.410156" xlink:href="#DejaVuSans-30"/>
      </g>
     </g>
    </g>
    <g id="xtick_7">
     <g id="line2d_7">
      <g>
       <use style="stroke:#000000;stroke-width:0.8;" x="308.031781" xlink:href="#m653f4c3ccd" y="273.312"/>
      </g>
     </g>
     <g id="text_7">
      <!-- 1.2 -->
      <g transform="translate(300.080218 287.910437)scale(0.1 -0.1)">
       <use xlink:href="#DejaVuSans-31"/>
       <use x="63.623047" xlink:href="#DejaVuSans-2e"/>
       <use x="95.410156" xlink:href="#DejaVuSans-32"/>
      </g>
     </g>
    </g>
    <g id="xtick_8">
     <g id="line2d_8">
      <g>
       <use style="stroke:#000000;stroke-width:0.8;" x="349.368081" xlink:href="#m653f4c3ccd" y="273.312"/>
      </g>
     </g>
     <g id="text_8">
      <!-- 1.4 -->
      <g transform="translate(341.416519 287.910437)scale(0.1 -0.1)">
       <use xlink:href="#DejaVuSans-31"/>
       <use x="63.623047" xlink:href="#DejaVuSans-2e"/>
       <use x="95.410156" xlink:href="#DejaVuSans-34"/>
      </g>
     </g>
    </g>
    <g id="xtick_9">
     <g id="line2d_9">
      <g>
       <use style="stroke:#000000;stroke-width:0.8;" x="390.704382" xlink:href="#m653f4c3ccd" y="273.312"/>
      </g>
     </g>
     <g id="text_9">
      <!-- 1.6 -->
      <g transform="translate(382.752819 287.910437)scale(0.1 -0.1)">
       <use xlink:href="#DejaVuSans-31"/>
       <use x="63.623047" xlink:href="#DejaVuSans-2e"/>
       <use x="95.410156" xlink:href="#DejaVuSans-36"/>
      </g>
     </g>
    </g>
    <g id="text_10">
     <!-- Angle with normal (rad) -->
     <g transform="translate(163.023281 301.588562)scale(0.1 -0.1)">
      <defs>
       <path d="M 2188 4044 
L 1331 1722 
L 3047 1722 
L 2188 4044 
z
M 1831 4666 
L 2547 4666 
L 4325 0 
L 3669 0 
L 3244 1197 
L 1141 1197 
L 716 0 
L 50 0 
L 1831 4666 
z
" id="DejaVuSans-41" transform="scale(0.015625)"/>
       <path d="M 3513 2113 
L 3513 0 
L 2938 0 
L 2938 2094 
Q 2938 2591 2744 2837 
Q 2550 3084 2163 3084 
Q 1697 3084 1428 2787 
Q 1159 2491 1159 1978 
L 1159 0 
L 581 0 
L 581 3500 
L 1159 3500 
L 1159 2956 
Q 1366 3272 1645 3428 
Q 1925 3584 2291 3584 
Q 2894 3584 3203 3211 
Q 3513 2838 3513 2113 
z
" id="DejaVuSans-6e" transform="scale(0.015625)"/>
       <path d="M 2906 1791 
Q 2906 2416 2648 2759 
Q 2391 3103 1925 3103 
Q 1463 3103 1205 2759 
Q 947 2416 947 1791 
Q 947 1169 1205 825 
Q 1463 481 1925 481 
Q 2391 481 2648 825 
Q 2906 1169 2906 1791 
z
M 3481 434 
Q 3481 -459 3084 -895 
Q 2688 -1331 1869 -1331 
Q 1566 -1331 1297 -1286 
Q 1028 -1241 775 -1147 
L 775 -588 
Q 1028 -725 1275 -790 
Q 1522 -856 1778 -856 
Q 2344 -856 2625 -561 
Q 2906 -266 2906 331 
L 2906 616 
Q 2728 306 2450 153 
Q 2172 0 1784 0 
Q 1141 0 747 490 
Q 353 981 353 1791 
Q 353 2603 747 3093 
Q 1141 3584 1784 3584 
Q 2172 3584 2450 3431 
Q 2728 3278 2906 2969 
L 2906 3500 
L 3481 3500 
L 3481 434 
z
" id="DejaVuSans-67" transform="scale(0.015625)"/>
       <path d="M 603 4863 
L 1178 4863 
L 1178 0 
L 603 0 
L 603 4863 
z
" id="DejaVuSans-6c" transform="scale(0.015625)"/>
       <path d="M 3597 1894 
L 3597 1613 
L 953 1613 
Q 991 1019 1311 708 
Q 1631 397 2203 397 
Q 2534 397 2845 478 
Q 3156 559 3463 722 
L 3463 178 
Q 3153 47 2828 -22 
Q 2503 -91 2169 -91 
Q 1331 -91 842 396 
Q 353 884 353 1716 
Q 353 2575 817 3079 
Q 1281 3584 2069 3584 
Q 2775 3584 3186 3129 
Q 3597 2675 3597 1894 
z
M 3022 2063 
Q 3016 2534 2758 2815 
Q 2500 3097 2075 3097 
Q 1594 3097 1305 2825 
Q 1016 2553 972 2059 
L 3022 2063 
z
" id="DejaVuSans-65" transform="scale(0.015625)"/>
       <path id="DejaVuSans-20" transform="scale(0.015625)"/>
       <path d="M 269 3500 
L 844 3500 
L 1563 769 
L 2278 3500 
L 2956 3500 
L 3675 769 
L 4391 3500 
L 4966 3500 
L 4050 0 
L 3372 0 
L 2619 2869 
L 1863 0 
L 1184 0 
L 269 3500 
z
" id="DejaVuSans-77" transform="scale(0.015625)"/>
       <path d="M 603 3500 
L 1178 3500 
L 1178 0 
L 603 0 
L 603 3500 
z
M 603 4863 
L 1178 4863 
L 1178 4134 
L 603 4134 
L 603 4863 
z
" id="DejaVuSans-69" transform="scale(0.015625)"/>
       <path d="M 1172 4494 
L 1172 3500 
L 2356 3500 
L 2356 3053 
L 1172 3053 
L 1172 1153 
Q 1172 725 1289 603 
Q 1406 481 1766 481 
L 2356 481 
L 2356 0 
L 1766 0 
Q 1100 0 847 248 
Q 594 497 594 1153 
L 594 3053 
L 172 3053 
L 172 3500 
L 594 3500 
L 594 4494 
L 1172 4494 
z
" id="DejaVuSans-74" transform="scale(0.015625)"/>
       <path d="M 3513 2113 
L 3513 0 
L 2938 0 
L 2938 2094 
Q 2938 2591 2744 2837 
Q 2550 3084 2163 3084 
Q 1697 3084 1428 2787 
Q 1159 2491 1159 1978 
L 1159 0 
L 581 0 
L 581 4863 
L 1159 4863 
L 1159 2956 
Q 1366 3272 1645 3428 
Q 1925 3584 2291 3584 
Q 2894 3584 3203 3211 
Q 3513 2838 3513 2113 
z
" id="DejaVuSans-68" transform="scale(0.015625)"/>
       <path d="M 1959 3097 
Q 1497 3097 1228 2736 
Q 959 2375 959 1747 
Q 959 1119 1226 758 
Q 1494 397 1959 397 
Q 2419 397 2687 759 
Q 2956 1122 2956 1747 
Q 2956 2369 2687 2733 
Q 2419 3097 1959 3097 
z
M 1959 3584 
Q 2709 3584 3137 3096 
Q 3566 2609 3566 1747 
Q 3566 888 3137 398 
Q 2709 -91 1959 -91 
Q 1206 -91 779 398 
Q 353 888 353 1747 
Q 353 2609 779 3096 
Q 1206 3584 1959 3584 
z
" id="DejaVuSans-6f" transform="scale(0.015625)"/>
       <path d="M 2631 2963 
Q 2534 3019 2420 3045 
Q 2306 3072 2169 3072 
Q 1681 3072 1420 2755 
Q 1159 2438 1159 1844 
L 1159 0 
L 581 0 
L 581 3500 
L 1159 3500 
L 1159 2956 
Q 1341 3275 1631 3429 
Q 1922 3584 2338 3584 
Q 2397 3584 2469 3576 
Q 2541 3569 2628 3553 
L 2631 2963 
z
" id="DejaVuSans-72" transform="scale(0.015625)"/>
       <path d="M 3328 2828 
Q 3544 3216 3844 3400 
Q 4144 3584 4550 3584 
Q 5097 3584 5394 3201 
Q 5691 2819 5691 2113 
L 5691 0 
L 5113 0 
L 5113 2094 
Q 5113 2597 4934 2840 
Q 4756 3084 4391 3084 
Q 3944 3084 3684 2787 
Q 3425 2491 3425 1978 
L 3425 0 
L 2847 0 
L 2847 2094 
Q 2847 2600 2669 2842 
Q 2491 3084 2119 3084 
Q 1678 3084 1418 2786 
Q 1159 2488 1159 1978 
L 1159 0 
L 581 0 
L 581 3500 
L 1159 3500 
L 1159 2956 
Q 1356 3278 1631 3431 
Q 1906 3584 2284 3584 
Q 2666 3584 2933 3390 
Q 3200 3197 3328 2828 
z
" id="DejaVuSans-6d" transform="scale(0.015625)"/>
       <path d="M 2194 1759 
Q 1497 1759 1228 1600 
Q 959 1441 959 1056 
Q 959 750 1161 570 
Q 1363 391 1709 391 
Q 2188 391 2477 730 
Q 2766 1069 2766 1631 
L 2766 1759 
L 2194 1759 
z
M 3341 1997 
L 3341 0 
L 2766 0 
L 2766 531 
Q 2569 213 2275 61 
Q 1981 -91 1556 -91 
Q 1019 -91 701 211 
Q 384 513 384 1019 
Q 384 1609 779 1909 
Q 1175 2209 1959 2209 
L 2766 2209 
L 2766 2266 
Q 2766 2663 2505 2880 
Q 2244 3097 1772 3097 
Q 1472 3097 1187 3025 
Q 903 2953 641 2809 
L 641 3341 
Q 956 3463 1253 3523 
Q 1550 3584 1831 3584 
Q 2591 3584 2966 3190 
Q 3341 2797 3341 1997 
z
" id="DejaVuSans-61" transform="scale(0.015625)"/>
       <path d="M 1984 4856 
Q 1566 4138 1362 3434 
Q 1159 2731 1159 2009 
Q 1159 1288 1364 580 
Q 1569 -128 1984 -844 
L 1484 -844 
Q 1016 -109 783 600 
Q 550 1309 550 2009 
Q 550 2706 781 3412 
Q 1013 4119 1484 4856 
L 1984 4856 
z
" id="DejaVuSans-28" transform="scale(0.015625)"/>
       <path d="M 2906 2969 
L 2906 4863 
L 3481 4863 
L 3481 0 
L 2906 0 
L 2906 525 
Q 2725 213 2448 61 
Q 2172 -91 1784 -91 
Q 1150 -91 751 415 
Q 353 922 353 1747 
Q 353 2572 751 3078 
Q 1150 3584 1784 3584 
Q 2172 3584 2448 3432 
Q 2725 3281 2906 2969 
z
M 947 1747 
Q 947 1113 1208 752 
Q 1469 391 1925 391 
Q 2381 391 2643 752 
Q 2906 1113 2906 1747 
Q 2906 2381 2643 2742 
Q 2381 3103 1925 3103 
Q 1469 3103 1208 2742 
Q 947 2381 947 1747 
z
" id="DejaVuSans-64" transform="scale(0.015625)"/>
       <path d="M 513 4856 
L 1013 4856 
Q 1481 4119 1714 3412 
Q 1947 2706 1947 2009 
Q 1947 1309 1714 600 
Q 1481 -109 1013 -844 
L 513 -844 
Q 928 -128 1133 580 
Q 1338 1288 1338 2009 
Q 1338 2731 1133 3434 
Q 928 4138 513 4856 
z
" id="DejaVuSans-29" transform="scale(0.015625)"/>
      </defs>
      <use xlink:href="#DejaVuSans-41"/>
      <use x="68.408203" xlink:href="#DejaVuSans-6e"/>
      <use x="131.787109" xlink:href="#DejaVuSans-67"/>
      <use x="195.263672" xlink:href="#DejaVuSans-6c"/>
      <use x="223.046875" xlink:href="#DejaVuSans-65"/>
      <use x="284.570312" xlink:href="#DejaVuSans-20"/>
      <use x="316.357422" xlink:href="#DejaVuSans-77"/>
      <use x="398.144531" xlink:href="#DejaVuSans-69"/>
      <use x="425.927734" xlink:href="#DejaVuSans-74"/>
      <use x="465.136719" xlink:href="#DejaVuSans-68"/>
      <use x="528.515625" xlink:href="#DejaVuSans-20"/>
      <use x="560.302734" xlink:href="#DejaVuSans-6e"/>
      <use x="623.681641" xlink:href="#DejaVuSans-6f"/>
      <use x="684.863281" xlink:href="#DejaVuSans-72"/>
      <use x="724.226562" xlink:href="#DejaVuSans-6d"/>
      <use x="821.638672" xlink:href="#DejaVuSans-61"/>
      <use x="882.917969" xlink:href="#DejaVuSans-6c"/>
      <use x="910.701172" xlink:href="#DejaVuSans-20"/>
      <use x="942.488281" xlink:href="#DejaVuSans-28"/>
      <use x="981.501953" xlink:href="#DejaVuSans-72"/>
      <use x="1022.615234" xlink:href="#DejaVuSans-61"/>
      <use x="1083.894531" xlink:href="#DejaVuSans-64"/>
      <use x="1147.371094" xlink:href="#DejaVuSans-29"/>
     </g>
    </g>
   </g>
   <g id="matplotlib.axis_2">
    <g id="ytick_1">
     <g id="line2d_10">
      <defs>
       <path d="M 0 0 
L -3.5 0 
" id="m4681d753bb" style="stroke:#000000;stroke-width:0.8;"/>
      </defs>
      <g>
       <use style="stroke:#000000;stroke-width:0.8;" x="43.78125" xlink:href="#m4681d753bb" y="273.312"/>
      </g>
     </g>
     <g id="text_11">
      <!-- 0.0 -->
      <g transform="translate(20.878125 277.111219)scale(0.1 -0.1)">
       <use xlink:href="#DejaVuSans-30"/>
       <use x="63.623047" xlink:href="#DejaVuSans-2e"/>
       <use x="95.410156" xlink:href="#DejaVuSans-30"/>
      </g>
     </g>
    </g>
    <g id="ytick_2">
     <g id="line2d_11">
      <g>
       <use style="stroke:#000000;stroke-width:0.8;" x="43.78125" xlink:href="#m4681d753bb" y="226.203967"/>
      </g>
     </g>
     <g id="text_12">
      <!-- 0.2 -->
      <g transform="translate(20.878125 230.003186)scale(0.1 -0.1)">
       <use xlink:href="#DejaVuSans-30"/>
       <use x="63.623047" xlink:href="#DejaVuSans-2e"/>
       <use x="95.410156" xlink:href="#DejaVuSans-32"/>
      </g>
     </g>
    </g>
    <g id="ytick_3">
     <g id="line2d_12">
      <g>
       <use style="stroke:#000000;stroke-width:0.8;" x="43.78125" xlink:href="#m4681d753bb" y="179.095935"/>
      </g>
     </g>
     <g id="text_13">
      <!-- 0.4 -->
      <g transform="translate(20.878125 182.895153)scale(0.1 -0.1)">
       <use xlink:href="#DejaVuSans-30"/>
       <use x="63.623047" xlink:href="#DejaVuSans-2e"/>
       <use x="95.410156" xlink:href="#DejaVuSans-34"/>
      </g>
     </g>
    </g>
    <g id="ytick_4">
     <g id="line2d_13">
      <g>
       <use style="stroke:#000000;stroke-width:0.8;" x="43.78125" xlink:href="#m4681d753bb" y="131.987902"/>
      </g>
     </g>
     <g id="text_14">
      <!-- 0.6 -->
      <g transform="translate(20.878125 135.787121)scale(0.1 -0.1)">
       <use xlink:href="#DejaVuSans-30"/>
       <use x="63.623047" xlink:href="#DejaVuSans-2e"/>
       <use x="95.410156" xlink:href="#DejaVuSans-36"/>
      </g>
     </g>
    </g>
    <g id="ytick_5">
     <g id="line2d_14">
      <g>
       <use style="stroke:#000000;stroke-width:0.8;" x="43.78125" xlink:href="#m4681d753bb" y="84.879869"/>
      </g>
     </g>
     <g id="text_15">
      <!-- 0.8 -->
      <g transform="translate(20.878125 88.679088)scale(0.1 -0.1)">
       <use xlink:href="#DejaVuSans-30"/>
       <use x="63.623047" xlink:href="#DejaVuSans-2e"/>
       <use x="95.410156" xlink:href="#DejaVuSans-38"/>
      </g>
     </g>
    </g>
    <g id="ytick_6">
     <g id="line2d_15">
      <g>
       <use style="stroke:#000000;stroke-width:0.8;" x="43.78125" xlink:href="#m4681d753bb" y="37.771837"/>
      </g>
     </g>
     <g id="text_16">
      <!-- 1.0 -->
      <g transform="translate(20.878125 41.571056)scale(0.1 -0.1)">
       <use xlink:href="#DejaVuSans-31"/>
       <use x="63.623047" xlink:href="#DejaVuSans-2e"/>
       <use x="95.410156" xlink:href="#DejaVuSans-30"/>
      </g>
     </g>
    </g>
    <g id="text_17">
     <!-- Probability density -->
     <g transform="translate(14.798438 186.606781)rotate(-90)scale(0.1 -0.1)">
      <defs>
       <path d="M 1259 4147 
L 1259 2394 
L 2053 2394 
Q 2494 2394 2734 2622 
Q 2975 2850 2975 3272 
Q 2975 3691 2734 3919 
Q 2494 4147 2053 4147 
L 1259 4147 
z
M 628 4666 
L 2053 4666 
Q 2838 4666 3239 4311 
Q 3641 3956 3641 3272 
Q 3641 2581 3239 2228 
Q 2838 1875 2053 1875 
L 1259 1875 
L 1259 0 
L 628 0 
L 628 4666 
z
" id="DejaVuSans-50" transform="scale(0.015625)"/>
       <path d="M 3116 1747 
Q 3116 2381 2855 2742 
Q 2594 3103 2138 3103 
Q 1681 3103 1420 2742 
Q 1159 2381 1159 1747 
Q 1159 1113 1420 752 
Q 1681 391 2138 391 
Q 2594 391 2855 752 
Q 3116 1113 3116 1747 
z
M 1159 2969 
Q 1341 3281 1617 3432 
Q 1894 3584 2278 3584 
Q 2916 3584 3314 3078 
Q 3713 2572 3713 1747 
Q 3713 922 3314 415 
Q 2916 -91 2278 -91 
Q 1894 -91 1617 61 
Q 1341 213 1159 525 
L 1159 0 
L 581 0 
L 581 4863 
L 1159 4863 
L 1159 2969 
z
" id="DejaVuSans-62" transform="scale(0.015625)"/>
       <path d="M 2059 -325 
Q 1816 -950 1584 -1140 
Q 1353 -1331 966 -1331 
L 506 -1331 
L 506 -850 
L 844 -850 
Q 1081 -850 1212 -737 
Q 1344 -625 1503 -206 
L 1606 56 
L 191 3500 
L 800 3500 
L 1894 763 
L 2988 3500 
L 3597 3500 
L 2059 -325 
z
" id="DejaVuSans-79" transform="scale(0.015625)"/>
       <path d="M 2834 3397 
L 2834 2853 
Q 2591 2978 2328 3040 
Q 2066 3103 1784 3103 
Q 1356 3103 1142 2972 
Q 928 2841 928 2578 
Q 928 2378 1081 2264 
Q 1234 2150 1697 2047 
L 1894 2003 
Q 2506 1872 2764 1633 
Q 3022 1394 3022 966 
Q 3022 478 2636 193 
Q 2250 -91 1575 -91 
Q 1294 -91 989 -36 
Q 684 19 347 128 
L 347 722 
Q 666 556 975 473 
Q 1284 391 1588 391 
Q 1994 391 2212 530 
Q 2431 669 2431 922 
Q 2431 1156 2273 1281 
Q 2116 1406 1581 1522 
L 1381 1569 
Q 847 1681 609 1914 
Q 372 2147 372 2553 
Q 372 3047 722 3315 
Q 1072 3584 1716 3584 
Q 2034 3584 2315 3537 
Q 2597 3491 2834 3397 
z
" id="DejaVuSans-73" transform="scale(0.015625)"/>
      </defs>
      <use xlink:href="#DejaVuSans-50"/>
      <use x="58.552734" xlink:href="#DejaVuSans-72"/>
      <use x="97.416016" xlink:href="#DejaVuSans-6f"/>
      <use x="158.597656" xlink:href="#DejaVuSans-62"/>
      <use x="222.074219" xlink:href="#DejaVuSans-61"/>
      <use x="283.353516" xlink:href="#DejaVuSans-62"/>
      <use x="346.830078" xlink:href="#DejaVuSans-69"/>
      <use x="374.613281" xlink:href="#DejaVuSans-6c"/>
      <use x="402.396484" xlink:href="#DejaVuSans-69"/>
      <use x="430.179688" xlink:href="#DejaVuSans-74"/>
      <use x="469.388672" xlink:href="#DejaVuSans-79"/>
      <use x="528.568359" xlink:href="#DejaVuSans-20"/>
      <use x="560.355469" xlink:href="#DejaVuSans-64"/>
      <use x="623.832031" xlink:href="#DejaVuSans-65"/>
      <use x="685.355469" xlink:href="#DejaVuSans-6e"/>
      <use x="748.734375" xlink:href="#DejaVuSans-73"/>
      <use x="800.833984" xlink:href="#DejaVuSans-69"/>
      <use x="828.617188" xlink:href="#DejaVuSans-74"/>
      <use x="867.826172" xlink:href="#DejaVuSans-79"/>
     </g>
    </g>
   </g>
   <g id="line2d_16">
    <path clip-path="url(#p6532b0a3f4)" d="M 60.013977 273.312 
L 79.837728 228.405174 
L 90.237073 205.403606 
L 99.01152 186.521245 
L 106.811029 170.257759 
L 113.960578 155.862802 
L 120.460169 143.262351 
L 126.63478 131.767523 
L 132.484411 121.343033 
L 138.009063 111.94412 
L 143.208736 103.518818 
L 148.408408 95.523287 
L 153.283101 88.435809 
L 157.832814 82.191606 
L 162.382528 76.317794 
L 166.607261 71.205154 
L 170.831995 66.430249 
L 175.056729 62.001058 
L 178.956483 58.225832 
L 182.856238 54.756867 
L 186.755992 51.599103 
L 190.330767 48.981715 
L 193.905542 46.632738 
L 197.480316 44.554981 
L 201.055091 42.75093 
L 204.304886 41.350221 
L 207.554682 40.178889 
L 210.804477 39.238091 
L 214.054272 38.528759 
L 217.304067 38.051594 
L 220.553863 37.807067 
L 223.803658 37.795421 
L 227.053453 38.016667 
L 230.303248 38.470586 
L 233.553044 39.156729 
L 236.802839 40.074418 
L 240.052634 41.222745 
L 243.302429 42.600575 
L 246.552225 44.206546 
L 250.126999 46.234713 
L 253.701774 48.534578 
L 257.276549 51.103387 
L 260.851324 53.938068 
L 264.751078 57.329678 
L 268.650832 61.028826 
L 272.550587 65.030244 
L 276.77532 69.699599 
L 281.000054 74.709205 
L 285.224788 80.05069 
L 289.774501 86.163963 
L 294.324215 92.63993 
L 299.198908 99.966672 
L 304.39858 108.20651 
L 309.598252 116.864254 
L 315.122904 126.496479 
L 320.972536 137.151941 
L 327.147147 148.871848 
L 333.646737 161.68758 
L 340.796287 176.292713 
L 348.595795 192.75252 
L 357.370243 211.813285 
L 367.769587 234.966412 
L 382.393666 268.127435 
L 384.668523 273.312 
L 384.668523 273.312 
" style="fill:none;stroke:#ff7f0e;stroke-linecap:square;stroke-width:1.5;"/>
   </g>
   <g id="patch_203">
    <path d="M 43.78125 273.312 
L 43.78125 7.2 
" style="fill:none;stroke:#000000;stroke-linecap:square;stroke-linejoin:miter;stroke-width:0.8;"/>
   </g>
   <g id="patch_204">
    <path d="M 400.90125 273.312 
L 400.90125 7.2 
" style="fill:none;stroke:#000000;stroke-linecap:square;stroke-linejoin:miter;stroke-width:0.8;"/>
   </g>
   <g id="patch_205">
    <path d="M 43.78125 273.312 
L 400.90125 273.312 
" style="fill:none;stroke:#000000;stroke-linecap:square;stroke-linejoin:miter;stroke-width:0.8;"/>
   </g>
   <g id="patch_206">
    <path d="M 43.78125 7.2 
L 400.90125 7.2 
" style="fill:none;stroke:#000000;stroke-linecap:square;stroke-linejoin:miter;stroke-width:0.8;"/>
   </g>
  </g>
 </g>
 <defs>
  <clipPath id="p6532b0a3f4">
   <rect height="266.112" width="357.12" x="43.78125" y="7.2"/>
  </clipPath>
 </defs>
</svg>
