<?xml version="1.0" encoding="utf-8" standalone="no"?>
<!DOCTYPE svg PUBLIC "-//W3C//DTD SVG 1.1//EN"
  "http://www.w3.org/Graphics/SVG/1.1/DTD/svg11.dtd">
<svg height="310.86825pt" version="1.1" viewBox="0 0 408.10125 310.86825" width="408.10125pt" xmlns="http://www.w3.org/2000/svg" xmlns:xlink="http://www.w3.org/1999/xlink">
 <metadata>
  <rdf:RDF xmlns:cc="http://creativecommons.org/ns#" xmlns:dc="http://purl.org/dc/elements/1.1/" xmlns:rdf="http://www.w3.org/1999/02/22-rdf-syntax-ns#">
   <cc:Work>
    <dc:type rdf:resource="http://purl.org/dc/dcmitype/StillImage"/>
    <dc:date>2021-06-23T15:00:14.430801</dc:date>
    <dc:format>image/svg+xml</dc:format>
    <dc:creator>
     <cc:Agent>
      <dc:title>Matplotlib v3.4.2, https://matplotlib.org/</dc:title>
     </cc:Agent>
    </dc:creator>
   </cc:Work>
  </rdf:RDF>
 </metadata>
 <defs>
  <style type="text/css">*{stroke-linecap:butt;stroke-linejoin:round;}</style>
 </defs>
 <g id="figure_1">
  <g id="patch_1">
   <path d="M 0 310.86825 
L 408.10125 310.86825 
L 408.10125 0 
L 0 0 
z
" style="fill:#ffffff;"/>
  </g>
  <g id="axes_1">
   <g id="patch_2">
    <path d="M 43.78125 273.312 
L 400.90125 273.312 
L 400.90125 7.2 
L 43.78125 7.2 
z
" style="fill:#ffffff;"/>
   </g>
   <g id="patch_3">
    <path clip-path="url(#p866609467e)" d="M 61.136157 273.312 
L 62.749506 273.312 
L 62.749506 268.839529 
L 61.136157 268.839529 
z
" style="fill:#1f77b4;"/>
   </g>
   <g id="patch_4">
    <path clip-path="url(#p866609467e)" d="M 62.749506 273.312 
L 64.362854 273.312 
L 64.362854 265.857882 
L 62.749506 265.857882 
z
" style="fill:#1f77b4;"/>
   </g>
   <g id="patch_5">
    <path clip-path="url(#p866609467e)" d="M 64.362854 273.312 
L 65.976203 273.312 
L 65.976203 253.931294 
L 64.362854 253.931294 
z
" style="fill:#1f77b4;"/>
   </g>
   <g id="patch_6">
    <path clip-path="url(#p866609467e)" d="M 65.976203 273.312 
L 67.589551 273.312 
L 67.589551 254.676706 
L 65.976203 254.676706 
z
" style="fill:#1f77b4;"/>
   </g>
   <g id="patch_7">
    <path clip-path="url(#p866609467e)" d="M 67.589551 273.312 
L 69.2029 273.312 
L 69.2029 256.167529 
L 67.589551 256.167529 
z
" style="fill:#1f77b4;"/>
   </g>
   <g id="patch_8">
    <path clip-path="url(#p866609467e)" d="M 69.2029 273.312 
L 70.816248 273.312 
L 70.816248 253.185882 
L 69.2029 253.185882 
z
" style="fill:#1f77b4;"/>
   </g>
   <g id="patch_9">
    <path clip-path="url(#p866609467e)" d="M 70.816248 273.312 
L 72.429597 273.312 
L 72.429597 250.949647 
L 70.816248 250.949647 
z
" style="fill:#1f77b4;"/>
   </g>
   <g id="patch_10">
    <path clip-path="url(#p866609467e)" d="M 72.429597 273.312 
L 74.042945 273.312 
L 74.042945 248.713412 
L 72.429597 248.713412 
z
" style="fill:#1f77b4;"/>
   </g>
   <g id="patch_11">
    <path clip-path="url(#p866609467e)" d="M 74.042945 273.312 
L 75.656293 273.312 
L 75.656293 234.550588 
L 74.042945 234.550588 
z
" style="fill:#1f77b4;"/>
   </g>
   <g id="patch_12">
    <path clip-path="url(#p866609467e)" d="M 75.656293 273.312 
L 77.269642 273.312 
L 77.269642 238.277647 
L 75.656293 238.277647 
z
" style="fill:#1f77b4;"/>
   </g>
   <g id="patch_13">
    <path clip-path="url(#p866609467e)" d="M 77.269642 273.312 
L 78.88299 273.312 
L 78.88299 241.259294 
L 77.269642 241.259294 
z
" style="fill:#1f77b4;"/>
   </g>
   <g id="patch_14">
    <path clip-path="url(#p866609467e)" d="M 78.88299 273.312 
L 80.496339 273.312 
L 80.496339 228.587294 
L 78.88299 228.587294 
z
" style="fill:#1f77b4;"/>
   </g>
   <g id="patch_15">
    <path clip-path="url(#p866609467e)" d="M 80.496339 273.312 
L 82.109687 273.312 
L 82.109687 222.624 
L 80.496339 222.624 
z
" style="fill:#1f77b4;"/>
   </g>
   <g id="patch_16">
    <path clip-path="url(#p866609467e)" d="M 82.109687 273.312 
L 83.723036 273.312 
L 83.723036 220.387765 
L 82.109687 220.387765 
z
" style="fill:#1f77b4;"/>
   </g>
   <g id="patch_17">
    <path clip-path="url(#p866609467e)" d="M 83.723036 273.312 
L 85.336384 273.312 
L 85.336384 215.915294 
L 83.723036 215.915294 
z
" style="fill:#1f77b4;"/>
   </g>
   <g id="patch_18">
    <path clip-path="url(#p866609467e)" d="M 85.336384 273.312 
L 86.949733 273.312 
L 86.949733 212.188235 
L 85.336384 212.188235 
z
" style="fill:#1f77b4;"/>
   </g>
   <g id="patch_19">
    <path clip-path="url(#p866609467e)" d="M 86.949733 273.312 
L 88.563081 273.312 
L 88.563081 218.896941 
L 86.949733 218.896941 
z
" style="fill:#1f77b4;"/>
   </g>
   <g id="patch_20">
    <path clip-path="url(#p866609467e)" d="M 88.563081 273.312 
L 90.176429 273.312 
L 90.176429 210.697412 
L 88.563081 210.697412 
z
" style="fill:#1f77b4;"/>
   </g>
   <g id="patch_21">
    <path clip-path="url(#p866609467e)" d="M 90.176429 273.312 
L 91.789778 273.312 
L 91.789778 214.424471 
L 90.176429 214.424471 
z
" style="fill:#1f77b4;"/>
   </g>
   <g id="patch_22">
    <path clip-path="url(#p866609467e)" d="M 91.789778 273.312 
L 93.403126 273.312 
L 93.403126 193.552941 
L 91.789778 193.552941 
z
" style="fill:#1f77b4;"/>
   </g>
   <g id="patch_23">
    <path clip-path="url(#p866609467e)" d="M 93.403126 273.312 
L 95.016475 273.312 
L 95.016475 194.298353 
L 93.403126 194.298353 
z
" style="fill:#1f77b4;"/>
   </g>
   <g id="patch_24">
    <path clip-path="url(#p866609467e)" d="M 95.016475 273.312 
L 96.629823 273.312 
L 96.629823 198.025412 
L 95.016475 198.025412 
z
" style="fill:#1f77b4;"/>
   </g>
   <g id="patch_25">
    <path clip-path="url(#p866609467e)" d="M 96.629823 273.312 
L 98.243172 273.312 
L 98.243172 190.571294 
L 96.629823 190.571294 
z
" style="fill:#1f77b4;"/>
   </g>
   <g id="patch_26">
    <path clip-path="url(#p866609467e)" d="M 98.243172 273.312 
L 99.85652 273.312 
L 99.85652 187.589647 
L 98.243172 187.589647 
z
" style="fill:#1f77b4;"/>
   </g>
   <g id="patch_27">
    <path clip-path="url(#p866609467e)" d="M 99.85652 273.312 
L 101.469868 273.312 
L 101.469868 186.844235 
L 99.85652 186.844235 
z
" style="fill:#1f77b4;"/>
   </g>
   <g id="patch_28">
    <path clip-path="url(#p866609467e)" d="M 101.469868 273.312 
L 103.083217 273.312 
L 103.083217 167.463529 
L 101.469868 167.463529 
z
" style="fill:#1f77b4;"/>
   </g>
   <g id="patch_29">
    <path clip-path="url(#p866609467e)" d="M 103.083217 273.312 
L 104.696565 273.312 
L 104.696565 189.080471 
L 103.083217 189.080471 
z
" style="fill:#1f77b4;"/>
   </g>
   <g id="patch_30">
    <path clip-path="url(#p866609467e)" d="M 104.696565 273.312 
L 106.309914 273.312 
L 106.309914 165.972706 
L 104.696565 165.972706 
z
" style="fill:#1f77b4;"/>
   </g>
   <g id="patch_31">
    <path clip-path="url(#p866609467e)" d="M 106.309914 273.312 
L 107.923262 273.312 
L 107.923262 160.009412 
L 106.309914 160.009412 
z
" style="fill:#1f77b4;"/>
   </g>
   <g id="patch_32">
    <path clip-path="url(#p866609467e)" d="M 107.923262 273.312 
L 109.536611 273.312 
L 109.536611 164.481882 
L 107.923262 164.481882 
z
" style="fill:#1f77b4;"/>
   </g>
   <g id="patch_33">
    <path clip-path="url(#p866609467e)" d="M 109.536611 273.312 
L 111.149959 273.312 
L 111.149959 189.825882 
L 109.536611 189.825882 
z
" style="fill:#1f77b4;"/>
   </g>
   <g id="patch_34">
    <path clip-path="url(#p866609467e)" d="M 111.149959 273.312 
L 112.763308 273.312 
L 112.763308 163.736471 
L 111.149959 163.736471 
z
" style="fill:#1f77b4;"/>
   </g>
   <g id="patch_35">
    <path clip-path="url(#p866609467e)" d="M 112.763308 273.312 
L 114.376656 273.312 
L 114.376656 165.972706 
L 112.763308 165.972706 
z
" style="fill:#1f77b4;"/>
   </g>
   <g id="patch_36">
    <path clip-path="url(#p866609467e)" d="M 114.376656 273.312 
L 115.990004 273.312 
L 115.990004 155.536941 
L 114.376656 155.536941 
z
" style="fill:#1f77b4;"/>
   </g>
   <g id="patch_37">
    <path clip-path="url(#p866609467e)" d="M 115.990004 273.312 
L 117.603353 273.312 
L 117.603353 138.392471 
L 115.990004 138.392471 
z
" style="fill:#1f77b4;"/>
   </g>
   <g id="patch_38">
    <path clip-path="url(#p866609467e)" d="M 117.603353 273.312 
L 119.216701 273.312 
L 119.216701 145.846588 
L 117.603353 145.846588 
z
" style="fill:#1f77b4;"/>
   </g>
   <g id="patch_39">
    <path clip-path="url(#p866609467e)" d="M 119.216701 273.312 
L 120.83005 273.312 
L 120.83005 139.137882 
L 119.216701 139.137882 
z
" style="fill:#1f77b4;"/>
   </g>
   <g id="patch_40">
    <path clip-path="url(#p866609467e)" d="M 120.83005 273.312 
L 122.443398 273.312 
L 122.443398 124.975059 
L 120.83005 124.975059 
z
" style="fill:#1f77b4;"/>
   </g>
   <g id="patch_41">
    <path clip-path="url(#p866609467e)" d="M 122.443398 273.312 
L 124.056747 273.312 
L 124.056747 136.901647 
L 122.443398 136.901647 
z
" style="fill:#1f77b4;"/>
   </g>
   <g id="patch_42">
    <path clip-path="url(#p866609467e)" d="M 124.056747 273.312 
L 125.670095 273.312 
L 125.670095 140.628706 
L 124.056747 140.628706 
z
" style="fill:#1f77b4;"/>
   </g>
   <g id="patch_43">
    <path clip-path="url(#p866609467e)" d="M 125.670095 273.312 
L 127.283444 273.312 
L 127.283444 138.392471 
L 125.670095 138.392471 
z
" style="fill:#1f77b4;"/>
   </g>
   <g id="patch_44">
    <path clip-path="url(#p866609467e)" d="M 127.283444 273.312 
L 128.896792 273.312 
L 128.896792 133.174588 
L 127.283444 133.174588 
z
" style="fill:#1f77b4;"/>
   </g>
   <g id="patch_45">
    <path clip-path="url(#p866609467e)" d="M 128.896792 273.312 
L 130.51014 273.312 
L 130.51014 133.174588 
L 128.896792 133.174588 
z
" style="fill:#1f77b4;"/>
   </g>
   <g id="patch_46">
    <path clip-path="url(#p866609467e)" d="M 130.51014 273.312 
L 132.123489 273.312 
L 132.123489 139.883294 
L 130.51014 139.883294 
z
" style="fill:#1f77b4;"/>
   </g>
   <g id="patch_47">
    <path clip-path="url(#p866609467e)" d="M 132.123489 273.312 
L 133.736837 273.312 
L 133.736837 118.266353 
L 132.123489 118.266353 
z
" style="fill:#1f77b4;"/>
   </g>
   <g id="patch_48">
    <path clip-path="url(#p866609467e)" d="M 133.736837 273.312 
L 135.350186 273.312 
L 135.350186 103.358118 
L 133.736837 103.358118 
z
" style="fill:#1f77b4;"/>
   </g>
   <g id="patch_49">
    <path clip-path="url(#p866609467e)" d="M 135.350186 273.312 
L 136.963534 273.312 
L 136.963534 103.358118 
L 135.350186 103.358118 
z
" style="fill:#1f77b4;"/>
   </g>
   <g id="patch_50">
    <path clip-path="url(#p866609467e)" d="M 136.963534 273.312 
L 138.576883 273.312 
L 138.576883 113.048471 
L 136.963534 113.048471 
z
" style="fill:#1f77b4;"/>
   </g>
   <g id="patch_51">
    <path clip-path="url(#p866609467e)" d="M 138.576883 273.312 
L 140.190231 273.312 
L 140.190231 113.793882 
L 138.576883 113.793882 
z
" style="fill:#1f77b4;"/>
   </g>
   <g id="patch_52">
    <path clip-path="url(#p866609467e)" d="M 140.190231 273.312 
L 141.80358 273.312 
L 141.80358 112.303059 
L 140.190231 112.303059 
z
" style="fill:#1f77b4;"/>
   </g>
   <g id="patch_53">
    <path clip-path="url(#p866609467e)" d="M 141.80358 273.312 
L 143.416928 273.312 
L 143.416928 112.303059 
L 141.80358 112.303059 
z
" style="fill:#1f77b4;"/>
   </g>
   <g id="patch_54">
    <path clip-path="url(#p866609467e)" d="M 143.416928 273.312 
L 145.030276 273.312 
L 145.030276 121.993412 
L 143.416928 121.993412 
z
" style="fill:#1f77b4;"/>
   </g>
   <g id="patch_55">
    <path clip-path="url(#p866609467e)" d="M 145.030276 273.312 
L 146.643625 273.312 
L 146.643625 105.594353 
L 145.030276 105.594353 
z
" style="fill:#1f77b4;"/>
   </g>
   <g id="patch_56">
    <path clip-path="url(#p866609467e)" d="M 146.643625 273.312 
L 148.256973 273.312 
L 148.256973 110.812235 
L 146.643625 110.812235 
z
" style="fill:#1f77b4;"/>
   </g>
   <g id="patch_57">
    <path clip-path="url(#p866609467e)" d="M 148.256973 273.312 
L 149.870322 273.312 
L 149.870322 100.376471 
L 148.256973 100.376471 
z
" style="fill:#1f77b4;"/>
   </g>
   <g id="patch_58">
    <path clip-path="url(#p866609467e)" d="M 149.870322 273.312 
L 151.48367 273.312 
L 151.48367 73.541647 
L 149.870322 73.541647 
z
" style="fill:#1f77b4;"/>
   </g>
   <g id="patch_59">
    <path clip-path="url(#p866609467e)" d="M 151.48367 273.312 
L 153.097019 273.312 
L 153.097019 97.394824 
L 151.48367 97.394824 
z
" style="fill:#1f77b4;"/>
   </g>
   <g id="patch_60">
    <path clip-path="url(#p866609467e)" d="M 153.097019 273.312 
L 154.710367 273.312 
L 154.710367 65.342118 
L 153.097019 65.342118 
z
" style="fill:#1f77b4;"/>
   </g>
   <g id="patch_61">
    <path clip-path="url(#p866609467e)" d="M 154.710367 273.312 
L 156.323716 273.312 
L 156.323716 95.904 
L 154.710367 95.904 
z
" style="fill:#1f77b4;"/>
   </g>
   <g id="patch_62">
    <path clip-path="url(#p866609467e)" d="M 156.323716 273.312 
L 157.937064 273.312 
L 157.937064 82.486588 
L 156.323716 82.486588 
z
" style="fill:#1f77b4;"/>
   </g>
   <g id="patch_63">
    <path clip-path="url(#p866609467e)" d="M 157.937064 273.312 
L 159.550412 273.312 
L 159.550412 80.250353 
L 157.937064 80.250353 
z
" style="fill:#1f77b4;"/>
   </g>
   <g id="patch_64">
    <path clip-path="url(#p866609467e)" d="M 159.550412 273.312 
L 161.163761 273.312 
L 161.163761 75.032471 
L 159.550412 75.032471 
z
" style="fill:#1f77b4;"/>
   </g>
   <g id="patch_65">
    <path clip-path="url(#p866609467e)" d="M 161.163761 273.312 
L 162.777109 273.312 
L 162.777109 79.504941 
L 161.163761 79.504941 
z
" style="fill:#1f77b4;"/>
   </g>
   <g id="patch_66">
    <path clip-path="url(#p866609467e)" d="M 162.777109 273.312 
L 164.390458 273.312 
L 164.390458 63.105882 
L 162.777109 63.105882 
z
" style="fill:#1f77b4;"/>
   </g>
   <g id="patch_67">
    <path clip-path="url(#p866609467e)" d="M 164.390458 273.312 
L 166.003806 273.312 
L 166.003806 89.940706 
L 164.390458 89.940706 
z
" style="fill:#1f77b4;"/>
   </g>
   <g id="patch_68">
    <path clip-path="url(#p866609467e)" d="M 166.003806 273.312 
L 167.617155 273.312 
L 167.617155 86.959059 
L 166.003806 86.959059 
z
" style="fill:#1f77b4;"/>
   </g>
   <g id="patch_69">
    <path clip-path="url(#p866609467e)" d="M 167.617155 273.312 
L 169.230503 273.312 
L 169.230503 70.56 
L 167.617155 70.56 
z
" style="fill:#1f77b4;"/>
   </g>
   <g id="patch_70">
    <path clip-path="url(#p866609467e)" d="M 169.230503 273.312 
L 170.843851 273.312 
L 170.843851 74.287059 
L 169.230503 74.287059 
z
" style="fill:#1f77b4;"/>
   </g>
   <g id="patch_71">
    <path clip-path="url(#p866609467e)" d="M 170.843851 273.312 
L 172.4572 273.312 
L 172.4572 71.305412 
L 170.843851 71.305412 
z
" style="fill:#1f77b4;"/>
   </g>
   <g id="patch_72">
    <path clip-path="url(#p866609467e)" d="M 172.4572 273.312 
L 174.070548 273.312 
L 174.070548 63.851294 
L 172.4572 63.851294 
z
" style="fill:#1f77b4;"/>
   </g>
   <g id="patch_73">
    <path clip-path="url(#p866609467e)" d="M 174.070548 273.312 
L 175.683897 273.312 
L 175.683897 69.069176 
L 174.070548 69.069176 
z
" style="fill:#1f77b4;"/>
   </g>
   <g id="patch_74">
    <path clip-path="url(#p866609467e)" d="M 175.683897 273.312 
L 177.297245 273.312 
L 177.297245 57.888 
L 175.683897 57.888 
z
" style="fill:#1f77b4;"/>
   </g>
   <g id="patch_75">
    <path clip-path="url(#p866609467e)" d="M 177.297245 273.312 
L 178.910594 273.312 
L 178.910594 51.179294 
L 177.297245 51.179294 
z
" style="fill:#1f77b4;"/>
   </g>
   <g id="patch_76">
    <path clip-path="url(#p866609467e)" d="M 178.910594 273.312 
L 180.523942 273.312 
L 180.523942 56.397176 
L 178.910594 56.397176 
z
" style="fill:#1f77b4;"/>
   </g>
   <g id="patch_77">
    <path clip-path="url(#p866609467e)" d="M 180.523942 273.312 
L 182.137291 273.312 
L 182.137291 63.851294 
L 180.523942 63.851294 
z
" style="fill:#1f77b4;"/>
   </g>
   <g id="patch_78">
    <path clip-path="url(#p866609467e)" d="M 182.137291 273.312 
L 183.750639 273.312 
L 183.750639 67.578353 
L 182.137291 67.578353 
z
" style="fill:#1f77b4;"/>
   </g>
   <g id="patch_79">
    <path clip-path="url(#p866609467e)" d="M 183.750639 273.312 
L 185.363987 273.312 
L 185.363987 56.397176 
L 183.750639 56.397176 
z
" style="fill:#1f77b4;"/>
   </g>
   <g id="patch_80">
    <path clip-path="url(#p866609467e)" d="M 185.363987 273.312 
L 186.977336 273.312 
L 186.977336 39.998118 
L 185.363987 39.998118 
z
" style="fill:#1f77b4;"/>
   </g>
   <g id="patch_81">
    <path clip-path="url(#p866609467e)" d="M 186.977336 273.312 
L 188.590684 273.312 
L 188.590684 57.142588 
L 186.977336 57.142588 
z
" style="fill:#1f77b4;"/>
   </g>
   <g id="patch_82">
    <path clip-path="url(#p866609467e)" d="M 188.590684 273.312 
L 190.204033 273.312 
L 190.204033 71.305412 
L 188.590684 71.305412 
z
" style="fill:#1f77b4;"/>
   </g>
   <g id="patch_83">
    <path clip-path="url(#p866609467e)" d="M 190.204033 273.312 
L 191.817381 273.312 
L 191.817381 42.979765 
L 190.204033 42.979765 
z
" style="fill:#1f77b4;"/>
   </g>
   <g id="patch_84">
    <path clip-path="url(#p866609467e)" d="M 191.817381 273.312 
L 193.43073 273.312 
L 193.43073 57.888 
L 191.817381 57.888 
z
" style="fill:#1f77b4;"/>
   </g>
   <g id="patch_85">
    <path clip-path="url(#p866609467e)" d="M 193.43073 273.312 
L 195.044078 273.312 
L 195.044078 37.761882 
L 193.43073 37.761882 
z
" style="fill:#1f77b4;"/>
   </g>
   <g id="patch_86">
    <path clip-path="url(#p866609467e)" d="M 195.044078 273.312 
L 196.657427 273.312 
L 196.657427 47.452235 
L 195.044078 47.452235 
z
" style="fill:#1f77b4;"/>
   </g>
   <g id="patch_87">
    <path clip-path="url(#p866609467e)" d="M 196.657427 273.312 
L 198.270775 273.312 
L 198.270775 64.596706 
L 196.657427 64.596706 
z
" style="fill:#1f77b4;"/>
   </g>
   <g id="patch_88">
    <path clip-path="url(#p866609467e)" d="M 198.270775 273.312 
L 199.884123 273.312 
L 199.884123 48.197647 
L 198.270775 48.197647 
z
" style="fill:#1f77b4;"/>
   </g>
   <g id="patch_89">
    <path clip-path="url(#p866609467e)" d="M 199.884123 273.312 
L 201.497472 273.312 
L 201.497472 51.924706 
L 199.884123 51.924706 
z
" style="fill:#1f77b4;"/>
   </g>
   <g id="patch_90">
    <path clip-path="url(#p866609467e)" d="M 201.497472 273.312 
L 203.11082 273.312 
L 203.11082 48.943059 
L 201.497472 48.943059 
z
" style="fill:#1f77b4;"/>
   </g>
   <g id="patch_91">
    <path clip-path="url(#p866609467e)" d="M 203.11082 273.312 
L 204.724169 273.312 
L 204.724169 45.961412 
L 203.11082 45.961412 
z
" style="fill:#1f77b4;"/>
   </g>
   <g id="patch_92">
    <path clip-path="url(#p866609467e)" d="M 204.724169 273.312 
L 206.337517 273.312 
L 206.337517 44.470588 
L 204.724169 44.470588 
z
" style="fill:#1f77b4;"/>
   </g>
   <g id="patch_93">
    <path clip-path="url(#p866609467e)" d="M 206.337517 273.312 
L 207.950866 273.312 
L 207.950866 70.56 
L 206.337517 70.56 
z
" style="fill:#1f77b4;"/>
   </g>
   <g id="patch_94">
    <path clip-path="url(#p866609467e)" d="M 207.950866 273.312 
L 209.564214 273.312 
L 209.564214 39.998118 
L 207.950866 39.998118 
z
" style="fill:#1f77b4;"/>
   </g>
   <g id="patch_95">
    <path clip-path="url(#p866609467e)" d="M 209.564214 273.312 
L 211.177563 273.312 
L 211.177563 60.124235 
L 209.564214 60.124235 
z
" style="fill:#1f77b4;"/>
   </g>
   <g id="patch_96">
    <path clip-path="url(#p866609467e)" d="M 211.177563 273.312 
L 212.790911 273.312 
L 212.790911 44.470588 
L 211.177563 44.470588 
z
" style="fill:#1f77b4;"/>
   </g>
   <g id="patch_97">
    <path clip-path="url(#p866609467e)" d="M 212.790911 273.312 
L 214.404259 273.312 
L 214.404259 44.470588 
L 212.790911 44.470588 
z
" style="fill:#1f77b4;"/>
   </g>
   <g id="patch_98">
    <path clip-path="url(#p866609467e)" d="M 214.404259 273.312 
L 216.017608 273.312 
L 216.017608 31.053176 
L 214.404259 31.053176 
z
" style="fill:#1f77b4;"/>
   </g>
   <g id="patch_99">
    <path clip-path="url(#p866609467e)" d="M 216.017608 273.312 
L 217.630956 273.312 
L 217.630956 38.507294 
L 216.017608 38.507294 
z
" style="fill:#1f77b4;"/>
   </g>
   <g id="patch_100">
    <path clip-path="url(#p866609467e)" d="M 217.630956 273.312 
L 219.244305 273.312 
L 219.244305 46.706824 
L 217.630956 46.706824 
z
" style="fill:#1f77b4;"/>
   </g>
   <g id="patch_101">
    <path clip-path="url(#p866609467e)" d="M 219.244305 273.312 
L 220.857653 273.312 
L 220.857653 54.160941 
L 219.244305 54.160941 
z
" style="fill:#1f77b4;"/>
   </g>
   <g id="patch_102">
    <path clip-path="url(#p866609467e)" d="M 220.857653 273.312 
L 222.471002 273.312 
L 222.471002 19.872 
L 220.857653 19.872 
z
" style="fill:#1f77b4;"/>
   </g>
   <g id="patch_103">
    <path clip-path="url(#p866609467e)" d="M 222.471002 273.312 
L 224.08435 273.312 
L 224.08435 27.326118 
L 222.471002 27.326118 
z
" style="fill:#1f77b4;"/>
   </g>
   <g id="patch_104">
    <path clip-path="url(#p866609467e)" d="M 224.08435 273.312 
L 225.697698 273.312 
L 225.697698 23.599059 
L 224.08435 23.599059 
z
" style="fill:#1f77b4;"/>
   </g>
   <g id="patch_105">
    <path clip-path="url(#p866609467e)" d="M 225.697698 273.312 
L 227.311047 273.312 
L 227.311047 32.544 
L 225.697698 32.544 
z
" style="fill:#1f77b4;"/>
   </g>
   <g id="patch_106">
    <path clip-path="url(#p866609467e)" d="M 227.311047 273.312 
L 228.924395 273.312 
L 228.924395 64.596706 
L 227.311047 64.596706 
z
" style="fill:#1f77b4;"/>
   </g>
   <g id="patch_107">
    <path clip-path="url(#p866609467e)" d="M 228.924395 273.312 
L 230.537744 273.312 
L 230.537744 35.525647 
L 228.924395 35.525647 
z
" style="fill:#1f77b4;"/>
   </g>
   <g id="patch_108">
    <path clip-path="url(#p866609467e)" d="M 230.537744 273.312 
L 232.151092 273.312 
L 232.151092 54.906353 
L 230.537744 54.906353 
z
" style="fill:#1f77b4;"/>
   </g>
   <g id="patch_109">
    <path clip-path="url(#p866609467e)" d="M 232.151092 273.312 
L 233.764441 273.312 
L 233.764441 27.326118 
L 232.151092 27.326118 
z
" style="fill:#1f77b4;"/>
   </g>
   <g id="patch_110">
    <path clip-path="url(#p866609467e)" d="M 233.764441 273.312 
L 235.377789 273.312 
L 235.377789 35.525647 
L 233.764441 35.525647 
z
" style="fill:#1f77b4;"/>
   </g>
   <g id="patch_111">
    <path clip-path="url(#p866609467e)" d="M 235.377789 273.312 
L 236.991138 273.312 
L 236.991138 25.089882 
L 235.377789 25.089882 
z
" style="fill:#1f77b4;"/>
   </g>
   <g id="patch_112">
    <path clip-path="url(#p866609467e)" d="M 236.991138 273.312 
L 238.604486 273.312 
L 238.604486 72.050824 
L 236.991138 72.050824 
z
" style="fill:#1f77b4;"/>
   </g>
   <g id="patch_113">
    <path clip-path="url(#p866609467e)" d="M 238.604486 273.312 
L 240.217834 273.312 
L 240.217834 27.326118 
L 238.604486 27.326118 
z
" style="fill:#1f77b4;"/>
   </g>
   <g id="patch_114">
    <path clip-path="url(#p866609467e)" d="M 240.217834 273.312 
L 241.831183 273.312 
L 241.831183 31.798588 
L 240.217834 31.798588 
z
" style="fill:#1f77b4;"/>
   </g>
   <g id="patch_115">
    <path clip-path="url(#p866609467e)" d="M 241.831183 273.312 
L 243.444531 273.312 
L 243.444531 34.780235 
L 241.831183 34.780235 
z
" style="fill:#1f77b4;"/>
   </g>
   <g id="patch_116">
    <path clip-path="url(#p866609467e)" d="M 243.444531 273.312 
L 245.05788 273.312 
L 245.05788 58.633412 
L 243.444531 58.633412 
z
" style="fill:#1f77b4;"/>
   </g>
   <g id="patch_117">
    <path clip-path="url(#p866609467e)" d="M 245.05788 273.312 
L 246.671228 273.312 
L 246.671228 51.179294 
L 245.05788 51.179294 
z
" style="fill:#1f77b4;"/>
   </g>
   <g id="patch_118">
    <path clip-path="url(#p866609467e)" d="M 246.671228 273.312 
L 248.284577 273.312 
L 248.284577 45.216 
L 246.671228 45.216 
z
" style="fill:#1f77b4;"/>
   </g>
   <g id="patch_119">
    <path clip-path="url(#p866609467e)" d="M 248.284577 273.312 
L 249.897925 273.312 
L 249.897925 59.378824 
L 248.284577 59.378824 
z
" style="fill:#1f77b4;"/>
   </g>
   <g id="patch_120">
    <path clip-path="url(#p866609467e)" d="M 249.897925 273.312 
L 251.511274 273.312 
L 251.511274 53.415529 
L 249.897925 53.415529 
z
" style="fill:#1f77b4;"/>
   </g>
   <g id="patch_121">
    <path clip-path="url(#p866609467e)" d="M 251.511274 273.312 
L 253.124622 273.312 
L 253.124622 41.488941 
L 251.511274 41.488941 
z
" style="fill:#1f77b4;"/>
   </g>
   <g id="patch_122">
    <path clip-path="url(#p866609467e)" d="M 253.124622 273.312 
L 254.73797 273.312 
L 254.73797 34.034824 
L 253.124622 34.034824 
z
" style="fill:#1f77b4;"/>
   </g>
   <g id="patch_123">
    <path clip-path="url(#p866609467e)" d="M 254.73797 273.312 
L 256.351319 273.312 
L 256.351319 69.069176 
L 254.73797 69.069176 
z
" style="fill:#1f77b4;"/>
   </g>
   <g id="patch_124">
    <path clip-path="url(#p866609467e)" d="M 256.351319 273.312 
L 257.964667 273.312 
L 257.964667 47.452235 
L 256.351319 47.452235 
z
" style="fill:#1f77b4;"/>
   </g>
   <g id="patch_125">
    <path clip-path="url(#p866609467e)" d="M 257.964667 273.312 
L 259.578016 273.312 
L 259.578016 21.362824 
L 257.964667 21.362824 
z
" style="fill:#1f77b4;"/>
   </g>
   <g id="patch_126">
    <path clip-path="url(#p866609467e)" d="M 259.578016 273.312 
L 261.191364 273.312 
L 261.191364 42.979765 
L 259.578016 42.979765 
z
" style="fill:#1f77b4;"/>
   </g>
   <g id="patch_127">
    <path clip-path="url(#p866609467e)" d="M 261.191364 273.312 
L 262.804713 273.312 
L 262.804713 59.378824 
L 261.191364 59.378824 
z
" style="fill:#1f77b4;"/>
   </g>
   <g id="patch_128">
    <path clip-path="url(#p866609467e)" d="M 262.804713 273.312 
L 264.418061 273.312 
L 264.418061 70.56 
L 262.804713 70.56 
z
" style="fill:#1f77b4;"/>
   </g>
   <g id="patch_129">
    <path clip-path="url(#p866609467e)" d="M 264.418061 273.312 
L 266.03141 273.312 
L 266.03141 54.160941 
L 264.418061 54.160941 
z
" style="fill:#1f77b4;"/>
   </g>
   <g id="patch_130">
    <path clip-path="url(#p866609467e)" d="M 266.03141 273.312 
L 267.644758 273.312 
L 267.644758 38.507294 
L 266.03141 38.507294 
z
" style="fill:#1f77b4;"/>
   </g>
   <g id="patch_131">
    <path clip-path="url(#p866609467e)" d="M 267.644758 273.312 
L 269.258106 273.312 
L 269.258106 53.415529 
L 267.644758 53.415529 
z
" style="fill:#1f77b4;"/>
   </g>
   <g id="patch_132">
    <path clip-path="url(#p866609467e)" d="M 269.258106 273.312 
L 270.871455 273.312 
L 270.871455 61.615059 
L 269.258106 61.615059 
z
" style="fill:#1f77b4;"/>
   </g>
   <g id="patch_133">
    <path clip-path="url(#p866609467e)" d="M 270.871455 273.312 
L 272.484803 273.312 
L 272.484803 83.232 
L 270.871455 83.232 
z
" style="fill:#1f77b4;"/>
   </g>
   <g id="patch_134">
    <path clip-path="url(#p866609467e)" d="M 272.484803 273.312 
L 274.098152 273.312 
L 274.098152 70.56 
L 272.484803 70.56 
z
" style="fill:#1f77b4;"/>
   </g>
   <g id="patch_135">
    <path clip-path="url(#p866609467e)" d="M 274.098152 273.312 
L 275.7115 273.312 
L 275.7115 86.213647 
L 274.098152 86.213647 
z
" style="fill:#1f77b4;"/>
   </g>
   <g id="patch_136">
    <path clip-path="url(#p866609467e)" d="M 275.7115 273.312 
L 277.324849 273.312 
L 277.324849 89.940706 
L 275.7115 89.940706 
z
" style="fill:#1f77b4;"/>
   </g>
   <g id="patch_137">
    <path clip-path="url(#p866609467e)" d="M 277.324849 273.312 
L 278.938197 273.312 
L 278.938197 92.176941 
L 277.324849 92.176941 
z
" style="fill:#1f77b4;"/>
   </g>
   <g id="patch_138">
    <path clip-path="url(#p866609467e)" d="M 278.938197 273.312 
L 280.551546 273.312 
L 280.551546 57.888 
L 278.938197 57.888 
z
" style="fill:#1f77b4;"/>
   </g>
   <g id="patch_139">
    <path clip-path="url(#p866609467e)" d="M 280.551546 273.312 
L 282.164894 273.312 
L 282.164894 81.741176 
L 280.551546 81.741176 
z
" style="fill:#1f77b4;"/>
   </g>
   <g id="patch_140">
    <path clip-path="url(#p866609467e)" d="M 282.164894 273.312 
L 283.778242 273.312 
L 283.778242 78.759529 
L 282.164894 78.759529 
z
" style="fill:#1f77b4;"/>
   </g>
   <g id="patch_141">
    <path clip-path="url(#p866609467e)" d="M 283.778242 273.312 
L 285.391591 273.312 
L 285.391591 102.612706 
L 283.778242 102.612706 
z
" style="fill:#1f77b4;"/>
   </g>
   <g id="patch_142">
    <path clip-path="url(#p866609467e)" d="M 285.391591 273.312 
L 287.004939 273.312 
L 287.004939 98.885647 
L 285.391591 98.885647 
z
" style="fill:#1f77b4;"/>
   </g>
   <g id="patch_143">
    <path clip-path="url(#p866609467e)" d="M 287.004939 273.312 
L 288.618288 273.312 
L 288.618288 85.468235 
L 287.004939 85.468235 
z
" style="fill:#1f77b4;"/>
   </g>
   <g id="patch_144">
    <path clip-path="url(#p866609467e)" d="M 288.618288 273.312 
L 290.231636 273.312 
L 290.231636 96.649412 
L 288.618288 96.649412 
z
" style="fill:#1f77b4;"/>
   </g>
   <g id="patch_145">
    <path clip-path="url(#p866609467e)" d="M 290.231636 273.312 
L 291.844985 273.312 
L 291.844985 100.376471 
L 290.231636 100.376471 
z
" style="fill:#1f77b4;"/>
   </g>
   <g id="patch_146">
    <path clip-path="url(#p866609467e)" d="M 291.844985 273.312 
L 293.458333 273.312 
L 293.458333 75.032471 
L 291.844985 75.032471 
z
" style="fill:#1f77b4;"/>
   </g>
   <g id="patch_147">
    <path clip-path="url(#p866609467e)" d="M 293.458333 273.312 
L 295.071681 273.312 
L 295.071681 89.195294 
L 293.458333 89.195294 
z
" style="fill:#1f77b4;"/>
   </g>
   <g id="patch_148">
    <path clip-path="url(#p866609467e)" d="M 295.071681 273.312 
L 296.68503 273.312 
L 296.68503 89.195294 
L 295.071681 89.195294 
z
" style="fill:#1f77b4;"/>
   </g>
   <g id="patch_149">
    <path clip-path="url(#p866609467e)" d="M 296.68503 273.312 
L 298.298378 273.312 
L 298.298378 85.468235 
L 296.68503 85.468235 
z
" style="fill:#1f77b4;"/>
   </g>
   <g id="patch_150">
    <path clip-path="url(#p866609467e)" d="M 298.298378 273.312 
L 299.911727 273.312 
L 299.911727 102.612706 
L 298.298378 102.612706 
z
" style="fill:#1f77b4;"/>
   </g>
   <g id="patch_151">
    <path clip-path="url(#p866609467e)" d="M 299.911727 273.312 
L 301.525075 273.312 
L 301.525075 102.612706 
L 299.911727 102.612706 
z
" style="fill:#1f77b4;"/>
   </g>
   <g id="patch_152">
    <path clip-path="url(#p866609467e)" d="M 301.525075 273.312 
L 303.138424 273.312 
L 303.138424 118.266353 
L 301.525075 118.266353 
z
" style="fill:#1f77b4;"/>
   </g>
   <g id="patch_153">
    <path clip-path="url(#p866609467e)" d="M 303.138424 273.312 
L 304.751772 273.312 
L 304.751772 107.830588 
L 303.138424 107.830588 
z
" style="fill:#1f77b4;"/>
   </g>
   <g id="patch_154">
    <path clip-path="url(#p866609467e)" d="M 304.751772 273.312 
L 306.365121 273.312 
L 306.365121 101.867294 
L 304.751772 101.867294 
z
" style="fill:#1f77b4;"/>
   </g>
   <g id="patch_155">
    <path clip-path="url(#p866609467e)" d="M 306.365121 273.312 
L 307.978469 273.312 
L 307.978469 116.030118 
L 306.365121 116.030118 
z
" style="fill:#1f77b4;"/>
   </g>
   <g id="patch_156">
    <path clip-path="url(#p866609467e)" d="M 307.978469 273.312 
L 309.591817 273.312 
L 309.591817 135.410824 
L 307.978469 135.410824 
z
" style="fill:#1f77b4;"/>
   </g>
   <g id="patch_157">
    <path clip-path="url(#p866609467e)" d="M 309.591817 273.312 
L 311.205166 273.312 
L 311.205166 87.704471 
L 309.591817 87.704471 
z
" style="fill:#1f77b4;"/>
   </g>
   <g id="patch_158">
    <path clip-path="url(#p866609467e)" d="M 311.205166 273.312 
L 312.818514 273.312 
L 312.818514 119.011765 
L 311.205166 119.011765 
z
" style="fill:#1f77b4;"/>
   </g>
   <g id="patch_159">
    <path clip-path="url(#p866609467e)" d="M 312.818514 273.312 
L 314.431863 273.312 
L 314.431863 121.993412 
L 312.818514 121.993412 
z
" style="fill:#1f77b4;"/>
   </g>
   <g id="patch_160">
    <path clip-path="url(#p866609467e)" d="M 314.431863 273.312 
L 316.045211 273.312 
L 316.045211 128.702118 
L 314.431863 128.702118 
z
" style="fill:#1f77b4;"/>
   </g>
   <g id="patch_161">
    <path clip-path="url(#p866609467e)" d="M 316.045211 273.312 
L 317.65856 273.312 
L 317.65856 126.465882 
L 316.045211 126.465882 
z
" style="fill:#1f77b4;"/>
   </g>
   <g id="patch_162">
    <path clip-path="url(#p866609467e)" d="M 317.65856 273.312 
L 319.271908 273.312 
L 319.271908 134.665412 
L 317.65856 134.665412 
z
" style="fill:#1f77b4;"/>
   </g>
   <g id="patch_163">
    <path clip-path="url(#p866609467e)" d="M 319.271908 273.312 
L 320.885257 273.312 
L 320.885257 132.429176 
L 319.271908 132.429176 
z
" style="fill:#1f77b4;"/>
   </g>
   <g id="patch_164">
    <path clip-path="url(#p866609467e)" d="M 320.885257 273.312 
L 322.498605 273.312 
L 322.498605 142.119529 
L 320.885257 142.119529 
z
" style="fill:#1f77b4;"/>
   </g>
   <g id="patch_165">
    <path clip-path="url(#p866609467e)" d="M 322.498605 273.312 
L 324.111953 273.312 
L 324.111953 142.119529 
L 322.498605 142.119529 
z
" style="fill:#1f77b4;"/>
   </g>
   <g id="patch_166">
    <path clip-path="url(#p866609467e)" d="M 324.111953 273.312 
L 325.725302 273.312 
L 325.725302 145.101176 
L 324.111953 145.101176 
z
" style="fill:#1f77b4;"/>
   </g>
   <g id="patch_167">
    <path clip-path="url(#p866609467e)" d="M 325.725302 273.312 
L 327.33865 273.312 
L 327.33865 143.610353 
L 325.725302 143.610353 
z
" style="fill:#1f77b4;"/>
   </g>
   <g id="patch_168">
    <path clip-path="url(#p866609467e)" d="M 327.33865 273.312 
L 328.951999 273.312 
L 328.951999 165.227294 
L 327.33865 165.227294 
z
" style="fill:#1f77b4;"/>
   </g>
   <g id="patch_169">
    <path clip-path="url(#p866609467e)" d="M 328.951999 273.312 
L 330.565347 273.312 
L 330.565347 166.718118 
L 328.951999 166.718118 
z
" style="fill:#1f77b4;"/>
   </g>
   <g id="patch_170">
    <path clip-path="url(#p866609467e)" d="M 330.565347 273.312 
L 332.178696 273.312 
L 332.178696 149.573647 
L 330.565347 149.573647 
z
" style="fill:#1f77b4;"/>
   </g>
   <g id="patch_171">
    <path clip-path="url(#p866609467e)" d="M 332.178696 273.312 
L 333.792044 273.312 
L 333.792044 159.264 
L 332.178696 159.264 
z
" style="fill:#1f77b4;"/>
   </g>
   <g id="patch_172">
    <path clip-path="url(#p866609467e)" d="M 333.792044 273.312 
L 335.405393 273.312 
L 335.405393 164.481882 
L 333.792044 164.481882 
z
" style="fill:#1f77b4;"/>
   </g>
   <g id="patch_173">
    <path clip-path="url(#p866609467e)" d="M 335.405393 273.312 
L 337.018741 273.312 
L 337.018741 171.190588 
L 335.405393 171.190588 
z
" style="fill:#1f77b4;"/>
   </g>
   <g id="patch_174">
    <path clip-path="url(#p866609467e)" d="M 337.018741 273.312 
L 338.632089 273.312 
L 338.632089 167.463529 
L 337.018741 167.463529 
z
" style="fill:#1f77b4;"/>
   </g>
   <g id="patch_175">
    <path clip-path="url(#p866609467e)" d="M 338.632089 273.312 
L 340.245438 273.312 
L 340.245438 185.353412 
L 338.632089 185.353412 
z
" style="fill:#1f77b4;"/>
   </g>
   <g id="patch_176">
    <path clip-path="url(#p866609467e)" d="M 340.245438 273.312 
L 341.858786 273.312 
L 341.858786 171.936 
L 340.245438 171.936 
z
" style="fill:#1f77b4;"/>
   </g>
   <g id="patch_177">
    <path clip-path="url(#p866609467e)" d="M 341.858786 273.312 
L 343.472135 273.312 
L 343.472135 192.807529 
L 341.858786 192.807529 
z
" style="fill:#1f77b4;"/>
   </g>
   <g id="patch_178">
    <path clip-path="url(#p866609467e)" d="M 343.472135 273.312 
L 345.085483 273.312 
L 345.085483 186.844235 
L 343.472135 186.844235 
z
" style="fill:#1f77b4;"/>
   </g>
   <g id="patch_179">
    <path clip-path="url(#p866609467e)" d="M 345.085483 273.312 
L 346.698832 273.312 
L 346.698832 182.371765 
L 345.085483 182.371765 
z
" style="fill:#1f77b4;"/>
   </g>
   <g id="patch_180">
    <path clip-path="url(#p866609467e)" d="M 346.698832 273.312 
L 348.31218 273.312 
L 348.31218 186.098824 
L 346.698832 186.098824 
z
" style="fill:#1f77b4;"/>
   </g>
   <g id="patch_181">
    <path clip-path="url(#p866609467e)" d="M 348.31218 273.312 
L 349.925528 273.312 
L 349.925528 186.844235 
L 348.31218 186.844235 
z
" style="fill:#1f77b4;"/>
   </g>
   <g id="patch_182">
    <path clip-path="url(#p866609467e)" d="M 349.925528 273.312 
L 351.538877 273.312 
L 351.538877 211.442824 
L 349.925528 211.442824 
z
" style="fill:#1f77b4;"/>
   </g>
   <g id="patch_183">
    <path clip-path="url(#p866609467e)" d="M 351.538877 273.312 
L 353.152225 273.312 
L 353.152225 211.442824 
L 351.538877 211.442824 
z
" style="fill:#1f77b4;"/>
   </g>
   <g id="patch_184">
    <path clip-path="url(#p866609467e)" d="M 353.152225 273.312 
L 354.765574 273.312 
L 354.765574 203.243294 
L 353.152225 203.243294 
z
" style="fill:#1f77b4;"/>
   </g>
   <g id="patch_185">
    <path clip-path="url(#p866609467e)" d="M 354.765574 273.312 
L 356.378922 273.312 
L 356.378922 211.442824 
L 354.765574 211.442824 
z
" style="fill:#1f77b4;"/>
   </g>
   <g id="patch_186">
    <path clip-path="url(#p866609467e)" d="M 356.378922 273.312 
L 357.992271 273.312 
L 357.992271 212.188235 
L 356.378922 212.188235 
z
" style="fill:#1f77b4;"/>
   </g>
   <g id="patch_187">
    <path clip-path="url(#p866609467e)" d="M 357.992271 273.312 
L 359.605619 273.312 
L 359.605619 217.406118 
L 357.992271 217.406118 
z
" style="fill:#1f77b4;"/>
   </g>
   <g id="patch_188">
    <path clip-path="url(#p866609467e)" d="M 359.605619 273.312 
L 361.218968 273.312 
L 361.218968 224.860235 
L 359.605619 224.860235 
z
" style="fill:#1f77b4;"/>
   </g>
   <g id="patch_189">
    <path clip-path="url(#p866609467e)" d="M 361.218968 273.312 
L 362.832316 273.312 
L 362.832316 217.406118 
L 361.218968 217.406118 
z
" style="fill:#1f77b4;"/>
   </g>
   <g id="patch_190">
    <path clip-path="url(#p866609467e)" d="M 362.832316 273.312 
L 364.445664 273.312 
L 364.445664 221.133176 
L 362.832316 221.133176 
z
" style="fill:#1f77b4;"/>
   </g>
   <g id="patch_191">
    <path clip-path="url(#p866609467e)" d="M 364.445664 273.312 
L 366.059013 273.312 
L 366.059013 232.314353 
L 364.445664 232.314353 
z
" style="fill:#1f77b4;"/>
   </g>
   <g id="patch_192">
    <path clip-path="url(#p866609467e)" d="M 366.059013 273.312 
L 367.672361 273.312 
L 367.672361 232.314353 
L 366.059013 232.314353 
z
" style="fill:#1f77b4;"/>
   </g>
   <g id="patch_193">
    <path clip-path="url(#p866609467e)" d="M 367.672361 273.312 
L 369.28571 273.312 
L 369.28571 233.805176 
L 367.672361 233.805176 
z
" style="fill:#1f77b4;"/>
   </g>
   <g id="patch_194">
    <path clip-path="url(#p866609467e)" d="M 369.28571 273.312 
L 370.899058 273.312 
L 370.899058 242.750118 
L 369.28571 242.750118 
z
" style="fill:#1f77b4;"/>
   </g>
   <g id="patch_195">
    <path clip-path="url(#p866609467e)" d="M 370.899058 273.312 
L 372.512407 273.312 
L 372.512407 239.768471 
L 370.899058 239.768471 
z
" style="fill:#1f77b4;"/>
   </g>
   <g id="patch_196">
    <path clip-path="url(#p866609467e)" d="M 372.512407 273.312 
L 374.125755 273.312 
L 374.125755 244.240941 
L 372.512407 244.240941 
z
" style="fill:#1f77b4;"/>
   </g>
   <g id="patch_197">
    <path clip-path="url(#p866609467e)" d="M 374.125755 273.312 
L 375.739104 273.312 
L 375.739104 249.458824 
L 374.125755 249.458824 
z
" style="fill:#1f77b4;"/>
   </g>
   <g id="patch_198">
    <path clip-path="url(#p866609467e)" d="M 375.739104 273.312 
L 377.352452 273.312 
L 377.352452 255.422118 
L 375.739104 255.422118 
z
" style="fill:#1f77b4;"/>
   </g>
   <g id="patch_199">
    <path clip-path="url(#p866609467e)" d="M 377.352452 273.312 
L 378.9658 273.312 
L 378.9658 257.658353 
L 377.352452 257.658353 
z
" style="fill:#1f77b4;"/>
   </g>
   <g id="patch_200">
    <path clip-path="url(#p866609467e)" d="M 378.9658 273.312 
L 380.579149 273.312 
L 380.579149 262.876235 
L 378.9658 262.876235 
z
" style="fill:#1f77b4;"/>
   </g>
   <g id="patch_201">
    <path clip-path="url(#p866609467e)" d="M 380.579149 273.312 
L 382.192497 273.312 
L 382.192497 263.621647 
L 380.579149 263.621647 
z
" style="fill:#1f77b4;"/>
   </g>
   <g id="patch_202">
    <path clip-path="url(#p866609467e)" d="M 382.192497 273.312 
L 383.805846 273.312 
L 383.805846 269.584941 
L 382.192497 269.584941 
z
" style="fill:#1f77b4;"/>
   </g>
   <g id="matplotlib.axis_1">
    <g id="xtick_1">
     <g id="line2d_1">
      <defs>
       <path d="M 0 0 
L 0 3.5 
" id="m8343cc12d3" style="stroke:#000000;stroke-width:0.8;"/>
      </defs>
      <g>
       <use style="stroke:#000000;stroke-width:0.8;" x="60.013977" xlink:href="#m8343cc12d3" y="273.312"/>
      </g>
     </g>
     <g id="text_1">
      <!-- 0.0 -->
      <g transform="translate(52.062415 287.910437)scale(0.1 -0.1)">
       <defs>
        <path d="M 2034 4250 
Q 1547 4250 1301 3770 
Q 1056 3291 1056 2328 
Q 1056 1369 1301 889 
Q 1547 409 2034 409 
Q 2525 409 2770 889 
Q 3016 1369 3016 2328 
Q 3016 3291 2770 3770 
Q 2525 4250 2034 4250 
z
M 2034 4750 
Q 2819 4750 3233 4129 
Q 3647 3509 3647 2328 
Q 3647 1150 3233 529 
Q 2819 -91 2034 -91 
Q 1250 -91 836 529 
Q 422 1150 422 2328 
Q 422 3509 836 4129 
Q 1250 4750 2034 4750 
z
" id="DejaVuSans-30" transform="scale(0.015625)"/>
        <path d="M 684 794 
L 1344 794 
L 1344 0 
L 684 0 
L 684 794 
z
" id="DejaVuSans-2e" transform="scale(0.015625)"/>
       </defs>
       <use xlink:href="#DejaVuSans-30"/>
       <use x="63.623047" xlink:href="#DejaVuSans-2e"/>
       <use x="95.410156" xlink:href="#DejaVuSans-30"/>
      </g>
     </g>
    </g>
    <g id="xtick_2">
     <g id="line2d_2">
      <g>
       <use style="stroke:#000000;stroke-width:0.8;" x="101.350278" xlink:href="#m8343cc12d3" y="273.312"/>
      </g>
     </g>
     <g id="text_2">
      <!-- 0.2 -->
      <g transform="translate(93.398715 287.910437)scale(0.1 -0.1)">
       <defs>
        <path d="M 1228 531 
L 3431 531 
L 3431 0 
L 469 0 
L 469 531 
Q 828 903 1448 1529 
Q 2069 2156 2228 2338 
Q 2531 2678 2651 2914 
Q 2772 3150 2772 3378 
Q 2772 3750 2511 3984 
Q 2250 4219 1831 4219 
Q 1534 4219 1204 4116 
Q 875 4013 500 3803 
L 500 4441 
Q 881 4594 1212 4672 
Q 1544 4750 1819 4750 
Q 2544 4750 2975 4387 
Q 3406 4025 3406 3419 
Q 3406 3131 3298 2873 
Q 3191 2616 2906 2266 
Q 2828 2175 2409 1742 
Q 1991 1309 1228 531 
z
" id="DejaVuSans-32" transform="scale(0.015625)"/>
       </defs>
       <use xlink:href="#DejaVuSans-30"/>
       <use x="63.623047" xlink:href="#DejaVuSans-2e"/>
       <use x="95.410156" xlink:href="#DejaVuSans-32"/>
      </g>
     </g>
    </g>
    <g id="xtick_3">
     <g id="line2d_3">
      <g>
       <use style="stroke:#000000;stroke-width:0.8;" x="142.686578" xlink:href="#m8343cc12d3" y="273.312"/>
      </g>
     </g>
     <g id="text_3">
      <!-- 0.4 -->
      <g transform="translate(134.735016 287.910437)scale(0.1 -0.1)">
       <defs>
        <path d="M 2419 4116 
L 825 1625 
L 2419 1625 
L 2419 4116 
z
M 2253 4666 
L 3047 4666 
L 3047 1625 
L 3713 1625 
L 3713 1100 
L 3047 1100 
L 3047 0 
L 2419 0 
L 2419 1100 
L 313 1100 
L 313 1709 
L 2253 4666 
z
" id="DejaVuSans-34" transform="scale(0.015625)"/>
       </defs>
       <use xlink:href="#DejaVuSans-30"/>
       <use x="63.623047" xlink:href="#DejaVuSans-2e"/>
       <use x="95.410156" xlink:href="#DejaVuSans-34"/>
      </g>
     </g>
    </g>
    <g id="xtick_4">
     <g id="line2d_4">
      <g>
       <use style="stroke:#000000;stroke-width:0.8;" x="184.022879" xlink:href="#m8343cc12d3" y="273.312"/>
      </g>
     </g>
     <g id="text_4">
      <!-- 0.6 -->
      <g transform="translate(176.071316 287.910437)scale(0.1 -0.1)">
       <defs>
        <path d="M 2113 2584 
Q 1688 2584 1439 2293 
Q 1191 2003 1191 1497 
Q 1191 994 1439 701 
Q 1688 409 2113 409 
Q 2538 409 2786 701 
Q 3034 994 3034 1497 
Q 3034 2003 2786 2293 
Q 2538 2584 2113 2584 
z
M 3366 4563 
L 3366 3988 
Q 3128 4100 2886 4159 
Q 2644 4219 2406 4219 
Q 1781 4219 1451 3797 
Q 1122 3375 1075 2522 
Q 1259 2794 1537 2939 
Q 1816 3084 2150 3084 
Q 2853 3084 3261 2657 
Q 3669 2231 3669 1497 
Q 3669 778 3244 343 
Q 2819 -91 2113 -91 
Q 1303 -91 875 529 
Q 447 1150 447 2328 
Q 447 3434 972 4092 
Q 1497 4750 2381 4750 
Q 2619 4750 2861 4703 
Q 3103 4656 3366 4563 
z
" id="DejaVuSans-36" transform="scale(0.015625)"/>
       </defs>
       <use xlink:href="#DejaVuSans-30"/>
       <use x="63.623047" xlink:href="#DejaVuSans-2e"/>
       <use x="95.410156" xlink:href="#DejaVuSans-36"/>
      </g>
     </g>
    </g>
    <g id="xtick_5">
     <g id="line2d_5">
      <g>
       <use style="stroke:#000000;stroke-width:0.8;" x="225.35918" xlink:href="#m8343cc12d3" y="273.312"/>
      </g>
     </g>
     <g id="text_5">
      <!-- 0.8 -->
      <g transform="translate(217.407617 287.910437)scale(0.1 -0.1)">
       <defs>
        <path d="M 2034 2216 
Q 1584 2216 1326 1975 
Q 1069 1734 1069 1313 
Q 1069 891 1326 650 
Q 1584 409 2034 409 
Q 2484 409 2743 651 
Q 3003 894 3003 1313 
Q 3003 1734 2745 1975 
Q 2488 2216 2034 2216 
z
M 1403 2484 
Q 997 2584 770 2862 
Q 544 3141 544 3541 
Q 544 4100 942 4425 
Q 1341 4750 2034 4750 
Q 2731 4750 3128 4425 
Q 3525 4100 3525 3541 
Q 3525 3141 3298 2862 
Q 3072 2584 2669 2484 
Q 3125 2378 3379 2068 
Q 3634 1759 3634 1313 
Q 3634 634 3220 271 
Q 2806 -91 2034 -91 
Q 1263 -91 848 271 
Q 434 634 434 1313 
Q 434 1759 690 2068 
Q 947 2378 1403 2484 
z
M 1172 3481 
Q 1172 3119 1398 2916 
Q 1625 2713 2034 2713 
Q 2441 2713 2670 2916 
Q 2900 3119 2900 3481 
Q 2900 3844 2670 4047 
Q 2441 4250 2034 4250 
Q 1625 4250 1398 4047 
Q 1172 3844 1172 3481 
z
" id="DejaVuSans-38" transform="scale(0.015625)"/>
       </defs>
       <use xlink:href="#DejaVuSans-30"/>
       <use x="63.623047" xlink:href="#DejaVuSans-2e"/>
       <use x="95.410156" xlink:href="#DejaVuSans-38"/>
      </g>
     </g>
    </g>
    <g id="xtick_6">
     <g id="line2d_6">
      <g>
       <use style="stroke:#000000;stroke-width:0.8;" x="266.69548" xlink:href="#m8343cc12d3" y="273.312"/>
      </g>
     </g>
     <g id="text_6">
      <!-- 1.0 -->
      <g transform="translate(258.743918 287.910437)scale(0.1 -0.1)">
       <defs>
        <path d="M 794 531 
L 1825 531 
L 1825 4091 
L 703 3866 
L 703 4441 
L 1819 4666 
L 2450 4666 
L 2450 531 
L 3481 531 
L 3481 0 
L 794 0 
L 794 531 
z
" id="DejaVuSans-31" transform="scale(0.015625)"/>
       </defs>
       <use xlink:href="#DejaVuSans-31"/>
       <use x="63.623047" xlink:href="#DejaVuSans-2e"/>
       <use x="95.410156" xlink:href="#DejaVuSans-30"/>
      </g>
     </g>
    </g>
    <g id="xtick_7">
     <g id="line2d_7">
      <g>
       <use style="stroke:#000000;stroke-width:0.8;" x="308.031781" xlink:href="#m8343cc12d3" y="273.312"/>
      </g>
     </g>
     <g id="text_7">
      <!-- 1.2 -->
      <g transform="translate(300.080218 287.910437)scale(0.1 -0.1)">
       <use xlink:href="#DejaVuSans-31"/>
       <use x="63.623047" xlink:href="#DejaVuSans-2e"/>
       <use x="95.410156" xlink:href="#DejaVuSans-32"/>
      </g>
     </g>
    </g>
    <g id="xtick_8">
     <g id="line2d_8">
      <g>
       <use style="stroke:#000000;stroke-width:0.8;" x="349.368081" xlink:href="#m8343cc12d3" y="273.312"/>
      </g>
     </g>
     <g id="text_8">
      <!-- 1.4 -->
      <g transform="translate(341.416519 287.910437)scale(0.1 -0.1)">
       <use xlink:href="#DejaVuSans-31"/>
       <use x="63.623047" xlink:href="#DejaVuSans-2e"/>
       <use x="95.410156" xlink:href="#DejaVuSans-34"/>
      </g>
     </g>
    </g>
    <g id="xtick_9">
     <g id="line2d_9">
      <g>
       <use style="stroke:#000000;stroke-width:0.8;" x="390.704382" xlink:href="#m8343cc12d3" y="273.312"/>
      </g>
     </g>
     <g id="text_9">
      <!-- 1.6 -->
      <g transform="translate(382.752819 287.910437)scale(0.1 -0.1)">
       <use xlink:href="#DejaVuSans-31"/>
       <use x="63.623047" xlink:href="#DejaVuSans-2e"/>
       <use x="95.410156" xlink:href="#DejaVuSans-36"/>
      </g>
     </g>
    </g>
    <g id="text_10">
     <!-- Angle with normal (rad) -->
     <g transform="translate(163.023281 301.588562)scale(0.1 -0.1)">
      <defs>
       <path d="M 2188 4044 
L 1331 1722 
L 3047 1722 
L 2188 4044 
z
M 1831 4666 
L 2547 4666 
L 4325 0 
L 3669 0 
L 3244 1197 
L 1141 1197 
L 716 0 
L 50 0 
L 1831 4666 
z
" id="DejaVuSans-41" transform="scale(0.015625)"/>
       <path d="M 3513 2113 
L 3513 0 
L 2938 0 
L 2938 2094 
Q 2938 2591 2744 2837 
Q 2550 3084 2163 3084 
Q 1697 3084 1428 2787 
Q 1159 2491 1159 1978 
L 1159 0 
L 581 0 
L 581 3500 
L 1159 3500 
L 1159 2956 
Q 1366 3272 1645 3428 
Q 1925 3584 2291 3584 
Q 2894 3584 3203 3211 
Q 3513 2838 3513 2113 
z
" id="DejaVuSans-6e" transform="scale(0.015625)"/>
       <path d="M 2906 1791 
Q 2906 2416 2648 2759 
Q 2391 3103 1925 3103 
Q 1463 3103 1205 2759 
Q 947 2416 947 1791 
Q 947 1169 1205 825 
Q 1463 481 1925 481 
Q 2391 481 2648 825 
Q 2906 1169 2906 1791 
z
M 3481 434 
Q 3481 -459 3084 -895 
Q 2688 -1331 1869 -1331 
Q 1566 -1331 1297 -1286 
Q 1028 -1241 775 -1147 
L 775 -588 
Q 1028 -725 1275 -790 
Q 1522 -856 1778 -856 
Q 2344 -856 2625 -561 
Q 2906 -266 2906 331 
L 2906 616 
Q 2728 306 2450 153 
Q 2172 0 1784 0 
Q 1141 0 747 490 
Q 353 981 353 1791 
Q 353 2603 747 3093 
Q 1141 3584 1784 3584 
Q 2172 3584 2450 3431 
Q 2728 3278 2906 2969 
L 2906 3500 
L 3481 3500 
L 3481 434 
z
" id="DejaVuSans-67" transform="scale(0.015625)"/>
       <path d="M 603 4863 
L 1178 4863 
L 1178 0 
L 603 0 
L 603 4863 
z
" id="DejaVuSans-6c" transform="scale(0.015625)"/>
       <path d="M 3597 1894 
L 3597 1613 
L 953 1613 
Q 991 1019 1311 708 
Q 1631 397 2203 397 
Q 2534 397 2845 478 
Q 3156 559 3463 722 
L 3463 178 
Q 3153 47 2828 -22 
Q 2503 -91 2169 -91 
Q 1331 -91 842 396 
Q 353 884 353 1716 
Q 353 2575 817 3079 
Q 1281 3584 2069 3584 
Q 2775 3584 3186 3129 
Q 3597 2675 3597 1894 
z
M 3022 2063 
Q 3016 2534 2758 2815 
Q 2500 3097 2075 3097 
Q 1594 3097 1305 2825 
Q 1016 2553 972 2059 
L 3022 2063 
z
" id="DejaVuSans-65" transform="scale(0.015625)"/>
       <path id="DejaVuSans-20" transform="scale(0.015625)"/>
       <path d="M 269 3500 
L 844 3500 
L 1563 769 
L 2278 3500 
L 2956 3500 
L 3675 769 
L 4391 3500 
L 4966 3500 
L 4050 0 
L 3372 0 
L 2619 2869 
L 1863 0 
L 1184 0 
L 269 3500 
z
" id="DejaVuSans-77" transform="scale(0.015625)"/>
       <path d="M 603 3500 
L 1178 3500 
L 1178 0 
L 603 0 
L 603 3500 
z
M 603 4863 
L 1178 4863 
L 1178 4134 
L 603 4134 
L 603 4863 
z
" id="DejaVuSans-69" transform="scale(0.015625)"/>
       <path d="M 1172 4494 
L 1172 3500 
L 2356 3500 
L 2356 3053 
L 1172 3053 
L 1172 1153 
Q 1172 725 1289 603 
Q 1406 481 1766 481 
L 2356 481 
L 2356 0 
L 1766 0 
Q 1100 0 847 248 
Q 594 497 594 1153 
L 594 3053 
L 172 3053 
L 172 3500 
L 594 3500 
L 594 4494 
L 1172 4494 
z
" id="DejaVuSans-74" transform="scale(0.015625)"/>
       <path d="M 3513 2113 
L 3513 0 
L 2938 0 
L 2938 2094 
Q 2938 2591 2744 2837 
Q 2550 3084 2163 3084 
Q 1697 3084 1428 2787 
Q 1159 2491 1159 1978 
L 1159 0 
L 581 0 
L 581 4863 
L 1159 4863 
L 1159 2956 
Q 1366 3272 1645 3428 
Q 1925 3584 2291 3584 
Q 2894 3584 3203 3211 
Q 3513 2838 3513 2113 
z
" id="DejaVuSans-68" transform="scale(0.015625)"/>
       <path d="M 1959 3097 
Q 1497 3097 1228 2736 
Q 959 2375 959 1747 
Q 959 1119 1226 758 
Q 1494 397 1959 397 
Q 2419 397 2687 759 
Q 2956 1122 2956 1747 
Q 2956 2369 2687 2733 
Q 2419 3097 1959 3097 
z
M 1959 3584 
Q 2709 3584 3137 3096 
Q 3566 2609 3566 1747 
Q 3566 888 3137 398 
Q 2709 -91 1959 -91 
Q 1206 -91 779 398 
Q 353 888 353 1747 
Q 353 2609 779 3096 
Q 1206 3584 1959 3584 
z
" id="DejaVuSans-6f" transform="scale(0.015625)"/>
       <path d="M 2631 2963 
Q 2534 3019 2420 3045 
Q 2306 3072 2169 3072 
Q 1681 3072 1420 2755 
Q 1159 2438 1159 1844 
L 1159 0 
L 581 0 
L 581 3500 
L 1159 3500 
L 1159 2956 
Q 1341 3275 1631 3429 
Q 1922 3584 2338 3584 
Q 2397 3584 2469 3576 
Q 2541 3569 2628 3553 
L 2631 2963 
z
" id="DejaVuSans-72" transform="scale(0.015625)"/>
       <path d="M 3328 2828 
Q 3544 3216 3844 3400 
Q 4144 3584 4550 3584 
Q 5097 3584 5394 3201 
Q 5691 2819 5691 2113 
L 5691 0 
L 5113 0 
L 5113 2094 
Q 5113 2597 4934 2840 
Q 4756 3084 4391 3084 
Q 3944 3084 3684 2787 
Q 3425 2491 3425 1978 
L 3425 0 
L 2847 0 
L 2847 2094 
Q 2847 2600 2669 2842 
Q 2491 3084 2119 3084 
Q 1678 3084 1418 2786 
Q 1159 2488 1159 1978 
L 1159 0 
L 581 0 
L 581 3500 
L 1159 3500 
L 1159 2956 
Q 1356 3278 1631 3431 
Q 1906 3584 2284 3584 
Q 2666 3584 2933 3390 
Q 3200 3197 3328 2828 
z
" id="DejaVuSans-6d" transform="scale(0.015625)"/>
       <path d="M 2194 1759 
Q 1497 1759 1228 1600 
Q 959 1441 959 1056 
Q 959 750 1161 570 
Q 1363 391 1709 391 
Q 2188 391 2477 730 
Q 2766 1069 2766 1631 
L 2766 1759 
L 2194 1759 
z
M 3341 1997 
L 3341 0 
L 2766 0 
L 2766 531 
Q 2569 213 2275 61 
Q 1981 -91 1556 -91 
Q 1019 -91 701 211 
Q 384 513 384 1019 
Q 384 1609 779 1909 
Q 1175 2209 1959 2209 
L 2766 2209 
L 2766 2266 
Q 2766 2663 2505 2880 
Q 2244 3097 1772 3097 
Q 1472 3097 1187 3025 
Q 903 2953 641 2809 
L 641 3341 
Q 956 3463 1253 3523 
Q 1550 3584 1831 3584 
Q 2591 3584 2966 3190 
Q 3341 2797 3341 1997 
z
" id="DejaVuSans-61" transform="scale(0.015625)"/>
       <path d="M 1984 4856 
Q 1566 4138 1362 3434 
Q 1159 2731 1159 2009 
Q 1159 1288 1364 580 
Q 1569 -128 1984 -844 
L 1484 -844 
Q 1016 -109 783 600 
Q 550 1309 550 2009 
Q 550 2706 781 3412 
Q 1013 4119 1484 4856 
L 1984 4856 
z
" id="DejaVuSans-28" transform="scale(0.015625)"/>
       <path d="M 2906 2969 
L 2906 4863 
L 3481 4863 
L 3481 0 
L 2906 0 
L 2906 525 
Q 2725 213 2448 61 
Q 2172 -91 1784 -91 
Q 1150 -91 751 415 
Q 353 922 353 1747 
Q 353 2572 751 3078 
Q 1150 3584 1784 3584 
Q 2172 3584 2448 3432 
Q 2725 3281 2906 2969 
z
M 947 1747 
Q 947 1113 1208 752 
Q 1469 391 1925 391 
Q 2381 391 2643 752 
Q 2906 1113 2906 1747 
Q 2906 2381 2643 2742 
Q 2381 3103 1925 3103 
Q 1469 3103 1208 2742 
Q 947 2381 947 1747 
z
" id="DejaVuSans-64" transform="scale(0.015625)"/>
       <path d="M 513 4856 
L 1013 4856 
Q 1481 4119 1714 3412 
Q 1947 2706 1947 2009 
Q 1947 1309 1714 600 
Q 1481 -109 1013 -844 
L 513 -844 
Q 928 -128 1133 580 
Q 1338 1288 1338 2009 
Q 1338 2731 1133 3434 
Q 928 4138 513 4856 
z
" id="DejaVuSans-29" transform="scale(0.015625)"/>
      </defs>
      <use xlink:href="#DejaVuSans-41"/>
      <use x="68.408203" xlink:href="#DejaVuSans-6e"/>
      <use x="131.787109" xlink:href="#DejaVuSans-67"/>
      <use x="195.263672" xlink:href="#DejaVuSans-6c"/>
      <use x="223.046875" xlink:href="#DejaVuSans-65"/>
      <use x="284.570312" xlink:href="#DejaVuSans-20"/>
      <use x="316.357422" xlink:href="#DejaVuSans-77"/>
      <use x="398.144531" xlink:href="#DejaVuSans-69"/>
      <use x="425.927734" xlink:href="#DejaVuSans-74"/>
      <use x="465.136719" xlink:href="#DejaVuSans-68"/>
      <use x="528.515625" xlink:href="#DejaVuSans-20"/>
      <use x="560.302734" xlink:href="#DejaVuSans-6e"/>
      <use x="623.681641" xlink:href="#DejaVuSans-6f"/>
      <use x="684.863281" xlink:href="#DejaVuSans-72"/>
      <use x="724.226562" xlink:href="#DejaVuSans-6d"/>
      <use x="821.638672" xlink:href="#DejaVuSans-61"/>
      <use x="882.917969" xlink:href="#DejaVuSans-6c"/>
      <use x="910.701172" xlink:href="#DejaVuSans-20"/>
      <use x="942.488281" xlink:href="#DejaVuSans-28"/>
      <use x="981.501953" xlink:href="#DejaVuSans-72"/>
      <use x="1022.615234" xlink:href="#DejaVuSans-61"/>
      <use x="1083.894531" xlink:href="#DejaVuSans-64"/>
      <use x="1147.371094" xlink:href="#DejaVuSans-29"/>
     </g>
    </g>
   </g>
   <g id="matplotlib.axis_2">
    <g id="ytick_1">
     <g id="line2d_10">
      <defs>
       <path d="M 0 0 
L -3.5 0 
" id="m2d9b73ab5c" style="stroke:#000000;stroke-width:0.8;"/>
      </defs>
      <g>
       <use style="stroke:#000000;stroke-width:0.8;" x="43.78125" xlink:href="#m2d9b73ab5c" y="273.312"/>
      </g>
     </g>
     <g id="text_11">
      <!-- 0.0 -->
      <g transform="translate(20.878125 277.111219)scale(0.1 -0.1)">
       <use xlink:href="#DejaVuSans-30"/>
       <use x="63.623047" xlink:href="#DejaVuSans-2e"/>
       <use x="95.410156" xlink:href="#DejaVuSans-30"/>
      </g>
     </g>
    </g>
    <g id="ytick_2">
     <g id="line2d_11">
      <g>
       <use style="stroke:#000000;stroke-width:0.8;" x="43.78125" xlink:href="#m2d9b73ab5c" y="226.762739"/>
      </g>
     </g>
     <g id="text_12">
      <!-- 0.2 -->
      <g transform="translate(20.878125 230.561957)scale(0.1 -0.1)">
       <use xlink:href="#DejaVuSans-30"/>
       <use x="63.623047" xlink:href="#DejaVuSans-2e"/>
       <use x="95.410156" xlink:href="#DejaVuSans-32"/>
      </g>
     </g>
    </g>
    <g id="ytick_3">
     <g id="line2d_12">
      <g>
       <use style="stroke:#000000;stroke-width:0.8;" x="43.78125" xlink:href="#m2d9b73ab5c" y="180.213477"/>
      </g>
     </g>
     <g id="text_13">
      <!-- 0.4 -->
      <g transform="translate(20.878125 184.012696)scale(0.1 -0.1)">
       <use xlink:href="#DejaVuSans-30"/>
       <use x="63.623047" xlink:href="#DejaVuSans-2e"/>
       <use x="95.410156" xlink:href="#DejaVuSans-34"/>
      </g>
     </g>
    </g>
    <g id="ytick_4">
     <g id="line2d_13">
      <g>
       <use style="stroke:#000000;stroke-width:0.8;" x="43.78125" xlink:href="#m2d9b73ab5c" y="133.664216"/>
      </g>
     </g>
     <g id="text_14">
      <!-- 0.6 -->
      <g transform="translate(20.878125 137.463435)scale(0.1 -0.1)">
       <use xlink:href="#DejaVuSans-30"/>
       <use x="63.623047" xlink:href="#DejaVuSans-2e"/>
       <use x="95.410156" xlink:href="#DejaVuSans-36"/>
      </g>
     </g>
    </g>
    <g id="ytick_5">
     <g id="line2d_14">
      <g>
       <use style="stroke:#000000;stroke-width:0.8;" x="43.78125" xlink:href="#m2d9b73ab5c" y="87.114955"/>
      </g>
     </g>
     <g id="text_15">
      <!-- 0.8 -->
      <g transform="translate(20.878125 90.914174)scale(0.1 -0.1)">
       <use xlink:href="#DejaVuSans-30"/>
       <use x="63.623047" xlink:href="#DejaVuSans-2e"/>
       <use x="95.410156" xlink:href="#DejaVuSans-38"/>
      </g>
     </g>
    </g>
    <g id="ytick_6">
     <g id="line2d_15">
      <g>
       <use style="stroke:#000000;stroke-width:0.8;" x="43.78125" xlink:href="#m2d9b73ab5c" y="40.565694"/>
      </g>
     </g>
     <g id="text_16">
      <!-- 1.0 -->
      <g transform="translate(20.878125 44.364912)scale(0.1 -0.1)">
       <use xlink:href="#DejaVuSans-31"/>
       <use x="63.623047" xlink:href="#DejaVuSans-2e"/>
       <use x="95.410156" xlink:href="#DejaVuSans-30"/>
      </g>
     </g>
    </g>
    <g id="text_17">
     <!-- Probability density -->
     <g transform="translate(14.798438 186.606781)rotate(-90)scale(0.1 -0.1)">
      <defs>
       <path d="M 1259 4147 
L 1259 2394 
L 2053 2394 
Q 2494 2394 2734 2622 
Q 2975 2850 2975 3272 
Q 2975 3691 2734 3919 
Q 2494 4147 2053 4147 
L 1259 4147 
z
M 628 4666 
L 2053 4666 
Q 2838 4666 3239 4311 
Q 3641 3956 3641 3272 
Q 3641 2581 3239 2228 
Q 2838 1875 2053 1875 
L 1259 1875 
L 1259 0 
L 628 0 
L 628 4666 
z
" id="DejaVuSans-50" transform="scale(0.015625)"/>
       <path d="M 3116 1747 
Q 3116 2381 2855 2742 
Q 2594 3103 2138 3103 
Q 1681 3103 1420 2742 
Q 1159 2381 1159 1747 
Q 1159 1113 1420 752 
Q 1681 391 2138 391 
Q 2594 391 2855 752 
Q 3116 1113 3116 1747 
z
M 1159 2969 
Q 1341 3281 1617 3432 
Q 1894 3584 2278 3584 
Q 2916 3584 3314 3078 
Q 3713 2572 3713 1747 
Q 3713 922 3314 415 
Q 2916 -91 2278 -91 
Q 1894 -91 1617 61 
Q 1341 213 1159 525 
L 1159 0 
L 581 0 
L 581 4863 
L 1159 4863 
L 1159 2969 
z
" id="DejaVuSans-62" transform="scale(0.015625)"/>
       <path d="M 2059 -325 
Q 1816 -950 1584 -1140 
Q 1353 -1331 966 -1331 
L 506 -1331 
L 506 -850 
L 844 -850 
Q 1081 -850 1212 -737 
Q 1344 -625 1503 -206 
L 1606 56 
L 191 3500 
L 800 3500 
L 1894 763 
L 2988 3500 
L 3597 3500 
L 2059 -325 
z
" id="DejaVuSans-79" transform="scale(0.015625)"/>
       <path d="M 2834 3397 
L 2834 2853 
Q 2591 2978 2328 3040 
Q 2066 3103 1784 3103 
Q 1356 3103 1142 2972 
Q 928 2841 928 2578 
Q 928 2378 1081 2264 
Q 1234 2150 1697 2047 
L 1894 2003 
Q 2506 1872 2764 1633 
Q 3022 1394 3022 966 
Q 3022 478 2636 193 
Q 2250 -91 1575 -91 
Q 1294 -91 989 -36 
Q 684 19 347 128 
L 347 722 
Q 666 556 975 473 
Q 1284 391 1588 391 
Q 1994 391 2212 530 
Q 2431 669 2431 922 
Q 2431 1156 2273 1281 
Q 2116 1406 1581 1522 
L 1381 1569 
Q 847 1681 609 1914 
Q 372 2147 372 2553 
Q 372 3047 722 3315 
Q 1072 3584 1716 3584 
Q 2034 3584 2315 3537 
Q 2597 3491 2834 3397 
z
" id="DejaVuSans-73" transform="scale(0.015625)"/>
      </defs>
      <use xlink:href="#DejaVuSans-50"/>
      <use x="58.552734" xlink:href="#DejaVuSans-72"/>
      <use x="97.416016" xlink:href="#DejaVuSans-6f"/>
      <use x="158.597656" xlink:href="#DejaVuSans-62"/>
      <use x="222.074219" xlink:href="#DejaVuSans-61"/>
      <use x="283.353516" xlink:href="#DejaVuSans-62"/>
      <use x="346.830078" xlink:href="#DejaVuSans-69"/>
      <use x="374.613281" xlink:href="#DejaVuSans-6c"/>
      <use x="402.396484" xlink:href="#DejaVuSans-69"/>
      <use x="430.179688" xlink:href="#DejaVuSans-74"/>
      <use x="469.388672" xlink:href="#DejaVuSans-79"/>
      <use x="528.568359" xlink:href="#DejaVuSans-20"/>
      <use x="560.355469" xlink:href="#DejaVuSans-64"/>
      <use x="623.832031" xlink:href="#DejaVuSans-65"/>
      <use x="685.355469" xlink:href="#DejaVuSans-6e"/>
      <use x="748.734375" xlink:href="#DejaVuSans-73"/>
      <use x="800.833984" xlink:href="#DejaVuSans-69"/>
      <use x="828.617188" xlink:href="#DejaVuSans-74"/>
      <use x="867.826172" xlink:href="#DejaVuSans-79"/>
     </g>
    </g>
   </g>
   <g id="line2d_16">
    <path clip-path="url(#p866609467e)" d="M 60.013977 273.312 
L 79.837728 228.937836 
L 90.237073 206.209101 
L 99.01152 187.550713 
L 106.811029 171.480135 
L 113.960578 157.255924 
L 120.460169 144.804933 
L 126.63478 133.446451 
L 132.484411 123.145611 
L 138.009063 113.858183 
L 143.208736 105.532817 
L 148.408408 97.632126 
L 153.283101 90.628716 
L 157.832814 84.458578 
L 162.382528 78.654438 
L 166.607261 73.602442 
L 170.831995 68.884175 
L 175.056729 64.507521 
L 178.956483 60.777074 
L 182.856238 57.349256 
L 186.755992 54.228948 
L 190.330767 51.642606 
L 193.905542 49.321491 
L 197.480316 47.26838 
L 201.055091 45.485728 
L 204.304886 44.101633 
L 207.554682 42.944194 
L 210.804477 42.014556 
L 214.054272 41.313638 
L 217.304067 40.842133 
L 220.553863 40.600506 
L 223.803658 40.588998 
L 227.053453 40.80762 
L 230.303248 41.256154 
L 233.553044 41.934159 
L 236.802839 42.840963 
L 240.052634 43.975669 
L 243.302429 45.337156 
L 246.552225 46.924077 
L 250.126999 48.928188 
L 253.701774 51.200772 
L 257.276549 53.739112 
L 260.851324 56.540169 
L 264.751078 59.89155 
L 268.650832 63.546821 
L 272.550587 67.500776 
L 276.77532 72.114745 
L 281.000054 77.064929 
L 285.224788 82.343056 
L 289.774501 88.383817 
L 294.324215 94.782969 
L 299.198908 102.022806 
L 304.39858 110.164907 
L 309.598252 118.719957 
L 315.122904 128.23793 
L 320.972536 138.767002 
L 327.147147 150.347893 
L 333.646737 163.011612 
L 340.796287 177.443506 
L 348.595795 193.708075 
L 357.370243 212.542752 
L 367.769587 235.421248 
L 382.393666 268.188932 
L 384.668523 273.312 
L 384.668523 273.312 
" style="fill:none;stroke:#ff7f0e;stroke-linecap:square;stroke-width:1.5;"/>
   </g>
   <g id="patch_203">
    <path d="M 43.78125 273.312 
L 43.78125 7.2 
" style="fill:none;stroke:#000000;stroke-linecap:square;stroke-linejoin:miter;stroke-width:0.8;"/>
   </g>
   <g id="patch_204">
    <path d="M 400.90125 273.312 
L 400.90125 7.2 
" style="fill:none;stroke:#000000;stroke-linecap:square;stroke-linejoin:miter;stroke-width:0.8;"/>
   </g>
   <g id="patch_205">
    <path d="M 43.78125 273.312 
L 400.90125 273.312 
" style="fill:none;stroke:#000000;stroke-linecap:square;stroke-linejoin:miter;stroke-width:0.8;"/>
   </g>
   <g id="patch_206">
    <path d="M 43.78125 7.2 
L 400.90125 7.2 
" style="fill:none;stroke:#000000;stroke-linecap:square;stroke-linejoin:miter;stroke-width:0.8;"/>
   </g>
  </g>
 </g>
 <defs>
  <clipPath id="p866609467e">
   <rect height="266.112" width="357.12" x="43.78125" y="7.2"/>
  </clipPath>
 </defs>
</svg>
