<?xml version="1.0" encoding="utf-8" standalone="no"?>
<!DOCTYPE svg PUBLIC "-//W3C//DTD SVG 1.1//EN"
  "http://www.w3.org/Graphics/SVG/1.1/DTD/svg11.dtd">
<svg height="310.86825pt" version="1.1" viewBox="0 0 408.10125 310.86825" width="408.10125pt" xmlns="http://www.w3.org/2000/svg" xmlns:xlink="http://www.w3.org/1999/xlink">
 <metadata>
  <rdf:RDF xmlns:cc="http://creativecommons.org/ns#" xmlns:dc="http://purl.org/dc/elements/1.1/" xmlns:rdf="http://www.w3.org/1999/02/22-rdf-syntax-ns#">
   <cc:Work>
    <dc:type rdf:resource="http://purl.org/dc/dcmitype/StillImage"/>
    <dc:date>2021-07-01T12:58:30.888736</dc:date>
    <dc:format>image/svg+xml</dc:format>
    <dc:creator>
     <cc:Agent>
      <dc:title>Matplotlib v3.4.2, https://matplotlib.org/</dc:title>
     </cc:Agent>
    </dc:creator>
   </cc:Work>
  </rdf:RDF>
 </metadata>
 <defs>
  <style type="text/css">*{stroke-linecap:butt;stroke-linejoin:round;}</style>
 </defs>
 <g id="figure_1">
  <g id="patch_1">
   <path d="M 0 310.86825 
L 408.10125 310.86825 
L 408.10125 0 
L 0 0 
z
" style="fill:#ffffff;"/>
  </g>
  <g id="axes_1">
   <g id="patch_2">
    <path d="M 43.78125 273.312 
L 400.90125 273.312 
L 400.90125 7.2 
L 43.78125 7.2 
z
" style="fill:#ffffff;"/>
   </g>
   <g id="patch_3">
    <path clip-path="url(#p6b7e68900a)" d="M 60.919438 273.312 
L 62.532579 273.312 
L 62.532579 266.029241 
L 60.919438 266.029241 
z
" style="fill:#1f77b4;"/>
   </g>
   <g id="patch_4">
    <path clip-path="url(#p6b7e68900a)" d="M 62.532579 273.312 
L 64.145721 273.312 
L 64.145721 263.116138 
L 62.532579 263.116138 
z
" style="fill:#1f77b4;"/>
   </g>
   <g id="patch_5">
    <path clip-path="url(#p6b7e68900a)" d="M 64.145721 273.312 
L 65.758863 273.312 
L 65.758863 265.300966 
L 64.145721 265.300966 
z
" style="fill:#1f77b4;"/>
   </g>
   <g id="patch_6">
    <path clip-path="url(#p6b7e68900a)" d="M 65.758863 273.312 
L 67.372005 273.312 
L 67.372005 262.387862 
L 65.758863 262.387862 
z
" style="fill:#1f77b4;"/>
   </g>
   <g id="patch_7">
    <path clip-path="url(#p6b7e68900a)" d="M 67.372005 273.312 
L 68.985147 273.312 
L 68.985147 259.474759 
L 67.372005 259.474759 
z
" style="fill:#1f77b4;"/>
   </g>
   <g id="patch_8">
    <path clip-path="url(#p6b7e68900a)" d="M 68.985147 273.312 
L 70.598288 273.312 
L 70.598288 255.105103 
L 68.985147 255.105103 
z
" style="fill:#1f77b4;"/>
   </g>
   <g id="patch_9">
    <path clip-path="url(#p6b7e68900a)" d="M 70.598288 273.312 
L 72.21143 273.312 
L 72.21143 245.637517 
L 70.598288 245.637517 
z
" style="fill:#1f77b4;"/>
   </g>
   <g id="patch_10">
    <path clip-path="url(#p6b7e68900a)" d="M 72.21143 273.312 
L 73.824572 273.312 
L 73.824572 247.822345 
L 72.21143 247.822345 
z
" style="fill:#1f77b4;"/>
   </g>
   <g id="patch_11">
    <path clip-path="url(#p6b7e68900a)" d="M 73.824572 273.312 
L 75.437714 273.312 
L 75.437714 241.267862 
L 73.824572 241.267862 
z
" style="fill:#1f77b4;"/>
   </g>
   <g id="patch_12">
    <path clip-path="url(#p6b7e68900a)" d="M 75.437714 273.312 
L 77.050855 273.312 
L 77.050855 244.180966 
L 75.437714 244.180966 
z
" style="fill:#1f77b4;"/>
   </g>
   <g id="patch_13">
    <path clip-path="url(#p6b7e68900a)" d="M 77.050855 273.312 
L 78.663997 273.312 
L 78.663997 237.626483 
L 77.050855 237.626483 
z
" style="fill:#1f77b4;"/>
   </g>
   <g id="patch_14">
    <path clip-path="url(#p6b7e68900a)" d="M 78.663997 273.312 
L 80.277139 273.312 
L 80.277139 232.528552 
L 78.663997 232.528552 
z
" style="fill:#1f77b4;"/>
   </g>
   <g id="patch_15">
    <path clip-path="url(#p6b7e68900a)" d="M 80.277139 273.312 
L 81.890281 273.312 
L 81.890281 227.430621 
L 80.277139 227.430621 
z
" style="fill:#1f77b4;"/>
   </g>
   <g id="patch_16">
    <path clip-path="url(#p6b7e68900a)" d="M 81.890281 273.312 
L 83.503422 273.312 
L 83.503422 229.615448 
L 81.890281 229.615448 
z
" style="fill:#1f77b4;"/>
   </g>
   <g id="patch_17">
    <path clip-path="url(#p6b7e68900a)" d="M 83.503422 273.312 
L 85.116564 273.312 
L 85.116564 225.974069 
L 83.503422 225.974069 
z
" style="fill:#1f77b4;"/>
   </g>
   <g id="patch_18">
    <path clip-path="url(#p6b7e68900a)" d="M 85.116564 273.312 
L 86.729706 273.312 
L 86.729706 219.419586 
L 85.116564 219.419586 
z
" style="fill:#1f77b4;"/>
   </g>
   <g id="patch_19">
    <path clip-path="url(#p6b7e68900a)" d="M 86.729706 273.312 
L 88.342848 273.312 
L 88.342848 209.223724 
L 86.729706 209.223724 
z
" style="fill:#1f77b4;"/>
   </g>
   <g id="patch_20">
    <path clip-path="url(#p6b7e68900a)" d="M 88.342848 273.312 
L 89.95599 273.312 
L 89.95599 205.582345 
L 88.342848 205.582345 
z
" style="fill:#1f77b4;"/>
   </g>
   <g id="patch_21">
    <path clip-path="url(#p6b7e68900a)" d="M 89.95599 273.312 
L 91.569131 273.312 
L 91.569131 203.397517 
L 89.95599 203.397517 
z
" style="fill:#1f77b4;"/>
   </g>
   <g id="patch_22">
    <path clip-path="url(#p6b7e68900a)" d="M 91.569131 273.312 
L 93.182273 273.312 
L 93.182273 205.582345 
L 91.569131 205.582345 
z
" style="fill:#1f77b4;"/>
   </g>
   <g id="patch_23">
    <path clip-path="url(#p6b7e68900a)" d="M 93.182273 273.312 
L 94.795415 273.312 
L 94.795415 200.484414 
L 93.182273 200.484414 
z
" style="fill:#1f77b4;"/>
   </g>
   <g id="patch_24">
    <path clip-path="url(#p6b7e68900a)" d="M 94.795415 273.312 
L 96.408557 273.312 
L 96.408557 193.201655 
L 94.795415 193.201655 
z
" style="fill:#1f77b4;"/>
   </g>
   <g id="patch_25">
    <path clip-path="url(#p6b7e68900a)" d="M 96.408557 273.312 
L 98.021698 273.312 
L 98.021698 199.756138 
L 96.408557 199.756138 
z
" style="fill:#1f77b4;"/>
   </g>
   <g id="patch_26">
    <path clip-path="url(#p6b7e68900a)" d="M 98.021698 273.312 
L 99.63484 273.312 
L 99.63484 190.288552 
L 98.021698 190.288552 
z
" style="fill:#1f77b4;"/>
   </g>
   <g id="patch_27">
    <path clip-path="url(#p6b7e68900a)" d="M 99.63484 273.312 
L 101.247982 273.312 
L 101.247982 193.929931 
L 99.63484 193.929931 
z
" style="fill:#1f77b4;"/>
   </g>
   <g id="patch_28">
    <path clip-path="url(#p6b7e68900a)" d="M 101.247982 273.312 
L 102.861124 273.312 
L 102.861124 179.364414 
L 101.247982 179.364414 
z
" style="fill:#1f77b4;"/>
   </g>
   <g id="patch_29">
    <path clip-path="url(#p6b7e68900a)" d="M 102.861124 273.312 
L 104.474265 273.312 
L 104.474265 178.636138 
L 102.861124 178.636138 
z
" style="fill:#1f77b4;"/>
   </g>
   <g id="patch_30">
    <path clip-path="url(#p6b7e68900a)" d="M 104.474265 273.312 
L 106.087407 273.312 
L 106.087407 180.820966 
L 104.474265 180.820966 
z
" style="fill:#1f77b4;"/>
   </g>
   <g id="patch_31">
    <path clip-path="url(#p6b7e68900a)" d="M 106.087407 273.312 
L 107.700549 273.312 
L 107.700549 162.614069 
L 106.087407 162.614069 
z
" style="fill:#1f77b4;"/>
   </g>
   <g id="patch_32">
    <path clip-path="url(#p6b7e68900a)" d="M 107.700549 273.312 
L 109.313691 273.312 
L 109.313691 171.353379 
L 107.700549 171.353379 
z
" style="fill:#1f77b4;"/>
   </g>
   <g id="patch_33">
    <path clip-path="url(#p6b7e68900a)" d="M 109.313691 273.312 
L 110.926833 273.312 
L 110.926833 159.700966 
L 109.313691 159.700966 
z
" style="fill:#1f77b4;"/>
   </g>
   <g id="patch_34">
    <path clip-path="url(#p6b7e68900a)" d="M 110.926833 273.312 
L 112.539974 273.312 
L 112.539974 157.516138 
L 110.926833 157.516138 
z
" style="fill:#1f77b4;"/>
   </g>
   <g id="patch_35">
    <path clip-path="url(#p6b7e68900a)" d="M 112.539974 273.312 
L 114.153116 273.312 
L 114.153116 153.874759 
L 112.539974 153.874759 
z
" style="fill:#1f77b4;"/>
   </g>
   <g id="patch_36">
    <path clip-path="url(#p6b7e68900a)" d="M 114.153116 273.312 
L 115.766258 273.312 
L 115.766258 141.494069 
L 114.153116 141.494069 
z
" style="fill:#1f77b4;"/>
   </g>
   <g id="patch_37">
    <path clip-path="url(#p6b7e68900a)" d="M 115.766258 273.312 
L 117.3794 273.312 
L 117.3794 158.244414 
L 115.766258 158.244414 
z
" style="fill:#1f77b4;"/>
   </g>
   <g id="patch_38">
    <path clip-path="url(#p6b7e68900a)" d="M 117.3794 273.312 
L 118.992541 273.312 
L 118.992541 150.961655 
L 117.3794 150.961655 
z
" style="fill:#1f77b4;"/>
   </g>
   <g id="patch_39">
    <path clip-path="url(#p6b7e68900a)" d="M 118.992541 273.312 
L 120.605683 273.312 
L 120.605683 146.592 
L 118.992541 146.592 
z
" style="fill:#1f77b4;"/>
   </g>
   <g id="patch_40">
    <path clip-path="url(#p6b7e68900a)" d="M 120.605683 273.312 
L 122.218825 273.312 
L 122.218825 139.309241 
L 120.605683 139.309241 
z
" style="fill:#1f77b4;"/>
   </g>
   <g id="patch_41">
    <path clip-path="url(#p6b7e68900a)" d="M 122.218825 273.312 
L 123.831967 273.312 
L 123.831967 165.527172 
L 122.218825 165.527172 
z
" style="fill:#1f77b4;"/>
   </g>
   <g id="patch_42">
    <path clip-path="url(#p6b7e68900a)" d="M 123.831967 273.312 
L 125.445108 273.312 
L 125.445108 127.656828 
L 123.831967 127.656828 
z
" style="fill:#1f77b4;"/>
   </g>
   <g id="patch_43">
    <path clip-path="url(#p6b7e68900a)" d="M 125.445108 273.312 
L 127.05825 273.312 
L 127.05825 124.743724 
L 125.445108 124.743724 
z
" style="fill:#1f77b4;"/>
   </g>
   <g id="patch_44">
    <path clip-path="url(#p6b7e68900a)" d="M 127.05825 273.312 
L 128.671392 273.312 
L 128.671392 144.407172 
L 127.05825 144.407172 
z
" style="fill:#1f77b4;"/>
   </g>
   <g id="patch_45">
    <path clip-path="url(#p6b7e68900a)" d="M 128.671392 273.312 
L 130.284534 273.312 
L 130.284534 141.494069 
L 128.671392 141.494069 
z
" style="fill:#1f77b4;"/>
   </g>
   <g id="patch_46">
    <path clip-path="url(#p6b7e68900a)" d="M 130.284534 273.312 
L 131.897675 273.312 
L 131.897675 132.754759 
L 130.284534 132.754759 
z
" style="fill:#1f77b4;"/>
   </g>
   <g id="patch_47">
    <path clip-path="url(#p6b7e68900a)" d="M 131.897675 273.312 
L 133.510817 273.312 
L 133.510817 124.743724 
L 131.897675 124.743724 
z
" style="fill:#1f77b4;"/>
   </g>
   <g id="patch_48">
    <path clip-path="url(#p6b7e68900a)" d="M 133.510817 273.312 
L 135.123959 273.312 
L 135.123959 127.656828 
L 133.510817 127.656828 
z
" style="fill:#1f77b4;"/>
   </g>
   <g id="patch_49">
    <path clip-path="url(#p6b7e68900a)" d="M 135.123959 273.312 
L 136.737101 273.312 
L 136.737101 140.765793 
L 135.123959 140.765793 
z
" style="fill:#1f77b4;"/>
   </g>
   <g id="patch_50">
    <path clip-path="url(#p6b7e68900a)" d="M 136.737101 273.312 
L 138.350243 273.312 
L 138.350243 126.200276 
L 136.737101 126.200276 
z
" style="fill:#1f77b4;"/>
   </g>
   <g id="patch_51">
    <path clip-path="url(#p6b7e68900a)" d="M 138.350243 273.312 
L 139.963384 273.312 
L 139.963384 115.276138 
L 138.350243 115.276138 
z
" style="fill:#1f77b4;"/>
   </g>
   <g id="patch_52">
    <path clip-path="url(#p6b7e68900a)" d="M 139.963384 273.312 
L 141.576526 273.312 
L 141.576526 118.917517 
L 139.963384 118.917517 
z
" style="fill:#1f77b4;"/>
   </g>
   <g id="patch_53">
    <path clip-path="url(#p6b7e68900a)" d="M 141.576526 273.312 
L 143.189668 273.312 
L 143.189668 99.982345 
L 141.576526 99.982345 
z
" style="fill:#1f77b4;"/>
   </g>
   <g id="patch_54">
    <path clip-path="url(#p6b7e68900a)" d="M 143.189668 273.312 
L 144.80281 273.312 
L 144.80281 108.721655 
L 143.189668 108.721655 
z
" style="fill:#1f77b4;"/>
   </g>
   <g id="patch_55">
    <path clip-path="url(#p6b7e68900a)" d="M 144.80281 273.312 
L 146.415951 273.312 
L 146.415951 102.895448 
L 144.80281 102.895448 
z
" style="fill:#1f77b4;"/>
   </g>
   <g id="patch_56">
    <path clip-path="url(#p6b7e68900a)" d="M 146.415951 273.312 
L 148.029093 273.312 
L 148.029093 91.97131 
L 146.415951 91.97131 
z
" style="fill:#1f77b4;"/>
   </g>
   <g id="patch_57">
    <path clip-path="url(#p6b7e68900a)" d="M 148.029093 273.312 
L 149.642235 273.312 
L 149.642235 97.797517 
L 148.029093 97.797517 
z
" style="fill:#1f77b4;"/>
   </g>
   <g id="patch_58">
    <path clip-path="url(#p6b7e68900a)" d="M 149.642235 273.312 
L 151.255377 273.312 
L 151.255377 95.61269 
L 149.642235 95.61269 
z
" style="fill:#1f77b4;"/>
   </g>
   <g id="patch_59">
    <path clip-path="url(#p6b7e68900a)" d="M 151.255377 273.312 
L 152.868518 273.312 
L 152.868518 96.340966 
L 151.255377 96.340966 
z
" style="fill:#1f77b4;"/>
   </g>
   <g id="patch_60">
    <path clip-path="url(#p6b7e68900a)" d="M 152.868518 273.312 
L 154.48166 273.312 
L 154.48166 89.786483 
L 152.868518 89.786483 
z
" style="fill:#1f77b4;"/>
   </g>
   <g id="patch_61">
    <path clip-path="url(#p6b7e68900a)" d="M 154.48166 273.312 
L 156.094802 273.312 
L 156.094802 81.047172 
L 154.48166 81.047172 
z
" style="fill:#1f77b4;"/>
   </g>
   <g id="patch_62">
    <path clip-path="url(#p6b7e68900a)" d="M 156.094802 273.312 
L 157.707944 273.312 
L 157.707944 70.85131 
L 156.094802 70.85131 
z
" style="fill:#1f77b4;"/>
   </g>
   <g id="patch_63">
    <path clip-path="url(#p6b7e68900a)" d="M 157.707944 273.312 
L 159.321086 273.312 
L 159.321086 68.666483 
L 157.707944 68.666483 
z
" style="fill:#1f77b4;"/>
   </g>
   <g id="patch_64">
    <path clip-path="url(#p6b7e68900a)" d="M 159.321086 273.312 
L 160.934227 273.312 
L 160.934227 69.394759 
L 159.321086 69.394759 
z
" style="fill:#1f77b4;"/>
   </g>
   <g id="patch_65">
    <path clip-path="url(#p6b7e68900a)" d="M 160.934227 273.312 
L 162.547369 273.312 
L 162.547369 80.318897 
L 160.934227 80.318897 
z
" style="fill:#1f77b4;"/>
   </g>
   <g id="patch_66">
    <path clip-path="url(#p6b7e68900a)" d="M 162.547369 273.312 
L 164.160511 273.312 
L 164.160511 89.786483 
L 162.547369 89.786483 
z
" style="fill:#1f77b4;"/>
   </g>
   <g id="patch_67">
    <path clip-path="url(#p6b7e68900a)" d="M 164.160511 273.312 
L 165.773653 273.312 
L 165.773653 47.546483 
L 164.160511 47.546483 
z
" style="fill:#1f77b4;"/>
   </g>
   <g id="patch_68">
    <path clip-path="url(#p6b7e68900a)" d="M 165.773653 273.312 
L 167.386794 273.312 
L 167.386794 70.123034 
L 165.773653 70.123034 
z
" style="fill:#1f77b4;"/>
   </g>
   <g id="patch_69">
    <path clip-path="url(#p6b7e68900a)" d="M 167.386794 273.312 
L 168.999936 273.312 
L 168.999936 84.688552 
L 167.386794 84.688552 
z
" style="fill:#1f77b4;"/>
   </g>
   <g id="patch_70">
    <path clip-path="url(#p6b7e68900a)" d="M 168.999936 273.312 
L 170.613078 273.312 
L 170.613078 64.296828 
L 168.999936 64.296828 
z
" style="fill:#1f77b4;"/>
   </g>
   <g id="patch_71">
    <path clip-path="url(#p6b7e68900a)" d="M 170.613078 273.312 
L 172.22622 273.312 
L 172.22622 68.666483 
L 170.613078 68.666483 
z
" style="fill:#1f77b4;"/>
   </g>
   <g id="patch_72">
    <path clip-path="url(#p6b7e68900a)" d="M 172.22622 273.312 
L 173.839361 273.312 
L 173.839361 79.590621 
L 172.22622 79.590621 
z
" style="fill:#1f77b4;"/>
   </g>
   <g id="patch_73">
    <path clip-path="url(#p6b7e68900a)" d="M 173.839361 273.312 
L 175.452503 273.312 
L 175.452503 70.85131 
L 173.839361 70.85131 
z
" style="fill:#1f77b4;"/>
   </g>
   <g id="patch_74">
    <path clip-path="url(#p6b7e68900a)" d="M 175.452503 273.312 
L 177.065645 273.312 
L 177.065645 79.590621 
L 175.452503 79.590621 
z
" style="fill:#1f77b4;"/>
   </g>
   <g id="patch_75">
    <path clip-path="url(#p6b7e68900a)" d="M 177.065645 273.312 
L 178.678787 273.312 
L 178.678787 62.112 
L 177.065645 62.112 
z
" style="fill:#1f77b4;"/>
   </g>
   <g id="patch_76">
    <path clip-path="url(#p6b7e68900a)" d="M 178.678787 273.312 
L 180.291929 273.312 
L 180.291929 73.764414 
L 178.678787 73.764414 
z
" style="fill:#1f77b4;"/>
   </g>
   <g id="patch_77">
    <path clip-path="url(#p6b7e68900a)" d="M 180.291929 273.312 
L 181.90507 273.312 
L 181.90507 62.840276 
L 180.291929 62.840276 
z
" style="fill:#1f77b4;"/>
   </g>
   <g id="patch_78">
    <path clip-path="url(#p6b7e68900a)" d="M 181.90507 273.312 
L 183.518212 273.312 
L 183.518212 70.123034 
L 181.90507 70.123034 
z
" style="fill:#1f77b4;"/>
   </g>
   <g id="patch_79">
    <path clip-path="url(#p6b7e68900a)" d="M 183.518212 273.312 
L 185.131354 273.312 
L 185.131354 62.840276 
L 183.518212 62.840276 
z
" style="fill:#1f77b4;"/>
   </g>
   <g id="patch_80">
    <path clip-path="url(#p6b7e68900a)" d="M 185.131354 273.312 
L 186.744496 273.312 
L 186.744496 65.025103 
L 185.131354 65.025103 
z
" style="fill:#1f77b4;"/>
   </g>
   <g id="patch_81">
    <path clip-path="url(#p6b7e68900a)" d="M 186.744496 273.312 
L 188.357637 273.312 
L 188.357637 63.568552 
L 186.744496 63.568552 
z
" style="fill:#1f77b4;"/>
   </g>
   <g id="patch_82">
    <path clip-path="url(#p6b7e68900a)" d="M 188.357637 273.312 
L 189.970779 273.312 
L 189.970779 62.840276 
L 188.357637 62.840276 
z
" style="fill:#1f77b4;"/>
   </g>
   <g id="patch_83">
    <path clip-path="url(#p6b7e68900a)" d="M 189.970779 273.312 
L 191.583921 273.312 
L 191.583921 48.274759 
L 189.970779 48.274759 
z
" style="fill:#1f77b4;"/>
   </g>
   <g id="patch_84">
    <path clip-path="url(#p6b7e68900a)" d="M 191.583921 273.312 
L 193.197063 273.312 
L 193.197063 58.470621 
L 191.583921 58.470621 
z
" style="fill:#1f77b4;"/>
   </g>
   <g id="patch_85">
    <path clip-path="url(#p6b7e68900a)" d="M 193.197063 273.312 
L 194.810204 273.312 
L 194.810204 29.339586 
L 193.197063 29.339586 
z
" style="fill:#1f77b4;"/>
   </g>
   <g id="patch_86">
    <path clip-path="url(#p6b7e68900a)" d="M 194.810204 273.312 
L 196.423346 273.312 
L 196.423346 38.078897 
L 194.810204 38.078897 
z
" style="fill:#1f77b4;"/>
   </g>
   <g id="patch_87">
    <path clip-path="url(#p6b7e68900a)" d="M 196.423346 273.312 
L 198.036488 273.312 
L 198.036488 48.274759 
L 196.423346 48.274759 
z
" style="fill:#1f77b4;"/>
   </g>
   <g id="patch_88">
    <path clip-path="url(#p6b7e68900a)" d="M 198.036488 273.312 
L 199.64963 273.312 
L 199.64963 33.709241 
L 198.036488 33.709241 
z
" style="fill:#1f77b4;"/>
   </g>
   <g id="patch_89">
    <path clip-path="url(#p6b7e68900a)" d="M 199.64963 273.312 
L 201.262771 273.312 
L 201.262771 49.003034 
L 199.64963 49.003034 
z
" style="fill:#1f77b4;"/>
   </g>
   <g id="patch_90">
    <path clip-path="url(#p6b7e68900a)" d="M 201.262771 273.312 
L 202.875913 273.312 
L 202.875913 19.872 
L 201.262771 19.872 
z
" style="fill:#1f77b4;"/>
   </g>
   <g id="patch_91">
    <path clip-path="url(#p6b7e68900a)" d="M 202.875913 273.312 
L 204.489055 273.312 
L 204.489055 66.481655 
L 202.875913 66.481655 
z
" style="fill:#1f77b4;"/>
   </g>
   <g id="patch_92">
    <path clip-path="url(#p6b7e68900a)" d="M 204.489055 273.312 
L 206.102197 273.312 
L 206.102197 30.067862 
L 204.489055 30.067862 
z
" style="fill:#1f77b4;"/>
   </g>
   <g id="patch_93">
    <path clip-path="url(#p6b7e68900a)" d="M 206.102197 273.312 
L 207.715339 273.312 
L 207.715339 37.350621 
L 206.102197 37.350621 
z
" style="fill:#1f77b4;"/>
   </g>
   <g id="patch_94">
    <path clip-path="url(#p6b7e68900a)" d="M 207.715339 273.312 
L 209.32848 273.312 
L 209.32848 53.37269 
L 207.715339 53.37269 
z
" style="fill:#1f77b4;"/>
   </g>
   <g id="patch_95">
    <path clip-path="url(#p6b7e68900a)" d="M 209.32848 273.312 
L 210.941622 273.312 
L 210.941622 48.274759 
L 209.32848 48.274759 
z
" style="fill:#1f77b4;"/>
   </g>
   <g id="patch_96">
    <path clip-path="url(#p6b7e68900a)" d="M 210.941622 273.312 
L 212.554764 273.312 
L 212.554764 64.296828 
L 210.941622 64.296828 
z
" style="fill:#1f77b4;"/>
   </g>
   <g id="patch_97">
    <path clip-path="url(#p6b7e68900a)" d="M 212.554764 273.312 
L 214.167906 273.312 
L 214.167906 32.980966 
L 212.554764 32.980966 
z
" style="fill:#1f77b4;"/>
   </g>
   <g id="patch_98">
    <path clip-path="url(#p6b7e68900a)" d="M 214.167906 273.312 
L 215.781047 273.312 
L 215.781047 56.285793 
L 214.167906 56.285793 
z
" style="fill:#1f77b4;"/>
   </g>
   <g id="patch_99">
    <path clip-path="url(#p6b7e68900a)" d="M 215.781047 273.312 
L 217.394189 273.312 
L 217.394189 62.840276 
L 215.781047 62.840276 
z
" style="fill:#1f77b4;"/>
   </g>
   <g id="patch_100">
    <path clip-path="url(#p6b7e68900a)" d="M 217.394189 273.312 
L 219.007331 273.312 
L 219.007331 43.905103 
L 217.394189 43.905103 
z
" style="fill:#1f77b4;"/>
   </g>
   <g id="patch_101">
    <path clip-path="url(#p6b7e68900a)" d="M 219.007331 273.312 
L 220.620473 273.312 
L 220.620473 52.644414 
L 219.007331 52.644414 
z
" style="fill:#1f77b4;"/>
   </g>
   <g id="patch_102">
    <path clip-path="url(#p6b7e68900a)" d="M 220.620473 273.312 
L 222.233614 273.312 
L 222.233614 32.980966 
L 220.620473 32.980966 
z
" style="fill:#1f77b4;"/>
   </g>
   <g id="patch_103">
    <path clip-path="url(#p6b7e68900a)" d="M 222.233614 273.312 
L 223.846756 273.312 
L 223.846756 42.448552 
L 222.233614 42.448552 
z
" style="fill:#1f77b4;"/>
   </g>
   <g id="patch_104">
    <path clip-path="url(#p6b7e68900a)" d="M 223.846756 273.312 
L 225.459898 273.312 
L 225.459898 65.753379 
L 223.846756 65.753379 
z
" style="fill:#1f77b4;"/>
   </g>
   <g id="patch_105">
    <path clip-path="url(#p6b7e68900a)" d="M 225.459898 273.312 
L 227.07304 273.312 
L 227.07304 40.992 
L 225.459898 40.992 
z
" style="fill:#1f77b4;"/>
   </g>
   <g id="patch_106">
    <path clip-path="url(#p6b7e68900a)" d="M 227.07304 273.312 
L 228.686182 273.312 
L 228.686182 56.285793 
L 227.07304 56.285793 
z
" style="fill:#1f77b4;"/>
   </g>
   <g id="patch_107">
    <path clip-path="url(#p6b7e68900a)" d="M 228.686182 273.312 
L 230.299323 273.312 
L 230.299323 60.655448 
L 228.686182 60.655448 
z
" style="fill:#1f77b4;"/>
   </g>
   <g id="patch_108">
    <path clip-path="url(#p6b7e68900a)" d="M 230.299323 273.312 
L 231.912465 273.312 
L 231.912465 41.720276 
L 230.299323 41.720276 
z
" style="fill:#1f77b4;"/>
   </g>
   <g id="patch_109">
    <path clip-path="url(#p6b7e68900a)" d="M 231.912465 273.312 
L 233.525607 273.312 
L 233.525607 47.546483 
L 231.912465 47.546483 
z
" style="fill:#1f77b4;"/>
   </g>
   <g id="patch_110">
    <path clip-path="url(#p6b7e68900a)" d="M 233.525607 273.312 
L 235.138749 273.312 
L 235.138749 59.927172 
L 233.525607 59.927172 
z
" style="fill:#1f77b4;"/>
   </g>
   <g id="patch_111">
    <path clip-path="url(#p6b7e68900a)" d="M 235.138749 273.312 
L 236.75189 273.312 
L 236.75189 67.209931 
L 235.138749 67.209931 
z
" style="fill:#1f77b4;"/>
   </g>
   <g id="patch_112">
    <path clip-path="url(#p6b7e68900a)" d="M 236.75189 273.312 
L 238.365032 273.312 
L 238.365032 71.579586 
L 236.75189 71.579586 
z
" style="fill:#1f77b4;"/>
   </g>
   <g id="patch_113">
    <path clip-path="url(#p6b7e68900a)" d="M 238.365032 273.312 
L 239.978174 273.312 
L 239.978174 52.644414 
L 238.365032 52.644414 
z
" style="fill:#1f77b4;"/>
   </g>
   <g id="patch_114">
    <path clip-path="url(#p6b7e68900a)" d="M 239.978174 273.312 
L 241.591316 273.312 
L 241.591316 58.470621 
L 239.978174 58.470621 
z
" style="fill:#1f77b4;"/>
   </g>
   <g id="patch_115">
    <path clip-path="url(#p6b7e68900a)" d="M 241.591316 273.312 
L 243.204457 273.312 
L 243.204457 44.633379 
L 241.591316 44.633379 
z
" style="fill:#1f77b4;"/>
   </g>
   <g id="patch_116">
    <path clip-path="url(#p6b7e68900a)" d="M 243.204457 273.312 
L 244.817599 273.312 
L 244.817599 54.100966 
L 243.204457 54.100966 
z
" style="fill:#1f77b4;"/>
   </g>
   <g id="patch_117">
    <path clip-path="url(#p6b7e68900a)" d="M 244.817599 273.312 
L 246.430741 273.312 
L 246.430741 51.916138 
L 244.817599 51.916138 
z
" style="fill:#1f77b4;"/>
   </g>
   <g id="patch_118">
    <path clip-path="url(#p6b7e68900a)" d="M 246.430741 273.312 
L 248.043883 273.312 
L 248.043883 67.209931 
L 246.430741 67.209931 
z
" style="fill:#1f77b4;"/>
   </g>
   <g id="patch_119">
    <path clip-path="url(#p6b7e68900a)" d="M 248.043883 273.312 
L 249.657024 273.312 
L 249.657024 40.263724 
L 248.043883 40.263724 
z
" style="fill:#1f77b4;"/>
   </g>
   <g id="patch_120">
    <path clip-path="url(#p6b7e68900a)" d="M 249.657024 273.312 
L 251.270166 273.312 
L 251.270166 81.775448 
L 249.657024 81.775448 
z
" style="fill:#1f77b4;"/>
   </g>
   <g id="patch_121">
    <path clip-path="url(#p6b7e68900a)" d="M 251.270166 273.312 
L 252.883308 273.312 
L 252.883308 76.677517 
L 251.270166 76.677517 
z
" style="fill:#1f77b4;"/>
   </g>
   <g id="patch_122">
    <path clip-path="url(#p6b7e68900a)" d="M 252.883308 273.312 
L 254.49645 273.312 
L 254.49645 76.677517 
L 252.883308 76.677517 
z
" style="fill:#1f77b4;"/>
   </g>
   <g id="patch_123">
    <path clip-path="url(#p6b7e68900a)" d="M 254.49645 273.312 
L 256.109592 273.312 
L 256.109592 54.829241 
L 254.49645 54.829241 
z
" style="fill:#1f77b4;"/>
   </g>
   <g id="patch_124">
    <path clip-path="url(#p6b7e68900a)" d="M 256.109592 273.312 
L 257.722733 273.312 
L 257.722733 70.123034 
L 256.109592 70.123034 
z
" style="fill:#1f77b4;"/>
   </g>
   <g id="patch_125">
    <path clip-path="url(#p6b7e68900a)" d="M 257.722733 273.312 
L 259.335875 273.312 
L 259.335875 76.677517 
L 257.722733 76.677517 
z
" style="fill:#1f77b4;"/>
   </g>
   <g id="patch_126">
    <path clip-path="url(#p6b7e68900a)" d="M 259.335875 273.312 
L 260.949017 273.312 
L 260.949017 61.383724 
L 259.335875 61.383724 
z
" style="fill:#1f77b4;"/>
   </g>
   <g id="patch_127">
    <path clip-path="url(#p6b7e68900a)" d="M 260.949017 273.312 
L 262.562159 273.312 
L 262.562159 61.383724 
L 260.949017 61.383724 
z
" style="fill:#1f77b4;"/>
   </g>
   <g id="patch_128">
    <path clip-path="url(#p6b7e68900a)" d="M 262.562159 273.312 
L 264.1753 273.312 
L 264.1753 67.209931 
L 262.562159 67.209931 
z
" style="fill:#1f77b4;"/>
   </g>
   <g id="patch_129">
    <path clip-path="url(#p6b7e68900a)" d="M 264.1753 273.312 
L 265.788442 273.312 
L 265.788442 65.753379 
L 264.1753 65.753379 
z
" style="fill:#1f77b4;"/>
   </g>
   <g id="patch_130">
    <path clip-path="url(#p6b7e68900a)" d="M 265.788442 273.312 
L 267.401584 273.312 
L 267.401584 66.481655 
L 265.788442 66.481655 
z
" style="fill:#1f77b4;"/>
   </g>
   <g id="patch_131">
    <path clip-path="url(#p6b7e68900a)" d="M 267.401584 273.312 
L 269.014726 273.312 
L 269.014726 65.753379 
L 267.401584 65.753379 
z
" style="fill:#1f77b4;"/>
   </g>
   <g id="patch_132">
    <path clip-path="url(#p6b7e68900a)" d="M 269.014726 273.312 
L 270.627867 273.312 
L 270.627867 80.318897 
L 269.014726 80.318897 
z
" style="fill:#1f77b4;"/>
   </g>
   <g id="patch_133">
    <path clip-path="url(#p6b7e68900a)" d="M 270.627867 273.312 
L 272.241009 273.312 
L 272.241009 59.927172 
L 270.627867 59.927172 
z
" style="fill:#1f77b4;"/>
   </g>
   <g id="patch_134">
    <path clip-path="url(#p6b7e68900a)" d="M 272.241009 273.312 
L 273.854151 273.312 
L 273.854151 44.633379 
L 272.241009 44.633379 
z
" style="fill:#1f77b4;"/>
   </g>
   <g id="patch_135">
    <path clip-path="url(#p6b7e68900a)" d="M 273.854151 273.312 
L 275.467293 273.312 
L 275.467293 73.764414 
L 273.854151 73.764414 
z
" style="fill:#1f77b4;"/>
   </g>
   <g id="patch_136">
    <path clip-path="url(#p6b7e68900a)" d="M 275.467293 273.312 
L 277.080435 273.312 
L 277.080435 86.145103 
L 275.467293 86.145103 
z
" style="fill:#1f77b4;"/>
   </g>
   <g id="patch_137">
    <path clip-path="url(#p6b7e68900a)" d="M 277.080435 273.312 
L 278.693576 273.312 
L 278.693576 60.655448 
L 277.080435 60.655448 
z
" style="fill:#1f77b4;"/>
   </g>
   <g id="patch_138">
    <path clip-path="url(#p6b7e68900a)" d="M 278.693576 273.312 
L 280.306718 273.312 
L 280.306718 86.145103 
L 278.693576 86.145103 
z
" style="fill:#1f77b4;"/>
   </g>
   <g id="patch_139">
    <path clip-path="url(#p6b7e68900a)" d="M 280.306718 273.312 
L 281.91986 273.312 
L 281.91986 107.265103 
L 280.306718 107.265103 
z
" style="fill:#1f77b4;"/>
   </g>
   <g id="patch_140">
    <path clip-path="url(#p6b7e68900a)" d="M 281.91986 273.312 
L 283.533002 273.312 
L 283.533002 91.243034 
L 281.91986 91.243034 
z
" style="fill:#1f77b4;"/>
   </g>
   <g id="patch_141">
    <path clip-path="url(#p6b7e68900a)" d="M 283.533002 273.312 
L 285.146143 273.312 
L 285.146143 75.949241 
L 283.533002 75.949241 
z
" style="fill:#1f77b4;"/>
   </g>
   <g id="patch_142">
    <path clip-path="url(#p6b7e68900a)" d="M 285.146143 273.312 
L 286.759285 273.312 
L 286.759285 89.058207 
L 285.146143 89.058207 
z
" style="fill:#1f77b4;"/>
   </g>
   <g id="patch_143">
    <path clip-path="url(#p6b7e68900a)" d="M 286.759285 273.312 
L 288.372427 273.312 
L 288.372427 85.416828 
L 286.759285 85.416828 
z
" style="fill:#1f77b4;"/>
   </g>
   <g id="patch_144">
    <path clip-path="url(#p6b7e68900a)" d="M 288.372427 273.312 
L 289.985569 273.312 
L 289.985569 107.265103 
L 288.372427 107.265103 
z
" style="fill:#1f77b4;"/>
   </g>
   <g id="patch_145">
    <path clip-path="url(#p6b7e68900a)" d="M 289.985569 273.312 
L 291.59871 273.312 
L 291.59871 97.069241 
L 289.985569 97.069241 
z
" style="fill:#1f77b4;"/>
   </g>
   <g id="patch_146">
    <path clip-path="url(#p6b7e68900a)" d="M 291.59871 273.312 
L 293.211852 273.312 
L 293.211852 99.982345 
L 291.59871 99.982345 
z
" style="fill:#1f77b4;"/>
   </g>
   <g id="patch_147">
    <path clip-path="url(#p6b7e68900a)" d="M 293.211852 273.312 
L 294.824994 273.312 
L 294.824994 89.058207 
L 293.211852 89.058207 
z
" style="fill:#1f77b4;"/>
   </g>
   <g id="patch_148">
    <path clip-path="url(#p6b7e68900a)" d="M 294.824994 273.312 
L 296.438136 273.312 
L 296.438136 100.710621 
L 294.824994 100.710621 
z
" style="fill:#1f77b4;"/>
   </g>
   <g id="patch_149">
    <path clip-path="url(#p6b7e68900a)" d="M 296.438136 273.312 
L 298.051278 273.312 
L 298.051278 98.525793 
L 296.438136 98.525793 
z
" style="fill:#1f77b4;"/>
   </g>
   <g id="patch_150">
    <path clip-path="url(#p6b7e68900a)" d="M 298.051278 273.312 
L 299.664419 273.312 
L 299.664419 102.895448 
L 298.051278 102.895448 
z
" style="fill:#1f77b4;"/>
   </g>
   <g id="patch_151">
    <path clip-path="url(#p6b7e68900a)" d="M 299.664419 273.312 
L 301.277561 273.312 
L 301.277561 117.460966 
L 299.664419 117.460966 
z
" style="fill:#1f77b4;"/>
   </g>
   <g id="patch_152">
    <path clip-path="url(#p6b7e68900a)" d="M 301.277561 273.312 
L 302.890703 273.312 
L 302.890703 94.156138 
L 301.277561 94.156138 
z
" style="fill:#1f77b4;"/>
   </g>
   <g id="patch_153">
    <path clip-path="url(#p6b7e68900a)" d="M 302.890703 273.312 
L 304.503845 273.312 
L 304.503845 112.363034 
L 302.890703 112.363034 
z
" style="fill:#1f77b4;"/>
   </g>
   <g id="patch_154">
    <path clip-path="url(#p6b7e68900a)" d="M 304.503845 273.312 
L 306.116986 273.312 
L 306.116986 119.645793 
L 304.503845 119.645793 
z
" style="fill:#1f77b4;"/>
   </g>
   <g id="patch_155">
    <path clip-path="url(#p6b7e68900a)" d="M 306.116986 273.312 
L 307.730128 273.312 
L 307.730128 113.09131 
L 306.116986 113.09131 
z
" style="fill:#1f77b4;"/>
   </g>
   <g id="patch_156">
    <path clip-path="url(#p6b7e68900a)" d="M 307.730128 273.312 
L 309.34327 273.312 
L 309.34327 136.396138 
L 307.730128 136.396138 
z
" style="fill:#1f77b4;"/>
   </g>
   <g id="patch_157">
    <path clip-path="url(#p6b7e68900a)" d="M 309.34327 273.312 
L 310.956412 273.312 
L 310.956412 128.385103 
L 309.34327 128.385103 
z
" style="fill:#1f77b4;"/>
   </g>
   <g id="patch_158">
    <path clip-path="url(#p6b7e68900a)" d="M 310.956412 273.312 
L 312.569553 273.312 
L 312.569553 107.265103 
L 310.956412 107.265103 
z
" style="fill:#1f77b4;"/>
   </g>
   <g id="patch_159">
    <path clip-path="url(#p6b7e68900a)" d="M 312.569553 273.312 
L 314.182695 273.312 
L 314.182695 131.298207 
L 312.569553 131.298207 
z
" style="fill:#1f77b4;"/>
   </g>
   <g id="patch_160">
    <path clip-path="url(#p6b7e68900a)" d="M 314.182695 273.312 
L 315.795837 273.312 
L 315.795837 132.754759 
L 314.182695 132.754759 
z
" style="fill:#1f77b4;"/>
   </g>
   <g id="patch_161">
    <path clip-path="url(#p6b7e68900a)" d="M 315.795837 273.312 
L 317.408979 273.312 
L 317.408979 133.483034 
L 315.795837 133.483034 
z
" style="fill:#1f77b4;"/>
   </g>
   <g id="patch_162">
    <path clip-path="url(#p6b7e68900a)" d="M 317.408979 273.312 
L 319.02212 273.312 
L 319.02212 128.385103 
L 317.408979 128.385103 
z
" style="fill:#1f77b4;"/>
   </g>
   <g id="patch_163">
    <path clip-path="url(#p6b7e68900a)" d="M 319.02212 273.312 
L 320.635262 273.312 
L 320.635262 134.21131 
L 319.02212 134.21131 
z
" style="fill:#1f77b4;"/>
   </g>
   <g id="patch_164">
    <path clip-path="url(#p6b7e68900a)" d="M 320.635262 273.312 
L 322.248404 273.312 
L 322.248404 148.776828 
L 320.635262 148.776828 
z
" style="fill:#1f77b4;"/>
   </g>
   <g id="patch_165">
    <path clip-path="url(#p6b7e68900a)" d="M 322.248404 273.312 
L 323.861546 273.312 
L 323.861546 134.939586 
L 322.248404 134.939586 
z
" style="fill:#1f77b4;"/>
   </g>
   <g id="patch_166">
    <path clip-path="url(#p6b7e68900a)" d="M 323.861546 273.312 
L 325.474688 273.312 
L 325.474688 141.494069 
L 323.861546 141.494069 
z
" style="fill:#1f77b4;"/>
   </g>
   <g id="patch_167">
    <path clip-path="url(#p6b7e68900a)" d="M 325.474688 273.312 
L 327.087829 273.312 
L 327.087829 148.776828 
L 325.474688 148.776828 
z
" style="fill:#1f77b4;"/>
   </g>
   <g id="patch_168">
    <path clip-path="url(#p6b7e68900a)" d="M 327.087829 273.312 
L 328.700971 273.312 
L 328.700971 160.429241 
L 327.087829 160.429241 
z
" style="fill:#1f77b4;"/>
   </g>
   <g id="patch_169">
    <path clip-path="url(#p6b7e68900a)" d="M 328.700971 273.312 
L 330.314113 273.312 
L 330.314113 154.603034 
L 328.700971 154.603034 
z
" style="fill:#1f77b4;"/>
   </g>
   <g id="patch_170">
    <path clip-path="url(#p6b7e68900a)" d="M 330.314113 273.312 
L 331.927255 273.312 
L 331.927255 167.712 
L 330.314113 167.712 
z
" style="fill:#1f77b4;"/>
   </g>
   <g id="patch_171">
    <path clip-path="url(#p6b7e68900a)" d="M 331.927255 273.312 
L 333.540396 273.312 
L 333.540396 169.168552 
L 331.927255 169.168552 
z
" style="fill:#1f77b4;"/>
   </g>
   <g id="patch_172">
    <path clip-path="url(#p6b7e68900a)" d="M 333.540396 273.312 
L 335.153538 273.312 
L 335.153538 163.342345 
L 333.540396 163.342345 
z
" style="fill:#1f77b4;"/>
   </g>
   <g id="patch_173">
    <path clip-path="url(#p6b7e68900a)" d="M 335.153538 273.312 
L 336.76668 273.312 
L 336.76668 183.005793 
L 335.153538 183.005793 
z
" style="fill:#1f77b4;"/>
   </g>
   <g id="patch_174">
    <path clip-path="url(#p6b7e68900a)" d="M 336.76668 273.312 
L 338.379822 273.312 
L 338.379822 155.33131 
L 336.76668 155.33131 
z
" style="fill:#1f77b4;"/>
   </g>
   <g id="patch_175">
    <path clip-path="url(#p6b7e68900a)" d="M 338.379822 273.312 
L 339.992963 273.312 
L 339.992963 169.168552 
L 338.379822 169.168552 
z
" style="fill:#1f77b4;"/>
   </g>
   <g id="patch_176">
    <path clip-path="url(#p6b7e68900a)" d="M 339.992963 273.312 
L 341.606105 273.312 
L 341.606105 188.103724 
L 339.992963 188.103724 
z
" style="fill:#1f77b4;"/>
   </g>
   <g id="patch_177">
    <path clip-path="url(#p6b7e68900a)" d="M 341.606105 273.312 
L 343.219247 273.312 
L 343.219247 176.45131 
L 341.606105 176.45131 
z
" style="fill:#1f77b4;"/>
   </g>
   <g id="patch_178">
    <path clip-path="url(#p6b7e68900a)" d="M 343.219247 273.312 
L 344.832389 273.312 
L 344.832389 191.016828 
L 343.219247 191.016828 
z
" style="fill:#1f77b4;"/>
   </g>
   <g id="patch_179">
    <path clip-path="url(#p6b7e68900a)" d="M 344.832389 273.312 
L 346.445531 273.312 
L 346.445531 199.027862 
L 344.832389 199.027862 
z
" style="fill:#1f77b4;"/>
   </g>
   <g id="patch_180">
    <path clip-path="url(#p6b7e68900a)" d="M 346.445531 273.312 
L 348.058672 273.312 
L 348.058672 187.375448 
L 346.445531 187.375448 
z
" style="fill:#1f77b4;"/>
   </g>
   <g id="patch_181">
    <path clip-path="url(#p6b7e68900a)" d="M 348.058672 273.312 
L 349.671814 273.312 
L 349.671814 180.09269 
L 348.058672 180.09269 
z
" style="fill:#1f77b4;"/>
   </g>
   <g id="patch_182">
    <path clip-path="url(#p6b7e68900a)" d="M 349.671814 273.312 
L 351.284956 273.312 
L 351.284956 211.408552 
L 349.671814 211.408552 
z
" style="fill:#1f77b4;"/>
   </g>
   <g id="patch_183">
    <path clip-path="url(#p6b7e68900a)" d="M 351.284956 273.312 
L 352.898098 273.312 
L 352.898098 205.582345 
L 351.284956 205.582345 
z
" style="fill:#1f77b4;"/>
   </g>
   <g id="patch_184">
    <path clip-path="url(#p6b7e68900a)" d="M 352.898098 273.312 
L 354.511239 273.312 
L 354.511239 210.680276 
L 352.898098 210.680276 
z
" style="fill:#1f77b4;"/>
   </g>
   <g id="patch_185">
    <path clip-path="url(#p6b7e68900a)" d="M 354.511239 273.312 
L 356.124381 273.312 
L 356.124381 215.778207 
L 354.511239 215.778207 
z
" style="fill:#1f77b4;"/>
   </g>
   <g id="patch_186">
    <path clip-path="url(#p6b7e68900a)" d="M 356.124381 273.312 
L 357.737523 273.312 
L 357.737523 216.506483 
L 356.124381 216.506483 
z
" style="fill:#1f77b4;"/>
   </g>
   <g id="patch_187">
    <path clip-path="url(#p6b7e68900a)" d="M 357.737523 273.312 
L 359.350665 273.312 
L 359.350665 206.310621 
L 357.737523 206.310621 
z
" style="fill:#1f77b4;"/>
   </g>
   <g id="patch_188">
    <path clip-path="url(#p6b7e68900a)" d="M 359.350665 273.312 
L 360.963806 273.312 
L 360.963806 225.245793 
L 359.350665 225.245793 
z
" style="fill:#1f77b4;"/>
   </g>
   <g id="patch_189">
    <path clip-path="url(#p6b7e68900a)" d="M 360.963806 273.312 
L 362.576948 273.312 
L 362.576948 223.789241 
L 360.963806 223.789241 
z
" style="fill:#1f77b4;"/>
   </g>
   <g id="patch_190">
    <path clip-path="url(#p6b7e68900a)" d="M 362.576948 273.312 
L 364.19009 273.312 
L 364.19009 233.985103 
L 362.576948 233.985103 
z
" style="fill:#1f77b4;"/>
   </g>
   <g id="patch_191">
    <path clip-path="url(#p6b7e68900a)" d="M 364.19009 273.312 
L 365.803232 273.312 
L 365.803232 218.69131 
L 364.19009 218.69131 
z
" style="fill:#1f77b4;"/>
   </g>
   <g id="patch_192">
    <path clip-path="url(#p6b7e68900a)" d="M 365.803232 273.312 
L 367.416374 273.312 
L 367.416374 224.517517 
L 365.803232 224.517517 
z
" style="fill:#1f77b4;"/>
   </g>
   <g id="patch_193">
    <path clip-path="url(#p6b7e68900a)" d="M 367.416374 273.312 
L 369.029515 273.312 
L 369.029515 236.169931 
L 367.416374 236.169931 
z
" style="fill:#1f77b4;"/>
   </g>
   <g id="patch_194">
    <path clip-path="url(#p6b7e68900a)" d="M 369.029515 273.312 
L 370.642657 273.312 
L 370.642657 236.169931 
L 369.029515 236.169931 
z
" style="fill:#1f77b4;"/>
   </g>
   <g id="patch_195">
    <path clip-path="url(#p6b7e68900a)" d="M 370.642657 273.312 
L 372.255799 273.312 
L 372.255799 244.180966 
L 370.642657 244.180966 
z
" style="fill:#1f77b4;"/>
   </g>
   <g id="patch_196">
    <path clip-path="url(#p6b7e68900a)" d="M 372.255799 273.312 
L 373.868941 273.312 
L 373.868941 246.365793 
L 372.255799 246.365793 
z
" style="fill:#1f77b4;"/>
   </g>
   <g id="patch_197">
    <path clip-path="url(#p6b7e68900a)" d="M 373.868941 273.312 
L 375.482082 273.312 
L 375.482082 249.278897 
L 373.868941 249.278897 
z
" style="fill:#1f77b4;"/>
   </g>
   <g id="patch_198">
    <path clip-path="url(#p6b7e68900a)" d="M 375.482082 273.312 
L 377.095224 273.312 
L 377.095224 252.920276 
L 375.482082 252.920276 
z
" style="fill:#1f77b4;"/>
   </g>
   <g id="patch_199">
    <path clip-path="url(#p6b7e68900a)" d="M 377.095224 273.312 
L 378.708366 273.312 
L 378.708366 255.105103 
L 377.095224 255.105103 
z
" style="fill:#1f77b4;"/>
   </g>
   <g id="patch_200">
    <path clip-path="url(#p6b7e68900a)" d="M 378.708366 273.312 
L 380.321508 273.312 
L 380.321508 260.93131 
L 378.708366 260.93131 
z
" style="fill:#1f77b4;"/>
   </g>
   <g id="patch_201">
    <path clip-path="url(#p6b7e68900a)" d="M 380.321508 273.312 
L 381.934649 273.312 
L 381.934649 266.029241 
L 380.321508 266.029241 
z
" style="fill:#1f77b4;"/>
   </g>
   <g id="patch_202">
    <path clip-path="url(#p6b7e68900a)" d="M 381.934649 273.312 
L 383.547791 273.312 
L 383.547791 266.757517 
L 381.934649 266.757517 
z
" style="fill:#1f77b4;"/>
   </g>
   <g id="matplotlib.axis_1">
    <g id="xtick_1">
     <g id="line2d_1">
      <defs>
       <path d="M 0 0 
L 0 3.5 
" id="md1446c1a26" style="stroke:#000000;stroke-width:0.8;"/>
      </defs>
      <g>
       <use style="stroke:#000000;stroke-width:0.8;" x="60.013977" xlink:href="#md1446c1a26" y="273.312"/>
      </g>
     </g>
     <g id="text_1">
      <!-- 0.0 -->
      <g transform="translate(52.062415 287.910437)scale(0.1 -0.1)">
       <defs>
        <path d="M 2034 4250 
Q 1547 4250 1301 3770 
Q 1056 3291 1056 2328 
Q 1056 1369 1301 889 
Q 1547 409 2034 409 
Q 2525 409 2770 889 
Q 3016 1369 3016 2328 
Q 3016 3291 2770 3770 
Q 2525 4250 2034 4250 
z
M 2034 4750 
Q 2819 4750 3233 4129 
Q 3647 3509 3647 2328 
Q 3647 1150 3233 529 
Q 2819 -91 2034 -91 
Q 1250 -91 836 529 
Q 422 1150 422 2328 
Q 422 3509 836 4129 
Q 1250 4750 2034 4750 
z
" id="DejaVuSans-30" transform="scale(0.015625)"/>
        <path d="M 684 794 
L 1344 794 
L 1344 0 
L 684 0 
L 684 794 
z
" id="DejaVuSans-2e" transform="scale(0.015625)"/>
       </defs>
       <use xlink:href="#DejaVuSans-30"/>
       <use x="63.623047" xlink:href="#DejaVuSans-2e"/>
       <use x="95.410156" xlink:href="#DejaVuSans-30"/>
      </g>
     </g>
    </g>
    <g id="xtick_2">
     <g id="line2d_2">
      <g>
       <use style="stroke:#000000;stroke-width:0.8;" x="101.350278" xlink:href="#md1446c1a26" y="273.312"/>
      </g>
     </g>
     <g id="text_2">
      <!-- 0.2 -->
      <g transform="translate(93.398715 287.910437)scale(0.1 -0.1)">
       <defs>
        <path d="M 1228 531 
L 3431 531 
L 3431 0 
L 469 0 
L 469 531 
Q 828 903 1448 1529 
Q 2069 2156 2228 2338 
Q 2531 2678 2651 2914 
Q 2772 3150 2772 3378 
Q 2772 3750 2511 3984 
Q 2250 4219 1831 4219 
Q 1534 4219 1204 4116 
Q 875 4013 500 3803 
L 500 4441 
Q 881 4594 1212 4672 
Q 1544 4750 1819 4750 
Q 2544 4750 2975 4387 
Q 3406 4025 3406 3419 
Q 3406 3131 3298 2873 
Q 3191 2616 2906 2266 
Q 2828 2175 2409 1742 
Q 1991 1309 1228 531 
z
" id="DejaVuSans-32" transform="scale(0.015625)"/>
       </defs>
       <use xlink:href="#DejaVuSans-30"/>
       <use x="63.623047" xlink:href="#DejaVuSans-2e"/>
       <use x="95.410156" xlink:href="#DejaVuSans-32"/>
      </g>
     </g>
    </g>
    <g id="xtick_3">
     <g id="line2d_3">
      <g>
       <use style="stroke:#000000;stroke-width:0.8;" x="142.686578" xlink:href="#md1446c1a26" y="273.312"/>
      </g>
     </g>
     <g id="text_3">
      <!-- 0.4 -->
      <g transform="translate(134.735016 287.910437)scale(0.1 -0.1)">
       <defs>
        <path d="M 2419 4116 
L 825 1625 
L 2419 1625 
L 2419 4116 
z
M 2253 4666 
L 3047 4666 
L 3047 1625 
L 3713 1625 
L 3713 1100 
L 3047 1100 
L 3047 0 
L 2419 0 
L 2419 1100 
L 313 1100 
L 313 1709 
L 2253 4666 
z
" id="DejaVuSans-34" transform="scale(0.015625)"/>
       </defs>
       <use xlink:href="#DejaVuSans-30"/>
       <use x="63.623047" xlink:href="#DejaVuSans-2e"/>
       <use x="95.410156" xlink:href="#DejaVuSans-34"/>
      </g>
     </g>
    </g>
    <g id="xtick_4">
     <g id="line2d_4">
      <g>
       <use style="stroke:#000000;stroke-width:0.8;" x="184.022879" xlink:href="#md1446c1a26" y="273.312"/>
      </g>
     </g>
     <g id="text_4">
      <!-- 0.6 -->
      <g transform="translate(176.071316 287.910437)scale(0.1 -0.1)">
       <defs>
        <path d="M 2113 2584 
Q 1688 2584 1439 2293 
Q 1191 2003 1191 1497 
Q 1191 994 1439 701 
Q 1688 409 2113 409 
Q 2538 409 2786 701 
Q 3034 994 3034 1497 
Q 3034 2003 2786 2293 
Q 2538 2584 2113 2584 
z
M 3366 4563 
L 3366 3988 
Q 3128 4100 2886 4159 
Q 2644 4219 2406 4219 
Q 1781 4219 1451 3797 
Q 1122 3375 1075 2522 
Q 1259 2794 1537 2939 
Q 1816 3084 2150 3084 
Q 2853 3084 3261 2657 
Q 3669 2231 3669 1497 
Q 3669 778 3244 343 
Q 2819 -91 2113 -91 
Q 1303 -91 875 529 
Q 447 1150 447 2328 
Q 447 3434 972 4092 
Q 1497 4750 2381 4750 
Q 2619 4750 2861 4703 
Q 3103 4656 3366 4563 
z
" id="DejaVuSans-36" transform="scale(0.015625)"/>
       </defs>
       <use xlink:href="#DejaVuSans-30"/>
       <use x="63.623047" xlink:href="#DejaVuSans-2e"/>
       <use x="95.410156" xlink:href="#DejaVuSans-36"/>
      </g>
     </g>
    </g>
    <g id="xtick_5">
     <g id="line2d_5">
      <g>
       <use style="stroke:#000000;stroke-width:0.8;" x="225.35918" xlink:href="#md1446c1a26" y="273.312"/>
      </g>
     </g>
     <g id="text_5">
      <!-- 0.8 -->
      <g transform="translate(217.407617 287.910437)scale(0.1 -0.1)">
       <defs>
        <path d="M 2034 2216 
Q 1584 2216 1326 1975 
Q 1069 1734 1069 1313 
Q 1069 891 1326 650 
Q 1584 409 2034 409 
Q 2484 409 2743 651 
Q 3003 894 3003 1313 
Q 3003 1734 2745 1975 
Q 2488 2216 2034 2216 
z
M 1403 2484 
Q 997 2584 770 2862 
Q 544 3141 544 3541 
Q 544 4100 942 4425 
Q 1341 4750 2034 4750 
Q 2731 4750 3128 4425 
Q 3525 4100 3525 3541 
Q 3525 3141 3298 2862 
Q 3072 2584 2669 2484 
Q 3125 2378 3379 2068 
Q 3634 1759 3634 1313 
Q 3634 634 3220 271 
Q 2806 -91 2034 -91 
Q 1263 -91 848 271 
Q 434 634 434 1313 
Q 434 1759 690 2068 
Q 947 2378 1403 2484 
z
M 1172 3481 
Q 1172 3119 1398 2916 
Q 1625 2713 2034 2713 
Q 2441 2713 2670 2916 
Q 2900 3119 2900 3481 
Q 2900 3844 2670 4047 
Q 2441 4250 2034 4250 
Q 1625 4250 1398 4047 
Q 1172 3844 1172 3481 
z
" id="DejaVuSans-38" transform="scale(0.015625)"/>
       </defs>
       <use xlink:href="#DejaVuSans-30"/>
       <use x="63.623047" xlink:href="#DejaVuSans-2e"/>
       <use x="95.410156" xlink:href="#DejaVuSans-38"/>
      </g>
     </g>
    </g>
    <g id="xtick_6">
     <g id="line2d_6">
      <g>
       <use style="stroke:#000000;stroke-width:0.8;" x="266.69548" xlink:href="#md1446c1a26" y="273.312"/>
      </g>
     </g>
     <g id="text_6">
      <!-- 1.0 -->
      <g transform="translate(258.743918 287.910437)scale(0.1 -0.1)">
       <defs>
        <path d="M 794 531 
L 1825 531 
L 1825 4091 
L 703 3866 
L 703 4441 
L 1819 4666 
L 2450 4666 
L 2450 531 
L 3481 531 
L 3481 0 
L 794 0 
L 794 531 
z
" id="DejaVuSans-31" transform="scale(0.015625)"/>
       </defs>
       <use xlink:href="#DejaVuSans-31"/>
       <use x="63.623047" xlink:href="#DejaVuSans-2e"/>
       <use x="95.410156" xlink:href="#DejaVuSans-30"/>
      </g>
     </g>
    </g>
    <g id="xtick_7">
     <g id="line2d_7">
      <g>
       <use style="stroke:#000000;stroke-width:0.8;" x="308.031781" xlink:href="#md1446c1a26" y="273.312"/>
      </g>
     </g>
     <g id="text_7">
      <!-- 1.2 -->
      <g transform="translate(300.080218 287.910437)scale(0.1 -0.1)">
       <use xlink:href="#DejaVuSans-31"/>
       <use x="63.623047" xlink:href="#DejaVuSans-2e"/>
       <use x="95.410156" xlink:href="#DejaVuSans-32"/>
      </g>
     </g>
    </g>
    <g id="xtick_8">
     <g id="line2d_8">
      <g>
       <use style="stroke:#000000;stroke-width:0.8;" x="349.368081" xlink:href="#md1446c1a26" y="273.312"/>
      </g>
     </g>
     <g id="text_8">
      <!-- 1.4 -->
      <g transform="translate(341.416519 287.910437)scale(0.1 -0.1)">
       <use xlink:href="#DejaVuSans-31"/>
       <use x="63.623047" xlink:href="#DejaVuSans-2e"/>
       <use x="95.410156" xlink:href="#DejaVuSans-34"/>
      </g>
     </g>
    </g>
    <g id="xtick_9">
     <g id="line2d_9">
      <g>
       <use style="stroke:#000000;stroke-width:0.8;" x="390.704382" xlink:href="#md1446c1a26" y="273.312"/>
      </g>
     </g>
     <g id="text_9">
      <!-- 1.6 -->
      <g transform="translate(382.752819 287.910437)scale(0.1 -0.1)">
       <use xlink:href="#DejaVuSans-31"/>
       <use x="63.623047" xlink:href="#DejaVuSans-2e"/>
       <use x="95.410156" xlink:href="#DejaVuSans-36"/>
      </g>
     </g>
    </g>
    <g id="text_10">
     <!-- Angle with normal (rad) -->
     <g transform="translate(163.023281 301.588562)scale(0.1 -0.1)">
      <defs>
       <path d="M 2188 4044 
L 1331 1722 
L 3047 1722 
L 2188 4044 
z
M 1831 4666 
L 2547 4666 
L 4325 0 
L 3669 0 
L 3244 1197 
L 1141 1197 
L 716 0 
L 50 0 
L 1831 4666 
z
" id="DejaVuSans-41" transform="scale(0.015625)"/>
       <path d="M 3513 2113 
L 3513 0 
L 2938 0 
L 2938 2094 
Q 2938 2591 2744 2837 
Q 2550 3084 2163 3084 
Q 1697 3084 1428 2787 
Q 1159 2491 1159 1978 
L 1159 0 
L 581 0 
L 581 3500 
L 1159 3500 
L 1159 2956 
Q 1366 3272 1645 3428 
Q 1925 3584 2291 3584 
Q 2894 3584 3203 3211 
Q 3513 2838 3513 2113 
z
" id="DejaVuSans-6e" transform="scale(0.015625)"/>
       <path d="M 2906 1791 
Q 2906 2416 2648 2759 
Q 2391 3103 1925 3103 
Q 1463 3103 1205 2759 
Q 947 2416 947 1791 
Q 947 1169 1205 825 
Q 1463 481 1925 481 
Q 2391 481 2648 825 
Q 2906 1169 2906 1791 
z
M 3481 434 
Q 3481 -459 3084 -895 
Q 2688 -1331 1869 -1331 
Q 1566 -1331 1297 -1286 
Q 1028 -1241 775 -1147 
L 775 -588 
Q 1028 -725 1275 -790 
Q 1522 -856 1778 -856 
Q 2344 -856 2625 -561 
Q 2906 -266 2906 331 
L 2906 616 
Q 2728 306 2450 153 
Q 2172 0 1784 0 
Q 1141 0 747 490 
Q 353 981 353 1791 
Q 353 2603 747 3093 
Q 1141 3584 1784 3584 
Q 2172 3584 2450 3431 
Q 2728 3278 2906 2969 
L 2906 3500 
L 3481 3500 
L 3481 434 
z
" id="DejaVuSans-67" transform="scale(0.015625)"/>
       <path d="M 603 4863 
L 1178 4863 
L 1178 0 
L 603 0 
L 603 4863 
z
" id="DejaVuSans-6c" transform="scale(0.015625)"/>
       <path d="M 3597 1894 
L 3597 1613 
L 953 1613 
Q 991 1019 1311 708 
Q 1631 397 2203 397 
Q 2534 397 2845 478 
Q 3156 559 3463 722 
L 3463 178 
Q 3153 47 2828 -22 
Q 2503 -91 2169 -91 
Q 1331 -91 842 396 
Q 353 884 353 1716 
Q 353 2575 817 3079 
Q 1281 3584 2069 3584 
Q 2775 3584 3186 3129 
Q 3597 2675 3597 1894 
z
M 3022 2063 
Q 3016 2534 2758 2815 
Q 2500 3097 2075 3097 
Q 1594 3097 1305 2825 
Q 1016 2553 972 2059 
L 3022 2063 
z
" id="DejaVuSans-65" transform="scale(0.015625)"/>
       <path id="DejaVuSans-20" transform="scale(0.015625)"/>
       <path d="M 269 3500 
L 844 3500 
L 1563 769 
L 2278 3500 
L 2956 3500 
L 3675 769 
L 4391 3500 
L 4966 3500 
L 4050 0 
L 3372 0 
L 2619 2869 
L 1863 0 
L 1184 0 
L 269 3500 
z
" id="DejaVuSans-77" transform="scale(0.015625)"/>
       <path d="M 603 3500 
L 1178 3500 
L 1178 0 
L 603 0 
L 603 3500 
z
M 603 4863 
L 1178 4863 
L 1178 4134 
L 603 4134 
L 603 4863 
z
" id="DejaVuSans-69" transform="scale(0.015625)"/>
       <path d="M 1172 4494 
L 1172 3500 
L 2356 3500 
L 2356 3053 
L 1172 3053 
L 1172 1153 
Q 1172 725 1289 603 
Q 1406 481 1766 481 
L 2356 481 
L 2356 0 
L 1766 0 
Q 1100 0 847 248 
Q 594 497 594 1153 
L 594 3053 
L 172 3053 
L 172 3500 
L 594 3500 
L 594 4494 
L 1172 4494 
z
" id="DejaVuSans-74" transform="scale(0.015625)"/>
       <path d="M 3513 2113 
L 3513 0 
L 2938 0 
L 2938 2094 
Q 2938 2591 2744 2837 
Q 2550 3084 2163 3084 
Q 1697 3084 1428 2787 
Q 1159 2491 1159 1978 
L 1159 0 
L 581 0 
L 581 4863 
L 1159 4863 
L 1159 2956 
Q 1366 3272 1645 3428 
Q 1925 3584 2291 3584 
Q 2894 3584 3203 3211 
Q 3513 2838 3513 2113 
z
" id="DejaVuSans-68" transform="scale(0.015625)"/>
       <path d="M 1959 3097 
Q 1497 3097 1228 2736 
Q 959 2375 959 1747 
Q 959 1119 1226 758 
Q 1494 397 1959 397 
Q 2419 397 2687 759 
Q 2956 1122 2956 1747 
Q 2956 2369 2687 2733 
Q 2419 3097 1959 3097 
z
M 1959 3584 
Q 2709 3584 3137 3096 
Q 3566 2609 3566 1747 
Q 3566 888 3137 398 
Q 2709 -91 1959 -91 
Q 1206 -91 779 398 
Q 353 888 353 1747 
Q 353 2609 779 3096 
Q 1206 3584 1959 3584 
z
" id="DejaVuSans-6f" transform="scale(0.015625)"/>
       <path d="M 2631 2963 
Q 2534 3019 2420 3045 
Q 2306 3072 2169 3072 
Q 1681 3072 1420 2755 
Q 1159 2438 1159 1844 
L 1159 0 
L 581 0 
L 581 3500 
L 1159 3500 
L 1159 2956 
Q 1341 3275 1631 3429 
Q 1922 3584 2338 3584 
Q 2397 3584 2469 3576 
Q 2541 3569 2628 3553 
L 2631 2963 
z
" id="DejaVuSans-72" transform="scale(0.015625)"/>
       <path d="M 3328 2828 
Q 3544 3216 3844 3400 
Q 4144 3584 4550 3584 
Q 5097 3584 5394 3201 
Q 5691 2819 5691 2113 
L 5691 0 
L 5113 0 
L 5113 2094 
Q 5113 2597 4934 2840 
Q 4756 3084 4391 3084 
Q 3944 3084 3684 2787 
Q 3425 2491 3425 1978 
L 3425 0 
L 2847 0 
L 2847 2094 
Q 2847 2600 2669 2842 
Q 2491 3084 2119 3084 
Q 1678 3084 1418 2786 
Q 1159 2488 1159 1978 
L 1159 0 
L 581 0 
L 581 3500 
L 1159 3500 
L 1159 2956 
Q 1356 3278 1631 3431 
Q 1906 3584 2284 3584 
Q 2666 3584 2933 3390 
Q 3200 3197 3328 2828 
z
" id="DejaVuSans-6d" transform="scale(0.015625)"/>
       <path d="M 2194 1759 
Q 1497 1759 1228 1600 
Q 959 1441 959 1056 
Q 959 750 1161 570 
Q 1363 391 1709 391 
Q 2188 391 2477 730 
Q 2766 1069 2766 1631 
L 2766 1759 
L 2194 1759 
z
M 3341 1997 
L 3341 0 
L 2766 0 
L 2766 531 
Q 2569 213 2275 61 
Q 1981 -91 1556 -91 
Q 1019 -91 701 211 
Q 384 513 384 1019 
Q 384 1609 779 1909 
Q 1175 2209 1959 2209 
L 2766 2209 
L 2766 2266 
Q 2766 2663 2505 2880 
Q 2244 3097 1772 3097 
Q 1472 3097 1187 3025 
Q 903 2953 641 2809 
L 641 3341 
Q 956 3463 1253 3523 
Q 1550 3584 1831 3584 
Q 2591 3584 2966 3190 
Q 3341 2797 3341 1997 
z
" id="DejaVuSans-61" transform="scale(0.015625)"/>
       <path d="M 1984 4856 
Q 1566 4138 1362 3434 
Q 1159 2731 1159 2009 
Q 1159 1288 1364 580 
Q 1569 -128 1984 -844 
L 1484 -844 
Q 1016 -109 783 600 
Q 550 1309 550 2009 
Q 550 2706 781 3412 
Q 1013 4119 1484 4856 
L 1984 4856 
z
" id="DejaVuSans-28" transform="scale(0.015625)"/>
       <path d="M 2906 2969 
L 2906 4863 
L 3481 4863 
L 3481 0 
L 2906 0 
L 2906 525 
Q 2725 213 2448 61 
Q 2172 -91 1784 -91 
Q 1150 -91 751 415 
Q 353 922 353 1747 
Q 353 2572 751 3078 
Q 1150 3584 1784 3584 
Q 2172 3584 2448 3432 
Q 2725 3281 2906 2969 
z
M 947 1747 
Q 947 1113 1208 752 
Q 1469 391 1925 391 
Q 2381 391 2643 752 
Q 2906 1113 2906 1747 
Q 2906 2381 2643 2742 
Q 2381 3103 1925 3103 
Q 1469 3103 1208 2742 
Q 947 2381 947 1747 
z
" id="DejaVuSans-64" transform="scale(0.015625)"/>
       <path d="M 513 4856 
L 1013 4856 
Q 1481 4119 1714 3412 
Q 1947 2706 1947 2009 
Q 1947 1309 1714 600 
Q 1481 -109 1013 -844 
L 513 -844 
Q 928 -128 1133 580 
Q 1338 1288 1338 2009 
Q 1338 2731 1133 3434 
Q 928 4138 513 4856 
z
" id="DejaVuSans-29" transform="scale(0.015625)"/>
      </defs>
      <use xlink:href="#DejaVuSans-41"/>
      <use x="68.408203" xlink:href="#DejaVuSans-6e"/>
      <use x="131.787109" xlink:href="#DejaVuSans-67"/>
      <use x="195.263672" xlink:href="#DejaVuSans-6c"/>
      <use x="223.046875" xlink:href="#DejaVuSans-65"/>
      <use x="284.570312" xlink:href="#DejaVuSans-20"/>
      <use x="316.357422" xlink:href="#DejaVuSans-77"/>
      <use x="398.144531" xlink:href="#DejaVuSans-69"/>
      <use x="425.927734" xlink:href="#DejaVuSans-74"/>
      <use x="465.136719" xlink:href="#DejaVuSans-68"/>
      <use x="528.515625" xlink:href="#DejaVuSans-20"/>
      <use x="560.302734" xlink:href="#DejaVuSans-6e"/>
      <use x="623.681641" xlink:href="#DejaVuSans-6f"/>
      <use x="684.863281" xlink:href="#DejaVuSans-72"/>
      <use x="724.226562" xlink:href="#DejaVuSans-6d"/>
      <use x="821.638672" xlink:href="#DejaVuSans-61"/>
      <use x="882.917969" xlink:href="#DejaVuSans-6c"/>
      <use x="910.701172" xlink:href="#DejaVuSans-20"/>
      <use x="942.488281" xlink:href="#DejaVuSans-28"/>
      <use x="981.501953" xlink:href="#DejaVuSans-72"/>
      <use x="1022.615234" xlink:href="#DejaVuSans-61"/>
      <use x="1083.894531" xlink:href="#DejaVuSans-64"/>
      <use x="1147.371094" xlink:href="#DejaVuSans-29"/>
     </g>
    </g>
   </g>
   <g id="matplotlib.axis_2">
    <g id="ytick_1">
     <g id="line2d_10">
      <defs>
       <path d="M 0 0 
L -3.5 0 
" id="m82ccb1a64d" style="stroke:#000000;stroke-width:0.8;"/>
      </defs>
      <g>
       <use style="stroke:#000000;stroke-width:0.8;" x="43.78125" xlink:href="#m82ccb1a64d" y="273.312"/>
      </g>
     </g>
     <g id="text_11">
      <!-- 0.0 -->
      <g transform="translate(20.878125 277.111219)scale(0.1 -0.1)">
       <use xlink:href="#DejaVuSans-30"/>
       <use x="63.623047" xlink:href="#DejaVuSans-2e"/>
       <use x="95.410156" xlink:href="#DejaVuSans-30"/>
      </g>
     </g>
    </g>
    <g id="ytick_2">
     <g id="line2d_11">
      <g>
       <use style="stroke:#000000;stroke-width:0.8;" x="43.78125" xlink:href="#m82ccb1a64d" y="227.838663"/>
      </g>
     </g>
     <g id="text_12">
      <!-- 0.2 -->
      <g transform="translate(20.878125 231.637881)scale(0.1 -0.1)">
       <use xlink:href="#DejaVuSans-30"/>
       <use x="63.623047" xlink:href="#DejaVuSans-2e"/>
       <use x="95.410156" xlink:href="#DejaVuSans-32"/>
      </g>
     </g>
    </g>
    <g id="ytick_3">
     <g id="line2d_12">
      <g>
       <use style="stroke:#000000;stroke-width:0.8;" x="43.78125" xlink:href="#m82ccb1a64d" y="182.365325"/>
      </g>
     </g>
     <g id="text_13">
      <!-- 0.4 -->
      <g transform="translate(20.878125 186.164544)scale(0.1 -0.1)">
       <use xlink:href="#DejaVuSans-30"/>
       <use x="63.623047" xlink:href="#DejaVuSans-2e"/>
       <use x="95.410156" xlink:href="#DejaVuSans-34"/>
      </g>
     </g>
    </g>
    <g id="ytick_4">
     <g id="line2d_13">
      <g>
       <use style="stroke:#000000;stroke-width:0.8;" x="43.78125" xlink:href="#m82ccb1a64d" y="136.891988"/>
      </g>
     </g>
     <g id="text_14">
      <!-- 0.6 -->
      <g transform="translate(20.878125 140.691207)scale(0.1 -0.1)">
       <use xlink:href="#DejaVuSans-30"/>
       <use x="63.623047" xlink:href="#DejaVuSans-2e"/>
       <use x="95.410156" xlink:href="#DejaVuSans-36"/>
      </g>
     </g>
    </g>
    <g id="ytick_5">
     <g id="line2d_14">
      <g>
       <use style="stroke:#000000;stroke-width:0.8;" x="43.78125" xlink:href="#m82ccb1a64d" y="91.418651"/>
      </g>
     </g>
     <g id="text_15">
      <!-- 0.8 -->
      <g transform="translate(20.878125 95.21787)scale(0.1 -0.1)">
       <use xlink:href="#DejaVuSans-30"/>
       <use x="63.623047" xlink:href="#DejaVuSans-2e"/>
       <use x="95.410156" xlink:href="#DejaVuSans-38"/>
      </g>
     </g>
    </g>
    <g id="ytick_6">
     <g id="line2d_15">
      <g>
       <use style="stroke:#000000;stroke-width:0.8;" x="43.78125" xlink:href="#m82ccb1a64d" y="45.945314"/>
      </g>
     </g>
     <g id="text_16">
      <!-- 1.0 -->
      <g transform="translate(20.878125 49.744532)scale(0.1 -0.1)">
       <use xlink:href="#DejaVuSans-31"/>
       <use x="63.623047" xlink:href="#DejaVuSans-2e"/>
       <use x="95.410156" xlink:href="#DejaVuSans-30"/>
      </g>
     </g>
    </g>
    <g id="text_17">
     <!-- Probability density -->
     <g transform="translate(14.798438 186.606781)rotate(-90)scale(0.1 -0.1)">
      <defs>
       <path d="M 1259 4147 
L 1259 2394 
L 2053 2394 
Q 2494 2394 2734 2622 
Q 2975 2850 2975 3272 
Q 2975 3691 2734 3919 
Q 2494 4147 2053 4147 
L 1259 4147 
z
M 628 4666 
L 2053 4666 
Q 2838 4666 3239 4311 
Q 3641 3956 3641 3272 
Q 3641 2581 3239 2228 
Q 2838 1875 2053 1875 
L 1259 1875 
L 1259 0 
L 628 0 
L 628 4666 
z
" id="DejaVuSans-50" transform="scale(0.015625)"/>
       <path d="M 3116 1747 
Q 3116 2381 2855 2742 
Q 2594 3103 2138 3103 
Q 1681 3103 1420 2742 
Q 1159 2381 1159 1747 
Q 1159 1113 1420 752 
Q 1681 391 2138 391 
Q 2594 391 2855 752 
Q 3116 1113 3116 1747 
z
M 1159 2969 
Q 1341 3281 1617 3432 
Q 1894 3584 2278 3584 
Q 2916 3584 3314 3078 
Q 3713 2572 3713 1747 
Q 3713 922 3314 415 
Q 2916 -91 2278 -91 
Q 1894 -91 1617 61 
Q 1341 213 1159 525 
L 1159 0 
L 581 0 
L 581 4863 
L 1159 4863 
L 1159 2969 
z
" id="DejaVuSans-62" transform="scale(0.015625)"/>
       <path d="M 2059 -325 
Q 1816 -950 1584 -1140 
Q 1353 -1331 966 -1331 
L 506 -1331 
L 506 -850 
L 844 -850 
Q 1081 -850 1212 -737 
Q 1344 -625 1503 -206 
L 1606 56 
L 191 3500 
L 800 3500 
L 1894 763 
L 2988 3500 
L 3597 3500 
L 2059 -325 
z
" id="DejaVuSans-79" transform="scale(0.015625)"/>
       <path d="M 2834 3397 
L 2834 2853 
Q 2591 2978 2328 3040 
Q 2066 3103 1784 3103 
Q 1356 3103 1142 2972 
Q 928 2841 928 2578 
Q 928 2378 1081 2264 
Q 1234 2150 1697 2047 
L 1894 2003 
Q 2506 1872 2764 1633 
Q 3022 1394 3022 966 
Q 3022 478 2636 193 
Q 2250 -91 1575 -91 
Q 1294 -91 989 -36 
Q 684 19 347 128 
L 347 722 
Q 666 556 975 473 
Q 1284 391 1588 391 
Q 1994 391 2212 530 
Q 2431 669 2431 922 
Q 2431 1156 2273 1281 
Q 2116 1406 1581 1522 
L 1381 1569 
Q 847 1681 609 1914 
Q 372 2147 372 2553 
Q 372 3047 722 3315 
Q 1072 3584 1716 3584 
Q 2034 3584 2315 3537 
Q 2597 3491 2834 3397 
z
" id="DejaVuSans-73" transform="scale(0.015625)"/>
      </defs>
      <use xlink:href="#DejaVuSans-50"/>
      <use x="58.552734" xlink:href="#DejaVuSans-72"/>
      <use x="97.416016" xlink:href="#DejaVuSans-6f"/>
      <use x="158.597656" xlink:href="#DejaVuSans-62"/>
      <use x="222.074219" xlink:href="#DejaVuSans-61"/>
      <use x="283.353516" xlink:href="#DejaVuSans-62"/>
      <use x="346.830078" xlink:href="#DejaVuSans-69"/>
      <use x="374.613281" xlink:href="#DejaVuSans-6c"/>
      <use x="402.396484" xlink:href="#DejaVuSans-69"/>
      <use x="430.179688" xlink:href="#DejaVuSans-74"/>
      <use x="469.388672" xlink:href="#DejaVuSans-79"/>
      <use x="528.568359" xlink:href="#DejaVuSans-20"/>
      <use x="560.355469" xlink:href="#DejaVuSans-64"/>
      <use x="623.832031" xlink:href="#DejaVuSans-65"/>
      <use x="685.355469" xlink:href="#DejaVuSans-6e"/>
      <use x="748.734375" xlink:href="#DejaVuSans-73"/>
      <use x="800.833984" xlink:href="#DejaVuSans-69"/>
      <use x="828.617188" xlink:href="#DejaVuSans-74"/>
      <use x="867.826172" xlink:href="#DejaVuSans-79"/>
     </g>
    </g>
   </g>
   <g id="line2d_16">
    <path clip-path="url(#p6b7e68900a)" d="M 60.013977 273.312 
L 79.837728 229.963485 
L 90.237073 207.760095 
L 99.01152 189.53297 
L 106.811029 173.833843 
L 113.960578 159.938405 
L 120.460169 147.775202 
L 126.63478 136.679256 
L 132.484411 126.616506 
L 138.009063 117.543745 
L 143.208736 109.410809 
L 148.408408 101.692731 
L 153.283101 94.851196 
L 157.832814 88.823672 
L 162.382528 83.153688 
L 166.932241 77.852231 
L 171.156975 73.268424 
L 175.381709 69.018904 
L 179.281463 65.399126 
L 183.181217 62.075395 
L 187.080972 59.052443 
L 190.655746 56.549316 
L 194.230521 54.305543 
L 197.805296 52.323811 
L 201.380071 50.60649 
L 204.629866 49.276472 
L 207.879661 48.167993 
L 211.129456 47.282148 
L 214.379252 46.619815 
L 217.629047 46.181648 
L 220.878842 45.968079 
L 224.128637 45.979321 
L 227.378433 46.215363 
L 230.628228 46.67597 
L 233.878023 47.360688 
L 237.127818 48.268838 
L 240.377614 49.399524 
L 243.627409 50.751628 
L 247.202184 52.493076 
L 250.776958 54.498733 
L 254.351733 56.766198 
L 257.926508 59.29276 
L 261.501283 62.075395 
L 265.401037 65.399126 
L 269.300791 69.018904 
L 273.200546 72.929576 
L 277.425279 77.487933 
L 281.650013 82.373526 
L 286.199727 87.991521 
L 290.74944 93.968667 
L 295.624133 100.758126 
L 300.498826 107.931465 
L 305.698498 115.988152 
L 311.22315 124.984218 
L 316.747802 134.404108 
L 322.597433 144.810131 
L 328.772044 156.240145 
L 335.596614 169.357722 
L 342.746164 183.585033 
L 350.870652 200.269692 
L 359.970079 219.487209 
L 371.019383 243.368879 
L 384.668523 273.312 
L 384.668523 273.312 
" style="fill:none;stroke:#ff7f0e;stroke-linecap:square;stroke-width:1.5;"/>
   </g>
   <g id="patch_203">
    <path d="M 43.78125 273.312 
L 43.78125 7.2 
" style="fill:none;stroke:#000000;stroke-linecap:square;stroke-linejoin:miter;stroke-width:0.8;"/>
   </g>
   <g id="patch_204">
    <path d="M 400.90125 273.312 
L 400.90125 7.2 
" style="fill:none;stroke:#000000;stroke-linecap:square;stroke-linejoin:miter;stroke-width:0.8;"/>
   </g>
   <g id="patch_205">
    <path d="M 43.78125 273.312 
L 400.90125 273.312 
" style="fill:none;stroke:#000000;stroke-linecap:square;stroke-linejoin:miter;stroke-width:0.8;"/>
   </g>
   <g id="patch_206">
    <path d="M 43.78125 7.2 
L 400.90125 7.2 
" style="fill:none;stroke:#000000;stroke-linecap:square;stroke-linejoin:miter;stroke-width:0.8;"/>
   </g>
  </g>
 </g>
 <defs>
  <clipPath id="p6b7e68900a">
   <rect height="266.112" width="357.12" x="43.78125" y="7.2"/>
  </clipPath>
 </defs>
</svg>
