<?xml version="1.0" encoding="utf-8" standalone="no"?>
<!DOCTYPE svg PUBLIC "-//W3C//DTD SVG 1.1//EN"
  "http://www.w3.org/Graphics/SVG/1.1/DTD/svg11.dtd">
<svg height="310.86825pt" version="1.1" viewBox="0 0 414.46375 310.86825" width="414.46375pt" xmlns="http://www.w3.org/2000/svg" xmlns:xlink="http://www.w3.org/1999/xlink">
 <metadata>
  <rdf:RDF xmlns:cc="http://creativecommons.org/ns#" xmlns:dc="http://purl.org/dc/elements/1.1/" xmlns:rdf="http://www.w3.org/1999/02/22-rdf-syntax-ns#">
   <cc:Work>
    <dc:type rdf:resource="http://purl.org/dc/dcmitype/StillImage"/>
    <dc:date>2021-06-22T05:05:44.013974</dc:date>
    <dc:format>image/svg+xml</dc:format>
    <dc:creator>
     <cc:Agent>
      <dc:title>Matplotlib v3.4.2, https://matplotlib.org/</dc:title>
     </cc:Agent>
    </dc:creator>
   </cc:Work>
  </rdf:RDF>
 </metadata>
 <defs>
  <style type="text/css">*{stroke-linecap:butt;stroke-linejoin:round;}</style>
 </defs>
 <g id="figure_1">
  <g id="patch_1">
   <path d="M 0 310.86825 
L 414.46375 310.86825 
L 414.46375 0 
L 0 0 
z
" style="fill:#ffffff;"/>
  </g>
  <g id="axes_1">
   <g id="patch_2">
    <path d="M 50.14375 273.312 
L 407.26375 273.312 
L 407.26375 7.2 
L 50.14375 7.2 
z
" style="fill:#ffffff;"/>
   </g>
   <g id="patch_3">
    <path clip-path="url(#p55b45b11f4)" d="M 70.135973 273.312 
L 71.740386 273.312 
L 71.740386 265.839568 
L 70.135973 265.839568 
z
" style="fill:#1f77b4;"/>
   </g>
   <g id="patch_4">
    <path clip-path="url(#p55b45b11f4)" d="M 71.740386 273.312 
L 73.3448 273.312 
L 73.3448 268.953081 
L 71.740386 268.953081 
z
" style="fill:#1f77b4;"/>
   </g>
   <g id="patch_5">
    <path clip-path="url(#p55b45b11f4)" d="M 73.3448 273.312 
L 74.949213 273.312 
L 74.949213 267.707676 
L 73.3448 267.707676 
z
" style="fill:#1f77b4;"/>
   </g>
   <g id="patch_6">
    <path clip-path="url(#p55b45b11f4)" d="M 74.949213 273.312 
L 76.553626 273.312 
L 76.553626 265.216865 
L 74.949213 265.216865 
z
" style="fill:#1f77b4;"/>
   </g>
   <g id="patch_7">
    <path clip-path="url(#p55b45b11f4)" d="M 76.553626 273.312 
L 78.15804 273.312 
L 78.15804 268.330378 
L 76.553626 268.330378 
z
" style="fill:#1f77b4;"/>
   </g>
   <g id="patch_8">
    <path clip-path="url(#p55b45b11f4)" d="M 78.15804 273.312 
L 79.762453 273.312 
L 79.762453 267.084973 
L 78.15804 267.084973 
z
" style="fill:#1f77b4;"/>
   </g>
   <g id="patch_9">
    <path clip-path="url(#p55b45b11f4)" d="M 79.762453 273.312 
L 81.366867 273.312 
L 81.366867 261.480649 
L 79.762453 261.480649 
z
" style="fill:#1f77b4;"/>
   </g>
   <g id="patch_10">
    <path clip-path="url(#p55b45b11f4)" d="M 81.366867 273.312 
L 82.97128 273.312 
L 82.97128 262.726054 
L 81.366867 262.726054 
z
" style="fill:#1f77b4;"/>
   </g>
   <g id="patch_11">
    <path clip-path="url(#p55b45b11f4)" d="M 82.97128 273.312 
L 84.575693 273.312 
L 84.575693 257.744432 
L 82.97128 257.744432 
z
" style="fill:#1f77b4;"/>
   </g>
   <g id="patch_12">
    <path clip-path="url(#p55b45b11f4)" d="M 84.575693 273.312 
L 86.180107 273.312 
L 86.180107 259.612541 
L 84.575693 259.612541 
z
" style="fill:#1f77b4;"/>
   </g>
   <g id="patch_13">
    <path clip-path="url(#p55b45b11f4)" d="M 86.180107 273.312 
L 87.78452 273.312 
L 87.78452 259.612541 
L 86.180107 259.612541 
z
" style="fill:#1f77b4;"/>
   </g>
   <g id="patch_14">
    <path clip-path="url(#p55b45b11f4)" d="M 87.78452 273.312 
L 89.388933 273.312 
L 89.388933 253.385514 
L 87.78452 253.385514 
z
" style="fill:#1f77b4;"/>
   </g>
   <g id="patch_15">
    <path clip-path="url(#p55b45b11f4)" d="M 89.388933 273.312 
L 90.993347 273.312 
L 90.993347 257.12173 
L 89.388933 257.12173 
z
" style="fill:#1f77b4;"/>
   </g>
   <g id="patch_16">
    <path clip-path="url(#p55b45b11f4)" d="M 90.993347 273.312 
L 92.59776 273.312 
L 92.59776 255.253622 
L 90.993347 255.253622 
z
" style="fill:#1f77b4;"/>
   </g>
   <g id="patch_17">
    <path clip-path="url(#p55b45b11f4)" d="M 92.59776 273.312 
L 94.202174 273.312 
L 94.202174 253.385514 
L 92.59776 253.385514 
z
" style="fill:#1f77b4;"/>
   </g>
   <g id="patch_18">
    <path clip-path="url(#p55b45b11f4)" d="M 94.202174 273.312 
L 95.806587 273.312 
L 95.806587 257.744432 
L 94.202174 257.744432 
z
" style="fill:#1f77b4;"/>
   </g>
   <g id="patch_19">
    <path clip-path="url(#p55b45b11f4)" d="M 95.806587 273.312 
L 97.411 273.312 
L 97.411 253.385514 
L 95.806587 253.385514 
z
" style="fill:#1f77b4;"/>
   </g>
   <g id="patch_20">
    <path clip-path="url(#p55b45b11f4)" d="M 97.411 273.312 
L 99.015414 273.312 
L 99.015414 252.762811 
L 97.411 252.762811 
z
" style="fill:#1f77b4;"/>
   </g>
   <g id="patch_21">
    <path clip-path="url(#p55b45b11f4)" d="M 99.015414 273.312 
L 100.619827 273.312 
L 100.619827 242.799568 
L 99.015414 242.799568 
z
" style="fill:#1f77b4;"/>
   </g>
   <g id="patch_22">
    <path clip-path="url(#p55b45b11f4)" d="M 100.619827 273.312 
L 102.22424 273.312 
L 102.22424 250.272 
L 100.619827 250.272 
z
" style="fill:#1f77b4;"/>
   </g>
   <g id="patch_23">
    <path clip-path="url(#p55b45b11f4)" d="M 102.22424 273.312 
L 103.828654 273.312 
L 103.828654 249.649297 
L 102.22424 249.649297 
z
" style="fill:#1f77b4;"/>
   </g>
   <g id="patch_24">
    <path clip-path="url(#p55b45b11f4)" d="M 103.828654 273.312 
L 105.433067 273.312 
L 105.433067 254.008216 
L 103.828654 254.008216 
z
" style="fill:#1f77b4;"/>
   </g>
   <g id="patch_25">
    <path clip-path="url(#p55b45b11f4)" d="M 105.433067 273.312 
L 107.037481 273.312 
L 107.037481 251.517405 
L 105.433067 251.517405 
z
" style="fill:#1f77b4;"/>
   </g>
   <g id="patch_26">
    <path clip-path="url(#p55b45b11f4)" d="M 107.037481 273.312 
L 108.641894 273.312 
L 108.641894 241.554162 
L 107.037481 241.554162 
z
" style="fill:#1f77b4;"/>
   </g>
   <g id="patch_27">
    <path clip-path="url(#p55b45b11f4)" d="M 108.641894 273.312 
L 110.246307 273.312 
L 110.246307 233.459027 
L 108.641894 233.459027 
z
" style="fill:#1f77b4;"/>
   </g>
   <g id="patch_28">
    <path clip-path="url(#p55b45b11f4)" d="M 110.246307 273.312 
L 111.850721 273.312 
L 111.850721 240.931459 
L 110.246307 240.931459 
z
" style="fill:#1f77b4;"/>
   </g>
   <g id="patch_29">
    <path clip-path="url(#p55b45b11f4)" d="M 111.850721 273.312 
L 113.455134 273.312 
L 113.455134 247.158486 
L 111.850721 247.158486 
z
" style="fill:#1f77b4;"/>
   </g>
   <g id="patch_30">
    <path clip-path="url(#p55b45b11f4)" d="M 113.455134 273.312 
L 115.059547 273.312 
L 115.059547 240.308757 
L 113.455134 240.308757 
z
" style="fill:#1f77b4;"/>
   </g>
   <g id="patch_31">
    <path clip-path="url(#p55b45b11f4)" d="M 115.059547 273.312 
L 116.663961 273.312 
L 116.663961 236.572541 
L 115.059547 236.572541 
z
" style="fill:#1f77b4;"/>
   </g>
   <g id="patch_32">
    <path clip-path="url(#p55b45b11f4)" d="M 116.663961 273.312 
L 118.268374 273.312 
L 118.268374 237.817946 
L 116.663961 237.817946 
z
" style="fill:#1f77b4;"/>
   </g>
   <g id="patch_33">
    <path clip-path="url(#p55b45b11f4)" d="M 118.268374 273.312 
L 119.872788 273.312 
L 119.872788 232.836324 
L 118.268374 232.836324 
z
" style="fill:#1f77b4;"/>
   </g>
   <g id="patch_34">
    <path clip-path="url(#p55b45b11f4)" d="M 119.872788 273.312 
L 121.477201 273.312 
L 121.477201 236.572541 
L 119.872788 236.572541 
z
" style="fill:#1f77b4;"/>
   </g>
   <g id="patch_35">
    <path clip-path="url(#p55b45b11f4)" d="M 121.477201 273.312 
L 123.081614 273.312 
L 123.081614 231.590919 
L 121.477201 231.590919 
z
" style="fill:#1f77b4;"/>
   </g>
   <g id="patch_36">
    <path clip-path="url(#p55b45b11f4)" d="M 123.081614 273.312 
L 124.686028 273.312 
L 124.686028 234.704432 
L 123.081614 234.704432 
z
" style="fill:#1f77b4;"/>
   </g>
   <g id="patch_37">
    <path clip-path="url(#p55b45b11f4)" d="M 124.686028 273.312 
L 126.290441 273.312 
L 126.290441 218.514162 
L 124.686028 218.514162 
z
" style="fill:#1f77b4;"/>
   </g>
   <g id="patch_38">
    <path clip-path="url(#p55b45b11f4)" d="M 126.290441 273.312 
L 127.894854 273.312 
L 127.894854 226.609297 
L 126.290441 226.609297 
z
" style="fill:#1f77b4;"/>
   </g>
   <g id="patch_39">
    <path clip-path="url(#p55b45b11f4)" d="M 127.894854 273.312 
L 129.499268 273.312 
L 129.499268 219.759568 
L 127.894854 219.759568 
z
" style="fill:#1f77b4;"/>
   </g>
   <g id="patch_40">
    <path clip-path="url(#p55b45b11f4)" d="M 129.499268 273.312 
L 131.103681 273.312 
L 131.103681 230.345514 
L 129.499268 230.345514 
z
" style="fill:#1f77b4;"/>
   </g>
   <g id="patch_41">
    <path clip-path="url(#p55b45b11f4)" d="M 131.103681 273.312 
L 132.708095 273.312 
L 132.708095 222.250378 
L 131.103681 222.250378 
z
" style="fill:#1f77b4;"/>
   </g>
   <g id="patch_42">
    <path clip-path="url(#p55b45b11f4)" d="M 132.708095 273.312 
L 134.312508 273.312 
L 134.312508 232.213622 
L 132.708095 232.213622 
z
" style="fill:#1f77b4;"/>
   </g>
   <g id="patch_43">
    <path clip-path="url(#p55b45b11f4)" d="M 134.312508 273.312 
L 135.916921 273.312 
L 135.916921 217.891459 
L 134.312508 217.891459 
z
" style="fill:#1f77b4;"/>
   </g>
   <g id="patch_44">
    <path clip-path="url(#p55b45b11f4)" d="M 135.916921 273.312 
L 137.521335 273.312 
L 137.521335 213.532541 
L 135.916921 213.532541 
z
" style="fill:#1f77b4;"/>
   </g>
   <g id="patch_45">
    <path clip-path="url(#p55b45b11f4)" d="M 137.521335 273.312 
L 139.125748 273.312 
L 139.125748 217.268757 
L 137.521335 217.268757 
z
" style="fill:#1f77b4;"/>
   </g>
   <g id="patch_46">
    <path clip-path="url(#p55b45b11f4)" d="M 139.125748 273.312 
L 140.730161 273.312 
L 140.730161 214.155243 
L 139.125748 214.155243 
z
" style="fill:#1f77b4;"/>
   </g>
   <g id="patch_47">
    <path clip-path="url(#p55b45b11f4)" d="M 140.730161 273.312 
L 142.334575 273.312 
L 142.334575 227.854703 
L 140.730161 227.854703 
z
" style="fill:#1f77b4;"/>
   </g>
   <g id="patch_48">
    <path clip-path="url(#p55b45b11f4)" d="M 142.334575 273.312 
L 143.938988 273.312 
L 143.938988 216.646054 
L 142.334575 216.646054 
z
" style="fill:#1f77b4;"/>
   </g>
   <g id="patch_49">
    <path clip-path="url(#p55b45b11f4)" d="M 143.938988 273.312 
L 145.543402 273.312 
L 145.543402 220.38227 
L 143.938988 220.38227 
z
" style="fill:#1f77b4;"/>
   </g>
   <g id="patch_50">
    <path clip-path="url(#p55b45b11f4)" d="M 145.543402 273.312 
L 147.147815 273.312 
L 147.147815 207.305514 
L 145.543402 207.305514 
z
" style="fill:#1f77b4;"/>
   </g>
   <g id="patch_51">
    <path clip-path="url(#p55b45b11f4)" d="M 147.147815 273.312 
L 148.752228 273.312 
L 148.752228 212.287135 
L 147.147815 212.287135 
z
" style="fill:#1f77b4;"/>
   </g>
   <g id="patch_52">
    <path clip-path="url(#p55b45b11f4)" d="M 148.752228 273.312 
L 150.356642 273.312 
L 150.356642 215.400649 
L 148.752228 215.400649 
z
" style="fill:#1f77b4;"/>
   </g>
   <g id="patch_53">
    <path clip-path="url(#p55b45b11f4)" d="M 150.356642 273.312 
L 151.961055 273.312 
L 151.961055 219.136865 
L 150.356642 219.136865 
z
" style="fill:#1f77b4;"/>
   </g>
   <g id="patch_54">
    <path clip-path="url(#p55b45b11f4)" d="M 151.961055 273.312 
L 153.565468 273.312 
L 153.565468 211.04173 
L 151.961055 211.04173 
z
" style="fill:#1f77b4;"/>
   </g>
   <g id="patch_55">
    <path clip-path="url(#p55b45b11f4)" d="M 153.565468 273.312 
L 155.169882 273.312 
L 155.169882 206.060108 
L 153.565468 206.060108 
z
" style="fill:#1f77b4;"/>
   </g>
   <g id="patch_56">
    <path clip-path="url(#p55b45b11f4)" d="M 155.169882 273.312 
L 156.774295 273.312 
L 156.774295 206.060108 
L 155.169882 206.060108 
z
" style="fill:#1f77b4;"/>
   </g>
   <g id="patch_57">
    <path clip-path="url(#p55b45b11f4)" d="M 156.774295 273.312 
L 158.378709 273.312 
L 158.378709 207.305514 
L 156.774295 207.305514 
z
" style="fill:#1f77b4;"/>
   </g>
   <g id="patch_58">
    <path clip-path="url(#p55b45b11f4)" d="M 158.378709 273.312 
L 159.983122 273.312 
L 159.983122 207.928216 
L 158.378709 207.928216 
z
" style="fill:#1f77b4;"/>
   </g>
   <g id="patch_59">
    <path clip-path="url(#p55b45b11f4)" d="M 159.983122 273.312 
L 161.587535 273.312 
L 161.587535 189.869838 
L 159.983122 189.869838 
z
" style="fill:#1f77b4;"/>
   </g>
   <g id="patch_60">
    <path clip-path="url(#p55b45b11f4)" d="M 161.587535 273.312 
L 163.191949 273.312 
L 163.191949 190.492541 
L 161.587535 190.492541 
z
" style="fill:#1f77b4;"/>
   </g>
   <g id="patch_61">
    <path clip-path="url(#p55b45b11f4)" d="M 163.191949 273.312 
L 164.796362 273.312 
L 164.796362 199.833081 
L 163.191949 199.833081 
z
" style="fill:#1f77b4;"/>
   </g>
   <g id="patch_62">
    <path clip-path="url(#p55b45b11f4)" d="M 164.796362 273.312 
L 166.400775 273.312 
L 166.400775 195.474162 
L 164.796362 195.474162 
z
" style="fill:#1f77b4;"/>
   </g>
   <g id="patch_63">
    <path clip-path="url(#p55b45b11f4)" d="M 166.400775 273.312 
L 168.005189 273.312 
L 168.005189 202.323892 
L 166.400775 202.323892 
z
" style="fill:#1f77b4;"/>
   </g>
   <g id="patch_64">
    <path clip-path="url(#p55b45b11f4)" d="M 168.005189 273.312 
L 169.609602 273.312 
L 169.609602 197.34227 
L 168.005189 197.34227 
z
" style="fill:#1f77b4;"/>
   </g>
   <g id="patch_65">
    <path clip-path="url(#p55b45b11f4)" d="M 169.609602 273.312 
L 171.214016 273.312 
L 171.214016 200.455784 
L 169.609602 200.455784 
z
" style="fill:#1f77b4;"/>
   </g>
   <g id="patch_66">
    <path clip-path="url(#p55b45b11f4)" d="M 171.214016 273.312 
L 172.818429 273.312 
L 172.818429 206.060108 
L 171.214016 206.060108 
z
" style="fill:#1f77b4;"/>
   </g>
   <g id="patch_67">
    <path clip-path="url(#p55b45b11f4)" d="M 172.818429 273.312 
L 174.422842 273.312 
L 174.422842 189.247135 
L 172.818429 189.247135 
z
" style="fill:#1f77b4;"/>
   </g>
   <g id="patch_68">
    <path clip-path="url(#p55b45b11f4)" d="M 174.422842 273.312 
L 176.027256 273.312 
L 176.027256 192.983351 
L 174.422842 192.983351 
z
" style="fill:#1f77b4;"/>
   </g>
   <g id="patch_69">
    <path clip-path="url(#p55b45b11f4)" d="M 176.027256 273.312 
L 177.631669 273.312 
L 177.631669 172.434162 
L 176.027256 172.434162 
z
" style="fill:#1f77b4;"/>
   </g>
   <g id="patch_70">
    <path clip-path="url(#p55b45b11f4)" d="M 177.631669 273.312 
L 179.236083 273.312 
L 179.236083 194.228757 
L 177.631669 194.228757 
z
" style="fill:#1f77b4;"/>
   </g>
   <g id="patch_71">
    <path clip-path="url(#p55b45b11f4)" d="M 179.236083 273.312 
L 180.840496 273.312 
L 180.840496 173.679568 
L 179.236083 173.679568 
z
" style="fill:#1f77b4;"/>
   </g>
   <g id="patch_72">
    <path clip-path="url(#p55b45b11f4)" d="M 180.840496 273.312 
L 182.444909 273.312 
L 182.444909 179.906595 
L 180.840496 179.906595 
z
" style="fill:#1f77b4;"/>
   </g>
   <g id="patch_73">
    <path clip-path="url(#p55b45b11f4)" d="M 182.444909 273.312 
L 184.049323 273.312 
L 184.049323 176.793081 
L 182.444909 176.793081 
z
" style="fill:#1f77b4;"/>
   </g>
   <g id="patch_74">
    <path clip-path="url(#p55b45b11f4)" d="M 184.049323 273.312 
L 185.653736 273.312 
L 185.653736 182.397405 
L 184.049323 182.397405 
z
" style="fill:#1f77b4;"/>
   </g>
   <g id="patch_75">
    <path clip-path="url(#p55b45b11f4)" d="M 185.653736 273.312 
L 187.258149 273.312 
L 187.258149 187.379027 
L 185.653736 187.379027 
z
" style="fill:#1f77b4;"/>
   </g>
   <g id="patch_76">
    <path clip-path="url(#p55b45b11f4)" d="M 187.258149 273.312 
L 188.862563 273.312 
L 188.862563 184.888216 
L 187.258149 184.888216 
z
" style="fill:#1f77b4;"/>
   </g>
   <g id="patch_77">
    <path clip-path="url(#p55b45b11f4)" d="M 188.862563 273.312 
L 190.466976 273.312 
L 190.466976 170.566054 
L 188.862563 170.566054 
z
" style="fill:#1f77b4;"/>
   </g>
   <g id="patch_78">
    <path clip-path="url(#p55b45b11f4)" d="M 190.466976 273.312 
L 192.07139 273.312 
L 192.07139 186.756324 
L 190.466976 186.756324 
z
" style="fill:#1f77b4;"/>
   </g>
   <g id="patch_79">
    <path clip-path="url(#p55b45b11f4)" d="M 192.07139 273.312 
L 193.675803 273.312 
L 193.675803 175.547676 
L 192.07139 175.547676 
z
" style="fill:#1f77b4;"/>
   </g>
   <g id="patch_80">
    <path clip-path="url(#p55b45b11f4)" d="M 193.675803 273.312 
L 195.280216 273.312 
L 195.280216 173.056865 
L 193.675803 173.056865 
z
" style="fill:#1f77b4;"/>
   </g>
   <g id="patch_81">
    <path clip-path="url(#p55b45b11f4)" d="M 195.280216 273.312 
L 196.88463 273.312 
L 196.88463 174.30227 
L 195.280216 174.30227 
z
" style="fill:#1f77b4;"/>
   </g>
   <g id="patch_82">
    <path clip-path="url(#p55b45b11f4)" d="M 196.88463 273.312 
L 198.489043 273.312 
L 198.489043 169.943351 
L 196.88463 169.943351 
z
" style="fill:#1f77b4;"/>
   </g>
   <g id="patch_83">
    <path clip-path="url(#p55b45b11f4)" d="M 198.489043 273.312 
L 200.093456 273.312 
L 200.093456 175.547676 
L 198.489043 175.547676 
z
" style="fill:#1f77b4;"/>
   </g>
   <g id="patch_84">
    <path clip-path="url(#p55b45b11f4)" d="M 200.093456 273.312 
L 201.69787 273.312 
L 201.69787 167.452541 
L 200.093456 167.452541 
z
" style="fill:#1f77b4;"/>
   </g>
   <g id="patch_85">
    <path clip-path="url(#p55b45b11f4)" d="M 201.69787 273.312 
L 203.302283 273.312 
L 203.302283 173.056865 
L 201.69787 173.056865 
z
" style="fill:#1f77b4;"/>
   </g>
   <g id="patch_86">
    <path clip-path="url(#p55b45b11f4)" d="M 203.302283 273.312 
L 204.906697 273.312 
L 204.906697 166.829838 
L 203.302283 166.829838 
z
" style="fill:#1f77b4;"/>
   </g>
   <g id="patch_87">
    <path clip-path="url(#p55b45b11f4)" d="M 204.906697 273.312 
L 206.51111 273.312 
L 206.51111 164.339027 
L 204.906697 164.339027 
z
" style="fill:#1f77b4;"/>
   </g>
   <g id="patch_88">
    <path clip-path="url(#p55b45b11f4)" d="M 206.51111 273.312 
L 208.115523 273.312 
L 208.115523 148.148757 
L 206.51111 148.148757 
z
" style="fill:#1f77b4;"/>
   </g>
   <g id="patch_89">
    <path clip-path="url(#p55b45b11f4)" d="M 208.115523 273.312 
L 209.719937 273.312 
L 209.719937 158.112 
L 208.115523 158.112 
z
" style="fill:#1f77b4;"/>
   </g>
   <g id="patch_90">
    <path clip-path="url(#p55b45b11f4)" d="M 209.719937 273.312 
L 211.32435 273.312 
L 211.32435 173.679568 
L 209.719937 173.679568 
z
" style="fill:#1f77b4;"/>
   </g>
   <g id="patch_91">
    <path clip-path="url(#p55b45b11f4)" d="M 211.32435 273.312 
L 212.928763 273.312 
L 212.928763 150.639568 
L 211.32435 150.639568 
z
" style="fill:#1f77b4;"/>
   </g>
   <g id="patch_92">
    <path clip-path="url(#p55b45b11f4)" d="M 212.928763 273.312 
L 214.533177 273.312 
L 214.533177 176.170378 
L 212.928763 176.170378 
z
" style="fill:#1f77b4;"/>
   </g>
   <g id="patch_93">
    <path clip-path="url(#p55b45b11f4)" d="M 214.533177 273.312 
L 216.13759 273.312 
L 216.13759 159.357405 
L 214.533177 159.357405 
z
" style="fill:#1f77b4;"/>
   </g>
   <g id="patch_94">
    <path clip-path="url(#p55b45b11f4)" d="M 216.13759 273.312 
L 217.742004 273.312 
L 217.742004 169.320649 
L 216.13759 169.320649 
z
" style="fill:#1f77b4;"/>
   </g>
   <g id="patch_95">
    <path clip-path="url(#p55b45b11f4)" d="M 217.742004 273.312 
L 219.346417 273.312 
L 219.346417 153.753081 
L 217.742004 153.753081 
z
" style="fill:#1f77b4;"/>
   </g>
   <g id="patch_96">
    <path clip-path="url(#p55b45b11f4)" d="M 219.346417 273.312 
L 220.95083 273.312 
L 220.95083 167.452541 
L 219.346417 167.452541 
z
" style="fill:#1f77b4;"/>
   </g>
   <g id="patch_97">
    <path clip-path="url(#p55b45b11f4)" d="M 220.95083 273.312 
L 222.555244 273.312 
L 222.555244 161.848216 
L 220.95083 161.848216 
z
" style="fill:#1f77b4;"/>
   </g>
   <g id="patch_98">
    <path clip-path="url(#p55b45b11f4)" d="M 222.555244 273.312 
L 224.159657 273.312 
L 224.159657 154.375784 
L 222.555244 154.375784 
z
" style="fill:#1f77b4;"/>
   </g>
   <g id="patch_99">
    <path clip-path="url(#p55b45b11f4)" d="M 224.159657 273.312 
L 225.76407 273.312 
L 225.76407 156.243892 
L 224.159657 156.243892 
z
" style="fill:#1f77b4;"/>
   </g>
   <g id="patch_100">
    <path clip-path="url(#p55b45b11f4)" d="M 225.76407 273.312 
L 227.368484 273.312 
L 227.368484 143.789838 
L 225.76407 143.789838 
z
" style="fill:#1f77b4;"/>
   </g>
   <g id="patch_101">
    <path clip-path="url(#p55b45b11f4)" d="M 227.368484 273.312 
L 228.972897 273.312 
L 228.972897 135.072 
L 227.368484 135.072 
z
" style="fill:#1f77b4;"/>
   </g>
   <g id="patch_102">
    <path clip-path="url(#p55b45b11f4)" d="M 228.972897 273.312 
L 230.577311 273.312 
L 230.577311 165.584432 
L 228.972897 165.584432 
z
" style="fill:#1f77b4;"/>
   </g>
   <g id="patch_103">
    <path clip-path="url(#p55b45b11f4)" d="M 230.577311 273.312 
L 232.181724 273.312 
L 232.181724 156.866595 
L 230.577311 156.866595 
z
" style="fill:#1f77b4;"/>
   </g>
   <g id="patch_104">
    <path clip-path="url(#p55b45b11f4)" d="M 232.181724 273.312 
L 233.786137 273.312 
L 233.786137 131.335784 
L 232.181724 131.335784 
z
" style="fill:#1f77b4;"/>
   </g>
   <g id="patch_105">
    <path clip-path="url(#p55b45b11f4)" d="M 233.786137 273.312 
L 235.390551 273.312 
L 235.390551 145.657946 
L 233.786137 145.657946 
z
" style="fill:#1f77b4;"/>
   </g>
   <g id="patch_106">
    <path clip-path="url(#p55b45b11f4)" d="M 235.390551 273.312 
L 236.994964 273.312 
L 236.994964 157.489297 
L 235.390551 157.489297 
z
" style="fill:#1f77b4;"/>
   </g>
   <g id="patch_107">
    <path clip-path="url(#p55b45b11f4)" d="M 236.994964 273.312 
L 238.599377 273.312 
L 238.599377 156.866595 
L 236.994964 156.866595 
z
" style="fill:#1f77b4;"/>
   </g>
   <g id="patch_108">
    <path clip-path="url(#p55b45b11f4)" d="M 238.599377 273.312 
L 240.203791 273.312 
L 240.203791 157.489297 
L 238.599377 157.489297 
z
" style="fill:#1f77b4;"/>
   </g>
   <g id="patch_109">
    <path clip-path="url(#p55b45b11f4)" d="M 240.203791 273.312 
L 241.808204 273.312 
L 241.808204 138.808216 
L 240.203791 138.808216 
z
" style="fill:#1f77b4;"/>
   </g>
   <g id="patch_110">
    <path clip-path="url(#p55b45b11f4)" d="M 241.808204 273.312 
L 243.412618 273.312 
L 243.412618 128.844973 
L 241.808204 128.844973 
z
" style="fill:#1f77b4;"/>
   </g>
   <g id="patch_111">
    <path clip-path="url(#p55b45b11f4)" d="M 243.412618 273.312 
L 245.017031 273.312 
L 245.017031 131.335784 
L 243.412618 131.335784 
z
" style="fill:#1f77b4;"/>
   </g>
   <g id="patch_112">
    <path clip-path="url(#p55b45b11f4)" d="M 245.017031 273.312 
L 246.621444 273.312 
L 246.621444 136.317405 
L 245.017031 136.317405 
z
" style="fill:#1f77b4;"/>
   </g>
   <g id="patch_113">
    <path clip-path="url(#p55b45b11f4)" d="M 246.621444 273.312 
L 248.225858 273.312 
L 248.225858 150.016865 
L 246.621444 150.016865 
z
" style="fill:#1f77b4;"/>
   </g>
   <g id="patch_114">
    <path clip-path="url(#p55b45b11f4)" d="M 248.225858 273.312 
L 249.830271 273.312 
L 249.830271 140.053622 
L 248.225858 140.053622 
z
" style="fill:#1f77b4;"/>
   </g>
   <g id="patch_115">
    <path clip-path="url(#p55b45b11f4)" d="M 249.830271 273.312 
L 251.434684 273.312 
L 251.434684 115.145514 
L 249.830271 115.145514 
z
" style="fill:#1f77b4;"/>
   </g>
   <g id="patch_116">
    <path clip-path="url(#p55b45b11f4)" d="M 251.434684 273.312 
L 253.039098 273.312 
L 253.039098 123.240649 
L 251.434684 123.240649 
z
" style="fill:#1f77b4;"/>
   </g>
   <g id="patch_117">
    <path clip-path="url(#p55b45b11f4)" d="M 253.039098 273.312 
L 254.643511 273.312 
L 254.643511 128.844973 
L 253.039098 128.844973 
z
" style="fill:#1f77b4;"/>
   </g>
   <g id="patch_118">
    <path clip-path="url(#p55b45b11f4)" d="M 254.643511 273.312 
L 256.247925 273.312 
L 256.247925 117.013622 
L 254.643511 117.013622 
z
" style="fill:#1f77b4;"/>
   </g>
   <g id="patch_119">
    <path clip-path="url(#p55b45b11f4)" d="M 256.247925 273.312 
L 257.852338 273.312 
L 257.852338 121.372541 
L 256.247925 121.372541 
z
" style="fill:#1f77b4;"/>
   </g>
   <g id="patch_120">
    <path clip-path="url(#p55b45b11f4)" d="M 257.852338 273.312 
L 259.456751 273.312 
L 259.456751 128.22227 
L 257.852338 128.22227 
z
" style="fill:#1f77b4;"/>
   </g>
   <g id="patch_121">
    <path clip-path="url(#p55b45b11f4)" d="M 259.456751 273.312 
L 261.061165 273.312 
L 261.061165 117.636324 
L 259.456751 117.636324 
z
" style="fill:#1f77b4;"/>
   </g>
   <g id="patch_122">
    <path clip-path="url(#p55b45b11f4)" d="M 261.061165 273.312 
L 262.665578 273.312 
L 262.665578 124.486054 
L 261.061165 124.486054 
z
" style="fill:#1f77b4;"/>
   </g>
   <g id="patch_123">
    <path clip-path="url(#p55b45b11f4)" d="M 262.665578 273.312 
L 264.269991 273.312 
L 264.269991 115.768216 
L 262.665578 115.768216 
z
" style="fill:#1f77b4;"/>
   </g>
   <g id="patch_124">
    <path clip-path="url(#p55b45b11f4)" d="M 264.269991 273.312 
L 265.874405 273.312 
L 265.874405 117.636324 
L 264.269991 117.636324 
z
" style="fill:#1f77b4;"/>
   </g>
   <g id="patch_125">
    <path clip-path="url(#p55b45b11f4)" d="M 265.874405 273.312 
L 267.478818 273.312 
L 267.478818 119.504432 
L 265.874405 119.504432 
z
" style="fill:#1f77b4;"/>
   </g>
   <g id="patch_126">
    <path clip-path="url(#p55b45b11f4)" d="M 267.478818 273.312 
L 269.083232 273.312 
L 269.083232 140.053622 
L 267.478818 140.053622 
z
" style="fill:#1f77b4;"/>
   </g>
   <g id="patch_127">
    <path clip-path="url(#p55b45b11f4)" d="M 269.083232 273.312 
L 270.687645 273.312 
L 270.687645 135.072 
L 269.083232 135.072 
z
" style="fill:#1f77b4;"/>
   </g>
   <g id="patch_128">
    <path clip-path="url(#p55b45b11f4)" d="M 270.687645 273.312 
L 272.292058 273.312 
L 272.292058 100.823351 
L 270.687645 100.823351 
z
" style="fill:#1f77b4;"/>
   </g>
   <g id="patch_129">
    <path clip-path="url(#p55b45b11f4)" d="M 272.292058 273.312 
L 273.896472 273.312 
L 273.896472 112.654703 
L 272.292058 112.654703 
z
" style="fill:#1f77b4;"/>
   </g>
   <g id="patch_130">
    <path clip-path="url(#p55b45b11f4)" d="M 273.896472 273.312 
L 275.500885 273.312 
L 275.500885 93.973622 
L 273.896472 93.973622 
z
" style="fill:#1f77b4;"/>
   </g>
   <g id="patch_131">
    <path clip-path="url(#p55b45b11f4)" d="M 275.500885 273.312 
L 277.105298 273.312 
L 277.105298 129.467676 
L 275.500885 129.467676 
z
" style="fill:#1f77b4;"/>
   </g>
   <g id="patch_132">
    <path clip-path="url(#p55b45b11f4)" d="M 277.105298 273.312 
L 278.709712 273.312 
L 278.709712 105.804973 
L 277.105298 105.804973 
z
" style="fill:#1f77b4;"/>
   </g>
   <g id="patch_133">
    <path clip-path="url(#p55b45b11f4)" d="M 278.709712 273.312 
L 280.314125 273.312 
L 280.314125 115.768216 
L 278.709712 115.768216 
z
" style="fill:#1f77b4;"/>
   </g>
   <g id="patch_134">
    <path clip-path="url(#p55b45b11f4)" d="M 280.314125 273.312 
L 281.918539 273.312 
L 281.918539 105.804973 
L 280.314125 105.804973 
z
" style="fill:#1f77b4;"/>
   </g>
   <g id="patch_135">
    <path clip-path="url(#p55b45b11f4)" d="M 281.918539 273.312 
L 283.522952 273.312 
L 283.522952 92.105514 
L 281.918539 92.105514 
z
" style="fill:#1f77b4;"/>
   </g>
   <g id="patch_136">
    <path clip-path="url(#p55b45b11f4)" d="M 283.522952 273.312 
L 285.127365 273.312 
L 285.127365 97.709838 
L 283.522952 97.709838 
z
" style="fill:#1f77b4;"/>
   </g>
   <g id="patch_137">
    <path clip-path="url(#p55b45b11f4)" d="M 285.127365 273.312 
L 286.731779 273.312 
L 286.731779 95.84173 
L 285.127365 95.84173 
z
" style="fill:#1f77b4;"/>
   </g>
   <g id="patch_138">
    <path clip-path="url(#p55b45b11f4)" d="M 286.731779 273.312 
L 288.336192 273.312 
L 288.336192 95.84173 
L 286.731779 95.84173 
z
" style="fill:#1f77b4;"/>
   </g>
   <g id="patch_139">
    <path clip-path="url(#p55b45b11f4)" d="M 288.336192 273.312 
L 289.940605 273.312 
L 289.940605 98.955243 
L 288.336192 98.955243 
z
" style="fill:#1f77b4;"/>
   </g>
   <g id="patch_140">
    <path clip-path="url(#p55b45b11f4)" d="M 289.940605 273.312 
L 291.545019 273.312 
L 291.545019 105.804973 
L 289.940605 105.804973 
z
" style="fill:#1f77b4;"/>
   </g>
   <g id="patch_141">
    <path clip-path="url(#p55b45b11f4)" d="M 291.545019 273.312 
L 293.149432 273.312 
L 293.149432 97.087135 
L 291.545019 97.087135 
z
" style="fill:#1f77b4;"/>
   </g>
   <g id="patch_142">
    <path clip-path="url(#p55b45b11f4)" d="M 293.149432 273.312 
L 294.753846 273.312 
L 294.753846 115.145514 
L 293.149432 115.145514 
z
" style="fill:#1f77b4;"/>
   </g>
   <g id="patch_143">
    <path clip-path="url(#p55b45b11f4)" d="M 294.753846 273.312 
L 296.358259 273.312 
L 296.358259 108.918486 
L 294.753846 108.918486 
z
" style="fill:#1f77b4;"/>
   </g>
   <g id="patch_144">
    <path clip-path="url(#p55b45b11f4)" d="M 296.358259 273.312 
L 297.962672 273.312 
L 297.962672 93.350919 
L 296.358259 93.350919 
z
" style="fill:#1f77b4;"/>
   </g>
   <g id="patch_145">
    <path clip-path="url(#p55b45b11f4)" d="M 297.962672 273.312 
L 299.567086 273.312 
L 299.567086 97.087135 
L 297.962672 97.087135 
z
" style="fill:#1f77b4;"/>
   </g>
   <g id="patch_146">
    <path clip-path="url(#p55b45b11f4)" d="M 299.567086 273.312 
L 301.171499 273.312 
L 301.171499 103.314162 
L 299.567086 103.314162 
z
" style="fill:#1f77b4;"/>
   </g>
   <g id="patch_147">
    <path clip-path="url(#p55b45b11f4)" d="M 301.171499 273.312 
L 302.775913 273.312 
L 302.775913 100.200649 
L 301.171499 100.200649 
z
" style="fill:#1f77b4;"/>
   </g>
   <g id="patch_148">
    <path clip-path="url(#p55b45b11f4)" d="M 302.775913 273.312 
L 304.380326 273.312 
L 304.380326 114.522811 
L 302.775913 114.522811 
z
" style="fill:#1f77b4;"/>
   </g>
   <g id="patch_149">
    <path clip-path="url(#p55b45b11f4)" d="M 304.380326 273.312 
L 305.984739 273.312 
L 305.984739 86.501189 
L 304.380326 86.501189 
z
" style="fill:#1f77b4;"/>
   </g>
   <g id="patch_150">
    <path clip-path="url(#p55b45b11f4)" d="M 305.984739 273.312 
L 307.589153 273.312 
L 307.589153 90.237405 
L 305.984739 90.237405 
z
" style="fill:#1f77b4;"/>
   </g>
   <g id="patch_151">
    <path clip-path="url(#p55b45b11f4)" d="M 307.589153 273.312 
L 309.193566 273.312 
L 309.193566 102.691459 
L 307.589153 102.691459 
z
" style="fill:#1f77b4;"/>
   </g>
   <g id="patch_152">
    <path clip-path="url(#p55b45b11f4)" d="M 309.193566 273.312 
L 310.797979 273.312 
L 310.797979 92.728216 
L 309.193566 92.728216 
z
" style="fill:#1f77b4;"/>
   </g>
   <g id="patch_153">
    <path clip-path="url(#p55b45b11f4)" d="M 310.797979 273.312 
L 312.402393 273.312 
L 312.402393 64.706595 
L 310.797979 64.706595 
z
" style="fill:#1f77b4;"/>
   </g>
   <g id="patch_154">
    <path clip-path="url(#p55b45b11f4)" d="M 312.402393 273.312 
L 314.006806 273.312 
L 314.006806 77.783351 
L 312.402393 77.783351 
z
" style="fill:#1f77b4;"/>
   </g>
   <g id="patch_155">
    <path clip-path="url(#p55b45b11f4)" d="M 314.006806 273.312 
L 315.61122 273.312 
L 315.61122 93.973622 
L 314.006806 93.973622 
z
" style="fill:#1f77b4;"/>
   </g>
   <g id="patch_156">
    <path clip-path="url(#p55b45b11f4)" d="M 315.61122 273.312 
L 317.215633 273.312 
L 317.215633 84.633081 
L 315.61122 84.633081 
z
" style="fill:#1f77b4;"/>
   </g>
   <g id="patch_157">
    <path clip-path="url(#p55b45b11f4)" d="M 317.215633 273.312 
L 318.820046 273.312 
L 318.820046 76.537946 
L 317.215633 76.537946 
z
" style="fill:#1f77b4;"/>
   </g>
   <g id="patch_158">
    <path clip-path="url(#p55b45b11f4)" d="M 318.820046 273.312 
L 320.42446 273.312 
L 320.42446 63.461189 
L 318.820046 63.461189 
z
" style="fill:#1f77b4;"/>
   </g>
   <g id="patch_159">
    <path clip-path="url(#p55b45b11f4)" d="M 320.42446 273.312 
L 322.028873 273.312 
L 322.028873 68.442811 
L 320.42446 68.442811 
z
" style="fill:#1f77b4;"/>
   </g>
   <g id="patch_160">
    <path clip-path="url(#p55b45b11f4)" d="M 322.028873 273.312 
L 323.633286 273.312 
L 323.633286 67.197405 
L 322.028873 67.197405 
z
" style="fill:#1f77b4;"/>
   </g>
   <g id="patch_161">
    <path clip-path="url(#p55b45b11f4)" d="M 323.633286 273.312 
L 325.2377 273.312 
L 325.2377 75.915243 
L 323.633286 75.915243 
z
" style="fill:#1f77b4;"/>
   </g>
   <g id="patch_162">
    <path clip-path="url(#p55b45b11f4)" d="M 325.2377 273.312 
L 326.842113 273.312 
L 326.842113 69.065514 
L 325.2377 69.065514 
z
" style="fill:#1f77b4;"/>
   </g>
   <g id="patch_163">
    <path clip-path="url(#p55b45b11f4)" d="M 326.842113 273.312 
L 328.446527 273.312 
L 328.446527 79.028757 
L 326.842113 79.028757 
z
" style="fill:#1f77b4;"/>
   </g>
   <g id="patch_164">
    <path clip-path="url(#p55b45b11f4)" d="M 328.446527 273.312 
L 330.05094 273.312 
L 330.05094 62.838486 
L 328.446527 62.838486 
z
" style="fill:#1f77b4;"/>
   </g>
   <g id="patch_165">
    <path clip-path="url(#p55b45b11f4)" d="M 330.05094 273.312 
L 331.655353 273.312 
L 331.655353 82.14227 
L 330.05094 82.14227 
z
" style="fill:#1f77b4;"/>
   </g>
   <g id="patch_166">
    <path clip-path="url(#p55b45b11f4)" d="M 331.655353 273.312 
L 333.259767 273.312 
L 333.259767 85.878486 
L 331.655353 85.878486 
z
" style="fill:#1f77b4;"/>
   </g>
   <g id="patch_167">
    <path clip-path="url(#p55b45b11f4)" d="M 333.259767 273.312 
L 334.86418 273.312 
L 334.86418 64.083892 
L 333.259767 64.083892 
z
" style="fill:#1f77b4;"/>
   </g>
   <g id="patch_168">
    <path clip-path="url(#p55b45b11f4)" d="M 334.86418 273.312 
L 336.468593 273.312 
L 336.468593 68.442811 
L 334.86418 68.442811 
z
" style="fill:#1f77b4;"/>
   </g>
   <g id="patch_169">
    <path clip-path="url(#p55b45b11f4)" d="M 336.468593 273.312 
L 338.073007 273.312 
L 338.073007 76.537946 
L 336.468593 76.537946 
z
" style="fill:#1f77b4;"/>
   </g>
   <g id="patch_170">
    <path clip-path="url(#p55b45b11f4)" d="M 338.073007 273.312 
L 339.67742 273.312 
L 339.67742 74.047135 
L 338.073007 74.047135 
z
" style="fill:#1f77b4;"/>
   </g>
   <g id="patch_171">
    <path clip-path="url(#p55b45b11f4)" d="M 339.67742 273.312 
L 341.281834 273.312 
L 341.281834 70.933622 
L 339.67742 70.933622 
z
" style="fill:#1f77b4;"/>
   </g>
   <g id="patch_172">
    <path clip-path="url(#p55b45b11f4)" d="M 341.281834 273.312 
L 342.886247 273.312 
L 342.886247 65.329297 
L 341.281834 65.329297 
z
" style="fill:#1f77b4;"/>
   </g>
   <g id="patch_173">
    <path clip-path="url(#p55b45b11f4)" d="M 342.886247 273.312 
L 344.49066 273.312 
L 344.49066 55.366054 
L 342.886247 55.366054 
z
" style="fill:#1f77b4;"/>
   </g>
   <g id="patch_174">
    <path clip-path="url(#p55b45b11f4)" d="M 344.49066 273.312 
L 346.095074 273.312 
L 346.095074 49.139027 
L 344.49066 49.139027 
z
" style="fill:#1f77b4;"/>
   </g>
   <g id="patch_175">
    <path clip-path="url(#p55b45b11f4)" d="M 346.095074 273.312 
L 347.699487 273.312 
L 347.699487 88.369297 
L 346.095074 88.369297 
z
" style="fill:#1f77b4;"/>
   </g>
   <g id="patch_176">
    <path clip-path="url(#p55b45b11f4)" d="M 347.699487 273.312 
L 349.3039 273.312 
L 349.3039 63.461189 
L 347.699487 63.461189 
z
" style="fill:#1f77b4;"/>
   </g>
   <g id="patch_177">
    <path clip-path="url(#p55b45b11f4)" d="M 349.3039 273.312 
L 350.908314 273.312 
L 350.908314 47.893622 
L 349.3039 47.893622 
z
" style="fill:#1f77b4;"/>
   </g>
   <g id="patch_178">
    <path clip-path="url(#p55b45b11f4)" d="M 350.908314 273.312 
L 352.512727 273.312 
L 352.512727 69.688216 
L 350.908314 69.688216 
z
" style="fill:#1f77b4;"/>
   </g>
   <g id="patch_179">
    <path clip-path="url(#p55b45b11f4)" d="M 352.512727 273.312 
L 354.117141 273.312 
L 354.117141 46.648216 
L 352.512727 46.648216 
z
" style="fill:#1f77b4;"/>
   </g>
   <g id="patch_180">
    <path clip-path="url(#p55b45b11f4)" d="M 354.117141 273.312 
L 355.721554 273.312 
L 355.721554 49.76173 
L 354.117141 49.76173 
z
" style="fill:#1f77b4;"/>
   </g>
   <g id="patch_181">
    <path clip-path="url(#p55b45b11f4)" d="M 355.721554 273.312 
L 357.325967 273.312 
L 357.325967 54.120649 
L 355.721554 54.120649 
z
" style="fill:#1f77b4;"/>
   </g>
   <g id="patch_182">
    <path clip-path="url(#p55b45b11f4)" d="M 357.325967 273.312 
L 358.930381 273.312 
L 358.930381 69.065514 
L 357.325967 69.065514 
z
" style="fill:#1f77b4;"/>
   </g>
   <g id="patch_183">
    <path clip-path="url(#p55b45b11f4)" d="M 358.930381 273.312 
L 360.534794 273.312 
L 360.534794 37.930378 
L 358.930381 37.930378 
z
" style="fill:#1f77b4;"/>
   </g>
   <g id="patch_184">
    <path clip-path="url(#p55b45b11f4)" d="M 360.534794 273.312 
L 362.139207 273.312 
L 362.139207 55.988757 
L 360.534794 55.988757 
z
" style="fill:#1f77b4;"/>
   </g>
   <g id="patch_185">
    <path clip-path="url(#p55b45b11f4)" d="M 362.139207 273.312 
L 363.743621 273.312 
L 363.743621 50.384432 
L 362.139207 50.384432 
z
" style="fill:#1f77b4;"/>
   </g>
   <g id="patch_186">
    <path clip-path="url(#p55b45b11f4)" d="M 363.743621 273.312 
L 365.348034 273.312 
L 365.348034 54.120649 
L 363.743621 54.120649 
z
" style="fill:#1f77b4;"/>
   </g>
   <g id="patch_187">
    <path clip-path="url(#p55b45b11f4)" d="M 365.348034 273.312 
L 366.952448 273.312 
L 366.952448 54.743351 
L 365.348034 54.743351 
z
" style="fill:#1f77b4;"/>
   </g>
   <g id="patch_188">
    <path clip-path="url(#p55b45b11f4)" d="M 366.952448 273.312 
L 368.556861 273.312 
L 368.556861 37.307676 
L 366.952448 37.307676 
z
" style="fill:#1f77b4;"/>
   </g>
   <g id="patch_189">
    <path clip-path="url(#p55b45b11f4)" d="M 368.556861 273.312 
L 370.161274 273.312 
L 370.161274 42.912 
L 368.556861 42.912 
z
" style="fill:#1f77b4;"/>
   </g>
   <g id="patch_190">
    <path clip-path="url(#p55b45b11f4)" d="M 370.161274 273.312 
L 371.765688 273.312 
L 371.765688 42.289297 
L 370.161274 42.289297 
z
" style="fill:#1f77b4;"/>
   </g>
   <g id="patch_191">
    <path clip-path="url(#p55b45b11f4)" d="M 371.765688 273.312 
L 373.370101 273.312 
L 373.370101 44.157405 
L 371.765688 44.157405 
z
" style="fill:#1f77b4;"/>
   </g>
   <g id="patch_192">
    <path clip-path="url(#p55b45b11f4)" d="M 373.370101 273.312 
L 374.974514 273.312 
L 374.974514 55.988757 
L 373.370101 55.988757 
z
" style="fill:#1f77b4;"/>
   </g>
   <g id="patch_193">
    <path clip-path="url(#p55b45b11f4)" d="M 374.974514 273.312 
L 376.578928 273.312 
L 376.578928 36.06227 
L 374.974514 36.06227 
z
" style="fill:#1f77b4;"/>
   </g>
   <g id="patch_194">
    <path clip-path="url(#p55b45b11f4)" d="M 376.578928 273.312 
L 378.183341 273.312 
L 378.183341 41.666595 
L 376.578928 41.666595 
z
" style="fill:#1f77b4;"/>
   </g>
   <g id="patch_195">
    <path clip-path="url(#p55b45b11f4)" d="M 378.183341 273.312 
L 379.787755 273.312 
L 379.787755 40.421189 
L 378.183341 40.421189 
z
" style="fill:#1f77b4;"/>
   </g>
   <g id="patch_196">
    <path clip-path="url(#p55b45b11f4)" d="M 379.787755 273.312 
L 381.392168 273.312 
L 381.392168 27.344432 
L 379.787755 27.344432 
z
" style="fill:#1f77b4;"/>
   </g>
   <g id="patch_197">
    <path clip-path="url(#p55b45b11f4)" d="M 381.392168 273.312 
L 382.996581 273.312 
L 382.996581 39.798486 
L 381.392168 39.798486 
z
" style="fill:#1f77b4;"/>
   </g>
   <g id="patch_198">
    <path clip-path="url(#p55b45b11f4)" d="M 382.996581 273.312 
L 384.600995 273.312 
L 384.600995 34.194162 
L 382.996581 34.194162 
z
" style="fill:#1f77b4;"/>
   </g>
   <g id="patch_199">
    <path clip-path="url(#p55b45b11f4)" d="M 384.600995 273.312 
L 386.205408 273.312 
L 386.205408 19.872 
L 384.600995 19.872 
z
" style="fill:#1f77b4;"/>
   </g>
   <g id="patch_200">
    <path clip-path="url(#p55b45b11f4)" d="M 386.205408 273.312 
L 387.809821 273.312 
L 387.809821 31.080649 
L 386.205408 31.080649 
z
" style="fill:#1f77b4;"/>
   </g>
   <g id="patch_201">
    <path clip-path="url(#p55b45b11f4)" d="M 387.809821 273.312 
L 389.414235 273.312 
L 389.414235 24.230919 
L 387.809821 24.230919 
z
" style="fill:#1f77b4;"/>
   </g>
   <g id="patch_202">
    <path clip-path="url(#p55b45b11f4)" d="M 389.414235 273.312 
L 391.018648 273.312 
L 391.018648 26.099027 
L 389.414235 26.099027 
z
" style="fill:#1f77b4;"/>
   </g>
   <g id="matplotlib.axis_1">
    <g id="xtick_1">
     <g id="line2d_1">
      <defs>
       <path d="M 0 0 
L 0 3.5 
" id="m8f96e1185e" style="stroke:#000000;stroke-width:0.8;"/>
      </defs>
      <g>
       <use style="stroke:#000000;stroke-width:0.8;" x="66.376477" xlink:href="#m8f96e1185e" y="273.312"/>
      </g>
     </g>
     <g id="text_1">
      <!-- 0.0 -->
      <g transform="translate(58.424915 287.910437)scale(0.1 -0.1)">
       <defs>
        <path d="M 2034 4250 
Q 1547 4250 1301 3770 
Q 1056 3291 1056 2328 
Q 1056 1369 1301 889 
Q 1547 409 2034 409 
Q 2525 409 2770 889 
Q 3016 1369 3016 2328 
Q 3016 3291 2770 3770 
Q 2525 4250 2034 4250 
z
M 2034 4750 
Q 2819 4750 3233 4129 
Q 3647 3509 3647 2328 
Q 3647 1150 3233 529 
Q 2819 -91 2034 -91 
Q 1250 -91 836 529 
Q 422 1150 422 2328 
Q 422 3509 836 4129 
Q 1250 4750 2034 4750 
z
" id="DejaVuSans-30" transform="scale(0.015625)"/>
        <path d="M 684 794 
L 1344 794 
L 1344 0 
L 684 0 
L 684 794 
z
" id="DejaVuSans-2e" transform="scale(0.015625)"/>
       </defs>
       <use xlink:href="#DejaVuSans-30"/>
       <use x="63.623047" xlink:href="#DejaVuSans-2e"/>
       <use x="95.410156" xlink:href="#DejaVuSans-30"/>
      </g>
     </g>
    </g>
    <g id="xtick_2">
     <g id="line2d_2">
      <g>
       <use style="stroke:#000000;stroke-width:0.8;" x="131.307386" xlink:href="#m8f96e1185e" y="273.312"/>
      </g>
     </g>
     <g id="text_2">
      <!-- 0.2 -->
      <g transform="translate(123.355824 287.910437)scale(0.1 -0.1)">
       <defs>
        <path d="M 1228 531 
L 3431 531 
L 3431 0 
L 469 0 
L 469 531 
Q 828 903 1448 1529 
Q 2069 2156 2228 2338 
Q 2531 2678 2651 2914 
Q 2772 3150 2772 3378 
Q 2772 3750 2511 3984 
Q 2250 4219 1831 4219 
Q 1534 4219 1204 4116 
Q 875 4013 500 3803 
L 500 4441 
Q 881 4594 1212 4672 
Q 1544 4750 1819 4750 
Q 2544 4750 2975 4387 
Q 3406 4025 3406 3419 
Q 3406 3131 3298 2873 
Q 3191 2616 2906 2266 
Q 2828 2175 2409 1742 
Q 1991 1309 1228 531 
z
" id="DejaVuSans-32" transform="scale(0.015625)"/>
       </defs>
       <use xlink:href="#DejaVuSans-30"/>
       <use x="63.623047" xlink:href="#DejaVuSans-2e"/>
       <use x="95.410156" xlink:href="#DejaVuSans-32"/>
      </g>
     </g>
    </g>
    <g id="xtick_3">
     <g id="line2d_3">
      <g>
       <use style="stroke:#000000;stroke-width:0.8;" x="196.238295" xlink:href="#m8f96e1185e" y="273.312"/>
      </g>
     </g>
     <g id="text_3">
      <!-- 0.4 -->
      <g transform="translate(188.286733 287.910437)scale(0.1 -0.1)">
       <defs>
        <path d="M 2419 4116 
L 825 1625 
L 2419 1625 
L 2419 4116 
z
M 2253 4666 
L 3047 4666 
L 3047 1625 
L 3713 1625 
L 3713 1100 
L 3047 1100 
L 3047 0 
L 2419 0 
L 2419 1100 
L 313 1100 
L 313 1709 
L 2253 4666 
z
" id="DejaVuSans-34" transform="scale(0.015625)"/>
       </defs>
       <use xlink:href="#DejaVuSans-30"/>
       <use x="63.623047" xlink:href="#DejaVuSans-2e"/>
       <use x="95.410156" xlink:href="#DejaVuSans-34"/>
      </g>
     </g>
    </g>
    <g id="xtick_4">
     <g id="line2d_4">
      <g>
       <use style="stroke:#000000;stroke-width:0.8;" x="261.169205" xlink:href="#m8f96e1185e" y="273.312"/>
      </g>
     </g>
     <g id="text_4">
      <!-- 0.6 -->
      <g transform="translate(253.217642 287.910437)scale(0.1 -0.1)">
       <defs>
        <path d="M 2113 2584 
Q 1688 2584 1439 2293 
Q 1191 2003 1191 1497 
Q 1191 994 1439 701 
Q 1688 409 2113 409 
Q 2538 409 2786 701 
Q 3034 994 3034 1497 
Q 3034 2003 2786 2293 
Q 2538 2584 2113 2584 
z
M 3366 4563 
L 3366 3988 
Q 3128 4100 2886 4159 
Q 2644 4219 2406 4219 
Q 1781 4219 1451 3797 
Q 1122 3375 1075 2522 
Q 1259 2794 1537 2939 
Q 1816 3084 2150 3084 
Q 2853 3084 3261 2657 
Q 3669 2231 3669 1497 
Q 3669 778 3244 343 
Q 2819 -91 2113 -91 
Q 1303 -91 875 529 
Q 447 1150 447 2328 
Q 447 3434 972 4092 
Q 1497 4750 2381 4750 
Q 2619 4750 2861 4703 
Q 3103 4656 3366 4563 
z
" id="DejaVuSans-36" transform="scale(0.015625)"/>
       </defs>
       <use xlink:href="#DejaVuSans-30"/>
       <use x="63.623047" xlink:href="#DejaVuSans-2e"/>
       <use x="95.410156" xlink:href="#DejaVuSans-36"/>
      </g>
     </g>
    </g>
    <g id="xtick_5">
     <g id="line2d_5">
      <g>
       <use style="stroke:#000000;stroke-width:0.8;" x="326.100114" xlink:href="#m8f96e1185e" y="273.312"/>
      </g>
     </g>
     <g id="text_5">
      <!-- 0.8 -->
      <g transform="translate(318.148551 287.910437)scale(0.1 -0.1)">
       <defs>
        <path d="M 2034 2216 
Q 1584 2216 1326 1975 
Q 1069 1734 1069 1313 
Q 1069 891 1326 650 
Q 1584 409 2034 409 
Q 2484 409 2743 651 
Q 3003 894 3003 1313 
Q 3003 1734 2745 1975 
Q 2488 2216 2034 2216 
z
M 1403 2484 
Q 997 2584 770 2862 
Q 544 3141 544 3541 
Q 544 4100 942 4425 
Q 1341 4750 2034 4750 
Q 2731 4750 3128 4425 
Q 3525 4100 3525 3541 
Q 3525 3141 3298 2862 
Q 3072 2584 2669 2484 
Q 3125 2378 3379 2068 
Q 3634 1759 3634 1313 
Q 3634 634 3220 271 
Q 2806 -91 2034 -91 
Q 1263 -91 848 271 
Q 434 634 434 1313 
Q 434 1759 690 2068 
Q 947 2378 1403 2484 
z
M 1172 3481 
Q 1172 3119 1398 2916 
Q 1625 2713 2034 2713 
Q 2441 2713 2670 2916 
Q 2900 3119 2900 3481 
Q 2900 3844 2670 4047 
Q 2441 4250 2034 4250 
Q 1625 4250 1398 4047 
Q 1172 3844 1172 3481 
z
" id="DejaVuSans-38" transform="scale(0.015625)"/>
       </defs>
       <use xlink:href="#DejaVuSans-30"/>
       <use x="63.623047" xlink:href="#DejaVuSans-2e"/>
       <use x="95.410156" xlink:href="#DejaVuSans-38"/>
      </g>
     </g>
    </g>
    <g id="xtick_6">
     <g id="line2d_6">
      <g>
       <use style="stroke:#000000;stroke-width:0.8;" x="391.031023" xlink:href="#m8f96e1185e" y="273.312"/>
      </g>
     </g>
     <g id="text_6">
      <!-- 1.0 -->
      <g transform="translate(383.07946 287.910437)scale(0.1 -0.1)">
       <defs>
        <path d="M 794 531 
L 1825 531 
L 1825 4091 
L 703 3866 
L 703 4441 
L 1819 4666 
L 2450 4666 
L 2450 531 
L 3481 531 
L 3481 0 
L 794 0 
L 794 531 
z
" id="DejaVuSans-31" transform="scale(0.015625)"/>
       </defs>
       <use xlink:href="#DejaVuSans-31"/>
       <use x="63.623047" xlink:href="#DejaVuSans-2e"/>
       <use x="95.410156" xlink:href="#DejaVuSans-30"/>
      </g>
     </g>
    </g>
    <g id="text_7">
     <!-- Propagation direction -->
     <g transform="translate(175.221719 301.588562)scale(0.1 -0.1)">
      <defs>
       <path d="M 1259 4147 
L 1259 2394 
L 2053 2394 
Q 2494 2394 2734 2622 
Q 2975 2850 2975 3272 
Q 2975 3691 2734 3919 
Q 2494 4147 2053 4147 
L 1259 4147 
z
M 628 4666 
L 2053 4666 
Q 2838 4666 3239 4311 
Q 3641 3956 3641 3272 
Q 3641 2581 3239 2228 
Q 2838 1875 2053 1875 
L 1259 1875 
L 1259 0 
L 628 0 
L 628 4666 
z
" id="DejaVuSans-50" transform="scale(0.015625)"/>
       <path d="M 2631 2963 
Q 2534 3019 2420 3045 
Q 2306 3072 2169 3072 
Q 1681 3072 1420 2755 
Q 1159 2438 1159 1844 
L 1159 0 
L 581 0 
L 581 3500 
L 1159 3500 
L 1159 2956 
Q 1341 3275 1631 3429 
Q 1922 3584 2338 3584 
Q 2397 3584 2469 3576 
Q 2541 3569 2628 3553 
L 2631 2963 
z
" id="DejaVuSans-72" transform="scale(0.015625)"/>
       <path d="M 1959 3097 
Q 1497 3097 1228 2736 
Q 959 2375 959 1747 
Q 959 1119 1226 758 
Q 1494 397 1959 397 
Q 2419 397 2687 759 
Q 2956 1122 2956 1747 
Q 2956 2369 2687 2733 
Q 2419 3097 1959 3097 
z
M 1959 3584 
Q 2709 3584 3137 3096 
Q 3566 2609 3566 1747 
Q 3566 888 3137 398 
Q 2709 -91 1959 -91 
Q 1206 -91 779 398 
Q 353 888 353 1747 
Q 353 2609 779 3096 
Q 1206 3584 1959 3584 
z
" id="DejaVuSans-6f" transform="scale(0.015625)"/>
       <path d="M 1159 525 
L 1159 -1331 
L 581 -1331 
L 581 3500 
L 1159 3500 
L 1159 2969 
Q 1341 3281 1617 3432 
Q 1894 3584 2278 3584 
Q 2916 3584 3314 3078 
Q 3713 2572 3713 1747 
Q 3713 922 3314 415 
Q 2916 -91 2278 -91 
Q 1894 -91 1617 61 
Q 1341 213 1159 525 
z
M 3116 1747 
Q 3116 2381 2855 2742 
Q 2594 3103 2138 3103 
Q 1681 3103 1420 2742 
Q 1159 2381 1159 1747 
Q 1159 1113 1420 752 
Q 1681 391 2138 391 
Q 2594 391 2855 752 
Q 3116 1113 3116 1747 
z
" id="DejaVuSans-70" transform="scale(0.015625)"/>
       <path d="M 2194 1759 
Q 1497 1759 1228 1600 
Q 959 1441 959 1056 
Q 959 750 1161 570 
Q 1363 391 1709 391 
Q 2188 391 2477 730 
Q 2766 1069 2766 1631 
L 2766 1759 
L 2194 1759 
z
M 3341 1997 
L 3341 0 
L 2766 0 
L 2766 531 
Q 2569 213 2275 61 
Q 1981 -91 1556 -91 
Q 1019 -91 701 211 
Q 384 513 384 1019 
Q 384 1609 779 1909 
Q 1175 2209 1959 2209 
L 2766 2209 
L 2766 2266 
Q 2766 2663 2505 2880 
Q 2244 3097 1772 3097 
Q 1472 3097 1187 3025 
Q 903 2953 641 2809 
L 641 3341 
Q 956 3463 1253 3523 
Q 1550 3584 1831 3584 
Q 2591 3584 2966 3190 
Q 3341 2797 3341 1997 
z
" id="DejaVuSans-61" transform="scale(0.015625)"/>
       <path d="M 2906 1791 
Q 2906 2416 2648 2759 
Q 2391 3103 1925 3103 
Q 1463 3103 1205 2759 
Q 947 2416 947 1791 
Q 947 1169 1205 825 
Q 1463 481 1925 481 
Q 2391 481 2648 825 
Q 2906 1169 2906 1791 
z
M 3481 434 
Q 3481 -459 3084 -895 
Q 2688 -1331 1869 -1331 
Q 1566 -1331 1297 -1286 
Q 1028 -1241 775 -1147 
L 775 -588 
Q 1028 -725 1275 -790 
Q 1522 -856 1778 -856 
Q 2344 -856 2625 -561 
Q 2906 -266 2906 331 
L 2906 616 
Q 2728 306 2450 153 
Q 2172 0 1784 0 
Q 1141 0 747 490 
Q 353 981 353 1791 
Q 353 2603 747 3093 
Q 1141 3584 1784 3584 
Q 2172 3584 2450 3431 
Q 2728 3278 2906 2969 
L 2906 3500 
L 3481 3500 
L 3481 434 
z
" id="DejaVuSans-67" transform="scale(0.015625)"/>
       <path d="M 1172 4494 
L 1172 3500 
L 2356 3500 
L 2356 3053 
L 1172 3053 
L 1172 1153 
Q 1172 725 1289 603 
Q 1406 481 1766 481 
L 2356 481 
L 2356 0 
L 1766 0 
Q 1100 0 847 248 
Q 594 497 594 1153 
L 594 3053 
L 172 3053 
L 172 3500 
L 594 3500 
L 594 4494 
L 1172 4494 
z
" id="DejaVuSans-74" transform="scale(0.015625)"/>
       <path d="M 603 3500 
L 1178 3500 
L 1178 0 
L 603 0 
L 603 3500 
z
M 603 4863 
L 1178 4863 
L 1178 4134 
L 603 4134 
L 603 4863 
z
" id="DejaVuSans-69" transform="scale(0.015625)"/>
       <path d="M 3513 2113 
L 3513 0 
L 2938 0 
L 2938 2094 
Q 2938 2591 2744 2837 
Q 2550 3084 2163 3084 
Q 1697 3084 1428 2787 
Q 1159 2491 1159 1978 
L 1159 0 
L 581 0 
L 581 3500 
L 1159 3500 
L 1159 2956 
Q 1366 3272 1645 3428 
Q 1925 3584 2291 3584 
Q 2894 3584 3203 3211 
Q 3513 2838 3513 2113 
z
" id="DejaVuSans-6e" transform="scale(0.015625)"/>
       <path id="DejaVuSans-20" transform="scale(0.015625)"/>
       <path d="M 2906 2969 
L 2906 4863 
L 3481 4863 
L 3481 0 
L 2906 0 
L 2906 525 
Q 2725 213 2448 61 
Q 2172 -91 1784 -91 
Q 1150 -91 751 415 
Q 353 922 353 1747 
Q 353 2572 751 3078 
Q 1150 3584 1784 3584 
Q 2172 3584 2448 3432 
Q 2725 3281 2906 2969 
z
M 947 1747 
Q 947 1113 1208 752 
Q 1469 391 1925 391 
Q 2381 391 2643 752 
Q 2906 1113 2906 1747 
Q 2906 2381 2643 2742 
Q 2381 3103 1925 3103 
Q 1469 3103 1208 2742 
Q 947 2381 947 1747 
z
" id="DejaVuSans-64" transform="scale(0.015625)"/>
       <path d="M 3597 1894 
L 3597 1613 
L 953 1613 
Q 991 1019 1311 708 
Q 1631 397 2203 397 
Q 2534 397 2845 478 
Q 3156 559 3463 722 
L 3463 178 
Q 3153 47 2828 -22 
Q 2503 -91 2169 -91 
Q 1331 -91 842 396 
Q 353 884 353 1716 
Q 353 2575 817 3079 
Q 1281 3584 2069 3584 
Q 2775 3584 3186 3129 
Q 3597 2675 3597 1894 
z
M 3022 2063 
Q 3016 2534 2758 2815 
Q 2500 3097 2075 3097 
Q 1594 3097 1305 2825 
Q 1016 2553 972 2059 
L 3022 2063 
z
" id="DejaVuSans-65" transform="scale(0.015625)"/>
       <path d="M 3122 3366 
L 3122 2828 
Q 2878 2963 2633 3030 
Q 2388 3097 2138 3097 
Q 1578 3097 1268 2742 
Q 959 2388 959 1747 
Q 959 1106 1268 751 
Q 1578 397 2138 397 
Q 2388 397 2633 464 
Q 2878 531 3122 666 
L 3122 134 
Q 2881 22 2623 -34 
Q 2366 -91 2075 -91 
Q 1284 -91 818 406 
Q 353 903 353 1747 
Q 353 2603 823 3093 
Q 1294 3584 2113 3584 
Q 2378 3584 2631 3529 
Q 2884 3475 3122 3366 
z
" id="DejaVuSans-63" transform="scale(0.015625)"/>
      </defs>
      <use xlink:href="#DejaVuSans-50"/>
      <use x="58.552734" xlink:href="#DejaVuSans-72"/>
      <use x="97.416016" xlink:href="#DejaVuSans-6f"/>
      <use x="158.597656" xlink:href="#DejaVuSans-70"/>
      <use x="222.074219" xlink:href="#DejaVuSans-61"/>
      <use x="283.353516" xlink:href="#DejaVuSans-67"/>
      <use x="346.830078" xlink:href="#DejaVuSans-61"/>
      <use x="408.109375" xlink:href="#DejaVuSans-74"/>
      <use x="447.318359" xlink:href="#DejaVuSans-69"/>
      <use x="475.101562" xlink:href="#DejaVuSans-6f"/>
      <use x="536.283203" xlink:href="#DejaVuSans-6e"/>
      <use x="599.662109" xlink:href="#DejaVuSans-20"/>
      <use x="631.449219" xlink:href="#DejaVuSans-64"/>
      <use x="694.925781" xlink:href="#DejaVuSans-69"/>
      <use x="722.708984" xlink:href="#DejaVuSans-72"/>
      <use x="761.572266" xlink:href="#DejaVuSans-65"/>
      <use x="823.095703" xlink:href="#DejaVuSans-63"/>
      <use x="878.076172" xlink:href="#DejaVuSans-74"/>
      <use x="917.285156" xlink:href="#DejaVuSans-69"/>
      <use x="945.068359" xlink:href="#DejaVuSans-6f"/>
      <use x="1006.25" xlink:href="#DejaVuSans-6e"/>
     </g>
    </g>
   </g>
   <g id="matplotlib.axis_2">
    <g id="ytick_1">
     <g id="line2d_7">
      <defs>
       <path d="M 0 0 
L -3.5 0 
" id="m0d4d20c51a" style="stroke:#000000;stroke-width:0.8;"/>
      </defs>
      <g>
       <use style="stroke:#000000;stroke-width:0.8;" x="50.14375" xlink:href="#m0d4d20c51a" y="273.312"/>
      </g>
     </g>
     <g id="text_8">
      <!-- 0.00 -->
      <g transform="translate(20.878125 277.111219)scale(0.1 -0.1)">
       <use xlink:href="#DejaVuSans-30"/>
       <use x="63.623047" xlink:href="#DejaVuSans-2e"/>
       <use x="95.410156" xlink:href="#DejaVuSans-30"/>
       <use x="159.033203" xlink:href="#DejaVuSans-30"/>
      </g>
     </g>
    </g>
    <g id="ytick_2">
     <g id="line2d_8">
      <g>
       <use style="stroke:#000000;stroke-width:0.8;" x="50.14375" xlink:href="#m0d4d20c51a" y="242.538596"/>
      </g>
     </g>
     <g id="text_9">
      <!-- 0.25 -->
      <g transform="translate(20.878125 246.337815)scale(0.1 -0.1)">
       <defs>
        <path d="M 691 4666 
L 3169 4666 
L 3169 4134 
L 1269 4134 
L 1269 2991 
Q 1406 3038 1543 3061 
Q 1681 3084 1819 3084 
Q 2600 3084 3056 2656 
Q 3513 2228 3513 1497 
Q 3513 744 3044 326 
Q 2575 -91 1722 -91 
Q 1428 -91 1123 -41 
Q 819 9 494 109 
L 494 744 
Q 775 591 1075 516 
Q 1375 441 1709 441 
Q 2250 441 2565 725 
Q 2881 1009 2881 1497 
Q 2881 1984 2565 2268 
Q 2250 2553 1709 2553 
Q 1456 2553 1204 2497 
Q 953 2441 691 2322 
L 691 4666 
z
" id="DejaVuSans-35" transform="scale(0.015625)"/>
       </defs>
       <use xlink:href="#DejaVuSans-30"/>
       <use x="63.623047" xlink:href="#DejaVuSans-2e"/>
       <use x="95.410156" xlink:href="#DejaVuSans-32"/>
       <use x="159.033203" xlink:href="#DejaVuSans-35"/>
      </g>
     </g>
    </g>
    <g id="ytick_3">
     <g id="line2d_9">
      <g>
       <use style="stroke:#000000;stroke-width:0.8;" x="50.14375" xlink:href="#m0d4d20c51a" y="211.765192"/>
      </g>
     </g>
     <g id="text_10">
      <!-- 0.50 -->
      <g transform="translate(20.878125 215.564411)scale(0.1 -0.1)">
       <use xlink:href="#DejaVuSans-30"/>
       <use x="63.623047" xlink:href="#DejaVuSans-2e"/>
       <use x="95.410156" xlink:href="#DejaVuSans-35"/>
       <use x="159.033203" xlink:href="#DejaVuSans-30"/>
      </g>
     </g>
    </g>
    <g id="ytick_4">
     <g id="line2d_10">
      <g>
       <use style="stroke:#000000;stroke-width:0.8;" x="50.14375" xlink:href="#m0d4d20c51a" y="180.991788"/>
      </g>
     </g>
     <g id="text_11">
      <!-- 0.75 -->
      <g transform="translate(20.878125 184.791007)scale(0.1 -0.1)">
       <defs>
        <path d="M 525 4666 
L 3525 4666 
L 3525 4397 
L 1831 0 
L 1172 0 
L 2766 4134 
L 525 4134 
L 525 4666 
z
" id="DejaVuSans-37" transform="scale(0.015625)"/>
       </defs>
       <use xlink:href="#DejaVuSans-30"/>
       <use x="63.623047" xlink:href="#DejaVuSans-2e"/>
       <use x="95.410156" xlink:href="#DejaVuSans-37"/>
       <use x="159.033203" xlink:href="#DejaVuSans-35"/>
      </g>
     </g>
    </g>
    <g id="ytick_5">
     <g id="line2d_11">
      <g>
       <use style="stroke:#000000;stroke-width:0.8;" x="50.14375" xlink:href="#m0d4d20c51a" y="150.218384"/>
      </g>
     </g>
     <g id="text_12">
      <!-- 1.00 -->
      <g transform="translate(20.878125 154.017603)scale(0.1 -0.1)">
       <use xlink:href="#DejaVuSans-31"/>
       <use x="63.623047" xlink:href="#DejaVuSans-2e"/>
       <use x="95.410156" xlink:href="#DejaVuSans-30"/>
       <use x="159.033203" xlink:href="#DejaVuSans-30"/>
      </g>
     </g>
    </g>
    <g id="ytick_6">
     <g id="line2d_12">
      <g>
       <use style="stroke:#000000;stroke-width:0.8;" x="50.14375" xlink:href="#m0d4d20c51a" y="119.44498"/>
      </g>
     </g>
     <g id="text_13">
      <!-- 1.25 -->
      <g transform="translate(20.878125 123.244199)scale(0.1 -0.1)">
       <use xlink:href="#DejaVuSans-31"/>
       <use x="63.623047" xlink:href="#DejaVuSans-2e"/>
       <use x="95.410156" xlink:href="#DejaVuSans-32"/>
       <use x="159.033203" xlink:href="#DejaVuSans-35"/>
      </g>
     </g>
    </g>
    <g id="ytick_7">
     <g id="line2d_13">
      <g>
       <use style="stroke:#000000;stroke-width:0.8;" x="50.14375" xlink:href="#m0d4d20c51a" y="88.671577"/>
      </g>
     </g>
     <g id="text_14">
      <!-- 1.50 -->
      <g transform="translate(20.878125 92.470795)scale(0.1 -0.1)">
       <use xlink:href="#DejaVuSans-31"/>
       <use x="63.623047" xlink:href="#DejaVuSans-2e"/>
       <use x="95.410156" xlink:href="#DejaVuSans-35"/>
       <use x="159.033203" xlink:href="#DejaVuSans-30"/>
      </g>
     </g>
    </g>
    <g id="ytick_8">
     <g id="line2d_14">
      <g>
       <use style="stroke:#000000;stroke-width:0.8;" x="50.14375" xlink:href="#m0d4d20c51a" y="57.898173"/>
      </g>
     </g>
     <g id="text_15">
      <!-- 1.75 -->
      <g transform="translate(20.878125 61.697391)scale(0.1 -0.1)">
       <use xlink:href="#DejaVuSans-31"/>
       <use x="63.623047" xlink:href="#DejaVuSans-2e"/>
       <use x="95.410156" xlink:href="#DejaVuSans-37"/>
       <use x="159.033203" xlink:href="#DejaVuSans-35"/>
      </g>
     </g>
    </g>
    <g id="ytick_9">
     <g id="line2d_15">
      <g>
       <use style="stroke:#000000;stroke-width:0.8;" x="50.14375" xlink:href="#m0d4d20c51a" y="27.124769"/>
      </g>
     </g>
     <g id="text_16">
      <!-- 2.00 -->
      <g transform="translate(20.878125 30.923987)scale(0.1 -0.1)">
       <use xlink:href="#DejaVuSans-32"/>
       <use x="63.623047" xlink:href="#DejaVuSans-2e"/>
       <use x="95.410156" xlink:href="#DejaVuSans-30"/>
       <use x="159.033203" xlink:href="#DejaVuSans-30"/>
      </g>
     </g>
    </g>
    <g id="text_17">
     <!-- Probability density -->
     <g transform="translate(14.798438 186.606781)rotate(-90)scale(0.1 -0.1)">
      <defs>
       <path d="M 3116 1747 
Q 3116 2381 2855 2742 
Q 2594 3103 2138 3103 
Q 1681 3103 1420 2742 
Q 1159 2381 1159 1747 
Q 1159 1113 1420 752 
Q 1681 391 2138 391 
Q 2594 391 2855 752 
Q 3116 1113 3116 1747 
z
M 1159 2969 
Q 1341 3281 1617 3432 
Q 1894 3584 2278 3584 
Q 2916 3584 3314 3078 
Q 3713 2572 3713 1747 
Q 3713 922 3314 415 
Q 2916 -91 2278 -91 
Q 1894 -91 1617 61 
Q 1341 213 1159 525 
L 1159 0 
L 581 0 
L 581 4863 
L 1159 4863 
L 1159 2969 
z
" id="DejaVuSans-62" transform="scale(0.015625)"/>
       <path d="M 603 4863 
L 1178 4863 
L 1178 0 
L 603 0 
L 603 4863 
z
" id="DejaVuSans-6c" transform="scale(0.015625)"/>
       <path d="M 2059 -325 
Q 1816 -950 1584 -1140 
Q 1353 -1331 966 -1331 
L 506 -1331 
L 506 -850 
L 844 -850 
Q 1081 -850 1212 -737 
Q 1344 -625 1503 -206 
L 1606 56 
L 191 3500 
L 800 3500 
L 1894 763 
L 2988 3500 
L 3597 3500 
L 2059 -325 
z
" id="DejaVuSans-79" transform="scale(0.015625)"/>
       <path d="M 2834 3397 
L 2834 2853 
Q 2591 2978 2328 3040 
Q 2066 3103 1784 3103 
Q 1356 3103 1142 2972 
Q 928 2841 928 2578 
Q 928 2378 1081 2264 
Q 1234 2150 1697 2047 
L 1894 2003 
Q 2506 1872 2764 1633 
Q 3022 1394 3022 966 
Q 3022 478 2636 193 
Q 2250 -91 1575 -91 
Q 1294 -91 989 -36 
Q 684 19 347 128 
L 347 722 
Q 666 556 975 473 
Q 1284 391 1588 391 
Q 1994 391 2212 530 
Q 2431 669 2431 922 
Q 2431 1156 2273 1281 
Q 2116 1406 1581 1522 
L 1381 1569 
Q 847 1681 609 1914 
Q 372 2147 372 2553 
Q 372 3047 722 3315 
Q 1072 3584 1716 3584 
Q 2034 3584 2315 3537 
Q 2597 3491 2834 3397 
z
" id="DejaVuSans-73" transform="scale(0.015625)"/>
      </defs>
      <use xlink:href="#DejaVuSans-50"/>
      <use x="58.552734" xlink:href="#DejaVuSans-72"/>
      <use x="97.416016" xlink:href="#DejaVuSans-6f"/>
      <use x="158.597656" xlink:href="#DejaVuSans-62"/>
      <use x="222.074219" xlink:href="#DejaVuSans-61"/>
      <use x="283.353516" xlink:href="#DejaVuSans-62"/>
      <use x="346.830078" xlink:href="#DejaVuSans-69"/>
      <use x="374.613281" xlink:href="#DejaVuSans-6c"/>
      <use x="402.396484" xlink:href="#DejaVuSans-69"/>
      <use x="430.179688" xlink:href="#DejaVuSans-74"/>
      <use x="469.388672" xlink:href="#DejaVuSans-79"/>
      <use x="528.568359" xlink:href="#DejaVuSans-20"/>
      <use x="560.355469" xlink:href="#DejaVuSans-64"/>
      <use x="623.832031" xlink:href="#DejaVuSans-65"/>
      <use x="685.355469" xlink:href="#DejaVuSans-6e"/>
      <use x="748.734375" xlink:href="#DejaVuSans-73"/>
      <use x="800.833984" xlink:href="#DejaVuSans-69"/>
      <use x="828.617188" xlink:href="#DejaVuSans-74"/>
      <use x="867.826172" xlink:href="#DejaVuSans-79"/>
     </g>
    </g>
   </g>
   <g id="line2d_16">
    <path clip-path="url(#p55b45b11f4)" d="M 66.376477 273.312 
L 391.031023 27.124769 
L 391.031023 27.124769 
" style="fill:none;stroke:#ff7f0e;stroke-linecap:square;stroke-width:1.5;"/>
   </g>
   <g id="patch_203">
    <path d="M 50.14375 273.312 
L 50.14375 7.2 
" style="fill:none;stroke:#000000;stroke-linecap:square;stroke-linejoin:miter;stroke-width:0.8;"/>
   </g>
   <g id="patch_204">
    <path d="M 407.26375 273.312 
L 407.26375 7.2 
" style="fill:none;stroke:#000000;stroke-linecap:square;stroke-linejoin:miter;stroke-width:0.8;"/>
   </g>
   <g id="patch_205">
    <path d="M 50.14375 273.312 
L 407.26375 273.312 
" style="fill:none;stroke:#000000;stroke-linecap:square;stroke-linejoin:miter;stroke-width:0.8;"/>
   </g>
   <g id="patch_206">
    <path d="M 50.14375 7.2 
L 407.26375 7.2 
" style="fill:none;stroke:#000000;stroke-linecap:square;stroke-linejoin:miter;stroke-width:0.8;"/>
   </g>
  </g>
 </g>
 <defs>
  <clipPath id="p55b45b11f4">
   <rect height="266.112" width="357.12" x="50.14375" y="7.2"/>
  </clipPath>
 </defs>
</svg>
