<?xml version="1.0" encoding="utf-8" standalone="no"?>
<!DOCTYPE svg PUBLIC "-//W3C//DTD SVG 1.1//EN"
  "http://www.w3.org/Graphics/SVG/1.1/DTD/svg11.dtd">
<svg height="310.86825pt" version="1.1" viewBox="0 0 408.10125 310.86825" width="408.10125pt" xmlns="http://www.w3.org/2000/svg" xmlns:xlink="http://www.w3.org/1999/xlink">
 <metadata>
  <rdf:RDF xmlns:cc="http://creativecommons.org/ns#" xmlns:dc="http://purl.org/dc/elements/1.1/" xmlns:rdf="http://www.w3.org/1999/02/22-rdf-syntax-ns#">
   <cc:Work>
    <dc:type rdf:resource="http://purl.org/dc/dcmitype/StillImage"/>
    <dc:date>2021-06-23T15:02:29.403759</dc:date>
    <dc:format>image/svg+xml</dc:format>
    <dc:creator>
     <cc:Agent>
      <dc:title>Matplotlib v3.4.2, https://matplotlib.org/</dc:title>
     </cc:Agent>
    </dc:creator>
   </cc:Work>
  </rdf:RDF>
 </metadata>
 <defs>
  <style type="text/css">*{stroke-linecap:butt;stroke-linejoin:round;}</style>
 </defs>
 <g id="figure_1">
  <g id="patch_1">
   <path d="M 0 310.86825 
L 408.10125 310.86825 
L 408.10125 0 
L 0 0 
z
" style="fill:#ffffff;"/>
  </g>
  <g id="axes_1">
   <g id="patch_2">
    <path d="M 43.78125 273.312 
L 400.90125 273.312 
L 400.90125 7.2 
L 43.78125 7.2 
z
" style="fill:#ffffff;"/>
   </g>
   <g id="patch_3">
    <path clip-path="url(#pdeabd39b63)" d="M 60.224741 273.312 
L 61.840072 273.312 
L 61.840072 269.681054 
L 60.224741 269.681054 
z
" style="fill:#1f77b4;"/>
   </g>
   <g id="patch_4">
    <path clip-path="url(#pdeabd39b63)" d="M 61.840072 273.312 
L 63.455402 273.312 
L 63.455402 268.228676 
L 61.840072 268.228676 
z
" style="fill:#1f77b4;"/>
   </g>
   <g id="patch_5">
    <path clip-path="url(#pdeabd39b63)" d="M 63.455402 273.312 
L 65.070733 273.312 
L 65.070733 264.597731 
L 63.455402 264.597731 
z
" style="fill:#1f77b4;"/>
   </g>
   <g id="patch_6">
    <path clip-path="url(#pdeabd39b63)" d="M 65.070733 273.312 
L 66.686064 273.312 
L 66.686064 261.692974 
L 65.070733 261.692974 
z
" style="fill:#1f77b4;"/>
   </g>
   <g id="patch_7">
    <path clip-path="url(#pdeabd39b63)" d="M 66.686064 273.312 
L 68.301395 273.312 
L 68.301395 255.883461 
L 66.686064 255.883461 
z
" style="fill:#1f77b4;"/>
   </g>
   <g id="patch_8">
    <path clip-path="url(#pdeabd39b63)" d="M 68.301395 273.312 
L 69.916726 273.312 
L 69.916726 250.073948 
L 68.301395 250.073948 
z
" style="fill:#1f77b4;"/>
   </g>
   <g id="patch_9">
    <path clip-path="url(#pdeabd39b63)" d="M 69.916726 273.312 
L 71.532056 273.312 
L 71.532056 251.526327 
L 69.916726 251.526327 
z
" style="fill:#1f77b4;"/>
   </g>
   <g id="patch_10">
    <path clip-path="url(#pdeabd39b63)" d="M 71.532056 273.312 
L 73.147387 273.312 
L 73.147387 246.443003 
L 71.532056 246.443003 
z
" style="fill:#1f77b4;"/>
   </g>
   <g id="patch_11">
    <path clip-path="url(#pdeabd39b63)" d="M 73.147387 273.312 
L 74.762718 273.312 
L 74.762718 244.990625 
L 73.147387 244.990625 
z
" style="fill:#1f77b4;"/>
   </g>
   <g id="patch_12">
    <path clip-path="url(#pdeabd39b63)" d="M 74.762718 273.312 
L 76.378049 273.312 
L 76.378049 240.63349 
L 74.762718 240.63349 
z
" style="fill:#1f77b4;"/>
   </g>
   <g id="patch_13">
    <path clip-path="url(#pdeabd39b63)" d="M 76.378049 273.312 
L 77.993379 273.312 
L 77.993379 234.097788 
L 76.378049 234.097788 
z
" style="fill:#1f77b4;"/>
   </g>
   <g id="patch_14">
    <path clip-path="url(#pdeabd39b63)" d="M 77.993379 273.312 
L 79.60871 273.312 
L 79.60871 230.466842 
L 77.993379 230.466842 
z
" style="fill:#1f77b4;"/>
   </g>
   <g id="patch_15">
    <path clip-path="url(#pdeabd39b63)" d="M 79.60871 273.312 
L 81.224041 273.312 
L 81.224041 237.728734 
L 79.60871 237.728734 
z
" style="fill:#1f77b4;"/>
   </g>
   <g id="patch_16">
    <path clip-path="url(#pdeabd39b63)" d="M 81.224041 273.312 
L 82.839372 273.312 
L 82.839372 226.109708 
L 81.224041 226.109708 
z
" style="fill:#1f77b4;"/>
   </g>
   <g id="patch_17">
    <path clip-path="url(#pdeabd39b63)" d="M 82.839372 273.312 
L 84.454703 273.312 
L 84.454703 220.300195 
L 82.839372 220.300195 
z
" style="fill:#1f77b4;"/>
   </g>
   <g id="patch_18">
    <path clip-path="url(#pdeabd39b63)" d="M 84.454703 273.312 
L 86.070033 273.312 
L 86.070033 222.478762 
L 84.454703 222.478762 
z
" style="fill:#1f77b4;"/>
   </g>
   <g id="patch_19">
    <path clip-path="url(#pdeabd39b63)" d="M 86.070033 273.312 
L 87.685364 273.312 
L 87.685364 226.835897 
L 86.070033 226.835897 
z
" style="fill:#1f77b4;"/>
   </g>
   <g id="patch_20">
    <path clip-path="url(#pdeabd39b63)" d="M 87.685364 273.312 
L 89.300695 273.312 
L 89.300695 211.585926 
L 87.685364 211.585926 
z
" style="fill:#1f77b4;"/>
   </g>
   <g id="patch_21">
    <path clip-path="url(#pdeabd39b63)" d="M 89.300695 273.312 
L 90.916026 273.312 
L 90.916026 200.693089 
L 89.300695 200.693089 
z
" style="fill:#1f77b4;"/>
   </g>
   <g id="patch_22">
    <path clip-path="url(#pdeabd39b63)" d="M 90.916026 273.312 
L 92.531357 273.312 
L 92.531357 205.050223 
L 90.916026 205.050223 
z
" style="fill:#1f77b4;"/>
   </g>
   <g id="patch_23">
    <path clip-path="url(#pdeabd39b63)" d="M 92.531357 273.312 
L 94.146687 273.312 
L 94.146687 213.764493 
L 92.531357 213.764493 
z
" style="fill:#1f77b4;"/>
   </g>
   <g id="patch_24">
    <path clip-path="url(#pdeabd39b63)" d="M 94.146687 273.312 
L 95.762018 273.312 
L 95.762018 197.788332 
L 94.146687 197.788332 
z
" style="fill:#1f77b4;"/>
   </g>
   <g id="patch_25">
    <path clip-path="url(#pdeabd39b63)" d="M 95.762018 273.312 
L 97.377349 273.312 
L 97.377349 187.621685 
L 95.762018 187.621685 
z
" style="fill:#1f77b4;"/>
   </g>
   <g id="patch_26">
    <path clip-path="url(#pdeabd39b63)" d="M 97.377349 273.312 
L 98.99268 273.312 
L 98.99268 189.800252 
L 97.377349 189.800252 
z
" style="fill:#1f77b4;"/>
   </g>
   <g id="patch_27">
    <path clip-path="url(#pdeabd39b63)" d="M 98.99268 273.312 
L 100.608011 273.312 
L 100.608011 186.895496 
L 98.99268 186.895496 
z
" style="fill:#1f77b4;"/>
   </g>
   <g id="patch_28">
    <path clip-path="url(#pdeabd39b63)" d="M 100.608011 273.312 
L 102.223341 273.312 
L 102.223341 184.716928 
L 100.608011 184.716928 
z
" style="fill:#1f77b4;"/>
   </g>
   <g id="patch_29">
    <path clip-path="url(#pdeabd39b63)" d="M 102.223341 273.312 
L 103.838672 273.312 
L 103.838672 179.633605 
L 102.223341 179.633605 
z
" style="fill:#1f77b4;"/>
   </g>
   <g id="patch_30">
    <path clip-path="url(#pdeabd39b63)" d="M 103.838672 273.312 
L 105.454003 273.312 
L 105.454003 192.705009 
L 103.838672 192.705009 
z
" style="fill:#1f77b4;"/>
   </g>
   <g id="patch_31">
    <path clip-path="url(#pdeabd39b63)" d="M 105.454003 273.312 
L 107.069334 273.312 
L 107.069334 177.455037 
L 105.454003 177.455037 
z
" style="fill:#1f77b4;"/>
   </g>
   <g id="patch_32">
    <path clip-path="url(#pdeabd39b63)" d="M 107.069334 273.312 
L 108.684664 273.312 
L 108.684664 172.371713 
L 107.069334 172.371713 
z
" style="fill:#1f77b4;"/>
   </g>
   <g id="patch_33">
    <path clip-path="url(#pdeabd39b63)" d="M 108.684664 273.312 
L 110.299995 273.312 
L 110.299995 170.193146 
L 108.684664 170.193146 
z
" style="fill:#1f77b4;"/>
   </g>
   <g id="patch_34">
    <path clip-path="url(#pdeabd39b63)" d="M 110.299995 273.312 
L 111.915326 273.312 
L 111.915326 172.371713 
L 110.299995 172.371713 
z
" style="fill:#1f77b4;"/>
   </g>
   <g id="patch_35">
    <path clip-path="url(#pdeabd39b63)" d="M 111.915326 273.312 
L 113.530657 273.312 
L 113.530657 169.466957 
L 111.915326 169.466957 
z
" style="fill:#1f77b4;"/>
   </g>
   <g id="patch_36">
    <path clip-path="url(#pdeabd39b63)" d="M 113.530657 273.312 
L 115.145988 273.312 
L 115.145988 153.490797 
L 113.530657 153.490797 
z
" style="fill:#1f77b4;"/>
   </g>
   <g id="patch_37">
    <path clip-path="url(#pdeabd39b63)" d="M 115.145988 273.312 
L 116.761318 273.312 
L 116.761318 154.216986 
L 115.145988 154.216986 
z
" style="fill:#1f77b4;"/>
   </g>
   <g id="patch_38">
    <path clip-path="url(#pdeabd39b63)" d="M 116.761318 273.312 
L 118.376649 273.312 
L 118.376649 166.562201 
L 116.761318 166.562201 
z
" style="fill:#1f77b4;"/>
   </g>
   <g id="patch_39">
    <path clip-path="url(#pdeabd39b63)" d="M 118.376649 273.312 
L 119.99198 273.312 
L 119.99198 146.955095 
L 118.376649 146.955095 
z
" style="fill:#1f77b4;"/>
   </g>
   <g id="patch_40">
    <path clip-path="url(#pdeabd39b63)" d="M 119.99198 273.312 
L 121.607311 273.312 
L 121.607311 131.705123 
L 119.99198 131.705123 
z
" style="fill:#1f77b4;"/>
   </g>
   <g id="patch_41">
    <path clip-path="url(#pdeabd39b63)" d="M 121.607311 273.312 
L 123.222642 273.312 
L 123.222642 145.502716 
L 121.607311 145.502716 
z
" style="fill:#1f77b4;"/>
   </g>
   <g id="patch_42">
    <path clip-path="url(#pdeabd39b63)" d="M 123.222642 273.312 
L 124.837972 273.312 
L 124.837972 146.228905 
L 123.222642 146.228905 
z
" style="fill:#1f77b4;"/>
   </g>
   <g id="patch_43">
    <path clip-path="url(#pdeabd39b63)" d="M 124.837972 273.312 
L 126.453303 273.312 
L 126.453303 128.074178 
L 124.837972 128.074178 
z
" style="fill:#1f77b4;"/>
   </g>
   <g id="patch_44">
    <path clip-path="url(#pdeabd39b63)" d="M 126.453303 273.312 
L 128.068634 273.312 
L 128.068634 134.60988 
L 126.453303 134.60988 
z
" style="fill:#1f77b4;"/>
   </g>
   <g id="patch_45">
    <path clip-path="url(#pdeabd39b63)" d="M 128.068634 273.312 
L 129.683965 273.312 
L 129.683965 136.788447 
L 128.068634 136.788447 
z
" style="fill:#1f77b4;"/>
   </g>
   <g id="patch_46">
    <path clip-path="url(#pdeabd39b63)" d="M 129.683965 273.312 
L 131.299295 273.312 
L 131.299295 130.252745 
L 129.683965 130.252745 
z
" style="fill:#1f77b4;"/>
   </g>
   <g id="patch_47">
    <path clip-path="url(#pdeabd39b63)" d="M 131.299295 273.312 
L 132.914626 273.312 
L 132.914626 124.443232 
L 131.299295 124.443232 
z
" style="fill:#1f77b4;"/>
   </g>
   <g id="patch_48">
    <path clip-path="url(#pdeabd39b63)" d="M 132.914626 273.312 
L 134.529957 273.312 
L 134.529957 141.871771 
L 132.914626 141.871771 
z
" style="fill:#1f77b4;"/>
   </g>
   <g id="patch_49">
    <path clip-path="url(#pdeabd39b63)" d="M 134.529957 273.312 
L 136.145288 273.312 
L 136.145288 120.812287 
L 134.529957 120.812287 
z
" style="fill:#1f77b4;"/>
   </g>
   <g id="patch_50">
    <path clip-path="url(#pdeabd39b63)" d="M 136.145288 273.312 
L 137.760619 273.312 
L 137.760619 137.514636 
L 136.145288 137.514636 
z
" style="fill:#1f77b4;"/>
   </g>
   <g id="patch_51">
    <path clip-path="url(#pdeabd39b63)" d="M 137.760619 273.312 
L 139.375949 273.312 
L 139.375949 123.717043 
L 137.760619 123.717043 
z
" style="fill:#1f77b4;"/>
   </g>
   <g id="patch_52">
    <path clip-path="url(#pdeabd39b63)" d="M 139.375949 273.312 
L 140.99128 273.312 
L 140.99128 114.276585 
L 139.375949 114.276585 
z
" style="fill:#1f77b4;"/>
   </g>
   <g id="patch_53">
    <path clip-path="url(#pdeabd39b63)" d="M 140.99128 273.312 
L 142.606611 273.312 
L 142.606611 133.157501 
L 140.99128 133.157501 
z
" style="fill:#1f77b4;"/>
   </g>
   <g id="patch_54">
    <path clip-path="url(#pdeabd39b63)" d="M 142.606611 273.312 
L 144.221942 273.312 
L 144.221942 91.764722 
L 142.606611 91.764722 
z
" style="fill:#1f77b4;"/>
   </g>
   <g id="patch_55">
    <path clip-path="url(#pdeabd39b63)" d="M 144.221942 273.312 
L 145.837273 273.312 
L 145.837273 99.752802 
L 144.221942 99.752802 
z
" style="fill:#1f77b4;"/>
   </g>
   <g id="patch_56">
    <path clip-path="url(#pdeabd39b63)" d="M 145.837273 273.312 
L 147.452603 273.312 
L 147.452603 105.562315 
L 145.837273 105.562315 
z
" style="fill:#1f77b4;"/>
   </g>
   <g id="patch_57">
    <path clip-path="url(#pdeabd39b63)" d="M 147.452603 273.312 
L 149.067934 273.312 
L 149.067934 117.181341 
L 147.452603 117.181341 
z
" style="fill:#1f77b4;"/>
   </g>
   <g id="patch_58">
    <path clip-path="url(#pdeabd39b63)" d="M 149.067934 273.312 
L 150.683265 273.312 
L 150.683265 88.859966 
L 149.067934 88.859966 
z
" style="fill:#1f77b4;"/>
   </g>
   <g id="patch_59">
    <path clip-path="url(#pdeabd39b63)" d="M 150.683265 273.312 
L 152.298596 273.312 
L 152.298596 81.598074 
L 150.683265 81.598074 
z
" style="fill:#1f77b4;"/>
   </g>
   <g id="patch_60">
    <path clip-path="url(#pdeabd39b63)" d="M 152.298596 273.312 
L 153.913927 273.312 
L 153.913927 95.395668 
L 152.298596 95.395668 
z
" style="fill:#1f77b4;"/>
   </g>
   <g id="patch_61">
    <path clip-path="url(#pdeabd39b63)" d="M 153.913927 273.312 
L 155.529257 273.312 
L 155.529257 97.574235 
L 153.913927 97.574235 
z
" style="fill:#1f77b4;"/>
   </g>
   <g id="patch_62">
    <path clip-path="url(#pdeabd39b63)" d="M 155.529257 273.312 
L 157.144588 273.312 
L 157.144588 88.133777 
L 155.529257 88.133777 
z
" style="fill:#1f77b4;"/>
   </g>
   <g id="patch_63">
    <path clip-path="url(#pdeabd39b63)" d="M 157.144588 273.312 
L 158.759919 273.312 
L 158.759919 74.336183 
L 157.144588 74.336183 
z
" style="fill:#1f77b4;"/>
   </g>
   <g id="patch_64">
    <path clip-path="url(#pdeabd39b63)" d="M 158.759919 273.312 
L 160.37525 273.312 
L 160.37525 102.657559 
L 158.759919 102.657559 
z
" style="fill:#1f77b4;"/>
   </g>
   <g id="patch_65">
    <path clip-path="url(#pdeabd39b63)" d="M 160.37525 273.312 
L 161.99058 273.312 
L 161.99058 86.681398 
L 160.37525 86.681398 
z
" style="fill:#1f77b4;"/>
   </g>
   <g id="patch_66">
    <path clip-path="url(#pdeabd39b63)" d="M 161.99058 273.312 
L 163.605911 273.312 
L 163.605911 91.038533 
L 161.99058 91.038533 
z
" style="fill:#1f77b4;"/>
   </g>
   <g id="patch_67">
    <path clip-path="url(#pdeabd39b63)" d="M 163.605911 273.312 
L 165.221242 273.312 
L 165.221242 68.52667 
L 163.605911 68.52667 
z
" style="fill:#1f77b4;"/>
   </g>
   <g id="patch_68">
    <path clip-path="url(#pdeabd39b63)" d="M 165.221242 273.312 
L 166.836573 273.312 
L 166.836573 83.050453 
L 165.221242 83.050453 
z
" style="fill:#1f77b4;"/>
   </g>
   <g id="patch_69">
    <path clip-path="url(#pdeabd39b63)" d="M 166.836573 273.312 
L 168.451904 273.312 
L 168.451904 92.490911 
L 166.836573 92.490911 
z
" style="fill:#1f77b4;"/>
   </g>
   <g id="patch_70">
    <path clip-path="url(#pdeabd39b63)" d="M 168.451904 273.312 
L 170.067234 273.312 
L 170.067234 77.967129 
L 168.451904 77.967129 
z
" style="fill:#1f77b4;"/>
   </g>
   <g id="patch_71">
    <path clip-path="url(#pdeabd39b63)" d="M 170.067234 273.312 
L 171.682565 273.312 
L 171.682565 74.336183 
L 170.067234 74.336183 
z
" style="fill:#1f77b4;"/>
   </g>
   <g id="patch_72">
    <path clip-path="url(#pdeabd39b63)" d="M 171.682565 273.312 
L 173.297896 273.312 
L 173.297896 78.693318 
L 171.682565 78.693318 
z
" style="fill:#1f77b4;"/>
   </g>
   <g id="patch_73">
    <path clip-path="url(#pdeabd39b63)" d="M 173.297896 273.312 
L 174.913227 273.312 
L 174.913227 66.348103 
L 173.297896 66.348103 
z
" style="fill:#1f77b4;"/>
   </g>
   <g id="patch_74">
    <path clip-path="url(#pdeabd39b63)" d="M 174.913227 273.312 
L 176.528558 273.312 
L 176.528558 55.455266 
L 174.913227 55.455266 
z
" style="fill:#1f77b4;"/>
   </g>
   <g id="patch_75">
    <path clip-path="url(#pdeabd39b63)" d="M 176.528558 273.312 
L 178.143888 273.312 
L 178.143888 43.110052 
L 176.528558 43.110052 
z
" style="fill:#1f77b4;"/>
   </g>
   <g id="patch_76">
    <path clip-path="url(#pdeabd39b63)" d="M 178.143888 273.312 
L 179.759219 273.312 
L 179.759219 44.56243 
L 178.143888 44.56243 
z
" style="fill:#1f77b4;"/>
   </g>
   <g id="patch_77">
    <path clip-path="url(#pdeabd39b63)" d="M 179.759219 273.312 
L 181.37455 273.312 
L 181.37455 64.895725 
L 179.759219 64.895725 
z
" style="fill:#1f77b4;"/>
   </g>
   <g id="patch_78">
    <path clip-path="url(#pdeabd39b63)" d="M 181.37455 273.312 
L 182.989881 273.312 
L 182.989881 51.098132 
L 181.37455 51.098132 
z
" style="fill:#1f77b4;"/>
   </g>
   <g id="patch_79">
    <path clip-path="url(#pdeabd39b63)" d="M 182.989881 273.312 
L 184.605212 273.312 
L 184.605212 39.479106 
L 182.989881 39.479106 
z
" style="fill:#1f77b4;"/>
   </g>
   <g id="patch_80">
    <path clip-path="url(#pdeabd39b63)" d="M 184.605212 273.312 
L 186.220542 273.312 
L 186.220542 40.931484 
L 184.605212 40.931484 
z
" style="fill:#1f77b4;"/>
   </g>
   <g id="patch_81">
    <path clip-path="url(#pdeabd39b63)" d="M 186.220542 273.312 
L 187.835873 273.312 
L 187.835873 54.729077 
L 186.220542 54.729077 
z
" style="fill:#1f77b4;"/>
   </g>
   <g id="patch_82">
    <path clip-path="url(#pdeabd39b63)" d="M 187.835873 273.312 
L 189.451204 273.312 
L 189.451204 50.371943 
L 187.835873 50.371943 
z
" style="fill:#1f77b4;"/>
   </g>
   <g id="patch_83">
    <path clip-path="url(#pdeabd39b63)" d="M 189.451204 273.312 
L 191.066535 273.312 
L 191.066535 47.467186 
L 189.451204 47.467186 
z
" style="fill:#1f77b4;"/>
   </g>
   <g id="patch_84">
    <path clip-path="url(#pdeabd39b63)" d="M 191.066535 273.312 
L 192.681865 273.312 
L 192.681865 19.872 
L 191.066535 19.872 
z
" style="fill:#1f77b4;"/>
   </g>
   <g id="patch_85">
    <path clip-path="url(#pdeabd39b63)" d="M 192.681865 273.312 
L 194.297196 273.312 
L 194.297196 70.705238 
L 192.681865 70.705238 
z
" style="fill:#1f77b4;"/>
   </g>
   <g id="patch_86">
    <path clip-path="url(#pdeabd39b63)" d="M 194.297196 273.312 
L 195.912527 273.312 
L 195.912527 56.907645 
L 194.297196 56.907645 
z
" style="fill:#1f77b4;"/>
   </g>
   <g id="patch_87">
    <path clip-path="url(#pdeabd39b63)" d="M 195.912527 273.312 
L 197.527858 273.312 
L 197.527858 77.967129 
L 195.912527 77.967129 
z
" style="fill:#1f77b4;"/>
   </g>
   <g id="patch_88">
    <path clip-path="url(#pdeabd39b63)" d="M 197.527858 273.312 
L 199.143189 273.312 
L 199.143189 57.633834 
L 197.527858 57.633834 
z
" style="fill:#1f77b4;"/>
   </g>
   <g id="patch_89">
    <path clip-path="url(#pdeabd39b63)" d="M 199.143189 273.312 
L 200.758519 273.312 
L 200.758519 59.812401 
L 199.143189 59.812401 
z
" style="fill:#1f77b4;"/>
   </g>
   <g id="patch_90">
    <path clip-path="url(#pdeabd39b63)" d="M 200.758519 273.312 
L 202.37385 273.312 
L 202.37385 55.455266 
L 200.758519 55.455266 
z
" style="fill:#1f77b4;"/>
   </g>
   <g id="patch_91">
    <path clip-path="url(#pdeabd39b63)" d="M 202.37385 273.312 
L 203.989181 273.312 
L 203.989181 34.395782 
L 202.37385 34.395782 
z
" style="fill:#1f77b4;"/>
   </g>
   <g id="patch_92">
    <path clip-path="url(#pdeabd39b63)" d="M 203.989181 273.312 
L 205.604512 273.312 
L 205.604512 61.264779 
L 203.989181 61.264779 
z
" style="fill:#1f77b4;"/>
   </g>
   <g id="patch_93">
    <path clip-path="url(#pdeabd39b63)" d="M 205.604512 273.312 
L 207.219843 273.312 
L 207.219843 55.455266 
L 205.604512 55.455266 
z
" style="fill:#1f77b4;"/>
   </g>
   <g id="patch_94">
    <path clip-path="url(#pdeabd39b63)" d="M 207.219843 273.312 
L 208.835173 273.312 
L 208.835173 41.657673 
L 207.219843 41.657673 
z
" style="fill:#1f77b4;"/>
   </g>
   <g id="patch_95">
    <path clip-path="url(#pdeabd39b63)" d="M 208.835173 273.312 
L 210.450504 273.312 
L 210.450504 44.56243 
L 208.835173 44.56243 
z
" style="fill:#1f77b4;"/>
   </g>
   <g id="patch_96">
    <path clip-path="url(#pdeabd39b63)" d="M 210.450504 273.312 
L 212.065835 273.312 
L 212.065835 51.098132 
L 210.450504 51.098132 
z
" style="fill:#1f77b4;"/>
   </g>
   <g id="patch_97">
    <path clip-path="url(#pdeabd39b63)" d="M 212.065835 273.312 
L 213.681166 273.312 
L 213.681166 23.502946 
L 212.065835 23.502946 
z
" style="fill:#1f77b4;"/>
   </g>
   <g id="patch_98">
    <path clip-path="url(#pdeabd39b63)" d="M 213.681166 273.312 
L 215.296496 273.312 
L 215.296496 21.324378 
L 213.681166 21.324378 
z
" style="fill:#1f77b4;"/>
   </g>
   <g id="patch_99">
    <path clip-path="url(#pdeabd39b63)" d="M 215.296496 273.312 
L 216.911827 273.312 
L 216.911827 49.645754 
L 215.296496 49.645754 
z
" style="fill:#1f77b4;"/>
   </g>
   <g id="patch_100">
    <path clip-path="url(#pdeabd39b63)" d="M 216.911827 273.312 
L 218.527158 273.312 
L 218.527158 59.812401 
L 216.911827 59.812401 
z
" style="fill:#1f77b4;"/>
   </g>
   <g id="patch_101">
    <path clip-path="url(#pdeabd39b63)" d="M 218.527158 273.312 
L 220.142489 273.312 
L 220.142489 55.455266 
L 218.527158 55.455266 
z
" style="fill:#1f77b4;"/>
   </g>
   <g id="patch_102">
    <path clip-path="url(#pdeabd39b63)" d="M 220.142489 273.312 
L 221.75782 273.312 
L 221.75782 67.074292 
L 220.142489 67.074292 
z
" style="fill:#1f77b4;"/>
   </g>
   <g id="patch_103">
    <path clip-path="url(#pdeabd39b63)" d="M 221.75782 273.312 
L 223.37315 273.312 
L 223.37315 38.752917 
L 221.75782 38.752917 
z
" style="fill:#1f77b4;"/>
   </g>
   <g id="patch_104">
    <path clip-path="url(#pdeabd39b63)" d="M 223.37315 273.312 
L 224.988481 273.312 
L 224.988481 58.360023 
L 223.37315 58.360023 
z
" style="fill:#1f77b4;"/>
   </g>
   <g id="patch_105">
    <path clip-path="url(#pdeabd39b63)" d="M 224.988481 273.312 
L 226.603812 273.312 
L 226.603812 37.300539 
L 224.988481 37.300539 
z
" style="fill:#1f77b4;"/>
   </g>
   <g id="patch_106">
    <path clip-path="url(#pdeabd39b63)" d="M 226.603812 273.312 
L 228.219143 273.312 
L 228.219143 46.740997 
L 226.603812 46.740997 
z
" style="fill:#1f77b4;"/>
   </g>
   <g id="patch_107">
    <path clip-path="url(#pdeabd39b63)" d="M 228.219143 273.312 
L 229.834474 273.312 
L 229.834474 60.53859 
L 228.219143 60.53859 
z
" style="fill:#1f77b4;"/>
   </g>
   <g id="patch_108">
    <path clip-path="url(#pdeabd39b63)" d="M 229.834474 273.312 
L 231.449804 273.312 
L 231.449804 35.84816 
L 229.834474 35.84816 
z
" style="fill:#1f77b4;"/>
   </g>
   <g id="patch_109">
    <path clip-path="url(#pdeabd39b63)" d="M 231.449804 273.312 
L 233.065135 273.312 
L 233.065135 56.181456 
L 231.449804 56.181456 
z
" style="fill:#1f77b4;"/>
   </g>
   <g id="patch_110">
    <path clip-path="url(#pdeabd39b63)" d="M 233.065135 273.312 
L 234.680466 273.312 
L 234.680466 40.931484 
L 233.065135 40.931484 
z
" style="fill:#1f77b4;"/>
   </g>
   <g id="patch_111">
    <path clip-path="url(#pdeabd39b63)" d="M 234.680466 273.312 
L 236.295797 273.312 
L 236.295797 24.955324 
L 234.680466 24.955324 
z
" style="fill:#1f77b4;"/>
   </g>
   <g id="patch_112">
    <path clip-path="url(#pdeabd39b63)" d="M 236.295797 273.312 
L 237.911128 273.312 
L 237.911128 40.931484 
L 236.295797 40.931484 
z
" style="fill:#1f77b4;"/>
   </g>
   <g id="patch_113">
    <path clip-path="url(#pdeabd39b63)" d="M 237.911128 273.312 
L 239.526458 273.312 
L 239.526458 38.026728 
L 237.911128 38.026728 
z
" style="fill:#1f77b4;"/>
   </g>
   <g id="patch_114">
    <path clip-path="url(#pdeabd39b63)" d="M 239.526458 273.312 
L 241.141789 273.312 
L 241.141789 59.086212 
L 239.526458 59.086212 
z
" style="fill:#1f77b4;"/>
   </g>
   <g id="patch_115">
    <path clip-path="url(#pdeabd39b63)" d="M 241.141789 273.312 
L 242.75712 273.312 
L 242.75712 67.800481 
L 241.141789 67.800481 
z
" style="fill:#1f77b4;"/>
   </g>
   <g id="patch_116">
    <path clip-path="url(#pdeabd39b63)" d="M 242.75712 273.312 
L 244.372451 273.312 
L 244.372451 37.300539 
L 242.75712 37.300539 
z
" style="fill:#1f77b4;"/>
   </g>
   <g id="patch_117">
    <path clip-path="url(#pdeabd39b63)" d="M 244.372451 273.312 
L 245.987781 273.312 
L 245.987781 47.467186 
L 244.372451 47.467186 
z
" style="fill:#1f77b4;"/>
   </g>
   <g id="patch_118">
    <path clip-path="url(#pdeabd39b63)" d="M 245.987781 273.312 
L 247.603112 273.312 
L 247.603112 40.205295 
L 245.987781 40.205295 
z
" style="fill:#1f77b4;"/>
   </g>
   <g id="patch_119">
    <path clip-path="url(#pdeabd39b63)" d="M 247.603112 273.312 
L 249.218443 273.312 
L 249.218443 53.276699 
L 247.603112 53.276699 
z
" style="fill:#1f77b4;"/>
   </g>
   <g id="patch_120">
    <path clip-path="url(#pdeabd39b63)" d="M 249.218443 273.312 
L 250.833774 273.312 
L 250.833774 76.514751 
L 249.218443 76.514751 
z
" style="fill:#1f77b4;"/>
   </g>
   <g id="patch_121">
    <path clip-path="url(#pdeabd39b63)" d="M 250.833774 273.312 
L 252.449105 273.312 
L 252.449105 54.002888 
L 250.833774 54.002888 
z
" style="fill:#1f77b4;"/>
   </g>
   <g id="patch_122">
    <path clip-path="url(#pdeabd39b63)" d="M 252.449105 273.312 
L 254.064435 273.312 
L 254.064435 58.360023 
L 252.449105 58.360023 
z
" style="fill:#1f77b4;"/>
   </g>
   <g id="patch_123">
    <path clip-path="url(#pdeabd39b63)" d="M 254.064435 273.312 
L 255.679766 273.312 
L 255.679766 66.348103 
L 254.064435 66.348103 
z
" style="fill:#1f77b4;"/>
   </g>
   <g id="patch_124">
    <path clip-path="url(#pdeabd39b63)" d="M 255.679766 273.312 
L 257.295097 273.312 
L 257.295097 69.25286 
L 255.679766 69.25286 
z
" style="fill:#1f77b4;"/>
   </g>
   <g id="patch_125">
    <path clip-path="url(#pdeabd39b63)" d="M 257.295097 273.312 
L 258.910428 273.312 
L 258.910428 48.193375 
L 257.295097 48.193375 
z
" style="fill:#1f77b4;"/>
   </g>
   <g id="patch_126">
    <path clip-path="url(#pdeabd39b63)" d="M 258.910428 273.312 
L 260.525759 273.312 
L 260.525759 76.514751 
L 258.910428 76.514751 
z
" style="fill:#1f77b4;"/>
   </g>
   <g id="patch_127">
    <path clip-path="url(#pdeabd39b63)" d="M 260.525759 273.312 
L 262.141089 273.312 
L 262.141089 63.443347 
L 260.525759 63.443347 
z
" style="fill:#1f77b4;"/>
   </g>
   <g id="patch_128">
    <path clip-path="url(#pdeabd39b63)" d="M 262.141089 273.312 
L 263.75642 273.312 
L 263.75642 54.002888 
L 262.141089 54.002888 
z
" style="fill:#1f77b4;"/>
   </g>
   <g id="patch_129">
    <path clip-path="url(#pdeabd39b63)" d="M 263.75642 273.312 
L 265.371751 273.312 
L 265.371751 58.360023 
L 263.75642 58.360023 
z
" style="fill:#1f77b4;"/>
   </g>
   <g id="patch_130">
    <path clip-path="url(#pdeabd39b63)" d="M 265.371751 273.312 
L 266.987082 273.312 
L 266.987082 78.693318 
L 265.371751 78.693318 
z
" style="fill:#1f77b4;"/>
   </g>
   <g id="patch_131">
    <path clip-path="url(#pdeabd39b63)" d="M 266.987082 273.312 
L 268.602413 273.312 
L 268.602413 83.776642 
L 266.987082 83.776642 
z
" style="fill:#1f77b4;"/>
   </g>
   <g id="patch_132">
    <path clip-path="url(#pdeabd39b63)" d="M 268.602413 273.312 
L 270.217743 273.312 
L 270.217743 81.598074 
L 268.602413 81.598074 
z
" style="fill:#1f77b4;"/>
   </g>
   <g id="patch_133">
    <path clip-path="url(#pdeabd39b63)" d="M 270.217743 273.312 
L 271.833074 273.312 
L 271.833074 75.788562 
L 270.217743 75.788562 
z
" style="fill:#1f77b4;"/>
   </g>
   <g id="patch_134">
    <path clip-path="url(#pdeabd39b63)" d="M 271.833074 273.312 
L 273.448405 273.312 
L 273.448405 85.955209 
L 271.833074 85.955209 
z
" style="fill:#1f77b4;"/>
   </g>
   <g id="patch_135">
    <path clip-path="url(#pdeabd39b63)" d="M 273.448405 273.312 
L 275.063736 273.312 
L 275.063736 84.502831 
L 273.448405 84.502831 
z
" style="fill:#1f77b4;"/>
   </g>
   <g id="patch_136">
    <path clip-path="url(#pdeabd39b63)" d="M 275.063736 273.312 
L 276.679066 273.312 
L 276.679066 75.062372 
L 275.063736 75.062372 
z
" style="fill:#1f77b4;"/>
   </g>
   <g id="patch_137">
    <path clip-path="url(#pdeabd39b63)" d="M 276.679066 273.312 
L 278.294397 273.312 
L 278.294397 62.717158 
L 276.679066 62.717158 
z
" style="fill:#1f77b4;"/>
   </g>
   <g id="patch_138">
    <path clip-path="url(#pdeabd39b63)" d="M 278.294397 273.312 
L 279.909728 273.312 
L 279.909728 95.395668 
L 278.294397 95.395668 
z
" style="fill:#1f77b4;"/>
   </g>
   <g id="patch_139">
    <path clip-path="url(#pdeabd39b63)" d="M 279.909728 273.312 
L 281.525059 273.312 
L 281.525059 58.360023 
L 279.909728 58.360023 
z
" style="fill:#1f77b4;"/>
   </g>
   <g id="patch_140">
    <path clip-path="url(#pdeabd39b63)" d="M 281.525059 273.312 
L 283.14039 273.312 
L 283.14039 88.133777 
L 281.525059 88.133777 
z
" style="fill:#1f77b4;"/>
   </g>
   <g id="patch_141">
    <path clip-path="url(#pdeabd39b63)" d="M 283.14039 273.312 
L 284.75572 273.312 
L 284.75572 96.121857 
L 283.14039 96.121857 
z
" style="fill:#1f77b4;"/>
   </g>
   <g id="patch_142">
    <path clip-path="url(#pdeabd39b63)" d="M 284.75572 273.312 
L 286.371051 273.312 
L 286.371051 84.502831 
L 284.75572 84.502831 
z
" style="fill:#1f77b4;"/>
   </g>
   <g id="patch_143">
    <path clip-path="url(#pdeabd39b63)" d="M 286.371051 273.312 
L 287.986382 273.312 
L 287.986382 114.276585 
L 286.371051 114.276585 
z
" style="fill:#1f77b4;"/>
   </g>
   <g id="patch_144">
    <path clip-path="url(#pdeabd39b63)" d="M 287.986382 273.312 
L 289.601713 273.312 
L 289.601713 80.145696 
L 287.986382 80.145696 
z
" style="fill:#1f77b4;"/>
   </g>
   <g id="patch_145">
    <path clip-path="url(#pdeabd39b63)" d="M 289.601713 273.312 
L 291.217044 273.312 
L 291.217044 118.633719 
L 289.601713 118.633719 
z
" style="fill:#1f77b4;"/>
   </g>
   <g id="patch_146">
    <path clip-path="url(#pdeabd39b63)" d="M 291.217044 273.312 
L 292.832374 273.312 
L 292.832374 96.121857 
L 291.217044 96.121857 
z
" style="fill:#1f77b4;"/>
   </g>
   <g id="patch_147">
    <path clip-path="url(#pdeabd39b63)" d="M 292.832374 273.312 
L 294.447705 273.312 
L 294.447705 112.098017 
L 292.832374 112.098017 
z
" style="fill:#1f77b4;"/>
   </g>
   <g id="patch_148">
    <path clip-path="url(#pdeabd39b63)" d="M 294.447705 273.312 
L 296.063036 273.312 
L 296.063036 105.562315 
L 294.447705 105.562315 
z
" style="fill:#1f77b4;"/>
   </g>
   <g id="patch_149">
    <path clip-path="url(#pdeabd39b63)" d="M 296.063036 273.312 
L 297.678367 273.312 
L 297.678367 115.728963 
L 296.063036 115.728963 
z
" style="fill:#1f77b4;"/>
   </g>
   <g id="patch_150">
    <path clip-path="url(#pdeabd39b63)" d="M 297.678367 273.312 
L 299.293697 273.312 
L 299.293697 93.2171 
L 297.678367 93.2171 
z
" style="fill:#1f77b4;"/>
   </g>
   <g id="patch_151">
    <path clip-path="url(#pdeabd39b63)" d="M 299.293697 273.312 
L 300.909028 273.312 
L 300.909028 112.824206 
L 299.293697 112.824206 
z
" style="fill:#1f77b4;"/>
   </g>
   <g id="patch_152">
    <path clip-path="url(#pdeabd39b63)" d="M 300.909028 273.312 
L 302.524359 273.312 
L 302.524359 110.645639 
L 300.909028 110.645639 
z
" style="fill:#1f77b4;"/>
   </g>
   <g id="patch_153">
    <path clip-path="url(#pdeabd39b63)" d="M 302.524359 273.312 
L 304.13969 273.312 
L 304.13969 107.014693 
L 302.524359 107.014693 
z
" style="fill:#1f77b4;"/>
   </g>
   <g id="patch_154">
    <path clip-path="url(#pdeabd39b63)" d="M 304.13969 273.312 
L 305.755021 273.312 
L 305.755021 99.752802 
L 304.13969 99.752802 
z
" style="fill:#1f77b4;"/>
   </g>
   <g id="patch_155">
    <path clip-path="url(#pdeabd39b63)" d="M 305.755021 273.312 
L 307.370351 273.312 
L 307.370351 115.728963 
L 305.755021 115.728963 
z
" style="fill:#1f77b4;"/>
   </g>
   <g id="patch_156">
    <path clip-path="url(#pdeabd39b63)" d="M 307.370351 273.312 
L 308.985682 273.312 
L 308.985682 109.91945 
L 307.370351 109.91945 
z
" style="fill:#1f77b4;"/>
   </g>
   <g id="patch_157">
    <path clip-path="url(#pdeabd39b63)" d="M 308.985682 273.312 
L 310.601013 273.312 
L 310.601013 124.443232 
L 308.985682 124.443232 
z
" style="fill:#1f77b4;"/>
   </g>
   <g id="patch_158">
    <path clip-path="url(#pdeabd39b63)" d="M 310.601013 273.312 
L 312.216344 273.312 
L 312.216344 125.89561 
L 310.601013 125.89561 
z
" style="fill:#1f77b4;"/>
   </g>
   <g id="patch_159">
    <path clip-path="url(#pdeabd39b63)" d="M 312.216344 273.312 
L 313.831675 273.312 
L 313.831675 131.705123 
L 312.216344 131.705123 
z
" style="fill:#1f77b4;"/>
   </g>
   <g id="patch_160">
    <path clip-path="url(#pdeabd39b63)" d="M 313.831675 273.312 
L 315.447005 273.312 
L 315.447005 146.955095 
L 313.831675 146.955095 
z
" style="fill:#1f77b4;"/>
   </g>
   <g id="patch_161">
    <path clip-path="url(#pdeabd39b63)" d="M 315.447005 273.312 
L 317.062336 273.312 
L 317.062336 137.514636 
L 315.447005 137.514636 
z
" style="fill:#1f77b4;"/>
   </g>
   <g id="patch_162">
    <path clip-path="url(#pdeabd39b63)" d="M 317.062336 273.312 
L 318.677667 273.312 
L 318.677667 140.419393 
L 317.062336 140.419393 
z
" style="fill:#1f77b4;"/>
   </g>
   <g id="patch_163">
    <path clip-path="url(#pdeabd39b63)" d="M 318.677667 273.312 
L 320.292998 273.312 
L 320.292998 133.883691 
L 318.677667 133.883691 
z
" style="fill:#1f77b4;"/>
   </g>
   <g id="patch_164">
    <path clip-path="url(#pdeabd39b63)" d="M 320.292998 273.312 
L 321.908329 273.312 
L 321.908329 130.978934 
L 320.292998 130.978934 
z
" style="fill:#1f77b4;"/>
   </g>
   <g id="patch_165">
    <path clip-path="url(#pdeabd39b63)" d="M 321.908329 273.312 
L 323.523659 273.312 
L 323.523659 147.681284 
L 321.908329 147.681284 
z
" style="fill:#1f77b4;"/>
   </g>
   <g id="patch_166">
    <path clip-path="url(#pdeabd39b63)" d="M 323.523659 273.312 
L 325.13899 273.312 
L 325.13899 156.395553 
L 323.523659 156.395553 
z
" style="fill:#1f77b4;"/>
   </g>
   <g id="patch_167">
    <path clip-path="url(#pdeabd39b63)" d="M 325.13899 273.312 
L 326.754321 273.312 
L 326.754321 146.228905 
L 325.13899 146.228905 
z
" style="fill:#1f77b4;"/>
   </g>
   <g id="patch_168">
    <path clip-path="url(#pdeabd39b63)" d="M 326.754321 273.312 
L 328.369652 273.312 
L 328.369652 169.466957 
L 326.754321 169.466957 
z
" style="fill:#1f77b4;"/>
   </g>
   <g id="patch_169">
    <path clip-path="url(#pdeabd39b63)" d="M 328.369652 273.312 
L 329.984982 273.312 
L 329.984982 157.847931 
L 328.369652 157.847931 
z
" style="fill:#1f77b4;"/>
   </g>
   <g id="patch_170">
    <path clip-path="url(#pdeabd39b63)" d="M 329.984982 273.312 
L 331.600313 273.312 
L 331.600313 154.216986 
L 329.984982 154.216986 
z
" style="fill:#1f77b4;"/>
   </g>
   <g id="patch_171">
    <path clip-path="url(#pdeabd39b63)" d="M 331.600313 273.312 
L 333.215644 273.312 
L 333.215644 164.383633 
L 331.600313 164.383633 
z
" style="fill:#1f77b4;"/>
   </g>
   <g id="patch_172">
    <path clip-path="url(#pdeabd39b63)" d="M 333.215644 273.312 
L 334.830975 273.312 
L 334.830975 168.014579 
L 333.215644 168.014579 
z
" style="fill:#1f77b4;"/>
   </g>
   <g id="patch_173">
    <path clip-path="url(#pdeabd39b63)" d="M 334.830975 273.312 
L 336.446306 273.312 
L 336.446306 166.562201 
L 334.830975 166.562201 
z
" style="fill:#1f77b4;"/>
   </g>
   <g id="patch_174">
    <path clip-path="url(#pdeabd39b63)" d="M 336.446306 273.312 
L 338.061636 273.312 
L 338.061636 190.526441 
L 336.446306 190.526441 
z
" style="fill:#1f77b4;"/>
   </g>
   <g id="patch_175">
    <path clip-path="url(#pdeabd39b63)" d="M 338.061636 273.312 
L 339.676967 273.312 
L 339.676967 173.097903 
L 338.061636 173.097903 
z
" style="fill:#1f77b4;"/>
   </g>
   <g id="patch_176">
    <path clip-path="url(#pdeabd39b63)" d="M 339.676967 273.312 
L 341.292298 273.312 
L 341.292298 179.633605 
L 339.676967 179.633605 
z
" style="fill:#1f77b4;"/>
   </g>
   <g id="patch_177">
    <path clip-path="url(#pdeabd39b63)" d="M 341.292298 273.312 
L 342.907629 273.312 
L 342.907629 176.002659 
L 341.292298 176.002659 
z
" style="fill:#1f77b4;"/>
   </g>
   <g id="patch_178">
    <path clip-path="url(#pdeabd39b63)" d="M 342.907629 273.312 
L 344.52296 273.312 
L 344.52296 178.907415 
L 342.907629 178.907415 
z
" style="fill:#1f77b4;"/>
   </g>
   <g id="patch_179">
    <path clip-path="url(#pdeabd39b63)" d="M 344.52296 273.312 
L 346.13829 273.312 
L 346.13829 182.538361 
L 344.52296 182.538361 
z
" style="fill:#1f77b4;"/>
   </g>
   <g id="patch_180">
    <path clip-path="url(#pdeabd39b63)" d="M 346.13829 273.312 
L 347.753621 273.312 
L 347.753621 185.443117 
L 346.13829 185.443117 
z
" style="fill:#1f77b4;"/>
   </g>
   <g id="patch_181">
    <path clip-path="url(#pdeabd39b63)" d="M 347.753621 273.312 
L 349.368952 273.312 
L 349.368952 191.25263 
L 347.753621 191.25263 
z
" style="fill:#1f77b4;"/>
   </g>
   <g id="patch_182">
    <path clip-path="url(#pdeabd39b63)" d="M 349.368952 273.312 
L 350.984283 273.312 
L 350.984283 186.895496 
L 349.368952 186.895496 
z
" style="fill:#1f77b4;"/>
   </g>
   <g id="patch_183">
    <path clip-path="url(#pdeabd39b63)" d="M 350.984283 273.312 
L 352.599614 273.312 
L 352.599614 191.25263 
L 350.984283 191.25263 
z
" style="fill:#1f77b4;"/>
   </g>
   <g id="patch_184">
    <path clip-path="url(#pdeabd39b63)" d="M 352.599614 273.312 
L 354.214944 273.312 
L 354.214944 206.502602 
L 352.599614 206.502602 
z
" style="fill:#1f77b4;"/>
   </g>
   <g id="patch_185">
    <path clip-path="url(#pdeabd39b63)" d="M 354.214944 273.312 
L 355.830275 273.312 
L 355.830275 191.25263 
L 354.214944 191.25263 
z
" style="fill:#1f77b4;"/>
   </g>
   <g id="patch_186">
    <path clip-path="url(#pdeabd39b63)" d="M 355.830275 273.312 
L 357.445606 273.312 
L 357.445606 224.65733 
L 355.830275 224.65733 
z
" style="fill:#1f77b4;"/>
   </g>
   <g id="patch_187">
    <path clip-path="url(#pdeabd39b63)" d="M 357.445606 273.312 
L 359.060937 273.312 
L 359.060937 217.395438 
L 357.445606 217.395438 
z
" style="fill:#1f77b4;"/>
   </g>
   <g id="patch_188">
    <path clip-path="url(#pdeabd39b63)" d="M 359.060937 273.312 
L 360.676267 273.312 
L 360.676267 219.574006 
L 359.060937 219.574006 
z
" style="fill:#1f77b4;"/>
   </g>
   <g id="patch_189">
    <path clip-path="url(#pdeabd39b63)" d="M 360.676267 273.312 
L 362.291598 273.312 
L 362.291598 217.395438 
L 360.676267 217.395438 
z
" style="fill:#1f77b4;"/>
   </g>
   <g id="patch_190">
    <path clip-path="url(#pdeabd39b63)" d="M 362.291598 273.312 
L 363.906929 273.312 
L 363.906929 218.121628 
L 362.291598 218.121628 
z
" style="fill:#1f77b4;"/>
   </g>
   <g id="patch_191">
    <path clip-path="url(#pdeabd39b63)" d="M 363.906929 273.312 
L 365.52226 273.312 
L 365.52226 229.740653 
L 363.906929 229.740653 
z
" style="fill:#1f77b4;"/>
   </g>
   <g id="patch_192">
    <path clip-path="url(#pdeabd39b63)" d="M 365.52226 273.312 
L 367.137591 273.312 
L 367.137591 237.002544 
L 365.52226 237.002544 
z
" style="fill:#1f77b4;"/>
   </g>
   <g id="patch_193">
    <path clip-path="url(#pdeabd39b63)" d="M 367.137591 273.312 
L 368.752921 273.312 
L 368.752921 230.466842 
L 367.137591 230.466842 
z
" style="fill:#1f77b4;"/>
   </g>
   <g id="patch_194">
    <path clip-path="url(#pdeabd39b63)" d="M 368.752921 273.312 
L 370.368252 273.312 
L 370.368252 235.550166 
L 368.752921 235.550166 
z
" style="fill:#1f77b4;"/>
   </g>
   <g id="patch_195">
    <path clip-path="url(#pdeabd39b63)" d="M 370.368252 273.312 
L 371.983583 273.312 
L 371.983583 238.454923 
L 370.368252 238.454923 
z
" style="fill:#1f77b4;"/>
   </g>
   <g id="patch_196">
    <path clip-path="url(#pdeabd39b63)" d="M 371.983583 273.312 
L 373.598914 273.312 
L 373.598914 241.359679 
L 371.983583 241.359679 
z
" style="fill:#1f77b4;"/>
   </g>
   <g id="patch_197">
    <path clip-path="url(#pdeabd39b63)" d="M 373.598914 273.312 
L 375.214245 273.312 
L 375.214245 252.252516 
L 373.598914 252.252516 
z
" style="fill:#1f77b4;"/>
   </g>
   <g id="patch_198">
    <path clip-path="url(#pdeabd39b63)" d="M 375.214245 273.312 
L 376.829575 273.312 
L 376.829575 255.157272 
L 375.214245 255.157272 
z
" style="fill:#1f77b4;"/>
   </g>
   <g id="patch_199">
    <path clip-path="url(#pdeabd39b63)" d="M 376.829575 273.312 
L 378.444906 273.312 
L 378.444906 264.597731 
L 376.829575 264.597731 
z
" style="fill:#1f77b4;"/>
   </g>
   <g id="patch_200">
    <path clip-path="url(#pdeabd39b63)" d="M 378.444906 273.312 
L 380.060237 273.312 
L 380.060237 259.514407 
L 378.444906 259.514407 
z
" style="fill:#1f77b4;"/>
   </g>
   <g id="patch_201">
    <path clip-path="url(#pdeabd39b63)" d="M 380.060237 273.312 
L 381.675568 273.312 
L 381.675568 263.871542 
L 380.060237 263.871542 
z
" style="fill:#1f77b4;"/>
   </g>
   <g id="patch_202">
    <path clip-path="url(#pdeabd39b63)" d="M 381.675568 273.312 
L 383.290898 273.312 
L 383.290898 271.133433 
L 381.675568 271.133433 
z
" style="fill:#1f77b4;"/>
   </g>
   <g id="matplotlib.axis_1">
    <g id="xtick_1">
     <g id="line2d_1">
      <defs>
       <path d="M 0 0 
L 0 3.5 
" id="m9cfd4b2652" style="stroke:#000000;stroke-width:0.8;"/>
      </defs>
      <g>
       <use style="stroke:#000000;stroke-width:0.8;" x="60.013977" xlink:href="#m9cfd4b2652" y="273.312"/>
      </g>
     </g>
     <g id="text_1">
      <!-- 0.0 -->
      <g transform="translate(52.062415 287.910437)scale(0.1 -0.1)">
       <defs>
        <path d="M 2034 4250 
Q 1547 4250 1301 3770 
Q 1056 3291 1056 2328 
Q 1056 1369 1301 889 
Q 1547 409 2034 409 
Q 2525 409 2770 889 
Q 3016 1369 3016 2328 
Q 3016 3291 2770 3770 
Q 2525 4250 2034 4250 
z
M 2034 4750 
Q 2819 4750 3233 4129 
Q 3647 3509 3647 2328 
Q 3647 1150 3233 529 
Q 2819 -91 2034 -91 
Q 1250 -91 836 529 
Q 422 1150 422 2328 
Q 422 3509 836 4129 
Q 1250 4750 2034 4750 
z
" id="DejaVuSans-30" transform="scale(0.015625)"/>
        <path d="M 684 794 
L 1344 794 
L 1344 0 
L 684 0 
L 684 794 
z
" id="DejaVuSans-2e" transform="scale(0.015625)"/>
       </defs>
       <use xlink:href="#DejaVuSans-30"/>
       <use x="63.623047" xlink:href="#DejaVuSans-2e"/>
       <use x="95.410156" xlink:href="#DejaVuSans-30"/>
      </g>
     </g>
    </g>
    <g id="xtick_2">
     <g id="line2d_2">
      <g>
       <use style="stroke:#000000;stroke-width:0.8;" x="101.350278" xlink:href="#m9cfd4b2652" y="273.312"/>
      </g>
     </g>
     <g id="text_2">
      <!-- 0.2 -->
      <g transform="translate(93.398715 287.910437)scale(0.1 -0.1)">
       <defs>
        <path d="M 1228 531 
L 3431 531 
L 3431 0 
L 469 0 
L 469 531 
Q 828 903 1448 1529 
Q 2069 2156 2228 2338 
Q 2531 2678 2651 2914 
Q 2772 3150 2772 3378 
Q 2772 3750 2511 3984 
Q 2250 4219 1831 4219 
Q 1534 4219 1204 4116 
Q 875 4013 500 3803 
L 500 4441 
Q 881 4594 1212 4672 
Q 1544 4750 1819 4750 
Q 2544 4750 2975 4387 
Q 3406 4025 3406 3419 
Q 3406 3131 3298 2873 
Q 3191 2616 2906 2266 
Q 2828 2175 2409 1742 
Q 1991 1309 1228 531 
z
" id="DejaVuSans-32" transform="scale(0.015625)"/>
       </defs>
       <use xlink:href="#DejaVuSans-30"/>
       <use x="63.623047" xlink:href="#DejaVuSans-2e"/>
       <use x="95.410156" xlink:href="#DejaVuSans-32"/>
      </g>
     </g>
    </g>
    <g id="xtick_3">
     <g id="line2d_3">
      <g>
       <use style="stroke:#000000;stroke-width:0.8;" x="142.686578" xlink:href="#m9cfd4b2652" y="273.312"/>
      </g>
     </g>
     <g id="text_3">
      <!-- 0.4 -->
      <g transform="translate(134.735016 287.910437)scale(0.1 -0.1)">
       <defs>
        <path d="M 2419 4116 
L 825 1625 
L 2419 1625 
L 2419 4116 
z
M 2253 4666 
L 3047 4666 
L 3047 1625 
L 3713 1625 
L 3713 1100 
L 3047 1100 
L 3047 0 
L 2419 0 
L 2419 1100 
L 313 1100 
L 313 1709 
L 2253 4666 
z
" id="DejaVuSans-34" transform="scale(0.015625)"/>
       </defs>
       <use xlink:href="#DejaVuSans-30"/>
       <use x="63.623047" xlink:href="#DejaVuSans-2e"/>
       <use x="95.410156" xlink:href="#DejaVuSans-34"/>
      </g>
     </g>
    </g>
    <g id="xtick_4">
     <g id="line2d_4">
      <g>
       <use style="stroke:#000000;stroke-width:0.8;" x="184.022879" xlink:href="#m9cfd4b2652" y="273.312"/>
      </g>
     </g>
     <g id="text_4">
      <!-- 0.6 -->
      <g transform="translate(176.071316 287.910437)scale(0.1 -0.1)">
       <defs>
        <path d="M 2113 2584 
Q 1688 2584 1439 2293 
Q 1191 2003 1191 1497 
Q 1191 994 1439 701 
Q 1688 409 2113 409 
Q 2538 409 2786 701 
Q 3034 994 3034 1497 
Q 3034 2003 2786 2293 
Q 2538 2584 2113 2584 
z
M 3366 4563 
L 3366 3988 
Q 3128 4100 2886 4159 
Q 2644 4219 2406 4219 
Q 1781 4219 1451 3797 
Q 1122 3375 1075 2522 
Q 1259 2794 1537 2939 
Q 1816 3084 2150 3084 
Q 2853 3084 3261 2657 
Q 3669 2231 3669 1497 
Q 3669 778 3244 343 
Q 2819 -91 2113 -91 
Q 1303 -91 875 529 
Q 447 1150 447 2328 
Q 447 3434 972 4092 
Q 1497 4750 2381 4750 
Q 2619 4750 2861 4703 
Q 3103 4656 3366 4563 
z
" id="DejaVuSans-36" transform="scale(0.015625)"/>
       </defs>
       <use xlink:href="#DejaVuSans-30"/>
       <use x="63.623047" xlink:href="#DejaVuSans-2e"/>
       <use x="95.410156" xlink:href="#DejaVuSans-36"/>
      </g>
     </g>
    </g>
    <g id="xtick_5">
     <g id="line2d_5">
      <g>
       <use style="stroke:#000000;stroke-width:0.8;" x="225.35918" xlink:href="#m9cfd4b2652" y="273.312"/>
      </g>
     </g>
     <g id="text_5">
      <!-- 0.8 -->
      <g transform="translate(217.407617 287.910437)scale(0.1 -0.1)">
       <defs>
        <path d="M 2034 2216 
Q 1584 2216 1326 1975 
Q 1069 1734 1069 1313 
Q 1069 891 1326 650 
Q 1584 409 2034 409 
Q 2484 409 2743 651 
Q 3003 894 3003 1313 
Q 3003 1734 2745 1975 
Q 2488 2216 2034 2216 
z
M 1403 2484 
Q 997 2584 770 2862 
Q 544 3141 544 3541 
Q 544 4100 942 4425 
Q 1341 4750 2034 4750 
Q 2731 4750 3128 4425 
Q 3525 4100 3525 3541 
Q 3525 3141 3298 2862 
Q 3072 2584 2669 2484 
Q 3125 2378 3379 2068 
Q 3634 1759 3634 1313 
Q 3634 634 3220 271 
Q 2806 -91 2034 -91 
Q 1263 -91 848 271 
Q 434 634 434 1313 
Q 434 1759 690 2068 
Q 947 2378 1403 2484 
z
M 1172 3481 
Q 1172 3119 1398 2916 
Q 1625 2713 2034 2713 
Q 2441 2713 2670 2916 
Q 2900 3119 2900 3481 
Q 2900 3844 2670 4047 
Q 2441 4250 2034 4250 
Q 1625 4250 1398 4047 
Q 1172 3844 1172 3481 
z
" id="DejaVuSans-38" transform="scale(0.015625)"/>
       </defs>
       <use xlink:href="#DejaVuSans-30"/>
       <use x="63.623047" xlink:href="#DejaVuSans-2e"/>
       <use x="95.410156" xlink:href="#DejaVuSans-38"/>
      </g>
     </g>
    </g>
    <g id="xtick_6">
     <g id="line2d_6">
      <g>
       <use style="stroke:#000000;stroke-width:0.8;" x="266.69548" xlink:href="#m9cfd4b2652" y="273.312"/>
      </g>
     </g>
     <g id="text_6">
      <!-- 1.0 -->
      <g transform="translate(258.743918 287.910437)scale(0.1 -0.1)">
       <defs>
        <path d="M 794 531 
L 1825 531 
L 1825 4091 
L 703 3866 
L 703 4441 
L 1819 4666 
L 2450 4666 
L 2450 531 
L 3481 531 
L 3481 0 
L 794 0 
L 794 531 
z
" id="DejaVuSans-31" transform="scale(0.015625)"/>
       </defs>
       <use xlink:href="#DejaVuSans-31"/>
       <use x="63.623047" xlink:href="#DejaVuSans-2e"/>
       <use x="95.410156" xlink:href="#DejaVuSans-30"/>
      </g>
     </g>
    </g>
    <g id="xtick_7">
     <g id="line2d_7">
      <g>
       <use style="stroke:#000000;stroke-width:0.8;" x="308.031781" xlink:href="#m9cfd4b2652" y="273.312"/>
      </g>
     </g>
     <g id="text_7">
      <!-- 1.2 -->
      <g transform="translate(300.080218 287.910437)scale(0.1 -0.1)">
       <use xlink:href="#DejaVuSans-31"/>
       <use x="63.623047" xlink:href="#DejaVuSans-2e"/>
       <use x="95.410156" xlink:href="#DejaVuSans-32"/>
      </g>
     </g>
    </g>
    <g id="xtick_8">
     <g id="line2d_8">
      <g>
       <use style="stroke:#000000;stroke-width:0.8;" x="349.368081" xlink:href="#m9cfd4b2652" y="273.312"/>
      </g>
     </g>
     <g id="text_8">
      <!-- 1.4 -->
      <g transform="translate(341.416519 287.910437)scale(0.1 -0.1)">
       <use xlink:href="#DejaVuSans-31"/>
       <use x="63.623047" xlink:href="#DejaVuSans-2e"/>
       <use x="95.410156" xlink:href="#DejaVuSans-34"/>
      </g>
     </g>
    </g>
    <g id="xtick_9">
     <g id="line2d_9">
      <g>
       <use style="stroke:#000000;stroke-width:0.8;" x="390.704382" xlink:href="#m9cfd4b2652" y="273.312"/>
      </g>
     </g>
     <g id="text_9">
      <!-- 1.6 -->
      <g transform="translate(382.752819 287.910437)scale(0.1 -0.1)">
       <use xlink:href="#DejaVuSans-31"/>
       <use x="63.623047" xlink:href="#DejaVuSans-2e"/>
       <use x="95.410156" xlink:href="#DejaVuSans-36"/>
      </g>
     </g>
    </g>
    <g id="text_10">
     <!-- Angle with normal (rad) -->
     <g transform="translate(163.023281 301.588562)scale(0.1 -0.1)">
      <defs>
       <path d="M 2188 4044 
L 1331 1722 
L 3047 1722 
L 2188 4044 
z
M 1831 4666 
L 2547 4666 
L 4325 0 
L 3669 0 
L 3244 1197 
L 1141 1197 
L 716 0 
L 50 0 
L 1831 4666 
z
" id="DejaVuSans-41" transform="scale(0.015625)"/>
       <path d="M 3513 2113 
L 3513 0 
L 2938 0 
L 2938 2094 
Q 2938 2591 2744 2837 
Q 2550 3084 2163 3084 
Q 1697 3084 1428 2787 
Q 1159 2491 1159 1978 
L 1159 0 
L 581 0 
L 581 3500 
L 1159 3500 
L 1159 2956 
Q 1366 3272 1645 3428 
Q 1925 3584 2291 3584 
Q 2894 3584 3203 3211 
Q 3513 2838 3513 2113 
z
" id="DejaVuSans-6e" transform="scale(0.015625)"/>
       <path d="M 2906 1791 
Q 2906 2416 2648 2759 
Q 2391 3103 1925 3103 
Q 1463 3103 1205 2759 
Q 947 2416 947 1791 
Q 947 1169 1205 825 
Q 1463 481 1925 481 
Q 2391 481 2648 825 
Q 2906 1169 2906 1791 
z
M 3481 434 
Q 3481 -459 3084 -895 
Q 2688 -1331 1869 -1331 
Q 1566 -1331 1297 -1286 
Q 1028 -1241 775 -1147 
L 775 -588 
Q 1028 -725 1275 -790 
Q 1522 -856 1778 -856 
Q 2344 -856 2625 -561 
Q 2906 -266 2906 331 
L 2906 616 
Q 2728 306 2450 153 
Q 2172 0 1784 0 
Q 1141 0 747 490 
Q 353 981 353 1791 
Q 353 2603 747 3093 
Q 1141 3584 1784 3584 
Q 2172 3584 2450 3431 
Q 2728 3278 2906 2969 
L 2906 3500 
L 3481 3500 
L 3481 434 
z
" id="DejaVuSans-67" transform="scale(0.015625)"/>
       <path d="M 603 4863 
L 1178 4863 
L 1178 0 
L 603 0 
L 603 4863 
z
" id="DejaVuSans-6c" transform="scale(0.015625)"/>
       <path d="M 3597 1894 
L 3597 1613 
L 953 1613 
Q 991 1019 1311 708 
Q 1631 397 2203 397 
Q 2534 397 2845 478 
Q 3156 559 3463 722 
L 3463 178 
Q 3153 47 2828 -22 
Q 2503 -91 2169 -91 
Q 1331 -91 842 396 
Q 353 884 353 1716 
Q 353 2575 817 3079 
Q 1281 3584 2069 3584 
Q 2775 3584 3186 3129 
Q 3597 2675 3597 1894 
z
M 3022 2063 
Q 3016 2534 2758 2815 
Q 2500 3097 2075 3097 
Q 1594 3097 1305 2825 
Q 1016 2553 972 2059 
L 3022 2063 
z
" id="DejaVuSans-65" transform="scale(0.015625)"/>
       <path id="DejaVuSans-20" transform="scale(0.015625)"/>
       <path d="M 269 3500 
L 844 3500 
L 1563 769 
L 2278 3500 
L 2956 3500 
L 3675 769 
L 4391 3500 
L 4966 3500 
L 4050 0 
L 3372 0 
L 2619 2869 
L 1863 0 
L 1184 0 
L 269 3500 
z
" id="DejaVuSans-77" transform="scale(0.015625)"/>
       <path d="M 603 3500 
L 1178 3500 
L 1178 0 
L 603 0 
L 603 3500 
z
M 603 4863 
L 1178 4863 
L 1178 4134 
L 603 4134 
L 603 4863 
z
" id="DejaVuSans-69" transform="scale(0.015625)"/>
       <path d="M 1172 4494 
L 1172 3500 
L 2356 3500 
L 2356 3053 
L 1172 3053 
L 1172 1153 
Q 1172 725 1289 603 
Q 1406 481 1766 481 
L 2356 481 
L 2356 0 
L 1766 0 
Q 1100 0 847 248 
Q 594 497 594 1153 
L 594 3053 
L 172 3053 
L 172 3500 
L 594 3500 
L 594 4494 
L 1172 4494 
z
" id="DejaVuSans-74" transform="scale(0.015625)"/>
       <path d="M 3513 2113 
L 3513 0 
L 2938 0 
L 2938 2094 
Q 2938 2591 2744 2837 
Q 2550 3084 2163 3084 
Q 1697 3084 1428 2787 
Q 1159 2491 1159 1978 
L 1159 0 
L 581 0 
L 581 4863 
L 1159 4863 
L 1159 2956 
Q 1366 3272 1645 3428 
Q 1925 3584 2291 3584 
Q 2894 3584 3203 3211 
Q 3513 2838 3513 2113 
z
" id="DejaVuSans-68" transform="scale(0.015625)"/>
       <path d="M 1959 3097 
Q 1497 3097 1228 2736 
Q 959 2375 959 1747 
Q 959 1119 1226 758 
Q 1494 397 1959 397 
Q 2419 397 2687 759 
Q 2956 1122 2956 1747 
Q 2956 2369 2687 2733 
Q 2419 3097 1959 3097 
z
M 1959 3584 
Q 2709 3584 3137 3096 
Q 3566 2609 3566 1747 
Q 3566 888 3137 398 
Q 2709 -91 1959 -91 
Q 1206 -91 779 398 
Q 353 888 353 1747 
Q 353 2609 779 3096 
Q 1206 3584 1959 3584 
z
" id="DejaVuSans-6f" transform="scale(0.015625)"/>
       <path d="M 2631 2963 
Q 2534 3019 2420 3045 
Q 2306 3072 2169 3072 
Q 1681 3072 1420 2755 
Q 1159 2438 1159 1844 
L 1159 0 
L 581 0 
L 581 3500 
L 1159 3500 
L 1159 2956 
Q 1341 3275 1631 3429 
Q 1922 3584 2338 3584 
Q 2397 3584 2469 3576 
Q 2541 3569 2628 3553 
L 2631 2963 
z
" id="DejaVuSans-72" transform="scale(0.015625)"/>
       <path d="M 3328 2828 
Q 3544 3216 3844 3400 
Q 4144 3584 4550 3584 
Q 5097 3584 5394 3201 
Q 5691 2819 5691 2113 
L 5691 0 
L 5113 0 
L 5113 2094 
Q 5113 2597 4934 2840 
Q 4756 3084 4391 3084 
Q 3944 3084 3684 2787 
Q 3425 2491 3425 1978 
L 3425 0 
L 2847 0 
L 2847 2094 
Q 2847 2600 2669 2842 
Q 2491 3084 2119 3084 
Q 1678 3084 1418 2786 
Q 1159 2488 1159 1978 
L 1159 0 
L 581 0 
L 581 3500 
L 1159 3500 
L 1159 2956 
Q 1356 3278 1631 3431 
Q 1906 3584 2284 3584 
Q 2666 3584 2933 3390 
Q 3200 3197 3328 2828 
z
" id="DejaVuSans-6d" transform="scale(0.015625)"/>
       <path d="M 2194 1759 
Q 1497 1759 1228 1600 
Q 959 1441 959 1056 
Q 959 750 1161 570 
Q 1363 391 1709 391 
Q 2188 391 2477 730 
Q 2766 1069 2766 1631 
L 2766 1759 
L 2194 1759 
z
M 3341 1997 
L 3341 0 
L 2766 0 
L 2766 531 
Q 2569 213 2275 61 
Q 1981 -91 1556 -91 
Q 1019 -91 701 211 
Q 384 513 384 1019 
Q 384 1609 779 1909 
Q 1175 2209 1959 2209 
L 2766 2209 
L 2766 2266 
Q 2766 2663 2505 2880 
Q 2244 3097 1772 3097 
Q 1472 3097 1187 3025 
Q 903 2953 641 2809 
L 641 3341 
Q 956 3463 1253 3523 
Q 1550 3584 1831 3584 
Q 2591 3584 2966 3190 
Q 3341 2797 3341 1997 
z
" id="DejaVuSans-61" transform="scale(0.015625)"/>
       <path d="M 1984 4856 
Q 1566 4138 1362 3434 
Q 1159 2731 1159 2009 
Q 1159 1288 1364 580 
Q 1569 -128 1984 -844 
L 1484 -844 
Q 1016 -109 783 600 
Q 550 1309 550 2009 
Q 550 2706 781 3412 
Q 1013 4119 1484 4856 
L 1984 4856 
z
" id="DejaVuSans-28" transform="scale(0.015625)"/>
       <path d="M 2906 2969 
L 2906 4863 
L 3481 4863 
L 3481 0 
L 2906 0 
L 2906 525 
Q 2725 213 2448 61 
Q 2172 -91 1784 -91 
Q 1150 -91 751 415 
Q 353 922 353 1747 
Q 353 2572 751 3078 
Q 1150 3584 1784 3584 
Q 2172 3584 2448 3432 
Q 2725 3281 2906 2969 
z
M 947 1747 
Q 947 1113 1208 752 
Q 1469 391 1925 391 
Q 2381 391 2643 752 
Q 2906 1113 2906 1747 
Q 2906 2381 2643 2742 
Q 2381 3103 1925 3103 
Q 1469 3103 1208 2742 
Q 947 2381 947 1747 
z
" id="DejaVuSans-64" transform="scale(0.015625)"/>
       <path d="M 513 4856 
L 1013 4856 
Q 1481 4119 1714 3412 
Q 1947 2706 1947 2009 
Q 1947 1309 1714 600 
Q 1481 -109 1013 -844 
L 513 -844 
Q 928 -128 1133 580 
Q 1338 1288 1338 2009 
Q 1338 2731 1133 3434 
Q 928 4138 513 4856 
z
" id="DejaVuSans-29" transform="scale(0.015625)"/>
      </defs>
      <use xlink:href="#DejaVuSans-41"/>
      <use x="68.408203" xlink:href="#DejaVuSans-6e"/>
      <use x="131.787109" xlink:href="#DejaVuSans-67"/>
      <use x="195.263672" xlink:href="#DejaVuSans-6c"/>
      <use x="223.046875" xlink:href="#DejaVuSans-65"/>
      <use x="284.570312" xlink:href="#DejaVuSans-20"/>
      <use x="316.357422" xlink:href="#DejaVuSans-77"/>
      <use x="398.144531" xlink:href="#DejaVuSans-69"/>
      <use x="425.927734" xlink:href="#DejaVuSans-74"/>
      <use x="465.136719" xlink:href="#DejaVuSans-68"/>
      <use x="528.515625" xlink:href="#DejaVuSans-20"/>
      <use x="560.302734" xlink:href="#DejaVuSans-6e"/>
      <use x="623.681641" xlink:href="#DejaVuSans-6f"/>
      <use x="684.863281" xlink:href="#DejaVuSans-72"/>
      <use x="724.226562" xlink:href="#DejaVuSans-6d"/>
      <use x="821.638672" xlink:href="#DejaVuSans-61"/>
      <use x="882.917969" xlink:href="#DejaVuSans-6c"/>
      <use x="910.701172" xlink:href="#DejaVuSans-20"/>
      <use x="942.488281" xlink:href="#DejaVuSans-28"/>
      <use x="981.501953" xlink:href="#DejaVuSans-72"/>
      <use x="1022.615234" xlink:href="#DejaVuSans-61"/>
      <use x="1083.894531" xlink:href="#DejaVuSans-64"/>
      <use x="1147.371094" xlink:href="#DejaVuSans-29"/>
     </g>
    </g>
   </g>
   <g id="matplotlib.axis_2">
    <g id="ytick_1">
     <g id="line2d_10">
      <defs>
       <path d="M 0 0 
L -3.5 0 
" id="mdf3713cddc" style="stroke:#000000;stroke-width:0.8;"/>
      </defs>
      <g>
       <use style="stroke:#000000;stroke-width:0.8;" x="43.78125" xlink:href="#mdf3713cddc" y="273.312"/>
      </g>
     </g>
     <g id="text_11">
      <!-- 0.0 -->
      <g transform="translate(20.878125 277.111219)scale(0.1 -0.1)">
       <use xlink:href="#DejaVuSans-30"/>
       <use x="63.623047" xlink:href="#DejaVuSans-2e"/>
       <use x="95.410156" xlink:href="#DejaVuSans-30"/>
      </g>
     </g>
    </g>
    <g id="ytick_2">
     <g id="line2d_11">
      <g>
       <use style="stroke:#000000;stroke-width:0.8;" x="43.78125" xlink:href="#mdf3713cddc" y="227.907429"/>
      </g>
     </g>
     <g id="text_12">
      <!-- 0.2 -->
      <g transform="translate(20.878125 231.706647)scale(0.1 -0.1)">
       <use xlink:href="#DejaVuSans-30"/>
       <use x="63.623047" xlink:href="#DejaVuSans-2e"/>
       <use x="95.410156" xlink:href="#DejaVuSans-32"/>
      </g>
     </g>
    </g>
    <g id="ytick_3">
     <g id="line2d_12">
      <g>
       <use style="stroke:#000000;stroke-width:0.8;" x="43.78125" xlink:href="#mdf3713cddc" y="182.502857"/>
      </g>
     </g>
     <g id="text_13">
      <!-- 0.4 -->
      <g transform="translate(20.878125 186.302076)scale(0.1 -0.1)">
       <use xlink:href="#DejaVuSans-30"/>
       <use x="63.623047" xlink:href="#DejaVuSans-2e"/>
       <use x="95.410156" xlink:href="#DejaVuSans-34"/>
      </g>
     </g>
    </g>
    <g id="ytick_4">
     <g id="line2d_13">
      <g>
       <use style="stroke:#000000;stroke-width:0.8;" x="43.78125" xlink:href="#mdf3713cddc" y="137.098286"/>
      </g>
     </g>
     <g id="text_14">
      <!-- 0.6 -->
      <g transform="translate(20.878125 140.897505)scale(0.1 -0.1)">
       <use xlink:href="#DejaVuSans-30"/>
       <use x="63.623047" xlink:href="#DejaVuSans-2e"/>
       <use x="95.410156" xlink:href="#DejaVuSans-36"/>
      </g>
     </g>
    </g>
    <g id="ytick_5">
     <g id="line2d_14">
      <g>
       <use style="stroke:#000000;stroke-width:0.8;" x="43.78125" xlink:href="#mdf3713cddc" y="91.693715"/>
      </g>
     </g>
     <g id="text_15">
      <!-- 0.8 -->
      <g transform="translate(20.878125 95.492933)scale(0.1 -0.1)">
       <use xlink:href="#DejaVuSans-30"/>
       <use x="63.623047" xlink:href="#DejaVuSans-2e"/>
       <use x="95.410156" xlink:href="#DejaVuSans-38"/>
      </g>
     </g>
    </g>
    <g id="ytick_6">
     <g id="line2d_15">
      <g>
       <use style="stroke:#000000;stroke-width:0.8;" x="43.78125" xlink:href="#mdf3713cddc" y="46.289143"/>
      </g>
     </g>
     <g id="text_16">
      <!-- 1.0 -->
      <g transform="translate(20.878125 50.088362)scale(0.1 -0.1)">
       <use xlink:href="#DejaVuSans-31"/>
       <use x="63.623047" xlink:href="#DejaVuSans-2e"/>
       <use x="95.410156" xlink:href="#DejaVuSans-30"/>
      </g>
     </g>
    </g>
    <g id="text_17">
     <!-- Probability density -->
     <g transform="translate(14.798438 186.606781)rotate(-90)scale(0.1 -0.1)">
      <defs>
       <path d="M 1259 4147 
L 1259 2394 
L 2053 2394 
Q 2494 2394 2734 2622 
Q 2975 2850 2975 3272 
Q 2975 3691 2734 3919 
Q 2494 4147 2053 4147 
L 1259 4147 
z
M 628 4666 
L 2053 4666 
Q 2838 4666 3239 4311 
Q 3641 3956 3641 3272 
Q 3641 2581 3239 2228 
Q 2838 1875 2053 1875 
L 1259 1875 
L 1259 0 
L 628 0 
L 628 4666 
z
" id="DejaVuSans-50" transform="scale(0.015625)"/>
       <path d="M 3116 1747 
Q 3116 2381 2855 2742 
Q 2594 3103 2138 3103 
Q 1681 3103 1420 2742 
Q 1159 2381 1159 1747 
Q 1159 1113 1420 752 
Q 1681 391 2138 391 
Q 2594 391 2855 752 
Q 3116 1113 3116 1747 
z
M 1159 2969 
Q 1341 3281 1617 3432 
Q 1894 3584 2278 3584 
Q 2916 3584 3314 3078 
Q 3713 2572 3713 1747 
Q 3713 922 3314 415 
Q 2916 -91 2278 -91 
Q 1894 -91 1617 61 
Q 1341 213 1159 525 
L 1159 0 
L 581 0 
L 581 4863 
L 1159 4863 
L 1159 2969 
z
" id="DejaVuSans-62" transform="scale(0.015625)"/>
       <path d="M 2059 -325 
Q 1816 -950 1584 -1140 
Q 1353 -1331 966 -1331 
L 506 -1331 
L 506 -850 
L 844 -850 
Q 1081 -850 1212 -737 
Q 1344 -625 1503 -206 
L 1606 56 
L 191 3500 
L 800 3500 
L 1894 763 
L 2988 3500 
L 3597 3500 
L 2059 -325 
z
" id="DejaVuSans-79" transform="scale(0.015625)"/>
       <path d="M 2834 3397 
L 2834 2853 
Q 2591 2978 2328 3040 
Q 2066 3103 1784 3103 
Q 1356 3103 1142 2972 
Q 928 2841 928 2578 
Q 928 2378 1081 2264 
Q 1234 2150 1697 2047 
L 1894 2003 
Q 2506 1872 2764 1633 
Q 3022 1394 3022 966 
Q 3022 478 2636 193 
Q 2250 -91 1575 -91 
Q 1294 -91 989 -36 
Q 684 19 347 128 
L 347 722 
Q 666 556 975 473 
Q 1284 391 1588 391 
Q 1994 391 2212 530 
Q 2431 669 2431 922 
Q 2431 1156 2273 1281 
Q 2116 1406 1581 1522 
L 1381 1569 
Q 847 1681 609 1914 
Q 372 2147 372 2553 
Q 372 3047 722 3315 
Q 1072 3584 1716 3584 
Q 2034 3584 2315 3537 
Q 2597 3491 2834 3397 
z
" id="DejaVuSans-73" transform="scale(0.015625)"/>
      </defs>
      <use xlink:href="#DejaVuSans-50"/>
      <use x="58.552734" xlink:href="#DejaVuSans-72"/>
      <use x="97.416016" xlink:href="#DejaVuSans-6f"/>
      <use x="158.597656" xlink:href="#DejaVuSans-62"/>
      <use x="222.074219" xlink:href="#DejaVuSans-61"/>
      <use x="283.353516" xlink:href="#DejaVuSans-62"/>
      <use x="346.830078" xlink:href="#DejaVuSans-69"/>
      <use x="374.613281" xlink:href="#DejaVuSans-6c"/>
      <use x="402.396484" xlink:href="#DejaVuSans-69"/>
      <use x="430.179688" xlink:href="#DejaVuSans-74"/>
      <use x="469.388672" xlink:href="#DejaVuSans-79"/>
      <use x="528.568359" xlink:href="#DejaVuSans-20"/>
      <use x="560.355469" xlink:href="#DejaVuSans-64"/>
      <use x="623.832031" xlink:href="#DejaVuSans-65"/>
      <use x="685.355469" xlink:href="#DejaVuSans-6e"/>
      <use x="748.734375" xlink:href="#DejaVuSans-73"/>
      <use x="800.833984" xlink:href="#DejaVuSans-69"/>
      <use x="828.617188" xlink:href="#DejaVuSans-74"/>
      <use x="867.826172" xlink:href="#DejaVuSans-79"/>
     </g>
    </g>
   </g>
   <g id="line2d_16">
    <path clip-path="url(#pdeabd39b63)" d="M 60.013977 273.312 
L 79.837728 230.029038 
L 90.237073 207.859224 
L 99.01152 189.659663 
L 106.811029 173.984276 
L 113.960578 160.109851 
L 120.460169 147.965042 
L 126.63478 136.885876 
L 132.484411 126.838343 
L 138.009063 117.779301 
L 143.208736 109.658665 
L 148.408408 101.952258 
L 153.283101 95.121069 
L 157.832814 89.10266 
L 162.382528 83.44125 
L 166.932241 78.14781 
L 171.156975 73.570935 
L 175.381709 69.327841 
L 179.281463 65.713537 
L 183.181217 62.394832 
L 187.080972 59.376452 
L 190.655746 56.87711 
L 194.230521 54.63673 
L 197.805296 52.657995 
L 201.380071 50.943271 
L 204.954845 49.49461 
L 208.204641 48.409991 
L 211.454436 47.547768 
L 214.704231 46.908793 
L 217.954026 46.493698 
L 221.203822 46.302894 
L 224.453617 46.33657 
L 227.703412 46.594691 
L 230.953207 47.077003 
L 234.203003 47.783028 
L 237.452798 48.71207 
L 240.702593 49.863208 
L 243.952388 51.235305 
L 247.527163 52.998193 
L 251.101938 55.024685 
L 254.676713 57.312357 
L 258.251488 59.858472 
L 262.151242 62.927216 
L 266.050996 66.295527 
L 269.95075 69.958609 
L 273.850505 73.911246 
L 278.075239 78.513487 
L 282.299972 83.44125 
L 286.849686 89.10266 
L 291.399399 95.121069 
L 296.274092 101.952258 
L 301.148785 109.164671 
L 306.348457 117.26001 
L 311.873109 126.293614 
L 317.397761 135.747301 
L 323.247393 146.184924 
L 329.422003 157.643514 
L 336.246574 170.786844 
L 343.721103 185.692629 
L 351.845591 202.411617 
L 360.945017 221.651867 
L 372.319301 246.247287 
L 384.668523 273.312 
L 384.668523 273.312 
" style="fill:none;stroke:#ff7f0e;stroke-linecap:square;stroke-width:1.5;"/>
   </g>
   <g id="patch_203">
    <path d="M 43.78125 273.312 
L 43.78125 7.2 
" style="fill:none;stroke:#000000;stroke-linecap:square;stroke-linejoin:miter;stroke-width:0.8;"/>
   </g>
   <g id="patch_204">
    <path d="M 400.90125 273.312 
L 400.90125 7.2 
" style="fill:none;stroke:#000000;stroke-linecap:square;stroke-linejoin:miter;stroke-width:0.8;"/>
   </g>
   <g id="patch_205">
    <path d="M 43.78125 273.312 
L 400.90125 273.312 
" style="fill:none;stroke:#000000;stroke-linecap:square;stroke-linejoin:miter;stroke-width:0.8;"/>
   </g>
   <g id="patch_206">
    <path d="M 43.78125 7.2 
L 400.90125 7.2 
" style="fill:none;stroke:#000000;stroke-linecap:square;stroke-linejoin:miter;stroke-width:0.8;"/>
   </g>
  </g>
 </g>
 <defs>
  <clipPath id="pdeabd39b63">
   <rect height="266.112" width="357.12" x="43.78125" y="7.2"/>
  </clipPath>
 </defs>
</svg>
