<?xml version="1.0" encoding="utf-8" standalone="no"?>
<!DOCTYPE svg PUBLIC "-//W3C//DTD SVG 1.1//EN"
  "http://www.w3.org/Graphics/SVG/1.1/DTD/svg11.dtd">
<svg height="310.86825pt" version="1.1" viewBox="0 0 408.10125 310.86825" width="408.10125pt" xmlns="http://www.w3.org/2000/svg" xmlns:xlink="http://www.w3.org/1999/xlink">
 <metadata>
  <rdf:RDF xmlns:cc="http://creativecommons.org/ns#" xmlns:dc="http://purl.org/dc/elements/1.1/" xmlns:rdf="http://www.w3.org/1999/02/22-rdf-syntax-ns#">
   <cc:Work>
    <dc:type rdf:resource="http://purl.org/dc/dcmitype/StillImage"/>
    <dc:date>2021-06-22T13:21:24.562716</dc:date>
    <dc:format>image/svg+xml</dc:format>
    <dc:creator>
     <cc:Agent>
      <dc:title>Matplotlib v3.4.2, https://matplotlib.org/</dc:title>
     </cc:Agent>
    </dc:creator>
   </cc:Work>
  </rdf:RDF>
 </metadata>
 <defs>
  <style type="text/css">*{stroke-linecap:butt;stroke-linejoin:round;}</style>
 </defs>
 <g id="figure_1">
  <g id="patch_1">
   <path d="M 0 310.86825 
L 408.10125 310.86825 
L 408.10125 0 
L 0 0 
z
" style="fill:#ffffff;"/>
  </g>
  <g id="axes_1">
   <g id="patch_2">
    <path d="M 43.78125 273.312 
L 400.90125 273.312 
L 400.90125 7.2 
L 43.78125 7.2 
z
" style="fill:#ffffff;"/>
   </g>
   <g id="patch_3">
    <path clip-path="url(#p2b621cae12)" d="M 60.41532 273.312 
L 62.03421 273.312 
L 62.03421 270.382058 
L 60.41532 270.382058 
z
" style="fill:#1f77b4;"/>
   </g>
   <g id="patch_4">
    <path clip-path="url(#p2b621cae12)" d="M 62.03421 273.312 
L 63.653099 273.312 
L 63.653099 268.184601 
L 62.03421 268.184601 
z
" style="fill:#1f77b4;"/>
   </g>
   <g id="patch_5">
    <path clip-path="url(#p2b621cae12)" d="M 63.653099 273.312 
L 65.271989 273.312 
L 65.271989 264.522173 
L 63.653099 264.522173 
z
" style="fill:#1f77b4;"/>
   </g>
   <g id="patch_6">
    <path clip-path="url(#p2b621cae12)" d="M 65.271989 273.312 
L 66.890879 273.312 
L 66.890879 257.197318 
L 65.271989 257.197318 
z
" style="fill:#1f77b4;"/>
   </g>
   <g id="patch_7">
    <path clip-path="url(#p2b621cae12)" d="M 66.890879 273.312 
L 68.509769 273.312 
L 68.509769 255.732347 
L 66.890879 255.732347 
z
" style="fill:#1f77b4;"/>
   </g>
   <g id="patch_8">
    <path clip-path="url(#p2b621cae12)" d="M 68.509769 273.312 
L 70.128659 273.312 
L 70.128659 253.53489 
L 68.509769 253.53489 
z
" style="fill:#1f77b4;"/>
   </g>
   <g id="patch_9">
    <path clip-path="url(#p2b621cae12)" d="M 70.128659 273.312 
L 71.747549 273.312 
L 71.747549 252.069919 
L 70.128659 252.069919 
z
" style="fill:#1f77b4;"/>
   </g>
   <g id="patch_10">
    <path clip-path="url(#p2b621cae12)" d="M 71.747549 273.312 
L 73.366439 273.312 
L 73.366439 246.210035 
L 71.747549 246.210035 
z
" style="fill:#1f77b4;"/>
   </g>
   <g id="patch_11">
    <path clip-path="url(#p2b621cae12)" d="M 73.366439 273.312 
L 74.985329 273.312 
L 74.985329 227.16541 
L 73.366439 227.16541 
z
" style="fill:#1f77b4;"/>
   </g>
   <g id="patch_12">
    <path clip-path="url(#p2b621cae12)" d="M 74.985329 273.312 
L 76.604219 273.312 
L 76.604219 241.815121 
L 74.985329 241.815121 
z
" style="fill:#1f77b4;"/>
   </g>
   <g id="patch_13">
    <path clip-path="url(#p2b621cae12)" d="M 76.604219 273.312 
L 78.223109 273.312 
L 78.223109 235.955237 
L 76.604219 235.955237 
z
" style="fill:#1f77b4;"/>
   </g>
   <g id="patch_14">
    <path clip-path="url(#p2b621cae12)" d="M 78.223109 273.312 
L 79.841999 273.312 
L 79.841999 227.897896 
L 78.223109 227.897896 
z
" style="fill:#1f77b4;"/>
   </g>
   <g id="patch_15">
    <path clip-path="url(#p2b621cae12)" d="M 79.841999 273.312 
L 81.460889 273.312 
L 81.460889 227.16541 
L 79.841999 227.16541 
z
" style="fill:#1f77b4;"/>
   </g>
   <g id="patch_16">
    <path clip-path="url(#p2b621cae12)" d="M 81.460889 273.312 
L 83.079779 273.312 
L 83.079779 220.57304 
L 81.460889 220.57304 
z
" style="fill:#1f77b4;"/>
   </g>
   <g id="patch_17">
    <path clip-path="url(#p2b621cae12)" d="M 83.079779 273.312 
L 84.698669 273.312 
L 84.698669 214.713156 
L 83.079779 214.713156 
z
" style="fill:#1f77b4;"/>
   </g>
   <g id="patch_18">
    <path clip-path="url(#p2b621cae12)" d="M 84.698669 273.312 
L 86.317559 273.312 
L 86.317559 224.967954 
L 84.698669 224.967954 
z
" style="fill:#1f77b4;"/>
   </g>
   <g id="patch_19">
    <path clip-path="url(#p2b621cae12)" d="M 86.317559 273.312 
L 87.936449 273.312 
L 87.936449 217.643098 
L 86.317559 217.643098 
z
" style="fill:#1f77b4;"/>
   </g>
   <g id="patch_20">
    <path clip-path="url(#p2b621cae12)" d="M 87.936449 273.312 
L 89.555339 273.312 
L 89.555339 211.050728 
L 87.936449 211.050728 
z
" style="fill:#1f77b4;"/>
   </g>
   <g id="patch_21">
    <path clip-path="url(#p2b621cae12)" d="M 89.555339 273.312 
L 91.174229 273.312 
L 91.174229 197.865988 
L 89.555339 197.865988 
z
" style="fill:#1f77b4;"/>
   </g>
   <g id="patch_22">
    <path clip-path="url(#p2b621cae12)" d="M 91.174229 273.312 
L 92.793119 273.312 
L 92.793119 203.725873 
L 91.174229 203.725873 
z
" style="fill:#1f77b4;"/>
   </g>
   <g id="patch_23">
    <path clip-path="url(#p2b621cae12)" d="M 92.793119 273.312 
L 94.412009 273.312 
L 94.412009 199.33096 
L 92.793119 199.33096 
z
" style="fill:#1f77b4;"/>
   </g>
   <g id="patch_24">
    <path clip-path="url(#p2b621cae12)" d="M 94.412009 273.312 
L 96.030899 273.312 
L 96.030899 192.73859 
L 94.412009 192.73859 
z
" style="fill:#1f77b4;"/>
   </g>
   <g id="patch_25">
    <path clip-path="url(#p2b621cae12)" d="M 96.030899 273.312 
L 97.649789 273.312 
L 97.649789 185.413734 
L 96.030899 185.413734 
z
" style="fill:#1f77b4;"/>
   </g>
   <g id="patch_26">
    <path clip-path="url(#p2b621cae12)" d="M 97.649789 273.312 
L 99.268679 273.312 
L 99.268679 178.088879 
L 97.649789 178.088879 
z
" style="fill:#1f77b4;"/>
   </g>
   <g id="patch_27">
    <path clip-path="url(#p2b621cae12)" d="M 99.268679 273.312 
L 100.887569 273.312 
L 100.887569 183.948763 
L 99.268679 183.948763 
z
" style="fill:#1f77b4;"/>
   </g>
   <g id="patch_28">
    <path clip-path="url(#p2b621cae12)" d="M 100.887569 273.312 
L 102.506459 273.312 
L 102.506459 183.216277 
L 100.887569 183.216277 
z
" style="fill:#1f77b4;"/>
   </g>
   <g id="patch_29">
    <path clip-path="url(#p2b621cae12)" d="M 102.506459 273.312 
L 104.125349 273.312 
L 104.125349 182.483792 
L 102.506459 182.483792 
z
" style="fill:#1f77b4;"/>
   </g>
   <g id="patch_30">
    <path clip-path="url(#p2b621cae12)" d="M 104.125349 273.312 
L 105.744239 273.312 
L 105.744239 179.55385 
L 104.125349 179.55385 
z
" style="fill:#1f77b4;"/>
   </g>
   <g id="patch_31">
    <path clip-path="url(#p2b621cae12)" d="M 105.744239 273.312 
L 107.363129 273.312 
L 107.363129 178.821364 
L 105.744239 178.821364 
z
" style="fill:#1f77b4;"/>
   </g>
   <g id="patch_32">
    <path clip-path="url(#p2b621cae12)" d="M 107.363129 273.312 
L 108.982019 273.312 
L 108.982019 178.821364 
L 107.363129 178.821364 
z
" style="fill:#1f77b4;"/>
   </g>
   <g id="patch_33">
    <path clip-path="url(#p2b621cae12)" d="M 108.982019 273.312 
L 110.600909 273.312 
L 110.600909 158.311769 
L 108.982019 158.311769 
z
" style="fill:#1f77b4;"/>
   </g>
   <g id="patch_34">
    <path clip-path="url(#p2b621cae12)" d="M 110.600909 273.312 
L 112.219799 273.312 
L 112.219799 167.101595 
L 110.600909 167.101595 
z
" style="fill:#1f77b4;"/>
   </g>
   <g id="patch_35">
    <path clip-path="url(#p2b621cae12)" d="M 112.219799 273.312 
L 113.838689 273.312 
L 113.838689 167.101595 
L 112.219799 167.101595 
z
" style="fill:#1f77b4;"/>
   </g>
   <g id="patch_36">
    <path clip-path="url(#p2b621cae12)" d="M 113.838689 273.312 
L 115.457579 273.312 
L 115.457579 165.636624 
L 113.838689 165.636624 
z
" style="fill:#1f77b4;"/>
   </g>
   <g id="patch_37">
    <path clip-path="url(#p2b621cae12)" d="M 115.457579 273.312 
L 117.076469 273.312 
L 117.076469 148.789457 
L 115.457579 148.789457 
z
" style="fill:#1f77b4;"/>
   </g>
   <g id="patch_38">
    <path clip-path="url(#p2b621cae12)" d="M 117.076469 273.312 
L 118.695359 273.312 
L 118.695359 155.381827 
L 117.076469 155.381827 
z
" style="fill:#1f77b4;"/>
   </g>
   <g id="patch_39">
    <path clip-path="url(#p2b621cae12)" d="M 118.695359 273.312 
L 120.314249 273.312 
L 120.314249 161.974197 
L 118.695359 161.974197 
z
" style="fill:#1f77b4;"/>
   </g>
   <g id="patch_40">
    <path clip-path="url(#p2b621cae12)" d="M 120.314249 273.312 
L 121.933139 273.312 
L 121.933139 138.534659 
L 120.314249 138.534659 
z
" style="fill:#1f77b4;"/>
   </g>
   <g id="patch_41">
    <path clip-path="url(#p2b621cae12)" d="M 121.933139 273.312 
L 123.552029 273.312 
L 123.552029 137.802173 
L 121.933139 137.802173 
z
" style="fill:#1f77b4;"/>
   </g>
   <g id="patch_42">
    <path clip-path="url(#p2b621cae12)" d="M 123.552029 273.312 
L 125.170919 273.312 
L 125.170919 150.254428 
L 123.552029 150.254428 
z
" style="fill:#1f77b4;"/>
   </g>
   <g id="patch_43">
    <path clip-path="url(#p2b621cae12)" d="M 125.170919 273.312 
L 126.789809 273.312 
L 126.789809 126.81489 
L 125.170919 126.81489 
z
" style="fill:#1f77b4;"/>
   </g>
   <g id="patch_44">
    <path clip-path="url(#p2b621cae12)" d="M 126.789809 273.312 
L 128.408699 273.312 
L 128.408699 128.279861 
L 126.789809 128.279861 
z
" style="fill:#1f77b4;"/>
   </g>
   <g id="patch_45">
    <path clip-path="url(#p2b621cae12)" d="M 128.408699 273.312 
L 130.027589 273.312 
L 130.027589 136.337202 
L 128.408699 136.337202 
z
" style="fill:#1f77b4;"/>
   </g>
   <g id="patch_46">
    <path clip-path="url(#p2b621cae12)" d="M 130.027589 273.312 
L 131.646479 273.312 
L 131.646479 116.560092 
L 130.027589 116.560092 
z
" style="fill:#1f77b4;"/>
   </g>
   <g id="patch_47">
    <path clip-path="url(#p2b621cae12)" d="M 131.646479 273.312 
L 133.265368 273.312 
L 133.265368 130.477318 
L 131.646479 130.477318 
z
" style="fill:#1f77b4;"/>
   </g>
   <g id="patch_48">
    <path clip-path="url(#p2b621cae12)" d="M 133.265368 273.312 
L 134.884258 273.312 
L 134.884258 113.63015 
L 133.265368 113.63015 
z
" style="fill:#1f77b4;"/>
   </g>
   <g id="patch_49">
    <path clip-path="url(#p2b621cae12)" d="M 134.884258 273.312 
L 136.503148 273.312 
L 136.503148 123.884948 
L 134.884258 123.884948 
z
" style="fill:#1f77b4;"/>
   </g>
   <g id="patch_50">
    <path clip-path="url(#p2b621cae12)" d="M 136.503148 273.312 
L 138.122038 273.312 
L 138.122038 114.362636 
L 136.503148 114.362636 
z
" style="fill:#1f77b4;"/>
   </g>
   <g id="patch_51">
    <path clip-path="url(#p2b621cae12)" d="M 138.122038 273.312 
L 139.740928 273.312 
L 139.740928 125.349919 
L 138.122038 125.349919 
z
" style="fill:#1f77b4;"/>
   </g>
   <g id="patch_52">
    <path clip-path="url(#p2b621cae12)" d="M 139.740928 273.312 
L 141.359818 273.312 
L 141.359818 110.700208 
L 139.740928 110.700208 
z
" style="fill:#1f77b4;"/>
   </g>
   <g id="patch_53">
    <path clip-path="url(#p2b621cae12)" d="M 141.359818 273.312 
L 142.978708 273.312 
L 142.978708 127.547376 
L 141.359818 127.547376 
z
" style="fill:#1f77b4;"/>
   </g>
   <g id="patch_54">
    <path clip-path="url(#p2b621cae12)" d="M 142.978708 273.312 
L 144.597598 273.312 
L 144.597598 108.502751 
L 142.978708 108.502751 
z
" style="fill:#1f77b4;"/>
   </g>
   <g id="patch_55">
    <path clip-path="url(#p2b621cae12)" d="M 144.597598 273.312 
L 146.216488 273.312 
L 146.216488 96.050497 
L 144.597598 96.050497 
z
" style="fill:#1f77b4;"/>
   </g>
   <g id="patch_56">
    <path clip-path="url(#p2b621cae12)" d="M 146.216488 273.312 
L 147.835378 273.312 
L 147.835378 97.515468 
L 146.216488 97.515468 
z
" style="fill:#1f77b4;"/>
   </g>
   <g id="patch_57">
    <path clip-path="url(#p2b621cae12)" d="M 147.835378 273.312 
L 149.454268 273.312 
L 149.454268 81.400786 
L 147.835378 81.400786 
z
" style="fill:#1f77b4;"/>
   </g>
   <g id="patch_58">
    <path clip-path="url(#p2b621cae12)" d="M 149.454268 273.312 
L 151.073158 273.312 
L 151.073158 96.050497 
L 149.454268 96.050497 
z
" style="fill:#1f77b4;"/>
   </g>
   <g id="patch_59">
    <path clip-path="url(#p2b621cae12)" d="M 151.073158 273.312 
L 152.692048 273.312 
L 152.692048 85.063214 
L 151.073158 85.063214 
z
" style="fill:#1f77b4;"/>
   </g>
   <g id="patch_60">
    <path clip-path="url(#p2b621cae12)" d="M 152.692048 273.312 
L 154.310938 273.312 
L 154.310938 87.993156 
L 152.692048 87.993156 
z
" style="fill:#1f77b4;"/>
   </g>
   <g id="patch_61">
    <path clip-path="url(#p2b621cae12)" d="M 154.310938 273.312 
L 155.929828 273.312 
L 155.929828 91.655584 
L 154.310938 91.655584 
z
" style="fill:#1f77b4;"/>
   </g>
   <g id="patch_62">
    <path clip-path="url(#p2b621cae12)" d="M 155.929828 273.312 
L 157.548718 273.312 
L 157.548718 77.005873 
L 155.929828 77.005873 
z
" style="fill:#1f77b4;"/>
   </g>
   <g id="patch_63">
    <path clip-path="url(#p2b621cae12)" d="M 157.548718 273.312 
L 159.167608 273.312 
L 159.167608 111.432694 
L 157.548718 111.432694 
z
" style="fill:#1f77b4;"/>
   </g>
   <g id="patch_64">
    <path clip-path="url(#p2b621cae12)" d="M 159.167608 273.312 
L 160.786498 273.312 
L 160.786498 65.286104 
L 159.167608 65.286104 
z
" style="fill:#1f77b4;"/>
   </g>
   <g id="patch_65">
    <path clip-path="url(#p2b621cae12)" d="M 160.786498 273.312 
L 162.405388 273.312 
L 162.405388 81.400786 
L 160.786498 81.400786 
z
" style="fill:#1f77b4;"/>
   </g>
   <g id="patch_66">
    <path clip-path="url(#p2b621cae12)" d="M 162.405388 273.312 
L 164.024278 273.312 
L 164.024278 74.075931 
L 162.405388 74.075931 
z
" style="fill:#1f77b4;"/>
   </g>
   <g id="patch_67">
    <path clip-path="url(#p2b621cae12)" d="M 164.024278 273.312 
L 165.643168 273.312 
L 165.643168 93.120555 
L 164.024278 93.120555 
z
" style="fill:#1f77b4;"/>
   </g>
   <g id="patch_68">
    <path clip-path="url(#p2b621cae12)" d="M 165.643168 273.312 
L 167.262058 273.312 
L 167.262058 96.050497 
L 165.643168 96.050497 
z
" style="fill:#1f77b4;"/>
   </g>
   <g id="patch_69">
    <path clip-path="url(#p2b621cae12)" d="M 167.262058 273.312 
L 168.880948 273.312 
L 168.880948 87.260671 
L 167.262058 87.260671 
z
" style="fill:#1f77b4;"/>
   </g>
   <g id="patch_70">
    <path clip-path="url(#p2b621cae12)" d="M 168.880948 273.312 
L 170.499838 273.312 
L 170.499838 57.961249 
L 168.880948 57.961249 
z
" style="fill:#1f77b4;"/>
   </g>
   <g id="patch_71">
    <path clip-path="url(#p2b621cae12)" d="M 170.499838 273.312 
L 172.118728 273.312 
L 172.118728 76.273387 
L 170.499838 76.273387 
z
" style="fill:#1f77b4;"/>
   </g>
   <g id="patch_72">
    <path clip-path="url(#p2b621cae12)" d="M 172.118728 273.312 
L 173.737618 273.312 
L 173.737618 83.598243 
L 172.118728 83.598243 
z
" style="fill:#1f77b4;"/>
   </g>
   <g id="patch_73">
    <path clip-path="url(#p2b621cae12)" d="M 173.737618 273.312 
L 175.356508 273.312 
L 175.356508 46.973965 
L 173.737618 46.973965 
z
" style="fill:#1f77b4;"/>
   </g>
   <g id="patch_74">
    <path clip-path="url(#p2b621cae12)" d="M 175.356508 273.312 
L 176.975398 273.312 
L 176.975398 58.693734 
L 175.356508 58.693734 
z
" style="fill:#1f77b4;"/>
   </g>
   <g id="patch_75">
    <path clip-path="url(#p2b621cae12)" d="M 176.975398 273.312 
L 178.594288 273.312 
L 178.594288 71.878474 
L 176.975398 71.878474 
z
" style="fill:#1f77b4;"/>
   </g>
   <g id="patch_76">
    <path clip-path="url(#p2b621cae12)" d="M 178.594288 273.312 
L 180.213178 273.312 
L 180.213178 57.228763 
L 178.594288 57.228763 
z
" style="fill:#1f77b4;"/>
   </g>
   <g id="patch_77">
    <path clip-path="url(#p2b621cae12)" d="M 180.213178 273.312 
L 181.832068 273.312 
L 181.832068 57.228763 
L 180.213178 57.228763 
z
" style="fill:#1f77b4;"/>
   </g>
   <g id="patch_78">
    <path clip-path="url(#p2b621cae12)" d="M 181.832068 273.312 
L 183.450958 273.312 
L 183.450958 80.668301 
L 181.832068 80.668301 
z
" style="fill:#1f77b4;"/>
   </g>
   <g id="patch_79">
    <path clip-path="url(#p2b621cae12)" d="M 183.450958 273.312 
L 185.069848 273.312 
L 185.069848 50.636393 
L 183.450958 50.636393 
z
" style="fill:#1f77b4;"/>
   </g>
   <g id="patch_80">
    <path clip-path="url(#p2b621cae12)" d="M 185.069848 273.312 
L 186.688738 273.312 
L 186.688738 55.031306 
L 185.069848 55.031306 
z
" style="fill:#1f77b4;"/>
   </g>
   <g id="patch_81">
    <path clip-path="url(#p2b621cae12)" d="M 186.688738 273.312 
L 188.307628 273.312 
L 188.307628 35.986682 
L 186.688738 35.986682 
z
" style="fill:#1f77b4;"/>
   </g>
   <g id="patch_82">
    <path clip-path="url(#p2b621cae12)" d="M 188.307628 273.312 
L 189.926518 273.312 
L 189.926518 59.42622 
L 188.307628 59.42622 
z
" style="fill:#1f77b4;"/>
   </g>
   <g id="patch_83">
    <path clip-path="url(#p2b621cae12)" d="M 189.926518 273.312 
L 191.545408 273.312 
L 191.545408 76.273387 
L 189.926518 76.273387 
z
" style="fill:#1f77b4;"/>
   </g>
   <g id="patch_84">
    <path clip-path="url(#p2b621cae12)" d="M 191.545408 273.312 
L 193.164298 273.312 
L 193.164298 38.184139 
L 191.545408 38.184139 
z
" style="fill:#1f77b4;"/>
   </g>
   <g id="patch_85">
    <path clip-path="url(#p2b621cae12)" d="M 193.164298 273.312 
L 194.783188 273.312 
L 194.783188 57.228763 
L 193.164298 57.228763 
z
" style="fill:#1f77b4;"/>
   </g>
   <g id="patch_86">
    <path clip-path="url(#p2b621cae12)" d="M 194.783188 273.312 
L 196.402078 273.312 
L 196.402078 75.540902 
L 194.783188 75.540902 
z
" style="fill:#1f77b4;"/>
   </g>
   <g id="patch_87">
    <path clip-path="url(#p2b621cae12)" d="M 196.402078 273.312 
L 198.020968 273.312 
L 198.020968 19.872 
L 196.402078 19.872 
z
" style="fill:#1f77b4;"/>
   </g>
   <g id="patch_88">
    <path clip-path="url(#p2b621cae12)" d="M 198.020968 273.312 
L 199.639858 273.312 
L 199.639858 41.846566 
L 198.020968 41.846566 
z
" style="fill:#1f77b4;"/>
   </g>
   <g id="patch_89">
    <path clip-path="url(#p2b621cae12)" d="M 199.639858 273.312 
L 201.258748 273.312 
L 201.258748 42.579052 
L 199.639858 42.579052 
z
" style="fill:#1f77b4;"/>
   </g>
   <g id="patch_90">
    <path clip-path="url(#p2b621cae12)" d="M 201.258748 273.312 
L 202.877638 273.312 
L 202.877638 52.83385 
L 201.258748 52.83385 
z
" style="fill:#1f77b4;"/>
   </g>
   <g id="patch_91">
    <path clip-path="url(#p2b621cae12)" d="M 202.877638 273.312 
L 204.496527 273.312 
L 204.496527 36.719168 
L 202.877638 36.719168 
z
" style="fill:#1f77b4;"/>
   </g>
   <g id="patch_92">
    <path clip-path="url(#p2b621cae12)" d="M 204.496527 273.312 
L 206.115417 273.312 
L 206.115417 60.891191 
L 204.496527 60.891191 
z
" style="fill:#1f77b4;"/>
   </g>
   <g id="patch_93">
    <path clip-path="url(#p2b621cae12)" d="M 206.115417 273.312 
L 207.734307 273.312 
L 207.734307 45.508994 
L 206.115417 45.508994 
z
" style="fill:#1f77b4;"/>
   </g>
   <g id="patch_94">
    <path clip-path="url(#p2b621cae12)" d="M 207.734307 273.312 
L 209.353197 273.312 
L 209.353197 44.776509 
L 207.734307 44.776509 
z
" style="fill:#1f77b4;"/>
   </g>
   <g id="patch_95">
    <path clip-path="url(#p2b621cae12)" d="M 209.353197 273.312 
L 210.972087 273.312 
L 210.972087 63.821133 
L 209.353197 63.821133 
z
" style="fill:#1f77b4;"/>
   </g>
   <g id="patch_96">
    <path clip-path="url(#p2b621cae12)" d="M 210.972087 273.312 
L 212.590977 273.312 
L 212.590977 44.776509 
L 210.972087 44.776509 
z
" style="fill:#1f77b4;"/>
   </g>
   <g id="patch_97">
    <path clip-path="url(#p2b621cae12)" d="M 212.590977 273.312 
L 214.209867 273.312 
L 214.209867 40.381595 
L 212.590977 40.381595 
z
" style="fill:#1f77b4;"/>
   </g>
   <g id="patch_98">
    <path clip-path="url(#p2b621cae12)" d="M 214.209867 273.312 
L 215.828757 273.312 
L 215.828757 49.903908 
L 214.209867 49.903908 
z
" style="fill:#1f77b4;"/>
   </g>
   <g id="patch_99">
    <path clip-path="url(#p2b621cae12)" d="M 215.828757 273.312 
L 217.447647 273.312 
L 217.447647 37.451653 
L 215.828757 37.451653 
z
" style="fill:#1f77b4;"/>
   </g>
   <g id="patch_100">
    <path clip-path="url(#p2b621cae12)" d="M 217.447647 273.312 
L 219.066537 273.312 
L 219.066537 46.24148 
L 217.447647 46.24148 
z
" style="fill:#1f77b4;"/>
   </g>
   <g id="patch_101">
    <path clip-path="url(#p2b621cae12)" d="M 219.066537 273.312 
L 220.685427 273.312 
L 220.685427 65.286104 
L 219.066537 65.286104 
z
" style="fill:#1f77b4;"/>
   </g>
   <g id="patch_102">
    <path clip-path="url(#p2b621cae12)" d="M 220.685427 273.312 
L 222.304317 273.312 
L 222.304317 28.661827 
L 220.685427 28.661827 
z
" style="fill:#1f77b4;"/>
   </g>
   <g id="patch_103">
    <path clip-path="url(#p2b621cae12)" d="M 222.304317 273.312 
L 223.923207 273.312 
L 223.923207 58.693734 
L 222.304317 58.693734 
z
" style="fill:#1f77b4;"/>
   </g>
   <g id="patch_104">
    <path clip-path="url(#p2b621cae12)" d="M 223.923207 273.312 
L 225.542097 273.312 
L 225.542097 36.719168 
L 223.923207 36.719168 
z
" style="fill:#1f77b4;"/>
   </g>
   <g id="patch_105">
    <path clip-path="url(#p2b621cae12)" d="M 225.542097 273.312 
L 227.160987 273.312 
L 227.160987 32.324254 
L 225.542097 32.324254 
z
" style="fill:#1f77b4;"/>
   </g>
   <g id="patch_106">
    <path clip-path="url(#p2b621cae12)" d="M 227.160987 273.312 
L 228.779877 273.312 
L 228.779877 38.184139 
L 227.160987 38.184139 
z
" style="fill:#1f77b4;"/>
   </g>
   <g id="patch_107">
    <path clip-path="url(#p2b621cae12)" d="M 228.779877 273.312 
L 230.398767 273.312 
L 230.398767 38.184139 
L 228.779877 38.184139 
z
" style="fill:#1f77b4;"/>
   </g>
   <g id="patch_108">
    <path clip-path="url(#p2b621cae12)" d="M 230.398767 273.312 
L 232.017657 273.312 
L 232.017657 48.438936 
L 230.398767 48.438936 
z
" style="fill:#1f77b4;"/>
   </g>
   <g id="patch_109">
    <path clip-path="url(#p2b621cae12)" d="M 232.017657 273.312 
L 233.636547 273.312 
L 233.636547 50.636393 
L 232.017657 50.636393 
z
" style="fill:#1f77b4;"/>
   </g>
   <g id="patch_110">
    <path clip-path="url(#p2b621cae12)" d="M 233.636547 273.312 
L 235.255437 273.312 
L 235.255437 34.521711 
L 233.636547 34.521711 
z
" style="fill:#1f77b4;"/>
   </g>
   <g id="patch_111">
    <path clip-path="url(#p2b621cae12)" d="M 235.255437 273.312 
L 236.874327 273.312 
L 236.874327 45.508994 
L 235.255437 45.508994 
z
" style="fill:#1f77b4;"/>
   </g>
   <g id="patch_112">
    <path clip-path="url(#p2b621cae12)" d="M 236.874327 273.312 
L 238.493217 273.312 
L 238.493217 68.216046 
L 236.874327 68.216046 
z
" style="fill:#1f77b4;"/>
   </g>
   <g id="patch_113">
    <path clip-path="url(#p2b621cae12)" d="M 238.493217 273.312 
L 240.112107 273.312 
L 240.112107 41.114081 
L 238.493217 41.114081 
z
" style="fill:#1f77b4;"/>
   </g>
   <g id="patch_114">
    <path clip-path="url(#p2b621cae12)" d="M 240.112107 273.312 
L 241.730997 273.312 
L 241.730997 49.903908 
L 240.112107 49.903908 
z
" style="fill:#1f77b4;"/>
   </g>
   <g id="patch_115">
    <path clip-path="url(#p2b621cae12)" d="M 241.730997 273.312 
L 243.349887 273.312 
L 243.349887 24.266913 
L 241.730997 24.266913 
z
" style="fill:#1f77b4;"/>
   </g>
   <g id="patch_116">
    <path clip-path="url(#p2b621cae12)" d="M 243.349887 273.312 
L 244.968777 273.312 
L 244.968777 28.661827 
L 243.349887 28.661827 
z
" style="fill:#1f77b4;"/>
   </g>
   <g id="patch_117">
    <path clip-path="url(#p2b621cae12)" d="M 244.968777 273.312 
L 246.587667 273.312 
L 246.587667 65.286104 
L 244.968777 65.286104 
z
" style="fill:#1f77b4;"/>
   </g>
   <g id="patch_118">
    <path clip-path="url(#p2b621cae12)" d="M 246.587667 273.312 
L 248.206557 273.312 
L 248.206557 57.228763 
L 246.587667 57.228763 
z
" style="fill:#1f77b4;"/>
   </g>
   <g id="patch_119">
    <path clip-path="url(#p2b621cae12)" d="M 248.206557 273.312 
L 249.825447 273.312 
L 249.825447 62.356162 
L 248.206557 62.356162 
z
" style="fill:#1f77b4;"/>
   </g>
   <g id="patch_120">
    <path clip-path="url(#p2b621cae12)" d="M 249.825447 273.312 
L 251.444337 273.312 
L 251.444337 56.496277 
L 249.825447 56.496277 
z
" style="fill:#1f77b4;"/>
   </g>
   <g id="patch_121">
    <path clip-path="url(#p2b621cae12)" d="M 251.444337 273.312 
L 253.063227 273.312 
L 253.063227 38.916624 
L 251.444337 38.916624 
z
" style="fill:#1f77b4;"/>
   </g>
   <g id="patch_122">
    <path clip-path="url(#p2b621cae12)" d="M 253.063227 273.312 
L 254.682117 273.312 
L 254.682117 40.381595 
L 253.063227 40.381595 
z
" style="fill:#1f77b4;"/>
   </g>
   <g id="patch_123">
    <path clip-path="url(#p2b621cae12)" d="M 254.682117 273.312 
L 256.301007 273.312 
L 256.301007 69.681017 
L 254.682117 69.681017 
z
" style="fill:#1f77b4;"/>
   </g>
   <g id="patch_124">
    <path clip-path="url(#p2b621cae12)" d="M 256.301007 273.312 
L 257.919897 273.312 
L 257.919897 49.171422 
L 256.301007 49.171422 
z
" style="fill:#1f77b4;"/>
   </g>
   <g id="patch_125">
    <path clip-path="url(#p2b621cae12)" d="M 257.919897 273.312 
L 259.538787 273.312 
L 259.538787 90.190613 
L 257.919897 90.190613 
z
" style="fill:#1f77b4;"/>
   </g>
   <g id="patch_126">
    <path clip-path="url(#p2b621cae12)" d="M 259.538787 273.312 
L 261.157677 273.312 
L 261.157677 54.298821 
L 259.538787 54.298821 
z
" style="fill:#1f77b4;"/>
   </g>
   <g id="patch_127">
    <path clip-path="url(#p2b621cae12)" d="M 261.157677 273.312 
L 262.776567 273.312 
L 262.776567 91.655584 
L 261.157677 91.655584 
z
" style="fill:#1f77b4;"/>
   </g>
   <g id="patch_128">
    <path clip-path="url(#p2b621cae12)" d="M 262.776567 273.312 
L 264.395457 273.312 
L 264.395457 20.604486 
L 262.776567 20.604486 
z
" style="fill:#1f77b4;"/>
   </g>
   <g id="patch_129">
    <path clip-path="url(#p2b621cae12)" d="M 264.395457 273.312 
L 266.014347 273.312 
L 266.014347 68.948532 
L 264.395457 68.948532 
z
" style="fill:#1f77b4;"/>
   </g>
   <g id="patch_130">
    <path clip-path="url(#p2b621cae12)" d="M 266.014347 273.312 
L 267.633237 273.312 
L 267.633237 77.738358 
L 266.014347 77.738358 
z
" style="fill:#1f77b4;"/>
   </g>
   <g id="patch_131">
    <path clip-path="url(#p2b621cae12)" d="M 267.633237 273.312 
L 269.252127 273.312 
L 269.252127 86.528185 
L 267.633237 86.528185 
z
" style="fill:#1f77b4;"/>
   </g>
   <g id="patch_132">
    <path clip-path="url(#p2b621cae12)" d="M 269.252127 273.312 
L 270.871017 273.312 
L 270.871017 56.496277 
L 269.252127 56.496277 
z
" style="fill:#1f77b4;"/>
   </g>
   <g id="patch_133">
    <path clip-path="url(#p2b621cae12)" d="M 270.871017 273.312 
L 272.489907 273.312 
L 272.489907 79.935815 
L 270.871017 79.935815 
z
" style="fill:#1f77b4;"/>
   </g>
   <g id="patch_134">
    <path clip-path="url(#p2b621cae12)" d="M 272.489907 273.312 
L 274.108796 273.312 
L 274.108796 72.61096 
L 272.489907 72.61096 
z
" style="fill:#1f77b4;"/>
   </g>
   <g id="patch_135">
    <path clip-path="url(#p2b621cae12)" d="M 274.108796 273.312 
L 275.727686 273.312 
L 275.727686 72.61096 
L 274.108796 72.61096 
z
" style="fill:#1f77b4;"/>
   </g>
   <g id="patch_136">
    <path clip-path="url(#p2b621cae12)" d="M 275.727686 273.312 
L 277.346576 273.312 
L 277.346576 71.145988 
L 275.727686 71.145988 
z
" style="fill:#1f77b4;"/>
   </g>
   <g id="patch_137">
    <path clip-path="url(#p2b621cae12)" d="M 277.346576 273.312 
L 278.965466 273.312 
L 278.965466 90.923098 
L 277.346576 90.923098 
z
" style="fill:#1f77b4;"/>
   </g>
   <g id="patch_138">
    <path clip-path="url(#p2b621cae12)" d="M 278.965466 273.312 
L 280.584356 273.312 
L 280.584356 91.655584 
L 278.965466 91.655584 
z
" style="fill:#1f77b4;"/>
   </g>
   <g id="patch_139">
    <path clip-path="url(#p2b621cae12)" d="M 280.584356 273.312 
L 282.203246 273.312 
L 282.203246 81.400786 
L 280.584356 81.400786 
z
" style="fill:#1f77b4;"/>
   </g>
   <g id="patch_140">
    <path clip-path="url(#p2b621cae12)" d="M 282.203246 273.312 
L 283.822136 273.312 
L 283.822136 76.273387 
L 282.203246 76.273387 
z
" style="fill:#1f77b4;"/>
   </g>
   <g id="patch_141">
    <path clip-path="url(#p2b621cae12)" d="M 283.822136 273.312 
L 285.441026 273.312 
L 285.441026 73.343445 
L 283.822136 73.343445 
z
" style="fill:#1f77b4;"/>
   </g>
   <g id="patch_142">
    <path clip-path="url(#p2b621cae12)" d="M 285.441026 273.312 
L 287.059916 273.312 
L 287.059916 79.203329 
L 285.441026 79.203329 
z
" style="fill:#1f77b4;"/>
   </g>
   <g id="patch_143">
    <path clip-path="url(#p2b621cae12)" d="M 287.059916 273.312 
L 288.678806 273.312 
L 288.678806 68.948532 
L 287.059916 68.948532 
z
" style="fill:#1f77b4;"/>
   </g>
   <g id="patch_144">
    <path clip-path="url(#p2b621cae12)" d="M 288.678806 273.312 
L 290.297696 273.312 
L 290.297696 87.993156 
L 288.678806 87.993156 
z
" style="fill:#1f77b4;"/>
   </g>
   <g id="patch_145">
    <path clip-path="url(#p2b621cae12)" d="M 290.297696 273.312 
L 291.916586 273.312 
L 291.916586 111.432694 
L 290.297696 111.432694 
z
" style="fill:#1f77b4;"/>
   </g>
   <g id="patch_146">
    <path clip-path="url(#p2b621cae12)" d="M 291.916586 273.312 
L 293.535476 273.312 
L 293.535476 88.725642 
L 291.916586 88.725642 
z
" style="fill:#1f77b4;"/>
   </g>
   <g id="patch_147">
    <path clip-path="url(#p2b621cae12)" d="M 293.535476 273.312 
L 295.154366 273.312 
L 295.154366 112.165179 
L 293.535476 112.165179 
z
" style="fill:#1f77b4;"/>
   </g>
   <g id="patch_148">
    <path clip-path="url(#p2b621cae12)" d="M 295.154366 273.312 
L 296.773256 273.312 
L 296.773256 105.572809 
L 295.154366 105.572809 
z
" style="fill:#1f77b4;"/>
   </g>
   <g id="patch_149">
    <path clip-path="url(#p2b621cae12)" d="M 296.773256 273.312 
L 298.392146 273.312 
L 298.392146 101.177896 
L 296.773256 101.177896 
z
" style="fill:#1f77b4;"/>
   </g>
   <g id="patch_150">
    <path clip-path="url(#p2b621cae12)" d="M 298.392146 273.312 
L 300.011036 273.312 
L 300.011036 98.980439 
L 298.392146 98.980439 
z
" style="fill:#1f77b4;"/>
   </g>
   <g id="patch_151">
    <path clip-path="url(#p2b621cae12)" d="M 300.011036 273.312 
L 301.629926 273.312 
L 301.629926 114.362636 
L 300.011036 114.362636 
z
" style="fill:#1f77b4;"/>
   </g>
   <g id="patch_152">
    <path clip-path="url(#p2b621cae12)" d="M 301.629926 273.312 
L 303.248816 273.312 
L 303.248816 115.827607 
L 301.629926 115.827607 
z
" style="fill:#1f77b4;"/>
   </g>
   <g id="patch_153">
    <path clip-path="url(#p2b621cae12)" d="M 303.248816 273.312 
L 304.867706 273.312 
L 304.867706 105.572809 
L 303.248816 105.572809 
z
" style="fill:#1f77b4;"/>
   </g>
   <g id="patch_154">
    <path clip-path="url(#p2b621cae12)" d="M 304.867706 273.312 
L 306.486596 273.312 
L 306.486596 109.967723 
L 304.867706 109.967723 
z
" style="fill:#1f77b4;"/>
   </g>
   <g id="patch_155">
    <path clip-path="url(#p2b621cae12)" d="M 306.486596 273.312 
L 308.105486 273.312 
L 308.105486 120.22252 
L 306.486596 120.22252 
z
" style="fill:#1f77b4;"/>
   </g>
   <g id="patch_156">
    <path clip-path="url(#p2b621cae12)" d="M 308.105486 273.312 
L 309.724376 273.312 
L 309.724376 128.279861 
L 308.105486 128.279861 
z
" style="fill:#1f77b4;"/>
   </g>
   <g id="patch_157">
    <path clip-path="url(#p2b621cae12)" d="M 309.724376 273.312 
L 311.343266 273.312 
L 311.343266 123.884948 
L 309.724376 123.884948 
z
" style="fill:#1f77b4;"/>
   </g>
   <g id="patch_158">
    <path clip-path="url(#p2b621cae12)" d="M 311.343266 273.312 
L 312.962156 273.312 
L 312.962156 127.547376 
L 311.343266 127.547376 
z
" style="fill:#1f77b4;"/>
   </g>
   <g id="patch_159">
    <path clip-path="url(#p2b621cae12)" d="M 312.962156 273.312 
L 314.581046 273.312 
L 314.581046 131.209803 
L 312.962156 131.209803 
z
" style="fill:#1f77b4;"/>
   </g>
   <g id="patch_160">
    <path clip-path="url(#p2b621cae12)" d="M 314.581046 273.312 
L 316.199936 273.312 
L 316.199936 142.197087 
L 314.581046 142.197087 
z
" style="fill:#1f77b4;"/>
   </g>
   <g id="patch_161">
    <path clip-path="url(#p2b621cae12)" d="M 316.199936 273.312 
L 317.818826 273.312 
L 317.818826 130.477318 
L 316.199936 130.477318 
z
" style="fill:#1f77b4;"/>
   </g>
   <g id="patch_162">
    <path clip-path="url(#p2b621cae12)" d="M 317.818826 273.312 
L 319.437716 273.312 
L 319.437716 135.604717 
L 317.818826 135.604717 
z
" style="fill:#1f77b4;"/>
   </g>
   <g id="patch_163">
    <path clip-path="url(#p2b621cae12)" d="M 319.437716 273.312 
L 321.056606 273.312 
L 321.056606 141.464601 
L 319.437716 141.464601 
z
" style="fill:#1f77b4;"/>
   </g>
   <g id="patch_164">
    <path clip-path="url(#p2b621cae12)" d="M 321.056606 273.312 
L 322.675496 273.312 
L 322.675496 139.267145 
L 321.056606 139.267145 
z
" style="fill:#1f77b4;"/>
   </g>
   <g id="patch_165">
    <path clip-path="url(#p2b621cae12)" d="M 322.675496 273.312 
L 324.294386 273.312 
L 324.294386 151.719399 
L 322.675496 151.719399 
z
" style="fill:#1f77b4;"/>
   </g>
   <g id="patch_166">
    <path clip-path="url(#p2b621cae12)" d="M 324.294386 273.312 
L 325.913276 273.312 
L 325.913276 134.139746 
L 324.294386 134.139746 
z
" style="fill:#1f77b4;"/>
   </g>
   <g id="patch_167">
    <path clip-path="url(#p2b621cae12)" d="M 325.913276 273.312 
L 327.532166 273.312 
L 327.532166 140.732116 
L 325.913276 140.732116 
z
" style="fill:#1f77b4;"/>
   </g>
   <g id="patch_168">
    <path clip-path="url(#p2b621cae12)" d="M 327.532166 273.312 
L 329.151056 273.312 
L 329.151056 162.706682 
L 327.532166 162.706682 
z
" style="fill:#1f77b4;"/>
   </g>
   <g id="patch_169">
    <path clip-path="url(#p2b621cae12)" d="M 329.151056 273.312 
L 330.769946 273.312 
L 330.769946 162.706682 
L 329.151056 162.706682 
z
" style="fill:#1f77b4;"/>
   </g>
   <g id="patch_170">
    <path clip-path="url(#p2b621cae12)" d="M 330.769946 273.312 
L 332.388836 273.312 
L 332.388836 172.96148 
L 330.769946 172.96148 
z
" style="fill:#1f77b4;"/>
   </g>
   <g id="patch_171">
    <path clip-path="url(#p2b621cae12)" d="M 332.388836 273.312 
L 334.007726 273.312 
L 334.007726 165.636624 
L 332.388836 165.636624 
z
" style="fill:#1f77b4;"/>
   </g>
   <g id="patch_172">
    <path clip-path="url(#p2b621cae12)" d="M 334.007726 273.312 
L 335.626616 273.312 
L 335.626616 165.636624 
L 334.007726 165.636624 
z
" style="fill:#1f77b4;"/>
   </g>
   <g id="patch_173">
    <path clip-path="url(#p2b621cae12)" d="M 335.626616 273.312 
L 337.245506 273.312 
L 337.245506 165.636624 
L 335.626616 165.636624 
z
" style="fill:#1f77b4;"/>
   </g>
   <g id="patch_174">
    <path clip-path="url(#p2b621cae12)" d="M 337.245506 273.312 
L 338.864396 273.312 
L 338.864396 177.356393 
L 337.245506 177.356393 
z
" style="fill:#1f77b4;"/>
   </g>
   <g id="patch_175">
    <path clip-path="url(#p2b621cae12)" d="M 338.864396 273.312 
L 340.483286 273.312 
L 340.483286 173.693965 
L 338.864396 173.693965 
z
" style="fill:#1f77b4;"/>
   </g>
   <g id="patch_176">
    <path clip-path="url(#p2b621cae12)" d="M 340.483286 273.312 
L 342.102176 273.312 
L 342.102176 178.088879 
L 340.483286 178.088879 
z
" style="fill:#1f77b4;"/>
   </g>
   <g id="patch_177">
    <path clip-path="url(#p2b621cae12)" d="M 342.102176 273.312 
L 343.721065 273.312 
L 343.721065 189.076162 
L 342.102176 189.076162 
z
" style="fill:#1f77b4;"/>
   </g>
   <g id="patch_178">
    <path clip-path="url(#p2b621cae12)" d="M 343.721065 273.312 
L 345.339955 273.312 
L 345.339955 178.821364 
L 343.721065 178.821364 
z
" style="fill:#1f77b4;"/>
   </g>
   <g id="patch_179">
    <path clip-path="url(#p2b621cae12)" d="M 345.339955 273.312 
L 346.958845 273.312 
L 346.958845 188.343676 
L 345.339955 188.343676 
z
" style="fill:#1f77b4;"/>
   </g>
   <g id="patch_180">
    <path clip-path="url(#p2b621cae12)" d="M 346.958845 273.312 
L 348.577735 273.312 
L 348.577735 184.681249 
L 346.958845 184.681249 
z
" style="fill:#1f77b4;"/>
   </g>
   <g id="patch_181">
    <path clip-path="url(#p2b621cae12)" d="M 348.577735 273.312 
L 350.196625 273.312 
L 350.196625 183.948763 
L 348.577735 183.948763 
z
" style="fill:#1f77b4;"/>
   </g>
   <g id="patch_182">
    <path clip-path="url(#p2b621cae12)" d="M 350.196625 273.312 
L 351.815515 273.312 
L 351.815515 198.598474 
L 350.196625 198.598474 
z
" style="fill:#1f77b4;"/>
   </g>
   <g id="patch_183">
    <path clip-path="url(#p2b621cae12)" d="M 351.815515 273.312 
L 353.434405 273.312 
L 353.434405 205.923329 
L 351.815515 205.923329 
z
" style="fill:#1f77b4;"/>
   </g>
   <g id="patch_184">
    <path clip-path="url(#p2b621cae12)" d="M 353.434405 273.312 
L 355.053295 273.312 
L 355.053295 194.203561 
L 353.434405 194.203561 
z
" style="fill:#1f77b4;"/>
   </g>
   <g id="patch_185">
    <path clip-path="url(#p2b621cae12)" d="M 355.053295 273.312 
L 356.672185 273.312 
L 356.672185 211.050728 
L 355.053295 211.050728 
z
" style="fill:#1f77b4;"/>
   </g>
   <g id="patch_186">
    <path clip-path="url(#p2b621cae12)" d="M 356.672185 273.312 
L 358.291075 273.312 
L 358.291075 218.375584 
L 356.672185 218.375584 
z
" style="fill:#1f77b4;"/>
   </g>
   <g id="patch_187">
    <path clip-path="url(#p2b621cae12)" d="M 358.291075 273.312 
L 359.909965 273.312 
L 359.909965 205.923329 
L 358.291075 205.923329 
z
" style="fill:#1f77b4;"/>
   </g>
   <g id="patch_188">
    <path clip-path="url(#p2b621cae12)" d="M 359.909965 273.312 
L 361.528855 273.312 
L 361.528855 220.57304 
L 359.909965 220.57304 
z
" style="fill:#1f77b4;"/>
   </g>
   <g id="patch_189">
    <path clip-path="url(#p2b621cae12)" d="M 361.528855 273.312 
L 363.147745 273.312 
L 363.147745 220.57304 
L 361.528855 220.57304 
z
" style="fill:#1f77b4;"/>
   </g>
   <g id="patch_190">
    <path clip-path="url(#p2b621cae12)" d="M 363.147745 273.312 
L 364.766635 273.312 
L 364.766635 223.502983 
L 363.147745 223.502983 
z
" style="fill:#1f77b4;"/>
   </g>
   <g id="patch_191">
    <path clip-path="url(#p2b621cae12)" d="M 364.766635 273.312 
L 366.385525 273.312 
L 366.385525 231.560324 
L 364.766635 231.560324 
z
" style="fill:#1f77b4;"/>
   </g>
   <g id="patch_192">
    <path clip-path="url(#p2b621cae12)" d="M 366.385525 273.312 
L 368.004415 273.312 
L 368.004415 230.827838 
L 366.385525 230.827838 
z
" style="fill:#1f77b4;"/>
   </g>
   <g id="patch_193">
    <path clip-path="url(#p2b621cae12)" d="M 368.004415 273.312 
L 369.623305 273.312 
L 369.623305 245.477549 
L 368.004415 245.477549 
z
" style="fill:#1f77b4;"/>
   </g>
   <g id="patch_194">
    <path clip-path="url(#p2b621cae12)" d="M 369.623305 273.312 
L 371.242195 273.312 
L 371.242195 243.280092 
L 369.623305 243.280092 
z
" style="fill:#1f77b4;"/>
   </g>
   <g id="patch_195">
    <path clip-path="url(#p2b621cae12)" d="M 371.242195 273.312 
L 372.861085 273.312 
L 372.861085 246.94252 
L 371.242195 246.94252 
z
" style="fill:#1f77b4;"/>
   </g>
   <g id="patch_196">
    <path clip-path="url(#p2b621cae12)" d="M 372.861085 273.312 
L 374.479975 273.312 
L 374.479975 252.802405 
L 372.861085 252.802405 
z
" style="fill:#1f77b4;"/>
   </g>
   <g id="patch_197">
    <path clip-path="url(#p2b621cae12)" d="M 374.479975 273.312 
L 376.098865 273.312 
L 376.098865 251.337434 
L 374.479975 251.337434 
z
" style="fill:#1f77b4;"/>
   </g>
   <g id="patch_198">
    <path clip-path="url(#p2b621cae12)" d="M 376.098865 273.312 
L 377.717755 273.312 
L 377.717755 256.464832 
L 376.098865 256.464832 
z
" style="fill:#1f77b4;"/>
   </g>
   <g id="patch_199">
    <path clip-path="url(#p2b621cae12)" d="M 377.717755 273.312 
L 379.336645 273.312 
L 379.336645 254.999861 
L 377.717755 254.999861 
z
" style="fill:#1f77b4;"/>
   </g>
   <g id="patch_200">
    <path clip-path="url(#p2b621cae12)" d="M 379.336645 273.312 
L 380.955535 273.312 
L 380.955535 267.452116 
L 379.336645 267.452116 
z
" style="fill:#1f77b4;"/>
   </g>
   <g id="patch_201">
    <path clip-path="url(#p2b621cae12)" d="M 380.955535 273.312 
L 382.574425 273.312 
L 382.574425 268.184601 
L 380.955535 268.184601 
z
" style="fill:#1f77b4;"/>
   </g>
   <g id="patch_202">
    <path clip-path="url(#p2b621cae12)" d="M 382.574425 273.312 
L 384.193315 273.312 
L 384.193315 271.847029 
L 382.574425 271.847029 
z
" style="fill:#1f77b4;"/>
   </g>
   <g id="matplotlib.axis_1">
    <g id="xtick_1">
     <g id="line2d_1">
      <defs>
       <path d="M 0 0 
L 0 3.5 
" id="m783259aa30" style="stroke:#000000;stroke-width:0.8;"/>
      </defs>
      <g>
       <use style="stroke:#000000;stroke-width:0.8;" x="60.013977" xlink:href="#m783259aa30" y="273.312"/>
      </g>
     </g>
     <g id="text_1">
      <!-- 0.0 -->
      <g transform="translate(52.062415 287.910437)scale(0.1 -0.1)">
       <defs>
        <path d="M 2034 4250 
Q 1547 4250 1301 3770 
Q 1056 3291 1056 2328 
Q 1056 1369 1301 889 
Q 1547 409 2034 409 
Q 2525 409 2770 889 
Q 3016 1369 3016 2328 
Q 3016 3291 2770 3770 
Q 2525 4250 2034 4250 
z
M 2034 4750 
Q 2819 4750 3233 4129 
Q 3647 3509 3647 2328 
Q 3647 1150 3233 529 
Q 2819 -91 2034 -91 
Q 1250 -91 836 529 
Q 422 1150 422 2328 
Q 422 3509 836 4129 
Q 1250 4750 2034 4750 
z
" id="DejaVuSans-30" transform="scale(0.015625)"/>
        <path d="M 684 794 
L 1344 794 
L 1344 0 
L 684 0 
L 684 794 
z
" id="DejaVuSans-2e" transform="scale(0.015625)"/>
       </defs>
       <use xlink:href="#DejaVuSans-30"/>
       <use x="63.623047" xlink:href="#DejaVuSans-2e"/>
       <use x="95.410156" xlink:href="#DejaVuSans-30"/>
      </g>
     </g>
    </g>
    <g id="xtick_2">
     <g id="line2d_2">
      <g>
       <use style="stroke:#000000;stroke-width:0.8;" x="101.350278" xlink:href="#m783259aa30" y="273.312"/>
      </g>
     </g>
     <g id="text_2">
      <!-- 0.2 -->
      <g transform="translate(93.398715 287.910437)scale(0.1 -0.1)">
       <defs>
        <path d="M 1228 531 
L 3431 531 
L 3431 0 
L 469 0 
L 469 531 
Q 828 903 1448 1529 
Q 2069 2156 2228 2338 
Q 2531 2678 2651 2914 
Q 2772 3150 2772 3378 
Q 2772 3750 2511 3984 
Q 2250 4219 1831 4219 
Q 1534 4219 1204 4116 
Q 875 4013 500 3803 
L 500 4441 
Q 881 4594 1212 4672 
Q 1544 4750 1819 4750 
Q 2544 4750 2975 4387 
Q 3406 4025 3406 3419 
Q 3406 3131 3298 2873 
Q 3191 2616 2906 2266 
Q 2828 2175 2409 1742 
Q 1991 1309 1228 531 
z
" id="DejaVuSans-32" transform="scale(0.015625)"/>
       </defs>
       <use xlink:href="#DejaVuSans-30"/>
       <use x="63.623047" xlink:href="#DejaVuSans-2e"/>
       <use x="95.410156" xlink:href="#DejaVuSans-32"/>
      </g>
     </g>
    </g>
    <g id="xtick_3">
     <g id="line2d_3">
      <g>
       <use style="stroke:#000000;stroke-width:0.8;" x="142.686578" xlink:href="#m783259aa30" y="273.312"/>
      </g>
     </g>
     <g id="text_3">
      <!-- 0.4 -->
      <g transform="translate(134.735016 287.910437)scale(0.1 -0.1)">
       <defs>
        <path d="M 2419 4116 
L 825 1625 
L 2419 1625 
L 2419 4116 
z
M 2253 4666 
L 3047 4666 
L 3047 1625 
L 3713 1625 
L 3713 1100 
L 3047 1100 
L 3047 0 
L 2419 0 
L 2419 1100 
L 313 1100 
L 313 1709 
L 2253 4666 
z
" id="DejaVuSans-34" transform="scale(0.015625)"/>
       </defs>
       <use xlink:href="#DejaVuSans-30"/>
       <use x="63.623047" xlink:href="#DejaVuSans-2e"/>
       <use x="95.410156" xlink:href="#DejaVuSans-34"/>
      </g>
     </g>
    </g>
    <g id="xtick_4">
     <g id="line2d_4">
      <g>
       <use style="stroke:#000000;stroke-width:0.8;" x="184.022879" xlink:href="#m783259aa30" y="273.312"/>
      </g>
     </g>
     <g id="text_4">
      <!-- 0.6 -->
      <g transform="translate(176.071316 287.910437)scale(0.1 -0.1)">
       <defs>
        <path d="M 2113 2584 
Q 1688 2584 1439 2293 
Q 1191 2003 1191 1497 
Q 1191 994 1439 701 
Q 1688 409 2113 409 
Q 2538 409 2786 701 
Q 3034 994 3034 1497 
Q 3034 2003 2786 2293 
Q 2538 2584 2113 2584 
z
M 3366 4563 
L 3366 3988 
Q 3128 4100 2886 4159 
Q 2644 4219 2406 4219 
Q 1781 4219 1451 3797 
Q 1122 3375 1075 2522 
Q 1259 2794 1537 2939 
Q 1816 3084 2150 3084 
Q 2853 3084 3261 2657 
Q 3669 2231 3669 1497 
Q 3669 778 3244 343 
Q 2819 -91 2113 -91 
Q 1303 -91 875 529 
Q 447 1150 447 2328 
Q 447 3434 972 4092 
Q 1497 4750 2381 4750 
Q 2619 4750 2861 4703 
Q 3103 4656 3366 4563 
z
" id="DejaVuSans-36" transform="scale(0.015625)"/>
       </defs>
       <use xlink:href="#DejaVuSans-30"/>
       <use x="63.623047" xlink:href="#DejaVuSans-2e"/>
       <use x="95.410156" xlink:href="#DejaVuSans-36"/>
      </g>
     </g>
    </g>
    <g id="xtick_5">
     <g id="line2d_5">
      <g>
       <use style="stroke:#000000;stroke-width:0.8;" x="225.35918" xlink:href="#m783259aa30" y="273.312"/>
      </g>
     </g>
     <g id="text_5">
      <!-- 0.8 -->
      <g transform="translate(217.407617 287.910437)scale(0.1 -0.1)">
       <defs>
        <path d="M 2034 2216 
Q 1584 2216 1326 1975 
Q 1069 1734 1069 1313 
Q 1069 891 1326 650 
Q 1584 409 2034 409 
Q 2484 409 2743 651 
Q 3003 894 3003 1313 
Q 3003 1734 2745 1975 
Q 2488 2216 2034 2216 
z
M 1403 2484 
Q 997 2584 770 2862 
Q 544 3141 544 3541 
Q 544 4100 942 4425 
Q 1341 4750 2034 4750 
Q 2731 4750 3128 4425 
Q 3525 4100 3525 3541 
Q 3525 3141 3298 2862 
Q 3072 2584 2669 2484 
Q 3125 2378 3379 2068 
Q 3634 1759 3634 1313 
Q 3634 634 3220 271 
Q 2806 -91 2034 -91 
Q 1263 -91 848 271 
Q 434 634 434 1313 
Q 434 1759 690 2068 
Q 947 2378 1403 2484 
z
M 1172 3481 
Q 1172 3119 1398 2916 
Q 1625 2713 2034 2713 
Q 2441 2713 2670 2916 
Q 2900 3119 2900 3481 
Q 2900 3844 2670 4047 
Q 2441 4250 2034 4250 
Q 1625 4250 1398 4047 
Q 1172 3844 1172 3481 
z
" id="DejaVuSans-38" transform="scale(0.015625)"/>
       </defs>
       <use xlink:href="#DejaVuSans-30"/>
       <use x="63.623047" xlink:href="#DejaVuSans-2e"/>
       <use x="95.410156" xlink:href="#DejaVuSans-38"/>
      </g>
     </g>
    </g>
    <g id="xtick_6">
     <g id="line2d_6">
      <g>
       <use style="stroke:#000000;stroke-width:0.8;" x="266.69548" xlink:href="#m783259aa30" y="273.312"/>
      </g>
     </g>
     <g id="text_6">
      <!-- 1.0 -->
      <g transform="translate(258.743918 287.910437)scale(0.1 -0.1)">
       <defs>
        <path d="M 794 531 
L 1825 531 
L 1825 4091 
L 703 3866 
L 703 4441 
L 1819 4666 
L 2450 4666 
L 2450 531 
L 3481 531 
L 3481 0 
L 794 0 
L 794 531 
z
" id="DejaVuSans-31" transform="scale(0.015625)"/>
       </defs>
       <use xlink:href="#DejaVuSans-31"/>
       <use x="63.623047" xlink:href="#DejaVuSans-2e"/>
       <use x="95.410156" xlink:href="#DejaVuSans-30"/>
      </g>
     </g>
    </g>
    <g id="xtick_7">
     <g id="line2d_7">
      <g>
       <use style="stroke:#000000;stroke-width:0.8;" x="308.031781" xlink:href="#m783259aa30" y="273.312"/>
      </g>
     </g>
     <g id="text_7">
      <!-- 1.2 -->
      <g transform="translate(300.080218 287.910437)scale(0.1 -0.1)">
       <use xlink:href="#DejaVuSans-31"/>
       <use x="63.623047" xlink:href="#DejaVuSans-2e"/>
       <use x="95.410156" xlink:href="#DejaVuSans-32"/>
      </g>
     </g>
    </g>
    <g id="xtick_8">
     <g id="line2d_8">
      <g>
       <use style="stroke:#000000;stroke-width:0.8;" x="349.368081" xlink:href="#m783259aa30" y="273.312"/>
      </g>
     </g>
     <g id="text_8">
      <!-- 1.4 -->
      <g transform="translate(341.416519 287.910437)scale(0.1 -0.1)">
       <use xlink:href="#DejaVuSans-31"/>
       <use x="63.623047" xlink:href="#DejaVuSans-2e"/>
       <use x="95.410156" xlink:href="#DejaVuSans-34"/>
      </g>
     </g>
    </g>
    <g id="xtick_9">
     <g id="line2d_9">
      <g>
       <use style="stroke:#000000;stroke-width:0.8;" x="390.704382" xlink:href="#m783259aa30" y="273.312"/>
      </g>
     </g>
     <g id="text_9">
      <!-- 1.6 -->
      <g transform="translate(382.752819 287.910437)scale(0.1 -0.1)">
       <use xlink:href="#DejaVuSans-31"/>
       <use x="63.623047" xlink:href="#DejaVuSans-2e"/>
       <use x="95.410156" xlink:href="#DejaVuSans-36"/>
      </g>
     </g>
    </g>
    <g id="text_10">
     <!-- Angle with normal (rad) -->
     <g transform="translate(163.023281 301.588562)scale(0.1 -0.1)">
      <defs>
       <path d="M 2188 4044 
L 1331 1722 
L 3047 1722 
L 2188 4044 
z
M 1831 4666 
L 2547 4666 
L 4325 0 
L 3669 0 
L 3244 1197 
L 1141 1197 
L 716 0 
L 50 0 
L 1831 4666 
z
" id="DejaVuSans-41" transform="scale(0.015625)"/>
       <path d="M 3513 2113 
L 3513 0 
L 2938 0 
L 2938 2094 
Q 2938 2591 2744 2837 
Q 2550 3084 2163 3084 
Q 1697 3084 1428 2787 
Q 1159 2491 1159 1978 
L 1159 0 
L 581 0 
L 581 3500 
L 1159 3500 
L 1159 2956 
Q 1366 3272 1645 3428 
Q 1925 3584 2291 3584 
Q 2894 3584 3203 3211 
Q 3513 2838 3513 2113 
z
" id="DejaVuSans-6e" transform="scale(0.015625)"/>
       <path d="M 2906 1791 
Q 2906 2416 2648 2759 
Q 2391 3103 1925 3103 
Q 1463 3103 1205 2759 
Q 947 2416 947 1791 
Q 947 1169 1205 825 
Q 1463 481 1925 481 
Q 2391 481 2648 825 
Q 2906 1169 2906 1791 
z
M 3481 434 
Q 3481 -459 3084 -895 
Q 2688 -1331 1869 -1331 
Q 1566 -1331 1297 -1286 
Q 1028 -1241 775 -1147 
L 775 -588 
Q 1028 -725 1275 -790 
Q 1522 -856 1778 -856 
Q 2344 -856 2625 -561 
Q 2906 -266 2906 331 
L 2906 616 
Q 2728 306 2450 153 
Q 2172 0 1784 0 
Q 1141 0 747 490 
Q 353 981 353 1791 
Q 353 2603 747 3093 
Q 1141 3584 1784 3584 
Q 2172 3584 2450 3431 
Q 2728 3278 2906 2969 
L 2906 3500 
L 3481 3500 
L 3481 434 
z
" id="DejaVuSans-67" transform="scale(0.015625)"/>
       <path d="M 603 4863 
L 1178 4863 
L 1178 0 
L 603 0 
L 603 4863 
z
" id="DejaVuSans-6c" transform="scale(0.015625)"/>
       <path d="M 3597 1894 
L 3597 1613 
L 953 1613 
Q 991 1019 1311 708 
Q 1631 397 2203 397 
Q 2534 397 2845 478 
Q 3156 559 3463 722 
L 3463 178 
Q 3153 47 2828 -22 
Q 2503 -91 2169 -91 
Q 1331 -91 842 396 
Q 353 884 353 1716 
Q 353 2575 817 3079 
Q 1281 3584 2069 3584 
Q 2775 3584 3186 3129 
Q 3597 2675 3597 1894 
z
M 3022 2063 
Q 3016 2534 2758 2815 
Q 2500 3097 2075 3097 
Q 1594 3097 1305 2825 
Q 1016 2553 972 2059 
L 3022 2063 
z
" id="DejaVuSans-65" transform="scale(0.015625)"/>
       <path id="DejaVuSans-20" transform="scale(0.015625)"/>
       <path d="M 269 3500 
L 844 3500 
L 1563 769 
L 2278 3500 
L 2956 3500 
L 3675 769 
L 4391 3500 
L 4966 3500 
L 4050 0 
L 3372 0 
L 2619 2869 
L 1863 0 
L 1184 0 
L 269 3500 
z
" id="DejaVuSans-77" transform="scale(0.015625)"/>
       <path d="M 603 3500 
L 1178 3500 
L 1178 0 
L 603 0 
L 603 3500 
z
M 603 4863 
L 1178 4863 
L 1178 4134 
L 603 4134 
L 603 4863 
z
" id="DejaVuSans-69" transform="scale(0.015625)"/>
       <path d="M 1172 4494 
L 1172 3500 
L 2356 3500 
L 2356 3053 
L 1172 3053 
L 1172 1153 
Q 1172 725 1289 603 
Q 1406 481 1766 481 
L 2356 481 
L 2356 0 
L 1766 0 
Q 1100 0 847 248 
Q 594 497 594 1153 
L 594 3053 
L 172 3053 
L 172 3500 
L 594 3500 
L 594 4494 
L 1172 4494 
z
" id="DejaVuSans-74" transform="scale(0.015625)"/>
       <path d="M 3513 2113 
L 3513 0 
L 2938 0 
L 2938 2094 
Q 2938 2591 2744 2837 
Q 2550 3084 2163 3084 
Q 1697 3084 1428 2787 
Q 1159 2491 1159 1978 
L 1159 0 
L 581 0 
L 581 4863 
L 1159 4863 
L 1159 2956 
Q 1366 3272 1645 3428 
Q 1925 3584 2291 3584 
Q 2894 3584 3203 3211 
Q 3513 2838 3513 2113 
z
" id="DejaVuSans-68" transform="scale(0.015625)"/>
       <path d="M 1959 3097 
Q 1497 3097 1228 2736 
Q 959 2375 959 1747 
Q 959 1119 1226 758 
Q 1494 397 1959 397 
Q 2419 397 2687 759 
Q 2956 1122 2956 1747 
Q 2956 2369 2687 2733 
Q 2419 3097 1959 3097 
z
M 1959 3584 
Q 2709 3584 3137 3096 
Q 3566 2609 3566 1747 
Q 3566 888 3137 398 
Q 2709 -91 1959 -91 
Q 1206 -91 779 398 
Q 353 888 353 1747 
Q 353 2609 779 3096 
Q 1206 3584 1959 3584 
z
" id="DejaVuSans-6f" transform="scale(0.015625)"/>
       <path d="M 2631 2963 
Q 2534 3019 2420 3045 
Q 2306 3072 2169 3072 
Q 1681 3072 1420 2755 
Q 1159 2438 1159 1844 
L 1159 0 
L 581 0 
L 581 3500 
L 1159 3500 
L 1159 2956 
Q 1341 3275 1631 3429 
Q 1922 3584 2338 3584 
Q 2397 3584 2469 3576 
Q 2541 3569 2628 3553 
L 2631 2963 
z
" id="DejaVuSans-72" transform="scale(0.015625)"/>
       <path d="M 3328 2828 
Q 3544 3216 3844 3400 
Q 4144 3584 4550 3584 
Q 5097 3584 5394 3201 
Q 5691 2819 5691 2113 
L 5691 0 
L 5113 0 
L 5113 2094 
Q 5113 2597 4934 2840 
Q 4756 3084 4391 3084 
Q 3944 3084 3684 2787 
Q 3425 2491 3425 1978 
L 3425 0 
L 2847 0 
L 2847 2094 
Q 2847 2600 2669 2842 
Q 2491 3084 2119 3084 
Q 1678 3084 1418 2786 
Q 1159 2488 1159 1978 
L 1159 0 
L 581 0 
L 581 3500 
L 1159 3500 
L 1159 2956 
Q 1356 3278 1631 3431 
Q 1906 3584 2284 3584 
Q 2666 3584 2933 3390 
Q 3200 3197 3328 2828 
z
" id="DejaVuSans-6d" transform="scale(0.015625)"/>
       <path d="M 2194 1759 
Q 1497 1759 1228 1600 
Q 959 1441 959 1056 
Q 959 750 1161 570 
Q 1363 391 1709 391 
Q 2188 391 2477 730 
Q 2766 1069 2766 1631 
L 2766 1759 
L 2194 1759 
z
M 3341 1997 
L 3341 0 
L 2766 0 
L 2766 531 
Q 2569 213 2275 61 
Q 1981 -91 1556 -91 
Q 1019 -91 701 211 
Q 384 513 384 1019 
Q 384 1609 779 1909 
Q 1175 2209 1959 2209 
L 2766 2209 
L 2766 2266 
Q 2766 2663 2505 2880 
Q 2244 3097 1772 3097 
Q 1472 3097 1187 3025 
Q 903 2953 641 2809 
L 641 3341 
Q 956 3463 1253 3523 
Q 1550 3584 1831 3584 
Q 2591 3584 2966 3190 
Q 3341 2797 3341 1997 
z
" id="DejaVuSans-61" transform="scale(0.015625)"/>
       <path d="M 1984 4856 
Q 1566 4138 1362 3434 
Q 1159 2731 1159 2009 
Q 1159 1288 1364 580 
Q 1569 -128 1984 -844 
L 1484 -844 
Q 1016 -109 783 600 
Q 550 1309 550 2009 
Q 550 2706 781 3412 
Q 1013 4119 1484 4856 
L 1984 4856 
z
" id="DejaVuSans-28" transform="scale(0.015625)"/>
       <path d="M 2906 2969 
L 2906 4863 
L 3481 4863 
L 3481 0 
L 2906 0 
L 2906 525 
Q 2725 213 2448 61 
Q 2172 -91 1784 -91 
Q 1150 -91 751 415 
Q 353 922 353 1747 
Q 353 2572 751 3078 
Q 1150 3584 1784 3584 
Q 2172 3584 2448 3432 
Q 2725 3281 2906 2969 
z
M 947 1747 
Q 947 1113 1208 752 
Q 1469 391 1925 391 
Q 2381 391 2643 752 
Q 2906 1113 2906 1747 
Q 2906 2381 2643 2742 
Q 2381 3103 1925 3103 
Q 1469 3103 1208 2742 
Q 947 2381 947 1747 
z
" id="DejaVuSans-64" transform="scale(0.015625)"/>
       <path d="M 513 4856 
L 1013 4856 
Q 1481 4119 1714 3412 
Q 1947 2706 1947 2009 
Q 1947 1309 1714 600 
Q 1481 -109 1013 -844 
L 513 -844 
Q 928 -128 1133 580 
Q 1338 1288 1338 2009 
Q 1338 2731 1133 3434 
Q 928 4138 513 4856 
z
" id="DejaVuSans-29" transform="scale(0.015625)"/>
      </defs>
      <use xlink:href="#DejaVuSans-41"/>
      <use x="68.408203" xlink:href="#DejaVuSans-6e"/>
      <use x="131.787109" xlink:href="#DejaVuSans-67"/>
      <use x="195.263672" xlink:href="#DejaVuSans-6c"/>
      <use x="223.046875" xlink:href="#DejaVuSans-65"/>
      <use x="284.570312" xlink:href="#DejaVuSans-20"/>
      <use x="316.357422" xlink:href="#DejaVuSans-77"/>
      <use x="398.144531" xlink:href="#DejaVuSans-69"/>
      <use x="425.927734" xlink:href="#DejaVuSans-74"/>
      <use x="465.136719" xlink:href="#DejaVuSans-68"/>
      <use x="528.515625" xlink:href="#DejaVuSans-20"/>
      <use x="560.302734" xlink:href="#DejaVuSans-6e"/>
      <use x="623.681641" xlink:href="#DejaVuSans-6f"/>
      <use x="684.863281" xlink:href="#DejaVuSans-72"/>
      <use x="724.226562" xlink:href="#DejaVuSans-6d"/>
      <use x="821.638672" xlink:href="#DejaVuSans-61"/>
      <use x="882.917969" xlink:href="#DejaVuSans-6c"/>
      <use x="910.701172" xlink:href="#DejaVuSans-20"/>
      <use x="942.488281" xlink:href="#DejaVuSans-28"/>
      <use x="981.501953" xlink:href="#DejaVuSans-72"/>
      <use x="1022.615234" xlink:href="#DejaVuSans-61"/>
      <use x="1083.894531" xlink:href="#DejaVuSans-64"/>
      <use x="1147.371094" xlink:href="#DejaVuSans-29"/>
     </g>
    </g>
   </g>
   <g id="matplotlib.axis_2">
    <g id="ytick_1">
     <g id="line2d_10">
      <defs>
       <path d="M 0 0 
L -3.5 0 
" id="m014f7b2677" style="stroke:#000000;stroke-width:0.8;"/>
      </defs>
      <g>
       <use style="stroke:#000000;stroke-width:0.8;" x="43.78125" xlink:href="#m014f7b2677" y="273.312"/>
      </g>
     </g>
     <g id="text_11">
      <!-- 0.0 -->
      <g transform="translate(20.878125 277.111219)scale(0.1 -0.1)">
       <use xlink:href="#DejaVuSans-30"/>
       <use x="63.623047" xlink:href="#DejaVuSans-2e"/>
       <use x="95.410156" xlink:href="#DejaVuSans-30"/>
      </g>
     </g>
    </g>
    <g id="ytick_2">
     <g id="line2d_11">
      <g>
       <use style="stroke:#000000;stroke-width:0.8;" x="43.78125" xlink:href="#m014f7b2677" y="227.412836"/>
      </g>
     </g>
     <g id="text_12">
      <!-- 0.2 -->
      <g transform="translate(20.878125 231.212055)scale(0.1 -0.1)">
       <use xlink:href="#DejaVuSans-30"/>
       <use x="63.623047" xlink:href="#DejaVuSans-2e"/>
       <use x="95.410156" xlink:href="#DejaVuSans-32"/>
      </g>
     </g>
    </g>
    <g id="ytick_3">
     <g id="line2d_12">
      <g>
       <use style="stroke:#000000;stroke-width:0.8;" x="43.78125" xlink:href="#m014f7b2677" y="181.513673"/>
      </g>
     </g>
     <g id="text_13">
      <!-- 0.4 -->
      <g transform="translate(20.878125 185.312892)scale(0.1 -0.1)">
       <use xlink:href="#DejaVuSans-30"/>
       <use x="63.623047" xlink:href="#DejaVuSans-2e"/>
       <use x="95.410156" xlink:href="#DejaVuSans-34"/>
      </g>
     </g>
    </g>
    <g id="ytick_4">
     <g id="line2d_13">
      <g>
       <use style="stroke:#000000;stroke-width:0.8;" x="43.78125" xlink:href="#m014f7b2677" y="135.614509"/>
      </g>
     </g>
     <g id="text_14">
      <!-- 0.6 -->
      <g transform="translate(20.878125 139.413728)scale(0.1 -0.1)">
       <use xlink:href="#DejaVuSans-30"/>
       <use x="63.623047" xlink:href="#DejaVuSans-2e"/>
       <use x="95.410156" xlink:href="#DejaVuSans-36"/>
      </g>
     </g>
    </g>
    <g id="ytick_5">
     <g id="line2d_14">
      <g>
       <use style="stroke:#000000;stroke-width:0.8;" x="43.78125" xlink:href="#m014f7b2677" y="89.715346"/>
      </g>
     </g>
     <g id="text_15">
      <!-- 0.8 -->
      <g transform="translate(20.878125 93.514564)scale(0.1 -0.1)">
       <use xlink:href="#DejaVuSans-30"/>
       <use x="63.623047" xlink:href="#DejaVuSans-2e"/>
       <use x="95.410156" xlink:href="#DejaVuSans-38"/>
      </g>
     </g>
    </g>
    <g id="ytick_6">
     <g id="line2d_15">
      <g>
       <use style="stroke:#000000;stroke-width:0.8;" x="43.78125" xlink:href="#m014f7b2677" y="43.816182"/>
      </g>
     </g>
     <g id="text_16">
      <!-- 1.0 -->
      <g transform="translate(20.878125 47.615401)scale(0.1 -0.1)">
       <use xlink:href="#DejaVuSans-31"/>
       <use x="63.623047" xlink:href="#DejaVuSans-2e"/>
       <use x="95.410156" xlink:href="#DejaVuSans-30"/>
      </g>
     </g>
    </g>
    <g id="text_17">
     <!-- Probability density -->
     <g transform="translate(14.798438 186.606781)rotate(-90)scale(0.1 -0.1)">
      <defs>
       <path d="M 1259 4147 
L 1259 2394 
L 2053 2394 
Q 2494 2394 2734 2622 
Q 2975 2850 2975 3272 
Q 2975 3691 2734 3919 
Q 2494 4147 2053 4147 
L 1259 4147 
z
M 628 4666 
L 2053 4666 
Q 2838 4666 3239 4311 
Q 3641 3956 3641 3272 
Q 3641 2581 3239 2228 
Q 2838 1875 2053 1875 
L 1259 1875 
L 1259 0 
L 628 0 
L 628 4666 
z
" id="DejaVuSans-50" transform="scale(0.015625)"/>
       <path d="M 3116 1747 
Q 3116 2381 2855 2742 
Q 2594 3103 2138 3103 
Q 1681 3103 1420 2742 
Q 1159 2381 1159 1747 
Q 1159 1113 1420 752 
Q 1681 391 2138 391 
Q 2594 391 2855 752 
Q 3116 1113 3116 1747 
z
M 1159 2969 
Q 1341 3281 1617 3432 
Q 1894 3584 2278 3584 
Q 2916 3584 3314 3078 
Q 3713 2572 3713 1747 
Q 3713 922 3314 415 
Q 2916 -91 2278 -91 
Q 1894 -91 1617 61 
Q 1341 213 1159 525 
L 1159 0 
L 581 0 
L 581 4863 
L 1159 4863 
L 1159 2969 
z
" id="DejaVuSans-62" transform="scale(0.015625)"/>
       <path d="M 2059 -325 
Q 1816 -950 1584 -1140 
Q 1353 -1331 966 -1331 
L 506 -1331 
L 506 -850 
L 844 -850 
Q 1081 -850 1212 -737 
Q 1344 -625 1503 -206 
L 1606 56 
L 191 3500 
L 800 3500 
L 1894 763 
L 2988 3500 
L 3597 3500 
L 2059 -325 
z
" id="DejaVuSans-79" transform="scale(0.015625)"/>
       <path d="M 2834 3397 
L 2834 2853 
Q 2591 2978 2328 3040 
Q 2066 3103 1784 3103 
Q 1356 3103 1142 2972 
Q 928 2841 928 2578 
Q 928 2378 1081 2264 
Q 1234 2150 1697 2047 
L 1894 2003 
Q 2506 1872 2764 1633 
Q 3022 1394 3022 966 
Q 3022 478 2636 193 
Q 2250 -91 1575 -91 
Q 1294 -91 989 -36 
Q 684 19 347 128 
L 347 722 
Q 666 556 975 473 
Q 1284 391 1588 391 
Q 1994 391 2212 530 
Q 2431 669 2431 922 
Q 2431 1156 2273 1281 
Q 2116 1406 1581 1522 
L 1381 1569 
Q 847 1681 609 1914 
Q 372 2147 372 2553 
Q 372 3047 722 3315 
Q 1072 3584 1716 3584 
Q 2034 3584 2315 3537 
Q 2597 3491 2834 3397 
z
" id="DejaVuSans-73" transform="scale(0.015625)"/>
      </defs>
      <use xlink:href="#DejaVuSans-50"/>
      <use x="58.552734" xlink:href="#DejaVuSans-72"/>
      <use x="97.416016" xlink:href="#DejaVuSans-6f"/>
      <use x="158.597656" xlink:href="#DejaVuSans-62"/>
      <use x="222.074219" xlink:href="#DejaVuSans-61"/>
      <use x="283.353516" xlink:href="#DejaVuSans-62"/>
      <use x="346.830078" xlink:href="#DejaVuSans-69"/>
      <use x="374.613281" xlink:href="#DejaVuSans-6c"/>
      <use x="402.396484" xlink:href="#DejaVuSans-69"/>
      <use x="430.179688" xlink:href="#DejaVuSans-74"/>
      <use x="469.388672" xlink:href="#DejaVuSans-79"/>
      <use x="528.568359" xlink:href="#DejaVuSans-20"/>
      <use x="560.355469" xlink:href="#DejaVuSans-64"/>
      <use x="623.832031" xlink:href="#DejaVuSans-65"/>
      <use x="685.355469" xlink:href="#DejaVuSans-6e"/>
      <use x="748.734375" xlink:href="#DejaVuSans-73"/>
      <use x="800.833984" xlink:href="#DejaVuSans-69"/>
      <use x="828.617188" xlink:href="#DejaVuSans-74"/>
      <use x="867.826172" xlink:href="#DejaVuSans-79"/>
     </g>
    </g>
   </g>
   <g id="line2d_16">
    <path clip-path="url(#p2b621cae12)" d="M 60.013977 273.312 
L 79.837728 229.557556 
L 90.237073 207.146247 
L 99.01152 188.748438 
L 106.811029 172.902299 
L 113.960578 158.87674 
L 120.460169 146.599637 
L 126.63478 135.399785 
L 132.484411 125.242805 
L 138.009063 116.085083 
L 143.208736 107.875988 
L 148.408408 100.085636 
L 153.283101 93.180034 
L 157.832814 87.096067 
L 162.382528 81.372987 
L 166.932241 76.021886 
L 171.156975 71.395154 
L 175.381709 67.105841 
L 179.281463 63.452166 
L 183.181217 60.09731 
L 187.080972 57.046051 
L 190.655746 54.519483 
L 194.230521 52.254699 
L 197.805296 50.25441 
L 201.380071 48.521007 
L 204.629866 47.178534 
L 207.879661 46.059675 
L 211.129456 45.165535 
L 214.379252 44.497 
L 217.629047 44.054729 
L 220.878842 43.839161 
L 224.128637 43.850508 
L 227.378433 44.08876 
L 230.628228 44.553681 
L 233.878023 45.24481 
L 237.127818 46.161465 
L 240.377614 47.302739 
L 243.627409 48.667504 
L 247.202184 50.425259 
L 250.776958 52.449698 
L 254.351733 54.738397 
L 257.926508 57.288618 
L 261.501283 60.09731 
L 265.401037 63.452166 
L 269.300791 67.105841 
L 273.200546 71.053133 
L 277.425279 75.654176 
L 281.650013 80.58552 
L 286.199727 86.256123 
L 290.74944 92.289241 
L 295.624133 99.142278 
L 300.498826 106.382791 
L 305.698498 114.514923 
L 311.22315 123.595231 
L 316.747802 133.103332 
L 322.597433 143.606801 
L 328.772044 155.143848 
L 335.596614 168.384262 
L 342.746164 182.744803 
L 350.870652 199.585701 
L 359.970079 218.983177 
L 371.019383 243.088482 
L 384.668523 273.312 
L 384.668523 273.312 
" style="fill:none;stroke:#ff7f0e;stroke-linecap:square;stroke-width:1.5;"/>
   </g>
   <g id="patch_203">
    <path d="M 43.78125 273.312 
L 43.78125 7.2 
" style="fill:none;stroke:#000000;stroke-linecap:square;stroke-linejoin:miter;stroke-width:0.8;"/>
   </g>
   <g id="patch_204">
    <path d="M 400.90125 273.312 
L 400.90125 7.2 
" style="fill:none;stroke:#000000;stroke-linecap:square;stroke-linejoin:miter;stroke-width:0.8;"/>
   </g>
   <g id="patch_205">
    <path d="M 43.78125 273.312 
L 400.90125 273.312 
" style="fill:none;stroke:#000000;stroke-linecap:square;stroke-linejoin:miter;stroke-width:0.8;"/>
   </g>
   <g id="patch_206">
    <path d="M 43.78125 7.2 
L 400.90125 7.2 
" style="fill:none;stroke:#000000;stroke-linecap:square;stroke-linejoin:miter;stroke-width:0.8;"/>
   </g>
  </g>
 </g>
 <defs>
  <clipPath id="p2b621cae12">
   <rect height="266.112" width="357.12" x="43.78125" y="7.2"/>
  </clipPath>
 </defs>
</svg>
