<?xml version="1.0" encoding="utf-8" standalone="no"?>
<!DOCTYPE svg PUBLIC "-//W3C//DTD SVG 1.1//EN"
  "http://www.w3.org/Graphics/SVG/1.1/DTD/svg11.dtd">
<svg height="310.86825pt" version="1.1" viewBox="0 0 408.10125 310.86825" width="408.10125pt" xmlns="http://www.w3.org/2000/svg" xmlns:xlink="http://www.w3.org/1999/xlink">
 <metadata>
  <rdf:RDF xmlns:cc="http://creativecommons.org/ns#" xmlns:dc="http://purl.org/dc/elements/1.1/" xmlns:rdf="http://www.w3.org/1999/02/22-rdf-syntax-ns#">
   <cc:Work>
    <dc:type rdf:resource="http://purl.org/dc/dcmitype/StillImage"/>
    <dc:date>2021-06-22T14:49:37.659774</dc:date>
    <dc:format>image/svg+xml</dc:format>
    <dc:creator>
     <cc:Agent>
      <dc:title>Matplotlib v3.4.2, https://matplotlib.org/</dc:title>
     </cc:Agent>
    </dc:creator>
   </cc:Work>
  </rdf:RDF>
 </metadata>
 <defs>
  <style type="text/css">*{stroke-linecap:butt;stroke-linejoin:round;}</style>
 </defs>
 <g id="figure_1">
  <g id="patch_1">
   <path d="M 0 310.86825 
L 408.10125 310.86825 
L 408.10125 0 
L 0 0 
z
" style="fill:#ffffff;"/>
  </g>
  <g id="axes_1">
   <g id="patch_2">
    <path d="M 43.78125 273.312 
L 400.90125 273.312 
L 400.90125 7.2 
L 43.78125 7.2 
z
" style="fill:#ffffff;"/>
   </g>
   <g id="patch_3">
    <path clip-path="url(#p7d397ed098)" d="M 60.73443 273.312 
L 62.350088 273.312 
L 62.350088 271.164203 
L 60.73443 271.164203 
z
" style="fill:#1f77b4;"/>
   </g>
   <g id="patch_4">
    <path clip-path="url(#p7d397ed098)" d="M 62.350088 273.312 
L 63.965746 273.312 
L 63.965746 265.436746 
L 62.350088 265.436746 
z
" style="fill:#1f77b4;"/>
   </g>
   <g id="patch_5">
    <path clip-path="url(#p7d397ed098)" d="M 63.965746 273.312 
L 65.581405 273.312 
L 65.581405 261.857085 
L 63.965746 261.857085 
z
" style="fill:#1f77b4;"/>
   </g>
   <g id="patch_6">
    <path clip-path="url(#p7d397ed098)" d="M 65.581405 273.312 
L 67.197063 273.312 
L 67.197063 263.288949 
L 65.581405 263.288949 
z
" style="fill:#1f77b4;"/>
   </g>
   <g id="patch_7">
    <path clip-path="url(#p7d397ed098)" d="M 67.197063 273.312 
L 68.812721 273.312 
L 68.812721 255.413695 
L 67.197063 255.413695 
z
" style="fill:#1f77b4;"/>
   </g>
   <g id="patch_8">
    <path clip-path="url(#p7d397ed098)" d="M 68.812721 273.312 
L 70.42838 273.312 
L 70.42838 253.981831 
L 68.812721 253.981831 
z
" style="fill:#1f77b4;"/>
   </g>
   <g id="patch_9">
    <path clip-path="url(#p7d397ed098)" d="M 70.42838 273.312 
L 72.044038 273.312 
L 72.044038 256.129627 
L 70.42838 256.129627 
z
" style="fill:#1f77b4;"/>
   </g>
   <g id="patch_10">
    <path clip-path="url(#p7d397ed098)" d="M 72.044038 273.312 
L 73.659696 273.312 
L 73.659696 243.242847 
L 72.044038 243.242847 
z
" style="fill:#1f77b4;"/>
   </g>
   <g id="patch_11">
    <path clip-path="url(#p7d397ed098)" d="M 73.659696 273.312 
L 75.275354 273.312 
L 75.275354 246.822508 
L 73.659696 246.822508 
z
" style="fill:#1f77b4;"/>
   </g>
   <g id="patch_12">
    <path clip-path="url(#p7d397ed098)" d="M 75.275354 273.312 
L 76.891013 273.312 
L 76.891013 239.663186 
L 75.275354 239.663186 
z
" style="fill:#1f77b4;"/>
   </g>
   <g id="patch_13">
    <path clip-path="url(#p7d397ed098)" d="M 76.891013 273.312 
L 78.506671 273.312 
L 78.506671 232.503864 
L 76.891013 232.503864 
z
" style="fill:#1f77b4;"/>
   </g>
   <g id="patch_14">
    <path clip-path="url(#p7d397ed098)" d="M 78.506671 273.312 
L 80.122329 273.312 
L 80.122329 226.776407 
L 78.506671 226.776407 
z
" style="fill:#1f77b4;"/>
   </g>
   <g id="patch_15">
    <path clip-path="url(#p7d397ed098)" d="M 80.122329 273.312 
L 81.737988 273.312 
L 81.737988 234.651661 
L 80.122329 234.651661 
z
" style="fill:#1f77b4;"/>
   </g>
   <g id="patch_16">
    <path clip-path="url(#p7d397ed098)" d="M 81.737988 273.312 
L 83.353646 273.312 
L 83.353646 221.048949 
L 81.737988 221.048949 
z
" style="fill:#1f77b4;"/>
   </g>
   <g id="patch_17">
    <path clip-path="url(#p7d397ed098)" d="M 83.353646 273.312 
L 84.969304 273.312 
L 84.969304 232.503864 
L 83.353646 232.503864 
z
" style="fill:#1f77b4;"/>
   </g>
   <g id="patch_18">
    <path clip-path="url(#p7d397ed098)" d="M 84.969304 273.312 
L 86.584963 273.312 
L 86.584963 220.333017 
L 84.969304 220.333017 
z
" style="fill:#1f77b4;"/>
   </g>
   <g id="patch_19">
    <path clip-path="url(#p7d397ed098)" d="M 86.584963 273.312 
L 88.200621 273.312 
L 88.200621 218.18522 
L 86.584963 218.18522 
z
" style="fill:#1f77b4;"/>
   </g>
   <g id="patch_20">
    <path clip-path="url(#p7d397ed098)" d="M 88.200621 273.312 
L 89.816279 273.312 
L 89.816279 201.002847 
L 88.200621 201.002847 
z
" style="fill:#1f77b4;"/>
   </g>
   <g id="patch_21">
    <path clip-path="url(#p7d397ed098)" d="M 89.816279 273.312 
L 91.431938 273.312 
L 91.431938 216.753356 
L 89.816279 216.753356 
z
" style="fill:#1f77b4;"/>
   </g>
   <g id="patch_22">
    <path clip-path="url(#p7d397ed098)" d="M 91.431938 273.312 
L 93.047596 273.312 
L 93.047596 201.71878 
L 91.431938 201.71878 
z
" style="fill:#1f77b4;"/>
   </g>
   <g id="patch_23">
    <path clip-path="url(#p7d397ed098)" d="M 93.047596 273.312 
L 94.663254 273.312 
L 94.663254 193.127593 
L 93.047596 193.127593 
z
" style="fill:#1f77b4;"/>
   </g>
   <g id="patch_24">
    <path clip-path="url(#p7d397ed098)" d="M 94.663254 273.312 
L 96.278912 273.312 
L 96.278912 208.878102 
L 94.663254 208.878102 
z
" style="fill:#1f77b4;"/>
   </g>
   <g id="patch_25">
    <path clip-path="url(#p7d397ed098)" d="M 96.278912 273.312 
L 97.894571 273.312 
L 97.894571 195.27539 
L 96.278912 195.27539 
z
" style="fill:#1f77b4;"/>
   </g>
   <g id="patch_26">
    <path clip-path="url(#p7d397ed098)" d="M 97.894571 273.312 
L 99.510229 273.312 
L 99.510229 196.707254 
L 97.894571 196.707254 
z
" style="fill:#1f77b4;"/>
   </g>
   <g id="patch_27">
    <path clip-path="url(#p7d397ed098)" d="M 99.510229 273.312 
L 101.125887 273.312 
L 101.125887 190.263864 
L 99.510229 190.263864 
z
" style="fill:#1f77b4;"/>
   </g>
   <g id="patch_28">
    <path clip-path="url(#p7d397ed098)" d="M 101.125887 273.312 
L 102.741546 273.312 
L 102.741546 188.832 
L 101.125887 188.832 
z
" style="fill:#1f77b4;"/>
   </g>
   <g id="patch_29">
    <path clip-path="url(#p7d397ed098)" d="M 102.741546 273.312 
L 104.357204 273.312 
L 104.357204 178.093017 
L 102.741546 178.093017 
z
" style="fill:#1f77b4;"/>
   </g>
   <g id="patch_30">
    <path clip-path="url(#p7d397ed098)" d="M 104.357204 273.312 
L 105.972862 273.312 
L 105.972862 175.229288 
L 104.357204 175.229288 
z
" style="fill:#1f77b4;"/>
   </g>
   <g id="patch_31">
    <path clip-path="url(#p7d397ed098)" d="M 105.972862 273.312 
L 107.588521 273.312 
L 107.588521 188.832 
L 105.972862 188.832 
z
" style="fill:#1f77b4;"/>
   </g>
   <g id="patch_32">
    <path clip-path="url(#p7d397ed098)" d="M 107.588521 273.312 
L 109.204179 273.312 
L 109.204179 173.797424 
L 107.588521 173.797424 
z
" style="fill:#1f77b4;"/>
   </g>
   <g id="patch_33">
    <path clip-path="url(#p7d397ed098)" d="M 109.204179 273.312 
L 110.819837 273.312 
L 110.819837 171.649627 
L 109.204179 171.649627 
z
" style="fill:#1f77b4;"/>
   </g>
   <g id="patch_34">
    <path clip-path="url(#p7d397ed098)" d="M 110.819837 273.312 
L 112.435495 273.312 
L 112.435495 170.217763 
L 110.819837 170.217763 
z
" style="fill:#1f77b4;"/>
   </g>
   <g id="patch_35">
    <path clip-path="url(#p7d397ed098)" d="M 112.435495 273.312 
L 114.051154 273.312 
L 114.051154 179.524881 
L 112.435495 179.524881 
z
" style="fill:#1f77b4;"/>
   </g>
   <g id="patch_36">
    <path clip-path="url(#p7d397ed098)" d="M 114.051154 273.312 
L 115.666812 273.312 
L 115.666812 160.194712 
L 114.051154 160.194712 
z
" style="fill:#1f77b4;"/>
   </g>
   <g id="patch_37">
    <path clip-path="url(#p7d397ed098)" d="M 115.666812 273.312 
L 117.28247 273.312 
L 117.28247 148.023864 
L 115.666812 148.023864 
z
" style="fill:#1f77b4;"/>
   </g>
   <g id="patch_38">
    <path clip-path="url(#p7d397ed098)" d="M 117.28247 273.312 
L 118.898129 273.312 
L 118.898129 159.47878 
L 117.28247 159.47878 
z
" style="fill:#1f77b4;"/>
   </g>
   <g id="patch_39">
    <path clip-path="url(#p7d397ed098)" d="M 118.898129 273.312 
L 120.513787 273.312 
L 120.513787 153.751322 
L 118.898129 153.751322 
z
" style="fill:#1f77b4;"/>
   </g>
   <g id="patch_40">
    <path clip-path="url(#p7d397ed098)" d="M 120.513787 273.312 
L 122.129445 273.312 
L 122.129445 156.615051 
L 120.513787 156.615051 
z
" style="fill:#1f77b4;"/>
   </g>
   <g id="patch_41">
    <path clip-path="url(#p7d397ed098)" d="M 122.129445 273.312 
L 123.745104 273.312 
L 123.745104 148.023864 
L 122.129445 148.023864 
z
" style="fill:#1f77b4;"/>
   </g>
   <g id="patch_42">
    <path clip-path="url(#p7d397ed098)" d="M 123.745104 273.312 
L 125.360762 273.312 
L 125.360762 143.012339 
L 123.745104 143.012339 
z
" style="fill:#1f77b4;"/>
   </g>
   <g id="patch_43">
    <path clip-path="url(#p7d397ed098)" d="M 125.360762 273.312 
L 126.97642 273.312 
L 126.97642 165.922169 
L 125.360762 165.922169 
z
" style="fill:#1f77b4;"/>
   </g>
   <g id="patch_44">
    <path clip-path="url(#p7d397ed098)" d="M 126.97642 273.312 
L 128.592078 273.312 
L 128.592078 125.829966 
L 126.97642 125.829966 
z
" style="fill:#1f77b4;"/>
   </g>
   <g id="patch_45">
    <path clip-path="url(#p7d397ed098)" d="M 128.592078 273.312 
L 130.207737 273.312 
L 130.207737 117.954712 
L 128.592078 117.954712 
z
" style="fill:#1f77b4;"/>
   </g>
   <g id="patch_46">
    <path clip-path="url(#p7d397ed098)" d="M 130.207737 273.312 
L 131.823395 273.312 
L 131.823395 140.14861 
L 130.207737 140.14861 
z
" style="fill:#1f77b4;"/>
   </g>
   <g id="patch_47">
    <path clip-path="url(#p7d397ed098)" d="M 131.823395 273.312 
L 133.439053 273.312 
L 133.439053 122.250305 
L 131.823395 122.250305 
z
" style="fill:#1f77b4;"/>
   </g>
   <g id="patch_48">
    <path clip-path="url(#p7d397ed098)" d="M 133.439053 273.312 
L 135.054712 273.312 
L 135.054712 145.876068 
L 133.439053 145.876068 
z
" style="fill:#1f77b4;"/>
   </g>
   <g id="patch_49">
    <path clip-path="url(#p7d397ed098)" d="M 135.054712 273.312 
L 136.67037 273.312 
L 136.67037 134.421153 
L 135.054712 134.421153 
z
" style="fill:#1f77b4;"/>
   </g>
   <g id="patch_50">
    <path clip-path="url(#p7d397ed098)" d="M 136.67037 273.312 
L 138.286028 273.312 
L 138.286028 136.568949 
L 136.67037 136.568949 
z
" style="fill:#1f77b4;"/>
   </g>
   <g id="patch_51">
    <path clip-path="url(#p7d397ed098)" d="M 138.286028 273.312 
L 139.901687 273.312 
L 139.901687 113.659119 
L 138.286028 113.659119 
z
" style="fill:#1f77b4;"/>
   </g>
   <g id="patch_52">
    <path clip-path="url(#p7d397ed098)" d="M 139.901687 273.312 
L 141.517345 273.312 
L 141.517345 129.409627 
L 139.901687 129.409627 
z
" style="fill:#1f77b4;"/>
   </g>
   <g id="patch_53">
    <path clip-path="url(#p7d397ed098)" d="M 141.517345 273.312 
L 143.133003 273.312 
L 143.133003 121.534373 
L 141.517345 121.534373 
z
" style="fill:#1f77b4;"/>
   </g>
   <g id="patch_54">
    <path clip-path="url(#p7d397ed098)" d="M 143.133003 273.312 
L 144.748662 273.312 
L 144.748662 100.772339 
L 143.133003 100.772339 
z
" style="fill:#1f77b4;"/>
   </g>
   <g id="patch_55">
    <path clip-path="url(#p7d397ed098)" d="M 144.748662 273.312 
L 146.36432 273.312 
L 146.36432 92.181153 
L 144.748662 92.181153 
z
" style="fill:#1f77b4;"/>
   </g>
   <g id="patch_56">
    <path clip-path="url(#p7d397ed098)" d="M 146.36432 273.312 
L 147.979978 273.312 
L 147.979978 103.636068 
L 146.36432 103.636068 
z
" style="fill:#1f77b4;"/>
   </g>
   <g id="patch_57">
    <path clip-path="url(#p7d397ed098)" d="M 147.979978 273.312 
L 149.595636 273.312 
L 149.595636 110.079458 
L 147.979978 110.079458 
z
" style="fill:#1f77b4;"/>
   </g>
   <g id="patch_58">
    <path clip-path="url(#p7d397ed098)" d="M 149.595636 273.312 
L 151.211295 273.312 
L 151.211295 89.317424 
L 149.595636 89.317424 
z
" style="fill:#1f77b4;"/>
   </g>
   <g id="patch_59">
    <path clip-path="url(#p7d397ed098)" d="M 151.211295 273.312 
L 152.826953 273.312 
L 152.826953 95.760814 
L 151.211295 95.760814 
z
" style="fill:#1f77b4;"/>
   </g>
   <g id="patch_60">
    <path clip-path="url(#p7d397ed098)" d="M 152.826953 273.312 
L 154.442611 273.312 
L 154.442611 87.885559 
L 152.826953 87.885559 
z
" style="fill:#1f77b4;"/>
   </g>
   <g id="patch_61">
    <path clip-path="url(#p7d397ed098)" d="M 154.442611 273.312 
L 156.05827 273.312 
L 156.05827 79.294373 
L 154.442611 79.294373 
z
" style="fill:#1f77b4;"/>
   </g>
   <g id="patch_62">
    <path clip-path="url(#p7d397ed098)" d="M 156.05827 273.312 
L 157.673928 273.312 
L 157.673928 89.317424 
L 156.05827 89.317424 
z
" style="fill:#1f77b4;"/>
   </g>
   <g id="patch_63">
    <path clip-path="url(#p7d397ed098)" d="M 157.673928 273.312 
L 159.289586 273.312 
L 159.289586 112.943186 
L 157.673928 112.943186 
z
" style="fill:#1f77b4;"/>
   </g>
   <g id="patch_64">
    <path clip-path="url(#p7d397ed098)" d="M 159.289586 273.312 
L 160.905245 273.312 
L 160.905245 92.897085 
L 159.289586 92.897085 
z
" style="fill:#1f77b4;"/>
   </g>
   <g id="patch_65">
    <path clip-path="url(#p7d397ed098)" d="M 160.905245 273.312 
L 162.520903 273.312 
L 162.520903 89.317424 
L 160.905245 89.317424 
z
" style="fill:#1f77b4;"/>
   </g>
   <g id="patch_66">
    <path clip-path="url(#p7d397ed098)" d="M 162.520903 273.312 
L 164.136561 273.312 
L 164.136561 93.613017 
L 162.520903 93.613017 
z
" style="fill:#1f77b4;"/>
   </g>
   <g id="patch_67">
    <path clip-path="url(#p7d397ed098)" d="M 164.136561 273.312 
L 165.752219 273.312 
L 165.752219 87.169627 
L 164.136561 87.169627 
z
" style="fill:#1f77b4;"/>
   </g>
   <g id="patch_68">
    <path clip-path="url(#p7d397ed098)" d="M 165.752219 273.312 
L 167.367878 273.312 
L 167.367878 90.033356 
L 165.752219 90.033356 
z
" style="fill:#1f77b4;"/>
   </g>
   <g id="patch_69">
    <path clip-path="url(#p7d397ed098)" d="M 167.367878 273.312 
L 168.983536 273.312 
L 168.983536 87.169627 
L 167.367878 87.169627 
z
" style="fill:#1f77b4;"/>
   </g>
   <g id="patch_70">
    <path clip-path="url(#p7d397ed098)" d="M 168.983536 273.312 
L 170.599194 273.312 
L 170.599194 82.874034 
L 168.983536 82.874034 
z
" style="fill:#1f77b4;"/>
   </g>
   <g id="patch_71">
    <path clip-path="url(#p7d397ed098)" d="M 170.599194 273.312 
L 172.214853 273.312 
L 172.214853 65.691661 
L 170.599194 65.691661 
z
" style="fill:#1f77b4;"/>
   </g>
   <g id="patch_72">
    <path clip-path="url(#p7d397ed098)" d="M 172.214853 273.312 
L 173.830511 273.312 
L 173.830511 85.737763 
L 172.214853 85.737763 
z
" style="fill:#1f77b4;"/>
   </g>
   <g id="patch_73">
    <path clip-path="url(#p7d397ed098)" d="M 173.830511 273.312 
L 175.446169 273.312 
L 175.446169 85.021831 
L 173.830511 85.021831 
z
" style="fill:#1f77b4;"/>
   </g>
   <g id="patch_74">
    <path clip-path="url(#p7d397ed098)" d="M 175.446169 273.312 
L 177.061828 273.312 
L 177.061828 61.396068 
L 175.446169 61.396068 
z
" style="fill:#1f77b4;"/>
   </g>
   <g id="patch_75">
    <path clip-path="url(#p7d397ed098)" d="M 177.061828 273.312 
L 178.677486 273.312 
L 178.677486 69.987254 
L 177.061828 69.987254 
z
" style="fill:#1f77b4;"/>
   </g>
   <g id="patch_76">
    <path clip-path="url(#p7d397ed098)" d="M 178.677486 273.312 
L 180.293144 273.312 
L 180.293144 67.123525 
L 178.677486 67.123525 
z
" style="fill:#1f77b4;"/>
   </g>
   <g id="patch_77">
    <path clip-path="url(#p7d397ed098)" d="M 180.293144 273.312 
L 181.908803 273.312 
L 181.908803 70.703186 
L 180.293144 70.703186 
z
" style="fill:#1f77b4;"/>
   </g>
   <g id="patch_78">
    <path clip-path="url(#p7d397ed098)" d="M 181.908803 273.312 
L 183.524461 273.312 
L 183.524461 88.601492 
L 181.908803 88.601492 
z
" style="fill:#1f77b4;"/>
   </g>
   <g id="patch_79">
    <path clip-path="url(#p7d397ed098)" d="M 183.524461 273.312 
L 185.140119 273.312 
L 185.140119 79.294373 
L 183.524461 79.294373 
z
" style="fill:#1f77b4;"/>
   </g>
   <g id="patch_80">
    <path clip-path="url(#p7d397ed098)" d="M 185.140119 273.312 
L 186.755777 273.312 
L 186.755777 45.645559 
L 185.140119 45.645559 
z
" style="fill:#1f77b4;"/>
   </g>
   <g id="patch_81">
    <path clip-path="url(#p7d397ed098)" d="M 186.755777 273.312 
L 188.371436 273.312 
L 188.371436 47.793356 
L 186.755777 47.793356 
z
" style="fill:#1f77b4;"/>
   </g>
   <g id="patch_82">
    <path clip-path="url(#p7d397ed098)" d="M 188.371436 273.312 
L 189.987094 273.312 
L 189.987094 55.66861 
L 188.371436 55.66861 
z
" style="fill:#1f77b4;"/>
   </g>
   <g id="patch_83">
    <path clip-path="url(#p7d397ed098)" d="M 189.987094 273.312 
L 191.602752 273.312 
L 191.602752 39.202169 
L 189.987094 39.202169 
z
" style="fill:#1f77b4;"/>
   </g>
   <g id="patch_84">
    <path clip-path="url(#p7d397ed098)" d="M 191.602752 273.312 
L 193.218411 273.312 
L 193.218411 68.55539 
L 191.602752 68.55539 
z
" style="fill:#1f77b4;"/>
   </g>
   <g id="patch_85">
    <path clip-path="url(#p7d397ed098)" d="M 193.218411 273.312 
L 194.834069 273.312 
L 194.834069 50.657085 
L 193.218411 50.657085 
z
" style="fill:#1f77b4;"/>
   </g>
   <g id="patch_86">
    <path clip-path="url(#p7d397ed098)" d="M 194.834069 273.312 
L 196.449727 273.312 
L 196.449727 35.622508 
L 194.834069 35.622508 
z
" style="fill:#1f77b4;"/>
   </g>
   <g id="patch_87">
    <path clip-path="url(#p7d397ed098)" d="M 196.449727 273.312 
L 198.065386 273.312 
L 198.065386 65.691661 
L 196.449727 65.691661 
z
" style="fill:#1f77b4;"/>
   </g>
   <g id="patch_88">
    <path clip-path="url(#p7d397ed098)" d="M 198.065386 273.312 
L 199.681044 273.312 
L 199.681044 69.271322 
L 198.065386 69.271322 
z
" style="fill:#1f77b4;"/>
   </g>
   <g id="patch_89">
    <path clip-path="url(#p7d397ed098)" d="M 199.681044 273.312 
L 201.296702 273.312 
L 201.296702 38.486237 
L 199.681044 38.486237 
z
" style="fill:#1f77b4;"/>
   </g>
   <g id="patch_90">
    <path clip-path="url(#p7d397ed098)" d="M 201.296702 273.312 
L 202.91236 273.312 
L 202.91236 32.042847 
L 201.296702 32.042847 
z
" style="fill:#1f77b4;"/>
   </g>
   <g id="patch_91">
    <path clip-path="url(#p7d397ed098)" d="M 202.91236 273.312 
L 204.528019 273.312 
L 204.528019 43.497763 
L 202.91236 43.497763 
z
" style="fill:#1f77b4;"/>
   </g>
   <g id="patch_92">
    <path clip-path="url(#p7d397ed098)" d="M 204.528019 273.312 
L 206.143677 273.312 
L 206.143677 38.486237 
L 204.528019 38.486237 
z
" style="fill:#1f77b4;"/>
   </g>
   <g id="patch_93">
    <path clip-path="url(#p7d397ed098)" d="M 206.143677 273.312 
L 207.759335 273.312 
L 207.759335 64.259797 
L 206.143677 64.259797 
z
" style="fill:#1f77b4;"/>
   </g>
   <g id="patch_94">
    <path clip-path="url(#p7d397ed098)" d="M 207.759335 273.312 
L 209.374994 273.312 
L 209.374994 72.135051 
L 207.759335 72.135051 
z
" style="fill:#1f77b4;"/>
   </g>
   <g id="patch_95">
    <path clip-path="url(#p7d397ed098)" d="M 209.374994 273.312 
L 210.990652 273.312 
L 210.990652 55.66861 
L 209.374994 55.66861 
z
" style="fill:#1f77b4;"/>
   </g>
   <g id="patch_96">
    <path clip-path="url(#p7d397ed098)" d="M 210.990652 273.312 
L 212.60631 273.312 
L 212.60631 52.088949 
L 210.990652 52.088949 
z
" style="fill:#1f77b4;"/>
   </g>
   <g id="patch_97">
    <path clip-path="url(#p7d397ed098)" d="M 212.60631 273.312 
L 214.221969 273.312 
L 214.221969 39.202169 
L 212.60631 39.202169 
z
" style="fill:#1f77b4;"/>
   </g>
   <g id="patch_98">
    <path clip-path="url(#p7d397ed098)" d="M 214.221969 273.312 
L 215.837627 273.312 
L 215.837627 53.520814 
L 214.221969 53.520814 
z
" style="fill:#1f77b4;"/>
   </g>
   <g id="patch_99">
    <path clip-path="url(#p7d397ed098)" d="M 215.837627 273.312 
L 217.453285 273.312 
L 217.453285 49.22522 
L 215.837627 49.22522 
z
" style="fill:#1f77b4;"/>
   </g>
   <g id="patch_100">
    <path clip-path="url(#p7d397ed098)" d="M 217.453285 273.312 
L 219.068943 273.312 
L 219.068943 55.66861 
L 217.453285 55.66861 
z
" style="fill:#1f77b4;"/>
   </g>
   <g id="patch_101">
    <path clip-path="url(#p7d397ed098)" d="M 219.068943 273.312 
L 220.684602 273.312 
L 220.684602 42.781831 
L 219.068943 42.781831 
z
" style="fill:#1f77b4;"/>
   </g>
   <g id="patch_102">
    <path clip-path="url(#p7d397ed098)" d="M 220.684602 273.312 
L 222.30026 273.312 
L 222.30026 57.100475 
L 220.684602 57.100475 
z
" style="fill:#1f77b4;"/>
   </g>
   <g id="patch_103">
    <path clip-path="url(#p7d397ed098)" d="M 222.30026 273.312 
L 223.915918 273.312 
L 223.915918 33.474712 
L 222.30026 33.474712 
z
" style="fill:#1f77b4;"/>
   </g>
   <g id="patch_104">
    <path clip-path="url(#p7d397ed098)" d="M 223.915918 273.312 
L 225.531577 273.312 
L 225.531577 19.872 
L 223.915918 19.872 
z
" style="fill:#1f77b4;"/>
   </g>
   <g id="patch_105">
    <path clip-path="url(#p7d397ed098)" d="M 225.531577 273.312 
L 227.147235 273.312 
L 227.147235 36.338441 
L 225.531577 36.338441 
z
" style="fill:#1f77b4;"/>
   </g>
   <g id="patch_106">
    <path clip-path="url(#p7d397ed098)" d="M 227.147235 273.312 
L 228.762893 273.312 
L 228.762893 52.804881 
L 227.147235 52.804881 
z
" style="fill:#1f77b4;"/>
   </g>
   <g id="patch_107">
    <path clip-path="url(#p7d397ed098)" d="M 228.762893 273.312 
L 230.378552 273.312 
L 230.378552 54.952678 
L 228.762893 54.952678 
z
" style="fill:#1f77b4;"/>
   </g>
   <g id="patch_108">
    <path clip-path="url(#p7d397ed098)" d="M 230.378552 273.312 
L 231.99421 273.312 
L 231.99421 69.271322 
L 230.378552 69.271322 
z
" style="fill:#1f77b4;"/>
   </g>
   <g id="patch_109">
    <path clip-path="url(#p7d397ed098)" d="M 231.99421 273.312 
L 233.609868 273.312 
L 233.609868 54.952678 
L 231.99421 54.952678 
z
" style="fill:#1f77b4;"/>
   </g>
   <g id="patch_110">
    <path clip-path="url(#p7d397ed098)" d="M 233.609868 273.312 
L 235.225527 273.312 
L 235.225527 42.781831 
L 233.609868 42.781831 
z
" style="fill:#1f77b4;"/>
   </g>
   <g id="patch_111">
    <path clip-path="url(#p7d397ed098)" d="M 235.225527 273.312 
L 236.841185 273.312 
L 236.841185 33.474712 
L 235.225527 33.474712 
z
" style="fill:#1f77b4;"/>
   </g>
   <g id="patch_112">
    <path clip-path="url(#p7d397ed098)" d="M 236.841185 273.312 
L 238.456843 273.312 
L 238.456843 28.463186 
L 236.841185 28.463186 
z
" style="fill:#1f77b4;"/>
   </g>
   <g id="patch_113">
    <path clip-path="url(#p7d397ed098)" d="M 238.456843 273.312 
L 240.072501 273.312 
L 240.072501 46.361492 
L 238.456843 46.361492 
z
" style="fill:#1f77b4;"/>
   </g>
   <g id="patch_114">
    <path clip-path="url(#p7d397ed098)" d="M 240.072501 273.312 
L 241.68816 273.312 
L 241.68816 54.236746 
L 240.072501 54.236746 
z
" style="fill:#1f77b4;"/>
   </g>
   <g id="patch_115">
    <path clip-path="url(#p7d397ed098)" d="M 241.68816 273.312 
L 243.303818 273.312 
L 243.303818 69.987254 
L 241.68816 69.987254 
z
" style="fill:#1f77b4;"/>
   </g>
   <g id="patch_116">
    <path clip-path="url(#p7d397ed098)" d="M 243.303818 273.312 
L 244.919476 273.312 
L 244.919476 57.100475 
L 243.303818 57.100475 
z
" style="fill:#1f77b4;"/>
   </g>
   <g id="patch_117">
    <path clip-path="url(#p7d397ed098)" d="M 244.919476 273.312 
L 246.535135 273.312 
L 246.535135 71.419119 
L 244.919476 71.419119 
z
" style="fill:#1f77b4;"/>
   </g>
   <g id="patch_118">
    <path clip-path="url(#p7d397ed098)" d="M 246.535135 273.312 
L 248.150793 273.312 
L 248.150793 47.793356 
L 246.535135 47.793356 
z
" style="fill:#1f77b4;"/>
   </g>
   <g id="patch_119">
    <path clip-path="url(#p7d397ed098)" d="M 248.150793 273.312 
L 249.766451 273.312 
L 249.766451 53.520814 
L 248.150793 53.520814 
z
" style="fill:#1f77b4;"/>
   </g>
   <g id="patch_120">
    <path clip-path="url(#p7d397ed098)" d="M 249.766451 273.312 
L 251.38211 273.312 
L 251.38211 52.088949 
L 249.766451 52.088949 
z
" style="fill:#1f77b4;"/>
   </g>
   <g id="patch_121">
    <path clip-path="url(#p7d397ed098)" d="M 251.38211 273.312 
L 252.997768 273.312 
L 252.997768 47.077424 
L 251.38211 47.077424 
z
" style="fill:#1f77b4;"/>
   </g>
   <g id="patch_122">
    <path clip-path="url(#p7d397ed098)" d="M 252.997768 273.312 
L 254.613426 273.312 
L 254.613426 70.703186 
L 252.997768 70.703186 
z
" style="fill:#1f77b4;"/>
   </g>
   <g id="patch_123">
    <path clip-path="url(#p7d397ed098)" d="M 254.613426 273.312 
L 256.229084 273.312 
L 256.229084 77.146576 
L 254.613426 77.146576 
z
" style="fill:#1f77b4;"/>
   </g>
   <g id="patch_124">
    <path clip-path="url(#p7d397ed098)" d="M 256.229084 273.312 
L 257.844743 273.312 
L 257.844743 64.975729 
L 256.229084 64.975729 
z
" style="fill:#1f77b4;"/>
   </g>
   <g id="patch_125">
    <path clip-path="url(#p7d397ed098)" d="M 257.844743 273.312 
L 259.460401 273.312 
L 259.460401 64.975729 
L 257.844743 64.975729 
z
" style="fill:#1f77b4;"/>
   </g>
   <g id="patch_126">
    <path clip-path="url(#p7d397ed098)" d="M 259.460401 273.312 
L 261.076059 273.312 
L 261.076059 69.271322 
L 259.460401 69.271322 
z
" style="fill:#1f77b4;"/>
   </g>
   <g id="patch_127">
    <path clip-path="url(#p7d397ed098)" d="M 261.076059 273.312 
L 262.691718 273.312 
L 262.691718 25.599458 
L 261.076059 25.599458 
z
" style="fill:#1f77b4;"/>
   </g>
   <g id="patch_128">
    <path clip-path="url(#p7d397ed098)" d="M 262.691718 273.312 
L 264.307376 273.312 
L 264.307376 58.532339 
L 262.691718 58.532339 
z
" style="fill:#1f77b4;"/>
   </g>
   <g id="patch_129">
    <path clip-path="url(#p7d397ed098)" d="M 264.307376 273.312 
L 265.923034 273.312 
L 265.923034 72.850983 
L 264.307376 72.850983 
z
" style="fill:#1f77b4;"/>
   </g>
   <g id="patch_130">
    <path clip-path="url(#p7d397ed098)" d="M 265.923034 273.312 
L 267.538693 273.312 
L 267.538693 87.885559 
L 265.923034 87.885559 
z
" style="fill:#1f77b4;"/>
   </g>
   <g id="patch_131">
    <path clip-path="url(#p7d397ed098)" d="M 267.538693 273.312 
L 269.154351 273.312 
L 269.154351 57.100475 
L 267.538693 57.100475 
z
" style="fill:#1f77b4;"/>
   </g>
   <g id="patch_132">
    <path clip-path="url(#p7d397ed098)" d="M 269.154351 273.312 
L 270.770009 273.312 
L 270.770009 66.407593 
L 269.154351 66.407593 
z
" style="fill:#1f77b4;"/>
   </g>
   <g id="patch_133">
    <path clip-path="url(#p7d397ed098)" d="M 270.770009 273.312 
L 272.385668 273.312 
L 272.385668 62.827932 
L 270.770009 62.827932 
z
" style="fill:#1f77b4;"/>
   </g>
   <g id="patch_134">
    <path clip-path="url(#p7d397ed098)" d="M 272.385668 273.312 
L 274.001326 273.312 
L 274.001326 57.100475 
L 272.385668 57.100475 
z
" style="fill:#1f77b4;"/>
   </g>
   <g id="patch_135">
    <path clip-path="url(#p7d397ed098)" d="M 274.001326 273.312 
L 275.616984 273.312 
L 275.616984 67.123525 
L 274.001326 67.123525 
z
" style="fill:#1f77b4;"/>
   </g>
   <g id="patch_136">
    <path clip-path="url(#p7d397ed098)" d="M 275.616984 273.312 
L 277.232642 273.312 
L 277.232642 82.158102 
L 275.616984 82.158102 
z
" style="fill:#1f77b4;"/>
   </g>
   <g id="patch_137">
    <path clip-path="url(#p7d397ed098)" d="M 277.232642 273.312 
L 278.848301 273.312 
L 278.848301 80.010305 
L 277.232642 80.010305 
z
" style="fill:#1f77b4;"/>
   </g>
   <g id="patch_138">
    <path clip-path="url(#p7d397ed098)" d="M 278.848301 273.312 
L 280.463959 273.312 
L 280.463959 67.839458 
L 278.848301 67.839458 
z
" style="fill:#1f77b4;"/>
   </g>
   <g id="patch_139">
    <path clip-path="url(#p7d397ed098)" d="M 280.463959 273.312 
L 282.079617 273.312 
L 282.079617 107.215729 
L 280.463959 107.215729 
z
" style="fill:#1f77b4;"/>
   </g>
   <g id="patch_140">
    <path clip-path="url(#p7d397ed098)" d="M 282.079617 273.312 
L 283.695276 273.312 
L 283.695276 90.033356 
L 282.079617 90.033356 
z
" style="fill:#1f77b4;"/>
   </g>
   <g id="patch_141">
    <path clip-path="url(#p7d397ed098)" d="M 283.695276 273.312 
L 285.310934 273.312 
L 285.310934 74.99878 
L 283.695276 74.99878 
z
" style="fill:#1f77b4;"/>
   </g>
   <g id="patch_142">
    <path clip-path="url(#p7d397ed098)" d="M 285.310934 273.312 
L 286.926592 273.312 
L 286.926592 110.79539 
L 285.310934 110.79539 
z
" style="fill:#1f77b4;"/>
   </g>
   <g id="patch_143">
    <path clip-path="url(#p7d397ed098)" d="M 286.926592 273.312 
L 288.542251 273.312 
L 288.542251 92.181153 
L 286.926592 92.181153 
z
" style="fill:#1f77b4;"/>
   </g>
   <g id="patch_144">
    <path clip-path="url(#p7d397ed098)" d="M 288.542251 273.312 
L 290.157909 273.312 
L 290.157909 92.897085 
L 288.542251 92.897085 
z
" style="fill:#1f77b4;"/>
   </g>
   <g id="patch_145">
    <path clip-path="url(#p7d397ed098)" d="M 290.157909 273.312 
L 291.773567 273.312 
L 291.773567 92.897085 
L 290.157909 92.897085 
z
" style="fill:#1f77b4;"/>
   </g>
   <g id="patch_146">
    <path clip-path="url(#p7d397ed098)" d="M 291.773567 273.312 
L 293.389225 273.312 
L 293.389225 107.215729 
L 291.773567 107.215729 
z
" style="fill:#1f77b4;"/>
   </g>
   <g id="patch_147">
    <path clip-path="url(#p7d397ed098)" d="M 293.389225 273.312 
L 295.004884 273.312 
L 295.004884 120.818441 
L 293.389225 120.818441 
z
" style="fill:#1f77b4;"/>
   </g>
   <g id="patch_148">
    <path clip-path="url(#p7d397ed098)" d="M 295.004884 273.312 
L 296.620542 273.312 
L 296.620542 101.488271 
L 295.004884 101.488271 
z
" style="fill:#1f77b4;"/>
   </g>
   <g id="patch_149">
    <path clip-path="url(#p7d397ed098)" d="M 296.620542 273.312 
L 298.2362 273.312 
L 298.2362 103.636068 
L 296.620542 103.636068 
z
" style="fill:#1f77b4;"/>
   </g>
   <g id="patch_150">
    <path clip-path="url(#p7d397ed098)" d="M 298.2362 273.312 
L 299.851859 273.312 
L 299.851859 103.636068 
L 298.2362 103.636068 
z
" style="fill:#1f77b4;"/>
   </g>
   <g id="patch_151">
    <path clip-path="url(#p7d397ed098)" d="M 299.851859 273.312 
L 301.467517 273.312 
L 301.467517 103.636068 
L 299.851859 103.636068 
z
" style="fill:#1f77b4;"/>
   </g>
   <g id="patch_152">
    <path clip-path="url(#p7d397ed098)" d="M 301.467517 273.312 
L 303.083175 273.312 
L 303.083175 115.090983 
L 301.467517 115.090983 
z
" style="fill:#1f77b4;"/>
   </g>
   <g id="patch_153">
    <path clip-path="url(#p7d397ed098)" d="M 303.083175 273.312 
L 304.698834 273.312 
L 304.698834 138.000814 
L 303.083175 138.000814 
z
" style="fill:#1f77b4;"/>
   </g>
   <g id="patch_154">
    <path clip-path="url(#p7d397ed098)" d="M 304.698834 273.312 
L 306.314492 273.312 
L 306.314492 107.931661 
L 304.698834 107.931661 
z
" style="fill:#1f77b4;"/>
   </g>
   <g id="patch_155">
    <path clip-path="url(#p7d397ed098)" d="M 306.314492 273.312 
L 307.93015 273.312 
L 307.93015 118.670644 
L 306.314492 118.670644 
z
" style="fill:#1f77b4;"/>
   </g>
   <g id="patch_156">
    <path clip-path="url(#p7d397ed098)" d="M 307.93015 273.312 
L 309.545808 273.312 
L 309.545808 142.296407 
L 307.93015 142.296407 
z
" style="fill:#1f77b4;"/>
   </g>
   <g id="patch_157">
    <path clip-path="url(#p7d397ed098)" d="M 309.545808 273.312 
L 311.161467 273.312 
L 311.161467 112.227254 
L 309.545808 112.227254 
z
" style="fill:#1f77b4;"/>
   </g>
   <g id="patch_158">
    <path clip-path="url(#p7d397ed098)" d="M 311.161467 273.312 
L 312.777125 273.312 
L 312.777125 108.647593 
L 311.161467 108.647593 
z
" style="fill:#1f77b4;"/>
   </g>
   <g id="patch_159">
    <path clip-path="url(#p7d397ed098)" d="M 312.777125 273.312 
L 314.392783 273.312 
L 314.392783 130.841492 
L 312.777125 130.841492 
z
" style="fill:#1f77b4;"/>
   </g>
   <g id="patch_160">
    <path clip-path="url(#p7d397ed098)" d="M 314.392783 273.312 
L 316.008442 273.312 
L 316.008442 150.171661 
L 314.392783 150.171661 
z
" style="fill:#1f77b4;"/>
   </g>
   <g id="patch_161">
    <path clip-path="url(#p7d397ed098)" d="M 316.008442 273.312 
L 317.6241 273.312 
L 317.6241 136.568949 
L 316.008442 136.568949 
z
" style="fill:#1f77b4;"/>
   </g>
   <g id="patch_162">
    <path clip-path="url(#p7d397ed098)" d="M 317.6241 273.312 
L 319.239758 273.312 
L 319.239758 130.841492 
L 317.6241 130.841492 
z
" style="fill:#1f77b4;"/>
   </g>
   <g id="patch_163">
    <path clip-path="url(#p7d397ed098)" d="M 319.239758 273.312 
L 320.855417 273.312 
L 320.855417 128.693695 
L 319.239758 128.693695 
z
" style="fill:#1f77b4;"/>
   </g>
   <g id="patch_164">
    <path clip-path="url(#p7d397ed098)" d="M 320.855417 273.312 
L 322.471075 273.312 
L 322.471075 141.580475 
L 320.855417 141.580475 
z
" style="fill:#1f77b4;"/>
   </g>
   <g id="patch_165">
    <path clip-path="url(#p7d397ed098)" d="M 322.471075 273.312 
L 324.086733 273.312 
L 324.086733 138.716746 
L 322.471075 138.716746 
z
" style="fill:#1f77b4;"/>
   </g>
   <g id="patch_166">
    <path clip-path="url(#p7d397ed098)" d="M 324.086733 273.312 
L 325.702392 273.312 
L 325.702392 163.774373 
L 324.086733 163.774373 
z
" style="fill:#1f77b4;"/>
   </g>
   <g id="patch_167">
    <path clip-path="url(#p7d397ed098)" d="M 325.702392 273.312 
L 327.31805 273.312 
L 327.31805 160.194712 
L 325.702392 160.194712 
z
" style="fill:#1f77b4;"/>
   </g>
   <g id="patch_168">
    <path clip-path="url(#p7d397ed098)" d="M 327.31805 273.312 
L 328.933708 273.312 
L 328.933708 163.058441 
L 327.31805 163.058441 
z
" style="fill:#1f77b4;"/>
   </g>
   <g id="patch_169">
    <path clip-path="url(#p7d397ed098)" d="M 328.933708 273.312 
L 330.549366 273.312 
L 330.549366 154.467254 
L 328.933708 154.467254 
z
" style="fill:#1f77b4;"/>
   </g>
   <g id="patch_170">
    <path clip-path="url(#p7d397ed098)" d="M 330.549366 273.312 
L 332.165025 273.312 
L 332.165025 168.069966 
L 330.549366 168.069966 
z
" style="fill:#1f77b4;"/>
   </g>
   <g id="patch_171">
    <path clip-path="url(#p7d397ed098)" d="M 332.165025 273.312 
L 333.780683 273.312 
L 333.780683 163.058441 
L 332.165025 163.058441 
z
" style="fill:#1f77b4;"/>
   </g>
   <g id="patch_172">
    <path clip-path="url(#p7d397ed098)" d="M 333.780683 273.312 
L 335.396341 273.312 
L 335.396341 184.536407 
L 333.780683 184.536407 
z
" style="fill:#1f77b4;"/>
   </g>
   <g id="patch_173">
    <path clip-path="url(#p7d397ed098)" d="M 335.396341 273.312 
L 337.012 273.312 
L 337.012 155.899119 
L 335.396341 155.899119 
z
" style="fill:#1f77b4;"/>
   </g>
   <g id="patch_174">
    <path clip-path="url(#p7d397ed098)" d="M 337.012 273.312 
L 338.627658 273.312 
L 338.627658 184.536407 
L 337.012 184.536407 
z
" style="fill:#1f77b4;"/>
   </g>
   <g id="patch_175">
    <path clip-path="url(#p7d397ed098)" d="M 338.627658 273.312 
L 340.243316 273.312 
L 340.243316 190.263864 
L 338.627658 190.263864 
z
" style="fill:#1f77b4;"/>
   </g>
   <g id="patch_176">
    <path clip-path="url(#p7d397ed098)" d="M 340.243316 273.312 
L 341.858975 273.312 
L 341.858975 170.933695 
L 340.243316 170.933695 
z
" style="fill:#1f77b4;"/>
   </g>
   <g id="patch_177">
    <path clip-path="url(#p7d397ed098)" d="M 341.858975 273.312 
L 343.474633 273.312 
L 343.474633 182.38861 
L 341.858975 182.38861 
z
" style="fill:#1f77b4;"/>
   </g>
   <g id="patch_178">
    <path clip-path="url(#p7d397ed098)" d="M 343.474633 273.312 
L 345.090291 273.312 
L 345.090291 195.991322 
L 343.474633 195.991322 
z
" style="fill:#1f77b4;"/>
   </g>
   <g id="patch_179">
    <path clip-path="url(#p7d397ed098)" d="M 345.090291 273.312 
L 346.705949 273.312 
L 346.705949 197.423186 
L 345.090291 197.423186 
z
" style="fill:#1f77b4;"/>
   </g>
   <g id="patch_180">
    <path clip-path="url(#p7d397ed098)" d="M 346.705949 273.312 
L 348.321608 273.312 
L 348.321608 201.002847 
L 346.705949 201.002847 
z
" style="fill:#1f77b4;"/>
   </g>
   <g id="patch_181">
    <path clip-path="url(#p7d397ed098)" d="M 348.321608 273.312 
L 349.937266 273.312 
L 349.937266 196.707254 
L 348.321608 196.707254 
z
" style="fill:#1f77b4;"/>
   </g>
   <g id="patch_182">
    <path clip-path="url(#p7d397ed098)" d="M 349.937266 273.312 
L 351.552924 273.312 
L 351.552924 203.150644 
L 349.937266 203.150644 
z
" style="fill:#1f77b4;"/>
   </g>
   <g id="patch_183">
    <path clip-path="url(#p7d397ed098)" d="M 351.552924 273.312 
L 353.168583 273.312 
L 353.168583 207.446237 
L 351.552924 207.446237 
z
" style="fill:#1f77b4;"/>
   </g>
   <g id="patch_184">
    <path clip-path="url(#p7d397ed098)" d="M 353.168583 273.312 
L 354.784241 273.312 
L 354.784241 212.457763 
L 353.168583 212.457763 
z
" style="fill:#1f77b4;"/>
   </g>
   <g id="patch_185">
    <path clip-path="url(#p7d397ed098)" d="M 354.784241 273.312 
L 356.399899 273.312 
L 356.399899 213.173695 
L 354.784241 213.173695 
z
" style="fill:#1f77b4;"/>
   </g>
   <g id="patch_186">
    <path clip-path="url(#p7d397ed098)" d="M 356.399899 273.312 
L 358.015558 273.312 
L 358.015558 203.150644 
L 356.399899 203.150644 
z
" style="fill:#1f77b4;"/>
   </g>
   <g id="patch_187">
    <path clip-path="url(#p7d397ed098)" d="M 358.015558 273.312 
L 359.631216 273.312 
L 359.631216 205.298441 
L 358.015558 205.298441 
z
" style="fill:#1f77b4;"/>
   </g>
   <g id="patch_188">
    <path clip-path="url(#p7d397ed098)" d="M 359.631216 273.312 
L 361.246874 273.312 
L 361.246874 217.469288 
L 359.631216 217.469288 
z
" style="fill:#1f77b4;"/>
   </g>
   <g id="patch_189">
    <path clip-path="url(#p7d397ed098)" d="M 361.246874 273.312 
L 362.862533 273.312 
L 362.862533 221.764881 
L 361.246874 221.764881 
z
" style="fill:#1f77b4;"/>
   </g>
   <g id="patch_190">
    <path clip-path="url(#p7d397ed098)" d="M 362.862533 273.312 
L 364.478191 273.312 
L 364.478191 228.208271 
L 362.862533 228.208271 
z
" style="fill:#1f77b4;"/>
   </g>
   <g id="patch_191">
    <path clip-path="url(#p7d397ed098)" d="M 364.478191 273.312 
L 366.093849 273.312 
L 366.093849 228.924203 
L 364.478191 228.924203 
z
" style="fill:#1f77b4;"/>
   </g>
   <g id="patch_192">
    <path clip-path="url(#p7d397ed098)" d="M 366.093849 273.312 
L 367.709507 273.312 
L 367.709507 229.640136 
L 366.093849 229.640136 
z
" style="fill:#1f77b4;"/>
   </g>
   <g id="patch_193">
    <path clip-path="url(#p7d397ed098)" d="M 367.709507 273.312 
L 369.325166 273.312 
L 369.325166 232.503864 
L 367.709507 232.503864 
z
" style="fill:#1f77b4;"/>
   </g>
   <g id="patch_194">
    <path clip-path="url(#p7d397ed098)" d="M 369.325166 273.312 
L 370.940824 273.312 
L 370.940824 246.822508 
L 369.325166 246.822508 
z
" style="fill:#1f77b4;"/>
   </g>
   <g id="patch_195">
    <path clip-path="url(#p7d397ed098)" d="M 370.940824 273.312 
L 372.556482 273.312 
L 372.556482 244.674712 
L 370.940824 244.674712 
z
" style="fill:#1f77b4;"/>
   </g>
   <g id="patch_196">
    <path clip-path="url(#p7d397ed098)" d="M 372.556482 273.312 
L 374.172141 273.312 
L 374.172141 243.242847 
L 372.556482 243.242847 
z
" style="fill:#1f77b4;"/>
   </g>
   <g id="patch_197">
    <path clip-path="url(#p7d397ed098)" d="M 374.172141 273.312 
L 375.787799 273.312 
L 375.787799 243.95878 
L 374.172141 243.95878 
z
" style="fill:#1f77b4;"/>
   </g>
   <g id="patch_198">
    <path clip-path="url(#p7d397ed098)" d="M 375.787799 273.312 
L 377.403457 273.312 
L 377.403457 258.277424 
L 375.787799 258.277424 
z
" style="fill:#1f77b4;"/>
   </g>
   <g id="patch_199">
    <path clip-path="url(#p7d397ed098)" d="M 377.403457 273.312 
L 379.019116 273.312 
L 379.019116 265.436746 
L 377.403457 265.436746 
z
" style="fill:#1f77b4;"/>
   </g>
   <g id="patch_200">
    <path clip-path="url(#p7d397ed098)" d="M 379.019116 273.312 
L 380.634774 273.312 
L 380.634774 262.573017 
L 379.019116 262.573017 
z
" style="fill:#1f77b4;"/>
   </g>
   <g id="patch_201">
    <path clip-path="url(#p7d397ed098)" d="M 380.634774 273.312 
L 382.250432 273.312 
L 382.250432 272.596068 
L 380.634774 272.596068 
z
" style="fill:#1f77b4;"/>
   </g>
   <g id="patch_202">
    <path clip-path="url(#p7d397ed098)" d="M 382.250432 273.312 
L 383.86609 273.312 
L 383.86609 266.152678 
L 382.250432 266.152678 
z
" style="fill:#1f77b4;"/>
   </g>
   <g id="matplotlib.axis_1">
    <g id="xtick_1">
     <g id="line2d_1">
      <defs>
       <path d="M 0 0 
L 0 3.5 
" id="m5d71dc9789" style="stroke:#000000;stroke-width:0.8;"/>
      </defs>
      <g>
       <use style="stroke:#000000;stroke-width:0.8;" x="60.013977" xlink:href="#m5d71dc9789" y="273.312"/>
      </g>
     </g>
     <g id="text_1">
      <!-- 0.0 -->
      <g transform="translate(52.062415 287.910437)scale(0.1 -0.1)">
       <defs>
        <path d="M 2034 4250 
Q 1547 4250 1301 3770 
Q 1056 3291 1056 2328 
Q 1056 1369 1301 889 
Q 1547 409 2034 409 
Q 2525 409 2770 889 
Q 3016 1369 3016 2328 
Q 3016 3291 2770 3770 
Q 2525 4250 2034 4250 
z
M 2034 4750 
Q 2819 4750 3233 4129 
Q 3647 3509 3647 2328 
Q 3647 1150 3233 529 
Q 2819 -91 2034 -91 
Q 1250 -91 836 529 
Q 422 1150 422 2328 
Q 422 3509 836 4129 
Q 1250 4750 2034 4750 
z
" id="DejaVuSans-30" transform="scale(0.015625)"/>
        <path d="M 684 794 
L 1344 794 
L 1344 0 
L 684 0 
L 684 794 
z
" id="DejaVuSans-2e" transform="scale(0.015625)"/>
       </defs>
       <use xlink:href="#DejaVuSans-30"/>
       <use x="63.623047" xlink:href="#DejaVuSans-2e"/>
       <use x="95.410156" xlink:href="#DejaVuSans-30"/>
      </g>
     </g>
    </g>
    <g id="xtick_2">
     <g id="line2d_2">
      <g>
       <use style="stroke:#000000;stroke-width:0.8;" x="101.350278" xlink:href="#m5d71dc9789" y="273.312"/>
      </g>
     </g>
     <g id="text_2">
      <!-- 0.2 -->
      <g transform="translate(93.398715 287.910437)scale(0.1 -0.1)">
       <defs>
        <path d="M 1228 531 
L 3431 531 
L 3431 0 
L 469 0 
L 469 531 
Q 828 903 1448 1529 
Q 2069 2156 2228 2338 
Q 2531 2678 2651 2914 
Q 2772 3150 2772 3378 
Q 2772 3750 2511 3984 
Q 2250 4219 1831 4219 
Q 1534 4219 1204 4116 
Q 875 4013 500 3803 
L 500 4441 
Q 881 4594 1212 4672 
Q 1544 4750 1819 4750 
Q 2544 4750 2975 4387 
Q 3406 4025 3406 3419 
Q 3406 3131 3298 2873 
Q 3191 2616 2906 2266 
Q 2828 2175 2409 1742 
Q 1991 1309 1228 531 
z
" id="DejaVuSans-32" transform="scale(0.015625)"/>
       </defs>
       <use xlink:href="#DejaVuSans-30"/>
       <use x="63.623047" xlink:href="#DejaVuSans-2e"/>
       <use x="95.410156" xlink:href="#DejaVuSans-32"/>
      </g>
     </g>
    </g>
    <g id="xtick_3">
     <g id="line2d_3">
      <g>
       <use style="stroke:#000000;stroke-width:0.8;" x="142.686578" xlink:href="#m5d71dc9789" y="273.312"/>
      </g>
     </g>
     <g id="text_3">
      <!-- 0.4 -->
      <g transform="translate(134.735016 287.910437)scale(0.1 -0.1)">
       <defs>
        <path d="M 2419 4116 
L 825 1625 
L 2419 1625 
L 2419 4116 
z
M 2253 4666 
L 3047 4666 
L 3047 1625 
L 3713 1625 
L 3713 1100 
L 3047 1100 
L 3047 0 
L 2419 0 
L 2419 1100 
L 313 1100 
L 313 1709 
L 2253 4666 
z
" id="DejaVuSans-34" transform="scale(0.015625)"/>
       </defs>
       <use xlink:href="#DejaVuSans-30"/>
       <use x="63.623047" xlink:href="#DejaVuSans-2e"/>
       <use x="95.410156" xlink:href="#DejaVuSans-34"/>
      </g>
     </g>
    </g>
    <g id="xtick_4">
     <g id="line2d_4">
      <g>
       <use style="stroke:#000000;stroke-width:0.8;" x="184.022879" xlink:href="#m5d71dc9789" y="273.312"/>
      </g>
     </g>
     <g id="text_4">
      <!-- 0.6 -->
      <g transform="translate(176.071316 287.910437)scale(0.1 -0.1)">
       <defs>
        <path d="M 2113 2584 
Q 1688 2584 1439 2293 
Q 1191 2003 1191 1497 
Q 1191 994 1439 701 
Q 1688 409 2113 409 
Q 2538 409 2786 701 
Q 3034 994 3034 1497 
Q 3034 2003 2786 2293 
Q 2538 2584 2113 2584 
z
M 3366 4563 
L 3366 3988 
Q 3128 4100 2886 4159 
Q 2644 4219 2406 4219 
Q 1781 4219 1451 3797 
Q 1122 3375 1075 2522 
Q 1259 2794 1537 2939 
Q 1816 3084 2150 3084 
Q 2853 3084 3261 2657 
Q 3669 2231 3669 1497 
Q 3669 778 3244 343 
Q 2819 -91 2113 -91 
Q 1303 -91 875 529 
Q 447 1150 447 2328 
Q 447 3434 972 4092 
Q 1497 4750 2381 4750 
Q 2619 4750 2861 4703 
Q 3103 4656 3366 4563 
z
" id="DejaVuSans-36" transform="scale(0.015625)"/>
       </defs>
       <use xlink:href="#DejaVuSans-30"/>
       <use x="63.623047" xlink:href="#DejaVuSans-2e"/>
       <use x="95.410156" xlink:href="#DejaVuSans-36"/>
      </g>
     </g>
    </g>
    <g id="xtick_5">
     <g id="line2d_5">
      <g>
       <use style="stroke:#000000;stroke-width:0.8;" x="225.35918" xlink:href="#m5d71dc9789" y="273.312"/>
      </g>
     </g>
     <g id="text_5">
      <!-- 0.8 -->
      <g transform="translate(217.407617 287.910437)scale(0.1 -0.1)">
       <defs>
        <path d="M 2034 2216 
Q 1584 2216 1326 1975 
Q 1069 1734 1069 1313 
Q 1069 891 1326 650 
Q 1584 409 2034 409 
Q 2484 409 2743 651 
Q 3003 894 3003 1313 
Q 3003 1734 2745 1975 
Q 2488 2216 2034 2216 
z
M 1403 2484 
Q 997 2584 770 2862 
Q 544 3141 544 3541 
Q 544 4100 942 4425 
Q 1341 4750 2034 4750 
Q 2731 4750 3128 4425 
Q 3525 4100 3525 3541 
Q 3525 3141 3298 2862 
Q 3072 2584 2669 2484 
Q 3125 2378 3379 2068 
Q 3634 1759 3634 1313 
Q 3634 634 3220 271 
Q 2806 -91 2034 -91 
Q 1263 -91 848 271 
Q 434 634 434 1313 
Q 434 1759 690 2068 
Q 947 2378 1403 2484 
z
M 1172 3481 
Q 1172 3119 1398 2916 
Q 1625 2713 2034 2713 
Q 2441 2713 2670 2916 
Q 2900 3119 2900 3481 
Q 2900 3844 2670 4047 
Q 2441 4250 2034 4250 
Q 1625 4250 1398 4047 
Q 1172 3844 1172 3481 
z
" id="DejaVuSans-38" transform="scale(0.015625)"/>
       </defs>
       <use xlink:href="#DejaVuSans-30"/>
       <use x="63.623047" xlink:href="#DejaVuSans-2e"/>
       <use x="95.410156" xlink:href="#DejaVuSans-38"/>
      </g>
     </g>
    </g>
    <g id="xtick_6">
     <g id="line2d_6">
      <g>
       <use style="stroke:#000000;stroke-width:0.8;" x="266.69548" xlink:href="#m5d71dc9789" y="273.312"/>
      </g>
     </g>
     <g id="text_6">
      <!-- 1.0 -->
      <g transform="translate(258.743918 287.910437)scale(0.1 -0.1)">
       <defs>
        <path d="M 794 531 
L 1825 531 
L 1825 4091 
L 703 3866 
L 703 4441 
L 1819 4666 
L 2450 4666 
L 2450 531 
L 3481 531 
L 3481 0 
L 794 0 
L 794 531 
z
" id="DejaVuSans-31" transform="scale(0.015625)"/>
       </defs>
       <use xlink:href="#DejaVuSans-31"/>
       <use x="63.623047" xlink:href="#DejaVuSans-2e"/>
       <use x="95.410156" xlink:href="#DejaVuSans-30"/>
      </g>
     </g>
    </g>
    <g id="xtick_7">
     <g id="line2d_7">
      <g>
       <use style="stroke:#000000;stroke-width:0.8;" x="308.031781" xlink:href="#m5d71dc9789" y="273.312"/>
      </g>
     </g>
     <g id="text_7">
      <!-- 1.2 -->
      <g transform="translate(300.080218 287.910437)scale(0.1 -0.1)">
       <use xlink:href="#DejaVuSans-31"/>
       <use x="63.623047" xlink:href="#DejaVuSans-2e"/>
       <use x="95.410156" xlink:href="#DejaVuSans-32"/>
      </g>
     </g>
    </g>
    <g id="xtick_8">
     <g id="line2d_8">
      <g>
       <use style="stroke:#000000;stroke-width:0.8;" x="349.368081" xlink:href="#m5d71dc9789" y="273.312"/>
      </g>
     </g>
     <g id="text_8">
      <!-- 1.4 -->
      <g transform="translate(341.416519 287.910437)scale(0.1 -0.1)">
       <use xlink:href="#DejaVuSans-31"/>
       <use x="63.623047" xlink:href="#DejaVuSans-2e"/>
       <use x="95.410156" xlink:href="#DejaVuSans-34"/>
      </g>
     </g>
    </g>
    <g id="xtick_9">
     <g id="line2d_9">
      <g>
       <use style="stroke:#000000;stroke-width:0.8;" x="390.704382" xlink:href="#m5d71dc9789" y="273.312"/>
      </g>
     </g>
     <g id="text_9">
      <!-- 1.6 -->
      <g transform="translate(382.752819 287.910437)scale(0.1 -0.1)">
       <use xlink:href="#DejaVuSans-31"/>
       <use x="63.623047" xlink:href="#DejaVuSans-2e"/>
       <use x="95.410156" xlink:href="#DejaVuSans-36"/>
      </g>
     </g>
    </g>
    <g id="text_10">
     <!-- Angle with normal (rad) -->
     <g transform="translate(163.023281 301.588562)scale(0.1 -0.1)">
      <defs>
       <path d="M 2188 4044 
L 1331 1722 
L 3047 1722 
L 2188 4044 
z
M 1831 4666 
L 2547 4666 
L 4325 0 
L 3669 0 
L 3244 1197 
L 1141 1197 
L 716 0 
L 50 0 
L 1831 4666 
z
" id="DejaVuSans-41" transform="scale(0.015625)"/>
       <path d="M 3513 2113 
L 3513 0 
L 2938 0 
L 2938 2094 
Q 2938 2591 2744 2837 
Q 2550 3084 2163 3084 
Q 1697 3084 1428 2787 
Q 1159 2491 1159 1978 
L 1159 0 
L 581 0 
L 581 3500 
L 1159 3500 
L 1159 2956 
Q 1366 3272 1645 3428 
Q 1925 3584 2291 3584 
Q 2894 3584 3203 3211 
Q 3513 2838 3513 2113 
z
" id="DejaVuSans-6e" transform="scale(0.015625)"/>
       <path d="M 2906 1791 
Q 2906 2416 2648 2759 
Q 2391 3103 1925 3103 
Q 1463 3103 1205 2759 
Q 947 2416 947 1791 
Q 947 1169 1205 825 
Q 1463 481 1925 481 
Q 2391 481 2648 825 
Q 2906 1169 2906 1791 
z
M 3481 434 
Q 3481 -459 3084 -895 
Q 2688 -1331 1869 -1331 
Q 1566 -1331 1297 -1286 
Q 1028 -1241 775 -1147 
L 775 -588 
Q 1028 -725 1275 -790 
Q 1522 -856 1778 -856 
Q 2344 -856 2625 -561 
Q 2906 -266 2906 331 
L 2906 616 
Q 2728 306 2450 153 
Q 2172 0 1784 0 
Q 1141 0 747 490 
Q 353 981 353 1791 
Q 353 2603 747 3093 
Q 1141 3584 1784 3584 
Q 2172 3584 2450 3431 
Q 2728 3278 2906 2969 
L 2906 3500 
L 3481 3500 
L 3481 434 
z
" id="DejaVuSans-67" transform="scale(0.015625)"/>
       <path d="M 603 4863 
L 1178 4863 
L 1178 0 
L 603 0 
L 603 4863 
z
" id="DejaVuSans-6c" transform="scale(0.015625)"/>
       <path d="M 3597 1894 
L 3597 1613 
L 953 1613 
Q 991 1019 1311 708 
Q 1631 397 2203 397 
Q 2534 397 2845 478 
Q 3156 559 3463 722 
L 3463 178 
Q 3153 47 2828 -22 
Q 2503 -91 2169 -91 
Q 1331 -91 842 396 
Q 353 884 353 1716 
Q 353 2575 817 3079 
Q 1281 3584 2069 3584 
Q 2775 3584 3186 3129 
Q 3597 2675 3597 1894 
z
M 3022 2063 
Q 3016 2534 2758 2815 
Q 2500 3097 2075 3097 
Q 1594 3097 1305 2825 
Q 1016 2553 972 2059 
L 3022 2063 
z
" id="DejaVuSans-65" transform="scale(0.015625)"/>
       <path id="DejaVuSans-20" transform="scale(0.015625)"/>
       <path d="M 269 3500 
L 844 3500 
L 1563 769 
L 2278 3500 
L 2956 3500 
L 3675 769 
L 4391 3500 
L 4966 3500 
L 4050 0 
L 3372 0 
L 2619 2869 
L 1863 0 
L 1184 0 
L 269 3500 
z
" id="DejaVuSans-77" transform="scale(0.015625)"/>
       <path d="M 603 3500 
L 1178 3500 
L 1178 0 
L 603 0 
L 603 3500 
z
M 603 4863 
L 1178 4863 
L 1178 4134 
L 603 4134 
L 603 4863 
z
" id="DejaVuSans-69" transform="scale(0.015625)"/>
       <path d="M 1172 4494 
L 1172 3500 
L 2356 3500 
L 2356 3053 
L 1172 3053 
L 1172 1153 
Q 1172 725 1289 603 
Q 1406 481 1766 481 
L 2356 481 
L 2356 0 
L 1766 0 
Q 1100 0 847 248 
Q 594 497 594 1153 
L 594 3053 
L 172 3053 
L 172 3500 
L 594 3500 
L 594 4494 
L 1172 4494 
z
" id="DejaVuSans-74" transform="scale(0.015625)"/>
       <path d="M 3513 2113 
L 3513 0 
L 2938 0 
L 2938 2094 
Q 2938 2591 2744 2837 
Q 2550 3084 2163 3084 
Q 1697 3084 1428 2787 
Q 1159 2491 1159 1978 
L 1159 0 
L 581 0 
L 581 4863 
L 1159 4863 
L 1159 2956 
Q 1366 3272 1645 3428 
Q 1925 3584 2291 3584 
Q 2894 3584 3203 3211 
Q 3513 2838 3513 2113 
z
" id="DejaVuSans-68" transform="scale(0.015625)"/>
       <path d="M 1959 3097 
Q 1497 3097 1228 2736 
Q 959 2375 959 1747 
Q 959 1119 1226 758 
Q 1494 397 1959 397 
Q 2419 397 2687 759 
Q 2956 1122 2956 1747 
Q 2956 2369 2687 2733 
Q 2419 3097 1959 3097 
z
M 1959 3584 
Q 2709 3584 3137 3096 
Q 3566 2609 3566 1747 
Q 3566 888 3137 398 
Q 2709 -91 1959 -91 
Q 1206 -91 779 398 
Q 353 888 353 1747 
Q 353 2609 779 3096 
Q 1206 3584 1959 3584 
z
" id="DejaVuSans-6f" transform="scale(0.015625)"/>
       <path d="M 2631 2963 
Q 2534 3019 2420 3045 
Q 2306 3072 2169 3072 
Q 1681 3072 1420 2755 
Q 1159 2438 1159 1844 
L 1159 0 
L 581 0 
L 581 3500 
L 1159 3500 
L 1159 2956 
Q 1341 3275 1631 3429 
Q 1922 3584 2338 3584 
Q 2397 3584 2469 3576 
Q 2541 3569 2628 3553 
L 2631 2963 
z
" id="DejaVuSans-72" transform="scale(0.015625)"/>
       <path d="M 3328 2828 
Q 3544 3216 3844 3400 
Q 4144 3584 4550 3584 
Q 5097 3584 5394 3201 
Q 5691 2819 5691 2113 
L 5691 0 
L 5113 0 
L 5113 2094 
Q 5113 2597 4934 2840 
Q 4756 3084 4391 3084 
Q 3944 3084 3684 2787 
Q 3425 2491 3425 1978 
L 3425 0 
L 2847 0 
L 2847 2094 
Q 2847 2600 2669 2842 
Q 2491 3084 2119 3084 
Q 1678 3084 1418 2786 
Q 1159 2488 1159 1978 
L 1159 0 
L 581 0 
L 581 3500 
L 1159 3500 
L 1159 2956 
Q 1356 3278 1631 3431 
Q 1906 3584 2284 3584 
Q 2666 3584 2933 3390 
Q 3200 3197 3328 2828 
z
" id="DejaVuSans-6d" transform="scale(0.015625)"/>
       <path d="M 2194 1759 
Q 1497 1759 1228 1600 
Q 959 1441 959 1056 
Q 959 750 1161 570 
Q 1363 391 1709 391 
Q 2188 391 2477 730 
Q 2766 1069 2766 1631 
L 2766 1759 
L 2194 1759 
z
M 3341 1997 
L 3341 0 
L 2766 0 
L 2766 531 
Q 2569 213 2275 61 
Q 1981 -91 1556 -91 
Q 1019 -91 701 211 
Q 384 513 384 1019 
Q 384 1609 779 1909 
Q 1175 2209 1959 2209 
L 2766 2209 
L 2766 2266 
Q 2766 2663 2505 2880 
Q 2244 3097 1772 3097 
Q 1472 3097 1187 3025 
Q 903 2953 641 2809 
L 641 3341 
Q 956 3463 1253 3523 
Q 1550 3584 1831 3584 
Q 2591 3584 2966 3190 
Q 3341 2797 3341 1997 
z
" id="DejaVuSans-61" transform="scale(0.015625)"/>
       <path d="M 1984 4856 
Q 1566 4138 1362 3434 
Q 1159 2731 1159 2009 
Q 1159 1288 1364 580 
Q 1569 -128 1984 -844 
L 1484 -844 
Q 1016 -109 783 600 
Q 550 1309 550 2009 
Q 550 2706 781 3412 
Q 1013 4119 1484 4856 
L 1984 4856 
z
" id="DejaVuSans-28" transform="scale(0.015625)"/>
       <path d="M 2906 2969 
L 2906 4863 
L 3481 4863 
L 3481 0 
L 2906 0 
L 2906 525 
Q 2725 213 2448 61 
Q 2172 -91 1784 -91 
Q 1150 -91 751 415 
Q 353 922 353 1747 
Q 353 2572 751 3078 
Q 1150 3584 1784 3584 
Q 2172 3584 2448 3432 
Q 2725 3281 2906 2969 
z
M 947 1747 
Q 947 1113 1208 752 
Q 1469 391 1925 391 
Q 2381 391 2643 752 
Q 2906 1113 2906 1747 
Q 2906 2381 2643 2742 
Q 2381 3103 1925 3103 
Q 1469 3103 1208 2742 
Q 947 2381 947 1747 
z
" id="DejaVuSans-64" transform="scale(0.015625)"/>
       <path d="M 513 4856 
L 1013 4856 
Q 1481 4119 1714 3412 
Q 1947 2706 1947 2009 
Q 1947 1309 1714 600 
Q 1481 -109 1013 -844 
L 513 -844 
Q 928 -128 1133 580 
Q 1338 1288 1338 2009 
Q 1338 2731 1133 3434 
Q 928 4138 513 4856 
z
" id="DejaVuSans-29" transform="scale(0.015625)"/>
      </defs>
      <use xlink:href="#DejaVuSans-41"/>
      <use x="68.408203" xlink:href="#DejaVuSans-6e"/>
      <use x="131.787109" xlink:href="#DejaVuSans-67"/>
      <use x="195.263672" xlink:href="#DejaVuSans-6c"/>
      <use x="223.046875" xlink:href="#DejaVuSans-65"/>
      <use x="284.570312" xlink:href="#DejaVuSans-20"/>
      <use x="316.357422" xlink:href="#DejaVuSans-77"/>
      <use x="398.144531" xlink:href="#DejaVuSans-69"/>
      <use x="425.927734" xlink:href="#DejaVuSans-74"/>
      <use x="465.136719" xlink:href="#DejaVuSans-68"/>
      <use x="528.515625" xlink:href="#DejaVuSans-20"/>
      <use x="560.302734" xlink:href="#DejaVuSans-6e"/>
      <use x="623.681641" xlink:href="#DejaVuSans-6f"/>
      <use x="684.863281" xlink:href="#DejaVuSans-72"/>
      <use x="724.226562" xlink:href="#DejaVuSans-6d"/>
      <use x="821.638672" xlink:href="#DejaVuSans-61"/>
      <use x="882.917969" xlink:href="#DejaVuSans-6c"/>
      <use x="910.701172" xlink:href="#DejaVuSans-20"/>
      <use x="942.488281" xlink:href="#DejaVuSans-28"/>
      <use x="981.501953" xlink:href="#DejaVuSans-72"/>
      <use x="1022.615234" xlink:href="#DejaVuSans-61"/>
      <use x="1083.894531" xlink:href="#DejaVuSans-64"/>
      <use x="1147.371094" xlink:href="#DejaVuSans-29"/>
     </g>
    </g>
   </g>
   <g id="matplotlib.axis_2">
    <g id="ytick_1">
     <g id="line2d_10">
      <defs>
       <path d="M 0 0 
L -3.5 0 
" id="maf8ad0f9d6" style="stroke:#000000;stroke-width:0.8;"/>
      </defs>
      <g>
       <use style="stroke:#000000;stroke-width:0.8;" x="43.78125" xlink:href="#maf8ad0f9d6" y="273.312"/>
      </g>
     </g>
     <g id="text_11">
      <!-- 0.0 -->
      <g transform="translate(20.878125 277.111219)scale(0.1 -0.1)">
       <use xlink:href="#DejaVuSans-30"/>
       <use x="63.623047" xlink:href="#DejaVuSans-2e"/>
       <use x="95.410156" xlink:href="#DejaVuSans-30"/>
      </g>
     </g>
    </g>
    <g id="ytick_2">
     <g id="line2d_11">
      <g>
       <use style="stroke:#000000;stroke-width:0.8;" x="43.78125" xlink:href="#maf8ad0f9d6" y="228.53966"/>
      </g>
     </g>
     <g id="text_12">
      <!-- 0.2 -->
      <g transform="translate(20.878125 232.338879)scale(0.1 -0.1)">
       <use xlink:href="#DejaVuSans-30"/>
       <use x="63.623047" xlink:href="#DejaVuSans-2e"/>
       <use x="95.410156" xlink:href="#DejaVuSans-32"/>
      </g>
     </g>
    </g>
    <g id="ytick_3">
     <g id="line2d_12">
      <g>
       <use style="stroke:#000000;stroke-width:0.8;" x="43.78125" xlink:href="#maf8ad0f9d6" y="183.76732"/>
      </g>
     </g>
     <g id="text_13">
      <!-- 0.4 -->
      <g transform="translate(20.878125 187.566539)scale(0.1 -0.1)">
       <use xlink:href="#DejaVuSans-30"/>
       <use x="63.623047" xlink:href="#DejaVuSans-2e"/>
       <use x="95.410156" xlink:href="#DejaVuSans-34"/>
      </g>
     </g>
    </g>
    <g id="ytick_4">
     <g id="line2d_13">
      <g>
       <use style="stroke:#000000;stroke-width:0.8;" x="43.78125" xlink:href="#maf8ad0f9d6" y="138.994981"/>
      </g>
     </g>
     <g id="text_14">
      <!-- 0.6 -->
      <g transform="translate(20.878125 142.794199)scale(0.1 -0.1)">
       <use xlink:href="#DejaVuSans-30"/>
       <use x="63.623047" xlink:href="#DejaVuSans-2e"/>
       <use x="95.410156" xlink:href="#DejaVuSans-36"/>
      </g>
     </g>
    </g>
    <g id="ytick_5">
     <g id="line2d_14">
      <g>
       <use style="stroke:#000000;stroke-width:0.8;" x="43.78125" xlink:href="#maf8ad0f9d6" y="94.222641"/>
      </g>
     </g>
     <g id="text_15">
      <!-- 0.8 -->
      <g transform="translate(20.878125 98.02186)scale(0.1 -0.1)">
       <use xlink:href="#DejaVuSans-30"/>
       <use x="63.623047" xlink:href="#DejaVuSans-2e"/>
       <use x="95.410156" xlink:href="#DejaVuSans-38"/>
      </g>
     </g>
    </g>
    <g id="ytick_6">
     <g id="line2d_15">
      <g>
       <use style="stroke:#000000;stroke-width:0.8;" x="43.78125" xlink:href="#maf8ad0f9d6" y="49.450301"/>
      </g>
     </g>
     <g id="text_16">
      <!-- 1.0 -->
      <g transform="translate(20.878125 53.24952)scale(0.1 -0.1)">
       <use xlink:href="#DejaVuSans-31"/>
       <use x="63.623047" xlink:href="#DejaVuSans-2e"/>
       <use x="95.410156" xlink:href="#DejaVuSans-30"/>
      </g>
     </g>
    </g>
    <g id="text_17">
     <!-- Probability density -->
     <g transform="translate(14.798438 186.606781)rotate(-90)scale(0.1 -0.1)">
      <defs>
       <path d="M 1259 4147 
L 1259 2394 
L 2053 2394 
Q 2494 2394 2734 2622 
Q 2975 2850 2975 3272 
Q 2975 3691 2734 3919 
Q 2494 4147 2053 4147 
L 1259 4147 
z
M 628 4666 
L 2053 4666 
Q 2838 4666 3239 4311 
Q 3641 3956 3641 3272 
Q 3641 2581 3239 2228 
Q 2838 1875 2053 1875 
L 1259 1875 
L 1259 0 
L 628 0 
L 628 4666 
z
" id="DejaVuSans-50" transform="scale(0.015625)"/>
       <path d="M 3116 1747 
Q 3116 2381 2855 2742 
Q 2594 3103 2138 3103 
Q 1681 3103 1420 2742 
Q 1159 2381 1159 1747 
Q 1159 1113 1420 752 
Q 1681 391 2138 391 
Q 2594 391 2855 752 
Q 3116 1113 3116 1747 
z
M 1159 2969 
Q 1341 3281 1617 3432 
Q 1894 3584 2278 3584 
Q 2916 3584 3314 3078 
Q 3713 2572 3713 1747 
Q 3713 922 3314 415 
Q 2916 -91 2278 -91 
Q 1894 -91 1617 61 
Q 1341 213 1159 525 
L 1159 0 
L 581 0 
L 581 4863 
L 1159 4863 
L 1159 2969 
z
" id="DejaVuSans-62" transform="scale(0.015625)"/>
       <path d="M 2059 -325 
Q 1816 -950 1584 -1140 
Q 1353 -1331 966 -1331 
L 506 -1331 
L 506 -850 
L 844 -850 
Q 1081 -850 1212 -737 
Q 1344 -625 1503 -206 
L 1606 56 
L 191 3500 
L 800 3500 
L 1894 763 
L 2988 3500 
L 3597 3500 
L 2059 -325 
z
" id="DejaVuSans-79" transform="scale(0.015625)"/>
       <path d="M 2834 3397 
L 2834 2853 
Q 2591 2978 2328 3040 
Q 2066 3103 1784 3103 
Q 1356 3103 1142 2972 
Q 928 2841 928 2578 
Q 928 2378 1081 2264 
Q 1234 2150 1697 2047 
L 1894 2003 
Q 2506 1872 2764 1633 
Q 3022 1394 3022 966 
Q 3022 478 2636 193 
Q 2250 -91 1575 -91 
Q 1294 -91 989 -36 
Q 684 19 347 128 
L 347 722 
Q 666 556 975 473 
Q 1284 391 1588 391 
Q 1994 391 2212 530 
Q 2431 669 2431 922 
Q 2431 1156 2273 1281 
Q 2116 1406 1581 1522 
L 1381 1569 
Q 847 1681 609 1914 
Q 372 2147 372 2553 
Q 372 3047 722 3315 
Q 1072 3584 1716 3584 
Q 2034 3584 2315 3537 
Q 2597 3491 2834 3397 
z
" id="DejaVuSans-73" transform="scale(0.015625)"/>
      </defs>
      <use xlink:href="#DejaVuSans-50"/>
      <use x="58.552734" xlink:href="#DejaVuSans-72"/>
      <use x="97.416016" xlink:href="#DejaVuSans-6f"/>
      <use x="158.597656" xlink:href="#DejaVuSans-62"/>
      <use x="222.074219" xlink:href="#DejaVuSans-61"/>
      <use x="283.353516" xlink:href="#DejaVuSans-62"/>
      <use x="346.830078" xlink:href="#DejaVuSans-69"/>
      <use x="374.613281" xlink:href="#DejaVuSans-6c"/>
      <use x="402.396484" xlink:href="#DejaVuSans-69"/>
      <use x="430.179688" xlink:href="#DejaVuSans-74"/>
      <use x="469.388672" xlink:href="#DejaVuSans-79"/>
      <use x="528.568359" xlink:href="#DejaVuSans-20"/>
      <use x="560.355469" xlink:href="#DejaVuSans-64"/>
      <use x="623.832031" xlink:href="#DejaVuSans-65"/>
      <use x="685.355469" xlink:href="#DejaVuSans-6e"/>
      <use x="748.734375" xlink:href="#DejaVuSans-73"/>
      <use x="800.833984" xlink:href="#DejaVuSans-69"/>
      <use x="828.617188" xlink:href="#DejaVuSans-74"/>
      <use x="867.826172" xlink:href="#DejaVuSans-79"/>
     </g>
    </g>
   </g>
   <g id="line2d_16">
    <path clip-path="url(#p7d397ed098)" d="M 60.013977 273.312 
L 79.837728 230.631727 
L 90.237073 208.770615 
L 99.01152 190.824472 
L 106.811029 175.367356 
L 113.960578 161.686124 
L 120.460169 149.710424 
L 126.63478 138.785528 
L 132.484411 128.877901 
L 138.009063 119.945001 
L 143.208736 111.93744 
L 148.408408 104.33834 
L 153.283101 97.602272 
L 158.157794 91.257103 
L 162.707507 85.700092 
L 167.257221 80.506673 
L 171.481954 76.018585 
L 175.706688 71.860189 
L 179.606442 68.320314 
L 183.506197 65.072326 
L 187.405951 62.120851 
L 190.980726 59.679408 
L 194.555501 57.493574 
L 198.130275 55.565967 
L 201.70505 53.898891 
L 205.279825 52.494342 
L 208.52962 51.446712 
L 211.779415 50.618474 
L 215.029211 50.010449 
L 218.279006 49.623236 
L 221.528801 49.457219 
L 224.778596 49.512563 
L 228.028392 49.789212 
L 231.278187 50.286892 
L 234.527982 51.005113 
L 237.777777 51.943162 
L 241.027573 53.100114 
L 244.277368 54.474823 
L 247.852143 56.236885 
L 251.426917 58.258676 
L 255.001692 60.537778 
L 258.576467 63.071462 
L 262.476221 66.122263 
L 266.375976 69.468081 
L 270.27573 73.104152 
L 274.500464 77.364758 
L 278.725198 81.952805 
L 282.949931 86.860628 
L 287.499645 92.494175 
L 292.049358 98.478147 
L 296.924051 105.265222 
L 301.798744 112.426151 
L 306.998416 120.458579 
L 312.523068 129.416474 
L 318.3727 139.348887 
L 324.547311 150.297987 
L 331.046901 162.296897 
L 337.871471 175.367356 
L 345.346 190.170429 
L 353.795468 207.423714 
L 363.544854 227.870884 
L 375.894076 254.327202 
L 384.668523 273.312 
L 384.668523 273.312 
" style="fill:none;stroke:#ff7f0e;stroke-linecap:square;stroke-width:1.5;"/>
   </g>
   <g id="patch_203">
    <path d="M 43.78125 273.312 
L 43.78125 7.2 
" style="fill:none;stroke:#000000;stroke-linecap:square;stroke-linejoin:miter;stroke-width:0.8;"/>
   </g>
   <g id="patch_204">
    <path d="M 400.90125 273.312 
L 400.90125 7.2 
" style="fill:none;stroke:#000000;stroke-linecap:square;stroke-linejoin:miter;stroke-width:0.8;"/>
   </g>
   <g id="patch_205">
    <path d="M 43.78125 273.312 
L 400.90125 273.312 
" style="fill:none;stroke:#000000;stroke-linecap:square;stroke-linejoin:miter;stroke-width:0.8;"/>
   </g>
   <g id="patch_206">
    <path d="M 43.78125 7.2 
L 400.90125 7.2 
" style="fill:none;stroke:#000000;stroke-linecap:square;stroke-linejoin:miter;stroke-width:0.8;"/>
   </g>
  </g>
 </g>
 <defs>
  <clipPath id="p7d397ed098">
   <rect height="266.112" width="357.12" x="43.78125" y="7.2"/>
  </clipPath>
 </defs>
</svg>
