<?xml version="1.0" encoding="utf-8" standalone="no"?>
<!DOCTYPE svg PUBLIC "-//W3C//DTD SVG 1.1//EN"
  "http://www.w3.org/Graphics/SVG/1.1/DTD/svg11.dtd">
<svg height="310.86825pt" version="1.1" viewBox="0 0 414.46375 310.86825" width="414.46375pt" xmlns="http://www.w3.org/2000/svg" xmlns:xlink="http://www.w3.org/1999/xlink">
 <metadata>
  <rdf:RDF xmlns:cc="http://creativecommons.org/ns#" xmlns:dc="http://purl.org/dc/elements/1.1/" xmlns:rdf="http://www.w3.org/1999/02/22-rdf-syntax-ns#">
   <cc:Work>
    <dc:type rdf:resource="http://purl.org/dc/dcmitype/StillImage"/>
    <dc:date>2021-06-22T13:21:23.183221</dc:date>
    <dc:format>image/svg+xml</dc:format>
    <dc:creator>
     <cc:Agent>
      <dc:title>Matplotlib v3.4.2, https://matplotlib.org/</dc:title>
     </cc:Agent>
    </dc:creator>
   </cc:Work>
  </rdf:RDF>
 </metadata>
 <defs>
  <style type="text/css">*{stroke-linecap:butt;stroke-linejoin:round;}</style>
 </defs>
 <g id="figure_1">
  <g id="patch_1">
   <path d="M 0 310.86825 
L 414.46375 310.86825 
L 414.46375 0 
L 0 0 
z
" style="fill:#ffffff;"/>
  </g>
  <g id="axes_1">
   <g id="patch_2">
    <path d="M 50.14375 273.312 
L 407.26375 273.312 
L 407.26375 7.2 
L 50.14375 7.2 
z
" style="fill:#ffffff;"/>
   </g>
   <g id="patch_3">
    <path clip-path="url(#pe29429658f)" d="M 67.122931 273.312 
L 68.742469 273.312 
L 68.742469 272.71707 
L 67.122931 272.71707 
z
" style="fill:#1f77b4;"/>
   </g>
   <g id="patch_4">
    <path clip-path="url(#pe29429658f)" d="M 68.742469 273.312 
L 70.362006 273.312 
L 70.362006 272.122141 
L 68.742469 272.122141 
z
" style="fill:#1f77b4;"/>
   </g>
   <g id="patch_5">
    <path clip-path="url(#pe29429658f)" d="M 70.362006 273.312 
L 71.981544 273.312 
L 71.981544 270.337352 
L 70.362006 270.337352 
z
" style="fill:#1f77b4;"/>
   </g>
   <g id="patch_6">
    <path clip-path="url(#pe29429658f)" d="M 71.981544 273.312 
L 73.601081 273.312 
L 73.601081 270.337352 
L 71.981544 270.337352 
z
" style="fill:#1f77b4;"/>
   </g>
   <g id="patch_7">
    <path clip-path="url(#pe29429658f)" d="M 73.601081 273.312 
L 75.220618 273.312 
L 75.220618 267.362704 
L 73.601081 267.362704 
z
" style="fill:#1f77b4;"/>
   </g>
   <g id="patch_8">
    <path clip-path="url(#pe29429658f)" d="M 75.220618 273.312 
L 76.840156 273.312 
L 76.840156 264.982986 
L 75.220618 264.982986 
z
" style="fill:#1f77b4;"/>
   </g>
   <g id="patch_9">
    <path clip-path="url(#pe29429658f)" d="M 76.840156 273.312 
L 78.459693 273.312 
L 78.459693 262.603268 
L 76.840156 262.603268 
z
" style="fill:#1f77b4;"/>
   </g>
   <g id="patch_10">
    <path clip-path="url(#pe29429658f)" d="M 78.459693 273.312 
L 80.07923 273.312 
L 80.07923 266.172845 
L 78.459693 266.172845 
z
" style="fill:#1f77b4;"/>
   </g>
   <g id="patch_11">
    <path clip-path="url(#pe29429658f)" d="M 80.07923 273.312 
L 81.698768 273.312 
L 81.698768 262.603268 
L 80.07923 262.603268 
z
" style="fill:#1f77b4;"/>
   </g>
   <g id="patch_12">
    <path clip-path="url(#pe29429658f)" d="M 81.698768 273.312 
L 83.318305 273.312 
L 83.318305 261.413408 
L 81.698768 261.413408 
z
" style="fill:#1f77b4;"/>
   </g>
   <g id="patch_13">
    <path clip-path="url(#pe29429658f)" d="M 83.318305 273.312 
L 84.937843 273.312 
L 84.937843 262.603268 
L 83.318305 262.603268 
z
" style="fill:#1f77b4;"/>
   </g>
   <g id="patch_14">
    <path clip-path="url(#pe29429658f)" d="M 84.937843 273.312 
L 86.55738 273.312 
L 86.55738 261.413408 
L 84.937843 261.413408 
z
" style="fill:#1f77b4;"/>
   </g>
   <g id="patch_15">
    <path clip-path="url(#pe29429658f)" d="M 86.55738 273.312 
L 88.176917 273.312 
L 88.176917 256.653972 
L 86.55738 256.653972 
z
" style="fill:#1f77b4;"/>
   </g>
   <g id="patch_16">
    <path clip-path="url(#pe29429658f)" d="M 88.176917 273.312 
L 89.796455 273.312 
L 89.796455 257.248901 
L 88.176917 257.248901 
z
" style="fill:#1f77b4;"/>
   </g>
   <g id="patch_17">
    <path clip-path="url(#pe29429658f)" d="M 89.796455 273.312 
L 91.415992 273.312 
L 91.415992 257.843831 
L 89.796455 257.843831 
z
" style="fill:#1f77b4;"/>
   </g>
   <g id="patch_18">
    <path clip-path="url(#pe29429658f)" d="M 91.415992 273.312 
L 93.03553 273.312 
L 93.03553 258.438761 
L 91.415992 258.438761 
z
" style="fill:#1f77b4;"/>
   </g>
   <g id="patch_19">
    <path clip-path="url(#pe29429658f)" d="M 93.03553 273.312 
L 94.655067 273.312 
L 94.655067 248.919887 
L 93.03553 248.919887 
z
" style="fill:#1f77b4;"/>
   </g>
   <g id="patch_20">
    <path clip-path="url(#pe29429658f)" d="M 94.655067 273.312 
L 96.274604 273.312 
L 96.274604 255.464113 
L 94.655067 255.464113 
z
" style="fill:#1f77b4;"/>
   </g>
   <g id="patch_21">
    <path clip-path="url(#pe29429658f)" d="M 96.274604 273.312 
L 97.894142 273.312 
L 97.894142 247.135099 
L 96.274604 247.135099 
z
" style="fill:#1f77b4;"/>
   </g>
   <g id="patch_22">
    <path clip-path="url(#pe29429658f)" d="M 97.894142 273.312 
L 99.513679 273.312 
L 99.513679 249.514817 
L 97.894142 249.514817 
z
" style="fill:#1f77b4;"/>
   </g>
   <g id="patch_23">
    <path clip-path="url(#pe29429658f)" d="M 99.513679 273.312 
L 101.133217 273.312 
L 101.133217 241.780732 
L 99.513679 241.780732 
z
" style="fill:#1f77b4;"/>
   </g>
   <g id="patch_24">
    <path clip-path="url(#pe29429658f)" d="M 101.133217 273.312 
L 102.752754 273.312 
L 102.752754 250.109746 
L 101.133217 250.109746 
z
" style="fill:#1f77b4;"/>
   </g>
   <g id="patch_25">
    <path clip-path="url(#pe29429658f)" d="M 102.752754 273.312 
L 104.372291 273.312 
L 104.372291 245.35031 
L 102.752754 245.35031 
z
" style="fill:#1f77b4;"/>
   </g>
   <g id="patch_26">
    <path clip-path="url(#pe29429658f)" d="M 104.372291 273.312 
L 105.991829 273.312 
L 105.991829 241.185803 
L 104.372291 241.185803 
z
" style="fill:#1f77b4;"/>
   </g>
   <g id="patch_27">
    <path clip-path="url(#pe29429658f)" d="M 105.991829 273.312 
L 107.611366 273.312 
L 107.611366 240.590873 
L 105.991829 240.590873 
z
" style="fill:#1f77b4;"/>
   </g>
   <g id="patch_28">
    <path clip-path="url(#pe29429658f)" d="M 107.611366 273.312 
L 109.230904 273.312 
L 109.230904 239.995944 
L 107.611366 239.995944 
z
" style="fill:#1f77b4;"/>
   </g>
   <g id="patch_29">
    <path clip-path="url(#pe29429658f)" d="M 109.230904 273.312 
L 110.850441 273.312 
L 110.850441 247.730028 
L 109.230904 247.730028 
z
" style="fill:#1f77b4;"/>
   </g>
   <g id="patch_30">
    <path clip-path="url(#pe29429658f)" d="M 110.850441 273.312 
L 112.469978 273.312 
L 112.469978 239.995944 
L 110.850441 239.995944 
z
" style="fill:#1f77b4;"/>
   </g>
   <g id="patch_31">
    <path clip-path="url(#pe29429658f)" d="M 112.469978 273.312 
L 114.089516 273.312 
L 114.089516 231.072 
L 112.469978 231.072 
z
" style="fill:#1f77b4;"/>
   </g>
   <g id="patch_32">
    <path clip-path="url(#pe29429658f)" d="M 114.089516 273.312 
L 115.709053 273.312 
L 115.709053 232.261859 
L 114.089516 232.261859 
z
" style="fill:#1f77b4;"/>
   </g>
   <g id="patch_33">
    <path clip-path="url(#pe29429658f)" d="M 115.709053 273.312 
L 117.328591 273.312 
L 117.328591 239.995944 
L 115.709053 239.995944 
z
" style="fill:#1f77b4;"/>
   </g>
   <g id="patch_34">
    <path clip-path="url(#pe29429658f)" d="M 117.328591 273.312 
L 118.948128 273.312 
L 118.948128 235.831437 
L 117.328591 235.831437 
z
" style="fill:#1f77b4;"/>
   </g>
   <g id="patch_35">
    <path clip-path="url(#pe29429658f)" d="M 118.948128 273.312 
L 120.567665 273.312 
L 120.567665 234.641577 
L 118.948128 234.641577 
z
" style="fill:#1f77b4;"/>
   </g>
   <g id="patch_36">
    <path clip-path="url(#pe29429658f)" d="M 120.567665 273.312 
L 122.187203 273.312 
L 122.187203 222.742986 
L 120.567665 222.742986 
z
" style="fill:#1f77b4;"/>
   </g>
   <g id="patch_37">
    <path clip-path="url(#pe29429658f)" d="M 122.187203 273.312 
L 123.80674 273.312 
L 123.80674 228.097352 
L 122.187203 228.097352 
z
" style="fill:#1f77b4;"/>
   </g>
   <g id="patch_38">
    <path clip-path="url(#pe29429658f)" d="M 123.80674 273.312 
L 125.426278 273.312 
L 125.426278 227.502423 
L 123.80674 227.502423 
z
" style="fill:#1f77b4;"/>
   </g>
   <g id="patch_39">
    <path clip-path="url(#pe29429658f)" d="M 125.426278 273.312 
L 127.045815 273.312 
L 127.045815 225.122704 
L 125.426278 225.122704 
z
" style="fill:#1f77b4;"/>
   </g>
   <g id="patch_40">
    <path clip-path="url(#pe29429658f)" d="M 127.045815 273.312 
L 128.665352 273.312 
L 128.665352 229.287211 
L 127.045815 229.287211 
z
" style="fill:#1f77b4;"/>
   </g>
   <g id="patch_41">
    <path clip-path="url(#pe29429658f)" d="M 128.665352 273.312 
L 130.28489 273.312 
L 130.28489 223.932845 
L 128.665352 223.932845 
z
" style="fill:#1f77b4;"/>
   </g>
   <g id="patch_42">
    <path clip-path="url(#pe29429658f)" d="M 130.28489 273.312 
L 131.904427 273.312 
L 131.904427 225.122704 
L 130.28489 225.122704 
z
" style="fill:#1f77b4;"/>
   </g>
   <g id="patch_43">
    <path clip-path="url(#pe29429658f)" d="M 131.904427 273.312 
L 133.523965 273.312 
L 133.523965 229.882141 
L 131.904427 229.882141 
z
" style="fill:#1f77b4;"/>
   </g>
   <g id="patch_44">
    <path clip-path="url(#pe29429658f)" d="M 133.523965 273.312 
L 135.143502 273.312 
L 135.143502 223.337915 
L 133.523965 223.337915 
z
" style="fill:#1f77b4;"/>
   </g>
   <g id="patch_45">
    <path clip-path="url(#pe29429658f)" d="M 135.143502 273.312 
L 136.763039 273.312 
L 136.763039 222.742986 
L 135.143502 222.742986 
z
" style="fill:#1f77b4;"/>
   </g>
   <g id="patch_46">
    <path clip-path="url(#pe29429658f)" d="M 136.763039 273.312 
L 138.382577 273.312 
L 138.382577 216.198761 
L 136.763039 216.198761 
z
" style="fill:#1f77b4;"/>
   </g>
   <g id="patch_47">
    <path clip-path="url(#pe29429658f)" d="M 138.382577 273.312 
L 140.002114 273.312 
L 140.002114 225.717634 
L 138.382577 225.717634 
z
" style="fill:#1f77b4;"/>
   </g>
   <g id="patch_48">
    <path clip-path="url(#pe29429658f)" d="M 140.002114 273.312 
L 141.621652 273.312 
L 141.621652 218.578479 
L 140.002114 218.578479 
z
" style="fill:#1f77b4;"/>
   </g>
   <g id="patch_49">
    <path clip-path="url(#pe29429658f)" d="M 141.621652 273.312 
L 143.241189 273.312 
L 143.241189 218.578479 
L 141.621652 218.578479 
z
" style="fill:#1f77b4;"/>
   </g>
   <g id="patch_50">
    <path clip-path="url(#pe29429658f)" d="M 143.241189 273.312 
L 144.860726 273.312 
L 144.860726 216.79369 
L 143.241189 216.79369 
z
" style="fill:#1f77b4;"/>
   </g>
   <g id="patch_51">
    <path clip-path="url(#pe29429658f)" d="M 144.860726 273.312 
L 146.480264 273.312 
L 146.480264 209.059606 
L 144.860726 209.059606 
z
" style="fill:#1f77b4;"/>
   </g>
   <g id="patch_52">
    <path clip-path="url(#pe29429658f)" d="M 146.480264 273.312 
L 148.099801 273.312 
L 148.099801 226.312563 
L 146.480264 226.312563 
z
" style="fill:#1f77b4;"/>
   </g>
   <g id="patch_53">
    <path clip-path="url(#pe29429658f)" d="M 148.099801 273.312 
L 149.719339 273.312 
L 149.719339 213.224113 
L 148.099801 213.224113 
z
" style="fill:#1f77b4;"/>
   </g>
   <g id="patch_54">
    <path clip-path="url(#pe29429658f)" d="M 149.719339 273.312 
L 151.338876 273.312 
L 151.338876 217.983549 
L 149.719339 217.983549 
z
" style="fill:#1f77b4;"/>
   </g>
   <g id="patch_55">
    <path clip-path="url(#pe29429658f)" d="M 151.338876 273.312 
L 152.958413 273.312 
L 152.958413 203.11031 
L 151.338876 203.11031 
z
" style="fill:#1f77b4;"/>
   </g>
   <g id="patch_56">
    <path clip-path="url(#pe29429658f)" d="M 152.958413 273.312 
L 154.577951 273.312 
L 154.577951 219.768338 
L 152.958413 219.768338 
z
" style="fill:#1f77b4;"/>
   </g>
   <g id="patch_57">
    <path clip-path="url(#pe29429658f)" d="M 154.577951 273.312 
L 156.197488 273.312 
L 156.197488 208.464676 
L 154.577951 208.464676 
z
" style="fill:#1f77b4;"/>
   </g>
   <g id="patch_58">
    <path clip-path="url(#pe29429658f)" d="M 156.197488 273.312 
L 157.817026 273.312 
L 157.817026 193.591437 
L 156.197488 193.591437 
z
" style="fill:#1f77b4;"/>
   </g>
   <g id="patch_59">
    <path clip-path="url(#pe29429658f)" d="M 157.817026 273.312 
L 159.436563 273.312 
L 159.436563 200.730592 
L 157.817026 200.730592 
z
" style="fill:#1f77b4;"/>
   </g>
   <g id="patch_60">
    <path clip-path="url(#pe29429658f)" d="M 159.436563 273.312 
L 161.0561 273.312 
L 161.0561 206.679887 
L 159.436563 206.679887 
z
" style="fill:#1f77b4;"/>
   </g>
   <g id="patch_61">
    <path clip-path="url(#pe29429658f)" d="M 161.0561 273.312 
L 162.675638 273.312 
L 162.675638 206.084958 
L 161.0561 206.084958 
z
" style="fill:#1f77b4;"/>
   </g>
   <g id="patch_62">
    <path clip-path="url(#pe29429658f)" d="M 162.675638 273.312 
L 164.295175 273.312 
L 164.295175 204.895099 
L 162.675638 204.895099 
z
" style="fill:#1f77b4;"/>
   </g>
   <g id="patch_63">
    <path clip-path="url(#pe29429658f)" d="M 164.295175 273.312 
L 165.914713 273.312 
L 165.914713 201.325521 
L 164.295175 201.325521 
z
" style="fill:#1f77b4;"/>
   </g>
   <g id="patch_64">
    <path clip-path="url(#pe29429658f)" d="M 165.914713 273.312 
L 167.53425 273.312 
L 167.53425 198.945803 
L 165.914713 198.945803 
z
" style="fill:#1f77b4;"/>
   </g>
   <g id="patch_65">
    <path clip-path="url(#pe29429658f)" d="M 167.53425 273.312 
L 169.153787 273.312 
L 169.153787 197.161014 
L 167.53425 197.161014 
z
" style="fill:#1f77b4;"/>
   </g>
   <g id="patch_66">
    <path clip-path="url(#pe29429658f)" d="M 169.153787 273.312 
L 170.773325 273.312 
L 170.773325 193.591437 
L 169.153787 193.591437 
z
" style="fill:#1f77b4;"/>
   </g>
   <g id="patch_67">
    <path clip-path="url(#pe29429658f)" d="M 170.773325 273.312 
L 172.392862 273.312 
L 172.392862 194.186366 
L 170.773325 194.186366 
z
" style="fill:#1f77b4;"/>
   </g>
   <g id="patch_68">
    <path clip-path="url(#pe29429658f)" d="M 172.392862 273.312 
L 174.012399 273.312 
L 174.012399 208.464676 
L 172.392862 208.464676 
z
" style="fill:#1f77b4;"/>
   </g>
   <g id="patch_69">
    <path clip-path="url(#pe29429658f)" d="M 174.012399 273.312 
L 175.631937 273.312 
L 175.631937 192.996507 
L 174.012399 192.996507 
z
" style="fill:#1f77b4;"/>
   </g>
   <g id="patch_70">
    <path clip-path="url(#pe29429658f)" d="M 175.631937 273.312 
L 177.251474 273.312 
L 177.251474 194.186366 
L 175.631937 194.186366 
z
" style="fill:#1f77b4;"/>
   </g>
   <g id="patch_71">
    <path clip-path="url(#pe29429658f)" d="M 177.251474 273.312 
L 178.871012 273.312 
L 178.871012 192.996507 
L 177.251474 192.996507 
z
" style="fill:#1f77b4;"/>
   </g>
   <g id="patch_72">
    <path clip-path="url(#pe29429658f)" d="M 178.871012 273.312 
L 180.490549 273.312 
L 180.490549 192.401577 
L 178.871012 192.401577 
z
" style="fill:#1f77b4;"/>
   </g>
   <g id="patch_73">
    <path clip-path="url(#pe29429658f)" d="M 180.490549 273.312 
L 182.110086 273.312 
L 182.110086 194.186366 
L 180.490549 194.186366 
z
" style="fill:#1f77b4;"/>
   </g>
   <g id="patch_74">
    <path clip-path="url(#pe29429658f)" d="M 182.110086 273.312 
L 183.729624 273.312 
L 183.729624 189.42693 
L 182.110086 189.42693 
z
" style="fill:#1f77b4;"/>
   </g>
   <g id="patch_75">
    <path clip-path="url(#pe29429658f)" d="M 183.729624 273.312 
L 185.349161 273.312 
L 185.349161 182.882704 
L 183.729624 182.882704 
z
" style="fill:#1f77b4;"/>
   </g>
   <g id="patch_76">
    <path clip-path="url(#pe29429658f)" d="M 185.349161 273.312 
L 186.968699 273.312 
L 186.968699 192.996507 
L 185.349161 192.996507 
z
" style="fill:#1f77b4;"/>
   </g>
   <g id="patch_77">
    <path clip-path="url(#pe29429658f)" d="M 186.968699 273.312 
L 188.588236 273.312 
L 188.588236 183.477634 
L 186.968699 183.477634 
z
" style="fill:#1f77b4;"/>
   </g>
   <g id="patch_78">
    <path clip-path="url(#pe29429658f)" d="M 188.588236 273.312 
L 190.207773 273.312 
L 190.207773 182.287775 
L 188.588236 182.287775 
z
" style="fill:#1f77b4;"/>
   </g>
   <g id="patch_79">
    <path clip-path="url(#pe29429658f)" d="M 190.207773 273.312 
L 191.827311 273.312 
L 191.827311 170.389183 
L 190.207773 170.389183 
z
" style="fill:#1f77b4;"/>
   </g>
   <g id="patch_80">
    <path clip-path="url(#pe29429658f)" d="M 191.827311 273.312 
L 193.446848 273.312 
L 193.446848 195.376225 
L 191.827311 195.376225 
z
" style="fill:#1f77b4;"/>
   </g>
   <g id="patch_81">
    <path clip-path="url(#pe29429658f)" d="M 193.446848 273.312 
L 195.066386 273.312 
L 195.066386 180.502986 
L 193.446848 180.502986 
z
" style="fill:#1f77b4;"/>
   </g>
   <g id="patch_82">
    <path clip-path="url(#pe29429658f)" d="M 195.066386 273.312 
L 196.685923 273.312 
L 196.685923 173.958761 
L 195.066386 173.958761 
z
" style="fill:#1f77b4;"/>
   </g>
   <g id="patch_83">
    <path clip-path="url(#pe29429658f)" d="M 196.685923 273.312 
L 198.30546 273.312 
L 198.30546 183.477634 
L 196.685923 183.477634 
z
" style="fill:#1f77b4;"/>
   </g>
   <g id="patch_84">
    <path clip-path="url(#pe29429658f)" d="M 198.30546 273.312 
L 199.924998 273.312 
L 199.924998 168.009465 
L 198.30546 168.009465 
z
" style="fill:#1f77b4;"/>
   </g>
   <g id="patch_85">
    <path clip-path="url(#pe29429658f)" d="M 199.924998 273.312 
L 201.544535 273.312 
L 201.544535 181.692845 
L 199.924998 181.692845 
z
" style="fill:#1f77b4;"/>
   </g>
   <g id="patch_86">
    <path clip-path="url(#pe29429658f)" d="M 201.544535 273.312 
L 203.164073 273.312 
L 203.164073 175.14862 
L 201.544535 175.14862 
z
" style="fill:#1f77b4;"/>
   </g>
   <g id="patch_87">
    <path clip-path="url(#pe29429658f)" d="M 203.164073 273.312 
L 204.78361 273.312 
L 204.78361 185.857352 
L 203.164073 185.857352 
z
" style="fill:#1f77b4;"/>
   </g>
   <g id="patch_88">
    <path clip-path="url(#pe29429658f)" d="M 204.78361 273.312 
L 206.403147 273.312 
L 206.403147 169.199324 
L 204.78361 169.199324 
z
" style="fill:#1f77b4;"/>
   </g>
   <g id="patch_89">
    <path clip-path="url(#pe29429658f)" d="M 206.403147 273.312 
L 208.022685 273.312 
L 208.022685 177.528338 
L 206.403147 177.528338 
z
" style="fill:#1f77b4;"/>
   </g>
   <g id="patch_90">
    <path clip-path="url(#pe29429658f)" d="M 208.022685 273.312 
L 209.642222 273.312 
L 209.642222 176.933408 
L 208.022685 176.933408 
z
" style="fill:#1f77b4;"/>
   </g>
   <g id="patch_91">
    <path clip-path="url(#pe29429658f)" d="M 209.642222 273.312 
L 211.26176 273.312 
L 211.26176 160.87031 
L 209.642222 160.87031 
z
" style="fill:#1f77b4;"/>
   </g>
   <g id="patch_92">
    <path clip-path="url(#pe29429658f)" d="M 211.26176 273.312 
L 212.881297 273.312 
L 212.881297 156.705803 
L 211.26176 156.705803 
z
" style="fill:#1f77b4;"/>
   </g>
   <g id="patch_93">
    <path clip-path="url(#pe29429658f)" d="M 212.881297 273.312 
L 214.500834 273.312 
L 214.500834 160.87031 
L 212.881297 160.87031 
z
" style="fill:#1f77b4;"/>
   </g>
   <g id="patch_94">
    <path clip-path="url(#pe29429658f)" d="M 214.500834 273.312 
L 216.120372 273.312 
L 216.120372 157.895662 
L 214.500834 157.895662 
z
" style="fill:#1f77b4;"/>
   </g>
   <g id="patch_95">
    <path clip-path="url(#pe29429658f)" d="M 216.120372 273.312 
L 217.739909 273.312 
L 217.739909 157.895662 
L 216.120372 157.895662 
z
" style="fill:#1f77b4;"/>
   </g>
   <g id="patch_96">
    <path clip-path="url(#pe29429658f)" d="M 217.739909 273.312 
L 219.359447 273.312 
L 219.359447 150.161577 
L 217.739909 150.161577 
z
" style="fill:#1f77b4;"/>
   </g>
   <g id="patch_97">
    <path clip-path="url(#pe29429658f)" d="M 219.359447 273.312 
L 220.978984 273.312 
L 220.978984 163.844958 
L 219.359447 163.844958 
z
" style="fill:#1f77b4;"/>
   </g>
   <g id="patch_98">
    <path clip-path="url(#pe29429658f)" d="M 220.978984 273.312 
L 222.598521 273.312 
L 222.598521 165.034817 
L 220.978984 165.034817 
z
" style="fill:#1f77b4;"/>
   </g>
   <g id="patch_99">
    <path clip-path="url(#pe29429658f)" d="M 222.598521 273.312 
L 224.218059 273.312 
L 224.218059 152.541296 
L 222.598521 152.541296 
z
" style="fill:#1f77b4;"/>
   </g>
   <g id="patch_100">
    <path clip-path="url(#pe29429658f)" d="M 224.218059 273.312 
L 225.837596 273.312 
L 225.837596 188.832 
L 224.218059 188.832 
z
" style="fill:#1f77b4;"/>
   </g>
   <g id="patch_101">
    <path clip-path="url(#pe29429658f)" d="M 225.837596 273.312 
L 227.457134 273.312 
L 227.457134 148.376789 
L 225.837596 148.376789 
z
" style="fill:#1f77b4;"/>
   </g>
   <g id="patch_102">
    <path clip-path="url(#pe29429658f)" d="M 227.457134 273.312 
L 229.076671 273.312 
L 229.076671 157.895662 
L 227.457134 157.895662 
z
" style="fill:#1f77b4;"/>
   </g>
   <g id="patch_103">
    <path clip-path="url(#pe29429658f)" d="M 229.076671 273.312 
L 230.696208 273.312 
L 230.696208 148.971718 
L 229.076671 148.971718 
z
" style="fill:#1f77b4;"/>
   </g>
   <g id="patch_104">
    <path clip-path="url(#pe29429658f)" d="M 230.696208 273.312 
L 232.315746 273.312 
L 232.315746 158.490592 
L 230.696208 158.490592 
z
" style="fill:#1f77b4;"/>
   </g>
   <g id="patch_105">
    <path clip-path="url(#pe29429658f)" d="M 232.315746 273.312 
L 233.935283 273.312 
L 233.935283 144.807211 
L 232.315746 144.807211 
z
" style="fill:#1f77b4;"/>
   </g>
   <g id="patch_106">
    <path clip-path="url(#pe29429658f)" d="M 233.935283 273.312 
L 235.554821 273.312 
L 235.554821 155.515944 
L 233.935283 155.515944 
z
" style="fill:#1f77b4;"/>
   </g>
   <g id="patch_107">
    <path clip-path="url(#pe29429658f)" d="M 235.554821 273.312 
L 237.174358 273.312 
L 237.174358 140.642704 
L 235.554821 140.642704 
z
" style="fill:#1f77b4;"/>
   </g>
   <g id="patch_108">
    <path clip-path="url(#pe29429658f)" d="M 237.174358 273.312 
L 238.793895 273.312 
L 238.793895 154.326085 
L 237.174358 154.326085 
z
" style="fill:#1f77b4;"/>
   </g>
   <g id="patch_109">
    <path clip-path="url(#pe29429658f)" d="M 238.793895 273.312 
L 240.413433 273.312 
L 240.413433 160.27538 
L 238.793895 160.27538 
z
" style="fill:#1f77b4;"/>
   </g>
   <g id="patch_110">
    <path clip-path="url(#pe29429658f)" d="M 240.413433 273.312 
L 242.03297 273.312 
L 242.03297 156.110873 
L 240.413433 156.110873 
z
" style="fill:#1f77b4;"/>
   </g>
   <g id="patch_111">
    <path clip-path="url(#pe29429658f)" d="M 242.03297 273.312 
L 243.652508 273.312 
L 243.652508 147.18693 
L 242.03297 147.18693 
z
" style="fill:#1f77b4;"/>
   </g>
   <g id="patch_112">
    <path clip-path="url(#pe29429658f)" d="M 243.652508 273.312 
L 245.272045 273.312 
L 245.272045 143.617352 
L 243.652508 143.617352 
z
" style="fill:#1f77b4;"/>
   </g>
   <g id="patch_113">
    <path clip-path="url(#pe29429658f)" d="M 245.272045 273.312 
L 246.891582 273.312 
L 246.891582 112.086085 
L 245.272045 112.086085 
z
" style="fill:#1f77b4;"/>
   </g>
   <g id="patch_114">
    <path clip-path="url(#pe29429658f)" d="M 246.891582 273.312 
L 248.51112 273.312 
L 248.51112 159.680451 
L 246.891582 159.680451 
z
" style="fill:#1f77b4;"/>
   </g>
   <g id="patch_115">
    <path clip-path="url(#pe29429658f)" d="M 248.51112 273.312 
L 250.130657 273.312 
L 250.130657 145.402141 
L 248.51112 145.402141 
z
" style="fill:#1f77b4;"/>
   </g>
   <g id="patch_116">
    <path clip-path="url(#pe29429658f)" d="M 250.130657 273.312 
L 251.750195 273.312 
L 251.750195 139.452845 
L 250.130657 139.452845 
z
" style="fill:#1f77b4;"/>
   </g>
   <g id="patch_117">
    <path clip-path="url(#pe29429658f)" d="M 251.750195 273.312 
L 253.369732 273.312 
L 253.369732 155.515944 
L 251.750195 155.515944 
z
" style="fill:#1f77b4;"/>
   </g>
   <g id="patch_118">
    <path clip-path="url(#pe29429658f)" d="M 253.369732 273.312 
L 254.989269 273.312 
L 254.989269 132.31369 
L 253.369732 132.31369 
z
" style="fill:#1f77b4;"/>
   </g>
   <g id="patch_119">
    <path clip-path="url(#pe29429658f)" d="M 254.989269 273.312 
L 256.608807 273.312 
L 256.608807 140.047775 
L 254.989269 140.047775 
z
" style="fill:#1f77b4;"/>
   </g>
   <g id="patch_120">
    <path clip-path="url(#pe29429658f)" d="M 256.608807 273.312 
L 258.228344 273.312 
L 258.228344 131.123831 
L 256.608807 131.123831 
z
" style="fill:#1f77b4;"/>
   </g>
   <g id="patch_121">
    <path clip-path="url(#pe29429658f)" d="M 258.228344 273.312 
L 259.847882 273.312 
L 259.847882 116.250592 
L 258.228344 116.250592 
z
" style="fill:#1f77b4;"/>
   </g>
   <g id="patch_122">
    <path clip-path="url(#pe29429658f)" d="M 259.847882 273.312 
L 261.467419 273.312 
L 261.467419 131.718761 
L 259.847882 131.718761 
z
" style="fill:#1f77b4;"/>
   </g>
   <g id="patch_123">
    <path clip-path="url(#pe29429658f)" d="M 261.467419 273.312 
L 263.086956 273.312 
L 263.086956 133.503549 
L 261.467419 133.503549 
z
" style="fill:#1f77b4;"/>
   </g>
   <g id="patch_124">
    <path clip-path="url(#pe29429658f)" d="M 263.086956 273.312 
L 264.706494 273.312 
L 264.706494 139.452845 
L 263.086956 139.452845 
z
" style="fill:#1f77b4;"/>
   </g>
   <g id="patch_125">
    <path clip-path="url(#pe29429658f)" d="M 264.706494 273.312 
L 266.326031 273.312 
L 266.326031 139.452845 
L 264.706494 139.452845 
z
" style="fill:#1f77b4;"/>
   </g>
   <g id="patch_126">
    <path clip-path="url(#pe29429658f)" d="M 266.326031 273.312 
L 267.945568 273.312 
L 267.945568 113.275944 
L 266.326031 113.275944 
z
" style="fill:#1f77b4;"/>
   </g>
   <g id="patch_127">
    <path clip-path="url(#pe29429658f)" d="M 267.945568 273.312 
L 269.565106 273.312 
L 269.565106 140.047775 
L 267.945568 140.047775 
z
" style="fill:#1f77b4;"/>
   </g>
   <g id="patch_128">
    <path clip-path="url(#pe29429658f)" d="M 269.565106 273.312 
L 271.184643 273.312 
L 271.184643 115.655662 
L 269.565106 115.655662 
z
" style="fill:#1f77b4;"/>
   </g>
   <g id="patch_129">
    <path clip-path="url(#pe29429658f)" d="M 271.184643 273.312 
L 272.804181 273.312 
L 272.804181 113.870873 
L 271.184643 113.870873 
z
" style="fill:#1f77b4;"/>
   </g>
   <g id="patch_130">
    <path clip-path="url(#pe29429658f)" d="M 272.804181 273.312 
L 274.423718 273.312 
L 274.423718 105.541859 
L 272.804181 105.541859 
z
" style="fill:#1f77b4;"/>
   </g>
   <g id="patch_131">
    <path clip-path="url(#pe29429658f)" d="M 274.423718 273.312 
L 276.043255 273.312 
L 276.043255 112.681014 
L 274.423718 112.681014 
z
" style="fill:#1f77b4;"/>
   </g>
   <g id="patch_132">
    <path clip-path="url(#pe29429658f)" d="M 276.043255 273.312 
L 277.662793 273.312 
L 277.662793 133.503549 
L 276.043255 133.503549 
z
" style="fill:#1f77b4;"/>
   </g>
   <g id="patch_133">
    <path clip-path="url(#pe29429658f)" d="M 277.662793 273.312 
L 279.28233 273.312 
L 279.28233 127.554254 
L 277.662793 127.554254 
z
" style="fill:#1f77b4;"/>
   </g>
   <g id="patch_134">
    <path clip-path="url(#pe29429658f)" d="M 279.28233 273.312 
L 280.901868 273.312 
L 280.901868 120.415099 
L 279.28233 120.415099 
z
" style="fill:#1f77b4;"/>
   </g>
   <g id="patch_135">
    <path clip-path="url(#pe29429658f)" d="M 280.901868 273.312 
L 282.521405 273.312 
L 282.521405 104.94693 
L 280.901868 104.94693 
z
" style="fill:#1f77b4;"/>
   </g>
   <g id="patch_136">
    <path clip-path="url(#pe29429658f)" d="M 282.521405 273.312 
L 284.140942 273.312 
L 284.140942 113.275944 
L 282.521405 113.275944 
z
" style="fill:#1f77b4;"/>
   </g>
   <g id="patch_137">
    <path clip-path="url(#pe29429658f)" d="M 284.140942 273.312 
L 285.76048 273.312 
L 285.76048 110.301296 
L 284.140942 110.301296 
z
" style="fill:#1f77b4;"/>
   </g>
   <g id="patch_138">
    <path clip-path="url(#pe29429658f)" d="M 285.76048 273.312 
L 287.380017 273.312 
L 287.380017 125.769465 
L 285.76048 125.769465 
z
" style="fill:#1f77b4;"/>
   </g>
   <g id="patch_139">
    <path clip-path="url(#pe29429658f)" d="M 287.380017 273.312 
L 288.999555 273.312 
L 288.999555 103.75707 
L 287.380017 103.75707 
z
" style="fill:#1f77b4;"/>
   </g>
   <g id="patch_140">
    <path clip-path="url(#pe29429658f)" d="M 288.999555 273.312 
L 290.619092 273.312 
L 290.619092 106.731718 
L 288.999555 106.731718 
z
" style="fill:#1f77b4;"/>
   </g>
   <g id="patch_141">
    <path clip-path="url(#pe29429658f)" d="M 290.619092 273.312 
L 292.238629 273.312 
L 292.238629 98.997634 
L 290.619092 98.997634 
z
" style="fill:#1f77b4;"/>
   </g>
   <g id="patch_142">
    <path clip-path="url(#pe29429658f)" d="M 292.238629 273.312 
L 293.858167 273.312 
L 293.858167 104.94693 
L 292.238629 104.94693 
z
" style="fill:#1f77b4;"/>
   </g>
   <g id="patch_143">
    <path clip-path="url(#pe29429658f)" d="M 293.858167 273.312 
L 295.477704 273.312 
L 295.477704 116.250592 
L 293.858167 116.250592 
z
" style="fill:#1f77b4;"/>
   </g>
   <g id="patch_144">
    <path clip-path="url(#pe29429658f)" d="M 295.477704 273.312 
L 297.097242 273.312 
L 297.097242 100.187493 
L 295.477704 100.187493 
z
" style="fill:#1f77b4;"/>
   </g>
   <g id="patch_145">
    <path clip-path="url(#pe29429658f)" d="M 297.097242 273.312 
L 298.716779 273.312 
L 298.716779 100.782423 
L 297.097242 100.782423 
z
" style="fill:#1f77b4;"/>
   </g>
   <g id="patch_146">
    <path clip-path="url(#pe29429658f)" d="M 298.716779 273.312 
L 300.336316 273.312 
L 300.336316 113.275944 
L 298.716779 113.275944 
z
" style="fill:#1f77b4;"/>
   </g>
   <g id="patch_147">
    <path clip-path="url(#pe29429658f)" d="M 300.336316 273.312 
L 301.955854 273.312 
L 301.955854 98.997634 
L 300.336316 98.997634 
z
" style="fill:#1f77b4;"/>
   </g>
   <g id="patch_148">
    <path clip-path="url(#pe29429658f)" d="M 301.955854 273.312 
L 303.575391 273.312 
L 303.575391 106.731718 
L 301.955854 106.731718 
z
" style="fill:#1f77b4;"/>
   </g>
   <g id="patch_149">
    <path clip-path="url(#pe29429658f)" d="M 303.575391 273.312 
L 305.194929 273.312 
L 305.194929 90.66862 
L 303.575391 90.66862 
z
" style="fill:#1f77b4;"/>
   </g>
   <g id="patch_150">
    <path clip-path="url(#pe29429658f)" d="M 305.194929 273.312 
L 306.814466 273.312 
L 306.814466 101.377352 
L 305.194929 101.377352 
z
" style="fill:#1f77b4;"/>
   </g>
   <g id="patch_151">
    <path clip-path="url(#pe29429658f)" d="M 306.814466 273.312 
L 308.434003 273.312 
L 308.434003 101.377352 
L 306.814466 101.377352 
z
" style="fill:#1f77b4;"/>
   </g>
   <g id="patch_152">
    <path clip-path="url(#pe29429658f)" d="M 308.434003 273.312 
L 310.053541 273.312 
L 310.053541 106.136789 
L 308.434003 106.136789 
z
" style="fill:#1f77b4;"/>
   </g>
   <g id="patch_153">
    <path clip-path="url(#pe29429658f)" d="M 310.053541 273.312 
L 311.673078 273.312 
L 311.673078 91.263549 
L 310.053541 91.263549 
z
" style="fill:#1f77b4;"/>
   </g>
   <g id="patch_154">
    <path clip-path="url(#pe29429658f)" d="M 311.673078 273.312 
L 313.292616 273.312 
L 313.292616 96.022986 
L 311.673078 96.022986 
z
" style="fill:#1f77b4;"/>
   </g>
   <g id="patch_155">
    <path clip-path="url(#pe29429658f)" d="M 313.292616 273.312 
L 314.912153 273.312 
L 314.912153 103.75707 
L 313.292616 103.75707 
z
" style="fill:#1f77b4;"/>
   </g>
   <g id="patch_156">
    <path clip-path="url(#pe29429658f)" d="M 314.912153 273.312 
L 316.53169 273.312 
L 316.53169 81.744676 
L 314.912153 81.744676 
z
" style="fill:#1f77b4;"/>
   </g>
   <g id="patch_157">
    <path clip-path="url(#pe29429658f)" d="M 316.53169 273.312 
L 318.151228 273.312 
L 318.151228 91.263549 
L 316.53169 91.263549 
z
" style="fill:#1f77b4;"/>
   </g>
   <g id="patch_158">
    <path clip-path="url(#pe29429658f)" d="M 318.151228 273.312 
L 319.770765 273.312 
L 319.770765 82.934535 
L 318.151228 82.934535 
z
" style="fill:#1f77b4;"/>
   </g>
   <g id="patch_159">
    <path clip-path="url(#pe29429658f)" d="M 319.770765 273.312 
L 321.390303 273.312 
L 321.390303 80.554817 
L 319.770765 80.554817 
z
" style="fill:#1f77b4;"/>
   </g>
   <g id="patch_160">
    <path clip-path="url(#pe29429658f)" d="M 321.390303 273.312 
L 323.00984 273.312 
L 323.00984 65.681577 
L 321.390303 65.681577 
z
" style="fill:#1f77b4;"/>
   </g>
   <g id="patch_161">
    <path clip-path="url(#pe29429658f)" d="M 323.00984 273.312 
L 324.629377 273.312 
L 324.629377 108.516507 
L 323.00984 108.516507 
z
" style="fill:#1f77b4;"/>
   </g>
   <g id="patch_162">
    <path clip-path="url(#pe29429658f)" d="M 324.629377 273.312 
L 326.248915 273.312 
L 326.248915 63.896789 
L 324.629377 63.896789 
z
" style="fill:#1f77b4;"/>
   </g>
   <g id="patch_163">
    <path clip-path="url(#pe29429658f)" d="M 326.248915 273.312 
L 327.868452 273.312 
L 327.868452 100.187493 
L 326.248915 100.187493 
z
" style="fill:#1f77b4;"/>
   </g>
   <g id="patch_164">
    <path clip-path="url(#pe29429658f)" d="M 327.868452 273.312 
L 329.48799 273.312 
L 329.48799 84.124394 
L 327.868452 84.124394 
z
" style="fill:#1f77b4;"/>
   </g>
   <g id="patch_165">
    <path clip-path="url(#pe29429658f)" d="M 329.48799 273.312 
L 331.107527 273.312 
L 331.107527 72.820732 
L 329.48799 72.820732 
z
" style="fill:#1f77b4;"/>
   </g>
   <g id="patch_166">
    <path clip-path="url(#pe29429658f)" d="M 331.107527 273.312 
L 332.727064 273.312 
L 332.727064 71.630873 
L 331.107527 71.630873 
z
" style="fill:#1f77b4;"/>
   </g>
   <g id="patch_167">
    <path clip-path="url(#pe29429658f)" d="M 332.727064 273.312 
L 334.346602 273.312 
L 334.346602 74.010592 
L 332.727064 74.010592 
z
" style="fill:#1f77b4;"/>
   </g>
   <g id="patch_168">
    <path clip-path="url(#pe29429658f)" d="M 334.346602 273.312 
L 335.966139 273.312 
L 335.966139 91.263549 
L 334.346602 91.263549 
z
" style="fill:#1f77b4;"/>
   </g>
   <g id="patch_169">
    <path clip-path="url(#pe29429658f)" d="M 335.966139 273.312 
L 337.585677 273.312 
L 337.585677 70.441014 
L 335.966139 70.441014 
z
" style="fill:#1f77b4;"/>
   </g>
   <g id="patch_170">
    <path clip-path="url(#pe29429658f)" d="M 337.585677 273.312 
L 339.205214 273.312 
L 339.205214 65.681577 
L 337.585677 65.681577 
z
" style="fill:#1f77b4;"/>
   </g>
   <g id="patch_171">
    <path clip-path="url(#pe29429658f)" d="M 339.205214 273.312 
L 340.824751 273.312 
L 340.824751 80.554817 
L 339.205214 80.554817 
z
" style="fill:#1f77b4;"/>
   </g>
   <g id="patch_172">
    <path clip-path="url(#pe29429658f)" d="M 340.824751 273.312 
L 342.444289 273.312 
L 342.444289 75.200451 
L 340.824751 75.200451 
z
" style="fill:#1f77b4;"/>
   </g>
   <g id="patch_173">
    <path clip-path="url(#pe29429658f)" d="M 342.444289 273.312 
L 344.063826 273.312 
L 344.063826 59.732282 
L 342.444289 59.732282 
z
" style="fill:#1f77b4;"/>
   </g>
   <g id="patch_174">
    <path clip-path="url(#pe29429658f)" d="M 344.063826 273.312 
L 345.683364 273.312 
L 345.683364 72.225803 
L 344.063826 72.225803 
z
" style="fill:#1f77b4;"/>
   </g>
   <g id="patch_175">
    <path clip-path="url(#pe29429658f)" d="M 345.683364 273.312 
L 347.302901 273.312 
L 347.302901 58.542423 
L 345.683364 58.542423 
z
" style="fill:#1f77b4;"/>
   </g>
   <g id="patch_176">
    <path clip-path="url(#pe29429658f)" d="M 347.302901 273.312 
L 348.922438 273.312 
L 348.922438 91.263549 
L 347.302901 91.263549 
z
" style="fill:#1f77b4;"/>
   </g>
   <g id="patch_177">
    <path clip-path="url(#pe29429658f)" d="M 348.922438 273.312 
L 350.541976 273.312 
L 350.541976 76.985239 
L 348.922438 76.985239 
z
" style="fill:#1f77b4;"/>
   </g>
   <g id="patch_178">
    <path clip-path="url(#pe29429658f)" d="M 350.541976 273.312 
L 352.161513 273.312 
L 352.161513 60.327211 
L 350.541976 60.327211 
z
" style="fill:#1f77b4;"/>
   </g>
   <g id="patch_179">
    <path clip-path="url(#pe29429658f)" d="M 352.161513 273.312 
L 353.781051 273.312 
L 353.781051 53.782986 
L 352.161513 53.782986 
z
" style="fill:#1f77b4;"/>
   </g>
   <g id="patch_180">
    <path clip-path="url(#pe29429658f)" d="M 353.781051 273.312 
L 355.400588 273.312 
L 355.400588 70.441014 
L 353.781051 70.441014 
z
" style="fill:#1f77b4;"/>
   </g>
   <g id="patch_181">
    <path clip-path="url(#pe29429658f)" d="M 355.400588 273.312 
L 357.020125 273.312 
L 357.020125 58.542423 
L 355.400588 58.542423 
z
" style="fill:#1f77b4;"/>
   </g>
   <g id="patch_182">
    <path clip-path="url(#pe29429658f)" d="M 357.020125 273.312 
L 358.639663 273.312 
L 358.639663 60.327211 
L 357.020125 60.327211 
z
" style="fill:#1f77b4;"/>
   </g>
   <g id="patch_183">
    <path clip-path="url(#pe29429658f)" d="M 358.639663 273.312 
L 360.2592 273.312 
L 360.2592 48.42862 
L 358.639663 48.42862 
z
" style="fill:#1f77b4;"/>
   </g>
   <g id="patch_184">
    <path clip-path="url(#pe29429658f)" d="M 360.2592 273.312 
L 361.878737 273.312 
L 361.878737 40.694535 
L 360.2592 40.694535 
z
" style="fill:#1f77b4;"/>
   </g>
   <g id="patch_185">
    <path clip-path="url(#pe29429658f)" d="M 361.878737 273.312 
L 363.498275 273.312 
L 363.498275 55.567775 
L 361.878737 55.567775 
z
" style="fill:#1f77b4;"/>
   </g>
   <g id="patch_186">
    <path clip-path="url(#pe29429658f)" d="M 363.498275 273.312 
L 365.117812 273.312 
L 365.117812 47.238761 
L 363.498275 47.238761 
z
" style="fill:#1f77b4;"/>
   </g>
   <g id="patch_187">
    <path clip-path="url(#pe29429658f)" d="M 365.117812 273.312 
L 366.73735 273.312 
L 366.73735 72.225803 
L 365.117812 72.225803 
z
" style="fill:#1f77b4;"/>
   </g>
   <g id="patch_188">
    <path clip-path="url(#pe29429658f)" d="M 366.73735 273.312 
L 368.356887 273.312 
L 368.356887 59.732282 
L 366.73735 59.732282 
z
" style="fill:#1f77b4;"/>
   </g>
   <g id="patch_189">
    <path clip-path="url(#pe29429658f)" d="M 368.356887 273.312 
L 369.976424 273.312 
L 369.976424 50.213408 
L 368.356887 50.213408 
z
" style="fill:#1f77b4;"/>
   </g>
   <g id="patch_190">
    <path clip-path="url(#pe29429658f)" d="M 369.976424 273.312 
L 371.595962 273.312 
L 371.595962 43.669183 
L 369.976424 43.669183 
z
" style="fill:#1f77b4;"/>
   </g>
   <g id="patch_191">
    <path clip-path="url(#pe29429658f)" d="M 371.595962 273.312 
L 373.215499 273.312 
L 373.215499 52.593127 
L 371.595962 52.593127 
z
" style="fill:#1f77b4;"/>
   </g>
   <g id="patch_192">
    <path clip-path="url(#pe29429658f)" d="M 373.215499 273.312 
L 374.835037 273.312 
L 374.835037 28.795944 
L 373.215499 28.795944 
z
" style="fill:#1f77b4;"/>
   </g>
   <g id="patch_193">
    <path clip-path="url(#pe29429658f)" d="M 374.835037 273.312 
L 376.454574 273.312 
L 376.454574 53.188056 
L 374.835037 53.188056 
z
" style="fill:#1f77b4;"/>
   </g>
   <g id="patch_194">
    <path clip-path="url(#pe29429658f)" d="M 376.454574 273.312 
L 378.074111 273.312 
L 378.074111 52.593127 
L 376.454574 52.593127 
z
" style="fill:#1f77b4;"/>
   </g>
   <g id="patch_195">
    <path clip-path="url(#pe29429658f)" d="M 378.074111 273.312 
L 379.693649 273.312 
L 379.693649 40.694535 
L 378.074111 40.694535 
z
" style="fill:#1f77b4;"/>
   </g>
   <g id="patch_196">
    <path clip-path="url(#pe29429658f)" d="M 379.693649 273.312 
L 381.313186 273.312 
L 381.313186 63.896789 
L 379.693649 63.896789 
z
" style="fill:#1f77b4;"/>
   </g>
   <g id="patch_197">
    <path clip-path="url(#pe29429658f)" d="M 381.313186 273.312 
L 382.932724 273.312 
L 382.932724 42.479324 
L 381.313186 42.479324 
z
" style="fill:#1f77b4;"/>
   </g>
   <g id="patch_198">
    <path clip-path="url(#pe29429658f)" d="M 382.932724 273.312 
L 384.552261 273.312 
L 384.552261 46.048901 
L 382.932724 46.048901 
z
" style="fill:#1f77b4;"/>
   </g>
   <g id="patch_199">
    <path clip-path="url(#pe29429658f)" d="M 384.552261 273.312 
L 386.171798 273.312 
L 386.171798 27.606085 
L 384.552261 27.606085 
z
" style="fill:#1f77b4;"/>
   </g>
   <g id="patch_200">
    <path clip-path="url(#pe29429658f)" d="M 386.171798 273.312 
L 387.791336 273.312 
L 387.791336 19.872 
L 386.171798 19.872 
z
" style="fill:#1f77b4;"/>
   </g>
   <g id="patch_201">
    <path clip-path="url(#pe29429658f)" d="M 387.791336 273.312 
L 389.410873 273.312 
L 389.410873 44.859042 
L 387.791336 44.859042 
z
" style="fill:#1f77b4;"/>
   </g>
   <g id="patch_202">
    <path clip-path="url(#pe29429658f)" d="M 389.410873 273.312 
L 391.030411 273.312 
L 391.030411 27.606085 
L 389.410873 27.606085 
z
" style="fill:#1f77b4;"/>
   </g>
   <g id="matplotlib.axis_1">
    <g id="xtick_1">
     <g id="line2d_1">
      <defs>
       <path d="M 0 0 
L 0 3.5 
" id="m39b536fa27" style="stroke:#000000;stroke-width:0.8;"/>
      </defs>
      <g>
       <use style="stroke:#000000;stroke-width:0.8;" x="66.376477" xlink:href="#m39b536fa27" y="273.312"/>
      </g>
     </g>
     <g id="text_1">
      <!-- 0.0 -->
      <g transform="translate(58.424915 287.910437)scale(0.1 -0.1)">
       <defs>
        <path d="M 2034 4250 
Q 1547 4250 1301 3770 
Q 1056 3291 1056 2328 
Q 1056 1369 1301 889 
Q 1547 409 2034 409 
Q 2525 409 2770 889 
Q 3016 1369 3016 2328 
Q 3016 3291 2770 3770 
Q 2525 4250 2034 4250 
z
M 2034 4750 
Q 2819 4750 3233 4129 
Q 3647 3509 3647 2328 
Q 3647 1150 3233 529 
Q 2819 -91 2034 -91 
Q 1250 -91 836 529 
Q 422 1150 422 2328 
Q 422 3509 836 4129 
Q 1250 4750 2034 4750 
z
" id="DejaVuSans-30" transform="scale(0.015625)"/>
        <path d="M 684 794 
L 1344 794 
L 1344 0 
L 684 0 
L 684 794 
z
" id="DejaVuSans-2e" transform="scale(0.015625)"/>
       </defs>
       <use xlink:href="#DejaVuSans-30"/>
       <use x="63.623047" xlink:href="#DejaVuSans-2e"/>
       <use x="95.410156" xlink:href="#DejaVuSans-30"/>
      </g>
     </g>
    </g>
    <g id="xtick_2">
     <g id="line2d_2">
      <g>
       <use style="stroke:#000000;stroke-width:0.8;" x="131.307386" xlink:href="#m39b536fa27" y="273.312"/>
      </g>
     </g>
     <g id="text_2">
      <!-- 0.2 -->
      <g transform="translate(123.355824 287.910437)scale(0.1 -0.1)">
       <defs>
        <path d="M 1228 531 
L 3431 531 
L 3431 0 
L 469 0 
L 469 531 
Q 828 903 1448 1529 
Q 2069 2156 2228 2338 
Q 2531 2678 2651 2914 
Q 2772 3150 2772 3378 
Q 2772 3750 2511 3984 
Q 2250 4219 1831 4219 
Q 1534 4219 1204 4116 
Q 875 4013 500 3803 
L 500 4441 
Q 881 4594 1212 4672 
Q 1544 4750 1819 4750 
Q 2544 4750 2975 4387 
Q 3406 4025 3406 3419 
Q 3406 3131 3298 2873 
Q 3191 2616 2906 2266 
Q 2828 2175 2409 1742 
Q 1991 1309 1228 531 
z
" id="DejaVuSans-32" transform="scale(0.015625)"/>
       </defs>
       <use xlink:href="#DejaVuSans-30"/>
       <use x="63.623047" xlink:href="#DejaVuSans-2e"/>
       <use x="95.410156" xlink:href="#DejaVuSans-32"/>
      </g>
     </g>
    </g>
    <g id="xtick_3">
     <g id="line2d_3">
      <g>
       <use style="stroke:#000000;stroke-width:0.8;" x="196.238295" xlink:href="#m39b536fa27" y="273.312"/>
      </g>
     </g>
     <g id="text_3">
      <!-- 0.4 -->
      <g transform="translate(188.286733 287.910437)scale(0.1 -0.1)">
       <defs>
        <path d="M 2419 4116 
L 825 1625 
L 2419 1625 
L 2419 4116 
z
M 2253 4666 
L 3047 4666 
L 3047 1625 
L 3713 1625 
L 3713 1100 
L 3047 1100 
L 3047 0 
L 2419 0 
L 2419 1100 
L 313 1100 
L 313 1709 
L 2253 4666 
z
" id="DejaVuSans-34" transform="scale(0.015625)"/>
       </defs>
       <use xlink:href="#DejaVuSans-30"/>
       <use x="63.623047" xlink:href="#DejaVuSans-2e"/>
       <use x="95.410156" xlink:href="#DejaVuSans-34"/>
      </g>
     </g>
    </g>
    <g id="xtick_4">
     <g id="line2d_4">
      <g>
       <use style="stroke:#000000;stroke-width:0.8;" x="261.169205" xlink:href="#m39b536fa27" y="273.312"/>
      </g>
     </g>
     <g id="text_4">
      <!-- 0.6 -->
      <g transform="translate(253.217642 287.910437)scale(0.1 -0.1)">
       <defs>
        <path d="M 2113 2584 
Q 1688 2584 1439 2293 
Q 1191 2003 1191 1497 
Q 1191 994 1439 701 
Q 1688 409 2113 409 
Q 2538 409 2786 701 
Q 3034 994 3034 1497 
Q 3034 2003 2786 2293 
Q 2538 2584 2113 2584 
z
M 3366 4563 
L 3366 3988 
Q 3128 4100 2886 4159 
Q 2644 4219 2406 4219 
Q 1781 4219 1451 3797 
Q 1122 3375 1075 2522 
Q 1259 2794 1537 2939 
Q 1816 3084 2150 3084 
Q 2853 3084 3261 2657 
Q 3669 2231 3669 1497 
Q 3669 778 3244 343 
Q 2819 -91 2113 -91 
Q 1303 -91 875 529 
Q 447 1150 447 2328 
Q 447 3434 972 4092 
Q 1497 4750 2381 4750 
Q 2619 4750 2861 4703 
Q 3103 4656 3366 4563 
z
" id="DejaVuSans-36" transform="scale(0.015625)"/>
       </defs>
       <use xlink:href="#DejaVuSans-30"/>
       <use x="63.623047" xlink:href="#DejaVuSans-2e"/>
       <use x="95.410156" xlink:href="#DejaVuSans-36"/>
      </g>
     </g>
    </g>
    <g id="xtick_5">
     <g id="line2d_5">
      <g>
       <use style="stroke:#000000;stroke-width:0.8;" x="326.100114" xlink:href="#m39b536fa27" y="273.312"/>
      </g>
     </g>
     <g id="text_5">
      <!-- 0.8 -->
      <g transform="translate(318.148551 287.910437)scale(0.1 -0.1)">
       <defs>
        <path d="M 2034 2216 
Q 1584 2216 1326 1975 
Q 1069 1734 1069 1313 
Q 1069 891 1326 650 
Q 1584 409 2034 409 
Q 2484 409 2743 651 
Q 3003 894 3003 1313 
Q 3003 1734 2745 1975 
Q 2488 2216 2034 2216 
z
M 1403 2484 
Q 997 2584 770 2862 
Q 544 3141 544 3541 
Q 544 4100 942 4425 
Q 1341 4750 2034 4750 
Q 2731 4750 3128 4425 
Q 3525 4100 3525 3541 
Q 3525 3141 3298 2862 
Q 3072 2584 2669 2484 
Q 3125 2378 3379 2068 
Q 3634 1759 3634 1313 
Q 3634 634 3220 271 
Q 2806 -91 2034 -91 
Q 1263 -91 848 271 
Q 434 634 434 1313 
Q 434 1759 690 2068 
Q 947 2378 1403 2484 
z
M 1172 3481 
Q 1172 3119 1398 2916 
Q 1625 2713 2034 2713 
Q 2441 2713 2670 2916 
Q 2900 3119 2900 3481 
Q 2900 3844 2670 4047 
Q 2441 4250 2034 4250 
Q 1625 4250 1398 4047 
Q 1172 3844 1172 3481 
z
" id="DejaVuSans-38" transform="scale(0.015625)"/>
       </defs>
       <use xlink:href="#DejaVuSans-30"/>
       <use x="63.623047" xlink:href="#DejaVuSans-2e"/>
       <use x="95.410156" xlink:href="#DejaVuSans-38"/>
      </g>
     </g>
    </g>
    <g id="xtick_6">
     <g id="line2d_6">
      <g>
       <use style="stroke:#000000;stroke-width:0.8;" x="391.031023" xlink:href="#m39b536fa27" y="273.312"/>
      </g>
     </g>
     <g id="text_6">
      <!-- 1.0 -->
      <g transform="translate(383.07946 287.910437)scale(0.1 -0.1)">
       <defs>
        <path d="M 794 531 
L 1825 531 
L 1825 4091 
L 703 3866 
L 703 4441 
L 1819 4666 
L 2450 4666 
L 2450 531 
L 3481 531 
L 3481 0 
L 794 0 
L 794 531 
z
" id="DejaVuSans-31" transform="scale(0.015625)"/>
       </defs>
       <use xlink:href="#DejaVuSans-31"/>
       <use x="63.623047" xlink:href="#DejaVuSans-2e"/>
       <use x="95.410156" xlink:href="#DejaVuSans-30"/>
      </g>
     </g>
    </g>
    <g id="text_7">
     <!-- Propagation direction -->
     <g transform="translate(175.221719 301.588562)scale(0.1 -0.1)">
      <defs>
       <path d="M 1259 4147 
L 1259 2394 
L 2053 2394 
Q 2494 2394 2734 2622 
Q 2975 2850 2975 3272 
Q 2975 3691 2734 3919 
Q 2494 4147 2053 4147 
L 1259 4147 
z
M 628 4666 
L 2053 4666 
Q 2838 4666 3239 4311 
Q 3641 3956 3641 3272 
Q 3641 2581 3239 2228 
Q 2838 1875 2053 1875 
L 1259 1875 
L 1259 0 
L 628 0 
L 628 4666 
z
" id="DejaVuSans-50" transform="scale(0.015625)"/>
       <path d="M 2631 2963 
Q 2534 3019 2420 3045 
Q 2306 3072 2169 3072 
Q 1681 3072 1420 2755 
Q 1159 2438 1159 1844 
L 1159 0 
L 581 0 
L 581 3500 
L 1159 3500 
L 1159 2956 
Q 1341 3275 1631 3429 
Q 1922 3584 2338 3584 
Q 2397 3584 2469 3576 
Q 2541 3569 2628 3553 
L 2631 2963 
z
" id="DejaVuSans-72" transform="scale(0.015625)"/>
       <path d="M 1959 3097 
Q 1497 3097 1228 2736 
Q 959 2375 959 1747 
Q 959 1119 1226 758 
Q 1494 397 1959 397 
Q 2419 397 2687 759 
Q 2956 1122 2956 1747 
Q 2956 2369 2687 2733 
Q 2419 3097 1959 3097 
z
M 1959 3584 
Q 2709 3584 3137 3096 
Q 3566 2609 3566 1747 
Q 3566 888 3137 398 
Q 2709 -91 1959 -91 
Q 1206 -91 779 398 
Q 353 888 353 1747 
Q 353 2609 779 3096 
Q 1206 3584 1959 3584 
z
" id="DejaVuSans-6f" transform="scale(0.015625)"/>
       <path d="M 1159 525 
L 1159 -1331 
L 581 -1331 
L 581 3500 
L 1159 3500 
L 1159 2969 
Q 1341 3281 1617 3432 
Q 1894 3584 2278 3584 
Q 2916 3584 3314 3078 
Q 3713 2572 3713 1747 
Q 3713 922 3314 415 
Q 2916 -91 2278 -91 
Q 1894 -91 1617 61 
Q 1341 213 1159 525 
z
M 3116 1747 
Q 3116 2381 2855 2742 
Q 2594 3103 2138 3103 
Q 1681 3103 1420 2742 
Q 1159 2381 1159 1747 
Q 1159 1113 1420 752 
Q 1681 391 2138 391 
Q 2594 391 2855 752 
Q 3116 1113 3116 1747 
z
" id="DejaVuSans-70" transform="scale(0.015625)"/>
       <path d="M 2194 1759 
Q 1497 1759 1228 1600 
Q 959 1441 959 1056 
Q 959 750 1161 570 
Q 1363 391 1709 391 
Q 2188 391 2477 730 
Q 2766 1069 2766 1631 
L 2766 1759 
L 2194 1759 
z
M 3341 1997 
L 3341 0 
L 2766 0 
L 2766 531 
Q 2569 213 2275 61 
Q 1981 -91 1556 -91 
Q 1019 -91 701 211 
Q 384 513 384 1019 
Q 384 1609 779 1909 
Q 1175 2209 1959 2209 
L 2766 2209 
L 2766 2266 
Q 2766 2663 2505 2880 
Q 2244 3097 1772 3097 
Q 1472 3097 1187 3025 
Q 903 2953 641 2809 
L 641 3341 
Q 956 3463 1253 3523 
Q 1550 3584 1831 3584 
Q 2591 3584 2966 3190 
Q 3341 2797 3341 1997 
z
" id="DejaVuSans-61" transform="scale(0.015625)"/>
       <path d="M 2906 1791 
Q 2906 2416 2648 2759 
Q 2391 3103 1925 3103 
Q 1463 3103 1205 2759 
Q 947 2416 947 1791 
Q 947 1169 1205 825 
Q 1463 481 1925 481 
Q 2391 481 2648 825 
Q 2906 1169 2906 1791 
z
M 3481 434 
Q 3481 -459 3084 -895 
Q 2688 -1331 1869 -1331 
Q 1566 -1331 1297 -1286 
Q 1028 -1241 775 -1147 
L 775 -588 
Q 1028 -725 1275 -790 
Q 1522 -856 1778 -856 
Q 2344 -856 2625 -561 
Q 2906 -266 2906 331 
L 2906 616 
Q 2728 306 2450 153 
Q 2172 0 1784 0 
Q 1141 0 747 490 
Q 353 981 353 1791 
Q 353 2603 747 3093 
Q 1141 3584 1784 3584 
Q 2172 3584 2450 3431 
Q 2728 3278 2906 2969 
L 2906 3500 
L 3481 3500 
L 3481 434 
z
" id="DejaVuSans-67" transform="scale(0.015625)"/>
       <path d="M 1172 4494 
L 1172 3500 
L 2356 3500 
L 2356 3053 
L 1172 3053 
L 1172 1153 
Q 1172 725 1289 603 
Q 1406 481 1766 481 
L 2356 481 
L 2356 0 
L 1766 0 
Q 1100 0 847 248 
Q 594 497 594 1153 
L 594 3053 
L 172 3053 
L 172 3500 
L 594 3500 
L 594 4494 
L 1172 4494 
z
" id="DejaVuSans-74" transform="scale(0.015625)"/>
       <path d="M 603 3500 
L 1178 3500 
L 1178 0 
L 603 0 
L 603 3500 
z
M 603 4863 
L 1178 4863 
L 1178 4134 
L 603 4134 
L 603 4863 
z
" id="DejaVuSans-69" transform="scale(0.015625)"/>
       <path d="M 3513 2113 
L 3513 0 
L 2938 0 
L 2938 2094 
Q 2938 2591 2744 2837 
Q 2550 3084 2163 3084 
Q 1697 3084 1428 2787 
Q 1159 2491 1159 1978 
L 1159 0 
L 581 0 
L 581 3500 
L 1159 3500 
L 1159 2956 
Q 1366 3272 1645 3428 
Q 1925 3584 2291 3584 
Q 2894 3584 3203 3211 
Q 3513 2838 3513 2113 
z
" id="DejaVuSans-6e" transform="scale(0.015625)"/>
       <path id="DejaVuSans-20" transform="scale(0.015625)"/>
       <path d="M 2906 2969 
L 2906 4863 
L 3481 4863 
L 3481 0 
L 2906 0 
L 2906 525 
Q 2725 213 2448 61 
Q 2172 -91 1784 -91 
Q 1150 -91 751 415 
Q 353 922 353 1747 
Q 353 2572 751 3078 
Q 1150 3584 1784 3584 
Q 2172 3584 2448 3432 
Q 2725 3281 2906 2969 
z
M 947 1747 
Q 947 1113 1208 752 
Q 1469 391 1925 391 
Q 2381 391 2643 752 
Q 2906 1113 2906 1747 
Q 2906 2381 2643 2742 
Q 2381 3103 1925 3103 
Q 1469 3103 1208 2742 
Q 947 2381 947 1747 
z
" id="DejaVuSans-64" transform="scale(0.015625)"/>
       <path d="M 3597 1894 
L 3597 1613 
L 953 1613 
Q 991 1019 1311 708 
Q 1631 397 2203 397 
Q 2534 397 2845 478 
Q 3156 559 3463 722 
L 3463 178 
Q 3153 47 2828 -22 
Q 2503 -91 2169 -91 
Q 1331 -91 842 396 
Q 353 884 353 1716 
Q 353 2575 817 3079 
Q 1281 3584 2069 3584 
Q 2775 3584 3186 3129 
Q 3597 2675 3597 1894 
z
M 3022 2063 
Q 3016 2534 2758 2815 
Q 2500 3097 2075 3097 
Q 1594 3097 1305 2825 
Q 1016 2553 972 2059 
L 3022 2063 
z
" id="DejaVuSans-65" transform="scale(0.015625)"/>
       <path d="M 3122 3366 
L 3122 2828 
Q 2878 2963 2633 3030 
Q 2388 3097 2138 3097 
Q 1578 3097 1268 2742 
Q 959 2388 959 1747 
Q 959 1106 1268 751 
Q 1578 397 2138 397 
Q 2388 397 2633 464 
Q 2878 531 3122 666 
L 3122 134 
Q 2881 22 2623 -34 
Q 2366 -91 2075 -91 
Q 1284 -91 818 406 
Q 353 903 353 1747 
Q 353 2603 823 3093 
Q 1294 3584 2113 3584 
Q 2378 3584 2631 3529 
Q 2884 3475 3122 3366 
z
" id="DejaVuSans-63" transform="scale(0.015625)"/>
      </defs>
      <use xlink:href="#DejaVuSans-50"/>
      <use x="58.552734" xlink:href="#DejaVuSans-72"/>
      <use x="97.416016" xlink:href="#DejaVuSans-6f"/>
      <use x="158.597656" xlink:href="#DejaVuSans-70"/>
      <use x="222.074219" xlink:href="#DejaVuSans-61"/>
      <use x="283.353516" xlink:href="#DejaVuSans-67"/>
      <use x="346.830078" xlink:href="#DejaVuSans-61"/>
      <use x="408.109375" xlink:href="#DejaVuSans-74"/>
      <use x="447.318359" xlink:href="#DejaVuSans-69"/>
      <use x="475.101562" xlink:href="#DejaVuSans-6f"/>
      <use x="536.283203" xlink:href="#DejaVuSans-6e"/>
      <use x="599.662109" xlink:href="#DejaVuSans-20"/>
      <use x="631.449219" xlink:href="#DejaVuSans-64"/>
      <use x="694.925781" xlink:href="#DejaVuSans-69"/>
      <use x="722.708984" xlink:href="#DejaVuSans-72"/>
      <use x="761.572266" xlink:href="#DejaVuSans-65"/>
      <use x="823.095703" xlink:href="#DejaVuSans-63"/>
      <use x="878.076172" xlink:href="#DejaVuSans-74"/>
      <use x="917.285156" xlink:href="#DejaVuSans-69"/>
      <use x="945.068359" xlink:href="#DejaVuSans-6f"/>
      <use x="1006.25" xlink:href="#DejaVuSans-6e"/>
     </g>
    </g>
   </g>
   <g id="matplotlib.axis_2">
    <g id="ytick_1">
     <g id="line2d_7">
      <defs>
       <path d="M 0 0 
L -3.5 0 
" id="m26c002f8ee" style="stroke:#000000;stroke-width:0.8;"/>
      </defs>
      <g>
       <use style="stroke:#000000;stroke-width:0.8;" x="50.14375" xlink:href="#m26c002f8ee" y="273.312"/>
      </g>
     </g>
     <g id="text_8">
      <!-- 0.00 -->
      <g transform="translate(20.878125 277.111219)scale(0.1 -0.1)">
       <use xlink:href="#DejaVuSans-30"/>
       <use x="63.623047" xlink:href="#DejaVuSans-2e"/>
       <use x="95.410156" xlink:href="#DejaVuSans-30"/>
       <use x="159.033203" xlink:href="#DejaVuSans-30"/>
      </g>
     </g>
    </g>
    <g id="ytick_2">
     <g id="line2d_8">
      <g>
       <use style="stroke:#000000;stroke-width:0.8;" x="50.14375" xlink:href="#m26c002f8ee" y="243.633971"/>
      </g>
     </g>
     <g id="text_9">
      <!-- 0.25 -->
      <g transform="translate(20.878125 247.43319)scale(0.1 -0.1)">
       <defs>
        <path d="M 691 4666 
L 3169 4666 
L 3169 4134 
L 1269 4134 
L 1269 2991 
Q 1406 3038 1543 3061 
Q 1681 3084 1819 3084 
Q 2600 3084 3056 2656 
Q 3513 2228 3513 1497 
Q 3513 744 3044 326 
Q 2575 -91 1722 -91 
Q 1428 -91 1123 -41 
Q 819 9 494 109 
L 494 744 
Q 775 591 1075 516 
Q 1375 441 1709 441 
Q 2250 441 2565 725 
Q 2881 1009 2881 1497 
Q 2881 1984 2565 2268 
Q 2250 2553 1709 2553 
Q 1456 2553 1204 2497 
Q 953 2441 691 2322 
L 691 4666 
z
" id="DejaVuSans-35" transform="scale(0.015625)"/>
       </defs>
       <use xlink:href="#DejaVuSans-30"/>
       <use x="63.623047" xlink:href="#DejaVuSans-2e"/>
       <use x="95.410156" xlink:href="#DejaVuSans-32"/>
       <use x="159.033203" xlink:href="#DejaVuSans-35"/>
      </g>
     </g>
    </g>
    <g id="ytick_3">
     <g id="line2d_9">
      <g>
       <use style="stroke:#000000;stroke-width:0.8;" x="50.14375" xlink:href="#m26c002f8ee" y="213.955942"/>
      </g>
     </g>
     <g id="text_10">
      <!-- 0.50 -->
      <g transform="translate(20.878125 217.755161)scale(0.1 -0.1)">
       <use xlink:href="#DejaVuSans-30"/>
       <use x="63.623047" xlink:href="#DejaVuSans-2e"/>
       <use x="95.410156" xlink:href="#DejaVuSans-35"/>
       <use x="159.033203" xlink:href="#DejaVuSans-30"/>
      </g>
     </g>
    </g>
    <g id="ytick_4">
     <g id="line2d_10">
      <g>
       <use style="stroke:#000000;stroke-width:0.8;" x="50.14375" xlink:href="#m26c002f8ee" y="184.277913"/>
      </g>
     </g>
     <g id="text_11">
      <!-- 0.75 -->
      <g transform="translate(20.878125 188.077132)scale(0.1 -0.1)">
       <defs>
        <path d="M 525 4666 
L 3525 4666 
L 3525 4397 
L 1831 0 
L 1172 0 
L 2766 4134 
L 525 4134 
L 525 4666 
z
" id="DejaVuSans-37" transform="scale(0.015625)"/>
       </defs>
       <use xlink:href="#DejaVuSans-30"/>
       <use x="63.623047" xlink:href="#DejaVuSans-2e"/>
       <use x="95.410156" xlink:href="#DejaVuSans-37"/>
       <use x="159.033203" xlink:href="#DejaVuSans-35"/>
      </g>
     </g>
    </g>
    <g id="ytick_5">
     <g id="line2d_11">
      <g>
       <use style="stroke:#000000;stroke-width:0.8;" x="50.14375" xlink:href="#m26c002f8ee" y="154.599884"/>
      </g>
     </g>
     <g id="text_12">
      <!-- 1.00 -->
      <g transform="translate(20.878125 158.399103)scale(0.1 -0.1)">
       <use xlink:href="#DejaVuSans-31"/>
       <use x="63.623047" xlink:href="#DejaVuSans-2e"/>
       <use x="95.410156" xlink:href="#DejaVuSans-30"/>
       <use x="159.033203" xlink:href="#DejaVuSans-30"/>
      </g>
     </g>
    </g>
    <g id="ytick_6">
     <g id="line2d_12">
      <g>
       <use style="stroke:#000000;stroke-width:0.8;" x="50.14375" xlink:href="#m26c002f8ee" y="124.921855"/>
      </g>
     </g>
     <g id="text_13">
      <!-- 1.25 -->
      <g transform="translate(20.878125 128.721074)scale(0.1 -0.1)">
       <use xlink:href="#DejaVuSans-31"/>
       <use x="63.623047" xlink:href="#DejaVuSans-2e"/>
       <use x="95.410156" xlink:href="#DejaVuSans-32"/>
       <use x="159.033203" xlink:href="#DejaVuSans-35"/>
      </g>
     </g>
    </g>
    <g id="ytick_7">
     <g id="line2d_13">
      <g>
       <use style="stroke:#000000;stroke-width:0.8;" x="50.14375" xlink:href="#m26c002f8ee" y="95.243826"/>
      </g>
     </g>
     <g id="text_14">
      <!-- 1.50 -->
      <g transform="translate(20.878125 99.043045)scale(0.1 -0.1)">
       <use xlink:href="#DejaVuSans-31"/>
       <use x="63.623047" xlink:href="#DejaVuSans-2e"/>
       <use x="95.410156" xlink:href="#DejaVuSans-35"/>
       <use x="159.033203" xlink:href="#DejaVuSans-30"/>
      </g>
     </g>
    </g>
    <g id="ytick_8">
     <g id="line2d_14">
      <g>
       <use style="stroke:#000000;stroke-width:0.8;" x="50.14375" xlink:href="#m26c002f8ee" y="65.565798"/>
      </g>
     </g>
     <g id="text_15">
      <!-- 1.75 -->
      <g transform="translate(20.878125 69.365016)scale(0.1 -0.1)">
       <use xlink:href="#DejaVuSans-31"/>
       <use x="63.623047" xlink:href="#DejaVuSans-2e"/>
       <use x="95.410156" xlink:href="#DejaVuSans-37"/>
       <use x="159.033203" xlink:href="#DejaVuSans-35"/>
      </g>
     </g>
    </g>
    <g id="ytick_9">
     <g id="line2d_15">
      <g>
       <use style="stroke:#000000;stroke-width:0.8;" x="50.14375" xlink:href="#m26c002f8ee" y="35.887769"/>
      </g>
     </g>
     <g id="text_16">
      <!-- 2.00 -->
      <g transform="translate(20.878125 39.686987)scale(0.1 -0.1)">
       <use xlink:href="#DejaVuSans-32"/>
       <use x="63.623047" xlink:href="#DejaVuSans-2e"/>
       <use x="95.410156" xlink:href="#DejaVuSans-30"/>
       <use x="159.033203" xlink:href="#DejaVuSans-30"/>
      </g>
     </g>
    </g>
    <g id="text_17">
     <!-- Probability density -->
     <g transform="translate(14.798438 186.606781)rotate(-90)scale(0.1 -0.1)">
      <defs>
       <path d="M 3116 1747 
Q 3116 2381 2855 2742 
Q 2594 3103 2138 3103 
Q 1681 3103 1420 2742 
Q 1159 2381 1159 1747 
Q 1159 1113 1420 752 
Q 1681 391 2138 391 
Q 2594 391 2855 752 
Q 3116 1113 3116 1747 
z
M 1159 2969 
Q 1341 3281 1617 3432 
Q 1894 3584 2278 3584 
Q 2916 3584 3314 3078 
Q 3713 2572 3713 1747 
Q 3713 922 3314 415 
Q 2916 -91 2278 -91 
Q 1894 -91 1617 61 
Q 1341 213 1159 525 
L 1159 0 
L 581 0 
L 581 4863 
L 1159 4863 
L 1159 2969 
z
" id="DejaVuSans-62" transform="scale(0.015625)"/>
       <path d="M 603 4863 
L 1178 4863 
L 1178 0 
L 603 0 
L 603 4863 
z
" id="DejaVuSans-6c" transform="scale(0.015625)"/>
       <path d="M 2059 -325 
Q 1816 -950 1584 -1140 
Q 1353 -1331 966 -1331 
L 506 -1331 
L 506 -850 
L 844 -850 
Q 1081 -850 1212 -737 
Q 1344 -625 1503 -206 
L 1606 56 
L 191 3500 
L 800 3500 
L 1894 763 
L 2988 3500 
L 3597 3500 
L 2059 -325 
z
" id="DejaVuSans-79" transform="scale(0.015625)"/>
       <path d="M 2834 3397 
L 2834 2853 
Q 2591 2978 2328 3040 
Q 2066 3103 1784 3103 
Q 1356 3103 1142 2972 
Q 928 2841 928 2578 
Q 928 2378 1081 2264 
Q 1234 2150 1697 2047 
L 1894 2003 
Q 2506 1872 2764 1633 
Q 3022 1394 3022 966 
Q 3022 478 2636 193 
Q 2250 -91 1575 -91 
Q 1294 -91 989 -36 
Q 684 19 347 128 
L 347 722 
Q 666 556 975 473 
Q 1284 391 1588 391 
Q 1994 391 2212 530 
Q 2431 669 2431 922 
Q 2431 1156 2273 1281 
Q 2116 1406 1581 1522 
L 1381 1569 
Q 847 1681 609 1914 
Q 372 2147 372 2553 
Q 372 3047 722 3315 
Q 1072 3584 1716 3584 
Q 2034 3584 2315 3537 
Q 2597 3491 2834 3397 
z
" id="DejaVuSans-73" transform="scale(0.015625)"/>
      </defs>
      <use xlink:href="#DejaVuSans-50"/>
      <use x="58.552734" xlink:href="#DejaVuSans-72"/>
      <use x="97.416016" xlink:href="#DejaVuSans-6f"/>
      <use x="158.597656" xlink:href="#DejaVuSans-62"/>
      <use x="222.074219" xlink:href="#DejaVuSans-61"/>
      <use x="283.353516" xlink:href="#DejaVuSans-62"/>
      <use x="346.830078" xlink:href="#DejaVuSans-69"/>
      <use x="374.613281" xlink:href="#DejaVuSans-6c"/>
      <use x="402.396484" xlink:href="#DejaVuSans-69"/>
      <use x="430.179688" xlink:href="#DejaVuSans-74"/>
      <use x="469.388672" xlink:href="#DejaVuSans-79"/>
      <use x="528.568359" xlink:href="#DejaVuSans-20"/>
      <use x="560.355469" xlink:href="#DejaVuSans-64"/>
      <use x="623.832031" xlink:href="#DejaVuSans-65"/>
      <use x="685.355469" xlink:href="#DejaVuSans-6e"/>
      <use x="748.734375" xlink:href="#DejaVuSans-73"/>
      <use x="800.833984" xlink:href="#DejaVuSans-69"/>
      <use x="828.617188" xlink:href="#DejaVuSans-74"/>
      <use x="867.826172" xlink:href="#DejaVuSans-79"/>
     </g>
    </g>
   </g>
   <g id="line2d_16">
    <path clip-path="url(#pe29429658f)" d="M 66.376477 273.312 
L 391.031023 35.887769 
L 391.031023 35.887769 
" style="fill:none;stroke:#ff7f0e;stroke-linecap:square;stroke-width:1.5;"/>
   </g>
   <g id="patch_203">
    <path d="M 50.14375 273.312 
L 50.14375 7.2 
" style="fill:none;stroke:#000000;stroke-linecap:square;stroke-linejoin:miter;stroke-width:0.8;"/>
   </g>
   <g id="patch_204">
    <path d="M 407.26375 273.312 
L 407.26375 7.2 
" style="fill:none;stroke:#000000;stroke-linecap:square;stroke-linejoin:miter;stroke-width:0.8;"/>
   </g>
   <g id="patch_205">
    <path d="M 50.14375 273.312 
L 407.26375 273.312 
" style="fill:none;stroke:#000000;stroke-linecap:square;stroke-linejoin:miter;stroke-width:0.8;"/>
   </g>
   <g id="patch_206">
    <path d="M 50.14375 7.2 
L 407.26375 7.2 
" style="fill:none;stroke:#000000;stroke-linecap:square;stroke-linejoin:miter;stroke-width:0.8;"/>
   </g>
  </g>
 </g>
 <defs>
  <clipPath id="pe29429658f">
   <rect height="266.112" width="357.12" x="50.14375" y="7.2"/>
  </clipPath>
 </defs>
</svg>
