<?xml version="1.0" encoding="utf-8" standalone="no"?>
<!DOCTYPE svg PUBLIC "-//W3C//DTD SVG 1.1//EN"
  "http://www.w3.org/Graphics/SVG/1.1/DTD/svg11.dtd">
<svg height="310.86825pt" version="1.1" viewBox="0 0 408.10125 310.86825" width="408.10125pt" xmlns="http://www.w3.org/2000/svg" xmlns:xlink="http://www.w3.org/1999/xlink">
 <metadata>
  <rdf:RDF xmlns:cc="http://creativecommons.org/ns#" xmlns:dc="http://purl.org/dc/elements/1.1/" xmlns:rdf="http://www.w3.org/1999/02/22-rdf-syntax-ns#">
   <cc:Work>
    <dc:type rdf:resource="http://purl.org/dc/dcmitype/StillImage"/>
    <dc:date>2021-06-21T19:40:55.023635</dc:date>
    <dc:format>image/svg+xml</dc:format>
    <dc:creator>
     <cc:Agent>
      <dc:title>Matplotlib v3.4.2, https://matplotlib.org/</dc:title>
     </cc:Agent>
    </dc:creator>
   </cc:Work>
  </rdf:RDF>
 </metadata>
 <defs>
  <style type="text/css">*{stroke-linecap:butt;stroke-linejoin:round;}</style>
 </defs>
 <g id="figure_1">
  <g id="patch_1">
   <path d="M 0 310.86825 
L 408.10125 310.86825 
L 408.10125 0 
L 0 0 
z
" style="fill:#ffffff;"/>
  </g>
  <g id="axes_1">
   <g id="patch_2">
    <path d="M 43.78125 273.312 
L 400.90125 273.312 
L 400.90125 7.2 
L 43.78125 7.2 
z
" style="fill:#ffffff;"/>
   </g>
   <g id="patch_3">
    <path clip-path="url(#p67e2164706)" d="M 60.915327 273.312 
L 62.534075 273.312 
L 62.534075 272.742472 
L 60.915327 272.742472 
z
" style="fill:#1f77b4;"/>
   </g>
   <g id="patch_4">
    <path clip-path="url(#p67e2164706)" d="M 62.534075 273.312 
L 64.152823 273.312 
L 64.152823 269.894831 
L 62.534075 269.894831 
z
" style="fill:#1f77b4;"/>
   </g>
   <g id="patch_5">
    <path clip-path="url(#p67e2164706)" d="M 64.152823 273.312 
L 65.771571 273.312 
L 65.771571 272.172944 
L 64.152823 272.172944 
z
" style="fill:#1f77b4;"/>
   </g>
   <g id="patch_6">
    <path clip-path="url(#p67e2164706)" d="M 65.771571 273.312 
L 67.39032 273.312 
L 67.39032 269.894831 
L 65.771571 269.894831 
z
" style="fill:#1f77b4;"/>
   </g>
   <g id="patch_7">
    <path clip-path="url(#p67e2164706)" d="M 67.39032 273.312 
L 69.009068 273.312 
L 69.009068 269.894831 
L 67.39032 269.894831 
z
" style="fill:#1f77b4;"/>
   </g>
   <g id="patch_8">
    <path clip-path="url(#p67e2164706)" d="M 69.009068 273.312 
L 70.627816 273.312 
L 70.627816 265.338607 
L 69.009068 265.338607 
z
" style="fill:#1f77b4;"/>
   </g>
   <g id="patch_9">
    <path clip-path="url(#p67e2164706)" d="M 70.627816 273.312 
L 72.246565 273.312 
L 72.246565 270.46436 
L 70.627816 270.46436 
z
" style="fill:#1f77b4;"/>
   </g>
   <g id="patch_10">
    <path clip-path="url(#p67e2164706)" d="M 72.246565 273.312 
L 73.865313 273.312 
L 73.865313 260.782382 
L 72.246565 260.782382 
z
" style="fill:#1f77b4;"/>
   </g>
   <g id="patch_11">
    <path clip-path="url(#p67e2164706)" d="M 73.865313 273.312 
L 75.484061 273.312 
L 75.484061 264.199551 
L 73.865313 264.199551 
z
" style="fill:#1f77b4;"/>
   </g>
   <g id="patch_12">
    <path clip-path="url(#p67e2164706)" d="M 75.484061 273.312 
L 77.102809 273.312 
L 77.102809 266.477663 
L 75.484061 266.477663 
z
" style="fill:#1f77b4;"/>
   </g>
   <g id="patch_13">
    <path clip-path="url(#p67e2164706)" d="M 77.102809 273.312 
L 78.721558 273.312 
L 78.721558 258.50427 
L 77.102809 258.50427 
z
" style="fill:#1f77b4;"/>
   </g>
   <g id="patch_14">
    <path clip-path="url(#p67e2164706)" d="M 78.721558 273.312 
L 80.340306 273.312 
L 80.340306 258.50427 
L 78.721558 258.50427 
z
" style="fill:#1f77b4;"/>
   </g>
   <g id="patch_15">
    <path clip-path="url(#p67e2164706)" d="M 80.340306 273.312 
L 81.959054 273.312 
L 81.959054 256.795685 
L 80.340306 256.795685 
z
" style="fill:#1f77b4;"/>
   </g>
   <g id="patch_16">
    <path clip-path="url(#p67e2164706)" d="M 81.959054 273.312 
L 83.577803 273.312 
L 83.577803 257.365213 
L 81.959054 257.365213 
z
" style="fill:#1f77b4;"/>
   </g>
   <g id="patch_17">
    <path clip-path="url(#p67e2164706)" d="M 83.577803 273.312 
L 85.196551 273.312 
L 85.196551 255.656629 
L 83.577803 255.656629 
z
" style="fill:#1f77b4;"/>
   </g>
   <g id="patch_18">
    <path clip-path="url(#p67e2164706)" d="M 85.196551 273.312 
L 86.815299 273.312 
L 86.815299 256.226157 
L 85.196551 256.226157 
z
" style="fill:#1f77b4;"/>
   </g>
   <g id="patch_19">
    <path clip-path="url(#p67e2164706)" d="M 86.815299 273.312 
L 88.434047 273.312 
L 88.434047 257.934742 
L 86.815299 257.934742 
z
" style="fill:#1f77b4;"/>
   </g>
   <g id="patch_20">
    <path clip-path="url(#p67e2164706)" d="M 88.434047 273.312 
L 90.052796 273.312 
L 90.052796 257.365213 
L 88.434047 257.365213 
z
" style="fill:#1f77b4;"/>
   </g>
   <g id="patch_21">
    <path clip-path="url(#p67e2164706)" d="M 90.052796 273.312 
L 91.671544 273.312 
L 91.671544 256.795685 
L 90.052796 256.795685 
z
" style="fill:#1f77b4;"/>
   </g>
   <g id="patch_22">
    <path clip-path="url(#p67e2164706)" d="M 91.671544 273.312 
L 93.290292 273.312 
L 93.290292 250.530876 
L 91.671544 250.530876 
z
" style="fill:#1f77b4;"/>
   </g>
   <g id="patch_23">
    <path clip-path="url(#p67e2164706)" d="M 93.290292 273.312 
L 94.909041 273.312 
L 94.909041 254.517573 
L 93.290292 254.517573 
z
" style="fill:#1f77b4;"/>
   </g>
   <g id="patch_24">
    <path clip-path="url(#p67e2164706)" d="M 94.909041 273.312 
L 96.527789 273.312 
L 96.527789 250.530876 
L 94.909041 250.530876 
z
" style="fill:#1f77b4;"/>
   </g>
   <g id="patch_25">
    <path clip-path="url(#p67e2164706)" d="M 96.527789 273.312 
L 98.146537 273.312 
L 98.146537 246.54418 
L 96.527789 246.54418 
z
" style="fill:#1f77b4;"/>
   </g>
   <g id="patch_26">
    <path clip-path="url(#p67e2164706)" d="M 98.146537 273.312 
L 99.765285 273.312 
L 99.765285 248.252764 
L 98.146537 248.252764 
z
" style="fill:#1f77b4;"/>
   </g>
   <g id="patch_27">
    <path clip-path="url(#p67e2164706)" d="M 99.765285 273.312 
L 101.384034 273.312 
L 101.384034 245.974652 
L 99.765285 245.974652 
z
" style="fill:#1f77b4;"/>
   </g>
   <g id="patch_28">
    <path clip-path="url(#p67e2164706)" d="M 101.384034 273.312 
L 103.002782 273.312 
L 103.002782 239.140315 
L 101.384034 239.140315 
z
" style="fill:#1f77b4;"/>
   </g>
   <g id="patch_29">
    <path clip-path="url(#p67e2164706)" d="M 103.002782 273.312 
L 104.62153 273.312 
L 104.62153 239.709843 
L 103.002782 239.709843 
z
" style="fill:#1f77b4;"/>
   </g>
   <g id="patch_30">
    <path clip-path="url(#p67e2164706)" d="M 104.62153 273.312 
L 106.240279 273.312 
L 106.240279 241.987955 
L 104.62153 241.987955 
z
" style="fill:#1f77b4;"/>
   </g>
   <g id="patch_31">
    <path clip-path="url(#p67e2164706)" d="M 106.240279 273.312 
L 107.859027 273.312 
L 107.859027 243.127011 
L 106.240279 243.127011 
z
" style="fill:#1f77b4;"/>
   </g>
   <g id="patch_32">
    <path clip-path="url(#p67e2164706)" d="M 107.859027 273.312 
L 109.477775 273.312 
L 109.477775 241.418427 
L 107.859027 241.418427 
z
" style="fill:#1f77b4;"/>
   </g>
   <g id="patch_33">
    <path clip-path="url(#p67e2164706)" d="M 109.477775 273.312 
L 111.096523 273.312 
L 111.096523 230.597393 
L 109.477775 230.597393 
z
" style="fill:#1f77b4;"/>
   </g>
   <g id="patch_34">
    <path clip-path="url(#p67e2164706)" d="M 111.096523 273.312 
L 112.715272 273.312 
L 112.715272 235.153618 
L 111.096523 235.153618 
z
" style="fill:#1f77b4;"/>
   </g>
   <g id="patch_35">
    <path clip-path="url(#p67e2164706)" d="M 112.715272 273.312 
L 114.33402 273.312 
L 114.33402 239.140315 
L 112.715272 239.140315 
z
" style="fill:#1f77b4;"/>
   </g>
   <g id="patch_36">
    <path clip-path="url(#p67e2164706)" d="M 114.33402 273.312 
L 115.952768 273.312 
L 115.952768 235.153618 
L 114.33402 235.153618 
z
" style="fill:#1f77b4;"/>
   </g>
   <g id="patch_37">
    <path clip-path="url(#p67e2164706)" d="M 115.952768 273.312 
L 117.571517 273.312 
L 117.571517 234.014562 
L 115.952768 234.014562 
z
" style="fill:#1f77b4;"/>
   </g>
   <g id="patch_38">
    <path clip-path="url(#p67e2164706)" d="M 117.571517 273.312 
L 119.190265 273.312 
L 119.190265 232.305978 
L 117.571517 232.305978 
z
" style="fill:#1f77b4;"/>
   </g>
   <g id="patch_39">
    <path clip-path="url(#p67e2164706)" d="M 119.190265 273.312 
L 120.809013 273.312 
L 120.809013 226.610697 
L 119.190265 226.610697 
z
" style="fill:#1f77b4;"/>
   </g>
   <g id="patch_40">
    <path clip-path="url(#p67e2164706)" d="M 120.809013 273.312 
L 122.427761 273.312 
L 122.427761 229.458337 
L 120.809013 229.458337 
z
" style="fill:#1f77b4;"/>
   </g>
   <g id="patch_41">
    <path clip-path="url(#p67e2164706)" d="M 122.427761 273.312 
L 124.04651 273.312 
L 124.04651 231.166921 
L 122.427761 231.166921 
z
" style="fill:#1f77b4;"/>
   </g>
   <g id="patch_42">
    <path clip-path="url(#p67e2164706)" d="M 124.04651 273.312 
L 125.665258 273.312 
L 125.665258 221.484944 
L 124.04651 221.484944 
z
" style="fill:#1f77b4;"/>
   </g>
   <g id="patch_43">
    <path clip-path="url(#p67e2164706)" d="M 125.665258 273.312 
L 127.284006 273.312 
L 127.284006 227.180225 
L 125.665258 227.180225 
z
" style="fill:#1f77b4;"/>
   </g>
   <g id="patch_44">
    <path clip-path="url(#p67e2164706)" d="M 127.284006 273.312 
L 128.902755 273.312 
L 128.902755 223.193528 
L 127.284006 223.193528 
z
" style="fill:#1f77b4;"/>
   </g>
   <g id="patch_45">
    <path clip-path="url(#p67e2164706)" d="M 128.902755 273.312 
L 130.521503 273.312 
L 130.521503 228.319281 
L 128.902755 228.319281 
z
" style="fill:#1f77b4;"/>
   </g>
   <g id="patch_46">
    <path clip-path="url(#p67e2164706)" d="M 130.521503 273.312 
L 132.140251 273.312 
L 132.140251 226.610697 
L 130.521503 226.610697 
z
" style="fill:#1f77b4;"/>
   </g>
   <g id="patch_47">
    <path clip-path="url(#p67e2164706)" d="M 132.140251 273.312 
L 133.759 273.312 
L 133.759 219.206831 
L 132.140251 219.206831 
z
" style="fill:#1f77b4;"/>
   </g>
   <g id="patch_48">
    <path clip-path="url(#p67e2164706)" d="M 133.759 273.312 
L 135.377748 273.312 
L 135.377748 222.054472 
L 133.759 222.054472 
z
" style="fill:#1f77b4;"/>
   </g>
   <g id="patch_49">
    <path clip-path="url(#p67e2164706)" d="M 135.377748 273.312 
L 136.996496 273.312 
L 136.996496 218.637303 
L 135.377748 218.637303 
z
" style="fill:#1f77b4;"/>
   </g>
   <g id="patch_50">
    <path clip-path="url(#p67e2164706)" d="M 136.996496 273.312 
L 138.615244 273.312 
L 138.615244 214.650607 
L 136.996496 214.650607 
z
" style="fill:#1f77b4;"/>
   </g>
   <g id="patch_51">
    <path clip-path="url(#p67e2164706)" d="M 138.615244 273.312 
L 140.233993 273.312 
L 140.233993 217.498247 
L 138.615244 217.498247 
z
" style="fill:#1f77b4;"/>
   </g>
   <g id="patch_52">
    <path clip-path="url(#p67e2164706)" d="M 140.233993 273.312 
L 141.852741 273.312 
L 141.852741 219.77636 
L 140.233993 219.77636 
z
" style="fill:#1f77b4;"/>
   </g>
   <g id="patch_53">
    <path clip-path="url(#p67e2164706)" d="M 141.852741 273.312 
L 143.471489 273.312 
L 143.471489 214.650607 
L 141.852741 214.650607 
z
" style="fill:#1f77b4;"/>
   </g>
   <g id="patch_54">
    <path clip-path="url(#p67e2164706)" d="M 143.471489 273.312 
L 145.090238 273.312 
L 145.090238 223.193528 
L 143.471489 223.193528 
z
" style="fill:#1f77b4;"/>
   </g>
   <g id="patch_55">
    <path clip-path="url(#p67e2164706)" d="M 145.090238 273.312 
L 146.708986 273.312 
L 146.708986 210.66391 
L 145.090238 210.66391 
z
" style="fill:#1f77b4;"/>
   </g>
   <g id="patch_56">
    <path clip-path="url(#p67e2164706)" d="M 146.708986 273.312 
L 148.327734 273.312 
L 148.327734 218.637303 
L 146.708986 218.637303 
z
" style="fill:#1f77b4;"/>
   </g>
   <g id="patch_57">
    <path clip-path="url(#p67e2164706)" d="M 148.327734 273.312 
L 149.946482 273.312 
L 149.946482 203.260045 
L 148.327734 203.260045 
z
" style="fill:#1f77b4;"/>
   </g>
   <g id="patch_58">
    <path clip-path="url(#p67e2164706)" d="M 149.946482 273.312 
L 151.565231 273.312 
L 151.565231 214.081079 
L 149.946482 214.081079 
z
" style="fill:#1f77b4;"/>
   </g>
   <g id="patch_59">
    <path clip-path="url(#p67e2164706)" d="M 151.565231 273.312 
L 153.183979 273.312 
L 153.183979 215.220135 
L 151.565231 215.220135 
z
" style="fill:#1f77b4;"/>
   </g>
   <g id="patch_60">
    <path clip-path="url(#p67e2164706)" d="M 153.183979 273.312 
L 154.802727 273.312 
L 154.802727 202.120989 
L 153.183979 202.120989 
z
" style="fill:#1f77b4;"/>
   </g>
   <g id="patch_61">
    <path clip-path="url(#p67e2164706)" d="M 154.802727 273.312 
L 156.421476 273.312 
L 156.421476 218.067775 
L 154.802727 218.067775 
z
" style="fill:#1f77b4;"/>
   </g>
   <g id="patch_62">
    <path clip-path="url(#p67e2164706)" d="M 156.421476 273.312 
L 158.040224 273.312 
L 158.040224 199.273348 
L 156.421476 199.273348 
z
" style="fill:#1f77b4;"/>
   </g>
   <g id="patch_63">
    <path clip-path="url(#p67e2164706)" d="M 158.040224 273.312 
L 159.658972 273.312 
L 159.658972 207.81627 
L 158.040224 207.81627 
z
" style="fill:#1f77b4;"/>
   </g>
   <g id="patch_64">
    <path clip-path="url(#p67e2164706)" d="M 159.658972 273.312 
L 161.27772 273.312 
L 161.27772 202.120989 
L 159.658972 202.120989 
z
" style="fill:#1f77b4;"/>
   </g>
   <g id="patch_65">
    <path clip-path="url(#p67e2164706)" d="M 161.27772 273.312 
L 162.896469 273.312 
L 162.896469 202.690517 
L 161.27772 202.690517 
z
" style="fill:#1f77b4;"/>
   </g>
   <g id="patch_66">
    <path clip-path="url(#p67e2164706)" d="M 162.896469 273.312 
L 164.515217 273.312 
L 164.515217 207.246742 
L 162.896469 207.246742 
z
" style="fill:#1f77b4;"/>
   </g>
   <g id="patch_67">
    <path clip-path="url(#p67e2164706)" d="M 164.515217 273.312 
L 166.133965 273.312 
L 166.133965 203.829573 
L 164.515217 203.829573 
z
" style="fill:#1f77b4;"/>
   </g>
   <g id="patch_68">
    <path clip-path="url(#p67e2164706)" d="M 166.133965 273.312 
L 167.752714 273.312 
L 167.752714 199.273348 
L 166.133965 199.273348 
z
" style="fill:#1f77b4;"/>
   </g>
   <g id="patch_69">
    <path clip-path="url(#p67e2164706)" d="M 167.752714 273.312 
L 169.371462 273.312 
L 169.371462 199.273348 
L 167.752714 199.273348 
z
" style="fill:#1f77b4;"/>
   </g>
   <g id="patch_70">
    <path clip-path="url(#p67e2164706)" d="M 169.371462 273.312 
L 170.99021 273.312 
L 170.99021 197.564764 
L 169.371462 197.564764 
z
" style="fill:#1f77b4;"/>
   </g>
   <g id="patch_71">
    <path clip-path="url(#p67e2164706)" d="M 170.99021 273.312 
L 172.608958 273.312 
L 172.608958 186.174202 
L 170.99021 186.174202 
z
" style="fill:#1f77b4;"/>
   </g>
   <g id="patch_72">
    <path clip-path="url(#p67e2164706)" d="M 172.608958 273.312 
L 174.227707 273.312 
L 174.227707 186.74373 
L 172.608958 186.74373 
z
" style="fill:#1f77b4;"/>
   </g>
   <g id="patch_73">
    <path clip-path="url(#p67e2164706)" d="M 174.227707 273.312 
L 175.846455 273.312 
L 175.846455 190.730427 
L 174.227707 190.730427 
z
" style="fill:#1f77b4;"/>
   </g>
   <g id="patch_74">
    <path clip-path="url(#p67e2164706)" d="M 175.846455 273.312 
L 177.465203 273.312 
L 177.465203 198.70382 
L 175.846455 198.70382 
z
" style="fill:#1f77b4;"/>
   </g>
   <g id="patch_75">
    <path clip-path="url(#p67e2164706)" d="M 177.465203 273.312 
L 179.083952 273.312 
L 179.083952 197.564764 
L 177.465203 197.564764 
z
" style="fill:#1f77b4;"/>
   </g>
   <g id="patch_76">
    <path clip-path="url(#p67e2164706)" d="M 179.083952 273.312 
L 180.7027 273.312 
L 180.7027 200.412404 
L 179.083952 200.412404 
z
" style="fill:#1f77b4;"/>
   </g>
   <g id="patch_77">
    <path clip-path="url(#p67e2164706)" d="M 180.7027 273.312 
L 182.321448 273.312 
L 182.321448 193.578067 
L 180.7027 193.578067 
z
" style="fill:#1f77b4;"/>
   </g>
   <g id="patch_78">
    <path clip-path="url(#p67e2164706)" d="M 182.321448 273.312 
L 183.940196 273.312 
L 183.940196 183.89609 
L 182.321448 183.89609 
z
" style="fill:#1f77b4;"/>
   </g>
   <g id="patch_79">
    <path clip-path="url(#p67e2164706)" d="M 183.940196 273.312 
L 185.558945 273.312 
L 185.558945 177.631281 
L 183.940196 177.631281 
z
" style="fill:#1f77b4;"/>
   </g>
   <g id="patch_80">
    <path clip-path="url(#p67e2164706)" d="M 185.558945 273.312 
L 187.177693 273.312 
L 187.177693 178.200809 
L 185.558945 178.200809 
z
" style="fill:#1f77b4;"/>
   </g>
   <g id="patch_81">
    <path clip-path="url(#p67e2164706)" d="M 187.177693 273.312 
L 188.796441 273.312 
L 188.796441 189.591371 
L 187.177693 189.591371 
z
" style="fill:#1f77b4;"/>
   </g>
   <g id="patch_82">
    <path clip-path="url(#p67e2164706)" d="M 188.796441 273.312 
L 190.41519 273.312 
L 190.41519 162.823551 
L 188.796441 162.823551 
z
" style="fill:#1f77b4;"/>
   </g>
   <g id="patch_83">
    <path clip-path="url(#p67e2164706)" d="M 190.41519 273.312 
L 192.033938 273.312 
L 192.033938 183.326562 
L 190.41519 183.326562 
z
" style="fill:#1f77b4;"/>
   </g>
   <g id="patch_84">
    <path clip-path="url(#p67e2164706)" d="M 192.033938 273.312 
L 193.652686 273.312 
L 193.652686 166.240719 
L 192.033938 166.240719 
z
" style="fill:#1f77b4;"/>
   </g>
   <g id="patch_85">
    <path clip-path="url(#p67e2164706)" d="M 193.652686 273.312 
L 195.271434 273.312 
L 195.271434 181.617978 
L 193.652686 181.617978 
z
" style="fill:#1f77b4;"/>
   </g>
   <g id="patch_86">
    <path clip-path="url(#p67e2164706)" d="M 195.271434 273.312 
L 196.890183 273.312 
L 196.890183 180.478921 
L 195.271434 180.478921 
z
" style="fill:#1f77b4;"/>
   </g>
   <g id="patch_87">
    <path clip-path="url(#p67e2164706)" d="M 196.890183 273.312 
L 198.508931 273.312 
L 198.508931 185.604674 
L 196.890183 185.604674 
z
" style="fill:#1f77b4;"/>
   </g>
   <g id="patch_88">
    <path clip-path="url(#p67e2164706)" d="M 198.508931 273.312 
L 200.127679 273.312 
L 200.127679 166.240719 
L 198.508931 166.240719 
z
" style="fill:#1f77b4;"/>
   </g>
   <g id="patch_89">
    <path clip-path="url(#p67e2164706)" d="M 200.127679 273.312 
L 201.746428 273.312 
L 201.746428 167.949303 
L 200.127679 167.949303 
z
" style="fill:#1f77b4;"/>
   </g>
   <g id="patch_90">
    <path clip-path="url(#p67e2164706)" d="M 201.746428 273.312 
L 203.365176 273.312 
L 203.365176 165.101663 
L 201.746428 165.101663 
z
" style="fill:#1f77b4;"/>
   </g>
   <g id="patch_91">
    <path clip-path="url(#p67e2164706)" d="M 203.365176 273.312 
L 204.983924 273.312 
L 204.983924 166.810247 
L 203.365176 166.810247 
z
" style="fill:#1f77b4;"/>
   </g>
   <g id="patch_92">
    <path clip-path="url(#p67e2164706)" d="M 204.983924 273.312 
L 206.602672 273.312 
L 206.602672 174.214112 
L 204.983924 174.214112 
z
" style="fill:#1f77b4;"/>
   </g>
   <g id="patch_93">
    <path clip-path="url(#p67e2164706)" d="M 206.602672 273.312 
L 208.221421 273.312 
L 208.221421 178.770337 
L 206.602672 178.770337 
z
" style="fill:#1f77b4;"/>
   </g>
   <g id="patch_94">
    <path clip-path="url(#p67e2164706)" d="M 208.221421 273.312 
L 209.840169 273.312 
L 209.840169 151.432989 
L 208.221421 151.432989 
z
" style="fill:#1f77b4;"/>
   </g>
   <g id="patch_95">
    <path clip-path="url(#p67e2164706)" d="M 209.840169 273.312 
L 211.458917 273.312 
L 211.458917 168.518831 
L 209.840169 168.518831 
z
" style="fill:#1f77b4;"/>
   </g>
   <g id="patch_96">
    <path clip-path="url(#p67e2164706)" d="M 211.458917 273.312 
L 213.077666 273.312 
L 213.077666 159.97591 
L 211.458917 159.97591 
z
" style="fill:#1f77b4;"/>
   </g>
   <g id="patch_97">
    <path clip-path="url(#p67e2164706)" d="M 213.077666 273.312 
L 214.696414 273.312 
L 214.696414 162.823551 
L 213.077666 162.823551 
z
" style="fill:#1f77b4;"/>
   </g>
   <g id="patch_98">
    <path clip-path="url(#p67e2164706)" d="M 214.696414 273.312 
L 216.315162 273.312 
L 216.315162 166.240719 
L 214.696414 166.240719 
z
" style="fill:#1f77b4;"/>
   </g>
   <g id="patch_99">
    <path clip-path="url(#p67e2164706)" d="M 216.315162 273.312 
L 217.93391 273.312 
L 217.93391 163.393079 
L 216.315162 163.393079 
z
" style="fill:#1f77b4;"/>
   </g>
   <g id="patch_100">
    <path clip-path="url(#p67e2164706)" d="M 217.93391 273.312 
L 219.552659 273.312 
L 219.552659 165.671191 
L 217.93391 165.671191 
z
" style="fill:#1f77b4;"/>
   </g>
   <g id="patch_101">
    <path clip-path="url(#p67e2164706)" d="M 219.552659 273.312 
L 221.171407 273.312 
L 221.171407 165.101663 
L 219.552659 165.101663 
z
" style="fill:#1f77b4;"/>
   </g>
   <g id="patch_102">
    <path clip-path="url(#p67e2164706)" d="M 221.171407 273.312 
L 222.790155 273.312 
L 222.790155 152.572045 
L 221.171407 152.572045 
z
" style="fill:#1f77b4;"/>
   </g>
   <g id="patch_103">
    <path clip-path="url(#p67e2164706)" d="M 222.790155 273.312 
L 224.408904 273.312 
L 224.408904 144.029124 
L 222.790155 144.029124 
z
" style="fill:#1f77b4;"/>
   </g>
   <g id="patch_104">
    <path clip-path="url(#p67e2164706)" d="M 224.408904 273.312 
L 226.027652 273.312 
L 226.027652 163.393079 
L 224.408904 163.393079 
z
" style="fill:#1f77b4;"/>
   </g>
   <g id="patch_105">
    <path clip-path="url(#p67e2164706)" d="M 226.027652 273.312 
L 227.6464 273.312 
L 227.6464 146.876764 
L 226.027652 146.876764 
z
" style="fill:#1f77b4;"/>
   </g>
   <g id="patch_106">
    <path clip-path="url(#p67e2164706)" d="M 227.6464 273.312 
L 229.265149 273.312 
L 229.265149 157.12827 
L 227.6464 157.12827 
z
" style="fill:#1f77b4;"/>
   </g>
   <g id="patch_107">
    <path clip-path="url(#p67e2164706)" d="M 229.265149 273.312 
L 230.883897 273.312 
L 230.883897 153.711101 
L 229.265149 153.711101 
z
" style="fill:#1f77b4;"/>
   </g>
   <g id="patch_108">
    <path clip-path="url(#p67e2164706)" d="M 230.883897 273.312 
L 232.502645 273.312 
L 232.502645 145.737708 
L 230.883897 145.737708 
z
" style="fill:#1f77b4;"/>
   </g>
   <g id="patch_109">
    <path clip-path="url(#p67e2164706)" d="M 232.502645 273.312 
L 234.121393 273.312 
L 234.121393 153.711101 
L 232.502645 153.711101 
z
" style="fill:#1f77b4;"/>
   </g>
   <g id="patch_110">
    <path clip-path="url(#p67e2164706)" d="M 234.121393 273.312 
L 235.740142 273.312 
L 235.740142 140.611955 
L 234.121393 140.611955 
z
" style="fill:#1f77b4;"/>
   </g>
   <g id="patch_111">
    <path clip-path="url(#p67e2164706)" d="M 235.740142 273.312 
L 237.35889 273.312 
L 237.35889 161.684494 
L 235.740142 161.684494 
z
" style="fill:#1f77b4;"/>
   </g>
   <g id="patch_112">
    <path clip-path="url(#p67e2164706)" d="M 237.35889 273.312 
L 238.977638 273.312 
L 238.977638 150.293933 
L 237.35889 150.293933 
z
" style="fill:#1f77b4;"/>
   </g>
   <g id="patch_113">
    <path clip-path="url(#p67e2164706)" d="M 238.977638 273.312 
L 240.596387 273.312 
L 240.596387 152.002517 
L 238.977638 152.002517 
z
" style="fill:#1f77b4;"/>
   </g>
   <g id="patch_114">
    <path clip-path="url(#p67e2164706)" d="M 240.596387 273.312 
L 242.215135 273.312 
L 242.215135 157.12827 
L 240.596387 157.12827 
z
" style="fill:#1f77b4;"/>
   </g>
   <g id="patch_115">
    <path clip-path="url(#p67e2164706)" d="M 242.215135 273.312 
L 243.833883 273.312 
L 243.833883 150.863461 
L 242.215135 150.863461 
z
" style="fill:#1f77b4;"/>
   </g>
   <g id="patch_116">
    <path clip-path="url(#p67e2164706)" d="M 243.833883 273.312 
L 245.452631 273.312 
L 245.452631 146.307236 
L 243.833883 146.307236 
z
" style="fill:#1f77b4;"/>
   </g>
   <g id="patch_117">
    <path clip-path="url(#p67e2164706)" d="M 245.452631 273.312 
L 247.07138 273.312 
L 247.07138 163.962607 
L 245.452631 163.962607 
z
" style="fill:#1f77b4;"/>
   </g>
   <g id="patch_118">
    <path clip-path="url(#p67e2164706)" d="M 247.07138 273.312 
L 248.690128 273.312 
L 248.690128 158.836854 
L 247.07138 158.836854 
z
" style="fill:#1f77b4;"/>
   </g>
   <g id="patch_119">
    <path clip-path="url(#p67e2164706)" d="M 248.690128 273.312 
L 250.308876 273.312 
L 250.308876 140.611955 
L 248.690128 140.611955 
z
" style="fill:#1f77b4;"/>
   </g>
   <g id="patch_120">
    <path clip-path="url(#p67e2164706)" d="M 250.308876 273.312 
L 251.927625 273.312 
L 251.927625 147.446292 
L 250.308876 147.446292 
z
" style="fill:#1f77b4;"/>
   </g>
   <g id="patch_121">
    <path clip-path="url(#p67e2164706)" d="M 251.927625 273.312 
L 253.546373 273.312 
L 253.546373 130.360449 
L 251.927625 130.360449 
z
" style="fill:#1f77b4;"/>
   </g>
   <g id="patch_122">
    <path clip-path="url(#p67e2164706)" d="M 253.546373 273.312 
L 255.165121 273.312 
L 255.165121 148.585348 
L 253.546373 148.585348 
z
" style="fill:#1f77b4;"/>
   </g>
   <g id="patch_123">
    <path clip-path="url(#p67e2164706)" d="M 255.165121 273.312 
L 256.783869 273.312 
L 256.783869 115.552719 
L 255.165121 115.552719 
z
" style="fill:#1f77b4;"/>
   </g>
   <g id="patch_124">
    <path clip-path="url(#p67e2164706)" d="M 256.783869 273.312 
L 258.402618 273.312 
L 258.402618 128.651865 
L 256.783869 128.651865 
z
" style="fill:#1f77b4;"/>
   </g>
   <g id="patch_125">
    <path clip-path="url(#p67e2164706)" d="M 258.402618 273.312 
L 260.021366 273.312 
L 260.021366 126.373753 
L 258.402618 126.373753 
z
" style="fill:#1f77b4;"/>
   </g>
   <g id="patch_126">
    <path clip-path="url(#p67e2164706)" d="M 260.021366 273.312 
L 261.640114 273.312 
L 261.640114 144.598652 
L 260.021366 144.598652 
z
" style="fill:#1f77b4;"/>
   </g>
   <g id="patch_127">
    <path clip-path="url(#p67e2164706)" d="M 261.640114 273.312 
L 263.258863 273.312 
L 263.258863 138.903371 
L 261.640114 138.903371 
z
" style="fill:#1f77b4;"/>
   </g>
   <g id="patch_128">
    <path clip-path="url(#p67e2164706)" d="M 263.258863 273.312 
L 264.877611 273.312 
L 264.877611 140.611955 
L 263.258863 140.611955 
z
" style="fill:#1f77b4;"/>
   </g>
   <g id="patch_129">
    <path clip-path="url(#p67e2164706)" d="M 264.877611 273.312 
L 266.496359 273.312 
L 266.496359 122.956584 
L 264.877611 122.956584 
z
" style="fill:#1f77b4;"/>
   </g>
   <g id="patch_130">
    <path clip-path="url(#p67e2164706)" d="M 266.496359 273.312 
L 268.115107 273.312 
L 268.115107 136.05573 
L 266.496359 136.05573 
z
" style="fill:#1f77b4;"/>
   </g>
   <g id="patch_131">
    <path clip-path="url(#p67e2164706)" d="M 268.115107 273.312 
L 269.733856 273.312 
L 269.733856 131.499506 
L 268.115107 131.499506 
z
" style="fill:#1f77b4;"/>
   </g>
   <g id="patch_132">
    <path clip-path="url(#p67e2164706)" d="M 269.733856 273.312 
L 271.352604 273.312 
L 271.352604 139.472899 
L 269.733856 139.472899 
z
" style="fill:#1f77b4;"/>
   </g>
   <g id="patch_133">
    <path clip-path="url(#p67e2164706)" d="M 271.352604 273.312 
L 272.971352 273.312 
L 272.971352 109.28791 
L 271.352604 109.28791 
z
" style="fill:#1f77b4;"/>
   </g>
   <g id="patch_134">
    <path clip-path="url(#p67e2164706)" d="M 272.971352 273.312 
L 274.590101 273.312 
L 274.590101 130.360449 
L 272.971352 130.360449 
z
" style="fill:#1f77b4;"/>
   </g>
   <g id="patch_135">
    <path clip-path="url(#p67e2164706)" d="M 274.590101 273.312 
L 276.208849 273.312 
L 276.208849 133.20809 
L 274.590101 133.20809 
z
" style="fill:#1f77b4;"/>
   </g>
   <g id="patch_136">
    <path clip-path="url(#p67e2164706)" d="M 276.208849 273.312 
L 277.827597 273.312 
L 277.827597 103.023101 
L 276.208849 103.023101 
z
" style="fill:#1f77b4;"/>
   </g>
   <g id="patch_137">
    <path clip-path="url(#p67e2164706)" d="M 277.827597 273.312 
L 279.446345 273.312 
L 279.446345 122.387056 
L 277.827597 122.387056 
z
" style="fill:#1f77b4;"/>
   </g>
   <g id="patch_138">
    <path clip-path="url(#p67e2164706)" d="M 279.446345 273.312 
L 281.065094 273.312 
L 281.065094 125.234697 
L 279.446345 125.234697 
z
" style="fill:#1f77b4;"/>
   </g>
   <g id="patch_139">
    <path clip-path="url(#p67e2164706)" d="M 281.065094 273.312 
L 282.683842 273.312 
L 282.683842 109.857438 
L 281.065094 109.857438 
z
" style="fill:#1f77b4;"/>
   </g>
   <g id="patch_140">
    <path clip-path="url(#p67e2164706)" d="M 282.683842 273.312 
L 284.30259 273.312 
L 284.30259 126.373753 
L 282.683842 126.373753 
z
" style="fill:#1f77b4;"/>
   </g>
   <g id="patch_141">
    <path clip-path="url(#p67e2164706)" d="M 284.30259 273.312 
L 285.921339 273.312 
L 285.921339 108.718382 
L 284.30259 108.718382 
z
" style="fill:#1f77b4;"/>
   </g>
   <g id="patch_142">
    <path clip-path="url(#p67e2164706)" d="M 285.921339 273.312 
L 287.540087 273.312 
L 287.540087 115.552719 
L 285.921339 115.552719 
z
" style="fill:#1f77b4;"/>
   </g>
   <g id="patch_143">
    <path clip-path="url(#p67e2164706)" d="M 287.540087 273.312 
L 289.158835 273.312 
L 289.158835 114.413663 
L 287.540087 114.413663 
z
" style="fill:#1f77b4;"/>
   </g>
   <g id="patch_144">
    <path clip-path="url(#p67e2164706)" d="M 289.158835 273.312 
L 290.777583 273.312 
L 290.777583 130.360449 
L 289.158835 130.360449 
z
" style="fill:#1f77b4;"/>
   </g>
   <g id="patch_145">
    <path clip-path="url(#p67e2164706)" d="M 290.777583 273.312 
L 292.396332 273.312 
L 292.396332 116.691775 
L 290.777583 116.691775 
z
" style="fill:#1f77b4;"/>
   </g>
   <g id="patch_146">
    <path clip-path="url(#p67e2164706)" d="M 292.396332 273.312 
L 294.01508 273.312 
L 294.01508 120.678472 
L 292.396332 120.678472 
z
" style="fill:#1f77b4;"/>
   </g>
   <g id="patch_147">
    <path clip-path="url(#p67e2164706)" d="M 294.01508 273.312 
L 295.633828 273.312 
L 295.633828 105.870742 
L 294.01508 105.870742 
z
" style="fill:#1f77b4;"/>
   </g>
   <g id="patch_148">
    <path clip-path="url(#p67e2164706)" d="M 295.633828 273.312 
L 297.252577 273.312 
L 297.252577 117.261303 
L 295.633828 117.261303 
z
" style="fill:#1f77b4;"/>
   </g>
   <g id="patch_149">
    <path clip-path="url(#p67e2164706)" d="M 297.252577 273.312 
L 298.871325 273.312 
L 298.871325 115.552719 
L 297.252577 115.552719 
z
" style="fill:#1f77b4;"/>
   </g>
   <g id="patch_150">
    <path clip-path="url(#p67e2164706)" d="M 298.871325 273.312 
L 300.490073 273.312 
L 300.490073 116.122247 
L 298.871325 116.122247 
z
" style="fill:#1f77b4;"/>
   </g>
   <g id="patch_151">
    <path clip-path="url(#p67e2164706)" d="M 300.490073 273.312 
L 302.108821 273.312 
L 302.108821 108.718382 
L 300.490073 108.718382 
z
" style="fill:#1f77b4;"/>
   </g>
   <g id="patch_152">
    <path clip-path="url(#p67e2164706)" d="M 302.108821 273.312 
L 303.72757 273.312 
L 303.72757 112.705079 
L 302.108821 112.705079 
z
" style="fill:#1f77b4;"/>
   </g>
   <g id="patch_153">
    <path clip-path="url(#p67e2164706)" d="M 303.72757 273.312 
L 305.346318 273.312 
L 305.346318 96.758292 
L 303.72757 96.758292 
z
" style="fill:#1f77b4;"/>
   </g>
   <g id="patch_154">
    <path clip-path="url(#p67e2164706)" d="M 305.346318 273.312 
L 306.965066 273.312 
L 306.965066 107.009798 
L 305.346318 107.009798 
z
" style="fill:#1f77b4;"/>
   </g>
   <g id="patch_155">
    <path clip-path="url(#p67e2164706)" d="M 306.965066 273.312 
L 308.583815 273.312 
L 308.583815 96.758292 
L 306.965066 96.758292 
z
" style="fill:#1f77b4;"/>
   </g>
   <g id="patch_156">
    <path clip-path="url(#p67e2164706)" d="M 308.583815 273.312 
L 310.202563 273.312 
L 310.202563 110.996494 
L 308.583815 110.996494 
z
" style="fill:#1f77b4;"/>
   </g>
   <g id="patch_157">
    <path clip-path="url(#p67e2164706)" d="M 310.202563 273.312 
L 311.821311 273.312 
L 311.821311 100.744989 
L 310.202563 100.744989 
z
" style="fill:#1f77b4;"/>
   </g>
   <g id="patch_158">
    <path clip-path="url(#p67e2164706)" d="M 311.821311 273.312 
L 313.440059 273.312 
L 313.440059 93.341124 
L 311.821311 93.341124 
z
" style="fill:#1f77b4;"/>
   </g>
   <g id="patch_159">
    <path clip-path="url(#p67e2164706)" d="M 313.440059 273.312 
L 315.058808 273.312 
L 315.058808 112.135551 
L 313.440059 112.135551 
z
" style="fill:#1f77b4;"/>
   </g>
   <g id="patch_160">
    <path clip-path="url(#p67e2164706)" d="M 315.058808 273.312 
L 316.677556 273.312 
L 316.677556 97.32782 
L 315.058808 97.32782 
z
" style="fill:#1f77b4;"/>
   </g>
   <g id="patch_161">
    <path clip-path="url(#p67e2164706)" d="M 316.677556 273.312 
L 318.296304 273.312 
L 318.296304 84.228674 
L 316.677556 84.228674 
z
" style="fill:#1f77b4;"/>
   </g>
   <g id="patch_162">
    <path clip-path="url(#p67e2164706)" d="M 318.296304 273.312 
L 319.915053 273.312 
L 319.915053 110.426966 
L 318.296304 110.426966 
z
" style="fill:#1f77b4;"/>
   </g>
   <g id="patch_163">
    <path clip-path="url(#p67e2164706)" d="M 319.915053 273.312 
L 321.533801 273.312 
L 321.533801 90.493483 
L 319.915053 90.493483 
z
" style="fill:#1f77b4;"/>
   </g>
   <g id="patch_164">
    <path clip-path="url(#p67e2164706)" d="M 321.533801 273.312 
L 323.152549 273.312 
L 323.152549 79.672449 
L 321.533801 79.672449 
z
" style="fill:#1f77b4;"/>
   </g>
   <g id="patch_165">
    <path clip-path="url(#p67e2164706)" d="M 323.152549 273.312 
L 324.771298 273.312 
L 324.771298 75.685753 
L 323.152549 75.685753 
z
" style="fill:#1f77b4;"/>
   </g>
   <g id="patch_166">
    <path clip-path="url(#p67e2164706)" d="M 324.771298 273.312 
L 326.390046 273.312 
L 326.390046 84.798202 
L 324.771298 84.798202 
z
" style="fill:#1f77b4;"/>
   </g>
   <g id="patch_167">
    <path clip-path="url(#p67e2164706)" d="M 326.390046 273.312 
L 328.008794 273.312 
L 328.008794 81.950562 
L 326.390046 81.950562 
z
" style="fill:#1f77b4;"/>
   </g>
   <g id="patch_168">
    <path clip-path="url(#p67e2164706)" d="M 328.008794 273.312 
L 329.627542 273.312 
L 329.627542 97.897348 
L 328.008794 97.897348 
z
" style="fill:#1f77b4;"/>
   </g>
   <g id="patch_169">
    <path clip-path="url(#p67e2164706)" d="M 329.627542 273.312 
L 331.246291 273.312 
L 331.246291 91.063011 
L 329.627542 91.063011 
z
" style="fill:#1f77b4;"/>
   </g>
   <g id="patch_170">
    <path clip-path="url(#p67e2164706)" d="M 331.246291 273.312 
L 332.865039 273.312 
L 332.865039 88.215371 
L 331.246291 88.215371 
z
" style="fill:#1f77b4;"/>
   </g>
   <g id="patch_171">
    <path clip-path="url(#p67e2164706)" d="M 332.865039 273.312 
L 334.483787 273.312 
L 334.483787 76.255281 
L 332.865039 76.255281 
z
" style="fill:#1f77b4;"/>
   </g>
   <g id="patch_172">
    <path clip-path="url(#p67e2164706)" d="M 334.483787 273.312 
L 336.102536 273.312 
L 336.102536 75.685753 
L 334.483787 75.685753 
z
" style="fill:#1f77b4;"/>
   </g>
   <g id="patch_173">
    <path clip-path="url(#p67e2164706)" d="M 336.102536 273.312 
L 337.721284 273.312 
L 337.721284 81.381034 
L 336.102536 81.381034 
z
" style="fill:#1f77b4;"/>
   </g>
   <g id="patch_174">
    <path clip-path="url(#p67e2164706)" d="M 337.721284 273.312 
L 339.340032 273.312 
L 339.340032 96.758292 
L 337.721284 96.758292 
z
" style="fill:#1f77b4;"/>
   </g>
   <g id="patch_175">
    <path clip-path="url(#p67e2164706)" d="M 339.340032 273.312 
L 340.95878 273.312 
L 340.95878 72.838112 
L 339.340032 72.838112 
z
" style="fill:#1f77b4;"/>
   </g>
   <g id="patch_176">
    <path clip-path="url(#p67e2164706)" d="M 340.95878 273.312 
L 342.577529 273.312 
L 342.577529 84.228674 
L 340.95878 84.228674 
z
" style="fill:#1f77b4;"/>
   </g>
   <g id="patch_177">
    <path clip-path="url(#p67e2164706)" d="M 342.577529 273.312 
L 344.196277 273.312 
L 344.196277 68.851416 
L 342.577529 68.851416 
z
" style="fill:#1f77b4;"/>
   </g>
   <g id="patch_178">
    <path clip-path="url(#p67e2164706)" d="M 344.196277 273.312 
L 345.815025 273.312 
L 345.815025 49.487461 
L 344.196277 49.487461 
z
" style="fill:#1f77b4;"/>
   </g>
   <g id="patch_179">
    <path clip-path="url(#p67e2164706)" d="M 345.815025 273.312 
L 347.433774 273.312 
L 347.433774 54.613213 
L 345.815025 54.613213 
z
" style="fill:#1f77b4;"/>
   </g>
   <g id="patch_180">
    <path clip-path="url(#p67e2164706)" d="M 347.433774 273.312 
L 349.052522 273.312 
L 349.052522 63.156135 
L 347.433774 63.156135 
z
" style="fill:#1f77b4;"/>
   </g>
   <g id="patch_181">
    <path clip-path="url(#p67e2164706)" d="M 349.052522 273.312 
L 350.67127 273.312 
L 350.67127 62.017079 
L 349.052522 62.017079 
z
" style="fill:#1f77b4;"/>
   </g>
   <g id="patch_182">
    <path clip-path="url(#p67e2164706)" d="M 350.67127 273.312 
L 352.290018 273.312 
L 352.290018 77.963865 
L 350.67127 77.963865 
z
" style="fill:#1f77b4;"/>
   </g>
   <g id="patch_183">
    <path clip-path="url(#p67e2164706)" d="M 352.290018 273.312 
L 353.908767 273.312 
L 353.908767 75.685753 
L 352.290018 75.685753 
z
" style="fill:#1f77b4;"/>
   </g>
   <g id="patch_184">
    <path clip-path="url(#p67e2164706)" d="M 353.908767 273.312 
L 355.527515 273.312 
L 355.527515 69.420944 
L 353.908767 69.420944 
z
" style="fill:#1f77b4;"/>
   </g>
   <g id="patch_185">
    <path clip-path="url(#p67e2164706)" d="M 355.527515 273.312 
L 357.146263 273.312 
L 357.146263 59.169438 
L 355.527515 59.169438 
z
" style="fill:#1f77b4;"/>
   </g>
   <g id="patch_186">
    <path clip-path="url(#p67e2164706)" d="M 357.146263 273.312 
L 358.765012 273.312 
L 358.765012 64.864719 
L 357.146263 64.864719 
z
" style="fill:#1f77b4;"/>
   </g>
   <g id="patch_187">
    <path clip-path="url(#p67e2164706)" d="M 358.765012 273.312 
L 360.38376 273.312 
L 360.38376 43.222652 
L 358.765012 43.222652 
z
" style="fill:#1f77b4;"/>
   </g>
   <g id="patch_188">
    <path clip-path="url(#p67e2164706)" d="M 360.38376 273.312 
L 362.002508 273.312 
L 362.002508 72.838112 
L 360.38376 72.838112 
z
" style="fill:#1f77b4;"/>
   </g>
   <g id="patch_189">
    <path clip-path="url(#p67e2164706)" d="M 362.002508 273.312 
L 363.621256 273.312 
L 363.621256 66.003775 
L 362.002508 66.003775 
z
" style="fill:#1f77b4;"/>
   </g>
   <g id="patch_190">
    <path clip-path="url(#p67e2164706)" d="M 363.621256 273.312 
L 365.240005 273.312 
L 365.240005 40.944539 
L 363.621256 40.944539 
z
" style="fill:#1f77b4;"/>
   </g>
   <g id="patch_191">
    <path clip-path="url(#p67e2164706)" d="M 365.240005 273.312 
L 366.858753 273.312 
L 366.858753 73.40764 
L 365.240005 73.40764 
z
" style="fill:#1f77b4;"/>
   </g>
   <g id="patch_192">
    <path clip-path="url(#p67e2164706)" d="M 366.858753 273.312 
L 368.477501 273.312 
L 368.477501 44.361708 
L 366.858753 44.361708 
z
" style="fill:#1f77b4;"/>
   </g>
   <g id="patch_193">
    <path clip-path="url(#p67e2164706)" d="M 368.477501 273.312 
L 370.09625 273.312 
L 370.09625 33.540674 
L 368.477501 33.540674 
z
" style="fill:#1f77b4;"/>
   </g>
   <g id="patch_194">
    <path clip-path="url(#p67e2164706)" d="M 370.09625 273.312 
L 371.714998 273.312 
L 371.714998 48.917933 
L 370.09625 48.917933 
z
" style="fill:#1f77b4;"/>
   </g>
   <g id="patch_195">
    <path clip-path="url(#p67e2164706)" d="M 371.714998 273.312 
L 373.333746 273.312 
L 373.333746 49.487461 
L 371.714998 49.487461 
z
" style="fill:#1f77b4;"/>
   </g>
   <g id="patch_196">
    <path clip-path="url(#p67e2164706)" d="M 373.333746 273.312 
L 374.952494 273.312 
L 374.952494 47.778876 
L 373.333746 47.778876 
z
" style="fill:#1f77b4;"/>
   </g>
   <g id="patch_197">
    <path clip-path="url(#p67e2164706)" d="M 374.952494 273.312 
L 376.571243 273.312 
L 376.571243 57.460854 
L 374.952494 57.460854 
z
" style="fill:#1f77b4;"/>
   </g>
   <g id="patch_198">
    <path clip-path="url(#p67e2164706)" d="M 376.571243 273.312 
L 378.189991 273.312 
L 378.189991 56.321798 
L 376.571243 56.321798 
z
" style="fill:#1f77b4;"/>
   </g>
   <g id="patch_199">
    <path clip-path="url(#p67e2164706)" d="M 378.189991 273.312 
L 379.808739 273.312 
L 379.808739 48.917933 
L 378.189991 48.917933 
z
" style="fill:#1f77b4;"/>
   </g>
   <g id="patch_200">
    <path clip-path="url(#p67e2164706)" d="M 379.808739 273.312 
L 381.427488 273.312 
L 381.427488 27.845393 
L 379.808739 27.845393 
z
" style="fill:#1f77b4;"/>
   </g>
   <g id="patch_201">
    <path clip-path="url(#p67e2164706)" d="M 381.427488 273.312 
L 383.046236 273.312 
L 383.046236 19.872 
L 381.427488 19.872 
z
" style="fill:#1f77b4;"/>
   </g>
   <g id="patch_202">
    <path clip-path="url(#p67e2164706)" d="M 383.046236 273.312 
L 384.664984 273.312 
L 384.664984 50.056989 
L 383.046236 50.056989 
z
" style="fill:#1f77b4;"/>
   </g>
   <g id="matplotlib.axis_1">
    <g id="xtick_1">
     <g id="line2d_1">
      <defs>
       <path d="M 0 0 
L 0 3.5 
" id="m48bb9dfce3" style="stroke:#000000;stroke-width:0.8;"/>
      </defs>
      <g>
       <use style="stroke:#000000;stroke-width:0.8;" x="60.013977" xlink:href="#m48bb9dfce3" y="273.312"/>
      </g>
     </g>
     <g id="text_1">
      <!-- 0.0 -->
      <g transform="translate(52.062415 287.910437)scale(0.1 -0.1)">
       <defs>
        <path d="M 2034 4250 
Q 1547 4250 1301 3770 
Q 1056 3291 1056 2328 
Q 1056 1369 1301 889 
Q 1547 409 2034 409 
Q 2525 409 2770 889 
Q 3016 1369 3016 2328 
Q 3016 3291 2770 3770 
Q 2525 4250 2034 4250 
z
M 2034 4750 
Q 2819 4750 3233 4129 
Q 3647 3509 3647 2328 
Q 3647 1150 3233 529 
Q 2819 -91 2034 -91 
Q 1250 -91 836 529 
Q 422 1150 422 2328 
Q 422 3509 836 4129 
Q 1250 4750 2034 4750 
z
" id="DejaVuSans-30" transform="scale(0.015625)"/>
        <path d="M 684 794 
L 1344 794 
L 1344 0 
L 684 0 
L 684 794 
z
" id="DejaVuSans-2e" transform="scale(0.015625)"/>
       </defs>
       <use xlink:href="#DejaVuSans-30"/>
       <use x="63.623047" xlink:href="#DejaVuSans-2e"/>
       <use x="95.410156" xlink:href="#DejaVuSans-30"/>
      </g>
     </g>
    </g>
    <g id="xtick_2">
     <g id="line2d_2">
      <g>
       <use style="stroke:#000000;stroke-width:0.8;" x="124.944886" xlink:href="#m48bb9dfce3" y="273.312"/>
      </g>
     </g>
     <g id="text_2">
      <!-- 0.2 -->
      <g transform="translate(116.993324 287.910437)scale(0.1 -0.1)">
       <defs>
        <path d="M 1228 531 
L 3431 531 
L 3431 0 
L 469 0 
L 469 531 
Q 828 903 1448 1529 
Q 2069 2156 2228 2338 
Q 2531 2678 2651 2914 
Q 2772 3150 2772 3378 
Q 2772 3750 2511 3984 
Q 2250 4219 1831 4219 
Q 1534 4219 1204 4116 
Q 875 4013 500 3803 
L 500 4441 
Q 881 4594 1212 4672 
Q 1544 4750 1819 4750 
Q 2544 4750 2975 4387 
Q 3406 4025 3406 3419 
Q 3406 3131 3298 2873 
Q 3191 2616 2906 2266 
Q 2828 2175 2409 1742 
Q 1991 1309 1228 531 
z
" id="DejaVuSans-32" transform="scale(0.015625)"/>
       </defs>
       <use xlink:href="#DejaVuSans-30"/>
       <use x="63.623047" xlink:href="#DejaVuSans-2e"/>
       <use x="95.410156" xlink:href="#DejaVuSans-32"/>
      </g>
     </g>
    </g>
    <g id="xtick_3">
     <g id="line2d_3">
      <g>
       <use style="stroke:#000000;stroke-width:0.8;" x="189.875795" xlink:href="#m48bb9dfce3" y="273.312"/>
      </g>
     </g>
     <g id="text_3">
      <!-- 0.4 -->
      <g transform="translate(181.924233 287.910437)scale(0.1 -0.1)">
       <defs>
        <path d="M 2419 4116 
L 825 1625 
L 2419 1625 
L 2419 4116 
z
M 2253 4666 
L 3047 4666 
L 3047 1625 
L 3713 1625 
L 3713 1100 
L 3047 1100 
L 3047 0 
L 2419 0 
L 2419 1100 
L 313 1100 
L 313 1709 
L 2253 4666 
z
" id="DejaVuSans-34" transform="scale(0.015625)"/>
       </defs>
       <use xlink:href="#DejaVuSans-30"/>
       <use x="63.623047" xlink:href="#DejaVuSans-2e"/>
       <use x="95.410156" xlink:href="#DejaVuSans-34"/>
      </g>
     </g>
    </g>
    <g id="xtick_4">
     <g id="line2d_4">
      <g>
       <use style="stroke:#000000;stroke-width:0.8;" x="254.806705" xlink:href="#m48bb9dfce3" y="273.312"/>
      </g>
     </g>
     <g id="text_4">
      <!-- 0.6 -->
      <g transform="translate(246.855142 287.910437)scale(0.1 -0.1)">
       <defs>
        <path d="M 2113 2584 
Q 1688 2584 1439 2293 
Q 1191 2003 1191 1497 
Q 1191 994 1439 701 
Q 1688 409 2113 409 
Q 2538 409 2786 701 
Q 3034 994 3034 1497 
Q 3034 2003 2786 2293 
Q 2538 2584 2113 2584 
z
M 3366 4563 
L 3366 3988 
Q 3128 4100 2886 4159 
Q 2644 4219 2406 4219 
Q 1781 4219 1451 3797 
Q 1122 3375 1075 2522 
Q 1259 2794 1537 2939 
Q 1816 3084 2150 3084 
Q 2853 3084 3261 2657 
Q 3669 2231 3669 1497 
Q 3669 778 3244 343 
Q 2819 -91 2113 -91 
Q 1303 -91 875 529 
Q 447 1150 447 2328 
Q 447 3434 972 4092 
Q 1497 4750 2381 4750 
Q 2619 4750 2861 4703 
Q 3103 4656 3366 4563 
z
" id="DejaVuSans-36" transform="scale(0.015625)"/>
       </defs>
       <use xlink:href="#DejaVuSans-30"/>
       <use x="63.623047" xlink:href="#DejaVuSans-2e"/>
       <use x="95.410156" xlink:href="#DejaVuSans-36"/>
      </g>
     </g>
    </g>
    <g id="xtick_5">
     <g id="line2d_5">
      <g>
       <use style="stroke:#000000;stroke-width:0.8;" x="319.737614" xlink:href="#m48bb9dfce3" y="273.312"/>
      </g>
     </g>
     <g id="text_5">
      <!-- 0.8 -->
      <g transform="translate(311.786051 287.910437)scale(0.1 -0.1)">
       <defs>
        <path d="M 2034 2216 
Q 1584 2216 1326 1975 
Q 1069 1734 1069 1313 
Q 1069 891 1326 650 
Q 1584 409 2034 409 
Q 2484 409 2743 651 
Q 3003 894 3003 1313 
Q 3003 1734 2745 1975 
Q 2488 2216 2034 2216 
z
M 1403 2484 
Q 997 2584 770 2862 
Q 544 3141 544 3541 
Q 544 4100 942 4425 
Q 1341 4750 2034 4750 
Q 2731 4750 3128 4425 
Q 3525 4100 3525 3541 
Q 3525 3141 3298 2862 
Q 3072 2584 2669 2484 
Q 3125 2378 3379 2068 
Q 3634 1759 3634 1313 
Q 3634 634 3220 271 
Q 2806 -91 2034 -91 
Q 1263 -91 848 271 
Q 434 634 434 1313 
Q 434 1759 690 2068 
Q 947 2378 1403 2484 
z
M 1172 3481 
Q 1172 3119 1398 2916 
Q 1625 2713 2034 2713 
Q 2441 2713 2670 2916 
Q 2900 3119 2900 3481 
Q 2900 3844 2670 4047 
Q 2441 4250 2034 4250 
Q 1625 4250 1398 4047 
Q 1172 3844 1172 3481 
z
" id="DejaVuSans-38" transform="scale(0.015625)"/>
       </defs>
       <use xlink:href="#DejaVuSans-30"/>
       <use x="63.623047" xlink:href="#DejaVuSans-2e"/>
       <use x="95.410156" xlink:href="#DejaVuSans-38"/>
      </g>
     </g>
    </g>
    <g id="xtick_6">
     <g id="line2d_6">
      <g>
       <use style="stroke:#000000;stroke-width:0.8;" x="384.668523" xlink:href="#m48bb9dfce3" y="273.312"/>
      </g>
     </g>
     <g id="text_6">
      <!-- 1.0 -->
      <g transform="translate(376.71696 287.910437)scale(0.1 -0.1)">
       <defs>
        <path d="M 794 531 
L 1825 531 
L 1825 4091 
L 703 3866 
L 703 4441 
L 1819 4666 
L 2450 4666 
L 2450 531 
L 3481 531 
L 3481 0 
L 794 0 
L 794 531 
z
" id="DejaVuSans-31" transform="scale(0.015625)"/>
       </defs>
       <use xlink:href="#DejaVuSans-31"/>
       <use x="63.623047" xlink:href="#DejaVuSans-2e"/>
       <use x="95.410156" xlink:href="#DejaVuSans-30"/>
      </g>
     </g>
    </g>
    <g id="text_7">
     <!-- Propagation direction -->
     <g transform="translate(168.859219 301.588562)scale(0.1 -0.1)">
      <defs>
       <path d="M 1259 4147 
L 1259 2394 
L 2053 2394 
Q 2494 2394 2734 2622 
Q 2975 2850 2975 3272 
Q 2975 3691 2734 3919 
Q 2494 4147 2053 4147 
L 1259 4147 
z
M 628 4666 
L 2053 4666 
Q 2838 4666 3239 4311 
Q 3641 3956 3641 3272 
Q 3641 2581 3239 2228 
Q 2838 1875 2053 1875 
L 1259 1875 
L 1259 0 
L 628 0 
L 628 4666 
z
" id="DejaVuSans-50" transform="scale(0.015625)"/>
       <path d="M 2631 2963 
Q 2534 3019 2420 3045 
Q 2306 3072 2169 3072 
Q 1681 3072 1420 2755 
Q 1159 2438 1159 1844 
L 1159 0 
L 581 0 
L 581 3500 
L 1159 3500 
L 1159 2956 
Q 1341 3275 1631 3429 
Q 1922 3584 2338 3584 
Q 2397 3584 2469 3576 
Q 2541 3569 2628 3553 
L 2631 2963 
z
" id="DejaVuSans-72" transform="scale(0.015625)"/>
       <path d="M 1959 3097 
Q 1497 3097 1228 2736 
Q 959 2375 959 1747 
Q 959 1119 1226 758 
Q 1494 397 1959 397 
Q 2419 397 2687 759 
Q 2956 1122 2956 1747 
Q 2956 2369 2687 2733 
Q 2419 3097 1959 3097 
z
M 1959 3584 
Q 2709 3584 3137 3096 
Q 3566 2609 3566 1747 
Q 3566 888 3137 398 
Q 2709 -91 1959 -91 
Q 1206 -91 779 398 
Q 353 888 353 1747 
Q 353 2609 779 3096 
Q 1206 3584 1959 3584 
z
" id="DejaVuSans-6f" transform="scale(0.015625)"/>
       <path d="M 1159 525 
L 1159 -1331 
L 581 -1331 
L 581 3500 
L 1159 3500 
L 1159 2969 
Q 1341 3281 1617 3432 
Q 1894 3584 2278 3584 
Q 2916 3584 3314 3078 
Q 3713 2572 3713 1747 
Q 3713 922 3314 415 
Q 2916 -91 2278 -91 
Q 1894 -91 1617 61 
Q 1341 213 1159 525 
z
M 3116 1747 
Q 3116 2381 2855 2742 
Q 2594 3103 2138 3103 
Q 1681 3103 1420 2742 
Q 1159 2381 1159 1747 
Q 1159 1113 1420 752 
Q 1681 391 2138 391 
Q 2594 391 2855 752 
Q 3116 1113 3116 1747 
z
" id="DejaVuSans-70" transform="scale(0.015625)"/>
       <path d="M 2194 1759 
Q 1497 1759 1228 1600 
Q 959 1441 959 1056 
Q 959 750 1161 570 
Q 1363 391 1709 391 
Q 2188 391 2477 730 
Q 2766 1069 2766 1631 
L 2766 1759 
L 2194 1759 
z
M 3341 1997 
L 3341 0 
L 2766 0 
L 2766 531 
Q 2569 213 2275 61 
Q 1981 -91 1556 -91 
Q 1019 -91 701 211 
Q 384 513 384 1019 
Q 384 1609 779 1909 
Q 1175 2209 1959 2209 
L 2766 2209 
L 2766 2266 
Q 2766 2663 2505 2880 
Q 2244 3097 1772 3097 
Q 1472 3097 1187 3025 
Q 903 2953 641 2809 
L 641 3341 
Q 956 3463 1253 3523 
Q 1550 3584 1831 3584 
Q 2591 3584 2966 3190 
Q 3341 2797 3341 1997 
z
" id="DejaVuSans-61" transform="scale(0.015625)"/>
       <path d="M 2906 1791 
Q 2906 2416 2648 2759 
Q 2391 3103 1925 3103 
Q 1463 3103 1205 2759 
Q 947 2416 947 1791 
Q 947 1169 1205 825 
Q 1463 481 1925 481 
Q 2391 481 2648 825 
Q 2906 1169 2906 1791 
z
M 3481 434 
Q 3481 -459 3084 -895 
Q 2688 -1331 1869 -1331 
Q 1566 -1331 1297 -1286 
Q 1028 -1241 775 -1147 
L 775 -588 
Q 1028 -725 1275 -790 
Q 1522 -856 1778 -856 
Q 2344 -856 2625 -561 
Q 2906 -266 2906 331 
L 2906 616 
Q 2728 306 2450 153 
Q 2172 0 1784 0 
Q 1141 0 747 490 
Q 353 981 353 1791 
Q 353 2603 747 3093 
Q 1141 3584 1784 3584 
Q 2172 3584 2450 3431 
Q 2728 3278 2906 2969 
L 2906 3500 
L 3481 3500 
L 3481 434 
z
" id="DejaVuSans-67" transform="scale(0.015625)"/>
       <path d="M 1172 4494 
L 1172 3500 
L 2356 3500 
L 2356 3053 
L 1172 3053 
L 1172 1153 
Q 1172 725 1289 603 
Q 1406 481 1766 481 
L 2356 481 
L 2356 0 
L 1766 0 
Q 1100 0 847 248 
Q 594 497 594 1153 
L 594 3053 
L 172 3053 
L 172 3500 
L 594 3500 
L 594 4494 
L 1172 4494 
z
" id="DejaVuSans-74" transform="scale(0.015625)"/>
       <path d="M 603 3500 
L 1178 3500 
L 1178 0 
L 603 0 
L 603 3500 
z
M 603 4863 
L 1178 4863 
L 1178 4134 
L 603 4134 
L 603 4863 
z
" id="DejaVuSans-69" transform="scale(0.015625)"/>
       <path d="M 3513 2113 
L 3513 0 
L 2938 0 
L 2938 2094 
Q 2938 2591 2744 2837 
Q 2550 3084 2163 3084 
Q 1697 3084 1428 2787 
Q 1159 2491 1159 1978 
L 1159 0 
L 581 0 
L 581 3500 
L 1159 3500 
L 1159 2956 
Q 1366 3272 1645 3428 
Q 1925 3584 2291 3584 
Q 2894 3584 3203 3211 
Q 3513 2838 3513 2113 
z
" id="DejaVuSans-6e" transform="scale(0.015625)"/>
       <path id="DejaVuSans-20" transform="scale(0.015625)"/>
       <path d="M 2906 2969 
L 2906 4863 
L 3481 4863 
L 3481 0 
L 2906 0 
L 2906 525 
Q 2725 213 2448 61 
Q 2172 -91 1784 -91 
Q 1150 -91 751 415 
Q 353 922 353 1747 
Q 353 2572 751 3078 
Q 1150 3584 1784 3584 
Q 2172 3584 2448 3432 
Q 2725 3281 2906 2969 
z
M 947 1747 
Q 947 1113 1208 752 
Q 1469 391 1925 391 
Q 2381 391 2643 752 
Q 2906 1113 2906 1747 
Q 2906 2381 2643 2742 
Q 2381 3103 1925 3103 
Q 1469 3103 1208 2742 
Q 947 2381 947 1747 
z
" id="DejaVuSans-64" transform="scale(0.015625)"/>
       <path d="M 3597 1894 
L 3597 1613 
L 953 1613 
Q 991 1019 1311 708 
Q 1631 397 2203 397 
Q 2534 397 2845 478 
Q 3156 559 3463 722 
L 3463 178 
Q 3153 47 2828 -22 
Q 2503 -91 2169 -91 
Q 1331 -91 842 396 
Q 353 884 353 1716 
Q 353 2575 817 3079 
Q 1281 3584 2069 3584 
Q 2775 3584 3186 3129 
Q 3597 2675 3597 1894 
z
M 3022 2063 
Q 3016 2534 2758 2815 
Q 2500 3097 2075 3097 
Q 1594 3097 1305 2825 
Q 1016 2553 972 2059 
L 3022 2063 
z
" id="DejaVuSans-65" transform="scale(0.015625)"/>
       <path d="M 3122 3366 
L 3122 2828 
Q 2878 2963 2633 3030 
Q 2388 3097 2138 3097 
Q 1578 3097 1268 2742 
Q 959 2388 959 1747 
Q 959 1106 1268 751 
Q 1578 397 2138 397 
Q 2388 397 2633 464 
Q 2878 531 3122 666 
L 3122 134 
Q 2881 22 2623 -34 
Q 2366 -91 2075 -91 
Q 1284 -91 818 406 
Q 353 903 353 1747 
Q 353 2603 823 3093 
Q 1294 3584 2113 3584 
Q 2378 3584 2631 3529 
Q 2884 3475 3122 3366 
z
" id="DejaVuSans-63" transform="scale(0.015625)"/>
      </defs>
      <use xlink:href="#DejaVuSans-50"/>
      <use x="58.552734" xlink:href="#DejaVuSans-72"/>
      <use x="97.416016" xlink:href="#DejaVuSans-6f"/>
      <use x="158.597656" xlink:href="#DejaVuSans-70"/>
      <use x="222.074219" xlink:href="#DejaVuSans-61"/>
      <use x="283.353516" xlink:href="#DejaVuSans-67"/>
      <use x="346.830078" xlink:href="#DejaVuSans-61"/>
      <use x="408.109375" xlink:href="#DejaVuSans-74"/>
      <use x="447.318359" xlink:href="#DejaVuSans-69"/>
      <use x="475.101562" xlink:href="#DejaVuSans-6f"/>
      <use x="536.283203" xlink:href="#DejaVuSans-6e"/>
      <use x="599.662109" xlink:href="#DejaVuSans-20"/>
      <use x="631.449219" xlink:href="#DejaVuSans-64"/>
      <use x="694.925781" xlink:href="#DejaVuSans-69"/>
      <use x="722.708984" xlink:href="#DejaVuSans-72"/>
      <use x="761.572266" xlink:href="#DejaVuSans-65"/>
      <use x="823.095703" xlink:href="#DejaVuSans-63"/>
      <use x="878.076172" xlink:href="#DejaVuSans-74"/>
      <use x="917.285156" xlink:href="#DejaVuSans-69"/>
      <use x="945.068359" xlink:href="#DejaVuSans-6f"/>
      <use x="1006.25" xlink:href="#DejaVuSans-6e"/>
     </g>
    </g>
   </g>
   <g id="matplotlib.axis_2">
    <g id="ytick_1">
     <g id="line2d_7">
      <defs>
       <path d="M 0 0 
L -3.5 0 
" id="m1921bc845b" style="stroke:#000000;stroke-width:0.8;"/>
      </defs>
      <g>
       <use style="stroke:#000000;stroke-width:0.8;" x="43.78125" xlink:href="#m1921bc845b" y="273.312"/>
      </g>
     </g>
     <g id="text_8">
      <!-- 0.0 -->
      <g transform="translate(20.878125 277.111219)scale(0.1 -0.1)">
       <use xlink:href="#DejaVuSans-30"/>
       <use x="63.623047" xlink:href="#DejaVuSans-2e"/>
       <use x="95.410156" xlink:href="#DejaVuSans-30"/>
      </g>
     </g>
    </g>
    <g id="ytick_2">
     <g id="line2d_8">
      <g>
       <use style="stroke:#000000;stroke-width:0.8;" x="43.78125" xlink:href="#m1921bc845b" y="216.517932"/>
      </g>
     </g>
     <g id="text_9">
      <!-- 0.5 -->
      <g transform="translate(20.878125 220.317151)scale(0.1 -0.1)">
       <defs>
        <path d="M 691 4666 
L 3169 4666 
L 3169 4134 
L 1269 4134 
L 1269 2991 
Q 1406 3038 1543 3061 
Q 1681 3084 1819 3084 
Q 2600 3084 3056 2656 
Q 3513 2228 3513 1497 
Q 3513 744 3044 326 
Q 2575 -91 1722 -91 
Q 1428 -91 1123 -41 
Q 819 9 494 109 
L 494 744 
Q 775 591 1075 516 
Q 1375 441 1709 441 
Q 2250 441 2565 725 
Q 2881 1009 2881 1497 
Q 2881 1984 2565 2268 
Q 2250 2553 1709 2553 
Q 1456 2553 1204 2497 
Q 953 2441 691 2322 
L 691 4666 
z
" id="DejaVuSans-35" transform="scale(0.015625)"/>
       </defs>
       <use xlink:href="#DejaVuSans-30"/>
       <use x="63.623047" xlink:href="#DejaVuSans-2e"/>
       <use x="95.410156" xlink:href="#DejaVuSans-35"/>
      </g>
     </g>
    </g>
    <g id="ytick_3">
     <g id="line2d_9">
      <g>
       <use style="stroke:#000000;stroke-width:0.8;" x="43.78125" xlink:href="#m1921bc845b" y="159.723864"/>
      </g>
     </g>
     <g id="text_10">
      <!-- 1.0 -->
      <g transform="translate(20.878125 163.523082)scale(0.1 -0.1)">
       <use xlink:href="#DejaVuSans-31"/>
       <use x="63.623047" xlink:href="#DejaVuSans-2e"/>
       <use x="95.410156" xlink:href="#DejaVuSans-30"/>
      </g>
     </g>
    </g>
    <g id="ytick_4">
     <g id="line2d_10">
      <g>
       <use style="stroke:#000000;stroke-width:0.8;" x="43.78125" xlink:href="#m1921bc845b" y="102.929795"/>
      </g>
     </g>
     <g id="text_11">
      <!-- 1.5 -->
      <g transform="translate(20.878125 106.729014)scale(0.1 -0.1)">
       <use xlink:href="#DejaVuSans-31"/>
       <use x="63.623047" xlink:href="#DejaVuSans-2e"/>
       <use x="95.410156" xlink:href="#DejaVuSans-35"/>
      </g>
     </g>
    </g>
    <g id="ytick_5">
     <g id="line2d_11">
      <g>
       <use style="stroke:#000000;stroke-width:0.8;" x="43.78125" xlink:href="#m1921bc845b" y="46.135727"/>
      </g>
     </g>
     <g id="text_12">
      <!-- 2.0 -->
      <g transform="translate(20.878125 49.934946)scale(0.1 -0.1)">
       <use xlink:href="#DejaVuSans-32"/>
       <use x="63.623047" xlink:href="#DejaVuSans-2e"/>
       <use x="95.410156" xlink:href="#DejaVuSans-30"/>
      </g>
     </g>
    </g>
    <g id="text_13">
     <!-- Probability density -->
     <g transform="translate(14.798438 186.606781)rotate(-90)scale(0.1 -0.1)">
      <defs>
       <path d="M 3116 1747 
Q 3116 2381 2855 2742 
Q 2594 3103 2138 3103 
Q 1681 3103 1420 2742 
Q 1159 2381 1159 1747 
Q 1159 1113 1420 752 
Q 1681 391 2138 391 
Q 2594 391 2855 752 
Q 3116 1113 3116 1747 
z
M 1159 2969 
Q 1341 3281 1617 3432 
Q 1894 3584 2278 3584 
Q 2916 3584 3314 3078 
Q 3713 2572 3713 1747 
Q 3713 922 3314 415 
Q 2916 -91 2278 -91 
Q 1894 -91 1617 61 
Q 1341 213 1159 525 
L 1159 0 
L 581 0 
L 581 4863 
L 1159 4863 
L 1159 2969 
z
" id="DejaVuSans-62" transform="scale(0.015625)"/>
       <path d="M 603 4863 
L 1178 4863 
L 1178 0 
L 603 0 
L 603 4863 
z
" id="DejaVuSans-6c" transform="scale(0.015625)"/>
       <path d="M 2059 -325 
Q 1816 -950 1584 -1140 
Q 1353 -1331 966 -1331 
L 506 -1331 
L 506 -850 
L 844 -850 
Q 1081 -850 1212 -737 
Q 1344 -625 1503 -206 
L 1606 56 
L 191 3500 
L 800 3500 
L 1894 763 
L 2988 3500 
L 3597 3500 
L 2059 -325 
z
" id="DejaVuSans-79" transform="scale(0.015625)"/>
       <path d="M 2834 3397 
L 2834 2853 
Q 2591 2978 2328 3040 
Q 2066 3103 1784 3103 
Q 1356 3103 1142 2972 
Q 928 2841 928 2578 
Q 928 2378 1081 2264 
Q 1234 2150 1697 2047 
L 1894 2003 
Q 2506 1872 2764 1633 
Q 3022 1394 3022 966 
Q 3022 478 2636 193 
Q 2250 -91 1575 -91 
Q 1294 -91 989 -36 
Q 684 19 347 128 
L 347 722 
Q 666 556 975 473 
Q 1284 391 1588 391 
Q 1994 391 2212 530 
Q 2431 669 2431 922 
Q 2431 1156 2273 1281 
Q 2116 1406 1581 1522 
L 1381 1569 
Q 847 1681 609 1914 
Q 372 2147 372 2553 
Q 372 3047 722 3315 
Q 1072 3584 1716 3584 
Q 2034 3584 2315 3537 
Q 2597 3491 2834 3397 
z
" id="DejaVuSans-73" transform="scale(0.015625)"/>
      </defs>
      <use xlink:href="#DejaVuSans-50"/>
      <use x="58.552734" xlink:href="#DejaVuSans-72"/>
      <use x="97.416016" xlink:href="#DejaVuSans-6f"/>
      <use x="158.597656" xlink:href="#DejaVuSans-62"/>
      <use x="222.074219" xlink:href="#DejaVuSans-61"/>
      <use x="283.353516" xlink:href="#DejaVuSans-62"/>
      <use x="346.830078" xlink:href="#DejaVuSans-69"/>
      <use x="374.613281" xlink:href="#DejaVuSans-6c"/>
      <use x="402.396484" xlink:href="#DejaVuSans-69"/>
      <use x="430.179688" xlink:href="#DejaVuSans-74"/>
      <use x="469.388672" xlink:href="#DejaVuSans-79"/>
      <use x="528.568359" xlink:href="#DejaVuSans-20"/>
      <use x="560.355469" xlink:href="#DejaVuSans-64"/>
      <use x="623.832031" xlink:href="#DejaVuSans-65"/>
      <use x="685.355469" xlink:href="#DejaVuSans-6e"/>
      <use x="748.734375" xlink:href="#DejaVuSans-73"/>
      <use x="800.833984" xlink:href="#DejaVuSans-69"/>
      <use x="828.617188" xlink:href="#DejaVuSans-74"/>
      <use x="867.826172" xlink:href="#DejaVuSans-79"/>
     </g>
    </g>
   </g>
   <g id="line2d_12">
    <path clip-path="url(#p67e2164706)" d="M 60.013977 273.312 
L 384.668523 46.135727 
L 384.668523 46.135727 
" style="fill:none;stroke:#ff7f0e;stroke-linecap:square;stroke-width:1.5;"/>
   </g>
   <g id="patch_203">
    <path d="M 43.78125 273.312 
L 43.78125 7.2 
" style="fill:none;stroke:#000000;stroke-linecap:square;stroke-linejoin:miter;stroke-width:0.8;"/>
   </g>
   <g id="patch_204">
    <path d="M 400.90125 273.312 
L 400.90125 7.2 
" style="fill:none;stroke:#000000;stroke-linecap:square;stroke-linejoin:miter;stroke-width:0.8;"/>
   </g>
   <g id="patch_205">
    <path d="M 43.78125 273.312 
L 400.90125 273.312 
" style="fill:none;stroke:#000000;stroke-linecap:square;stroke-linejoin:miter;stroke-width:0.8;"/>
   </g>
   <g id="patch_206">
    <path d="M 43.78125 7.2 
L 400.90125 7.2 
" style="fill:none;stroke:#000000;stroke-linecap:square;stroke-linejoin:miter;stroke-width:0.8;"/>
   </g>
  </g>
 </g>
 <defs>
  <clipPath id="p67e2164706">
   <rect height="266.112" width="357.12" x="43.78125" y="7.2"/>
  </clipPath>
 </defs>
</svg>
