<?xml version="1.0" encoding="utf-8" standalone="no"?>
<!DOCTYPE svg PUBLIC "-//W3C//DTD SVG 1.1//EN"
  "http://www.w3.org/Graphics/SVG/1.1/DTD/svg11.dtd">
<svg height="310.86825pt" version="1.1" viewBox="0 0 414.46375 310.86825" width="414.46375pt" xmlns="http://www.w3.org/2000/svg" xmlns:xlink="http://www.w3.org/1999/xlink">
 <metadata>
  <rdf:RDF xmlns:cc="http://creativecommons.org/ns#" xmlns:dc="http://purl.org/dc/elements/1.1/" xmlns:rdf="http://www.w3.org/1999/02/22-rdf-syntax-ns#">
   <cc:Work>
    <dc:type rdf:resource="http://purl.org/dc/dcmitype/StillImage"/>
    <dc:date>2021-07-01T12:58:29.539738</dc:date>
    <dc:format>image/svg+xml</dc:format>
    <dc:creator>
     <cc:Agent>
      <dc:title>Matplotlib v3.4.2, https://matplotlib.org/</dc:title>
     </cc:Agent>
    </dc:creator>
   </cc:Work>
  </rdf:RDF>
 </metadata>
 <defs>
  <style type="text/css">*{stroke-linecap:butt;stroke-linejoin:round;}</style>
 </defs>
 <g id="figure_1">
  <g id="patch_1">
   <path d="M 0 310.86825 
L 414.46375 310.86825 
L 414.46375 0 
L 0 0 
z
" style="fill:#ffffff;"/>
  </g>
  <g id="axes_1">
   <g id="patch_2">
    <path d="M 50.14375 273.312 
L 407.26375 273.312 
L 407.26375 7.2 
L 50.14375 7.2 
z
" style="fill:#ffffff;"/>
   </g>
   <g id="patch_3">
    <path clip-path="url(#p1f35102902)" d="M 68.13691 273.312 
L 69.751365 273.312 
L 69.751365 269.674105 
L 68.13691 269.674105 
z
" style="fill:#1f77b4;"/>
   </g>
   <g id="patch_4">
    <path clip-path="url(#p1f35102902)" d="M 69.751365 273.312 
L 71.36582 273.312 
L 71.36582 270.886737 
L 69.751365 270.886737 
z
" style="fill:#1f77b4;"/>
   </g>
   <g id="patch_5">
    <path clip-path="url(#p1f35102902)" d="M 71.36582 273.312 
L 72.980275 273.312 
L 72.980275 268.461474 
L 71.36582 268.461474 
z
" style="fill:#1f77b4;"/>
   </g>
   <g id="patch_6">
    <path clip-path="url(#p1f35102902)" d="M 72.980275 273.312 
L 74.59473 273.312 
L 74.59473 268.461474 
L 72.980275 268.461474 
z
" style="fill:#1f77b4;"/>
   </g>
   <g id="patch_7">
    <path clip-path="url(#p1f35102902)" d="M 74.59473 273.312 
L 76.209185 273.312 
L 76.209185 264.823579 
L 74.59473 264.823579 
z
" style="fill:#1f77b4;"/>
   </g>
   <g id="patch_8">
    <path clip-path="url(#p1f35102902)" d="M 76.209185 273.312 
L 77.82364 273.312 
L 77.82364 264.217263 
L 76.209185 264.217263 
z
" style="fill:#1f77b4;"/>
   </g>
   <g id="patch_9">
    <path clip-path="url(#p1f35102902)" d="M 77.82364 273.312 
L 79.438095 273.312 
L 79.438095 263.004632 
L 77.82364 263.004632 
z
" style="fill:#1f77b4;"/>
   </g>
   <g id="patch_10">
    <path clip-path="url(#p1f35102902)" d="M 79.438095 273.312 
L 81.05255 273.312 
L 81.05255 259.973053 
L 79.438095 259.973053 
z
" style="fill:#1f77b4;"/>
   </g>
   <g id="patch_11">
    <path clip-path="url(#p1f35102902)" d="M 81.05255 273.312 
L 82.667005 273.312 
L 82.667005 265.429895 
L 81.05255 265.429895 
z
" style="fill:#1f77b4;"/>
   </g>
   <g id="patch_12">
    <path clip-path="url(#p1f35102902)" d="M 82.667005 273.312 
L 84.28146 273.312 
L 84.28146 254.516211 
L 82.667005 254.516211 
z
" style="fill:#1f77b4;"/>
   </g>
   <g id="patch_13">
    <path clip-path="url(#p1f35102902)" d="M 84.28146 273.312 
L 85.895915 273.312 
L 85.895915 259.973053 
L 84.28146 259.973053 
z
" style="fill:#1f77b4;"/>
   </g>
   <g id="patch_14">
    <path clip-path="url(#p1f35102902)" d="M 85.895915 273.312 
L 87.51037 273.312 
L 87.51037 257.547789 
L 85.895915 257.547789 
z
" style="fill:#1f77b4;"/>
   </g>
   <g id="patch_15">
    <path clip-path="url(#p1f35102902)" d="M 87.51037 273.312 
L 89.124824 273.312 
L 89.124824 258.154105 
L 87.51037 258.154105 
z
" style="fill:#1f77b4;"/>
   </g>
   <g id="patch_16">
    <path clip-path="url(#p1f35102902)" d="M 89.124824 273.312 
L 90.739279 273.312 
L 90.739279 252.697263 
L 89.124824 252.697263 
z
" style="fill:#1f77b4;"/>
   </g>
   <g id="patch_17">
    <path clip-path="url(#p1f35102902)" d="M 90.739279 273.312 
L 92.353734 273.312 
L 92.353734 253.303579 
L 90.739279 253.303579 
z
" style="fill:#1f77b4;"/>
   </g>
   <g id="patch_18">
    <path clip-path="url(#p1f35102902)" d="M 92.353734 273.312 
L 93.968189 273.312 
L 93.968189 249.665684 
L 92.353734 249.665684 
z
" style="fill:#1f77b4;"/>
   </g>
   <g id="patch_19">
    <path clip-path="url(#p1f35102902)" d="M 93.968189 273.312 
L 95.582644 273.312 
L 95.582644 248.453053 
L 93.968189 248.453053 
z
" style="fill:#1f77b4;"/>
   </g>
   <g id="patch_20">
    <path clip-path="url(#p1f35102902)" d="M 95.582644 273.312 
L 97.197099 273.312 
L 97.197099 244.815158 
L 95.582644 244.815158 
z
" style="fill:#1f77b4;"/>
   </g>
   <g id="patch_21">
    <path clip-path="url(#p1f35102902)" d="M 97.197099 273.312 
L 98.811554 273.312 
L 98.811554 246.634105 
L 97.197099 246.634105 
z
" style="fill:#1f77b4;"/>
   </g>
   <g id="patch_22">
    <path clip-path="url(#p1f35102902)" d="M 98.811554 273.312 
L 100.426009 273.312 
L 100.426009 249.665684 
L 98.811554 249.665684 
z
" style="fill:#1f77b4;"/>
   </g>
   <g id="patch_23">
    <path clip-path="url(#p1f35102902)" d="M 100.426009 273.312 
L 102.040464 273.312 
L 102.040464 252.697263 
L 100.426009 252.697263 
z
" style="fill:#1f77b4;"/>
   </g>
   <g id="patch_24">
    <path clip-path="url(#p1f35102902)" d="M 102.040464 273.312 
L 103.654919 273.312 
L 103.654919 244.815158 
L 102.040464 244.815158 
z
" style="fill:#1f77b4;"/>
   </g>
   <g id="patch_25">
    <path clip-path="url(#p1f35102902)" d="M 103.654919 273.312 
L 105.269374 273.312 
L 105.269374 248.453053 
L 103.654919 248.453053 
z
" style="fill:#1f77b4;"/>
   </g>
   <g id="patch_26">
    <path clip-path="url(#p1f35102902)" d="M 105.269374 273.312 
L 106.883829 273.312 
L 106.883829 242.389895 
L 105.269374 242.389895 
z
" style="fill:#1f77b4;"/>
   </g>
   <g id="patch_27">
    <path clip-path="url(#p1f35102902)" d="M 106.883829 273.312 
L 108.498284 273.312 
L 108.498284 235.720421 
L 106.883829 235.720421 
z
" style="fill:#1f77b4;"/>
   </g>
   <g id="patch_28">
    <path clip-path="url(#p1f35102902)" d="M 108.498284 273.312 
L 110.112739 273.312 
L 110.112739 247.846737 
L 108.498284 247.846737 
z
" style="fill:#1f77b4;"/>
   </g>
   <g id="patch_29">
    <path clip-path="url(#p1f35102902)" d="M 110.112739 273.312 
L 111.727194 273.312 
L 111.727194 238.752 
L 110.112739 238.752 
z
" style="fill:#1f77b4;"/>
   </g>
   <g id="patch_30">
    <path clip-path="url(#p1f35102902)" d="M 111.727194 273.312 
L 113.341649 273.312 
L 113.341649 243.602526 
L 111.727194 243.602526 
z
" style="fill:#1f77b4;"/>
   </g>
   <g id="patch_31">
    <path clip-path="url(#p1f35102902)" d="M 113.341649 273.312 
L 114.956104 273.312 
L 114.956104 243.602526 
L 113.341649 243.602526 
z
" style="fill:#1f77b4;"/>
   </g>
   <g id="patch_32">
    <path clip-path="url(#p1f35102902)" d="M 114.956104 273.312 
L 116.570559 273.312 
L 116.570559 238.145684 
L 114.956104 238.145684 
z
" style="fill:#1f77b4;"/>
   </g>
   <g id="patch_33">
    <path clip-path="url(#p1f35102902)" d="M 116.570559 273.312 
L 118.185014 273.312 
L 118.185014 236.326737 
L 116.570559 236.326737 
z
" style="fill:#1f77b4;"/>
   </g>
   <g id="patch_34">
    <path clip-path="url(#p1f35102902)" d="M 118.185014 273.312 
L 119.799469 273.312 
L 119.799469 236.326737 
L 118.185014 236.326737 
z
" style="fill:#1f77b4;"/>
   </g>
   <g id="patch_35">
    <path clip-path="url(#p1f35102902)" d="M 119.799469 273.312 
L 121.413924 273.312 
L 121.413924 233.295158 
L 119.799469 233.295158 
z
" style="fill:#1f77b4;"/>
   </g>
   <g id="patch_36">
    <path clip-path="url(#p1f35102902)" d="M 121.413924 273.312 
L 123.028379 273.312 
L 123.028379 230.869895 
L 121.413924 230.869895 
z
" style="fill:#1f77b4;"/>
   </g>
   <g id="patch_37">
    <path clip-path="url(#p1f35102902)" d="M 123.028379 273.312 
L 124.642834 273.312 
L 124.642834 224.200421 
L 123.028379 224.200421 
z
" style="fill:#1f77b4;"/>
   </g>
   <g id="patch_38">
    <path clip-path="url(#p1f35102902)" d="M 124.642834 273.312 
L 126.257289 273.312 
L 126.257289 221.168842 
L 124.642834 221.168842 
z
" style="fill:#1f77b4;"/>
   </g>
   <g id="patch_39">
    <path clip-path="url(#p1f35102902)" d="M 126.257289 273.312 
L 127.871744 273.312 
L 127.871744 230.263579 
L 126.257289 230.263579 
z
" style="fill:#1f77b4;"/>
   </g>
   <g id="patch_40">
    <path clip-path="url(#p1f35102902)" d="M 127.871744 273.312 
L 129.486199 273.312 
L 129.486199 239.964632 
L 127.871744 239.964632 
z
" style="fill:#1f77b4;"/>
   </g>
   <g id="patch_41">
    <path clip-path="url(#p1f35102902)" d="M 129.486199 273.312 
L 131.100654 273.312 
L 131.100654 224.200421 
L 129.486199 224.200421 
z
" style="fill:#1f77b4;"/>
   </g>
   <g id="patch_42">
    <path clip-path="url(#p1f35102902)" d="M 131.100654 273.312 
L 132.715109 273.312 
L 132.715109 220.562526 
L 131.100654 220.562526 
z
" style="fill:#1f77b4;"/>
   </g>
   <g id="patch_43">
    <path clip-path="url(#p1f35102902)" d="M 132.715109 273.312 
L 134.329564 273.312 
L 134.329564 230.263579 
L 132.715109 230.263579 
z
" style="fill:#1f77b4;"/>
   </g>
   <g id="patch_44">
    <path clip-path="url(#p1f35102902)" d="M 134.329564 273.312 
L 135.944019 273.312 
L 135.944019 222.381474 
L 134.329564 222.381474 
z
" style="fill:#1f77b4;"/>
   </g>
   <g id="patch_45">
    <path clip-path="url(#p1f35102902)" d="M 135.944019 273.312 
L 137.558474 273.312 
L 137.558474 212.680421 
L 135.944019 212.680421 
z
" style="fill:#1f77b4;"/>
   </g>
   <g id="patch_46">
    <path clip-path="url(#p1f35102902)" d="M 137.558474 273.312 
L 139.172929 273.312 
L 139.172929 219.349895 
L 137.558474 219.349895 
z
" style="fill:#1f77b4;"/>
   </g>
   <g id="patch_47">
    <path clip-path="url(#p1f35102902)" d="M 139.172929 273.312 
L 140.787384 273.312 
L 140.787384 207.829895 
L 139.172929 207.829895 
z
" style="fill:#1f77b4;"/>
   </g>
   <g id="patch_48">
    <path clip-path="url(#p1f35102902)" d="M 140.787384 273.312 
L 142.401839 273.312 
L 142.401839 222.381474 
L 140.787384 222.381474 
z
" style="fill:#1f77b4;"/>
   </g>
   <g id="patch_49">
    <path clip-path="url(#p1f35102902)" d="M 142.401839 273.312 
L 144.016294 273.312 
L 144.016294 225.413053 
L 142.401839 225.413053 
z
" style="fill:#1f77b4;"/>
   </g>
   <g id="patch_50">
    <path clip-path="url(#p1f35102902)" d="M 144.016294 273.312 
L 145.630749 273.312 
L 145.630749 215.712 
L 144.016294 215.712 
z
" style="fill:#1f77b4;"/>
   </g>
   <g id="patch_51">
    <path clip-path="url(#p1f35102902)" d="M 145.630749 273.312 
L 147.245204 273.312 
L 147.245204 209.648842 
L 145.630749 209.648842 
z
" style="fill:#1f77b4;"/>
   </g>
   <g id="patch_52">
    <path clip-path="url(#p1f35102902)" d="M 147.245204 273.312 
L 148.859659 273.312 
L 148.859659 213.893053 
L 147.245204 213.893053 
z
" style="fill:#1f77b4;"/>
   </g>
   <g id="patch_53">
    <path clip-path="url(#p1f35102902)" d="M 148.859659 273.312 
L 150.474114 273.312 
L 150.474114 213.286737 
L 148.859659 213.286737 
z
" style="fill:#1f77b4;"/>
   </g>
   <g id="patch_54">
    <path clip-path="url(#p1f35102902)" d="M 150.474114 273.312 
L 152.088569 273.312 
L 152.088569 214.499368 
L 150.474114 214.499368 
z
" style="fill:#1f77b4;"/>
   </g>
   <g id="patch_55">
    <path clip-path="url(#p1f35102902)" d="M 152.088569 273.312 
L 153.703024 273.312 
L 153.703024 206.010947 
L 152.088569 206.010947 
z
" style="fill:#1f77b4;"/>
   </g>
   <g id="patch_56">
    <path clip-path="url(#p1f35102902)" d="M 153.703024 273.312 
L 155.317479 273.312 
L 155.317479 215.105684 
L 153.703024 215.105684 
z
" style="fill:#1f77b4;"/>
   </g>
   <g id="patch_57">
    <path clip-path="url(#p1f35102902)" d="M 155.317479 273.312 
L 156.931934 273.312 
L 156.931934 192.672 
L 155.317479 192.672 
z
" style="fill:#1f77b4;"/>
   </g>
   <g id="patch_58">
    <path clip-path="url(#p1f35102902)" d="M 156.931934 273.312 
L 158.546389 273.312 
L 158.546389 212.074105 
L 156.931934 212.074105 
z
" style="fill:#1f77b4;"/>
   </g>
   <g id="patch_59">
    <path clip-path="url(#p1f35102902)" d="M 158.546389 273.312 
L 160.160844 273.312 
L 160.160844 200.554105 
L 158.546389 200.554105 
z
" style="fill:#1f77b4;"/>
   </g>
   <g id="patch_60">
    <path clip-path="url(#p1f35102902)" d="M 160.160844 273.312 
L 161.775299 273.312 
L 161.775299 202.979368 
L 160.160844 202.979368 
z
" style="fill:#1f77b4;"/>
   </g>
   <g id="patch_61">
    <path clip-path="url(#p1f35102902)" d="M 161.775299 273.312 
L 163.389754 273.312 
L 163.389754 189.640421 
L 161.775299 189.640421 
z
" style="fill:#1f77b4;"/>
   </g>
   <g id="patch_62">
    <path clip-path="url(#p1f35102902)" d="M 163.389754 273.312 
L 165.004209 273.312 
L 165.004209 204.798316 
L 163.389754 204.798316 
z
" style="fill:#1f77b4;"/>
   </g>
   <g id="patch_63">
    <path clip-path="url(#p1f35102902)" d="M 165.004209 273.312 
L 166.618664 273.312 
L 166.618664 209.042526 
L 165.004209 209.042526 
z
" style="fill:#1f77b4;"/>
   </g>
   <g id="patch_64">
    <path clip-path="url(#p1f35102902)" d="M 166.618664 273.312 
L 168.233119 273.312 
L 168.233119 192.065684 
L 166.618664 192.065684 
z
" style="fill:#1f77b4;"/>
   </g>
   <g id="patch_65">
    <path clip-path="url(#p1f35102902)" d="M 168.233119 273.312 
L 169.847574 273.312 
L 169.847574 187.215158 
L 168.233119 187.215158 
z
" style="fill:#1f77b4;"/>
   </g>
   <g id="patch_66">
    <path clip-path="url(#p1f35102902)" d="M 169.847574 273.312 
L 171.462029 273.312 
L 171.462029 195.097263 
L 169.847574 195.097263 
z
" style="fill:#1f77b4;"/>
   </g>
   <g id="patch_67">
    <path clip-path="url(#p1f35102902)" d="M 171.462029 273.312 
L 173.076484 273.312 
L 173.076484 198.128842 
L 171.462029 198.128842 
z
" style="fill:#1f77b4;"/>
   </g>
   <g id="patch_68">
    <path clip-path="url(#p1f35102902)" d="M 173.076484 273.312 
L 174.690939 273.312 
L 174.690939 186.608842 
L 173.076484 186.608842 
z
" style="fill:#1f77b4;"/>
   </g>
   <g id="patch_69">
    <path clip-path="url(#p1f35102902)" d="M 174.690939 273.312 
L 176.305394 273.312 
L 176.305394 191.459368 
L 174.690939 191.459368 
z
" style="fill:#1f77b4;"/>
   </g>
   <g id="patch_70">
    <path clip-path="url(#p1f35102902)" d="M 176.305394 273.312 
L 177.919849 273.312 
L 177.919849 192.065684 
L 176.305394 192.065684 
z
" style="fill:#1f77b4;"/>
   </g>
   <g id="patch_71">
    <path clip-path="url(#p1f35102902)" d="M 177.919849 273.312 
L 179.534304 273.312 
L 179.534304 181.152 
L 177.919849 181.152 
z
" style="fill:#1f77b4;"/>
   </g>
   <g id="patch_72">
    <path clip-path="url(#p1f35102902)" d="M 179.534304 273.312 
L 181.148759 273.312 
L 181.148759 189.034105 
L 179.534304 189.034105 
z
" style="fill:#1f77b4;"/>
   </g>
   <g id="patch_73">
    <path clip-path="url(#p1f35102902)" d="M 181.148759 273.312 
L 182.763214 273.312 
L 182.763214 190.853053 
L 181.148759 190.853053 
z
" style="fill:#1f77b4;"/>
   </g>
   <g id="patch_74">
    <path clip-path="url(#p1f35102902)" d="M 182.763214 273.312 
L 184.377669 273.312 
L 184.377669 196.916211 
L 182.763214 196.916211 
z
" style="fill:#1f77b4;"/>
   </g>
   <g id="patch_75">
    <path clip-path="url(#p1f35102902)" d="M 184.377669 273.312 
L 185.992124 273.312 
L 185.992124 176.301474 
L 184.377669 176.301474 
z
" style="fill:#1f77b4;"/>
   </g>
   <g id="patch_76">
    <path clip-path="url(#p1f35102902)" d="M 185.992124 273.312 
L 187.606579 273.312 
L 187.606579 190.853053 
L 185.992124 190.853053 
z
" style="fill:#1f77b4;"/>
   </g>
   <g id="patch_77">
    <path clip-path="url(#p1f35102902)" d="M 187.606579 273.312 
L 189.221034 273.312 
L 189.221034 186.002526 
L 187.606579 186.002526 
z
" style="fill:#1f77b4;"/>
   </g>
   <g id="patch_78">
    <path clip-path="url(#p1f35102902)" d="M 189.221034 273.312 
L 190.835489 273.312 
L 190.835489 181.152 
L 189.221034 181.152 
z
" style="fill:#1f77b4;"/>
   </g>
   <g id="patch_79">
    <path clip-path="url(#p1f35102902)" d="M 190.835489 273.312 
L 192.449944 273.312 
L 192.449944 169.025684 
L 190.835489 169.025684 
z
" style="fill:#1f77b4;"/>
   </g>
   <g id="patch_80">
    <path clip-path="url(#p1f35102902)" d="M 192.449944 273.312 
L 194.064399 273.312 
L 194.064399 172.057263 
L 192.449944 172.057263 
z
" style="fill:#1f77b4;"/>
   </g>
   <g id="patch_81">
    <path clip-path="url(#p1f35102902)" d="M 194.064399 273.312 
L 195.678854 273.312 
L 195.678854 190.246737 
L 194.064399 190.246737 
z
" style="fill:#1f77b4;"/>
   </g>
   <g id="patch_82">
    <path clip-path="url(#p1f35102902)" d="M 195.678854 273.312 
L 197.293309 273.312 
L 197.293309 179.939368 
L 195.678854 179.939368 
z
" style="fill:#1f77b4;"/>
   </g>
   <g id="patch_83">
    <path clip-path="url(#p1f35102902)" d="M 197.293309 273.312 
L 198.907764 273.312 
L 198.907764 169.632 
L 197.293309 169.632 
z
" style="fill:#1f77b4;"/>
   </g>
   <g id="patch_84">
    <path clip-path="url(#p1f35102902)" d="M 198.907764 273.312 
L 200.522219 273.312 
L 200.522219 172.663579 
L 198.907764 172.663579 
z
" style="fill:#1f77b4;"/>
   </g>
   <g id="patch_85">
    <path clip-path="url(#p1f35102902)" d="M 200.522219 273.312 
L 202.136674 273.312 
L 202.136674 172.057263 
L 200.522219 172.057263 
z
" style="fill:#1f77b4;"/>
   </g>
   <g id="patch_86">
    <path clip-path="url(#p1f35102902)" d="M 202.136674 273.312 
L 203.751129 273.312 
L 203.751129 169.632 
L 202.136674 169.632 
z
" style="fill:#1f77b4;"/>
   </g>
   <g id="patch_87">
    <path clip-path="url(#p1f35102902)" d="M 203.751129 273.312 
L 205.365584 273.312 
L 205.365584 162.356211 
L 203.751129 162.356211 
z
" style="fill:#1f77b4;"/>
   </g>
   <g id="patch_88">
    <path clip-path="url(#p1f35102902)" d="M 205.365584 273.312 
L 206.980039 273.312 
L 206.980039 171.450947 
L 205.365584 171.450947 
z
" style="fill:#1f77b4;"/>
   </g>
   <g id="patch_89">
    <path clip-path="url(#p1f35102902)" d="M 206.980039 273.312 
L 208.594494 273.312 
L 208.594494 164.175158 
L 206.980039 164.175158 
z
" style="fill:#1f77b4;"/>
   </g>
   <g id="patch_90">
    <path clip-path="url(#p1f35102902)" d="M 208.594494 273.312 
L 210.208949 273.312 
L 210.208949 178.726737 
L 208.594494 178.726737 
z
" style="fill:#1f77b4;"/>
   </g>
   <g id="patch_91">
    <path clip-path="url(#p1f35102902)" d="M 210.208949 273.312 
L 211.823404 273.312 
L 211.823404 170.238316 
L 210.208949 170.238316 
z
" style="fill:#1f77b4;"/>
   </g>
   <g id="patch_92">
    <path clip-path="url(#p1f35102902)" d="M 211.823404 273.312 
L 213.437859 273.312 
L 213.437859 172.057263 
L 211.823404 172.057263 
z
" style="fill:#1f77b4;"/>
   </g>
   <g id="patch_93">
    <path clip-path="url(#p1f35102902)" d="M 213.437859 273.312 
L 215.052314 273.312 
L 215.052314 165.994105 
L 213.437859 165.994105 
z
" style="fill:#1f77b4;"/>
   </g>
   <g id="patch_94">
    <path clip-path="url(#p1f35102902)" d="M 215.052314 273.312 
L 216.666769 273.312 
L 216.666769 152.655158 
L 215.052314 152.655158 
z
" style="fill:#1f77b4;"/>
   </g>
   <g id="patch_95">
    <path clip-path="url(#p1f35102902)" d="M 216.666769 273.312 
L 218.281224 273.312 
L 218.281224 156.899368 
L 216.666769 156.899368 
z
" style="fill:#1f77b4;"/>
   </g>
   <g id="patch_96">
    <path clip-path="url(#p1f35102902)" d="M 218.281224 273.312 
L 219.895679 273.312 
L 219.895679 161.749895 
L 218.281224 161.749895 
z
" style="fill:#1f77b4;"/>
   </g>
   <g id="patch_97">
    <path clip-path="url(#p1f35102902)" d="M 219.895679 273.312 
L 221.510134 273.312 
L 221.510134 161.143579 
L 219.895679 161.143579 
z
" style="fill:#1f77b4;"/>
   </g>
   <g id="patch_98">
    <path clip-path="url(#p1f35102902)" d="M 221.510134 273.312 
L 223.124588 273.312 
L 223.124588 174.482526 
L 221.510134 174.482526 
z
" style="fill:#1f77b4;"/>
   </g>
   <g id="patch_99">
    <path clip-path="url(#p1f35102902)" d="M 223.124588 273.312 
L 224.739043 273.312 
L 224.739043 168.419368 
L 223.124588 168.419368 
z
" style="fill:#1f77b4;"/>
   </g>
   <g id="patch_100">
    <path clip-path="url(#p1f35102902)" d="M 224.739043 273.312 
L 226.353498 273.312 
L 226.353498 146.592 
L 224.739043 146.592 
z
" style="fill:#1f77b4;"/>
   </g>
   <g id="patch_101">
    <path clip-path="url(#p1f35102902)" d="M 226.353498 273.312 
L 227.967953 273.312 
L 227.967953 144.773053 
L 226.353498 144.773053 
z
" style="fill:#1f77b4;"/>
   </g>
   <g id="patch_102">
    <path clip-path="url(#p1f35102902)" d="M 227.967953 273.312 
L 229.582408 273.312 
L 229.582408 158.112 
L 227.967953 158.112 
z
" style="fill:#1f77b4;"/>
   </g>
   <g id="patch_103">
    <path clip-path="url(#p1f35102902)" d="M 229.582408 273.312 
L 231.196863 273.312 
L 231.196863 150.836211 
L 229.582408 150.836211 
z
" style="fill:#1f77b4;"/>
   </g>
   <g id="patch_104">
    <path clip-path="url(#p1f35102902)" d="M 231.196863 273.312 
L 232.811318 273.312 
L 232.811318 141.741474 
L 231.196863 141.741474 
z
" style="fill:#1f77b4;"/>
   </g>
   <g id="patch_105">
    <path clip-path="url(#p1f35102902)" d="M 232.811318 273.312 
L 234.425773 273.312 
L 234.425773 138.709895 
L 232.811318 138.709895 
z
" style="fill:#1f77b4;"/>
   </g>
   <g id="patch_106">
    <path clip-path="url(#p1f35102902)" d="M 234.425773 273.312 
L 236.040228 273.312 
L 236.040228 135.678316 
L 234.425773 135.678316 
z
" style="fill:#1f77b4;"/>
   </g>
   <g id="patch_107">
    <path clip-path="url(#p1f35102902)" d="M 236.040228 273.312 
L 237.654683 273.312 
L 237.654683 156.899368 
L 236.040228 156.899368 
z
" style="fill:#1f77b4;"/>
   </g>
   <g id="patch_108">
    <path clip-path="url(#p1f35102902)" d="M 237.654683 273.312 
L 239.269138 273.312 
L 239.269138 143.560421 
L 237.654683 143.560421 
z
" style="fill:#1f77b4;"/>
   </g>
   <g id="patch_109">
    <path clip-path="url(#p1f35102902)" d="M 239.269138 273.312 
L 240.883593 273.312 
L 240.883593 144.166737 
L 239.269138 144.166737 
z
" style="fill:#1f77b4;"/>
   </g>
   <g id="patch_110">
    <path clip-path="url(#p1f35102902)" d="M 240.883593 273.312 
L 242.498048 273.312 
L 242.498048 139.922526 
L 240.883593 139.922526 
z
" style="fill:#1f77b4;"/>
   </g>
   <g id="patch_111">
    <path clip-path="url(#p1f35102902)" d="M 242.498048 273.312 
L 244.112503 273.312 
L 244.112503 156.899368 
L 242.498048 156.899368 
z
" style="fill:#1f77b4;"/>
   </g>
   <g id="patch_112">
    <path clip-path="url(#p1f35102902)" d="M 244.112503 273.312 
L 245.726958 273.312 
L 245.726958 130.221474 
L 244.112503 130.221474 
z
" style="fill:#1f77b4;"/>
   </g>
   <g id="patch_113">
    <path clip-path="url(#p1f35102902)" d="M 245.726958 273.312 
L 247.341413 273.312 
L 247.341413 144.773053 
L 245.726958 144.773053 
z
" style="fill:#1f77b4;"/>
   </g>
   <g id="patch_114">
    <path clip-path="url(#p1f35102902)" d="M 247.341413 273.312 
L 248.955868 273.312 
L 248.955868 135.072 
L 247.341413 135.072 
z
" style="fill:#1f77b4;"/>
   </g>
   <g id="patch_115">
    <path clip-path="url(#p1f35102902)" d="M 248.955868 273.312 
L 250.570323 273.312 
L 250.570323 144.773053 
L 248.955868 144.773053 
z
" style="fill:#1f77b4;"/>
   </g>
   <g id="patch_116">
    <path clip-path="url(#p1f35102902)" d="M 250.570323 273.312 
L 252.184778 273.312 
L 252.184778 133.253053 
L 250.570323 133.253053 
z
" style="fill:#1f77b4;"/>
   </g>
   <g id="patch_117">
    <path clip-path="url(#p1f35102902)" d="M 252.184778 273.312 
L 253.799233 273.312 
L 253.799233 144.773053 
L 252.184778 144.773053 
z
" style="fill:#1f77b4;"/>
   </g>
   <g id="patch_118">
    <path clip-path="url(#p1f35102902)" d="M 253.799233 273.312 
L 255.413688 273.312 
L 255.413688 135.072 
L 253.799233 135.072 
z
" style="fill:#1f77b4;"/>
   </g>
   <g id="patch_119">
    <path clip-path="url(#p1f35102902)" d="M 255.413688 273.312 
L 257.028143 273.312 
L 257.028143 130.221474 
L 255.413688 130.221474 
z
" style="fill:#1f77b4;"/>
   </g>
   <g id="patch_120">
    <path clip-path="url(#p1f35102902)" d="M 257.028143 273.312 
L 258.642598 273.312 
L 258.642598 147.804632 
L 257.028143 147.804632 
z
" style="fill:#1f77b4;"/>
   </g>
   <g id="patch_121">
    <path clip-path="url(#p1f35102902)" d="M 258.642598 273.312 
L 260.257053 273.312 
L 260.257053 145.379368 
L 258.642598 145.379368 
z
" style="fill:#1f77b4;"/>
   </g>
   <g id="patch_122">
    <path clip-path="url(#p1f35102902)" d="M 260.257053 273.312 
L 261.871508 273.312 
L 261.871508 139.316211 
L 260.257053 139.316211 
z
" style="fill:#1f77b4;"/>
   </g>
   <g id="patch_123">
    <path clip-path="url(#p1f35102902)" d="M 261.871508 273.312 
L 263.485963 273.312 
L 263.485963 155.686737 
L 261.871508 155.686737 
z
" style="fill:#1f77b4;"/>
   </g>
   <g id="patch_124">
    <path clip-path="url(#p1f35102902)" d="M 263.485963 273.312 
L 265.100418 273.312 
L 265.100418 116.882526 
L 263.485963 116.882526 
z
" style="fill:#1f77b4;"/>
   </g>
   <g id="patch_125">
    <path clip-path="url(#p1f35102902)" d="M 265.100418 273.312 
L 266.714873 273.312 
L 266.714873 121.126737 
L 265.100418 121.126737 
z
" style="fill:#1f77b4;"/>
   </g>
   <g id="patch_126">
    <path clip-path="url(#p1f35102902)" d="M 266.714873 273.312 
L 268.329328 273.312 
L 268.329328 138.709895 
L 266.714873 138.709895 
z
" style="fill:#1f77b4;"/>
   </g>
   <g id="patch_127">
    <path clip-path="url(#p1f35102902)" d="M 268.329328 273.312 
L 269.943783 273.312 
L 269.943783 115.669895 
L 268.329328 115.669895 
z
" style="fill:#1f77b4;"/>
   </g>
   <g id="patch_128">
    <path clip-path="url(#p1f35102902)" d="M 269.943783 273.312 
L 271.558238 273.312 
L 271.558238 122.945684 
L 269.943783 122.945684 
z
" style="fill:#1f77b4;"/>
   </g>
   <g id="patch_129">
    <path clip-path="url(#p1f35102902)" d="M 271.558238 273.312 
L 273.172693 273.312 
L 273.172693 118.701474 
L 271.558238 118.701474 
z
" style="fill:#1f77b4;"/>
   </g>
   <g id="patch_130">
    <path clip-path="url(#p1f35102902)" d="M 273.172693 273.312 
L 274.787148 273.312 
L 274.787148 125.370947 
L 273.172693 125.370947 
z
" style="fill:#1f77b4;"/>
   </g>
   <g id="patch_131">
    <path clip-path="url(#p1f35102902)" d="M 274.787148 273.312 
L 276.401603 273.312 
L 276.401603 117.488842 
L 274.787148 117.488842 
z
" style="fill:#1f77b4;"/>
   </g>
   <g id="patch_132">
    <path clip-path="url(#p1f35102902)" d="M 276.401603 273.312 
L 278.016058 273.312 
L 278.016058 129.615158 
L 276.401603 129.615158 
z
" style="fill:#1f77b4;"/>
   </g>
   <g id="patch_133">
    <path clip-path="url(#p1f35102902)" d="M 278.016058 273.312 
L 279.630513 273.312 
L 279.630513 124.158316 
L 278.016058 124.158316 
z
" style="fill:#1f77b4;"/>
   </g>
   <g id="patch_134">
    <path clip-path="url(#p1f35102902)" d="M 279.630513 273.312 
L 281.244968 273.312 
L 281.244968 132.040421 
L 279.630513 132.040421 
z
" style="fill:#1f77b4;"/>
   </g>
   <g id="patch_135">
    <path clip-path="url(#p1f35102902)" d="M 281.244968 273.312 
L 282.859423 273.312 
L 282.859423 119.914105 
L 281.244968 119.914105 
z
" style="fill:#1f77b4;"/>
   </g>
   <g id="patch_136">
    <path clip-path="url(#p1f35102902)" d="M 282.859423 273.312 
L 284.473878 273.312 
L 284.473878 105.362526 
L 282.859423 105.362526 
z
" style="fill:#1f77b4;"/>
   </g>
   <g id="patch_137">
    <path clip-path="url(#p1f35102902)" d="M 284.473878 273.312 
L 286.088333 273.312 
L 286.088333 120.520421 
L 284.473878 120.520421 
z
" style="fill:#1f77b4;"/>
   </g>
   <g id="patch_138">
    <path clip-path="url(#p1f35102902)" d="M 286.088333 273.312 
L 287.702788 273.312 
L 287.702788 115.063579 
L 286.088333 115.063579 
z
" style="fill:#1f77b4;"/>
   </g>
   <g id="patch_139">
    <path clip-path="url(#p1f35102902)" d="M 287.702788 273.312 
L 289.317243 273.312 
L 289.317243 118.701474 
L 287.702788 118.701474 
z
" style="fill:#1f77b4;"/>
   </g>
   <g id="patch_140">
    <path clip-path="url(#p1f35102902)" d="M 289.317243 273.312 
L 290.931698 273.312 
L 290.931698 106.575158 
L 289.317243 106.575158 
z
" style="fill:#1f77b4;"/>
   </g>
   <g id="patch_141">
    <path clip-path="url(#p1f35102902)" d="M 290.931698 273.312 
L 292.546153 273.312 
L 292.546153 102.330947 
L 290.931698 102.330947 
z
" style="fill:#1f77b4;"/>
   </g>
   <g id="patch_142">
    <path clip-path="url(#p1f35102902)" d="M 292.546153 273.312 
L 294.160608 273.312 
L 294.160608 119.307789 
L 292.546153 119.307789 
z
" style="fill:#1f77b4;"/>
   </g>
   <g id="patch_143">
    <path clip-path="url(#p1f35102902)" d="M 294.160608 273.312 
L 295.775063 273.312 
L 295.775063 102.937263 
L 294.160608 102.937263 
z
" style="fill:#1f77b4;"/>
   </g>
   <g id="patch_144">
    <path clip-path="url(#p1f35102902)" d="M 295.775063 273.312 
L 297.389518 273.312 
L 297.389518 96.874105 
L 295.775063 96.874105 
z
" style="fill:#1f77b4;"/>
   </g>
   <g id="patch_145">
    <path clip-path="url(#p1f35102902)" d="M 297.389518 273.312 
L 299.003973 273.312 
L 299.003973 99.299368 
L 297.389518 99.299368 
z
" style="fill:#1f77b4;"/>
   </g>
   <g id="patch_146">
    <path clip-path="url(#p1f35102902)" d="M 299.003973 273.312 
L 300.618428 273.312 
L 300.618428 92.629895 
L 299.003973 92.629895 
z
" style="fill:#1f77b4;"/>
   </g>
   <g id="patch_147">
    <path clip-path="url(#p1f35102902)" d="M 300.618428 273.312 
L 302.232883 273.312 
L 302.232883 99.299368 
L 300.618428 99.299368 
z
" style="fill:#1f77b4;"/>
   </g>
   <g id="patch_148">
    <path clip-path="url(#p1f35102902)" d="M 302.232883 273.312 
L 303.847338 273.312 
L 303.847338 114.457263 
L 302.232883 114.457263 
z
" style="fill:#1f77b4;"/>
   </g>
   <g id="patch_149">
    <path clip-path="url(#p1f35102902)" d="M 303.847338 273.312 
L 305.461793 273.312 
L 305.461793 102.937263 
L 303.847338 102.937263 
z
" style="fill:#1f77b4;"/>
   </g>
   <g id="patch_150">
    <path clip-path="url(#p1f35102902)" d="M 305.461793 273.312 
L 307.076248 273.312 
L 307.076248 96.267789 
L 305.461793 96.267789 
z
" style="fill:#1f77b4;"/>
   </g>
   <g id="patch_151">
    <path clip-path="url(#p1f35102902)" d="M 307.076248 273.312 
L 308.690703 273.312 
L 308.690703 111.425684 
L 307.076248 111.425684 
z
" style="fill:#1f77b4;"/>
   </g>
   <g id="patch_152">
    <path clip-path="url(#p1f35102902)" d="M 308.690703 273.312 
L 310.305158 273.312 
L 310.305158 80.503579 
L 308.690703 80.503579 
z
" style="fill:#1f77b4;"/>
   </g>
   <g id="patch_153">
    <path clip-path="url(#p1f35102902)" d="M 310.305158 273.312 
L 311.919613 273.312 
L 311.919613 92.023579 
L 310.305158 92.023579 
z
" style="fill:#1f77b4;"/>
   </g>
   <g id="patch_154">
    <path clip-path="url(#p1f35102902)" d="M 311.919613 273.312 
L 313.534068 273.312 
L 313.534068 81.716211 
L 311.919613 81.716211 
z
" style="fill:#1f77b4;"/>
   </g>
   <g id="patch_155">
    <path clip-path="url(#p1f35102902)" d="M 313.534068 273.312 
L 315.148523 273.312 
L 315.148523 85.354105 
L 313.534068 85.354105 
z
" style="fill:#1f77b4;"/>
   </g>
   <g id="patch_156">
    <path clip-path="url(#p1f35102902)" d="M 315.148523 273.312 
L 316.762978 273.312 
L 316.762978 95.055158 
L 315.148523 95.055158 
z
" style="fill:#1f77b4;"/>
   </g>
   <g id="patch_157">
    <path clip-path="url(#p1f35102902)" d="M 316.762978 273.312 
L 318.377433 273.312 
L 318.377433 57.463579 
L 316.762978 57.463579 
z
" style="fill:#1f77b4;"/>
   </g>
   <g id="patch_158">
    <path clip-path="url(#p1f35102902)" d="M 318.377433 273.312 
L 319.991888 273.312 
L 319.991888 91.417263 
L 318.377433 91.417263 
z
" style="fill:#1f77b4;"/>
   </g>
   <g id="patch_159">
    <path clip-path="url(#p1f35102902)" d="M 319.991888 273.312 
L 321.606343 273.312 
L 321.606343 64.133053 
L 319.991888 64.133053 
z
" style="fill:#1f77b4;"/>
   </g>
   <g id="patch_160">
    <path clip-path="url(#p1f35102902)" d="M 321.606343 273.312 
L 323.220798 273.312 
L 323.220798 81.109895 
L 321.606343 81.109895 
z
" style="fill:#1f77b4;"/>
   </g>
   <g id="patch_161">
    <path clip-path="url(#p1f35102902)" d="M 323.220798 273.312 
L 324.835253 273.312 
L 324.835253 56.250947 
L 323.220798 56.250947 
z
" style="fill:#1f77b4;"/>
   </g>
   <g id="patch_162">
    <path clip-path="url(#p1f35102902)" d="M 324.835253 273.312 
L 326.449708 273.312 
L 326.449708 68.983579 
L 324.835253 68.983579 
z
" style="fill:#1f77b4;"/>
   </g>
   <g id="patch_163">
    <path clip-path="url(#p1f35102902)" d="M 326.449708 273.312 
L 328.064163 273.312 
L 328.064163 79.290947 
L 326.449708 79.290947 
z
" style="fill:#1f77b4;"/>
   </g>
   <g id="patch_164">
    <path clip-path="url(#p1f35102902)" d="M 328.064163 273.312 
L 329.678618 273.312 
L 329.678618 77.472 
L 328.064163 77.472 
z
" style="fill:#1f77b4;"/>
   </g>
   <g id="patch_165">
    <path clip-path="url(#p1f35102902)" d="M 329.678618 273.312 
L 331.293073 273.312 
L 331.293073 85.960421 
L 329.678618 85.960421 
z
" style="fill:#1f77b4;"/>
   </g>
   <g id="patch_166">
    <path clip-path="url(#p1f35102902)" d="M 331.293073 273.312 
L 332.907528 273.312 
L 332.907528 66.558316 
L 331.293073 66.558316 
z
" style="fill:#1f77b4;"/>
   </g>
   <g id="patch_167">
    <path clip-path="url(#p1f35102902)" d="M 332.907528 273.312 
L 334.521983 273.312 
L 334.521983 90.204632 
L 332.907528 90.204632 
z
" style="fill:#1f77b4;"/>
   </g>
   <g id="patch_168">
    <path clip-path="url(#p1f35102902)" d="M 334.521983 273.312 
L 336.136438 273.312 
L 336.136438 78.684632 
L 334.521983 78.684632 
z
" style="fill:#1f77b4;"/>
   </g>
   <g id="patch_169">
    <path clip-path="url(#p1f35102902)" d="M 336.136438 273.312 
L 337.750893 273.312 
L 337.750893 76.259368 
L 336.136438 76.259368 
z
" style="fill:#1f77b4;"/>
   </g>
   <g id="patch_170">
    <path clip-path="url(#p1f35102902)" d="M 337.750893 273.312 
L 339.365348 273.312 
L 339.365348 69.589895 
L 337.750893 69.589895 
z
" style="fill:#1f77b4;"/>
   </g>
   <g id="patch_171">
    <path clip-path="url(#p1f35102902)" d="M 339.365348 273.312 
L 340.979803 273.312 
L 340.979803 65.952 
L 339.365348 65.952 
z
" style="fill:#1f77b4;"/>
   </g>
   <g id="patch_172">
    <path clip-path="url(#p1f35102902)" d="M 340.979803 273.312 
L 342.594258 273.312 
L 342.594258 75.046737 
L 340.979803 75.046737 
z
" style="fill:#1f77b4;"/>
   </g>
   <g id="patch_173">
    <path clip-path="url(#p1f35102902)" d="M 342.594258 273.312 
L 344.208713 273.312 
L 344.208713 82.322526 
L 342.594258 82.322526 
z
" style="fill:#1f77b4;"/>
   </g>
   <g id="patch_174">
    <path clip-path="url(#p1f35102902)" d="M 344.208713 273.312 
L 345.823168 273.312 
L 345.823168 62.920421 
L 344.208713 62.920421 
z
" style="fill:#1f77b4;"/>
   </g>
   <g id="patch_175">
    <path clip-path="url(#p1f35102902)" d="M 345.823168 273.312 
L 347.437623 273.312 
L 347.437623 58.676211 
L 345.823168 58.676211 
z
" style="fill:#1f77b4;"/>
   </g>
   <g id="patch_176">
    <path clip-path="url(#p1f35102902)" d="M 347.437623 273.312 
L 349.052078 273.312 
L 349.052078 70.802526 
L 347.437623 70.802526 
z
" style="fill:#1f77b4;"/>
   </g>
   <g id="patch_177">
    <path clip-path="url(#p1f35102902)" d="M 349.052078 273.312 
L 350.666533 273.312 
L 350.666533 26.541474 
L 349.052078 26.541474 
z
" style="fill:#1f77b4;"/>
   </g>
   <g id="patch_178">
    <path clip-path="url(#p1f35102902)" d="M 350.666533 273.312 
L 352.280988 273.312 
L 352.280988 76.259368 
L 350.666533 76.259368 
z
" style="fill:#1f77b4;"/>
   </g>
   <g id="patch_179">
    <path clip-path="url(#p1f35102902)" d="M 352.280988 273.312 
L 353.895443 273.312 
L 353.895443 32.604632 
L 352.280988 32.604632 
z
" style="fill:#1f77b4;"/>
   </g>
   <g id="patch_180">
    <path clip-path="url(#p1f35102902)" d="M 353.895443 273.312 
L 355.509898 273.312 
L 355.509898 41.699368 
L 353.895443 41.699368 
z
" style="fill:#1f77b4;"/>
   </g>
   <g id="patch_181">
    <path clip-path="url(#p1f35102902)" d="M 355.509898 273.312 
L 357.124352 273.312 
L 357.124352 51.400421 
L 355.509898 51.400421 
z
" style="fill:#1f77b4;"/>
   </g>
   <g id="patch_182">
    <path clip-path="url(#p1f35102902)" d="M 357.124352 273.312 
L 358.738807 273.312 
L 358.738807 35.636211 
L 357.124352 35.636211 
z
" style="fill:#1f77b4;"/>
   </g>
   <g id="patch_183">
    <path clip-path="url(#p1f35102902)" d="M 358.738807 273.312 
L 360.353262 273.312 
L 360.353262 60.495158 
L 358.738807 60.495158 
z
" style="fill:#1f77b4;"/>
   </g>
   <g id="patch_184">
    <path clip-path="url(#p1f35102902)" d="M 360.353262 273.312 
L 361.967717 273.312 
L 361.967717 46.549895 
L 360.353262 46.549895 
z
" style="fill:#1f77b4;"/>
   </g>
   <g id="patch_185">
    <path clip-path="url(#p1f35102902)" d="M 361.967717 273.312 
L 363.582172 273.312 
L 363.582172 44.124632 
L 361.967717 44.124632 
z
" style="fill:#1f77b4;"/>
   </g>
   <g id="patch_186">
    <path clip-path="url(#p1f35102902)" d="M 363.582172 273.312 
L 365.196627 273.312 
L 365.196627 48.368842 
L 363.582172 48.368842 
z
" style="fill:#1f77b4;"/>
   </g>
   <g id="patch_187">
    <path clip-path="url(#p1f35102902)" d="M 365.196627 273.312 
L 366.811082 273.312 
L 366.811082 48.368842 
L 365.196627 48.368842 
z
" style="fill:#1f77b4;"/>
   </g>
   <g id="patch_188">
    <path clip-path="url(#p1f35102902)" d="M 366.811082 273.312 
L 368.425537 273.312 
L 368.425537 54.432 
L 366.811082 54.432 
z
" style="fill:#1f77b4;"/>
   </g>
   <g id="patch_189">
    <path clip-path="url(#p1f35102902)" d="M 368.425537 273.312 
L 370.039992 273.312 
L 370.039992 63.526737 
L 368.425537 63.526737 
z
" style="fill:#1f77b4;"/>
   </g>
   <g id="patch_190">
    <path clip-path="url(#p1f35102902)" d="M 370.039992 273.312 
L 371.654447 273.312 
L 371.654447 53.825684 
L 370.039992 53.825684 
z
" style="fill:#1f77b4;"/>
   </g>
   <g id="patch_191">
    <path clip-path="url(#p1f35102902)" d="M 371.654447 273.312 
L 373.268902 273.312 
L 373.268902 53.825684 
L 371.654447 53.825684 
z
" style="fill:#1f77b4;"/>
   </g>
   <g id="patch_192">
    <path clip-path="url(#p1f35102902)" d="M 373.268902 273.312 
L 374.883357 273.312 
L 374.883357 43.518316 
L 373.268902 43.518316 
z
" style="fill:#1f77b4;"/>
   </g>
   <g id="patch_193">
    <path clip-path="url(#p1f35102902)" d="M 374.883357 273.312 
L 376.497812 273.312 
L 376.497812 47.156211 
L 374.883357 47.156211 
z
" style="fill:#1f77b4;"/>
   </g>
   <g id="patch_194">
    <path clip-path="url(#p1f35102902)" d="M 376.497812 273.312 
L 378.112267 273.312 
L 378.112267 36.848842 
L 376.497812 36.848842 
z
" style="fill:#1f77b4;"/>
   </g>
   <g id="patch_195">
    <path clip-path="url(#p1f35102902)" d="M 378.112267 273.312 
L 379.726722 273.312 
L 379.726722 38.061474 
L 378.112267 38.061474 
z
" style="fill:#1f77b4;"/>
   </g>
   <g id="patch_196">
    <path clip-path="url(#p1f35102902)" d="M 379.726722 273.312 
L 381.341177 273.312 
L 381.341177 19.872 
L 379.726722 19.872 
z
" style="fill:#1f77b4;"/>
   </g>
   <g id="patch_197">
    <path clip-path="url(#p1f35102902)" d="M 381.341177 273.312 
L 382.955632 273.312 
L 382.955632 30.179368 
L 381.341177 30.179368 
z
" style="fill:#1f77b4;"/>
   </g>
   <g id="patch_198">
    <path clip-path="url(#p1f35102902)" d="M 382.955632 273.312 
L 384.570087 273.312 
L 384.570087 31.392 
L 382.955632 31.392 
z
" style="fill:#1f77b4;"/>
   </g>
   <g id="patch_199">
    <path clip-path="url(#p1f35102902)" d="M 384.570087 273.312 
L 386.184542 273.312 
L 386.184542 50.187789 
L 384.570087 50.187789 
z
" style="fill:#1f77b4;"/>
   </g>
   <g id="patch_200">
    <path clip-path="url(#p1f35102902)" d="M 386.184542 273.312 
L 387.798997 273.312 
L 387.798997 25.935158 
L 386.184542 25.935158 
z
" style="fill:#1f77b4;"/>
   </g>
   <g id="patch_201">
    <path clip-path="url(#p1f35102902)" d="M 387.798997 273.312 
L 389.413452 273.312 
L 389.413452 39.274105 
L 387.798997 39.274105 
z
" style="fill:#1f77b4;"/>
   </g>
   <g id="patch_202">
    <path clip-path="url(#p1f35102902)" d="M 389.413452 273.312 
L 391.027907 273.312 
L 391.027907 50.794105 
L 389.413452 50.794105 
z
" style="fill:#1f77b4;"/>
   </g>
   <g id="matplotlib.axis_1">
    <g id="xtick_1">
     <g id="line2d_1">
      <defs>
       <path d="M 0 0 
L 0 3.5 
" id="mc95ad2dc44" style="stroke:#000000;stroke-width:0.8;"/>
      </defs>
      <g>
       <use style="stroke:#000000;stroke-width:0.8;" x="66.376477" xlink:href="#mc95ad2dc44" y="273.312"/>
      </g>
     </g>
     <g id="text_1">
      <!-- 0.0 -->
      <g transform="translate(58.424915 287.910437)scale(0.1 -0.1)">
       <defs>
        <path d="M 2034 4250 
Q 1547 4250 1301 3770 
Q 1056 3291 1056 2328 
Q 1056 1369 1301 889 
Q 1547 409 2034 409 
Q 2525 409 2770 889 
Q 3016 1369 3016 2328 
Q 3016 3291 2770 3770 
Q 2525 4250 2034 4250 
z
M 2034 4750 
Q 2819 4750 3233 4129 
Q 3647 3509 3647 2328 
Q 3647 1150 3233 529 
Q 2819 -91 2034 -91 
Q 1250 -91 836 529 
Q 422 1150 422 2328 
Q 422 3509 836 4129 
Q 1250 4750 2034 4750 
z
" id="DejaVuSans-30" transform="scale(0.015625)"/>
        <path d="M 684 794 
L 1344 794 
L 1344 0 
L 684 0 
L 684 794 
z
" id="DejaVuSans-2e" transform="scale(0.015625)"/>
       </defs>
       <use xlink:href="#DejaVuSans-30"/>
       <use x="63.623047" xlink:href="#DejaVuSans-2e"/>
       <use x="95.410156" xlink:href="#DejaVuSans-30"/>
      </g>
     </g>
    </g>
    <g id="xtick_2">
     <g id="line2d_2">
      <g>
       <use style="stroke:#000000;stroke-width:0.8;" x="131.307386" xlink:href="#mc95ad2dc44" y="273.312"/>
      </g>
     </g>
     <g id="text_2">
      <!-- 0.2 -->
      <g transform="translate(123.355824 287.910437)scale(0.1 -0.1)">
       <defs>
        <path d="M 1228 531 
L 3431 531 
L 3431 0 
L 469 0 
L 469 531 
Q 828 903 1448 1529 
Q 2069 2156 2228 2338 
Q 2531 2678 2651 2914 
Q 2772 3150 2772 3378 
Q 2772 3750 2511 3984 
Q 2250 4219 1831 4219 
Q 1534 4219 1204 4116 
Q 875 4013 500 3803 
L 500 4441 
Q 881 4594 1212 4672 
Q 1544 4750 1819 4750 
Q 2544 4750 2975 4387 
Q 3406 4025 3406 3419 
Q 3406 3131 3298 2873 
Q 3191 2616 2906 2266 
Q 2828 2175 2409 1742 
Q 1991 1309 1228 531 
z
" id="DejaVuSans-32" transform="scale(0.015625)"/>
       </defs>
       <use xlink:href="#DejaVuSans-30"/>
       <use x="63.623047" xlink:href="#DejaVuSans-2e"/>
       <use x="95.410156" xlink:href="#DejaVuSans-32"/>
      </g>
     </g>
    </g>
    <g id="xtick_3">
     <g id="line2d_3">
      <g>
       <use style="stroke:#000000;stroke-width:0.8;" x="196.238295" xlink:href="#mc95ad2dc44" y="273.312"/>
      </g>
     </g>
     <g id="text_3">
      <!-- 0.4 -->
      <g transform="translate(188.286733 287.910437)scale(0.1 -0.1)">
       <defs>
        <path d="M 2419 4116 
L 825 1625 
L 2419 1625 
L 2419 4116 
z
M 2253 4666 
L 3047 4666 
L 3047 1625 
L 3713 1625 
L 3713 1100 
L 3047 1100 
L 3047 0 
L 2419 0 
L 2419 1100 
L 313 1100 
L 313 1709 
L 2253 4666 
z
" id="DejaVuSans-34" transform="scale(0.015625)"/>
       </defs>
       <use xlink:href="#DejaVuSans-30"/>
       <use x="63.623047" xlink:href="#DejaVuSans-2e"/>
       <use x="95.410156" xlink:href="#DejaVuSans-34"/>
      </g>
     </g>
    </g>
    <g id="xtick_4">
     <g id="line2d_4">
      <g>
       <use style="stroke:#000000;stroke-width:0.8;" x="261.169205" xlink:href="#mc95ad2dc44" y="273.312"/>
      </g>
     </g>
     <g id="text_4">
      <!-- 0.6 -->
      <g transform="translate(253.217642 287.910437)scale(0.1 -0.1)">
       <defs>
        <path d="M 2113 2584 
Q 1688 2584 1439 2293 
Q 1191 2003 1191 1497 
Q 1191 994 1439 701 
Q 1688 409 2113 409 
Q 2538 409 2786 701 
Q 3034 994 3034 1497 
Q 3034 2003 2786 2293 
Q 2538 2584 2113 2584 
z
M 3366 4563 
L 3366 3988 
Q 3128 4100 2886 4159 
Q 2644 4219 2406 4219 
Q 1781 4219 1451 3797 
Q 1122 3375 1075 2522 
Q 1259 2794 1537 2939 
Q 1816 3084 2150 3084 
Q 2853 3084 3261 2657 
Q 3669 2231 3669 1497 
Q 3669 778 3244 343 
Q 2819 -91 2113 -91 
Q 1303 -91 875 529 
Q 447 1150 447 2328 
Q 447 3434 972 4092 
Q 1497 4750 2381 4750 
Q 2619 4750 2861 4703 
Q 3103 4656 3366 4563 
z
" id="DejaVuSans-36" transform="scale(0.015625)"/>
       </defs>
       <use xlink:href="#DejaVuSans-30"/>
       <use x="63.623047" xlink:href="#DejaVuSans-2e"/>
       <use x="95.410156" xlink:href="#DejaVuSans-36"/>
      </g>
     </g>
    </g>
    <g id="xtick_5">
     <g id="line2d_5">
      <g>
       <use style="stroke:#000000;stroke-width:0.8;" x="326.100114" xlink:href="#mc95ad2dc44" y="273.312"/>
      </g>
     </g>
     <g id="text_5">
      <!-- 0.8 -->
      <g transform="translate(318.148551 287.910437)scale(0.1 -0.1)">
       <defs>
        <path d="M 2034 2216 
Q 1584 2216 1326 1975 
Q 1069 1734 1069 1313 
Q 1069 891 1326 650 
Q 1584 409 2034 409 
Q 2484 409 2743 651 
Q 3003 894 3003 1313 
Q 3003 1734 2745 1975 
Q 2488 2216 2034 2216 
z
M 1403 2484 
Q 997 2584 770 2862 
Q 544 3141 544 3541 
Q 544 4100 942 4425 
Q 1341 4750 2034 4750 
Q 2731 4750 3128 4425 
Q 3525 4100 3525 3541 
Q 3525 3141 3298 2862 
Q 3072 2584 2669 2484 
Q 3125 2378 3379 2068 
Q 3634 1759 3634 1313 
Q 3634 634 3220 271 
Q 2806 -91 2034 -91 
Q 1263 -91 848 271 
Q 434 634 434 1313 
Q 434 1759 690 2068 
Q 947 2378 1403 2484 
z
M 1172 3481 
Q 1172 3119 1398 2916 
Q 1625 2713 2034 2713 
Q 2441 2713 2670 2916 
Q 2900 3119 2900 3481 
Q 2900 3844 2670 4047 
Q 2441 4250 2034 4250 
Q 1625 4250 1398 4047 
Q 1172 3844 1172 3481 
z
" id="DejaVuSans-38" transform="scale(0.015625)"/>
       </defs>
       <use xlink:href="#DejaVuSans-30"/>
       <use x="63.623047" xlink:href="#DejaVuSans-2e"/>
       <use x="95.410156" xlink:href="#DejaVuSans-38"/>
      </g>
     </g>
    </g>
    <g id="xtick_6">
     <g id="line2d_6">
      <g>
       <use style="stroke:#000000;stroke-width:0.8;" x="391.031023" xlink:href="#mc95ad2dc44" y="273.312"/>
      </g>
     </g>
     <g id="text_6">
      <!-- 1.0 -->
      <g transform="translate(383.07946 287.910437)scale(0.1 -0.1)">
       <defs>
        <path d="M 794 531 
L 1825 531 
L 1825 4091 
L 703 3866 
L 703 4441 
L 1819 4666 
L 2450 4666 
L 2450 531 
L 3481 531 
L 3481 0 
L 794 0 
L 794 531 
z
" id="DejaVuSans-31" transform="scale(0.015625)"/>
       </defs>
       <use xlink:href="#DejaVuSans-31"/>
       <use x="63.623047" xlink:href="#DejaVuSans-2e"/>
       <use x="95.410156" xlink:href="#DejaVuSans-30"/>
      </g>
     </g>
    </g>
    <g id="text_7">
     <!-- Propagation direction -->
     <g transform="translate(175.221719 301.588562)scale(0.1 -0.1)">
      <defs>
       <path d="M 1259 4147 
L 1259 2394 
L 2053 2394 
Q 2494 2394 2734 2622 
Q 2975 2850 2975 3272 
Q 2975 3691 2734 3919 
Q 2494 4147 2053 4147 
L 1259 4147 
z
M 628 4666 
L 2053 4666 
Q 2838 4666 3239 4311 
Q 3641 3956 3641 3272 
Q 3641 2581 3239 2228 
Q 2838 1875 2053 1875 
L 1259 1875 
L 1259 0 
L 628 0 
L 628 4666 
z
" id="DejaVuSans-50" transform="scale(0.015625)"/>
       <path d="M 2631 2963 
Q 2534 3019 2420 3045 
Q 2306 3072 2169 3072 
Q 1681 3072 1420 2755 
Q 1159 2438 1159 1844 
L 1159 0 
L 581 0 
L 581 3500 
L 1159 3500 
L 1159 2956 
Q 1341 3275 1631 3429 
Q 1922 3584 2338 3584 
Q 2397 3584 2469 3576 
Q 2541 3569 2628 3553 
L 2631 2963 
z
" id="DejaVuSans-72" transform="scale(0.015625)"/>
       <path d="M 1959 3097 
Q 1497 3097 1228 2736 
Q 959 2375 959 1747 
Q 959 1119 1226 758 
Q 1494 397 1959 397 
Q 2419 397 2687 759 
Q 2956 1122 2956 1747 
Q 2956 2369 2687 2733 
Q 2419 3097 1959 3097 
z
M 1959 3584 
Q 2709 3584 3137 3096 
Q 3566 2609 3566 1747 
Q 3566 888 3137 398 
Q 2709 -91 1959 -91 
Q 1206 -91 779 398 
Q 353 888 353 1747 
Q 353 2609 779 3096 
Q 1206 3584 1959 3584 
z
" id="DejaVuSans-6f" transform="scale(0.015625)"/>
       <path d="M 1159 525 
L 1159 -1331 
L 581 -1331 
L 581 3500 
L 1159 3500 
L 1159 2969 
Q 1341 3281 1617 3432 
Q 1894 3584 2278 3584 
Q 2916 3584 3314 3078 
Q 3713 2572 3713 1747 
Q 3713 922 3314 415 
Q 2916 -91 2278 -91 
Q 1894 -91 1617 61 
Q 1341 213 1159 525 
z
M 3116 1747 
Q 3116 2381 2855 2742 
Q 2594 3103 2138 3103 
Q 1681 3103 1420 2742 
Q 1159 2381 1159 1747 
Q 1159 1113 1420 752 
Q 1681 391 2138 391 
Q 2594 391 2855 752 
Q 3116 1113 3116 1747 
z
" id="DejaVuSans-70" transform="scale(0.015625)"/>
       <path d="M 2194 1759 
Q 1497 1759 1228 1600 
Q 959 1441 959 1056 
Q 959 750 1161 570 
Q 1363 391 1709 391 
Q 2188 391 2477 730 
Q 2766 1069 2766 1631 
L 2766 1759 
L 2194 1759 
z
M 3341 1997 
L 3341 0 
L 2766 0 
L 2766 531 
Q 2569 213 2275 61 
Q 1981 -91 1556 -91 
Q 1019 -91 701 211 
Q 384 513 384 1019 
Q 384 1609 779 1909 
Q 1175 2209 1959 2209 
L 2766 2209 
L 2766 2266 
Q 2766 2663 2505 2880 
Q 2244 3097 1772 3097 
Q 1472 3097 1187 3025 
Q 903 2953 641 2809 
L 641 3341 
Q 956 3463 1253 3523 
Q 1550 3584 1831 3584 
Q 2591 3584 2966 3190 
Q 3341 2797 3341 1997 
z
" id="DejaVuSans-61" transform="scale(0.015625)"/>
       <path d="M 2906 1791 
Q 2906 2416 2648 2759 
Q 2391 3103 1925 3103 
Q 1463 3103 1205 2759 
Q 947 2416 947 1791 
Q 947 1169 1205 825 
Q 1463 481 1925 481 
Q 2391 481 2648 825 
Q 2906 1169 2906 1791 
z
M 3481 434 
Q 3481 -459 3084 -895 
Q 2688 -1331 1869 -1331 
Q 1566 -1331 1297 -1286 
Q 1028 -1241 775 -1147 
L 775 -588 
Q 1028 -725 1275 -790 
Q 1522 -856 1778 -856 
Q 2344 -856 2625 -561 
Q 2906 -266 2906 331 
L 2906 616 
Q 2728 306 2450 153 
Q 2172 0 1784 0 
Q 1141 0 747 490 
Q 353 981 353 1791 
Q 353 2603 747 3093 
Q 1141 3584 1784 3584 
Q 2172 3584 2450 3431 
Q 2728 3278 2906 2969 
L 2906 3500 
L 3481 3500 
L 3481 434 
z
" id="DejaVuSans-67" transform="scale(0.015625)"/>
       <path d="M 1172 4494 
L 1172 3500 
L 2356 3500 
L 2356 3053 
L 1172 3053 
L 1172 1153 
Q 1172 725 1289 603 
Q 1406 481 1766 481 
L 2356 481 
L 2356 0 
L 1766 0 
Q 1100 0 847 248 
Q 594 497 594 1153 
L 594 3053 
L 172 3053 
L 172 3500 
L 594 3500 
L 594 4494 
L 1172 4494 
z
" id="DejaVuSans-74" transform="scale(0.015625)"/>
       <path d="M 603 3500 
L 1178 3500 
L 1178 0 
L 603 0 
L 603 3500 
z
M 603 4863 
L 1178 4863 
L 1178 4134 
L 603 4134 
L 603 4863 
z
" id="DejaVuSans-69" transform="scale(0.015625)"/>
       <path d="M 3513 2113 
L 3513 0 
L 2938 0 
L 2938 2094 
Q 2938 2591 2744 2837 
Q 2550 3084 2163 3084 
Q 1697 3084 1428 2787 
Q 1159 2491 1159 1978 
L 1159 0 
L 581 0 
L 581 3500 
L 1159 3500 
L 1159 2956 
Q 1366 3272 1645 3428 
Q 1925 3584 2291 3584 
Q 2894 3584 3203 3211 
Q 3513 2838 3513 2113 
z
" id="DejaVuSans-6e" transform="scale(0.015625)"/>
       <path id="DejaVuSans-20" transform="scale(0.015625)"/>
       <path d="M 2906 2969 
L 2906 4863 
L 3481 4863 
L 3481 0 
L 2906 0 
L 2906 525 
Q 2725 213 2448 61 
Q 2172 -91 1784 -91 
Q 1150 -91 751 415 
Q 353 922 353 1747 
Q 353 2572 751 3078 
Q 1150 3584 1784 3584 
Q 2172 3584 2448 3432 
Q 2725 3281 2906 2969 
z
M 947 1747 
Q 947 1113 1208 752 
Q 1469 391 1925 391 
Q 2381 391 2643 752 
Q 2906 1113 2906 1747 
Q 2906 2381 2643 2742 
Q 2381 3103 1925 3103 
Q 1469 3103 1208 2742 
Q 947 2381 947 1747 
z
" id="DejaVuSans-64" transform="scale(0.015625)"/>
       <path d="M 3597 1894 
L 3597 1613 
L 953 1613 
Q 991 1019 1311 708 
Q 1631 397 2203 397 
Q 2534 397 2845 478 
Q 3156 559 3463 722 
L 3463 178 
Q 3153 47 2828 -22 
Q 2503 -91 2169 -91 
Q 1331 -91 842 396 
Q 353 884 353 1716 
Q 353 2575 817 3079 
Q 1281 3584 2069 3584 
Q 2775 3584 3186 3129 
Q 3597 2675 3597 1894 
z
M 3022 2063 
Q 3016 2534 2758 2815 
Q 2500 3097 2075 3097 
Q 1594 3097 1305 2825 
Q 1016 2553 972 2059 
L 3022 2063 
z
" id="DejaVuSans-65" transform="scale(0.015625)"/>
       <path d="M 3122 3366 
L 3122 2828 
Q 2878 2963 2633 3030 
Q 2388 3097 2138 3097 
Q 1578 3097 1268 2742 
Q 959 2388 959 1747 
Q 959 1106 1268 751 
Q 1578 397 2138 397 
Q 2388 397 2633 464 
Q 2878 531 3122 666 
L 3122 134 
Q 2881 22 2623 -34 
Q 2366 -91 2075 -91 
Q 1284 -91 818 406 
Q 353 903 353 1747 
Q 353 2603 823 3093 
Q 1294 3584 2113 3584 
Q 2378 3584 2631 3529 
Q 2884 3475 3122 3366 
z
" id="DejaVuSans-63" transform="scale(0.015625)"/>
      </defs>
      <use xlink:href="#DejaVuSans-50"/>
      <use x="58.552734" xlink:href="#DejaVuSans-72"/>
      <use x="97.416016" xlink:href="#DejaVuSans-6f"/>
      <use x="158.597656" xlink:href="#DejaVuSans-70"/>
      <use x="222.074219" xlink:href="#DejaVuSans-61"/>
      <use x="283.353516" xlink:href="#DejaVuSans-67"/>
      <use x="346.830078" xlink:href="#DejaVuSans-61"/>
      <use x="408.109375" xlink:href="#DejaVuSans-74"/>
      <use x="447.318359" xlink:href="#DejaVuSans-69"/>
      <use x="475.101562" xlink:href="#DejaVuSans-6f"/>
      <use x="536.283203" xlink:href="#DejaVuSans-6e"/>
      <use x="599.662109" xlink:href="#DejaVuSans-20"/>
      <use x="631.449219" xlink:href="#DejaVuSans-64"/>
      <use x="694.925781" xlink:href="#DejaVuSans-69"/>
      <use x="722.708984" xlink:href="#DejaVuSans-72"/>
      <use x="761.572266" xlink:href="#DejaVuSans-65"/>
      <use x="823.095703" xlink:href="#DejaVuSans-63"/>
      <use x="878.076172" xlink:href="#DejaVuSans-74"/>
      <use x="917.285156" xlink:href="#DejaVuSans-69"/>
      <use x="945.068359" xlink:href="#DejaVuSans-6f"/>
      <use x="1006.25" xlink:href="#DejaVuSans-6e"/>
     </g>
    </g>
   </g>
   <g id="matplotlib.axis_2">
    <g id="ytick_1">
     <g id="line2d_7">
      <defs>
       <path d="M 0 0 
L -3.5 0 
" id="ma0cc21b02c" style="stroke:#000000;stroke-width:0.8;"/>
      </defs>
      <g>
       <use style="stroke:#000000;stroke-width:0.8;" x="50.14375" xlink:href="#ma0cc21b02c" y="273.312"/>
      </g>
     </g>
     <g id="text_8">
      <!-- 0.00 -->
      <g transform="translate(20.878125 277.111219)scale(0.1 -0.1)">
       <use xlink:href="#DejaVuSans-30"/>
       <use x="63.623047" xlink:href="#DejaVuSans-2e"/>
       <use x="95.410156" xlink:href="#DejaVuSans-30"/>
       <use x="159.033203" xlink:href="#DejaVuSans-30"/>
      </g>
     </g>
    </g>
    <g id="ytick_2">
     <g id="line2d_8">
      <g>
       <use style="stroke:#000000;stroke-width:0.8;" x="50.14375" xlink:href="#ma0cc21b02c" y="243.160888"/>
      </g>
     </g>
     <g id="text_9">
      <!-- 0.25 -->
      <g transform="translate(20.878125 246.960107)scale(0.1 -0.1)">
       <defs>
        <path d="M 691 4666 
L 3169 4666 
L 3169 4134 
L 1269 4134 
L 1269 2991 
Q 1406 3038 1543 3061 
Q 1681 3084 1819 3084 
Q 2600 3084 3056 2656 
Q 3513 2228 3513 1497 
Q 3513 744 3044 326 
Q 2575 -91 1722 -91 
Q 1428 -91 1123 -41 
Q 819 9 494 109 
L 494 744 
Q 775 591 1075 516 
Q 1375 441 1709 441 
Q 2250 441 2565 725 
Q 2881 1009 2881 1497 
Q 2881 1984 2565 2268 
Q 2250 2553 1709 2553 
Q 1456 2553 1204 2497 
Q 953 2441 691 2322 
L 691 4666 
z
" id="DejaVuSans-35" transform="scale(0.015625)"/>
       </defs>
       <use xlink:href="#DejaVuSans-30"/>
       <use x="63.623047" xlink:href="#DejaVuSans-2e"/>
       <use x="95.410156" xlink:href="#DejaVuSans-32"/>
       <use x="159.033203" xlink:href="#DejaVuSans-35"/>
      </g>
     </g>
    </g>
    <g id="ytick_3">
     <g id="line2d_9">
      <g>
       <use style="stroke:#000000;stroke-width:0.8;" x="50.14375" xlink:href="#ma0cc21b02c" y="213.009776"/>
      </g>
     </g>
     <g id="text_10">
      <!-- 0.50 -->
      <g transform="translate(20.878125 216.808995)scale(0.1 -0.1)">
       <use xlink:href="#DejaVuSans-30"/>
       <use x="63.623047" xlink:href="#DejaVuSans-2e"/>
       <use x="95.410156" xlink:href="#DejaVuSans-35"/>
       <use x="159.033203" xlink:href="#DejaVuSans-30"/>
      </g>
     </g>
    </g>
    <g id="ytick_4">
     <g id="line2d_10">
      <g>
       <use style="stroke:#000000;stroke-width:0.8;" x="50.14375" xlink:href="#ma0cc21b02c" y="182.858665"/>
      </g>
     </g>
     <g id="text_11">
      <!-- 0.75 -->
      <g transform="translate(20.878125 186.657883)scale(0.1 -0.1)">
       <defs>
        <path d="M 525 4666 
L 3525 4666 
L 3525 4397 
L 1831 0 
L 1172 0 
L 2766 4134 
L 525 4134 
L 525 4666 
z
" id="DejaVuSans-37" transform="scale(0.015625)"/>
       </defs>
       <use xlink:href="#DejaVuSans-30"/>
       <use x="63.623047" xlink:href="#DejaVuSans-2e"/>
       <use x="95.410156" xlink:href="#DejaVuSans-37"/>
       <use x="159.033203" xlink:href="#DejaVuSans-35"/>
      </g>
     </g>
    </g>
    <g id="ytick_5">
     <g id="line2d_11">
      <g>
       <use style="stroke:#000000;stroke-width:0.8;" x="50.14375" xlink:href="#ma0cc21b02c" y="152.707553"/>
      </g>
     </g>
     <g id="text_12">
      <!-- 1.00 -->
      <g transform="translate(20.878125 156.506771)scale(0.1 -0.1)">
       <use xlink:href="#DejaVuSans-31"/>
       <use x="63.623047" xlink:href="#DejaVuSans-2e"/>
       <use x="95.410156" xlink:href="#DejaVuSans-30"/>
       <use x="159.033203" xlink:href="#DejaVuSans-30"/>
      </g>
     </g>
    </g>
    <g id="ytick_6">
     <g id="line2d_12">
      <g>
       <use style="stroke:#000000;stroke-width:0.8;" x="50.14375" xlink:href="#ma0cc21b02c" y="122.556441"/>
      </g>
     </g>
     <g id="text_13">
      <!-- 1.25 -->
      <g transform="translate(20.878125 126.35566)scale(0.1 -0.1)">
       <use xlink:href="#DejaVuSans-31"/>
       <use x="63.623047" xlink:href="#DejaVuSans-2e"/>
       <use x="95.410156" xlink:href="#DejaVuSans-32"/>
       <use x="159.033203" xlink:href="#DejaVuSans-35"/>
      </g>
     </g>
    </g>
    <g id="ytick_7">
     <g id="line2d_13">
      <g>
       <use style="stroke:#000000;stroke-width:0.8;" x="50.14375" xlink:href="#ma0cc21b02c" y="92.405329"/>
      </g>
     </g>
     <g id="text_14">
      <!-- 1.50 -->
      <g transform="translate(20.878125 96.204548)scale(0.1 -0.1)">
       <use xlink:href="#DejaVuSans-31"/>
       <use x="63.623047" xlink:href="#DejaVuSans-2e"/>
       <use x="95.410156" xlink:href="#DejaVuSans-35"/>
       <use x="159.033203" xlink:href="#DejaVuSans-30"/>
      </g>
     </g>
    </g>
    <g id="ytick_8">
     <g id="line2d_14">
      <g>
       <use style="stroke:#000000;stroke-width:0.8;" x="50.14375" xlink:href="#ma0cc21b02c" y="62.254217"/>
      </g>
     </g>
     <g id="text_15">
      <!-- 1.75 -->
      <g transform="translate(20.878125 66.053436)scale(0.1 -0.1)">
       <use xlink:href="#DejaVuSans-31"/>
       <use x="63.623047" xlink:href="#DejaVuSans-2e"/>
       <use x="95.410156" xlink:href="#DejaVuSans-37"/>
       <use x="159.033203" xlink:href="#DejaVuSans-35"/>
      </g>
     </g>
    </g>
    <g id="ytick_9">
     <g id="line2d_15">
      <g>
       <use style="stroke:#000000;stroke-width:0.8;" x="50.14375" xlink:href="#ma0cc21b02c" y="32.103105"/>
      </g>
     </g>
     <g id="text_16">
      <!-- 2.00 -->
      <g transform="translate(20.878125 35.902324)scale(0.1 -0.1)">
       <use xlink:href="#DejaVuSans-32"/>
       <use x="63.623047" xlink:href="#DejaVuSans-2e"/>
       <use x="95.410156" xlink:href="#DejaVuSans-30"/>
       <use x="159.033203" xlink:href="#DejaVuSans-30"/>
      </g>
     </g>
    </g>
    <g id="text_17">
     <!-- Probability density -->
     <g transform="translate(14.798438 186.606781)rotate(-90)scale(0.1 -0.1)">
      <defs>
       <path d="M 3116 1747 
Q 3116 2381 2855 2742 
Q 2594 3103 2138 3103 
Q 1681 3103 1420 2742 
Q 1159 2381 1159 1747 
Q 1159 1113 1420 752 
Q 1681 391 2138 391 
Q 2594 391 2855 752 
Q 3116 1113 3116 1747 
z
M 1159 2969 
Q 1341 3281 1617 3432 
Q 1894 3584 2278 3584 
Q 2916 3584 3314 3078 
Q 3713 2572 3713 1747 
Q 3713 922 3314 415 
Q 2916 -91 2278 -91 
Q 1894 -91 1617 61 
Q 1341 213 1159 525 
L 1159 0 
L 581 0 
L 581 4863 
L 1159 4863 
L 1159 2969 
z
" id="DejaVuSans-62" transform="scale(0.015625)"/>
       <path d="M 603 4863 
L 1178 4863 
L 1178 0 
L 603 0 
L 603 4863 
z
" id="DejaVuSans-6c" transform="scale(0.015625)"/>
       <path d="M 2059 -325 
Q 1816 -950 1584 -1140 
Q 1353 -1331 966 -1331 
L 506 -1331 
L 506 -850 
L 844 -850 
Q 1081 -850 1212 -737 
Q 1344 -625 1503 -206 
L 1606 56 
L 191 3500 
L 800 3500 
L 1894 763 
L 2988 3500 
L 3597 3500 
L 2059 -325 
z
" id="DejaVuSans-79" transform="scale(0.015625)"/>
       <path d="M 2834 3397 
L 2834 2853 
Q 2591 2978 2328 3040 
Q 2066 3103 1784 3103 
Q 1356 3103 1142 2972 
Q 928 2841 928 2578 
Q 928 2378 1081 2264 
Q 1234 2150 1697 2047 
L 1894 2003 
Q 2506 1872 2764 1633 
Q 3022 1394 3022 966 
Q 3022 478 2636 193 
Q 2250 -91 1575 -91 
Q 1294 -91 989 -36 
Q 684 19 347 128 
L 347 722 
Q 666 556 975 473 
Q 1284 391 1588 391 
Q 1994 391 2212 530 
Q 2431 669 2431 922 
Q 2431 1156 2273 1281 
Q 2116 1406 1581 1522 
L 1381 1569 
Q 847 1681 609 1914 
Q 372 2147 372 2553 
Q 372 3047 722 3315 
Q 1072 3584 1716 3584 
Q 2034 3584 2315 3537 
Q 2597 3491 2834 3397 
z
" id="DejaVuSans-73" transform="scale(0.015625)"/>
      </defs>
      <use xlink:href="#DejaVuSans-50"/>
      <use x="58.552734" xlink:href="#DejaVuSans-72"/>
      <use x="97.416016" xlink:href="#DejaVuSans-6f"/>
      <use x="158.597656" xlink:href="#DejaVuSans-62"/>
      <use x="222.074219" xlink:href="#DejaVuSans-61"/>
      <use x="283.353516" xlink:href="#DejaVuSans-62"/>
      <use x="346.830078" xlink:href="#DejaVuSans-69"/>
      <use x="374.613281" xlink:href="#DejaVuSans-6c"/>
      <use x="402.396484" xlink:href="#DejaVuSans-69"/>
      <use x="430.179688" xlink:href="#DejaVuSans-74"/>
      <use x="469.388672" xlink:href="#DejaVuSans-79"/>
      <use x="528.568359" xlink:href="#DejaVuSans-20"/>
      <use x="560.355469" xlink:href="#DejaVuSans-64"/>
      <use x="623.832031" xlink:href="#DejaVuSans-65"/>
      <use x="685.355469" xlink:href="#DejaVuSans-6e"/>
      <use x="748.734375" xlink:href="#DejaVuSans-73"/>
      <use x="800.833984" xlink:href="#DejaVuSans-69"/>
      <use x="828.617188" xlink:href="#DejaVuSans-74"/>
      <use x="867.826172" xlink:href="#DejaVuSans-79"/>
     </g>
    </g>
   </g>
   <g id="line2d_16">
    <path clip-path="url(#p1f35102902)" d="M 66.376477 273.312 
L 391.031023 32.103105 
L 391.031023 32.103105 
" style="fill:none;stroke:#ff7f0e;stroke-linecap:square;stroke-width:1.5;"/>
   </g>
   <g id="patch_203">
    <path d="M 50.14375 273.312 
L 50.14375 7.2 
" style="fill:none;stroke:#000000;stroke-linecap:square;stroke-linejoin:miter;stroke-width:0.8;"/>
   </g>
   <g id="patch_204">
    <path d="M 407.26375 273.312 
L 407.26375 7.2 
" style="fill:none;stroke:#000000;stroke-linecap:square;stroke-linejoin:miter;stroke-width:0.8;"/>
   </g>
   <g id="patch_205">
    <path d="M 50.14375 273.312 
L 407.26375 273.312 
" style="fill:none;stroke:#000000;stroke-linecap:square;stroke-linejoin:miter;stroke-width:0.8;"/>
   </g>
   <g id="patch_206">
    <path d="M 50.14375 7.2 
L 407.26375 7.2 
" style="fill:none;stroke:#000000;stroke-linecap:square;stroke-linejoin:miter;stroke-width:0.8;"/>
   </g>
  </g>
 </g>
 <defs>
  <clipPath id="p1f35102902">
   <rect height="266.112" width="357.12" x="50.14375" y="7.2"/>
  </clipPath>
 </defs>
</svg>
