<?xml version="1.0" encoding="utf-8" standalone="no"?>
<!DOCTYPE svg PUBLIC "-//W3C//DTD SVG 1.1//EN"
  "http://www.w3.org/Graphics/SVG/1.1/DTD/svg11.dtd">
<svg height="310.86825pt" version="1.1" viewBox="0 0 414.46375 310.86825" width="414.46375pt" xmlns="http://www.w3.org/2000/svg" xmlns:xlink="http://www.w3.org/1999/xlink">
 <metadata>
  <rdf:RDF xmlns:cc="http://creativecommons.org/ns#" xmlns:dc="http://purl.org/dc/elements/1.1/" xmlns:rdf="http://www.w3.org/1999/02/22-rdf-syntax-ns#">
   <cc:Work>
    <dc:type rdf:resource="http://purl.org/dc/dcmitype/StillImage"/>
    <dc:date>2021-06-23T15:02:27.742058</dc:date>
    <dc:format>image/svg+xml</dc:format>
    <dc:creator>
     <cc:Agent>
      <dc:title>Matplotlib v3.4.2, https://matplotlib.org/</dc:title>
     </cc:Agent>
    </dc:creator>
   </cc:Work>
  </rdf:RDF>
 </metadata>
 <defs>
  <style type="text/css">*{stroke-linecap:butt;stroke-linejoin:round;}</style>
 </defs>
 <g id="figure_1">
  <g id="patch_1">
   <path d="M 0 310.86825 
L 414.46375 310.86825 
L 414.46375 0 
L 0 0 
z
" style="fill:#ffffff;"/>
  </g>
  <g id="axes_1">
   <g id="patch_2">
    <path d="M 50.14375 273.312 
L 407.26375 273.312 
L 407.26375 7.2 
L 50.14375 7.2 
z
" style="fill:#ffffff;"/>
   </g>
   <g id="patch_3">
    <path clip-path="url(#pff075a153b)" d="M 68.540428 273.312 
L 70.15288 273.312 
L 70.15288 271.420657 
L 68.540428 271.420657 
z
" style="fill:#1f77b4;"/>
   </g>
   <g id="patch_4">
    <path clip-path="url(#pff075a153b)" d="M 70.15288 273.312 
L 71.765333 273.312 
L 71.765333 269.529313 
L 70.15288 269.529313 
z
" style="fill:#1f77b4;"/>
   </g>
   <g id="patch_5">
    <path clip-path="url(#pff075a153b)" d="M 71.765333 273.312 
L 73.377785 273.312 
L 73.377785 270.790209 
L 71.765333 270.790209 
z
" style="fill:#1f77b4;"/>
   </g>
   <g id="patch_6">
    <path clip-path="url(#pff075a153b)" d="M 73.377785 273.312 
L 74.990237 273.312 
L 74.990237 267.007522 
L 73.377785 267.007522 
z
" style="fill:#1f77b4;"/>
   </g>
   <g id="patch_7">
    <path clip-path="url(#pff075a153b)" d="M 74.990237 273.312 
L 76.602689 273.312 
L 76.602689 265.116179 
L 74.990237 265.116179 
z
" style="fill:#1f77b4;"/>
   </g>
   <g id="patch_8">
    <path clip-path="url(#pff075a153b)" d="M 76.602689 273.312 
L 78.215141 273.312 
L 78.215141 268.898866 
L 76.602689 268.898866 
z
" style="fill:#1f77b4;"/>
   </g>
   <g id="patch_9">
    <path clip-path="url(#pff075a153b)" d="M 78.215141 273.312 
L 79.827593 273.312 
L 79.827593 262.594388 
L 78.215141 262.594388 
z
" style="fill:#1f77b4;"/>
   </g>
   <g id="patch_10">
    <path clip-path="url(#pff075a153b)" d="M 79.827593 273.312 
L 81.440045 273.312 
L 81.440045 263.855284 
L 79.827593 263.855284 
z
" style="fill:#1f77b4;"/>
   </g>
   <g id="patch_11">
    <path clip-path="url(#pff075a153b)" d="M 81.440045 273.312 
L 83.052498 273.312 
L 83.052498 260.703045 
L 81.440045 260.703045 
z
" style="fill:#1f77b4;"/>
   </g>
   <g id="patch_12">
    <path clip-path="url(#pff075a153b)" d="M 83.052498 273.312 
L 84.66495 273.312 
L 84.66495 259.442149 
L 83.052498 259.442149 
z
" style="fill:#1f77b4;"/>
   </g>
   <g id="patch_13">
    <path clip-path="url(#pff075a153b)" d="M 84.66495 273.312 
L 86.277402 273.312 
L 86.277402 255.659463 
L 84.66495 255.659463 
z
" style="fill:#1f77b4;"/>
   </g>
   <g id="patch_14">
    <path clip-path="url(#pff075a153b)" d="M 86.277402 273.312 
L 87.889854 273.312 
L 87.889854 254.398567 
L 86.277402 254.398567 
z
" style="fill:#1f77b4;"/>
   </g>
   <g id="patch_15">
    <path clip-path="url(#pff075a153b)" d="M 87.889854 273.312 
L 89.502306 273.312 
L 89.502306 255.659463 
L 87.889854 255.659463 
z
" style="fill:#1f77b4;"/>
   </g>
   <g id="patch_16">
    <path clip-path="url(#pff075a153b)" d="M 89.502306 273.312 
L 91.114758 273.312 
L 91.114758 250.615881 
L 89.502306 250.615881 
z
" style="fill:#1f77b4;"/>
   </g>
   <g id="patch_17">
    <path clip-path="url(#pff075a153b)" d="M 91.114758 273.312 
L 92.72721 273.312 
L 92.72721 248.09409 
L 91.114758 248.09409 
z
" style="fill:#1f77b4;"/>
   </g>
   <g id="patch_18">
    <path clip-path="url(#pff075a153b)" d="M 92.72721 273.312 
L 94.339662 273.312 
L 94.339662 251.246328 
L 92.72721 251.246328 
z
" style="fill:#1f77b4;"/>
   </g>
   <g id="patch_19">
    <path clip-path="url(#pff075a153b)" d="M 94.339662 273.312 
L 95.952115 273.312 
L 95.952115 256.28991 
L 94.339662 256.28991 
z
" style="fill:#1f77b4;"/>
   </g>
   <g id="patch_20">
    <path clip-path="url(#pff075a153b)" d="M 95.952115 273.312 
L 97.564567 273.312 
L 97.564567 253.137672 
L 95.952115 253.137672 
z
" style="fill:#1f77b4;"/>
   </g>
   <g id="patch_21">
    <path clip-path="url(#pff075a153b)" d="M 97.564567 273.312 
L 99.177019 273.312 
L 99.177019 245.572299 
L 97.564567 245.572299 
z
" style="fill:#1f77b4;"/>
   </g>
   <g id="patch_22">
    <path clip-path="url(#pff075a153b)" d="M 99.177019 273.312 
L 100.789471 273.312 
L 100.789471 244.941851 
L 99.177019 244.941851 
z
" style="fill:#1f77b4;"/>
   </g>
   <g id="patch_23">
    <path clip-path="url(#pff075a153b)" d="M 100.789471 273.312 
L 102.401923 273.312 
L 102.401923 237.376478 
L 100.789471 237.376478 
z
" style="fill:#1f77b4;"/>
   </g>
   <g id="patch_24">
    <path clip-path="url(#pff075a153b)" d="M 102.401923 273.312 
L 104.014375 273.312 
L 104.014375 243.050507 
L 102.401923 243.050507 
z
" style="fill:#1f77b4;"/>
   </g>
   <g id="patch_25">
    <path clip-path="url(#pff075a153b)" d="M 104.014375 273.312 
L 105.626827 273.312 
L 105.626827 245.572299 
L 104.014375 245.572299 
z
" style="fill:#1f77b4;"/>
   </g>
   <g id="patch_26">
    <path clip-path="url(#pff075a153b)" d="M 105.626827 273.312 
L 107.239279 273.312 
L 107.239279 239.267821 
L 105.626827 239.267821 
z
" style="fill:#1f77b4;"/>
   </g>
   <g id="patch_27">
    <path clip-path="url(#pff075a153b)" d="M 107.239279 273.312 
L 108.851732 273.312 
L 108.851732 243.680955 
L 107.239279 243.680955 
z
" style="fill:#1f77b4;"/>
   </g>
   <g id="patch_28">
    <path clip-path="url(#pff075a153b)" d="M 108.851732 273.312 
L 110.464184 273.312 
L 110.464184 244.941851 
L 108.851732 244.941851 
z
" style="fill:#1f77b4;"/>
   </g>
   <g id="patch_29">
    <path clip-path="url(#pff075a153b)" d="M 110.464184 273.312 
L 112.076636 273.312 
L 112.076636 240.528716 
L 110.464184 240.528716 
z
" style="fill:#1f77b4;"/>
   </g>
   <g id="patch_30">
    <path clip-path="url(#pff075a153b)" d="M 112.076636 273.312 
L 113.689088 273.312 
L 113.689088 226.658866 
L 112.076636 226.658866 
z
" style="fill:#1f77b4;"/>
   </g>
   <g id="patch_31">
    <path clip-path="url(#pff075a153b)" d="M 113.689088 273.312 
L 115.30154 273.312 
L 115.30154 241.159164 
L 113.689088 241.159164 
z
" style="fill:#1f77b4;"/>
   </g>
   <g id="patch_32">
    <path clip-path="url(#pff075a153b)" d="M 115.30154 273.312 
L 116.913992 273.312 
L 116.913992 229.180657 
L 115.30154 229.180657 
z
" style="fill:#1f77b4;"/>
   </g>
   <g id="patch_33">
    <path clip-path="url(#pff075a153b)" d="M 116.913992 273.312 
L 118.526444 273.312 
L 118.526444 230.441552 
L 116.913992 230.441552 
z
" style="fill:#1f77b4;"/>
   </g>
   <g id="patch_34">
    <path clip-path="url(#pff075a153b)" d="M 118.526444 273.312 
L 120.138896 273.312 
L 120.138896 215.941254 
L 118.526444 215.941254 
z
" style="fill:#1f77b4;"/>
   </g>
   <g id="patch_35">
    <path clip-path="url(#pff075a153b)" d="M 120.138896 273.312 
L 121.751349 273.312 
L 121.751349 228.550209 
L 120.138896 228.550209 
z
" style="fill:#1f77b4;"/>
   </g>
   <g id="patch_36">
    <path clip-path="url(#pff075a153b)" d="M 121.751349 273.312 
L 123.363801 273.312 
L 123.363801 226.658866 
L 121.751349 226.658866 
z
" style="fill:#1f77b4;"/>
   </g>
   <g id="patch_37">
    <path clip-path="url(#pff075a153b)" d="M 123.363801 273.312 
L 124.976253 273.312 
L 124.976253 227.919761 
L 123.363801 227.919761 
z
" style="fill:#1f77b4;"/>
   </g>
   <g id="patch_38">
    <path clip-path="url(#pff075a153b)" d="M 124.976253 273.312 
L 126.588705 273.312 
L 126.588705 223.506627 
L 124.976253 223.506627 
z
" style="fill:#1f77b4;"/>
   </g>
   <g id="patch_39">
    <path clip-path="url(#pff075a153b)" d="M 126.588705 273.312 
L 128.201157 273.312 
L 128.201157 218.463045 
L 126.588705 218.463045 
z
" style="fill:#1f77b4;"/>
   </g>
   <g id="patch_40">
    <path clip-path="url(#pff075a153b)" d="M 128.201157 273.312 
L 129.813609 273.312 
L 129.813609 226.028418 
L 128.201157 226.028418 
z
" style="fill:#1f77b4;"/>
   </g>
   <g id="patch_41">
    <path clip-path="url(#pff075a153b)" d="M 129.813609 273.312 
L 131.426061 273.312 
L 131.426061 218.463045 
L 129.813609 218.463045 
z
" style="fill:#1f77b4;"/>
   </g>
   <g id="patch_42">
    <path clip-path="url(#pff075a153b)" d="M 131.426061 273.312 
L 133.038513 273.312 
L 133.038513 228.550209 
L 131.426061 228.550209 
z
" style="fill:#1f77b4;"/>
   </g>
   <g id="patch_43">
    <path clip-path="url(#pff075a153b)" d="M 133.038513 273.312 
L 134.650966 273.312 
L 134.650966 209.636776 
L 133.038513 209.636776 
z
" style="fill:#1f77b4;"/>
   </g>
   <g id="patch_44">
    <path clip-path="url(#pff075a153b)" d="M 134.650966 273.312 
L 136.263418 273.312 
L 136.263418 220.984836 
L 134.650966 220.984836 
z
" style="fill:#1f77b4;"/>
   </g>
   <g id="patch_45">
    <path clip-path="url(#pff075a153b)" d="M 136.263418 273.312 
L 137.87587 273.312 
L 137.87587 212.158567 
L 136.263418 212.158567 
z
" style="fill:#1f77b4;"/>
   </g>
   <g id="patch_46">
    <path clip-path="url(#pff075a153b)" d="M 137.87587 273.312 
L 139.488322 273.312 
L 139.488322 223.506627 
L 137.87587 223.506627 
z
" style="fill:#1f77b4;"/>
   </g>
   <g id="patch_47">
    <path clip-path="url(#pff075a153b)" d="M 139.488322 273.312 
L 141.100774 273.312 
L 141.100774 231.072 
L 139.488322 231.072 
z
" style="fill:#1f77b4;"/>
   </g>
   <g id="patch_48">
    <path clip-path="url(#pff075a153b)" d="M 141.100774 273.312 
L 142.713226 273.312 
L 142.713226 206.484537 
L 141.100774 206.484537 
z
" style="fill:#1f77b4;"/>
   </g>
   <g id="patch_49">
    <path clip-path="url(#pff075a153b)" d="M 142.713226 273.312 
L 144.325678 273.312 
L 144.325678 218.463045 
L 142.713226 218.463045 
z
" style="fill:#1f77b4;"/>
   </g>
   <g id="patch_50">
    <path clip-path="url(#pff075a153b)" d="M 144.325678 273.312 
L 145.93813 273.312 
L 145.93813 212.789015 
L 144.325678 212.789015 
z
" style="fill:#1f77b4;"/>
   </g>
   <g id="patch_51">
    <path clip-path="url(#pff075a153b)" d="M 145.93813 273.312 
L 147.550583 273.312 
L 147.550583 210.897672 
L 145.93813 210.897672 
z
" style="fill:#1f77b4;"/>
   </g>
   <g id="patch_52">
    <path clip-path="url(#pff075a153b)" d="M 147.550583 273.312 
L 149.163035 273.312 
L 149.163035 214.04991 
L 147.550583 214.04991 
z
" style="fill:#1f77b4;"/>
   </g>
   <g id="patch_53">
    <path clip-path="url(#pff075a153b)" d="M 149.163035 273.312 
L 150.775487 273.312 
L 150.775487 210.897672 
L 149.163035 210.897672 
z
" style="fill:#1f77b4;"/>
   </g>
   <g id="patch_54">
    <path clip-path="url(#pff075a153b)" d="M 150.775487 273.312 
L 152.387939 273.312 
L 152.387939 200.18006 
L 150.775487 200.18006 
z
" style="fill:#1f77b4;"/>
   </g>
   <g id="patch_55">
    <path clip-path="url(#pff075a153b)" d="M 152.387939 273.312 
L 154.000391 273.312 
L 154.000391 207.745433 
L 152.387939 207.745433 
z
" style="fill:#1f77b4;"/>
   </g>
   <g id="patch_56">
    <path clip-path="url(#pff075a153b)" d="M 154.000391 273.312 
L 155.612843 273.312 
L 155.612843 209.006328 
L 154.000391 209.006328 
z
" style="fill:#1f77b4;"/>
   </g>
   <g id="patch_57">
    <path clip-path="url(#pff075a153b)" d="M 155.612843 273.312 
L 157.225295 273.312 
L 157.225295 209.636776 
L 155.612843 209.636776 
z
" style="fill:#1f77b4;"/>
   </g>
   <g id="patch_58">
    <path clip-path="url(#pff075a153b)" d="M 157.225295 273.312 
L 158.837748 273.312 
L 158.837748 201.440955 
L 157.225295 201.440955 
z
" style="fill:#1f77b4;"/>
   </g>
   <g id="patch_59">
    <path clip-path="url(#pff075a153b)" d="M 158.837748 273.312 
L 160.4502 273.312 
L 160.4502 204.593194 
L 158.837748 204.593194 
z
" style="fill:#1f77b4;"/>
   </g>
   <g id="patch_60">
    <path clip-path="url(#pff075a153b)" d="M 160.4502 273.312 
L 162.062652 273.312 
L 162.062652 202.701851 
L 160.4502 202.701851 
z
" style="fill:#1f77b4;"/>
   </g>
   <g id="patch_61">
    <path clip-path="url(#pff075a153b)" d="M 162.062652 273.312 
L 163.675104 273.312 
L 163.675104 197.658269 
L 162.062652 197.658269 
z
" style="fill:#1f77b4;"/>
   </g>
   <g id="patch_62">
    <path clip-path="url(#pff075a153b)" d="M 163.675104 273.312 
L 165.287556 273.312 
L 165.287556 197.027821 
L 163.675104 197.027821 
z
" style="fill:#1f77b4;"/>
   </g>
   <g id="patch_63">
    <path clip-path="url(#pff075a153b)" d="M 165.287556 273.312 
L 166.900008 273.312 
L 166.900008 193.875582 
L 165.287556 193.875582 
z
" style="fill:#1f77b4;"/>
   </g>
   <g id="patch_64">
    <path clip-path="url(#pff075a153b)" d="M 166.900008 273.312 
L 168.51246 273.312 
L 168.51246 191.984239 
L 166.900008 191.984239 
z
" style="fill:#1f77b4;"/>
   </g>
   <g id="patch_65">
    <path clip-path="url(#pff075a153b)" d="M 168.51246 273.312 
L 170.124912 273.312 
L 170.124912 185.049313 
L 168.51246 185.049313 
z
" style="fill:#1f77b4;"/>
   </g>
   <g id="patch_66">
    <path clip-path="url(#pff075a153b)" d="M 170.124912 273.312 
L 171.737365 273.312 
L 171.737365 202.701851 
L 170.124912 202.701851 
z
" style="fill:#1f77b4;"/>
   </g>
   <g id="patch_67">
    <path clip-path="url(#pff075a153b)" d="M 171.737365 273.312 
L 173.349817 273.312 
L 173.349817 193.245134 
L 171.737365 193.245134 
z
" style="fill:#1f77b4;"/>
   </g>
   <g id="patch_68">
    <path clip-path="url(#pff075a153b)" d="M 173.349817 273.312 
L 174.962269 273.312 
L 174.962269 196.397373 
L 173.349817 196.397373 
z
" style="fill:#1f77b4;"/>
   </g>
   <g id="patch_69">
    <path clip-path="url(#pff075a153b)" d="M 174.962269 273.312 
L 176.574721 273.312 
L 176.574721 193.875582 
L 174.962269 193.875582 
z
" style="fill:#1f77b4;"/>
   </g>
   <g id="patch_70">
    <path clip-path="url(#pff075a153b)" d="M 176.574721 273.312 
L 178.187173 273.312 
L 178.187173 190.092896 
L 176.574721 190.092896 
z
" style="fill:#1f77b4;"/>
   </g>
   <g id="patch_71">
    <path clip-path="url(#pff075a153b)" d="M 178.187173 273.312 
L 179.799625 273.312 
L 179.799625 183.788418 
L 178.187173 183.788418 
z
" style="fill:#1f77b4;"/>
   </g>
   <g id="patch_72">
    <path clip-path="url(#pff075a153b)" d="M 179.799625 273.312 
L 181.412077 273.312 
L 181.412077 191.353791 
L 179.799625 191.353791 
z
" style="fill:#1f77b4;"/>
   </g>
   <g id="patch_73">
    <path clip-path="url(#pff075a153b)" d="M 181.412077 273.312 
L 183.024529 273.312 
L 183.024529 187.571104 
L 181.412077 187.571104 
z
" style="fill:#1f77b4;"/>
   </g>
   <g id="patch_74">
    <path clip-path="url(#pff075a153b)" d="M 183.024529 273.312 
L 184.636982 273.312 
L 184.636982 174.962149 
L 183.024529 174.962149 
z
" style="fill:#1f77b4;"/>
   </g>
   <g id="patch_75">
    <path clip-path="url(#pff075a153b)" d="M 184.636982 273.312 
L 186.249434 273.312 
L 186.249434 173.070806 
L 184.636982 173.070806 
z
" style="fill:#1f77b4;"/>
   </g>
   <g id="patch_76">
    <path clip-path="url(#pff075a153b)" d="M 186.249434 273.312 
L 187.861886 273.312 
L 187.861886 183.788418 
L 186.249434 183.788418 
z
" style="fill:#1f77b4;"/>
   </g>
   <g id="patch_77">
    <path clip-path="url(#pff075a153b)" d="M 187.861886 273.312 
L 189.474338 273.312 
L 189.474338 167.396776 
L 187.861886 167.396776 
z
" style="fill:#1f77b4;"/>
   </g>
   <g id="patch_78">
    <path clip-path="url(#pff075a153b)" d="M 189.474338 273.312 
L 191.08679 273.312 
L 191.08679 173.070806 
L 189.474338 173.070806 
z
" style="fill:#1f77b4;"/>
   </g>
   <g id="patch_79">
    <path clip-path="url(#pff075a153b)" d="M 191.08679 273.312 
L 192.699242 273.312 
L 192.699242 176.853493 
L 191.08679 176.853493 
z
" style="fill:#1f77b4;"/>
   </g>
   <g id="patch_80">
    <path clip-path="url(#pff075a153b)" d="M 192.699242 273.312 
L 194.311694 273.312 
L 194.311694 171.80991 
L 192.699242 171.80991 
z
" style="fill:#1f77b4;"/>
   </g>
   <g id="patch_81">
    <path clip-path="url(#pff075a153b)" d="M 194.311694 273.312 
L 195.924146 273.312 
L 195.924146 174.331701 
L 194.311694 174.331701 
z
" style="fill:#1f77b4;"/>
   </g>
   <g id="patch_82">
    <path clip-path="url(#pff075a153b)" d="M 195.924146 273.312 
L 197.536599 273.312 
L 197.536599 177.48394 
L 195.924146 177.48394 
z
" style="fill:#1f77b4;"/>
   </g>
   <g id="patch_83">
    <path clip-path="url(#pff075a153b)" d="M 197.536599 273.312 
L 199.149051 273.312 
L 199.149051 163.61409 
L 197.536599 163.61409 
z
" style="fill:#1f77b4;"/>
   </g>
   <g id="patch_84">
    <path clip-path="url(#pff075a153b)" d="M 199.149051 273.312 
L 200.761503 273.312 
L 200.761503 181.266627 
L 199.149051 181.266627 
z
" style="fill:#1f77b4;"/>
   </g>
   <g id="patch_85">
    <path clip-path="url(#pff075a153b)" d="M 200.761503 273.312 
L 202.373955 273.312 
L 202.373955 171.179463 
L 200.761503 171.179463 
z
" style="fill:#1f77b4;"/>
   </g>
   <g id="patch_86">
    <path clip-path="url(#pff075a153b)" d="M 202.373955 273.312 
L 203.986407 273.312 
L 203.986407 174.962149 
L 202.373955 174.962149 
z
" style="fill:#1f77b4;"/>
   </g>
   <g id="patch_87">
    <path clip-path="url(#pff075a153b)" d="M 203.986407 273.312 
L 205.598859 273.312 
L 205.598859 166.135881 
L 203.986407 166.135881 
z
" style="fill:#1f77b4;"/>
   </g>
   <g id="patch_88">
    <path clip-path="url(#pff075a153b)" d="M 205.598859 273.312 
L 207.211311 273.312 
L 207.211311 171.179463 
L 205.598859 171.179463 
z
" style="fill:#1f77b4;"/>
   </g>
   <g id="patch_89">
    <path clip-path="url(#pff075a153b)" d="M 207.211311 273.312 
L 208.823763 273.312 
L 208.823763 171.80991 
L 207.211311 171.80991 
z
" style="fill:#1f77b4;"/>
   </g>
   <g id="patch_90">
    <path clip-path="url(#pff075a153b)" d="M 208.823763 273.312 
L 210.436216 273.312 
L 210.436216 175.592597 
L 208.823763 175.592597 
z
" style="fill:#1f77b4;"/>
   </g>
   <g id="patch_91">
    <path clip-path="url(#pff075a153b)" d="M 210.436216 273.312 
L 212.048668 273.312 
L 212.048668 156.679164 
L 210.436216 156.679164 
z
" style="fill:#1f77b4;"/>
   </g>
   <g id="patch_92">
    <path clip-path="url(#pff075a153b)" d="M 212.048668 273.312 
L 213.66112 273.312 
L 213.66112 174.331701 
L 212.048668 174.331701 
z
" style="fill:#1f77b4;"/>
   </g>
   <g id="patch_93">
    <path clip-path="url(#pff075a153b)" d="M 213.66112 273.312 
L 215.273572 273.312 
L 215.273572 164.874985 
L 213.66112 164.874985 
z
" style="fill:#1f77b4;"/>
   </g>
   <g id="patch_94">
    <path clip-path="url(#pff075a153b)" d="M 215.273572 273.312 
L 216.886024 273.312 
L 216.886024 148.483343 
L 215.273572 148.483343 
z
" style="fill:#1f77b4;"/>
   </g>
   <g id="patch_95">
    <path clip-path="url(#pff075a153b)" d="M 216.886024 273.312 
L 218.498476 273.312 
L 218.498476 157.94006 
L 216.886024 157.94006 
z
" style="fill:#1f77b4;"/>
   </g>
   <g id="patch_96">
    <path clip-path="url(#pff075a153b)" d="M 218.498476 273.312 
L 220.110928 273.312 
L 220.110928 164.244537 
L 218.498476 164.244537 
z
" style="fill:#1f77b4;"/>
   </g>
   <g id="patch_97">
    <path clip-path="url(#pff075a153b)" d="M 220.110928 273.312 
L 221.723381 273.312 
L 221.723381 158.570507 
L 220.110928 158.570507 
z
" style="fill:#1f77b4;"/>
   </g>
   <g id="patch_98">
    <path clip-path="url(#pff075a153b)" d="M 221.723381 273.312 
L 223.335833 273.312 
L 223.335833 140.91797 
L 221.723381 140.91797 
z
" style="fill:#1f77b4;"/>
   </g>
   <g id="patch_99">
    <path clip-path="url(#pff075a153b)" d="M 223.335833 273.312 
L 224.948285 273.312 
L 224.948285 149.744239 
L 223.335833 149.744239 
z
" style="fill:#1f77b4;"/>
   </g>
   <g id="patch_100">
    <path clip-path="url(#pff075a153b)" d="M 224.948285 273.312 
L 226.560737 273.312 
L 226.560737 153.526925 
L 224.948285 153.526925 
z
" style="fill:#1f77b4;"/>
   </g>
   <g id="patch_101">
    <path clip-path="url(#pff075a153b)" d="M 226.560737 273.312 
L 228.173189 273.312 
L 228.173189 144.700657 
L 226.560737 144.700657 
z
" style="fill:#1f77b4;"/>
   </g>
   <g id="patch_102">
    <path clip-path="url(#pff075a153b)" d="M 228.173189 273.312 
L 229.785641 273.312 
L 229.785641 140.287522 
L 228.173189 140.287522 
z
" style="fill:#1f77b4;"/>
   </g>
   <g id="patch_103">
    <path clip-path="url(#pff075a153b)" d="M 229.785641 273.312 
L 231.398093 273.312 
L 231.398093 147.222448 
L 229.785641 147.222448 
z
" style="fill:#1f77b4;"/>
   </g>
   <g id="patch_104">
    <path clip-path="url(#pff075a153b)" d="M 231.398093 273.312 
L 233.010545 273.312 
L 233.010545 161.722746 
L 231.398093 161.722746 
z
" style="fill:#1f77b4;"/>
   </g>
   <g id="patch_105">
    <path clip-path="url(#pff075a153b)" d="M 233.010545 273.312 
L 234.622998 273.312 
L 234.622998 147.852896 
L 233.010545 147.852896 
z
" style="fill:#1f77b4;"/>
   </g>
   <g id="patch_106">
    <path clip-path="url(#pff075a153b)" d="M 234.622998 273.312 
L 236.23545 273.312 
L 236.23545 152.896478 
L 234.622998 152.896478 
z
" style="fill:#1f77b4;"/>
   </g>
   <g id="patch_107">
    <path clip-path="url(#pff075a153b)" d="M 236.23545 273.312 
L 237.847902 273.312 
L 237.847902 140.91797 
L 236.23545 140.91797 
z
" style="fill:#1f77b4;"/>
   </g>
   <g id="patch_108">
    <path clip-path="url(#pff075a153b)" d="M 237.847902 273.312 
L 239.460354 273.312 
L 239.460354 146.592 
L 237.847902 146.592 
z
" style="fill:#1f77b4;"/>
   </g>
   <g id="patch_109">
    <path clip-path="url(#pff075a153b)" d="M 239.460354 273.312 
L 241.072806 273.312 
L 241.072806 159.831403 
L 239.460354 159.831403 
z
" style="fill:#1f77b4;"/>
   </g>
   <g id="patch_110">
    <path clip-path="url(#pff075a153b)" d="M 241.072806 273.312 
L 242.685258 273.312 
L 242.685258 146.592 
L 241.072806 146.592 
z
" style="fill:#1f77b4;"/>
   </g>
   <g id="patch_111">
    <path clip-path="url(#pff075a153b)" d="M 242.685258 273.312 
L 244.29771 273.312 
L 244.29771 139.026627 
L 242.685258 139.026627 
z
" style="fill:#1f77b4;"/>
   </g>
   <g id="patch_112">
    <path clip-path="url(#pff075a153b)" d="M 244.29771 273.312 
L 245.910162 273.312 
L 245.910162 116.960955 
L 244.29771 116.960955 
z
" style="fill:#1f77b4;"/>
   </g>
   <g id="patch_113">
    <path clip-path="url(#pff075a153b)" d="M 245.910162 273.312 
L 247.522615 273.312 
L 247.522615 135.24394 
L 245.910162 135.24394 
z
" style="fill:#1f77b4;"/>
   </g>
   <g id="patch_114">
    <path clip-path="url(#pff075a153b)" d="M 247.522615 273.312 
L 249.135067 273.312 
L 249.135067 132.722149 
L 247.522615 132.722149 
z
" style="fill:#1f77b4;"/>
   </g>
   <g id="patch_115">
    <path clip-path="url(#pff075a153b)" d="M 249.135067 273.312 
L 250.747519 273.312 
L 250.747519 123.265433 
L 249.135067 123.265433 
z
" style="fill:#1f77b4;"/>
   </g>
   <g id="patch_116">
    <path clip-path="url(#pff075a153b)" d="M 250.747519 273.312 
L 252.359971 273.312 
L 252.359971 151.005134 
L 250.747519 151.005134 
z
" style="fill:#1f77b4;"/>
   </g>
   <g id="patch_117">
    <path clip-path="url(#pff075a153b)" d="M 252.359971 273.312 
L 253.972423 273.312 
L 253.972423 120.113194 
L 252.359971 120.113194 
z
" style="fill:#1f77b4;"/>
   </g>
   <g id="patch_118">
    <path clip-path="url(#pff075a153b)" d="M 253.972423 273.312 
L 255.584875 273.312 
L 255.584875 124.526328 
L 253.972423 124.526328 
z
" style="fill:#1f77b4;"/>
   </g>
   <g id="patch_119">
    <path clip-path="url(#pff075a153b)" d="M 255.584875 273.312 
L 257.197327 273.312 
L 257.197327 147.852896 
L 255.584875 147.852896 
z
" style="fill:#1f77b4;"/>
   </g>
   <g id="patch_120">
    <path clip-path="url(#pff075a153b)" d="M 257.197327 273.312 
L 258.809779 273.312 
L 258.809779 123.265433 
L 257.197327 123.265433 
z
" style="fill:#1f77b4;"/>
   </g>
   <g id="patch_121">
    <path clip-path="url(#pff075a153b)" d="M 258.809779 273.312 
L 260.422232 273.312 
L 260.422232 129.56991 
L 258.809779 129.56991 
z
" style="fill:#1f77b4;"/>
   </g>
   <g id="patch_122">
    <path clip-path="url(#pff075a153b)" d="M 260.422232 273.312 
L 262.034684 273.312 
L 262.034684 117.591403 
L 260.422232 117.591403 
z
" style="fill:#1f77b4;"/>
   </g>
   <g id="patch_123">
    <path clip-path="url(#pff075a153b)" d="M 262.034684 273.312 
L 263.647136 273.312 
L 263.647136 141.548418 
L 262.034684 141.548418 
z
" style="fill:#1f77b4;"/>
   </g>
   <g id="patch_124">
    <path clip-path="url(#pff075a153b)" d="M 263.647136 273.312 
L 265.259588 273.312 
L 265.259588 110.656478 
L 263.647136 110.656478 
z
" style="fill:#1f77b4;"/>
   </g>
   <g id="patch_125">
    <path clip-path="url(#pff075a153b)" d="M 265.259588 273.312 
L 266.87204 273.312 
L 266.87204 125.156776 
L 265.259588 125.156776 
z
" style="fill:#1f77b4;"/>
   </g>
   <g id="patch_126">
    <path clip-path="url(#pff075a153b)" d="M 266.87204 273.312 
L 268.484492 273.312 
L 268.484492 112.547821 
L 266.87204 112.547821 
z
" style="fill:#1f77b4;"/>
   </g>
   <g id="patch_127">
    <path clip-path="url(#pff075a153b)" d="M 268.484492 273.312 
L 270.096944 273.312 
L 270.096944 114.439164 
L 268.484492 114.439164 
z
" style="fill:#1f77b4;"/>
   </g>
   <g id="patch_128">
    <path clip-path="url(#pff075a153b)" d="M 270.096944 273.312 
L 271.709396 273.312 
L 271.709396 99.308418 
L 270.096944 99.308418 
z
" style="fill:#1f77b4;"/>
   </g>
   <g id="patch_129">
    <path clip-path="url(#pff075a153b)" d="M 271.709396 273.312 
L 273.321849 273.312 
L 273.321849 122.004537 
L 271.709396 122.004537 
z
" style="fill:#1f77b4;"/>
   </g>
   <g id="patch_130">
    <path clip-path="url(#pff075a153b)" d="M 273.321849 273.312 
L 274.934301 273.312 
L 274.934301 127.048119 
L 273.321849 127.048119 
z
" style="fill:#1f77b4;"/>
   </g>
   <g id="patch_131">
    <path clip-path="url(#pff075a153b)" d="M 274.934301 273.312 
L 276.546753 273.312 
L 276.546753 121.37409 
L 274.934301 121.37409 
z
" style="fill:#1f77b4;"/>
   </g>
   <g id="patch_132">
    <path clip-path="url(#pff075a153b)" d="M 276.546753 273.312 
L 278.159205 273.312 
L 278.159205 89.851701 
L 276.546753 89.851701 
z
" style="fill:#1f77b4;"/>
   </g>
   <g id="patch_133">
    <path clip-path="url(#pff075a153b)" d="M 278.159205 273.312 
L 279.771657 273.312 
L 279.771657 106.243343 
L 278.159205 106.243343 
z
" style="fill:#1f77b4;"/>
   </g>
   <g id="patch_134">
    <path clip-path="url(#pff075a153b)" d="M 279.771657 273.312 
L 281.384109 273.312 
L 281.384109 89.221254 
L 279.771657 89.221254 
z
" style="fill:#1f77b4;"/>
   </g>
   <g id="patch_135">
    <path clip-path="url(#pff075a153b)" d="M 281.384109 273.312 
L 282.996561 273.312 
L 282.996561 98.047522 
L 281.384109 98.047522 
z
" style="fill:#1f77b4;"/>
   </g>
   <g id="patch_136">
    <path clip-path="url(#pff075a153b)" d="M 282.996561 273.312 
L 284.609013 273.312 
L 284.609013 108.134687 
L 282.996561 108.134687 
z
" style="fill:#1f77b4;"/>
   </g>
   <g id="patch_137">
    <path clip-path="url(#pff075a153b)" d="M 284.609013 273.312 
L 286.221466 273.312 
L 286.221466 109.395582 
L 284.609013 109.395582 
z
" style="fill:#1f77b4;"/>
   </g>
   <g id="patch_138">
    <path clip-path="url(#pff075a153b)" d="M 286.221466 273.312 
L 287.833918 273.312 
L 287.833918 106.873791 
L 286.221466 106.873791 
z
" style="fill:#1f77b4;"/>
   </g>
   <g id="patch_139">
    <path clip-path="url(#pff075a153b)" d="M 287.833918 273.312 
L 289.44637 273.312 
L 289.44637 104.352 
L 287.833918 104.352 
z
" style="fill:#1f77b4;"/>
   </g>
   <g id="patch_140">
    <path clip-path="url(#pff075a153b)" d="M 289.44637 273.312 
L 291.058822 273.312 
L 291.058822 99.938866 
L 289.44637 99.938866 
z
" style="fill:#1f77b4;"/>
   </g>
   <g id="patch_141">
    <path clip-path="url(#pff075a153b)" d="M 291.058822 273.312 
L 292.671274 273.312 
L 292.671274 89.851701 
L 291.058822 89.851701 
z
" style="fill:#1f77b4;"/>
   </g>
   <g id="patch_142">
    <path clip-path="url(#pff075a153b)" d="M 292.671274 273.312 
L 294.283726 273.312 
L 294.283726 104.352 
L 292.671274 104.352 
z
" style="fill:#1f77b4;"/>
   </g>
   <g id="patch_143">
    <path clip-path="url(#pff075a153b)" d="M 294.283726 273.312 
L 295.896178 273.312 
L 295.896178 106.873791 
L 294.283726 106.873791 
z
" style="fill:#1f77b4;"/>
   </g>
   <g id="patch_144">
    <path clip-path="url(#pff075a153b)" d="M 295.896178 273.312 
L 297.508631 273.312 
L 297.508631 87.960358 
L 295.896178 87.960358 
z
" style="fill:#1f77b4;"/>
   </g>
   <g id="patch_145">
    <path clip-path="url(#pff075a153b)" d="M 297.508631 273.312 
L 299.121083 273.312 
L 299.121083 107.504239 
L 297.508631 107.504239 
z
" style="fill:#1f77b4;"/>
   </g>
   <g id="patch_146">
    <path clip-path="url(#pff075a153b)" d="M 299.121083 273.312 
L 300.733535 273.312 
L 300.733535 105.612896 
L 299.121083 105.612896 
z
" style="fill:#1f77b4;"/>
   </g>
   <g id="patch_147">
    <path clip-path="url(#pff075a153b)" d="M 300.733535 273.312 
L 302.345987 273.312 
L 302.345987 103.721552 
L 300.733535 103.721552 
z
" style="fill:#1f77b4;"/>
   </g>
   <g id="patch_148">
    <path clip-path="url(#pff075a153b)" d="M 302.345987 273.312 
L 303.958439 273.312 
L 303.958439 86.069015 
L 302.345987 86.069015 
z
" style="fill:#1f77b4;"/>
   </g>
   <g id="patch_149">
    <path clip-path="url(#pff075a153b)" d="M 303.958439 273.312 
L 305.570891 273.312 
L 305.570891 70.307821 
L 303.958439 70.307821 
z
" style="fill:#1f77b4;"/>
   </g>
   <g id="patch_150">
    <path clip-path="url(#pff075a153b)" d="M 305.570891 273.312 
L 307.183343 273.312 
L 307.183343 70.938269 
L 305.570891 70.938269 
z
" style="fill:#1f77b4;"/>
   </g>
   <g id="patch_151">
    <path clip-path="url(#pff075a153b)" d="M 307.183343 273.312 
L 308.795795 273.312 
L 308.795795 84.177672 
L 307.183343 84.177672 
z
" style="fill:#1f77b4;"/>
   </g>
   <g id="patch_152">
    <path clip-path="url(#pff075a153b)" d="M 308.795795 273.312 
L 310.408248 273.312 
L 310.408248 86.699463 
L 308.795795 86.699463 
z
" style="fill:#1f77b4;"/>
   </g>
   <g id="patch_153">
    <path clip-path="url(#pff075a153b)" d="M 310.408248 273.312 
L 312.0207 273.312 
L 312.0207 79.764537 
L 310.408248 79.764537 
z
" style="fill:#1f77b4;"/>
   </g>
   <g id="patch_154">
    <path clip-path="url(#pff075a153b)" d="M 312.0207 273.312 
L 313.633152 273.312 
L 313.633152 81.655881 
L 312.0207 81.655881 
z
" style="fill:#1f77b4;"/>
   </g>
   <g id="patch_155">
    <path clip-path="url(#pff075a153b)" d="M 313.633152 273.312 
L 315.245604 273.312 
L 315.245604 95.525731 
L 313.633152 95.525731 
z
" style="fill:#1f77b4;"/>
   </g>
   <g id="patch_156">
    <path clip-path="url(#pff075a153b)" d="M 315.245604 273.312 
L 316.858056 273.312 
L 316.858056 75.981851 
L 315.245604 75.981851 
z
" style="fill:#1f77b4;"/>
   </g>
   <g id="patch_157">
    <path clip-path="url(#pff075a153b)" d="M 316.858056 273.312 
L 318.470508 273.312 
L 318.470508 72.199164 
L 316.858056 72.199164 
z
" style="fill:#1f77b4;"/>
   </g>
   <g id="patch_158">
    <path clip-path="url(#pff075a153b)" d="M 318.470508 273.312 
L 320.08296 273.312 
L 320.08296 85.438567 
L 318.470508 85.438567 
z
" style="fill:#1f77b4;"/>
   </g>
   <g id="patch_159">
    <path clip-path="url(#pff075a153b)" d="M 320.08296 273.312 
L 321.695412 273.312 
L 321.695412 84.177672 
L 320.08296 84.177672 
z
" style="fill:#1f77b4;"/>
   </g>
   <g id="patch_160">
    <path clip-path="url(#pff075a153b)" d="M 321.695412 273.312 
L 323.307865 273.312 
L 323.307865 96.156179 
L 321.695412 96.156179 
z
" style="fill:#1f77b4;"/>
   </g>
   <g id="patch_161">
    <path clip-path="url(#pff075a153b)" d="M 323.307865 273.312 
L 324.920317 273.312 
L 324.920317 78.503642 
L 323.307865 78.503642 
z
" style="fill:#1f77b4;"/>
   </g>
   <g id="patch_162">
    <path clip-path="url(#pff075a153b)" d="M 324.920317 273.312 
L 326.532769 273.312 
L 326.532769 82.286328 
L 324.920317 82.286328 
z
" style="fill:#1f77b4;"/>
   </g>
   <g id="patch_163">
    <path clip-path="url(#pff075a153b)" d="M 326.532769 273.312 
L 328.145221 273.312 
L 328.145221 45.08991 
L 326.532769 45.08991 
z
" style="fill:#1f77b4;"/>
   </g>
   <g id="patch_164">
    <path clip-path="url(#pff075a153b)" d="M 328.145221 273.312 
L 329.757673 273.312 
L 329.757673 53.916179 
L 328.145221 53.916179 
z
" style="fill:#1f77b4;"/>
   </g>
   <g id="patch_165">
    <path clip-path="url(#pff075a153b)" d="M 329.757673 273.312 
L 331.370125 273.312 
L 331.370125 76.612299 
L 329.757673 76.612299 
z
" style="fill:#1f77b4;"/>
   </g>
   <g id="patch_166">
    <path clip-path="url(#pff075a153b)" d="M 331.370125 273.312 
L 332.982577 273.312 
L 332.982577 51.394388 
L 331.370125 51.394388 
z
" style="fill:#1f77b4;"/>
   </g>
   <g id="patch_167">
    <path clip-path="url(#pff075a153b)" d="M 332.982577 273.312 
L 334.595029 273.312 
L 334.595029 47.611701 
L 332.982577 47.611701 
z
" style="fill:#1f77b4;"/>
   </g>
   <g id="patch_168">
    <path clip-path="url(#pff075a153b)" d="M 334.595029 273.312 
L 336.207482 273.312 
L 336.207482 47.611701 
L 334.595029 47.611701 
z
" style="fill:#1f77b4;"/>
   </g>
   <g id="patch_169">
    <path clip-path="url(#pff075a153b)" d="M 336.207482 273.312 
L 337.819934 273.312 
L 337.819934 65.264239 
L 336.207482 65.264239 
z
" style="fill:#1f77b4;"/>
   </g>
   <g id="patch_170">
    <path clip-path="url(#pff075a153b)" d="M 337.819934 273.312 
L 339.432386 273.312 
L 339.432386 41.937672 
L 337.819934 41.937672 
z
" style="fill:#1f77b4;"/>
   </g>
   <g id="patch_171">
    <path clip-path="url(#pff075a153b)" d="M 339.432386 273.312 
L 341.044838 273.312 
L 341.044838 40.046328 
L 339.432386 40.046328 
z
" style="fill:#1f77b4;"/>
   </g>
   <g id="patch_172">
    <path clip-path="url(#pff075a153b)" d="M 341.044838 273.312 
L 342.65729 273.312 
L 342.65729 47.611701 
L 341.044838 47.611701 
z
" style="fill:#1f77b4;"/>
   </g>
   <g id="patch_173">
    <path clip-path="url(#pff075a153b)" d="M 342.65729 273.312 
L 344.269742 273.312 
L 344.269742 60.851104 
L 342.65729 60.851104 
z
" style="fill:#1f77b4;"/>
   </g>
   <g id="patch_174">
    <path clip-path="url(#pff075a153b)" d="M 344.269742 273.312 
L 345.882194 273.312 
L 345.882194 66.525134 
L 344.269742 66.525134 
z
" style="fill:#1f77b4;"/>
   </g>
   <g id="patch_175">
    <path clip-path="url(#pff075a153b)" d="M 345.882194 273.312 
L 347.494646 273.312 
L 347.494646 52.655284 
L 345.882194 52.655284 
z
" style="fill:#1f77b4;"/>
   </g>
   <g id="patch_176">
    <path clip-path="url(#pff075a153b)" d="M 347.494646 273.312 
L 349.107099 273.312 
L 349.107099 66.525134 
L 347.494646 66.525134 
z
" style="fill:#1f77b4;"/>
   </g>
   <g id="patch_177">
    <path clip-path="url(#pff075a153b)" d="M 349.107099 273.312 
L 350.719551 273.312 
L 350.719551 45.08991 
L 349.107099 45.08991 
z
" style="fill:#1f77b4;"/>
   </g>
   <g id="patch_178">
    <path clip-path="url(#pff075a153b)" d="M 350.719551 273.312 
L 352.332003 273.312 
L 352.332003 65.894687 
L 350.719551 65.894687 
z
" style="fill:#1f77b4;"/>
   </g>
   <g id="patch_179">
    <path clip-path="url(#pff075a153b)" d="M 352.332003 273.312 
L 353.944455 273.312 
L 353.944455 59.590209 
L 352.332003 59.590209 
z
" style="fill:#1f77b4;"/>
   </g>
   <g id="patch_180">
    <path clip-path="url(#pff075a153b)" d="M 353.944455 273.312 
L 355.556907 273.312 
L 355.556907 52.655284 
L 353.944455 52.655284 
z
" style="fill:#1f77b4;"/>
   </g>
   <g id="patch_181">
    <path clip-path="url(#pff075a153b)" d="M 355.556907 273.312 
L 357.169359 273.312 
L 357.169359 40.046328 
L 355.556907 40.046328 
z
" style="fill:#1f77b4;"/>
   </g>
   <g id="patch_182">
    <path clip-path="url(#pff075a153b)" d="M 357.169359 273.312 
L 358.781811 273.312 
L 358.781811 45.720358 
L 357.169359 45.720358 
z
" style="fill:#1f77b4;"/>
   </g>
   <g id="patch_183">
    <path clip-path="url(#pff075a153b)" d="M 358.781811 273.312 
L 360.394263 273.312 
L 360.394263 41.307224 
L 358.781811 41.307224 
z
" style="fill:#1f77b4;"/>
   </g>
   <g id="patch_184">
    <path clip-path="url(#pff075a153b)" d="M 360.394263 273.312 
L 362.006716 273.312 
L 362.006716 51.394388 
L 360.394263 51.394388 
z
" style="fill:#1f77b4;"/>
   </g>
   <g id="patch_185">
    <path clip-path="url(#pff075a153b)" d="M 362.006716 273.312 
L 363.619168 273.312 
L 363.619168 39.415881 
L 362.006716 39.415881 
z
" style="fill:#1f77b4;"/>
   </g>
   <g id="patch_186">
    <path clip-path="url(#pff075a153b)" d="M 363.619168 273.312 
L 365.23162 273.312 
L 365.23162 29.328716 
L 363.619168 29.328716 
z
" style="fill:#1f77b4;"/>
   </g>
   <g id="patch_187">
    <path clip-path="url(#pff075a153b)" d="M 365.23162 273.312 
L 366.844072 273.312 
L 366.844072 55.807522 
L 365.23162 55.807522 
z
" style="fill:#1f77b4;"/>
   </g>
   <g id="patch_188">
    <path clip-path="url(#pff075a153b)" d="M 366.844072 273.312 
L 368.456524 273.312 
L 368.456524 48.872597 
L 366.844072 48.872597 
z
" style="fill:#1f77b4;"/>
   </g>
   <g id="patch_189">
    <path clip-path="url(#pff075a153b)" d="M 368.456524 273.312 
L 370.068976 273.312 
L 370.068976 53.916179 
L 368.456524 53.916179 
z
" style="fill:#1f77b4;"/>
   </g>
   <g id="patch_190">
    <path clip-path="url(#pff075a153b)" d="M 370.068976 273.312 
L 371.681428 273.312 
L 371.681428 51.394388 
L 370.068976 51.394388 
z
" style="fill:#1f77b4;"/>
   </g>
   <g id="patch_191">
    <path clip-path="url(#pff075a153b)" d="M 371.681428 273.312 
L 373.293881 273.312 
L 373.293881 38.785433 
L 371.681428 38.785433 
z
" style="fill:#1f77b4;"/>
   </g>
   <g id="patch_192">
    <path clip-path="url(#pff075a153b)" d="M 373.293881 273.312 
L 374.906333 273.312 
L 374.906333 21.132896 
L 373.293881 21.132896 
z
" style="fill:#1f77b4;"/>
   </g>
   <g id="patch_193">
    <path clip-path="url(#pff075a153b)" d="M 374.906333 273.312 
L 376.518785 273.312 
L 376.518785 34.372299 
L 374.906333 34.372299 
z
" style="fill:#1f77b4;"/>
   </g>
   <g id="patch_194">
    <path clip-path="url(#pff075a153b)" d="M 376.518785 273.312 
L 378.131237 273.312 
L 378.131237 24.915582 
L 376.518785 24.915582 
z
" style="fill:#1f77b4;"/>
   </g>
   <g id="patch_195">
    <path clip-path="url(#pff075a153b)" d="M 378.131237 273.312 
L 379.743689 273.312 
L 379.743689 39.415881 
L 378.131237 39.415881 
z
" style="fill:#1f77b4;"/>
   </g>
   <g id="patch_196">
    <path clip-path="url(#pff075a153b)" d="M 379.743689 273.312 
L 381.356141 273.312 
L 381.356141 45.08991 
L 379.743689 45.08991 
z
" style="fill:#1f77b4;"/>
   </g>
   <g id="patch_197">
    <path clip-path="url(#pff075a153b)" d="M 381.356141 273.312 
L 382.968593 273.312 
L 382.968593 28.067821 
L 381.356141 28.067821 
z
" style="fill:#1f77b4;"/>
   </g>
   <g id="patch_198">
    <path clip-path="url(#pff075a153b)" d="M 382.968593 273.312 
L 384.581045 273.312 
L 384.581045 38.154985 
L 382.968593 38.154985 
z
" style="fill:#1f77b4;"/>
   </g>
   <g id="patch_199">
    <path clip-path="url(#pff075a153b)" d="M 384.581045 273.312 
L 386.193498 273.312 
L 386.193498 19.872 
L 384.581045 19.872 
z
" style="fill:#1f77b4;"/>
   </g>
   <g id="patch_200">
    <path clip-path="url(#pff075a153b)" d="M 386.193498 273.312 
L 387.80595 273.312 
L 387.80595 33.111403 
L 386.193498 33.111403 
z
" style="fill:#1f77b4;"/>
   </g>
   <g id="patch_201">
    <path clip-path="url(#pff075a153b)" d="M 387.80595 273.312 
L 389.418402 273.312 
L 389.418402 40.046328 
L 387.80595 40.046328 
z
" style="fill:#1f77b4;"/>
   </g>
   <g id="patch_202">
    <path clip-path="url(#pff075a153b)" d="M 389.418402 273.312 
L 391.030854 273.312 
L 391.030854 26.176478 
L 389.418402 26.176478 
z
" style="fill:#1f77b4;"/>
   </g>
   <g id="matplotlib.axis_1">
    <g id="xtick_1">
     <g id="line2d_1">
      <defs>
       <path d="M 0 0 
L 0 3.5 
" id="md5d39c5983" style="stroke:#000000;stroke-width:0.8;"/>
      </defs>
      <g>
       <use style="stroke:#000000;stroke-width:0.8;" x="66.376477" xlink:href="#md5d39c5983" y="273.312"/>
      </g>
     </g>
     <g id="text_1">
      <!-- 0.0 -->
      <g transform="translate(58.424915 287.910437)scale(0.1 -0.1)">
       <defs>
        <path d="M 2034 4250 
Q 1547 4250 1301 3770 
Q 1056 3291 1056 2328 
Q 1056 1369 1301 889 
Q 1547 409 2034 409 
Q 2525 409 2770 889 
Q 3016 1369 3016 2328 
Q 3016 3291 2770 3770 
Q 2525 4250 2034 4250 
z
M 2034 4750 
Q 2819 4750 3233 4129 
Q 3647 3509 3647 2328 
Q 3647 1150 3233 529 
Q 2819 -91 2034 -91 
Q 1250 -91 836 529 
Q 422 1150 422 2328 
Q 422 3509 836 4129 
Q 1250 4750 2034 4750 
z
" id="DejaVuSans-30" transform="scale(0.015625)"/>
        <path d="M 684 794 
L 1344 794 
L 1344 0 
L 684 0 
L 684 794 
z
" id="DejaVuSans-2e" transform="scale(0.015625)"/>
       </defs>
       <use xlink:href="#DejaVuSans-30"/>
       <use x="63.623047" xlink:href="#DejaVuSans-2e"/>
       <use x="95.410156" xlink:href="#DejaVuSans-30"/>
      </g>
     </g>
    </g>
    <g id="xtick_2">
     <g id="line2d_2">
      <g>
       <use style="stroke:#000000;stroke-width:0.8;" x="131.307386" xlink:href="#md5d39c5983" y="273.312"/>
      </g>
     </g>
     <g id="text_2">
      <!-- 0.2 -->
      <g transform="translate(123.355824 287.910437)scale(0.1 -0.1)">
       <defs>
        <path d="M 1228 531 
L 3431 531 
L 3431 0 
L 469 0 
L 469 531 
Q 828 903 1448 1529 
Q 2069 2156 2228 2338 
Q 2531 2678 2651 2914 
Q 2772 3150 2772 3378 
Q 2772 3750 2511 3984 
Q 2250 4219 1831 4219 
Q 1534 4219 1204 4116 
Q 875 4013 500 3803 
L 500 4441 
Q 881 4594 1212 4672 
Q 1544 4750 1819 4750 
Q 2544 4750 2975 4387 
Q 3406 4025 3406 3419 
Q 3406 3131 3298 2873 
Q 3191 2616 2906 2266 
Q 2828 2175 2409 1742 
Q 1991 1309 1228 531 
z
" id="DejaVuSans-32" transform="scale(0.015625)"/>
       </defs>
       <use xlink:href="#DejaVuSans-30"/>
       <use x="63.623047" xlink:href="#DejaVuSans-2e"/>
       <use x="95.410156" xlink:href="#DejaVuSans-32"/>
      </g>
     </g>
    </g>
    <g id="xtick_3">
     <g id="line2d_3">
      <g>
       <use style="stroke:#000000;stroke-width:0.8;" x="196.238295" xlink:href="#md5d39c5983" y="273.312"/>
      </g>
     </g>
     <g id="text_3">
      <!-- 0.4 -->
      <g transform="translate(188.286733 287.910437)scale(0.1 -0.1)">
       <defs>
        <path d="M 2419 4116 
L 825 1625 
L 2419 1625 
L 2419 4116 
z
M 2253 4666 
L 3047 4666 
L 3047 1625 
L 3713 1625 
L 3713 1100 
L 3047 1100 
L 3047 0 
L 2419 0 
L 2419 1100 
L 313 1100 
L 313 1709 
L 2253 4666 
z
" id="DejaVuSans-34" transform="scale(0.015625)"/>
       </defs>
       <use xlink:href="#DejaVuSans-30"/>
       <use x="63.623047" xlink:href="#DejaVuSans-2e"/>
       <use x="95.410156" xlink:href="#DejaVuSans-34"/>
      </g>
     </g>
    </g>
    <g id="xtick_4">
     <g id="line2d_4">
      <g>
       <use style="stroke:#000000;stroke-width:0.8;" x="261.169205" xlink:href="#md5d39c5983" y="273.312"/>
      </g>
     </g>
     <g id="text_4">
      <!-- 0.6 -->
      <g transform="translate(253.217642 287.910437)scale(0.1 -0.1)">
       <defs>
        <path d="M 2113 2584 
Q 1688 2584 1439 2293 
Q 1191 2003 1191 1497 
Q 1191 994 1439 701 
Q 1688 409 2113 409 
Q 2538 409 2786 701 
Q 3034 994 3034 1497 
Q 3034 2003 2786 2293 
Q 2538 2584 2113 2584 
z
M 3366 4563 
L 3366 3988 
Q 3128 4100 2886 4159 
Q 2644 4219 2406 4219 
Q 1781 4219 1451 3797 
Q 1122 3375 1075 2522 
Q 1259 2794 1537 2939 
Q 1816 3084 2150 3084 
Q 2853 3084 3261 2657 
Q 3669 2231 3669 1497 
Q 3669 778 3244 343 
Q 2819 -91 2113 -91 
Q 1303 -91 875 529 
Q 447 1150 447 2328 
Q 447 3434 972 4092 
Q 1497 4750 2381 4750 
Q 2619 4750 2861 4703 
Q 3103 4656 3366 4563 
z
" id="DejaVuSans-36" transform="scale(0.015625)"/>
       </defs>
       <use xlink:href="#DejaVuSans-30"/>
       <use x="63.623047" xlink:href="#DejaVuSans-2e"/>
       <use x="95.410156" xlink:href="#DejaVuSans-36"/>
      </g>
     </g>
    </g>
    <g id="xtick_5">
     <g id="line2d_5">
      <g>
       <use style="stroke:#000000;stroke-width:0.8;" x="326.100114" xlink:href="#md5d39c5983" y="273.312"/>
      </g>
     </g>
     <g id="text_5">
      <!-- 0.8 -->
      <g transform="translate(318.148551 287.910437)scale(0.1 -0.1)">
       <defs>
        <path d="M 2034 2216 
Q 1584 2216 1326 1975 
Q 1069 1734 1069 1313 
Q 1069 891 1326 650 
Q 1584 409 2034 409 
Q 2484 409 2743 651 
Q 3003 894 3003 1313 
Q 3003 1734 2745 1975 
Q 2488 2216 2034 2216 
z
M 1403 2484 
Q 997 2584 770 2862 
Q 544 3141 544 3541 
Q 544 4100 942 4425 
Q 1341 4750 2034 4750 
Q 2731 4750 3128 4425 
Q 3525 4100 3525 3541 
Q 3525 3141 3298 2862 
Q 3072 2584 2669 2484 
Q 3125 2378 3379 2068 
Q 3634 1759 3634 1313 
Q 3634 634 3220 271 
Q 2806 -91 2034 -91 
Q 1263 -91 848 271 
Q 434 634 434 1313 
Q 434 1759 690 2068 
Q 947 2378 1403 2484 
z
M 1172 3481 
Q 1172 3119 1398 2916 
Q 1625 2713 2034 2713 
Q 2441 2713 2670 2916 
Q 2900 3119 2900 3481 
Q 2900 3844 2670 4047 
Q 2441 4250 2034 4250 
Q 1625 4250 1398 4047 
Q 1172 3844 1172 3481 
z
" id="DejaVuSans-38" transform="scale(0.015625)"/>
       </defs>
       <use xlink:href="#DejaVuSans-30"/>
       <use x="63.623047" xlink:href="#DejaVuSans-2e"/>
       <use x="95.410156" xlink:href="#DejaVuSans-38"/>
      </g>
     </g>
    </g>
    <g id="xtick_6">
     <g id="line2d_6">
      <g>
       <use style="stroke:#000000;stroke-width:0.8;" x="391.031023" xlink:href="#md5d39c5983" y="273.312"/>
      </g>
     </g>
     <g id="text_6">
      <!-- 1.0 -->
      <g transform="translate(383.07946 287.910437)scale(0.1 -0.1)">
       <defs>
        <path d="M 794 531 
L 1825 531 
L 1825 4091 
L 703 3866 
L 703 4441 
L 1819 4666 
L 2450 4666 
L 2450 531 
L 3481 531 
L 3481 0 
L 794 0 
L 794 531 
z
" id="DejaVuSans-31" transform="scale(0.015625)"/>
       </defs>
       <use xlink:href="#DejaVuSans-31"/>
       <use x="63.623047" xlink:href="#DejaVuSans-2e"/>
       <use x="95.410156" xlink:href="#DejaVuSans-30"/>
      </g>
     </g>
    </g>
    <g id="text_7">
     <!-- Propagation direction -->
     <g transform="translate(175.221719 301.588562)scale(0.1 -0.1)">
      <defs>
       <path d="M 1259 4147 
L 1259 2394 
L 2053 2394 
Q 2494 2394 2734 2622 
Q 2975 2850 2975 3272 
Q 2975 3691 2734 3919 
Q 2494 4147 2053 4147 
L 1259 4147 
z
M 628 4666 
L 2053 4666 
Q 2838 4666 3239 4311 
Q 3641 3956 3641 3272 
Q 3641 2581 3239 2228 
Q 2838 1875 2053 1875 
L 1259 1875 
L 1259 0 
L 628 0 
L 628 4666 
z
" id="DejaVuSans-50" transform="scale(0.015625)"/>
       <path d="M 2631 2963 
Q 2534 3019 2420 3045 
Q 2306 3072 2169 3072 
Q 1681 3072 1420 2755 
Q 1159 2438 1159 1844 
L 1159 0 
L 581 0 
L 581 3500 
L 1159 3500 
L 1159 2956 
Q 1341 3275 1631 3429 
Q 1922 3584 2338 3584 
Q 2397 3584 2469 3576 
Q 2541 3569 2628 3553 
L 2631 2963 
z
" id="DejaVuSans-72" transform="scale(0.015625)"/>
       <path d="M 1959 3097 
Q 1497 3097 1228 2736 
Q 959 2375 959 1747 
Q 959 1119 1226 758 
Q 1494 397 1959 397 
Q 2419 397 2687 759 
Q 2956 1122 2956 1747 
Q 2956 2369 2687 2733 
Q 2419 3097 1959 3097 
z
M 1959 3584 
Q 2709 3584 3137 3096 
Q 3566 2609 3566 1747 
Q 3566 888 3137 398 
Q 2709 -91 1959 -91 
Q 1206 -91 779 398 
Q 353 888 353 1747 
Q 353 2609 779 3096 
Q 1206 3584 1959 3584 
z
" id="DejaVuSans-6f" transform="scale(0.015625)"/>
       <path d="M 1159 525 
L 1159 -1331 
L 581 -1331 
L 581 3500 
L 1159 3500 
L 1159 2969 
Q 1341 3281 1617 3432 
Q 1894 3584 2278 3584 
Q 2916 3584 3314 3078 
Q 3713 2572 3713 1747 
Q 3713 922 3314 415 
Q 2916 -91 2278 -91 
Q 1894 -91 1617 61 
Q 1341 213 1159 525 
z
M 3116 1747 
Q 3116 2381 2855 2742 
Q 2594 3103 2138 3103 
Q 1681 3103 1420 2742 
Q 1159 2381 1159 1747 
Q 1159 1113 1420 752 
Q 1681 391 2138 391 
Q 2594 391 2855 752 
Q 3116 1113 3116 1747 
z
" id="DejaVuSans-70" transform="scale(0.015625)"/>
       <path d="M 2194 1759 
Q 1497 1759 1228 1600 
Q 959 1441 959 1056 
Q 959 750 1161 570 
Q 1363 391 1709 391 
Q 2188 391 2477 730 
Q 2766 1069 2766 1631 
L 2766 1759 
L 2194 1759 
z
M 3341 1997 
L 3341 0 
L 2766 0 
L 2766 531 
Q 2569 213 2275 61 
Q 1981 -91 1556 -91 
Q 1019 -91 701 211 
Q 384 513 384 1019 
Q 384 1609 779 1909 
Q 1175 2209 1959 2209 
L 2766 2209 
L 2766 2266 
Q 2766 2663 2505 2880 
Q 2244 3097 1772 3097 
Q 1472 3097 1187 3025 
Q 903 2953 641 2809 
L 641 3341 
Q 956 3463 1253 3523 
Q 1550 3584 1831 3584 
Q 2591 3584 2966 3190 
Q 3341 2797 3341 1997 
z
" id="DejaVuSans-61" transform="scale(0.015625)"/>
       <path d="M 2906 1791 
Q 2906 2416 2648 2759 
Q 2391 3103 1925 3103 
Q 1463 3103 1205 2759 
Q 947 2416 947 1791 
Q 947 1169 1205 825 
Q 1463 481 1925 481 
Q 2391 481 2648 825 
Q 2906 1169 2906 1791 
z
M 3481 434 
Q 3481 -459 3084 -895 
Q 2688 -1331 1869 -1331 
Q 1566 -1331 1297 -1286 
Q 1028 -1241 775 -1147 
L 775 -588 
Q 1028 -725 1275 -790 
Q 1522 -856 1778 -856 
Q 2344 -856 2625 -561 
Q 2906 -266 2906 331 
L 2906 616 
Q 2728 306 2450 153 
Q 2172 0 1784 0 
Q 1141 0 747 490 
Q 353 981 353 1791 
Q 353 2603 747 3093 
Q 1141 3584 1784 3584 
Q 2172 3584 2450 3431 
Q 2728 3278 2906 2969 
L 2906 3500 
L 3481 3500 
L 3481 434 
z
" id="DejaVuSans-67" transform="scale(0.015625)"/>
       <path d="M 1172 4494 
L 1172 3500 
L 2356 3500 
L 2356 3053 
L 1172 3053 
L 1172 1153 
Q 1172 725 1289 603 
Q 1406 481 1766 481 
L 2356 481 
L 2356 0 
L 1766 0 
Q 1100 0 847 248 
Q 594 497 594 1153 
L 594 3053 
L 172 3053 
L 172 3500 
L 594 3500 
L 594 4494 
L 1172 4494 
z
" id="DejaVuSans-74" transform="scale(0.015625)"/>
       <path d="M 603 3500 
L 1178 3500 
L 1178 0 
L 603 0 
L 603 3500 
z
M 603 4863 
L 1178 4863 
L 1178 4134 
L 603 4134 
L 603 4863 
z
" id="DejaVuSans-69" transform="scale(0.015625)"/>
       <path d="M 3513 2113 
L 3513 0 
L 2938 0 
L 2938 2094 
Q 2938 2591 2744 2837 
Q 2550 3084 2163 3084 
Q 1697 3084 1428 2787 
Q 1159 2491 1159 1978 
L 1159 0 
L 581 0 
L 581 3500 
L 1159 3500 
L 1159 2956 
Q 1366 3272 1645 3428 
Q 1925 3584 2291 3584 
Q 2894 3584 3203 3211 
Q 3513 2838 3513 2113 
z
" id="DejaVuSans-6e" transform="scale(0.015625)"/>
       <path id="DejaVuSans-20" transform="scale(0.015625)"/>
       <path d="M 2906 2969 
L 2906 4863 
L 3481 4863 
L 3481 0 
L 2906 0 
L 2906 525 
Q 2725 213 2448 61 
Q 2172 -91 1784 -91 
Q 1150 -91 751 415 
Q 353 922 353 1747 
Q 353 2572 751 3078 
Q 1150 3584 1784 3584 
Q 2172 3584 2448 3432 
Q 2725 3281 2906 2969 
z
M 947 1747 
Q 947 1113 1208 752 
Q 1469 391 1925 391 
Q 2381 391 2643 752 
Q 2906 1113 2906 1747 
Q 2906 2381 2643 2742 
Q 2381 3103 1925 3103 
Q 1469 3103 1208 2742 
Q 947 2381 947 1747 
z
" id="DejaVuSans-64" transform="scale(0.015625)"/>
       <path d="M 3597 1894 
L 3597 1613 
L 953 1613 
Q 991 1019 1311 708 
Q 1631 397 2203 397 
Q 2534 397 2845 478 
Q 3156 559 3463 722 
L 3463 178 
Q 3153 47 2828 -22 
Q 2503 -91 2169 -91 
Q 1331 -91 842 396 
Q 353 884 353 1716 
Q 353 2575 817 3079 
Q 1281 3584 2069 3584 
Q 2775 3584 3186 3129 
Q 3597 2675 3597 1894 
z
M 3022 2063 
Q 3016 2534 2758 2815 
Q 2500 3097 2075 3097 
Q 1594 3097 1305 2825 
Q 1016 2553 972 2059 
L 3022 2063 
z
" id="DejaVuSans-65" transform="scale(0.015625)"/>
       <path d="M 3122 3366 
L 3122 2828 
Q 2878 2963 2633 3030 
Q 2388 3097 2138 3097 
Q 1578 3097 1268 2742 
Q 959 2388 959 1747 
Q 959 1106 1268 751 
Q 1578 397 2138 397 
Q 2388 397 2633 464 
Q 2878 531 3122 666 
L 3122 134 
Q 2881 22 2623 -34 
Q 2366 -91 2075 -91 
Q 1284 -91 818 406 
Q 353 903 353 1747 
Q 353 2603 823 3093 
Q 1294 3584 2113 3584 
Q 2378 3584 2631 3529 
Q 2884 3475 3122 3366 
z
" id="DejaVuSans-63" transform="scale(0.015625)"/>
      </defs>
      <use xlink:href="#DejaVuSans-50"/>
      <use x="58.552734" xlink:href="#DejaVuSans-72"/>
      <use x="97.416016" xlink:href="#DejaVuSans-6f"/>
      <use x="158.597656" xlink:href="#DejaVuSans-70"/>
      <use x="222.074219" xlink:href="#DejaVuSans-61"/>
      <use x="283.353516" xlink:href="#DejaVuSans-67"/>
      <use x="346.830078" xlink:href="#DejaVuSans-61"/>
      <use x="408.109375" xlink:href="#DejaVuSans-74"/>
      <use x="447.318359" xlink:href="#DejaVuSans-69"/>
      <use x="475.101562" xlink:href="#DejaVuSans-6f"/>
      <use x="536.283203" xlink:href="#DejaVuSans-6e"/>
      <use x="599.662109" xlink:href="#DejaVuSans-20"/>
      <use x="631.449219" xlink:href="#DejaVuSans-64"/>
      <use x="694.925781" xlink:href="#DejaVuSans-69"/>
      <use x="722.708984" xlink:href="#DejaVuSans-72"/>
      <use x="761.572266" xlink:href="#DejaVuSans-65"/>
      <use x="823.095703" xlink:href="#DejaVuSans-63"/>
      <use x="878.076172" xlink:href="#DejaVuSans-74"/>
      <use x="917.285156" xlink:href="#DejaVuSans-69"/>
      <use x="945.068359" xlink:href="#DejaVuSans-6f"/>
      <use x="1006.25" xlink:href="#DejaVuSans-6e"/>
     </g>
    </g>
   </g>
   <g id="matplotlib.axis_2">
    <g id="ytick_1">
     <g id="line2d_7">
      <defs>
       <path d="M 0 0 
L -3.5 0 
" id="md7578a4006" style="stroke:#000000;stroke-width:0.8;"/>
      </defs>
      <g>
       <use style="stroke:#000000;stroke-width:0.8;" x="50.14375" xlink:href="#md7578a4006" y="273.312"/>
      </g>
     </g>
     <g id="text_8">
      <!-- 0.00 -->
      <g transform="translate(20.878125 277.111219)scale(0.1 -0.1)">
       <use xlink:href="#DejaVuSans-30"/>
       <use x="63.623047" xlink:href="#DejaVuSans-2e"/>
       <use x="95.410156" xlink:href="#DejaVuSans-30"/>
       <use x="159.033203" xlink:href="#DejaVuSans-30"/>
      </g>
     </g>
    </g>
    <g id="ytick_2">
     <g id="line2d_8">
      <g>
       <use style="stroke:#000000;stroke-width:0.8;" x="50.14375" xlink:href="#md7578a4006" y="241.999738"/>
      </g>
     </g>
     <g id="text_9">
      <!-- 0.25 -->
      <g transform="translate(20.878125 245.798956)scale(0.1 -0.1)">
       <defs>
        <path d="M 691 4666 
L 3169 4666 
L 3169 4134 
L 1269 4134 
L 1269 2991 
Q 1406 3038 1543 3061 
Q 1681 3084 1819 3084 
Q 2600 3084 3056 2656 
Q 3513 2228 3513 1497 
Q 3513 744 3044 326 
Q 2575 -91 1722 -91 
Q 1428 -91 1123 -41 
Q 819 9 494 109 
L 494 744 
Q 775 591 1075 516 
Q 1375 441 1709 441 
Q 2250 441 2565 725 
Q 2881 1009 2881 1497 
Q 2881 1984 2565 2268 
Q 2250 2553 1709 2553 
Q 1456 2553 1204 2497 
Q 953 2441 691 2322 
L 691 4666 
z
" id="DejaVuSans-35" transform="scale(0.015625)"/>
       </defs>
       <use xlink:href="#DejaVuSans-30"/>
       <use x="63.623047" xlink:href="#DejaVuSans-2e"/>
       <use x="95.410156" xlink:href="#DejaVuSans-32"/>
       <use x="159.033203" xlink:href="#DejaVuSans-35"/>
      </g>
     </g>
    </g>
    <g id="ytick_3">
     <g id="line2d_9">
      <g>
       <use style="stroke:#000000;stroke-width:0.8;" x="50.14375" xlink:href="#md7578a4006" y="210.687475"/>
      </g>
     </g>
     <g id="text_10">
      <!-- 0.50 -->
      <g transform="translate(20.878125 214.486694)scale(0.1 -0.1)">
       <use xlink:href="#DejaVuSans-30"/>
       <use x="63.623047" xlink:href="#DejaVuSans-2e"/>
       <use x="95.410156" xlink:href="#DejaVuSans-35"/>
       <use x="159.033203" xlink:href="#DejaVuSans-30"/>
      </g>
     </g>
    </g>
    <g id="ytick_4">
     <g id="line2d_10">
      <g>
       <use style="stroke:#000000;stroke-width:0.8;" x="50.14375" xlink:href="#md7578a4006" y="179.375213"/>
      </g>
     </g>
     <g id="text_11">
      <!-- 0.75 -->
      <g transform="translate(20.878125 183.174431)scale(0.1 -0.1)">
       <defs>
        <path d="M 525 4666 
L 3525 4666 
L 3525 4397 
L 1831 0 
L 1172 0 
L 2766 4134 
L 525 4134 
L 525 4666 
z
" id="DejaVuSans-37" transform="scale(0.015625)"/>
       </defs>
       <use xlink:href="#DejaVuSans-30"/>
       <use x="63.623047" xlink:href="#DejaVuSans-2e"/>
       <use x="95.410156" xlink:href="#DejaVuSans-37"/>
       <use x="159.033203" xlink:href="#DejaVuSans-35"/>
      </g>
     </g>
    </g>
    <g id="ytick_5">
     <g id="line2d_11">
      <g>
       <use style="stroke:#000000;stroke-width:0.8;" x="50.14375" xlink:href="#md7578a4006" y="148.06295"/>
      </g>
     </g>
     <g id="text_12">
      <!-- 1.00 -->
      <g transform="translate(20.878125 151.862169)scale(0.1 -0.1)">
       <use xlink:href="#DejaVuSans-31"/>
       <use x="63.623047" xlink:href="#DejaVuSans-2e"/>
       <use x="95.410156" xlink:href="#DejaVuSans-30"/>
       <use x="159.033203" xlink:href="#DejaVuSans-30"/>
      </g>
     </g>
    </g>
    <g id="ytick_6">
     <g id="line2d_12">
      <g>
       <use style="stroke:#000000;stroke-width:0.8;" x="50.14375" xlink:href="#md7578a4006" y="116.750688"/>
      </g>
     </g>
     <g id="text_13">
      <!-- 1.25 -->
      <g transform="translate(20.878125 120.549906)scale(0.1 -0.1)">
       <use xlink:href="#DejaVuSans-31"/>
       <use x="63.623047" xlink:href="#DejaVuSans-2e"/>
       <use x="95.410156" xlink:href="#DejaVuSans-32"/>
       <use x="159.033203" xlink:href="#DejaVuSans-35"/>
      </g>
     </g>
    </g>
    <g id="ytick_7">
     <g id="line2d_13">
      <g>
       <use style="stroke:#000000;stroke-width:0.8;" x="50.14375" xlink:href="#md7578a4006" y="85.438425"/>
      </g>
     </g>
     <g id="text_14">
      <!-- 1.50 -->
      <g transform="translate(20.878125 89.237644)scale(0.1 -0.1)">
       <use xlink:href="#DejaVuSans-31"/>
       <use x="63.623047" xlink:href="#DejaVuSans-2e"/>
       <use x="95.410156" xlink:href="#DejaVuSans-35"/>
       <use x="159.033203" xlink:href="#DejaVuSans-30"/>
      </g>
     </g>
    </g>
    <g id="ytick_8">
     <g id="line2d_14">
      <g>
       <use style="stroke:#000000;stroke-width:0.8;" x="50.14375" xlink:href="#md7578a4006" y="54.126163"/>
      </g>
     </g>
     <g id="text_15">
      <!-- 1.75 -->
      <g transform="translate(20.878125 57.925381)scale(0.1 -0.1)">
       <use xlink:href="#DejaVuSans-31"/>
       <use x="63.623047" xlink:href="#DejaVuSans-2e"/>
       <use x="95.410156" xlink:href="#DejaVuSans-37"/>
       <use x="159.033203" xlink:href="#DejaVuSans-35"/>
      </g>
     </g>
    </g>
    <g id="ytick_9">
     <g id="line2d_15">
      <g>
       <use style="stroke:#000000;stroke-width:0.8;" x="50.14375" xlink:href="#md7578a4006" y="22.8139"/>
      </g>
     </g>
     <g id="text_16">
      <!-- 2.00 -->
      <g transform="translate(20.878125 26.613119)scale(0.1 -0.1)">
       <use xlink:href="#DejaVuSans-32"/>
       <use x="63.623047" xlink:href="#DejaVuSans-2e"/>
       <use x="95.410156" xlink:href="#DejaVuSans-30"/>
       <use x="159.033203" xlink:href="#DejaVuSans-30"/>
      </g>
     </g>
    </g>
    <g id="text_17">
     <!-- Probability density -->
     <g transform="translate(14.798438 186.606781)rotate(-90)scale(0.1 -0.1)">
      <defs>
       <path d="M 3116 1747 
Q 3116 2381 2855 2742 
Q 2594 3103 2138 3103 
Q 1681 3103 1420 2742 
Q 1159 2381 1159 1747 
Q 1159 1113 1420 752 
Q 1681 391 2138 391 
Q 2594 391 2855 752 
Q 3116 1113 3116 1747 
z
M 1159 2969 
Q 1341 3281 1617 3432 
Q 1894 3584 2278 3584 
Q 2916 3584 3314 3078 
Q 3713 2572 3713 1747 
Q 3713 922 3314 415 
Q 2916 -91 2278 -91 
Q 1894 -91 1617 61 
Q 1341 213 1159 525 
L 1159 0 
L 581 0 
L 581 4863 
L 1159 4863 
L 1159 2969 
z
" id="DejaVuSans-62" transform="scale(0.015625)"/>
       <path d="M 603 4863 
L 1178 4863 
L 1178 0 
L 603 0 
L 603 4863 
z
" id="DejaVuSans-6c" transform="scale(0.015625)"/>
       <path d="M 2059 -325 
Q 1816 -950 1584 -1140 
Q 1353 -1331 966 -1331 
L 506 -1331 
L 506 -850 
L 844 -850 
Q 1081 -850 1212 -737 
Q 1344 -625 1503 -206 
L 1606 56 
L 191 3500 
L 800 3500 
L 1894 763 
L 2988 3500 
L 3597 3500 
L 2059 -325 
z
" id="DejaVuSans-79" transform="scale(0.015625)"/>
       <path d="M 2834 3397 
L 2834 2853 
Q 2591 2978 2328 3040 
Q 2066 3103 1784 3103 
Q 1356 3103 1142 2972 
Q 928 2841 928 2578 
Q 928 2378 1081 2264 
Q 1234 2150 1697 2047 
L 1894 2003 
Q 2506 1872 2764 1633 
Q 3022 1394 3022 966 
Q 3022 478 2636 193 
Q 2250 -91 1575 -91 
Q 1294 -91 989 -36 
Q 684 19 347 128 
L 347 722 
Q 666 556 975 473 
Q 1284 391 1588 391 
Q 1994 391 2212 530 
Q 2431 669 2431 922 
Q 2431 1156 2273 1281 
Q 2116 1406 1581 1522 
L 1381 1569 
Q 847 1681 609 1914 
Q 372 2147 372 2553 
Q 372 3047 722 3315 
Q 1072 3584 1716 3584 
Q 2034 3584 2315 3537 
Q 2597 3491 2834 3397 
z
" id="DejaVuSans-73" transform="scale(0.015625)"/>
      </defs>
      <use xlink:href="#DejaVuSans-50"/>
      <use x="58.552734" xlink:href="#DejaVuSans-72"/>
      <use x="97.416016" xlink:href="#DejaVuSans-6f"/>
      <use x="158.597656" xlink:href="#DejaVuSans-62"/>
      <use x="222.074219" xlink:href="#DejaVuSans-61"/>
      <use x="283.353516" xlink:href="#DejaVuSans-62"/>
      <use x="346.830078" xlink:href="#DejaVuSans-69"/>
      <use x="374.613281" xlink:href="#DejaVuSans-6c"/>
      <use x="402.396484" xlink:href="#DejaVuSans-69"/>
      <use x="430.179688" xlink:href="#DejaVuSans-74"/>
      <use x="469.388672" xlink:href="#DejaVuSans-79"/>
      <use x="528.568359" xlink:href="#DejaVuSans-20"/>
      <use x="560.355469" xlink:href="#DejaVuSans-64"/>
      <use x="623.832031" xlink:href="#DejaVuSans-65"/>
      <use x="685.355469" xlink:href="#DejaVuSans-6e"/>
      <use x="748.734375" xlink:href="#DejaVuSans-73"/>
      <use x="800.833984" xlink:href="#DejaVuSans-69"/>
      <use x="828.617188" xlink:href="#DejaVuSans-74"/>
      <use x="867.826172" xlink:href="#DejaVuSans-79"/>
     </g>
    </g>
   </g>
   <g id="line2d_16">
    <path clip-path="url(#pff075a153b)" d="M 66.376477 273.312 
L 391.031023 22.8139 
L 391.031023 22.8139 
" style="fill:none;stroke:#ff7f0e;stroke-linecap:square;stroke-width:1.5;"/>
   </g>
   <g id="patch_203">
    <path d="M 50.14375 273.312 
L 50.14375 7.2 
" style="fill:none;stroke:#000000;stroke-linecap:square;stroke-linejoin:miter;stroke-width:0.8;"/>
   </g>
   <g id="patch_204">
    <path d="M 407.26375 273.312 
L 407.26375 7.2 
" style="fill:none;stroke:#000000;stroke-linecap:square;stroke-linejoin:miter;stroke-width:0.8;"/>
   </g>
   <g id="patch_205">
    <path d="M 50.14375 273.312 
L 407.26375 273.312 
" style="fill:none;stroke:#000000;stroke-linecap:square;stroke-linejoin:miter;stroke-width:0.8;"/>
   </g>
   <g id="patch_206">
    <path d="M 50.14375 7.2 
L 407.26375 7.2 
" style="fill:none;stroke:#000000;stroke-linecap:square;stroke-linejoin:miter;stroke-width:0.8;"/>
   </g>
  </g>
 </g>
 <defs>
  <clipPath id="pff075a153b">
   <rect height="266.112" width="357.12" x="50.14375" y="7.2"/>
  </clipPath>
 </defs>
</svg>
