<?xml version="1.0" encoding="utf-8" standalone="no"?>
<!DOCTYPE svg PUBLIC "-//W3C//DTD SVG 1.1//EN"
  "http://www.w3.org/Graphics/SVG/1.1/DTD/svg11.dtd">
<svg height="310.86825pt" version="1.1" viewBox="0 0 414.46375 310.86825" width="414.46375pt" xmlns="http://www.w3.org/2000/svg" xmlns:xlink="http://www.w3.org/1999/xlink">
 <metadata>
  <rdf:RDF xmlns:cc="http://creativecommons.org/ns#" xmlns:dc="http://purl.org/dc/elements/1.1/" xmlns:rdf="http://www.w3.org/1999/02/22-rdf-syntax-ns#">
   <cc:Work>
    <dc:type rdf:resource="http://purl.org/dc/dcmitype/StillImage"/>
    <dc:date>2021-06-22T15:59:35.904807</dc:date>
    <dc:format>image/svg+xml</dc:format>
    <dc:creator>
     <cc:Agent>
      <dc:title>Matplotlib v3.4.2, https://matplotlib.org/</dc:title>
     </cc:Agent>
    </dc:creator>
   </cc:Work>
  </rdf:RDF>
 </metadata>
 <defs>
  <style type="text/css">*{stroke-linecap:butt;stroke-linejoin:round;}</style>
 </defs>
 <g id="figure_1">
  <g id="patch_1">
   <path d="M 0 310.86825 
L 414.46375 310.86825 
L 414.46375 0 
L 0 0 
z
" style="fill:#ffffff;"/>
  </g>
  <g id="axes_1">
   <g id="patch_2">
    <path d="M 50.14375 273.312 
L 407.26375 273.312 
L 407.26375 7.2 
L 50.14375 7.2 
z
" style="fill:#ffffff;"/>
   </g>
   <g id="patch_3">
    <path clip-path="url(#p0e4ea168e5)" d="M 67.2338 273.312 
L 68.85275 273.312 
L 68.85275 270.875077 
L 67.2338 270.875077 
z
" style="fill:#1f77b4;"/>
   </g>
   <g id="patch_4">
    <path clip-path="url(#p0e4ea168e5)" d="M 68.85275 273.312 
L 70.471701 273.312 
L 70.471701 270.875077 
L 68.85275 270.875077 
z
" style="fill:#1f77b4;"/>
   </g>
   <g id="patch_5">
    <path clip-path="url(#p0e4ea168e5)" d="M 70.471701 273.312 
L 72.090651 273.312 
L 72.090651 271.484308 
L 70.471701 271.484308 
z
" style="fill:#1f77b4;"/>
   </g>
   <g id="patch_6">
    <path clip-path="url(#p0e4ea168e5)" d="M 72.090651 273.312 
L 73.709601 273.312 
L 73.709601 267.219692 
L 72.090651 267.219692 
z
" style="fill:#1f77b4;"/>
   </g>
   <g id="patch_7">
    <path clip-path="url(#p0e4ea168e5)" d="M 73.709601 273.312 
L 75.328551 273.312 
L 75.328551 269.047385 
L 73.709601 269.047385 
z
" style="fill:#1f77b4;"/>
   </g>
   <g id="patch_8">
    <path clip-path="url(#p0e4ea168e5)" d="M 75.328551 273.312 
L 76.947502 273.312 
L 76.947502 264.173538 
L 75.328551 264.173538 
z
" style="fill:#1f77b4;"/>
   </g>
   <g id="patch_9">
    <path clip-path="url(#p0e4ea168e5)" d="M 76.947502 273.312 
L 78.566452 273.312 
L 78.566452 265.392 
L 76.947502 265.392 
z
" style="fill:#1f77b4;"/>
   </g>
   <g id="patch_10">
    <path clip-path="url(#p0e4ea168e5)" d="M 78.566452 273.312 
L 80.185402 273.312 
L 80.185402 265.392 
L 78.566452 265.392 
z
" style="fill:#1f77b4;"/>
   </g>
   <g id="patch_11">
    <path clip-path="url(#p0e4ea168e5)" d="M 80.185402 273.312 
L 81.804352 273.312 
L 81.804352 264.173538 
L 80.185402 264.173538 
z
" style="fill:#1f77b4;"/>
   </g>
   <g id="patch_12">
    <path clip-path="url(#p0e4ea168e5)" d="M 81.804352 273.312 
L 83.423303 273.312 
L 83.423303 258.690462 
L 81.804352 258.690462 
z
" style="fill:#1f77b4;"/>
   </g>
   <g id="patch_13">
    <path clip-path="url(#p0e4ea168e5)" d="M 83.423303 273.312 
L 85.042253 273.312 
L 85.042253 255.035077 
L 83.423303 255.035077 
z
" style="fill:#1f77b4;"/>
   </g>
   <g id="patch_14">
    <path clip-path="url(#p0e4ea168e5)" d="M 85.042253 273.312 
L 86.661203 273.312 
L 86.661203 260.518154 
L 85.042253 260.518154 
z
" style="fill:#1f77b4;"/>
   </g>
   <g id="patch_15">
    <path clip-path="url(#p0e4ea168e5)" d="M 86.661203 273.312 
L 88.280153 273.312 
L 88.280153 257.472 
L 86.661203 257.472 
z
" style="fill:#1f77b4;"/>
   </g>
   <g id="patch_16">
    <path clip-path="url(#p0e4ea168e5)" d="M 88.280153 273.312 
L 89.899104 273.312 
L 89.899104 258.081231 
L 88.280153 258.081231 
z
" style="fill:#1f77b4;"/>
   </g>
   <g id="patch_17">
    <path clip-path="url(#p0e4ea168e5)" d="M 89.899104 273.312 
L 91.518054 273.312 
L 91.518054 256.862769 
L 89.899104 256.862769 
z
" style="fill:#1f77b4;"/>
   </g>
   <g id="patch_18">
    <path clip-path="url(#p0e4ea168e5)" d="M 91.518054 273.312 
L 93.137004 273.312 
L 93.137004 251.988923 
L 91.518054 251.988923 
z
" style="fill:#1f77b4;"/>
   </g>
   <g id="patch_19">
    <path clip-path="url(#p0e4ea168e5)" d="M 93.137004 273.312 
L 94.755954 273.312 
L 94.755954 255.644308 
L 93.137004 255.644308 
z
" style="fill:#1f77b4;"/>
   </g>
   <g id="patch_20">
    <path clip-path="url(#p0e4ea168e5)" d="M 94.755954 273.312 
L 96.374905 273.312 
L 96.374905 251.988923 
L 94.755954 251.988923 
z
" style="fill:#1f77b4;"/>
   </g>
   <g id="patch_21">
    <path clip-path="url(#p0e4ea168e5)" d="M 96.374905 273.312 
L 97.993855 273.312 
L 97.993855 242.850462 
L 96.374905 242.850462 
z
" style="fill:#1f77b4;"/>
   </g>
   <g id="patch_22">
    <path clip-path="url(#p0e4ea168e5)" d="M 97.993855 273.312 
L 99.612805 273.312 
L 99.612805 245.287385 
L 97.993855 245.287385 
z
" style="fill:#1f77b4;"/>
   </g>
   <g id="patch_23">
    <path clip-path="url(#p0e4ea168e5)" d="M 99.612805 273.312 
L 101.231755 273.312 
L 101.231755 246.505846 
L 99.612805 246.505846 
z
" style="fill:#1f77b4;"/>
   </g>
   <g id="patch_24">
    <path clip-path="url(#p0e4ea168e5)" d="M 101.231755 273.312 
L 102.850706 273.312 
L 102.850706 245.287385 
L 101.231755 245.287385 
z
" style="fill:#1f77b4;"/>
   </g>
   <g id="patch_25">
    <path clip-path="url(#p0e4ea168e5)" d="M 102.850706 273.312 
L 104.469656 273.312 
L 104.469656 242.850462 
L 102.850706 242.850462 
z
" style="fill:#1f77b4;"/>
   </g>
   <g id="patch_26">
    <path clip-path="url(#p0e4ea168e5)" d="M 104.469656 273.312 
L 106.088606 273.312 
L 106.088606 245.896615 
L 104.469656 245.896615 
z
" style="fill:#1f77b4;"/>
   </g>
   <g id="patch_27">
    <path clip-path="url(#p0e4ea168e5)" d="M 106.088606 273.312 
L 107.707556 273.312 
L 107.707556 241.022769 
L 106.088606 241.022769 
z
" style="fill:#1f77b4;"/>
   </g>
   <g id="patch_28">
    <path clip-path="url(#p0e4ea168e5)" d="M 107.707556 273.312 
L 109.326507 273.312 
L 109.326507 243.459692 
L 107.707556 243.459692 
z
" style="fill:#1f77b4;"/>
   </g>
   <g id="patch_29">
    <path clip-path="url(#p0e4ea168e5)" d="M 109.326507 273.312 
L 110.945457 273.312 
L 110.945457 244.678154 
L 109.326507 244.678154 
z
" style="fill:#1f77b4;"/>
   </g>
   <g id="patch_30">
    <path clip-path="url(#p0e4ea168e5)" d="M 110.945457 273.312 
L 112.564407 273.312 
L 112.564407 233.102769 
L 110.945457 233.102769 
z
" style="fill:#1f77b4;"/>
   </g>
   <g id="patch_31">
    <path clip-path="url(#p0e4ea168e5)" d="M 112.564407 273.312 
L 114.183357 273.312 
L 114.183357 247.724308 
L 112.564407 247.724308 
z
" style="fill:#1f77b4;"/>
   </g>
   <g id="patch_32">
    <path clip-path="url(#p0e4ea168e5)" d="M 114.183357 273.312 
L 115.802308 273.312 
L 115.802308 231.275077 
L 114.183357 231.275077 
z
" style="fill:#1f77b4;"/>
   </g>
   <g id="patch_33">
    <path clip-path="url(#p0e4ea168e5)" d="M 115.802308 273.312 
L 117.421258 273.312 
L 117.421258 219.090462 
L 115.802308 219.090462 
z
" style="fill:#1f77b4;"/>
   </g>
   <g id="patch_34">
    <path clip-path="url(#p0e4ea168e5)" d="M 117.421258 273.312 
L 119.040208 273.312 
L 119.040208 236.148923 
L 117.421258 236.148923 
z
" style="fill:#1f77b4;"/>
   </g>
   <g id="patch_35">
    <path clip-path="url(#p0e4ea168e5)" d="M 119.040208 273.312 
L 120.659158 273.312 
L 120.659158 240.413538 
L 119.040208 240.413538 
z
" style="fill:#1f77b4;"/>
   </g>
   <g id="patch_36">
    <path clip-path="url(#p0e4ea168e5)" d="M 120.659158 273.312 
L 122.278109 273.312 
L 122.278109 232.493538 
L 120.659158 232.493538 
z
" style="fill:#1f77b4;"/>
   </g>
   <g id="patch_37">
    <path clip-path="url(#p0e4ea168e5)" d="M 122.278109 273.312 
L 123.897059 273.312 
L 123.897059 228.838154 
L 122.278109 228.838154 
z
" style="fill:#1f77b4;"/>
   </g>
   <g id="patch_38">
    <path clip-path="url(#p0e4ea168e5)" d="M 123.897059 273.312 
L 125.516009 273.312 
L 125.516009 234.930462 
L 123.897059 234.930462 
z
" style="fill:#1f77b4;"/>
   </g>
   <g id="patch_39">
    <path clip-path="url(#p0e4ea168e5)" d="M 125.516009 273.312 
L 127.134959 273.312 
L 127.134959 222.745846 
L 125.516009 222.745846 
z
" style="fill:#1f77b4;"/>
   </g>
   <g id="patch_40">
    <path clip-path="url(#p0e4ea168e5)" d="M 127.134959 273.312 
L 128.75391 273.312 
L 128.75391 219.699692 
L 127.134959 219.699692 
z
" style="fill:#1f77b4;"/>
   </g>
   <g id="patch_41">
    <path clip-path="url(#p0e4ea168e5)" d="M 128.75391 273.312 
L 130.37286 273.312 
L 130.37286 221.527385 
L 128.75391 221.527385 
z
" style="fill:#1f77b4;"/>
   </g>
   <g id="patch_42">
    <path clip-path="url(#p0e4ea168e5)" d="M 130.37286 273.312 
L 131.99181 273.312 
L 131.99181 236.758154 
L 130.37286 236.758154 
z
" style="fill:#1f77b4;"/>
   </g>
   <g id="patch_43">
    <path clip-path="url(#p0e4ea168e5)" d="M 131.99181 273.312 
L 133.61076 273.312 
L 133.61076 229.447385 
L 131.99181 229.447385 
z
" style="fill:#1f77b4;"/>
   </g>
   <g id="patch_44">
    <path clip-path="url(#p0e4ea168e5)" d="M 133.61076 273.312 
L 135.229711 273.312 
L 135.229711 230.056615 
L 133.61076 230.056615 
z
" style="fill:#1f77b4;"/>
   </g>
   <g id="patch_45">
    <path clip-path="url(#p0e4ea168e5)" d="M 135.229711 273.312 
L 136.848661 273.312 
L 136.848661 217.262769 
L 135.229711 217.262769 
z
" style="fill:#1f77b4;"/>
   </g>
   <g id="patch_46">
    <path clip-path="url(#p0e4ea168e5)" d="M 136.848661 273.312 
L 138.467611 273.312 
L 138.467611 223.964308 
L 136.848661 223.964308 
z
" style="fill:#1f77b4;"/>
   </g>
   <g id="patch_47">
    <path clip-path="url(#p0e4ea168e5)" d="M 138.467611 273.312 
L 140.086561 273.312 
L 140.086561 209.342769 
L 138.467611 209.342769 
z
" style="fill:#1f77b4;"/>
   </g>
   <g id="patch_48">
    <path clip-path="url(#p0e4ea168e5)" d="M 140.086561 273.312 
L 141.705512 273.312 
L 141.705512 214.825846 
L 140.086561 214.825846 
z
" style="fill:#1f77b4;"/>
   </g>
   <g id="patch_49">
    <path clip-path="url(#p0e4ea168e5)" d="M 141.705512 273.312 
L 143.324462 273.312 
L 143.324462 209.342769 
L 141.705512 209.342769 
z
" style="fill:#1f77b4;"/>
   </g>
   <g id="patch_50">
    <path clip-path="url(#p0e4ea168e5)" d="M 143.324462 273.312 
L 144.943412 273.312 
L 144.943412 208.124308 
L 143.324462 208.124308 
z
" style="fill:#1f77b4;"/>
   </g>
   <g id="patch_51">
    <path clip-path="url(#p0e4ea168e5)" d="M 144.943412 273.312 
L 146.562362 273.312 
L 146.562362 218.481231 
L 144.943412 218.481231 
z
" style="fill:#1f77b4;"/>
   </g>
   <g id="patch_52">
    <path clip-path="url(#p0e4ea168e5)" d="M 146.562362 273.312 
L 148.181313 273.312 
L 148.181313 218.481231 
L 146.562362 218.481231 
z
" style="fill:#1f77b4;"/>
   </g>
   <g id="patch_53">
    <path clip-path="url(#p0e4ea168e5)" d="M 148.181313 273.312 
L 149.800263 273.312 
L 149.800263 209.952 
L 148.181313 209.952 
z
" style="fill:#1f77b4;"/>
   </g>
   <g id="patch_54">
    <path clip-path="url(#p0e4ea168e5)" d="M 149.800263 273.312 
L 151.419213 273.312 
L 151.419213 220.918154 
L 149.800263 220.918154 
z
" style="fill:#1f77b4;"/>
   </g>
   <g id="patch_55">
    <path clip-path="url(#p0e4ea168e5)" d="M 151.419213 273.312 
L 153.038163 273.312 
L 153.038163 206.296615 
L 151.419213 206.296615 
z
" style="fill:#1f77b4;"/>
   </g>
   <g id="patch_56">
    <path clip-path="url(#p0e4ea168e5)" d="M 153.038163 273.312 
L 154.657114 273.312 
L 154.657114 209.952 
L 153.038163 209.952 
z
" style="fill:#1f77b4;"/>
   </g>
   <g id="patch_57">
    <path clip-path="url(#p0e4ea168e5)" d="M 154.657114 273.312 
L 156.276064 273.312 
L 156.276064 208.733538 
L 154.657114 208.733538 
z
" style="fill:#1f77b4;"/>
   </g>
   <g id="patch_58">
    <path clip-path="url(#p0e4ea168e5)" d="M 156.276064 273.312 
L 157.895014 273.312 
L 157.895014 214.216615 
L 156.276064 214.216615 
z
" style="fill:#1f77b4;"/>
   </g>
   <g id="patch_59">
    <path clip-path="url(#p0e4ea168e5)" d="M 157.895014 273.312 
L 159.513964 273.312 
L 159.513964 206.296615 
L 157.895014 206.296615 
z
" style="fill:#1f77b4;"/>
   </g>
   <g id="patch_60">
    <path clip-path="url(#p0e4ea168e5)" d="M 159.513964 273.312 
L 161.132915 273.312 
L 161.132915 203.250462 
L 159.513964 203.250462 
z
" style="fill:#1f77b4;"/>
   </g>
   <g id="patch_61">
    <path clip-path="url(#p0e4ea168e5)" d="M 161.132915 273.312 
L 162.751865 273.312 
L 162.751865 208.124308 
L 161.132915 208.124308 
z
" style="fill:#1f77b4;"/>
   </g>
   <g id="patch_62">
    <path clip-path="url(#p0e4ea168e5)" d="M 162.751865 273.312 
L 164.370815 273.312 
L 164.370815 200.813538 
L 162.751865 200.813538 
z
" style="fill:#1f77b4;"/>
   </g>
   <g id="patch_63">
    <path clip-path="url(#p0e4ea168e5)" d="M 164.370815 273.312 
L 165.989765 273.312 
L 165.989765 204.468923 
L 164.370815 204.468923 
z
" style="fill:#1f77b4;"/>
   </g>
   <g id="patch_64">
    <path clip-path="url(#p0e4ea168e5)" d="M 165.989765 273.312 
L 167.608716 273.312 
L 167.608716 203.250462 
L 165.989765 203.250462 
z
" style="fill:#1f77b4;"/>
   </g>
   <g id="patch_65">
    <path clip-path="url(#p0e4ea168e5)" d="M 167.608716 273.312 
L 169.227666 273.312 
L 169.227666 197.158154 
L 167.608716 197.158154 
z
" style="fill:#1f77b4;"/>
   </g>
   <g id="patch_66">
    <path clip-path="url(#p0e4ea168e5)" d="M 169.227666 273.312 
L 170.846616 273.312 
L 170.846616 203.859692 
L 169.227666 203.859692 
z
" style="fill:#1f77b4;"/>
   </g>
   <g id="patch_67">
    <path clip-path="url(#p0e4ea168e5)" d="M 170.846616 273.312 
L 172.465566 273.312 
L 172.465566 189.238154 
L 170.846616 189.238154 
z
" style="fill:#1f77b4;"/>
   </g>
   <g id="patch_68">
    <path clip-path="url(#p0e4ea168e5)" d="M 172.465566 273.312 
L 174.084517 273.312 
L 174.084517 180.708923 
L 172.465566 180.708923 
z
" style="fill:#1f77b4;"/>
   </g>
   <g id="patch_69">
    <path clip-path="url(#p0e4ea168e5)" d="M 174.084517 273.312 
L 175.703467 273.312 
L 175.703467 183.145846 
L 174.084517 183.145846 
z
" style="fill:#1f77b4;"/>
   </g>
   <g id="patch_70">
    <path clip-path="url(#p0e4ea168e5)" d="M 175.703467 273.312 
L 177.322417 273.312 
L 177.322417 195.330462 
L 175.703467 195.330462 
z
" style="fill:#1f77b4;"/>
   </g>
   <g id="patch_71">
    <path clip-path="url(#p0e4ea168e5)" d="M 177.322417 273.312 
L 178.941367 273.312 
L 178.941367 196.548923 
L 177.322417 196.548923 
z
" style="fill:#1f77b4;"/>
   </g>
   <g id="patch_72">
    <path clip-path="url(#p0e4ea168e5)" d="M 178.941367 273.312 
L 180.560318 273.312 
L 180.560318 189.847385 
L 178.941367 189.847385 
z
" style="fill:#1f77b4;"/>
   </g>
   <g id="patch_73">
    <path clip-path="url(#p0e4ea168e5)" d="M 180.560318 273.312 
L 182.179268 273.312 
L 182.179268 185.582769 
L 180.560318 185.582769 
z
" style="fill:#1f77b4;"/>
   </g>
   <g id="patch_74">
    <path clip-path="url(#p0e4ea168e5)" d="M 182.179268 273.312 
L 183.798218 273.312 
L 183.798218 191.065846 
L 182.179268 191.065846 
z
" style="fill:#1f77b4;"/>
   </g>
   <g id="patch_75">
    <path clip-path="url(#p0e4ea168e5)" d="M 183.798218 273.312 
L 185.417168 273.312 
L 185.417168 183.145846 
L 183.798218 183.145846 
z
" style="fill:#1f77b4;"/>
   </g>
   <g id="patch_76">
    <path clip-path="url(#p0e4ea168e5)" d="M 185.417168 273.312 
L 187.036119 273.312 
L 187.036119 184.973538 
L 185.417168 184.973538 
z
" style="fill:#1f77b4;"/>
   </g>
   <g id="patch_77">
    <path clip-path="url(#p0e4ea168e5)" d="M 187.036119 273.312 
L 188.655069 273.312 
L 188.655069 185.582769 
L 187.036119 185.582769 
z
" style="fill:#1f77b4;"/>
   </g>
   <g id="patch_78">
    <path clip-path="url(#p0e4ea168e5)" d="M 188.655069 273.312 
L 190.274019 273.312 
L 190.274019 184.364308 
L 188.655069 184.364308 
z
" style="fill:#1f77b4;"/>
   </g>
   <g id="patch_79">
    <path clip-path="url(#p0e4ea168e5)" d="M 190.274019 273.312 
L 191.892969 273.312 
L 191.892969 179.490462 
L 190.274019 179.490462 
z
" style="fill:#1f77b4;"/>
   </g>
   <g id="patch_80">
    <path clip-path="url(#p0e4ea168e5)" d="M 191.892969 273.312 
L 193.511919 273.312 
L 193.511919 181.318154 
L 191.892969 181.318154 
z
" style="fill:#1f77b4;"/>
   </g>
   <g id="patch_81">
    <path clip-path="url(#p0e4ea168e5)" d="M 193.511919 273.312 
L 195.13087 273.312 
L 195.13087 180.099692 
L 193.511919 180.099692 
z
" style="fill:#1f77b4;"/>
   </g>
   <g id="patch_82">
    <path clip-path="url(#p0e4ea168e5)" d="M 195.13087 273.312 
L 196.74982 273.312 
L 196.74982 181.927385 
L 195.13087 181.927385 
z
" style="fill:#1f77b4;"/>
   </g>
   <g id="patch_83">
    <path clip-path="url(#p0e4ea168e5)" d="M 196.74982 273.312 
L 198.36877 273.312 
L 198.36877 174.616615 
L 196.74982 174.616615 
z
" style="fill:#1f77b4;"/>
   </g>
   <g id="patch_84">
    <path clip-path="url(#p0e4ea168e5)" d="M 198.36877 273.312 
L 199.98772 273.312 
L 199.98772 189.847385 
L 198.36877 189.847385 
z
" style="fill:#1f77b4;"/>
   </g>
   <g id="patch_85">
    <path clip-path="url(#p0e4ea168e5)" d="M 199.98772 273.312 
L 201.606671 273.312 
L 201.606671 166.087385 
L 199.98772 166.087385 
z
" style="fill:#1f77b4;"/>
   </g>
   <g id="patch_86">
    <path clip-path="url(#p0e4ea168e5)" d="M 201.606671 273.312 
L 203.225621 273.312 
L 203.225621 180.708923 
L 201.606671 180.708923 
z
" style="fill:#1f77b4;"/>
   </g>
   <g id="patch_87">
    <path clip-path="url(#p0e4ea168e5)" d="M 203.225621 273.312 
L 204.844571 273.312 
L 204.844571 155.730462 
L 203.225621 155.730462 
z
" style="fill:#1f77b4;"/>
   </g>
   <g id="patch_88">
    <path clip-path="url(#p0e4ea168e5)" d="M 204.844571 273.312 
L 206.463521 273.312 
L 206.463521 170.352 
L 204.844571 170.352 
z
" style="fill:#1f77b4;"/>
   </g>
   <g id="patch_89">
    <path clip-path="url(#p0e4ea168e5)" d="M 206.463521 273.312 
L 208.082472 273.312 
L 208.082472 173.398154 
L 206.463521 173.398154 
z
" style="fill:#1f77b4;"/>
   </g>
   <g id="patch_90">
    <path clip-path="url(#p0e4ea168e5)" d="M 208.082472 273.312 
L 209.701422 273.312 
L 209.701422 177.662769 
L 208.082472 177.662769 
z
" style="fill:#1f77b4;"/>
   </g>
   <g id="patch_91">
    <path clip-path="url(#p0e4ea168e5)" d="M 209.701422 273.312 
L 211.320372 273.312 
L 211.320372 167.915077 
L 209.701422 167.915077 
z
" style="fill:#1f77b4;"/>
   </g>
   <g id="patch_92">
    <path clip-path="url(#p0e4ea168e5)" d="M 211.320372 273.312 
L 212.939322 273.312 
L 212.939322 182.536615 
L 211.320372 182.536615 
z
" style="fill:#1f77b4;"/>
   </g>
   <g id="patch_93">
    <path clip-path="url(#p0e4ea168e5)" d="M 212.939322 273.312 
L 214.558273 273.312 
L 214.558273 153.902769 
L 212.939322 153.902769 
z
" style="fill:#1f77b4;"/>
   </g>
   <g id="patch_94">
    <path clip-path="url(#p0e4ea168e5)" d="M 214.558273 273.312 
L 216.177223 273.312 
L 216.177223 167.305846 
L 214.558273 167.305846 
z
" style="fill:#1f77b4;"/>
   </g>
   <g id="patch_95">
    <path clip-path="url(#p0e4ea168e5)" d="M 216.177223 273.312 
L 217.796173 273.312 
L 217.796173 170.961231 
L 216.177223 170.961231 
z
" style="fill:#1f77b4;"/>
   </g>
   <g id="patch_96">
    <path clip-path="url(#p0e4ea168e5)" d="M 217.796173 273.312 
L 219.415123 273.312 
L 219.415123 155.121231 
L 217.796173 155.121231 
z
" style="fill:#1f77b4;"/>
   </g>
   <g id="patch_97">
    <path clip-path="url(#p0e4ea168e5)" d="M 219.415123 273.312 
L 221.034074 273.312 
L 221.034074 150.247385 
L 219.415123 150.247385 
z
" style="fill:#1f77b4;"/>
   </g>
   <g id="patch_98">
    <path clip-path="url(#p0e4ea168e5)" d="M 221.034074 273.312 
L 222.653024 273.312 
L 222.653024 158.167385 
L 221.034074 158.167385 
z
" style="fill:#1f77b4;"/>
   </g>
   <g id="patch_99">
    <path clip-path="url(#p0e4ea168e5)" d="M 222.653024 273.312 
L 224.271974 273.312 
L 224.271974 149.028923 
L 222.653024 149.028923 
z
" style="fill:#1f77b4;"/>
   </g>
   <g id="patch_100">
    <path clip-path="url(#p0e4ea168e5)" d="M 224.271974 273.312 
L 225.890924 273.312 
L 225.890924 139.890462 
L 224.271974 139.890462 
z
" style="fill:#1f77b4;"/>
   </g>
   <g id="patch_101">
    <path clip-path="url(#p0e4ea168e5)" d="M 225.890924 273.312 
L 227.509875 273.312 
L 227.509875 142.327385 
L 225.890924 142.327385 
z
" style="fill:#1f77b4;"/>
   </g>
   <g id="patch_102">
    <path clip-path="url(#p0e4ea168e5)" d="M 227.509875 273.312 
L 229.128825 273.312 
L 229.128825 159.995077 
L 227.509875 159.995077 
z
" style="fill:#1f77b4;"/>
   </g>
   <g id="patch_103">
    <path clip-path="url(#p0e4ea168e5)" d="M 229.128825 273.312 
L 230.747775 273.312 
L 230.747775 149.638154 
L 229.128825 149.638154 
z
" style="fill:#1f77b4;"/>
   </g>
   <g id="patch_104">
    <path clip-path="url(#p0e4ea168e5)" d="M 230.747775 273.312 
L 232.366725 273.312 
L 232.366725 145.373538 
L 230.747775 145.373538 
z
" style="fill:#1f77b4;"/>
   </g>
   <g id="patch_105">
    <path clip-path="url(#p0e4ea168e5)" d="M 232.366725 273.312 
L 233.985676 273.312 
L 233.985676 161.213538 
L 232.366725 161.213538 
z
" style="fill:#1f77b4;"/>
   </g>
   <g id="patch_106">
    <path clip-path="url(#p0e4ea168e5)" d="M 233.985676 273.312 
L 235.604626 273.312 
L 235.604626 140.499692 
L 233.985676 140.499692 
z
" style="fill:#1f77b4;"/>
   </g>
   <g id="patch_107">
    <path clip-path="url(#p0e4ea168e5)" d="M 235.604626 273.312 
L 237.223576 273.312 
L 237.223576 141.108923 
L 235.604626 141.108923 
z
" style="fill:#1f77b4;"/>
   </g>
   <g id="patch_108">
    <path clip-path="url(#p0e4ea168e5)" d="M 237.223576 273.312 
L 238.842526 273.312 
L 238.842526 149.028923 
L 237.223576 149.028923 
z
" style="fill:#1f77b4;"/>
   </g>
   <g id="patch_109">
    <path clip-path="url(#p0e4ea168e5)" d="M 238.842526 273.312 
L 240.461477 273.312 
L 240.461477 141.108923 
L 238.842526 141.108923 
z
" style="fill:#1f77b4;"/>
   </g>
   <g id="patch_110">
    <path clip-path="url(#p0e4ea168e5)" d="M 240.461477 273.312 
L 242.080427 273.312 
L 242.080427 142.327385 
L 240.461477 142.327385 
z
" style="fill:#1f77b4;"/>
   </g>
   <g id="patch_111">
    <path clip-path="url(#p0e4ea168e5)" d="M 242.080427 273.312 
L 243.699377 273.312 
L 243.699377 135.016615 
L 242.080427 135.016615 
z
" style="fill:#1f77b4;"/>
   </g>
   <g id="patch_112">
    <path clip-path="url(#p0e4ea168e5)" d="M 243.699377 273.312 
L 245.318327 273.312 
L 245.318327 141.108923 
L 243.699377 141.108923 
z
" style="fill:#1f77b4;"/>
   </g>
   <g id="patch_113">
    <path clip-path="url(#p0e4ea168e5)" d="M 245.318327 273.312 
L 246.937278 273.312 
L 246.937278 139.281231 
L 245.318327 139.281231 
z
" style="fill:#1f77b4;"/>
   </g>
   <g id="patch_114">
    <path clip-path="url(#p0e4ea168e5)" d="M 246.937278 273.312 
L 248.556228 273.312 
L 248.556228 128.315077 
L 246.937278 128.315077 
z
" style="fill:#1f77b4;"/>
   </g>
   <g id="patch_115">
    <path clip-path="url(#p0e4ea168e5)" d="M 248.556228 273.312 
L 250.175178 273.312 
L 250.175178 147.201231 
L 248.556228 147.201231 
z
" style="fill:#1f77b4;"/>
   </g>
   <g id="patch_116">
    <path clip-path="url(#p0e4ea168e5)" d="M 250.175178 273.312 
L 251.794128 273.312 
L 251.794128 114.302769 
L 250.175178 114.302769 
z
" style="fill:#1f77b4;"/>
   </g>
   <g id="patch_117">
    <path clip-path="url(#p0e4ea168e5)" d="M 251.794128 273.312 
L 253.413079 273.312 
L 253.413079 149.638154 
L 251.794128 149.638154 
z
" style="fill:#1f77b4;"/>
   </g>
   <g id="patch_118">
    <path clip-path="url(#p0e4ea168e5)" d="M 253.413079 273.312 
L 255.032029 273.312 
L 255.032029 129.533538 
L 253.413079 129.533538 
z
" style="fill:#1f77b4;"/>
   </g>
   <g id="patch_119">
    <path clip-path="url(#p0e4ea168e5)" d="M 255.032029 273.312 
L 256.650979 273.312 
L 256.650979 130.142769 
L 255.032029 130.142769 
z
" style="fill:#1f77b4;"/>
   </g>
   <g id="patch_120">
    <path clip-path="url(#p0e4ea168e5)" d="M 256.650979 273.312 
L 258.269929 273.312 
L 258.269929 125.878154 
L 256.650979 125.878154 
z
" style="fill:#1f77b4;"/>
   </g>
   <g id="patch_121">
    <path clip-path="url(#p0e4ea168e5)" d="M 258.269929 273.312 
L 259.88888 273.312 
L 259.88888 126.487385 
L 258.269929 126.487385 
z
" style="fill:#1f77b4;"/>
   </g>
   <g id="patch_122">
    <path clip-path="url(#p0e4ea168e5)" d="M 259.88888 273.312 
L 261.50783 273.312 
L 261.50783 131.361231 
L 259.88888 131.361231 
z
" style="fill:#1f77b4;"/>
   </g>
   <g id="patch_123">
    <path clip-path="url(#p0e4ea168e5)" d="M 261.50783 273.312 
L 263.12678 273.312 
L 263.12678 125.878154 
L 261.50783 125.878154 
z
" style="fill:#1f77b4;"/>
   </g>
   <g id="patch_124">
    <path clip-path="url(#p0e4ea168e5)" d="M 263.12678 273.312 
L 264.74573 273.312 
L 264.74573 117.348923 
L 263.12678 117.348923 
z
" style="fill:#1f77b4;"/>
   </g>
   <g id="patch_125">
    <path clip-path="url(#p0e4ea168e5)" d="M 264.74573 273.312 
L 266.364681 273.312 
L 266.364681 127.096615 
L 264.74573 127.096615 
z
" style="fill:#1f77b4;"/>
   </g>
   <g id="patch_126">
    <path clip-path="url(#p0e4ea168e5)" d="M 266.364681 273.312 
L 267.983631 273.312 
L 267.983631 105.164308 
L 266.364681 105.164308 
z
" style="fill:#1f77b4;"/>
   </g>
   <g id="patch_127">
    <path clip-path="url(#p0e4ea168e5)" d="M 267.983631 273.312 
L 269.602581 273.312 
L 269.602581 118.567385 
L 267.983631 118.567385 
z
" style="fill:#1f77b4;"/>
   </g>
   <g id="patch_128">
    <path clip-path="url(#p0e4ea168e5)" d="M 269.602581 273.312 
L 271.221531 273.312 
L 271.221531 109.428923 
L 269.602581 109.428923 
z
" style="fill:#1f77b4;"/>
   </g>
   <g id="patch_129">
    <path clip-path="url(#p0e4ea168e5)" d="M 271.221531 273.312 
L 272.840482 273.312 
L 272.840482 103.945846 
L 271.221531 103.945846 
z
" style="fill:#1f77b4;"/>
   </g>
   <g id="patch_130">
    <path clip-path="url(#p0e4ea168e5)" d="M 272.840482 273.312 
L 274.459432 273.312 
L 274.459432 122.222769 
L 272.840482 122.222769 
z
" style="fill:#1f77b4;"/>
   </g>
   <g id="patch_131">
    <path clip-path="url(#p0e4ea168e5)" d="M 274.459432 273.312 
L 276.078382 273.312 
L 276.078382 136.235077 
L 274.459432 136.235077 
z
" style="fill:#1f77b4;"/>
   </g>
   <g id="patch_132">
    <path clip-path="url(#p0e4ea168e5)" d="M 276.078382 273.312 
L 277.697332 273.312 
L 277.697332 98.462769 
L 276.078382 98.462769 
z
" style="fill:#1f77b4;"/>
   </g>
   <g id="patch_133">
    <path clip-path="url(#p0e4ea168e5)" d="M 277.697332 273.312 
L 279.316283 273.312 
L 279.316283 111.256615 
L 277.697332 111.256615 
z
" style="fill:#1f77b4;"/>
   </g>
   <g id="patch_134">
    <path clip-path="url(#p0e4ea168e5)" d="M 279.316283 273.312 
L 280.935233 273.312 
L 280.935233 105.164308 
L 279.316283 105.164308 
z
" style="fill:#1f77b4;"/>
   </g>
   <g id="patch_135">
    <path clip-path="url(#p0e4ea168e5)" d="M 280.935233 273.312 
L 282.554183 273.312 
L 282.554183 118.567385 
L 280.935233 118.567385 
z
" style="fill:#1f77b4;"/>
   </g>
   <g id="patch_136">
    <path clip-path="url(#p0e4ea168e5)" d="M 282.554183 273.312 
L 284.173133 273.312 
L 284.173133 118.567385 
L 282.554183 118.567385 
z
" style="fill:#1f77b4;"/>
   </g>
   <g id="patch_137">
    <path clip-path="url(#p0e4ea168e5)" d="M 284.173133 273.312 
L 285.792084 273.312 
L 285.792084 127.096615 
L 284.173133 127.096615 
z
" style="fill:#1f77b4;"/>
   </g>
   <g id="patch_138">
    <path clip-path="url(#p0e4ea168e5)" d="M 285.792084 273.312 
L 287.411034 273.312 
L 287.411034 94.198154 
L 285.792084 94.198154 
z
" style="fill:#1f77b4;"/>
   </g>
   <g id="patch_139">
    <path clip-path="url(#p0e4ea168e5)" d="M 287.411034 273.312 
L 289.029984 273.312 
L 289.029984 106.992 
L 287.411034 106.992 
z
" style="fill:#1f77b4;"/>
   </g>
   <g id="patch_140">
    <path clip-path="url(#p0e4ea168e5)" d="M 289.029984 273.312 
L 290.648934 273.312 
L 290.648934 100.290462 
L 289.029984 100.290462 
z
" style="fill:#1f77b4;"/>
   </g>
   <g id="patch_141">
    <path clip-path="url(#p0e4ea168e5)" d="M 290.648934 273.312 
L 292.267885 273.312 
L 292.267885 109.428923 
L 290.648934 109.428923 
z
" style="fill:#1f77b4;"/>
   </g>
   <g id="patch_142">
    <path clip-path="url(#p0e4ea168e5)" d="M 292.267885 273.312 
L 293.886835 273.312 
L 293.886835 99.072 
L 292.267885 99.072 
z
" style="fill:#1f77b4;"/>
   </g>
   <g id="patch_143">
    <path clip-path="url(#p0e4ea168e5)" d="M 293.886835 273.312 
L 295.505785 273.312 
L 295.505785 78.358154 
L 293.886835 78.358154 
z
" style="fill:#1f77b4;"/>
   </g>
   <g id="patch_144">
    <path clip-path="url(#p0e4ea168e5)" d="M 295.505785 273.312 
L 297.124735 273.312 
L 297.124735 102.727385 
L 295.505785 102.727385 
z
" style="fill:#1f77b4;"/>
   </g>
   <g id="patch_145">
    <path clip-path="url(#p0e4ea168e5)" d="M 297.124735 273.312 
L 298.743686 273.312 
L 298.743686 128.924308 
L 297.124735 128.924308 
z
" style="fill:#1f77b4;"/>
   </g>
   <g id="patch_146">
    <path clip-path="url(#p0e4ea168e5)" d="M 298.743686 273.312 
L 300.362636 273.312 
L 300.362636 76.530462 
L 298.743686 76.530462 
z
" style="fill:#1f77b4;"/>
   </g>
   <g id="patch_147">
    <path clip-path="url(#p0e4ea168e5)" d="M 300.362636 273.312 
L 301.981586 273.312 
L 301.981586 90.542769 
L 300.362636 90.542769 
z
" style="fill:#1f77b4;"/>
   </g>
   <g id="patch_148">
    <path clip-path="url(#p0e4ea168e5)" d="M 301.981586 273.312 
L 303.600536 273.312 
L 303.600536 98.462769 
L 301.981586 98.462769 
z
" style="fill:#1f77b4;"/>
   </g>
   <g id="patch_149">
    <path clip-path="url(#p0e4ea168e5)" d="M 303.600536 273.312 
L 305.219487 273.312 
L 305.219487 100.899692 
L 303.600536 100.899692 
z
" style="fill:#1f77b4;"/>
   </g>
   <g id="patch_150">
    <path clip-path="url(#p0e4ea168e5)" d="M 305.219487 273.312 
L 306.838437 273.312 
L 306.838437 97.853538 
L 305.219487 97.853538 
z
" style="fill:#1f77b4;"/>
   </g>
   <g id="patch_151">
    <path clip-path="url(#p0e4ea168e5)" d="M 306.838437 273.312 
L 308.457387 273.312 
L 308.457387 90.542769 
L 306.838437 90.542769 
z
" style="fill:#1f77b4;"/>
   </g>
   <g id="patch_152">
    <path clip-path="url(#p0e4ea168e5)" d="M 308.457387 273.312 
L 310.076337 273.312 
L 310.076337 92.370462 
L 308.457387 92.370462 
z
" style="fill:#1f77b4;"/>
   </g>
   <g id="patch_153">
    <path clip-path="url(#p0e4ea168e5)" d="M 310.076337 273.312 
L 311.695288 273.312 
L 311.695288 83.232 
L 310.076337 83.232 
z
" style="fill:#1f77b4;"/>
   </g>
   <g id="patch_154">
    <path clip-path="url(#p0e4ea168e5)" d="M 311.695288 273.312 
L 313.314238 273.312 
L 313.314238 63.127385 
L 311.695288 63.127385 
z
" style="fill:#1f77b4;"/>
   </g>
   <g id="patch_155">
    <path clip-path="url(#p0e4ea168e5)" d="M 313.314238 273.312 
L 314.933188 273.312 
L 314.933188 105.773538 
L 313.314238 105.773538 
z
" style="fill:#1f77b4;"/>
   </g>
   <g id="patch_156">
    <path clip-path="url(#p0e4ea168e5)" d="M 314.933188 273.312 
L 316.552138 273.312 
L 316.552138 75.921231 
L 314.933188 75.921231 
z
" style="fill:#1f77b4;"/>
   </g>
   <g id="patch_157">
    <path clip-path="url(#p0e4ea168e5)" d="M 316.552138 273.312 
L 318.171089 273.312 
L 318.171089 98.462769 
L 316.552138 98.462769 
z
" style="fill:#1f77b4;"/>
   </g>
   <g id="patch_158">
    <path clip-path="url(#p0e4ea168e5)" d="M 318.171089 273.312 
L 319.790039 273.312 
L 319.790039 86.278154 
L 318.171089 86.278154 
z
" style="fill:#1f77b4;"/>
   </g>
   <g id="patch_159">
    <path clip-path="url(#p0e4ea168e5)" d="M 319.790039 273.312 
L 321.408989 273.312 
L 321.408989 75.312 
L 319.790039 75.312 
z
" style="fill:#1f77b4;"/>
   </g>
   <g id="patch_160">
    <path clip-path="url(#p0e4ea168e5)" d="M 321.408989 273.312 
L 323.027939 273.312 
L 323.027939 85.668923 
L 321.408989 85.668923 
z
" style="fill:#1f77b4;"/>
   </g>
   <g id="patch_161">
    <path clip-path="url(#p0e4ea168e5)" d="M 323.027939 273.312 
L 324.64689 273.312 
L 324.64689 92.979692 
L 323.027939 92.979692 
z
" style="fill:#1f77b4;"/>
   </g>
   <g id="patch_162">
    <path clip-path="url(#p0e4ea168e5)" d="M 324.64689 273.312 
L 326.26584 273.312 
L 326.26584 94.807385 
L 324.64689 94.807385 
z
" style="fill:#1f77b4;"/>
   </g>
   <g id="patch_163">
    <path clip-path="url(#p0e4ea168e5)" d="M 326.26584 273.312 
L 327.88479 273.312 
L 327.88479 95.416615 
L 326.26584 95.416615 
z
" style="fill:#1f77b4;"/>
   </g>
   <g id="patch_164">
    <path clip-path="url(#p0e4ea168e5)" d="M 327.88479 273.312 
L 329.50374 273.312 
L 329.50374 79.576615 
L 327.88479 79.576615 
z
" style="fill:#1f77b4;"/>
   </g>
   <g id="patch_165">
    <path clip-path="url(#p0e4ea168e5)" d="M 329.50374 273.312 
L 331.122691 273.312 
L 331.122691 60.081231 
L 329.50374 60.081231 
z
" style="fill:#1f77b4;"/>
   </g>
   <g id="patch_166">
    <path clip-path="url(#p0e4ea168e5)" d="M 331.122691 273.312 
L 332.741641 273.312 
L 332.741641 84.450462 
L 331.122691 84.450462 
z
" style="fill:#1f77b4;"/>
   </g>
   <g id="patch_167">
    <path clip-path="url(#p0e4ea168e5)" d="M 332.741641 273.312 
L 334.360591 273.312 
L 334.360591 51.552 
L 332.741641 51.552 
z
" style="fill:#1f77b4;"/>
   </g>
   <g id="patch_168">
    <path clip-path="url(#p0e4ea168e5)" d="M 334.360591 273.312 
L 335.979541 273.312 
L 335.979541 85.059692 
L 334.360591 85.059692 
z
" style="fill:#1f77b4;"/>
   </g>
   <g id="patch_169">
    <path clip-path="url(#p0e4ea168e5)" d="M 335.979541 273.312 
L 337.598491 273.312 
L 337.598491 74.093538 
L 335.979541 74.093538 
z
" style="fill:#1f77b4;"/>
   </g>
   <g id="patch_170">
    <path clip-path="url(#p0e4ea168e5)" d="M 337.598491 273.312 
L 339.217442 273.312 
L 339.217442 60.690462 
L 337.598491 60.690462 
z
" style="fill:#1f77b4;"/>
   </g>
   <g id="patch_171">
    <path clip-path="url(#p0e4ea168e5)" d="M 339.217442 273.312 
L 340.836392 273.312 
L 340.836392 76.530462 
L 339.217442 76.530462 
z
" style="fill:#1f77b4;"/>
   </g>
   <g id="patch_172">
    <path clip-path="url(#p0e4ea168e5)" d="M 340.836392 273.312 
L 342.455342 273.312 
L 342.455342 71.047385 
L 340.836392 71.047385 
z
" style="fill:#1f77b4;"/>
   </g>
   <g id="patch_173">
    <path clip-path="url(#p0e4ea168e5)" d="M 342.455342 273.312 
L 344.074292 273.312 
L 344.074292 80.795077 
L 342.455342 80.795077 
z
" style="fill:#1f77b4;"/>
   </g>
   <g id="patch_174">
    <path clip-path="url(#p0e4ea168e5)" d="M 344.074292 273.312 
L 345.693243 273.312 
L 345.693243 61.299692 
L 344.074292 61.299692 
z
" style="fill:#1f77b4;"/>
   </g>
   <g id="patch_175">
    <path clip-path="url(#p0e4ea168e5)" d="M 345.693243 273.312 
L 347.312193 273.312 
L 347.312193 47.896615 
L 345.693243 47.896615 
z
" style="fill:#1f77b4;"/>
   </g>
   <g id="patch_176">
    <path clip-path="url(#p0e4ea168e5)" d="M 347.312193 273.312 
L 348.931143 273.312 
L 348.931143 81.404308 
L 347.312193 81.404308 
z
" style="fill:#1f77b4;"/>
   </g>
   <g id="patch_177">
    <path clip-path="url(#p0e4ea168e5)" d="M 348.931143 273.312 
L 350.550093 273.312 
L 350.550093 50.942769 
L 348.931143 50.942769 
z
" style="fill:#1f77b4;"/>
   </g>
   <g id="patch_178">
    <path clip-path="url(#p0e4ea168e5)" d="M 350.550093 273.312 
L 352.169044 273.312 
L 352.169044 76.530462 
L 350.550093 76.530462 
z
" style="fill:#1f77b4;"/>
   </g>
   <g id="patch_179">
    <path clip-path="url(#p0e4ea168e5)" d="M 352.169044 273.312 
L 353.787994 273.312 
L 353.787994 52.161231 
L 352.169044 52.161231 
z
" style="fill:#1f77b4;"/>
   </g>
   <g id="patch_180">
    <path clip-path="url(#p0e4ea168e5)" d="M 353.787994 273.312 
L 355.406944 273.312 
L 355.406944 69.828923 
L 353.787994 69.828923 
z
" style="fill:#1f77b4;"/>
   </g>
   <g id="patch_181">
    <path clip-path="url(#p0e4ea168e5)" d="M 355.406944 273.312 
L 357.025894 273.312 
L 357.025894 64.345846 
L 355.406944 64.345846 
z
" style="fill:#1f77b4;"/>
   </g>
   <g id="patch_182">
    <path clip-path="url(#p0e4ea168e5)" d="M 357.025894 273.312 
L 358.644845 273.312 
L 358.644845 38.758154 
L 357.025894 38.758154 
z
" style="fill:#1f77b4;"/>
   </g>
   <g id="patch_183">
    <path clip-path="url(#p0e4ea168e5)" d="M 358.644845 273.312 
L 360.263795 273.312 
L 360.263795 63.127385 
L 358.644845 63.127385 
z
" style="fill:#1f77b4;"/>
   </g>
   <g id="patch_184">
    <path clip-path="url(#p0e4ea168e5)" d="M 360.263795 273.312 
L 361.882745 273.312 
L 361.882745 49.724308 
L 360.263795 49.724308 
z
" style="fill:#1f77b4;"/>
   </g>
   <g id="patch_185">
    <path clip-path="url(#p0e4ea168e5)" d="M 361.882745 273.312 
L 363.501695 273.312 
L 363.501695 55.207385 
L 361.882745 55.207385 
z
" style="fill:#1f77b4;"/>
   </g>
   <g id="patch_186">
    <path clip-path="url(#p0e4ea168e5)" d="M 363.501695 273.312 
L 365.120646 273.312 
L 365.120646 29.010462 
L 363.501695 29.010462 
z
" style="fill:#1f77b4;"/>
   </g>
   <g id="patch_187">
    <path clip-path="url(#p0e4ea168e5)" d="M 365.120646 273.312 
L 366.739596 273.312 
L 366.739596 58.253538 
L 365.120646 58.253538 
z
" style="fill:#1f77b4;"/>
   </g>
   <g id="patch_188">
    <path clip-path="url(#p0e4ea168e5)" d="M 366.739596 273.312 
L 368.358546 273.312 
L 368.358546 38.758154 
L 366.739596 38.758154 
z
" style="fill:#1f77b4;"/>
   </g>
   <g id="patch_189">
    <path clip-path="url(#p0e4ea168e5)" d="M 368.358546 273.312 
L 369.977496 273.312 
L 369.977496 51.552 
L 368.358546 51.552 
z
" style="fill:#1f77b4;"/>
   </g>
   <g id="patch_190">
    <path clip-path="url(#p0e4ea168e5)" d="M 369.977496 273.312 
L 371.596447 273.312 
L 371.596447 45.459692 
L 369.977496 45.459692 
z
" style="fill:#1f77b4;"/>
   </g>
   <g id="patch_191">
    <path clip-path="url(#p0e4ea168e5)" d="M 371.596447 273.312 
L 373.215397 273.312 
L 373.215397 44.241231 
L 371.596447 44.241231 
z
" style="fill:#1f77b4;"/>
   </g>
   <g id="patch_192">
    <path clip-path="url(#p0e4ea168e5)" d="M 373.215397 273.312 
L 374.834347 273.312 
L 374.834347 44.850462 
L 373.215397 44.850462 
z
" style="fill:#1f77b4;"/>
   </g>
   <g id="patch_193">
    <path clip-path="url(#p0e4ea168e5)" d="M 374.834347 273.312 
L 376.453297 273.312 
L 376.453297 27.182769 
L 374.834347 27.182769 
z
" style="fill:#1f77b4;"/>
   </g>
   <g id="patch_194">
    <path clip-path="url(#p0e4ea168e5)" d="M 376.453297 273.312 
L 378.072248 273.312 
L 378.072248 33.884308 
L 376.453297 33.884308 
z
" style="fill:#1f77b4;"/>
   </g>
   <g id="patch_195">
    <path clip-path="url(#p0e4ea168e5)" d="M 378.072248 273.312 
L 379.691198 273.312 
L 379.691198 34.493538 
L 378.072248 34.493538 
z
" style="fill:#1f77b4;"/>
   </g>
   <g id="patch_196">
    <path clip-path="url(#p0e4ea168e5)" d="M 379.691198 273.312 
L 381.310148 273.312 
L 381.310148 50.942769 
L 379.691198 50.942769 
z
" style="fill:#1f77b4;"/>
   </g>
   <g id="patch_197">
    <path clip-path="url(#p0e4ea168e5)" d="M 381.310148 273.312 
L 382.929098 273.312 
L 382.929098 41.804308 
L 381.310148 41.804308 
z
" style="fill:#1f77b4;"/>
   </g>
   <g id="patch_198">
    <path clip-path="url(#p0e4ea168e5)" d="M 382.929098 273.312 
L 384.548049 273.312 
L 384.548049 43.022769 
L 382.929098 43.022769 
z
" style="fill:#1f77b4;"/>
   </g>
   <g id="patch_199">
    <path clip-path="url(#p0e4ea168e5)" d="M 384.548049 273.312 
L 386.166999 273.312 
L 386.166999 29.010462 
L 384.548049 29.010462 
z
" style="fill:#1f77b4;"/>
   </g>
   <g id="patch_200">
    <path clip-path="url(#p0e4ea168e5)" d="M 386.166999 273.312 
L 387.785949 273.312 
L 387.785949 41.804308 
L 386.166999 41.804308 
z
" style="fill:#1f77b4;"/>
   </g>
   <g id="patch_201">
    <path clip-path="url(#p0e4ea168e5)" d="M 387.785949 273.312 
L 389.404899 273.312 
L 389.404899 33.884308 
L 387.785949 33.884308 
z
" style="fill:#1f77b4;"/>
   </g>
   <g id="patch_202">
    <path clip-path="url(#p0e4ea168e5)" d="M 389.404899 273.312 
L 391.02385 273.312 
L 391.02385 19.872 
L 389.404899 19.872 
z
" style="fill:#1f77b4;"/>
   </g>
   <g id="matplotlib.axis_1">
    <g id="xtick_1">
     <g id="line2d_1">
      <defs>
       <path d="M 0 0 
L 0 3.5 
" id="mbe428c0641" style="stroke:#000000;stroke-width:0.8;"/>
      </defs>
      <g>
       <use style="stroke:#000000;stroke-width:0.8;" x="66.376477" xlink:href="#mbe428c0641" y="273.312"/>
      </g>
     </g>
     <g id="text_1">
      <!-- 0.0 -->
      <g transform="translate(58.424915 287.910437)scale(0.1 -0.1)">
       <defs>
        <path d="M 2034 4250 
Q 1547 4250 1301 3770 
Q 1056 3291 1056 2328 
Q 1056 1369 1301 889 
Q 1547 409 2034 409 
Q 2525 409 2770 889 
Q 3016 1369 3016 2328 
Q 3016 3291 2770 3770 
Q 2525 4250 2034 4250 
z
M 2034 4750 
Q 2819 4750 3233 4129 
Q 3647 3509 3647 2328 
Q 3647 1150 3233 529 
Q 2819 -91 2034 -91 
Q 1250 -91 836 529 
Q 422 1150 422 2328 
Q 422 3509 836 4129 
Q 1250 4750 2034 4750 
z
" id="DejaVuSans-30" transform="scale(0.015625)"/>
        <path d="M 684 794 
L 1344 794 
L 1344 0 
L 684 0 
L 684 794 
z
" id="DejaVuSans-2e" transform="scale(0.015625)"/>
       </defs>
       <use xlink:href="#DejaVuSans-30"/>
       <use x="63.623047" xlink:href="#DejaVuSans-2e"/>
       <use x="95.410156" xlink:href="#DejaVuSans-30"/>
      </g>
     </g>
    </g>
    <g id="xtick_2">
     <g id="line2d_2">
      <g>
       <use style="stroke:#000000;stroke-width:0.8;" x="131.307386" xlink:href="#mbe428c0641" y="273.312"/>
      </g>
     </g>
     <g id="text_2">
      <!-- 0.2 -->
      <g transform="translate(123.355824 287.910437)scale(0.1 -0.1)">
       <defs>
        <path d="M 1228 531 
L 3431 531 
L 3431 0 
L 469 0 
L 469 531 
Q 828 903 1448 1529 
Q 2069 2156 2228 2338 
Q 2531 2678 2651 2914 
Q 2772 3150 2772 3378 
Q 2772 3750 2511 3984 
Q 2250 4219 1831 4219 
Q 1534 4219 1204 4116 
Q 875 4013 500 3803 
L 500 4441 
Q 881 4594 1212 4672 
Q 1544 4750 1819 4750 
Q 2544 4750 2975 4387 
Q 3406 4025 3406 3419 
Q 3406 3131 3298 2873 
Q 3191 2616 2906 2266 
Q 2828 2175 2409 1742 
Q 1991 1309 1228 531 
z
" id="DejaVuSans-32" transform="scale(0.015625)"/>
       </defs>
       <use xlink:href="#DejaVuSans-30"/>
       <use x="63.623047" xlink:href="#DejaVuSans-2e"/>
       <use x="95.410156" xlink:href="#DejaVuSans-32"/>
      </g>
     </g>
    </g>
    <g id="xtick_3">
     <g id="line2d_3">
      <g>
       <use style="stroke:#000000;stroke-width:0.8;" x="196.238295" xlink:href="#mbe428c0641" y="273.312"/>
      </g>
     </g>
     <g id="text_3">
      <!-- 0.4 -->
      <g transform="translate(188.286733 287.910437)scale(0.1 -0.1)">
       <defs>
        <path d="M 2419 4116 
L 825 1625 
L 2419 1625 
L 2419 4116 
z
M 2253 4666 
L 3047 4666 
L 3047 1625 
L 3713 1625 
L 3713 1100 
L 3047 1100 
L 3047 0 
L 2419 0 
L 2419 1100 
L 313 1100 
L 313 1709 
L 2253 4666 
z
" id="DejaVuSans-34" transform="scale(0.015625)"/>
       </defs>
       <use xlink:href="#DejaVuSans-30"/>
       <use x="63.623047" xlink:href="#DejaVuSans-2e"/>
       <use x="95.410156" xlink:href="#DejaVuSans-34"/>
      </g>
     </g>
    </g>
    <g id="xtick_4">
     <g id="line2d_4">
      <g>
       <use style="stroke:#000000;stroke-width:0.8;" x="261.169205" xlink:href="#mbe428c0641" y="273.312"/>
      </g>
     </g>
     <g id="text_4">
      <!-- 0.6 -->
      <g transform="translate(253.217642 287.910437)scale(0.1 -0.1)">
       <defs>
        <path d="M 2113 2584 
Q 1688 2584 1439 2293 
Q 1191 2003 1191 1497 
Q 1191 994 1439 701 
Q 1688 409 2113 409 
Q 2538 409 2786 701 
Q 3034 994 3034 1497 
Q 3034 2003 2786 2293 
Q 2538 2584 2113 2584 
z
M 3366 4563 
L 3366 3988 
Q 3128 4100 2886 4159 
Q 2644 4219 2406 4219 
Q 1781 4219 1451 3797 
Q 1122 3375 1075 2522 
Q 1259 2794 1537 2939 
Q 1816 3084 2150 3084 
Q 2853 3084 3261 2657 
Q 3669 2231 3669 1497 
Q 3669 778 3244 343 
Q 2819 -91 2113 -91 
Q 1303 -91 875 529 
Q 447 1150 447 2328 
Q 447 3434 972 4092 
Q 1497 4750 2381 4750 
Q 2619 4750 2861 4703 
Q 3103 4656 3366 4563 
z
" id="DejaVuSans-36" transform="scale(0.015625)"/>
       </defs>
       <use xlink:href="#DejaVuSans-30"/>
       <use x="63.623047" xlink:href="#DejaVuSans-2e"/>
       <use x="95.410156" xlink:href="#DejaVuSans-36"/>
      </g>
     </g>
    </g>
    <g id="xtick_5">
     <g id="line2d_5">
      <g>
       <use style="stroke:#000000;stroke-width:0.8;" x="326.100114" xlink:href="#mbe428c0641" y="273.312"/>
      </g>
     </g>
     <g id="text_5">
      <!-- 0.8 -->
      <g transform="translate(318.148551 287.910437)scale(0.1 -0.1)">
       <defs>
        <path d="M 2034 2216 
Q 1584 2216 1326 1975 
Q 1069 1734 1069 1313 
Q 1069 891 1326 650 
Q 1584 409 2034 409 
Q 2484 409 2743 651 
Q 3003 894 3003 1313 
Q 3003 1734 2745 1975 
Q 2488 2216 2034 2216 
z
M 1403 2484 
Q 997 2584 770 2862 
Q 544 3141 544 3541 
Q 544 4100 942 4425 
Q 1341 4750 2034 4750 
Q 2731 4750 3128 4425 
Q 3525 4100 3525 3541 
Q 3525 3141 3298 2862 
Q 3072 2584 2669 2484 
Q 3125 2378 3379 2068 
Q 3634 1759 3634 1313 
Q 3634 634 3220 271 
Q 2806 -91 2034 -91 
Q 1263 -91 848 271 
Q 434 634 434 1313 
Q 434 1759 690 2068 
Q 947 2378 1403 2484 
z
M 1172 3481 
Q 1172 3119 1398 2916 
Q 1625 2713 2034 2713 
Q 2441 2713 2670 2916 
Q 2900 3119 2900 3481 
Q 2900 3844 2670 4047 
Q 2441 4250 2034 4250 
Q 1625 4250 1398 4047 
Q 1172 3844 1172 3481 
z
" id="DejaVuSans-38" transform="scale(0.015625)"/>
       </defs>
       <use xlink:href="#DejaVuSans-30"/>
       <use x="63.623047" xlink:href="#DejaVuSans-2e"/>
       <use x="95.410156" xlink:href="#DejaVuSans-38"/>
      </g>
     </g>
    </g>
    <g id="xtick_6">
     <g id="line2d_6">
      <g>
       <use style="stroke:#000000;stroke-width:0.8;" x="391.031023" xlink:href="#mbe428c0641" y="273.312"/>
      </g>
     </g>
     <g id="text_6">
      <!-- 1.0 -->
      <g transform="translate(383.07946 287.910437)scale(0.1 -0.1)">
       <defs>
        <path d="M 794 531 
L 1825 531 
L 1825 4091 
L 703 3866 
L 703 4441 
L 1819 4666 
L 2450 4666 
L 2450 531 
L 3481 531 
L 3481 0 
L 794 0 
L 794 531 
z
" id="DejaVuSans-31" transform="scale(0.015625)"/>
       </defs>
       <use xlink:href="#DejaVuSans-31"/>
       <use x="63.623047" xlink:href="#DejaVuSans-2e"/>
       <use x="95.410156" xlink:href="#DejaVuSans-30"/>
      </g>
     </g>
    </g>
    <g id="text_7">
     <!-- Propagation direction -->
     <g transform="translate(175.221719 301.588562)scale(0.1 -0.1)">
      <defs>
       <path d="M 1259 4147 
L 1259 2394 
L 2053 2394 
Q 2494 2394 2734 2622 
Q 2975 2850 2975 3272 
Q 2975 3691 2734 3919 
Q 2494 4147 2053 4147 
L 1259 4147 
z
M 628 4666 
L 2053 4666 
Q 2838 4666 3239 4311 
Q 3641 3956 3641 3272 
Q 3641 2581 3239 2228 
Q 2838 1875 2053 1875 
L 1259 1875 
L 1259 0 
L 628 0 
L 628 4666 
z
" id="DejaVuSans-50" transform="scale(0.015625)"/>
       <path d="M 2631 2963 
Q 2534 3019 2420 3045 
Q 2306 3072 2169 3072 
Q 1681 3072 1420 2755 
Q 1159 2438 1159 1844 
L 1159 0 
L 581 0 
L 581 3500 
L 1159 3500 
L 1159 2956 
Q 1341 3275 1631 3429 
Q 1922 3584 2338 3584 
Q 2397 3584 2469 3576 
Q 2541 3569 2628 3553 
L 2631 2963 
z
" id="DejaVuSans-72" transform="scale(0.015625)"/>
       <path d="M 1959 3097 
Q 1497 3097 1228 2736 
Q 959 2375 959 1747 
Q 959 1119 1226 758 
Q 1494 397 1959 397 
Q 2419 397 2687 759 
Q 2956 1122 2956 1747 
Q 2956 2369 2687 2733 
Q 2419 3097 1959 3097 
z
M 1959 3584 
Q 2709 3584 3137 3096 
Q 3566 2609 3566 1747 
Q 3566 888 3137 398 
Q 2709 -91 1959 -91 
Q 1206 -91 779 398 
Q 353 888 353 1747 
Q 353 2609 779 3096 
Q 1206 3584 1959 3584 
z
" id="DejaVuSans-6f" transform="scale(0.015625)"/>
       <path d="M 1159 525 
L 1159 -1331 
L 581 -1331 
L 581 3500 
L 1159 3500 
L 1159 2969 
Q 1341 3281 1617 3432 
Q 1894 3584 2278 3584 
Q 2916 3584 3314 3078 
Q 3713 2572 3713 1747 
Q 3713 922 3314 415 
Q 2916 -91 2278 -91 
Q 1894 -91 1617 61 
Q 1341 213 1159 525 
z
M 3116 1747 
Q 3116 2381 2855 2742 
Q 2594 3103 2138 3103 
Q 1681 3103 1420 2742 
Q 1159 2381 1159 1747 
Q 1159 1113 1420 752 
Q 1681 391 2138 391 
Q 2594 391 2855 752 
Q 3116 1113 3116 1747 
z
" id="DejaVuSans-70" transform="scale(0.015625)"/>
       <path d="M 2194 1759 
Q 1497 1759 1228 1600 
Q 959 1441 959 1056 
Q 959 750 1161 570 
Q 1363 391 1709 391 
Q 2188 391 2477 730 
Q 2766 1069 2766 1631 
L 2766 1759 
L 2194 1759 
z
M 3341 1997 
L 3341 0 
L 2766 0 
L 2766 531 
Q 2569 213 2275 61 
Q 1981 -91 1556 -91 
Q 1019 -91 701 211 
Q 384 513 384 1019 
Q 384 1609 779 1909 
Q 1175 2209 1959 2209 
L 2766 2209 
L 2766 2266 
Q 2766 2663 2505 2880 
Q 2244 3097 1772 3097 
Q 1472 3097 1187 3025 
Q 903 2953 641 2809 
L 641 3341 
Q 956 3463 1253 3523 
Q 1550 3584 1831 3584 
Q 2591 3584 2966 3190 
Q 3341 2797 3341 1997 
z
" id="DejaVuSans-61" transform="scale(0.015625)"/>
       <path d="M 2906 1791 
Q 2906 2416 2648 2759 
Q 2391 3103 1925 3103 
Q 1463 3103 1205 2759 
Q 947 2416 947 1791 
Q 947 1169 1205 825 
Q 1463 481 1925 481 
Q 2391 481 2648 825 
Q 2906 1169 2906 1791 
z
M 3481 434 
Q 3481 -459 3084 -895 
Q 2688 -1331 1869 -1331 
Q 1566 -1331 1297 -1286 
Q 1028 -1241 775 -1147 
L 775 -588 
Q 1028 -725 1275 -790 
Q 1522 -856 1778 -856 
Q 2344 -856 2625 -561 
Q 2906 -266 2906 331 
L 2906 616 
Q 2728 306 2450 153 
Q 2172 0 1784 0 
Q 1141 0 747 490 
Q 353 981 353 1791 
Q 353 2603 747 3093 
Q 1141 3584 1784 3584 
Q 2172 3584 2450 3431 
Q 2728 3278 2906 2969 
L 2906 3500 
L 3481 3500 
L 3481 434 
z
" id="DejaVuSans-67" transform="scale(0.015625)"/>
       <path d="M 1172 4494 
L 1172 3500 
L 2356 3500 
L 2356 3053 
L 1172 3053 
L 1172 1153 
Q 1172 725 1289 603 
Q 1406 481 1766 481 
L 2356 481 
L 2356 0 
L 1766 0 
Q 1100 0 847 248 
Q 594 497 594 1153 
L 594 3053 
L 172 3053 
L 172 3500 
L 594 3500 
L 594 4494 
L 1172 4494 
z
" id="DejaVuSans-74" transform="scale(0.015625)"/>
       <path d="M 603 3500 
L 1178 3500 
L 1178 0 
L 603 0 
L 603 3500 
z
M 603 4863 
L 1178 4863 
L 1178 4134 
L 603 4134 
L 603 4863 
z
" id="DejaVuSans-69" transform="scale(0.015625)"/>
       <path d="M 3513 2113 
L 3513 0 
L 2938 0 
L 2938 2094 
Q 2938 2591 2744 2837 
Q 2550 3084 2163 3084 
Q 1697 3084 1428 2787 
Q 1159 2491 1159 1978 
L 1159 0 
L 581 0 
L 581 3500 
L 1159 3500 
L 1159 2956 
Q 1366 3272 1645 3428 
Q 1925 3584 2291 3584 
Q 2894 3584 3203 3211 
Q 3513 2838 3513 2113 
z
" id="DejaVuSans-6e" transform="scale(0.015625)"/>
       <path id="DejaVuSans-20" transform="scale(0.015625)"/>
       <path d="M 2906 2969 
L 2906 4863 
L 3481 4863 
L 3481 0 
L 2906 0 
L 2906 525 
Q 2725 213 2448 61 
Q 2172 -91 1784 -91 
Q 1150 -91 751 415 
Q 353 922 353 1747 
Q 353 2572 751 3078 
Q 1150 3584 1784 3584 
Q 2172 3584 2448 3432 
Q 2725 3281 2906 2969 
z
M 947 1747 
Q 947 1113 1208 752 
Q 1469 391 1925 391 
Q 2381 391 2643 752 
Q 2906 1113 2906 1747 
Q 2906 2381 2643 2742 
Q 2381 3103 1925 3103 
Q 1469 3103 1208 2742 
Q 947 2381 947 1747 
z
" id="DejaVuSans-64" transform="scale(0.015625)"/>
       <path d="M 3597 1894 
L 3597 1613 
L 953 1613 
Q 991 1019 1311 708 
Q 1631 397 2203 397 
Q 2534 397 2845 478 
Q 3156 559 3463 722 
L 3463 178 
Q 3153 47 2828 -22 
Q 2503 -91 2169 -91 
Q 1331 -91 842 396 
Q 353 884 353 1716 
Q 353 2575 817 3079 
Q 1281 3584 2069 3584 
Q 2775 3584 3186 3129 
Q 3597 2675 3597 1894 
z
M 3022 2063 
Q 3016 2534 2758 2815 
Q 2500 3097 2075 3097 
Q 1594 3097 1305 2825 
Q 1016 2553 972 2059 
L 3022 2063 
z
" id="DejaVuSans-65" transform="scale(0.015625)"/>
       <path d="M 3122 3366 
L 3122 2828 
Q 2878 2963 2633 3030 
Q 2388 3097 2138 3097 
Q 1578 3097 1268 2742 
Q 959 2388 959 1747 
Q 959 1106 1268 751 
Q 1578 397 2138 397 
Q 2388 397 2633 464 
Q 2878 531 3122 666 
L 3122 134 
Q 2881 22 2623 -34 
Q 2366 -91 2075 -91 
Q 1284 -91 818 406 
Q 353 903 353 1747 
Q 353 2603 823 3093 
Q 1294 3584 2113 3584 
Q 2378 3584 2631 3529 
Q 2884 3475 3122 3366 
z
" id="DejaVuSans-63" transform="scale(0.015625)"/>
      </defs>
      <use xlink:href="#DejaVuSans-50"/>
      <use x="58.552734" xlink:href="#DejaVuSans-72"/>
      <use x="97.416016" xlink:href="#DejaVuSans-6f"/>
      <use x="158.597656" xlink:href="#DejaVuSans-70"/>
      <use x="222.074219" xlink:href="#DejaVuSans-61"/>
      <use x="283.353516" xlink:href="#DejaVuSans-67"/>
      <use x="346.830078" xlink:href="#DejaVuSans-61"/>
      <use x="408.109375" xlink:href="#DejaVuSans-74"/>
      <use x="447.318359" xlink:href="#DejaVuSans-69"/>
      <use x="475.101562" xlink:href="#DejaVuSans-6f"/>
      <use x="536.283203" xlink:href="#DejaVuSans-6e"/>
      <use x="599.662109" xlink:href="#DejaVuSans-20"/>
      <use x="631.449219" xlink:href="#DejaVuSans-64"/>
      <use x="694.925781" xlink:href="#DejaVuSans-69"/>
      <use x="722.708984" xlink:href="#DejaVuSans-72"/>
      <use x="761.572266" xlink:href="#DejaVuSans-65"/>
      <use x="823.095703" xlink:href="#DejaVuSans-63"/>
      <use x="878.076172" xlink:href="#DejaVuSans-74"/>
      <use x="917.285156" xlink:href="#DejaVuSans-69"/>
      <use x="945.068359" xlink:href="#DejaVuSans-6f"/>
      <use x="1006.25" xlink:href="#DejaVuSans-6e"/>
     </g>
    </g>
   </g>
   <g id="matplotlib.axis_2">
    <g id="ytick_1">
     <g id="line2d_7">
      <defs>
       <path d="M 0 0 
L -3.5 0 
" id="m1289527deb" style="stroke:#000000;stroke-width:0.8;"/>
      </defs>
      <g>
       <use style="stroke:#000000;stroke-width:0.8;" x="50.14375" xlink:href="#m1289527deb" y="273.312"/>
      </g>
     </g>
     <g id="text_8">
      <!-- 0.00 -->
      <g transform="translate(20.878125 277.111219)scale(0.1 -0.1)">
       <use xlink:href="#DejaVuSans-30"/>
       <use x="63.623047" xlink:href="#DejaVuSans-2e"/>
       <use x="95.410156" xlink:href="#DejaVuSans-30"/>
       <use x="159.033203" xlink:href="#DejaVuSans-30"/>
      </g>
     </g>
    </g>
    <g id="ytick_2">
     <g id="line2d_8">
      <g>
       <use style="stroke:#000000;stroke-width:0.8;" x="50.14375" xlink:href="#m1289527deb" y="242.931575"/>
      </g>
     </g>
     <g id="text_9">
      <!-- 0.25 -->
      <g transform="translate(20.878125 246.730794)scale(0.1 -0.1)">
       <defs>
        <path d="M 691 4666 
L 3169 4666 
L 3169 4134 
L 1269 4134 
L 1269 2991 
Q 1406 3038 1543 3061 
Q 1681 3084 1819 3084 
Q 2600 3084 3056 2656 
Q 3513 2228 3513 1497 
Q 3513 744 3044 326 
Q 2575 -91 1722 -91 
Q 1428 -91 1123 -41 
Q 819 9 494 109 
L 494 744 
Q 775 591 1075 516 
Q 1375 441 1709 441 
Q 2250 441 2565 725 
Q 2881 1009 2881 1497 
Q 2881 1984 2565 2268 
Q 2250 2553 1709 2553 
Q 1456 2553 1204 2497 
Q 953 2441 691 2322 
L 691 4666 
z
" id="DejaVuSans-35" transform="scale(0.015625)"/>
       </defs>
       <use xlink:href="#DejaVuSans-30"/>
       <use x="63.623047" xlink:href="#DejaVuSans-2e"/>
       <use x="95.410156" xlink:href="#DejaVuSans-32"/>
       <use x="159.033203" xlink:href="#DejaVuSans-35"/>
      </g>
     </g>
    </g>
    <g id="ytick_3">
     <g id="line2d_9">
      <g>
       <use style="stroke:#000000;stroke-width:0.8;" x="50.14375" xlink:href="#m1289527deb" y="212.55115"/>
      </g>
     </g>
     <g id="text_10">
      <!-- 0.50 -->
      <g transform="translate(20.878125 216.350369)scale(0.1 -0.1)">
       <use xlink:href="#DejaVuSans-30"/>
       <use x="63.623047" xlink:href="#DejaVuSans-2e"/>
       <use x="95.410156" xlink:href="#DejaVuSans-35"/>
       <use x="159.033203" xlink:href="#DejaVuSans-30"/>
      </g>
     </g>
    </g>
    <g id="ytick_4">
     <g id="line2d_10">
      <g>
       <use style="stroke:#000000;stroke-width:0.8;" x="50.14375" xlink:href="#m1289527deb" y="182.170725"/>
      </g>
     </g>
     <g id="text_11">
      <!-- 0.75 -->
      <g transform="translate(20.878125 185.969944)scale(0.1 -0.1)">
       <defs>
        <path d="M 525 4666 
L 3525 4666 
L 3525 4397 
L 1831 0 
L 1172 0 
L 2766 4134 
L 525 4134 
L 525 4666 
z
" id="DejaVuSans-37" transform="scale(0.015625)"/>
       </defs>
       <use xlink:href="#DejaVuSans-30"/>
       <use x="63.623047" xlink:href="#DejaVuSans-2e"/>
       <use x="95.410156" xlink:href="#DejaVuSans-37"/>
       <use x="159.033203" xlink:href="#DejaVuSans-35"/>
      </g>
     </g>
    </g>
    <g id="ytick_5">
     <g id="line2d_11">
      <g>
       <use style="stroke:#000000;stroke-width:0.8;" x="50.14375" xlink:href="#m1289527deb" y="151.7903"/>
      </g>
     </g>
     <g id="text_12">
      <!-- 1.00 -->
      <g transform="translate(20.878125 155.589519)scale(0.1 -0.1)">
       <use xlink:href="#DejaVuSans-31"/>
       <use x="63.623047" xlink:href="#DejaVuSans-2e"/>
       <use x="95.410156" xlink:href="#DejaVuSans-30"/>
       <use x="159.033203" xlink:href="#DejaVuSans-30"/>
      </g>
     </g>
    </g>
    <g id="ytick_6">
     <g id="line2d_12">
      <g>
       <use style="stroke:#000000;stroke-width:0.8;" x="50.14375" xlink:href="#m1289527deb" y="121.409875"/>
      </g>
     </g>
     <g id="text_13">
      <!-- 1.25 -->
      <g transform="translate(20.878125 125.209094)scale(0.1 -0.1)">
       <use xlink:href="#DejaVuSans-31"/>
       <use x="63.623047" xlink:href="#DejaVuSans-2e"/>
       <use x="95.410156" xlink:href="#DejaVuSans-32"/>
       <use x="159.033203" xlink:href="#DejaVuSans-35"/>
      </g>
     </g>
    </g>
    <g id="ytick_7">
     <g id="line2d_13">
      <g>
       <use style="stroke:#000000;stroke-width:0.8;" x="50.14375" xlink:href="#m1289527deb" y="91.02945"/>
      </g>
     </g>
     <g id="text_14">
      <!-- 1.50 -->
      <g transform="translate(20.878125 94.828669)scale(0.1 -0.1)">
       <use xlink:href="#DejaVuSans-31"/>
       <use x="63.623047" xlink:href="#DejaVuSans-2e"/>
       <use x="95.410156" xlink:href="#DejaVuSans-35"/>
       <use x="159.033203" xlink:href="#DejaVuSans-30"/>
      </g>
     </g>
    </g>
    <g id="ytick_8">
     <g id="line2d_14">
      <g>
       <use style="stroke:#000000;stroke-width:0.8;" x="50.14375" xlink:href="#m1289527deb" y="60.649026"/>
      </g>
     </g>
     <g id="text_15">
      <!-- 1.75 -->
      <g transform="translate(20.878125 64.448244)scale(0.1 -0.1)">
       <use xlink:href="#DejaVuSans-31"/>
       <use x="63.623047" xlink:href="#DejaVuSans-2e"/>
       <use x="95.410156" xlink:href="#DejaVuSans-37"/>
       <use x="159.033203" xlink:href="#DejaVuSans-35"/>
      </g>
     </g>
    </g>
    <g id="ytick_9">
     <g id="line2d_15">
      <g>
       <use style="stroke:#000000;stroke-width:0.8;" x="50.14375" xlink:href="#m1289527deb" y="30.268601"/>
      </g>
     </g>
     <g id="text_16">
      <!-- 2.00 -->
      <g transform="translate(20.878125 34.067819)scale(0.1 -0.1)">
       <use xlink:href="#DejaVuSans-32"/>
       <use x="63.623047" xlink:href="#DejaVuSans-2e"/>
       <use x="95.410156" xlink:href="#DejaVuSans-30"/>
       <use x="159.033203" xlink:href="#DejaVuSans-30"/>
      </g>
     </g>
    </g>
    <g id="text_17">
     <!-- Probability density -->
     <g transform="translate(14.798438 186.606781)rotate(-90)scale(0.1 -0.1)">
      <defs>
       <path d="M 3116 1747 
Q 3116 2381 2855 2742 
Q 2594 3103 2138 3103 
Q 1681 3103 1420 2742 
Q 1159 2381 1159 1747 
Q 1159 1113 1420 752 
Q 1681 391 2138 391 
Q 2594 391 2855 752 
Q 3116 1113 3116 1747 
z
M 1159 2969 
Q 1341 3281 1617 3432 
Q 1894 3584 2278 3584 
Q 2916 3584 3314 3078 
Q 3713 2572 3713 1747 
Q 3713 922 3314 415 
Q 2916 -91 2278 -91 
Q 1894 -91 1617 61 
Q 1341 213 1159 525 
L 1159 0 
L 581 0 
L 581 4863 
L 1159 4863 
L 1159 2969 
z
" id="DejaVuSans-62" transform="scale(0.015625)"/>
       <path d="M 603 4863 
L 1178 4863 
L 1178 0 
L 603 0 
L 603 4863 
z
" id="DejaVuSans-6c" transform="scale(0.015625)"/>
       <path d="M 2059 -325 
Q 1816 -950 1584 -1140 
Q 1353 -1331 966 -1331 
L 506 -1331 
L 506 -850 
L 844 -850 
Q 1081 -850 1212 -737 
Q 1344 -625 1503 -206 
L 1606 56 
L 191 3500 
L 800 3500 
L 1894 763 
L 2988 3500 
L 3597 3500 
L 2059 -325 
z
" id="DejaVuSans-79" transform="scale(0.015625)"/>
       <path d="M 2834 3397 
L 2834 2853 
Q 2591 2978 2328 3040 
Q 2066 3103 1784 3103 
Q 1356 3103 1142 2972 
Q 928 2841 928 2578 
Q 928 2378 1081 2264 
Q 1234 2150 1697 2047 
L 1894 2003 
Q 2506 1872 2764 1633 
Q 3022 1394 3022 966 
Q 3022 478 2636 193 
Q 2250 -91 1575 -91 
Q 1294 -91 989 -36 
Q 684 19 347 128 
L 347 722 
Q 666 556 975 473 
Q 1284 391 1588 391 
Q 1994 391 2212 530 
Q 2431 669 2431 922 
Q 2431 1156 2273 1281 
Q 2116 1406 1581 1522 
L 1381 1569 
Q 847 1681 609 1914 
Q 372 2147 372 2553 
Q 372 3047 722 3315 
Q 1072 3584 1716 3584 
Q 2034 3584 2315 3537 
Q 2597 3491 2834 3397 
z
" id="DejaVuSans-73" transform="scale(0.015625)"/>
      </defs>
      <use xlink:href="#DejaVuSans-50"/>
      <use x="58.552734" xlink:href="#DejaVuSans-72"/>
      <use x="97.416016" xlink:href="#DejaVuSans-6f"/>
      <use x="158.597656" xlink:href="#DejaVuSans-62"/>
      <use x="222.074219" xlink:href="#DejaVuSans-61"/>
      <use x="283.353516" xlink:href="#DejaVuSans-62"/>
      <use x="346.830078" xlink:href="#DejaVuSans-69"/>
      <use x="374.613281" xlink:href="#DejaVuSans-6c"/>
      <use x="402.396484" xlink:href="#DejaVuSans-69"/>
      <use x="430.179688" xlink:href="#DejaVuSans-74"/>
      <use x="469.388672" xlink:href="#DejaVuSans-79"/>
      <use x="528.568359" xlink:href="#DejaVuSans-20"/>
      <use x="560.355469" xlink:href="#DejaVuSans-64"/>
      <use x="623.832031" xlink:href="#DejaVuSans-65"/>
      <use x="685.355469" xlink:href="#DejaVuSans-6e"/>
      <use x="748.734375" xlink:href="#DejaVuSans-73"/>
      <use x="800.833984" xlink:href="#DejaVuSans-69"/>
      <use x="828.617188" xlink:href="#DejaVuSans-74"/>
      <use x="867.826172" xlink:href="#DejaVuSans-79"/>
     </g>
    </g>
   </g>
   <g id="line2d_16">
    <path clip-path="url(#p0e4ea168e5)" d="M 66.376477 273.312 
L 391.031023 30.268601 
L 391.031023 30.268601 
" style="fill:none;stroke:#ff7f0e;stroke-linecap:square;stroke-width:1.5;"/>
   </g>
   <g id="patch_203">
    <path d="M 50.14375 273.312 
L 50.14375 7.2 
" style="fill:none;stroke:#000000;stroke-linecap:square;stroke-linejoin:miter;stroke-width:0.8;"/>
   </g>
   <g id="patch_204">
    <path d="M 407.26375 273.312 
L 407.26375 7.2 
" style="fill:none;stroke:#000000;stroke-linecap:square;stroke-linejoin:miter;stroke-width:0.8;"/>
   </g>
   <g id="patch_205">
    <path d="M 50.14375 273.312 
L 407.26375 273.312 
" style="fill:none;stroke:#000000;stroke-linecap:square;stroke-linejoin:miter;stroke-width:0.8;"/>
   </g>
   <g id="patch_206">
    <path d="M 50.14375 7.2 
L 407.26375 7.2 
" style="fill:none;stroke:#000000;stroke-linecap:square;stroke-linejoin:miter;stroke-width:0.8;"/>
   </g>
  </g>
 </g>
 <defs>
  <clipPath id="p0e4ea168e5">
   <rect height="266.112" width="357.12" x="50.14375" y="7.2"/>
  </clipPath>
 </defs>
</svg>
