<?xml version="1.0" encoding="utf-8" standalone="no"?>
<!DOCTYPE svg PUBLIC "-//W3C//DTD SVG 1.1//EN"
  "http://www.w3.org/Graphics/SVG/1.1/DTD/svg11.dtd">
<svg height="310.86825pt" version="1.1" viewBox="0 0 414.46375 310.86825" width="414.46375pt" xmlns="http://www.w3.org/2000/svg" xmlns:xlink="http://www.w3.org/1999/xlink">
 <metadata>
  <rdf:RDF xmlns:cc="http://creativecommons.org/ns#" xmlns:dc="http://purl.org/dc/elements/1.1/" xmlns:rdf="http://www.w3.org/1999/02/22-rdf-syntax-ns#">
   <cc:Work>
    <dc:type rdf:resource="http://purl.org/dc/dcmitype/StillImage"/>
    <dc:date>2021-06-24T15:31:17.473707</dc:date>
    <dc:format>image/svg+xml</dc:format>
    <dc:creator>
     <cc:Agent>
      <dc:title>Matplotlib v3.4.2, https://matplotlib.org/</dc:title>
     </cc:Agent>
    </dc:creator>
   </cc:Work>
  </rdf:RDF>
 </metadata>
 <defs>
  <style type="text/css">*{stroke-linecap:butt;stroke-linejoin:round;}</style>
 </defs>
 <g id="figure_1">
  <g id="patch_1">
   <path d="M 0 310.86825 
L 414.46375 310.86825 
L 414.46375 0 
L 0 0 
z
" style="fill:#ffffff;"/>
  </g>
  <g id="axes_1">
   <g id="patch_2">
    <path d="M 50.14375 273.312 
L 407.26375 273.312 
L 407.26375 7.2 
L 50.14375 7.2 
z
" style="fill:#ffffff;"/>
   </g>
   <g id="patch_3">
    <path clip-path="url(#p968ccd9e9f)" d="M 67.958836 273.312 
L 69.574194 273.312 
L 69.574194 270.337352 
L 67.958836 270.337352 
z
" style="fill:#1f77b4;"/>
   </g>
   <g id="patch_4">
    <path clip-path="url(#p968ccd9e9f)" d="M 69.574194 273.312 
L 71.189551 273.312 
L 71.189551 272.122141 
L 69.574194 272.122141 
z
" style="fill:#1f77b4;"/>
   </g>
   <g id="patch_5">
    <path clip-path="url(#p968ccd9e9f)" d="M 71.189551 273.312 
L 72.804909 273.312 
L 72.804909 269.742423 
L 71.189551 269.742423 
z
" style="fill:#1f77b4;"/>
   </g>
   <g id="patch_6">
    <path clip-path="url(#p968ccd9e9f)" d="M 72.804909 273.312 
L 74.420267 273.312 
L 74.420267 267.362704 
L 72.804909 267.362704 
z
" style="fill:#1f77b4;"/>
   </g>
   <g id="patch_7">
    <path clip-path="url(#p968ccd9e9f)" d="M 74.420267 273.312 
L 76.035624 273.312 
L 76.035624 267.957634 
L 74.420267 267.957634 
z
" style="fill:#1f77b4;"/>
   </g>
   <g id="patch_8">
    <path clip-path="url(#p968ccd9e9f)" d="M 76.035624 273.312 
L 77.650982 273.312 
L 77.650982 266.172845 
L 76.035624 266.172845 
z
" style="fill:#1f77b4;"/>
   </g>
   <g id="patch_9">
    <path clip-path="url(#p968ccd9e9f)" d="M 77.650982 273.312 
L 79.26634 273.312 
L 79.26634 264.982986 
L 77.650982 264.982986 
z
" style="fill:#1f77b4;"/>
   </g>
   <g id="patch_10">
    <path clip-path="url(#p968ccd9e9f)" d="M 79.26634 273.312 
L 80.881697 273.312 
L 80.881697 266.172845 
L 79.26634 266.172845 
z
" style="fill:#1f77b4;"/>
   </g>
   <g id="patch_11">
    <path clip-path="url(#p968ccd9e9f)" d="M 80.881697 273.312 
L 82.497055 273.312 
L 82.497055 260.818479 
L 80.881697 260.818479 
z
" style="fill:#1f77b4;"/>
   </g>
   <g id="patch_12">
    <path clip-path="url(#p968ccd9e9f)" d="M 82.497055 273.312 
L 84.112413 273.312 
L 84.112413 261.413408 
L 82.497055 261.413408 
z
" style="fill:#1f77b4;"/>
   </g>
   <g id="patch_13">
    <path clip-path="url(#p968ccd9e9f)" d="M 84.112413 273.312 
L 85.72777 273.312 
L 85.72777 262.603268 
L 84.112413 262.603268 
z
" style="fill:#1f77b4;"/>
   </g>
   <g id="patch_14">
    <path clip-path="url(#p968ccd9e9f)" d="M 85.72777 273.312 
L 87.343128 273.312 
L 87.343128 260.223549 
L 85.72777 260.223549 
z
" style="fill:#1f77b4;"/>
   </g>
   <g id="patch_15">
    <path clip-path="url(#p968ccd9e9f)" d="M 87.343128 273.312 
L 88.958486 273.312 
L 88.958486 259.62862 
L 87.343128 259.62862 
z
" style="fill:#1f77b4;"/>
   </g>
   <g id="patch_16">
    <path clip-path="url(#p968ccd9e9f)" d="M 88.958486 273.312 
L 90.573843 273.312 
L 90.573843 257.843831 
L 88.958486 257.843831 
z
" style="fill:#1f77b4;"/>
   </g>
   <g id="patch_17">
    <path clip-path="url(#p968ccd9e9f)" d="M 90.573843 273.312 
L 92.189201 273.312 
L 92.189201 259.62862 
L 90.573843 259.62862 
z
" style="fill:#1f77b4;"/>
   </g>
   <g id="patch_18">
    <path clip-path="url(#p968ccd9e9f)" d="M 92.189201 273.312 
L 93.804559 273.312 
L 93.804559 256.653972 
L 92.189201 256.653972 
z
" style="fill:#1f77b4;"/>
   </g>
   <g id="patch_19">
    <path clip-path="url(#p968ccd9e9f)" d="M 93.804559 273.312 
L 95.419916 273.312 
L 95.419916 251.299606 
L 93.804559 251.299606 
z
" style="fill:#1f77b4;"/>
   </g>
   <g id="patch_20">
    <path clip-path="url(#p968ccd9e9f)" d="M 95.419916 273.312 
L 97.035274 273.312 
L 97.035274 253.084394 
L 95.419916 253.084394 
z
" style="fill:#1f77b4;"/>
   </g>
   <g id="patch_21">
    <path clip-path="url(#p968ccd9e9f)" d="M 97.035274 273.312 
L 98.650632 273.312 
L 98.650632 253.084394 
L 97.035274 253.084394 
z
" style="fill:#1f77b4;"/>
   </g>
   <g id="patch_22">
    <path clip-path="url(#p968ccd9e9f)" d="M 98.650632 273.312 
L 100.265989 273.312 
L 100.265989 239.995944 
L 98.650632 239.995944 
z
" style="fill:#1f77b4;"/>
   </g>
   <g id="patch_23">
    <path clip-path="url(#p968ccd9e9f)" d="M 100.265989 273.312 
L 101.881347 273.312 
L 101.881347 241.780732 
L 100.265989 241.780732 
z
" style="fill:#1f77b4;"/>
   </g>
   <g id="patch_24">
    <path clip-path="url(#p968ccd9e9f)" d="M 101.881347 273.312 
L 103.496705 273.312 
L 103.496705 248.919887 
L 101.881347 248.919887 
z
" style="fill:#1f77b4;"/>
   </g>
   <g id="patch_25">
    <path clip-path="url(#p968ccd9e9f)" d="M 103.496705 273.312 
L 105.112062 273.312 
L 105.112062 236.426366 
L 103.496705 236.426366 
z
" style="fill:#1f77b4;"/>
   </g>
   <g id="patch_26">
    <path clip-path="url(#p968ccd9e9f)" d="M 105.112062 273.312 
L 106.72742 273.312 
L 106.72742 246.540169 
L 105.112062 246.540169 
z
" style="fill:#1f77b4;"/>
   </g>
   <g id="patch_27">
    <path clip-path="url(#p968ccd9e9f)" d="M 106.72742 273.312 
L 108.342778 273.312 
L 108.342778 244.160451 
L 106.72742 244.160451 
z
" style="fill:#1f77b4;"/>
   </g>
   <g id="patch_28">
    <path clip-path="url(#p968ccd9e9f)" d="M 108.342778 273.312 
L 109.958135 273.312 
L 109.958135 245.35031 
L 108.342778 245.35031 
z
" style="fill:#1f77b4;"/>
   </g>
   <g id="patch_29">
    <path clip-path="url(#p968ccd9e9f)" d="M 109.958135 273.312 
L 111.573493 273.312 
L 111.573493 242.970592 
L 109.958135 242.970592 
z
" style="fill:#1f77b4;"/>
   </g>
   <g id="patch_30">
    <path clip-path="url(#p968ccd9e9f)" d="M 111.573493 273.312 
L 113.188851 273.312 
L 113.188851 228.097352 
L 111.573493 228.097352 
z
" style="fill:#1f77b4;"/>
   </g>
   <g id="patch_31">
    <path clip-path="url(#p968ccd9e9f)" d="M 113.188851 273.312 
L 114.804208 273.312 
L 114.804208 235.831437 
L 113.188851 235.831437 
z
" style="fill:#1f77b4;"/>
   </g>
   <g id="patch_32">
    <path clip-path="url(#p968ccd9e9f)" d="M 114.804208 273.312 
L 116.419566 273.312 
L 116.419566 234.641577 
L 114.804208 234.641577 
z
" style="fill:#1f77b4;"/>
   </g>
   <g id="patch_33">
    <path clip-path="url(#p968ccd9e9f)" d="M 116.419566 273.312 
L 118.034924 273.312 
L 118.034924 231.66693 
L 116.419566 231.66693 
z
" style="fill:#1f77b4;"/>
   </g>
   <g id="patch_34">
    <path clip-path="url(#p968ccd9e9f)" d="M 118.034924 273.312 
L 119.650281 273.312 
L 119.650281 229.287211 
L 118.034924 229.287211 
z
" style="fill:#1f77b4;"/>
   </g>
   <g id="patch_35">
    <path clip-path="url(#p968ccd9e9f)" d="M 119.650281 273.312 
L 121.265639 273.312 
L 121.265639 229.287211 
L 119.650281 229.287211 
z
" style="fill:#1f77b4;"/>
   </g>
   <g id="patch_36">
    <path clip-path="url(#p968ccd9e9f)" d="M 121.265639 273.312 
L 122.880997 273.312 
L 122.880997 241.780732 
L 121.265639 241.780732 
z
" style="fill:#1f77b4;"/>
   </g>
   <g id="patch_37">
    <path clip-path="url(#p968ccd9e9f)" d="M 122.880997 273.312 
L 124.496354 273.312 
L 124.496354 233.451718 
L 122.880997 233.451718 
z
" style="fill:#1f77b4;"/>
   </g>
   <g id="patch_38">
    <path clip-path="url(#p968ccd9e9f)" d="M 124.496354 273.312 
L 126.111712 273.312 
L 126.111712 223.932845 
L 124.496354 223.932845 
z
" style="fill:#1f77b4;"/>
   </g>
   <g id="patch_39">
    <path clip-path="url(#p968ccd9e9f)" d="M 126.111712 273.312 
L 127.72707 273.312 
L 127.72707 232.856789 
L 126.111712 232.856789 
z
" style="fill:#1f77b4;"/>
   </g>
   <g id="patch_40">
    <path clip-path="url(#p968ccd9e9f)" d="M 127.72707 273.312 
L 129.342427 273.312 
L 129.342427 229.287211 
L 127.72707 229.287211 
z
" style="fill:#1f77b4;"/>
   </g>
   <g id="patch_41">
    <path clip-path="url(#p968ccd9e9f)" d="M 129.342427 273.312 
L 130.957785 273.312 
L 130.957785 223.932845 
L 129.342427 223.932845 
z
" style="fill:#1f77b4;"/>
   </g>
   <g id="patch_42">
    <path clip-path="url(#p968ccd9e9f)" d="M 130.957785 273.312 
L 132.573143 273.312 
L 132.573143 220.363268 
L 130.957785 220.363268 
z
" style="fill:#1f77b4;"/>
   </g>
   <g id="patch_43">
    <path clip-path="url(#p968ccd9e9f)" d="M 132.573143 273.312 
L 134.1885 273.312 
L 134.1885 223.337915 
L 132.573143 223.337915 
z
" style="fill:#1f77b4;"/>
   </g>
   <g id="patch_44">
    <path clip-path="url(#p968ccd9e9f)" d="M 134.1885 273.312 
L 135.803858 273.312 
L 135.803858 222.148056 
L 134.1885 222.148056 
z
" style="fill:#1f77b4;"/>
   </g>
   <g id="patch_45">
    <path clip-path="url(#p968ccd9e9f)" d="M 135.803858 273.312 
L 137.419216 273.312 
L 137.419216 212.629183 
L 135.803858 212.629183 
z
" style="fill:#1f77b4;"/>
   </g>
   <g id="patch_46">
    <path clip-path="url(#p968ccd9e9f)" d="M 137.419216 273.312 
L 139.034573 273.312 
L 139.034573 223.932845 
L 137.419216 223.932845 
z
" style="fill:#1f77b4;"/>
   </g>
   <g id="patch_47">
    <path clip-path="url(#p968ccd9e9f)" d="M 139.034573 273.312 
L 140.649931 273.312 
L 140.649931 213.224113 
L 139.034573 213.224113 
z
" style="fill:#1f77b4;"/>
   </g>
   <g id="patch_48">
    <path clip-path="url(#p968ccd9e9f)" d="M 140.649931 273.312 
L 142.265289 273.312 
L 142.265289 212.629183 
L 140.649931 212.629183 
z
" style="fill:#1f77b4;"/>
   </g>
   <g id="patch_49">
    <path clip-path="url(#p968ccd9e9f)" d="M 142.265289 273.312 
L 143.880646 273.312 
L 143.880646 213.224113 
L 142.265289 213.224113 
z
" style="fill:#1f77b4;"/>
   </g>
   <g id="patch_50">
    <path clip-path="url(#p968ccd9e9f)" d="M 143.880646 273.312 
L 145.496004 273.312 
L 145.496004 213.819042 
L 143.880646 213.819042 
z
" style="fill:#1f77b4;"/>
   </g>
   <g id="patch_51">
    <path clip-path="url(#p968ccd9e9f)" d="M 145.496004 273.312 
L 147.111362 273.312 
L 147.111362 225.717634 
L 145.496004 225.717634 
z
" style="fill:#1f77b4;"/>
   </g>
   <g id="patch_52">
    <path clip-path="url(#p968ccd9e9f)" d="M 147.111362 273.312 
L 148.726719 273.312 
L 148.726719 217.983549 
L 147.111362 217.983549 
z
" style="fill:#1f77b4;"/>
   </g>
   <g id="patch_53">
    <path clip-path="url(#p968ccd9e9f)" d="M 148.726719 273.312 
L 150.342077 273.312 
L 150.342077 208.464676 
L 148.726719 208.464676 
z
" style="fill:#1f77b4;"/>
   </g>
   <g id="patch_54">
    <path clip-path="url(#p968ccd9e9f)" d="M 150.342077 273.312 
L 151.957435 273.312 
L 151.957435 217.38862 
L 150.342077 217.38862 
z
" style="fill:#1f77b4;"/>
   </g>
   <g id="patch_55">
    <path clip-path="url(#p968ccd9e9f)" d="M 151.957435 273.312 
L 153.572792 273.312 
L 153.572792 212.629183 
L 151.957435 212.629183 
z
" style="fill:#1f77b4;"/>
   </g>
   <g id="patch_56">
    <path clip-path="url(#p968ccd9e9f)" d="M 153.572792 273.312 
L 155.18815 273.312 
L 155.18815 213.819042 
L 153.572792 213.819042 
z
" style="fill:#1f77b4;"/>
   </g>
   <g id="patch_57">
    <path clip-path="url(#p968ccd9e9f)" d="M 155.18815 273.312 
L 156.803508 273.312 
L 156.803508 195.971155 
L 155.18815 195.971155 
z
" style="fill:#1f77b4;"/>
   </g>
   <g id="patch_58">
    <path clip-path="url(#p968ccd9e9f)" d="M 156.803508 273.312 
L 158.418865 273.312 
L 158.418865 197.161014 
L 156.803508 197.161014 
z
" style="fill:#1f77b4;"/>
   </g>
   <g id="patch_59">
    <path clip-path="url(#p968ccd9e9f)" d="M 158.418865 273.312 
L 160.034223 273.312 
L 160.034223 207.869746 
L 158.418865 207.869746 
z
" style="fill:#1f77b4;"/>
   </g>
   <g id="patch_60">
    <path clip-path="url(#p968ccd9e9f)" d="M 160.034223 273.312 
L 161.649581 273.312 
L 161.649581 205.490028 
L 160.034223 205.490028 
z
" style="fill:#1f77b4;"/>
   </g>
   <g id="patch_61">
    <path clip-path="url(#p968ccd9e9f)" d="M 161.649581 273.312 
L 163.264938 273.312 
L 163.264938 209.654535 
L 161.649581 209.654535 
z
" style="fill:#1f77b4;"/>
   </g>
   <g id="patch_62">
    <path clip-path="url(#p968ccd9e9f)" d="M 163.264938 273.312 
L 164.880296 273.312 
L 164.880296 201.325521 
L 163.264938 201.325521 
z
" style="fill:#1f77b4;"/>
   </g>
   <g id="patch_63">
    <path clip-path="url(#p968ccd9e9f)" d="M 164.880296 273.312 
L 166.495654 273.312 
L 166.495654 191.211718 
L 164.880296 191.211718 
z
" style="fill:#1f77b4;"/>
   </g>
   <g id="patch_64">
    <path clip-path="url(#p968ccd9e9f)" d="M 166.495654 273.312 
L 168.111012 273.312 
L 168.111012 191.211718 
L 166.495654 191.211718 
z
" style="fill:#1f77b4;"/>
   </g>
   <g id="patch_65">
    <path clip-path="url(#p968ccd9e9f)" d="M 168.111012 273.312 
L 169.726369 273.312 
L 169.726369 206.084958 
L 168.111012 206.084958 
z
" style="fill:#1f77b4;"/>
   </g>
   <g id="patch_66">
    <path clip-path="url(#p968ccd9e9f)" d="M 169.726369 273.312 
L 171.341727 273.312 
L 171.341727 190.021859 
L 169.726369 190.021859 
z
" style="fill:#1f77b4;"/>
   </g>
   <g id="patch_67">
    <path clip-path="url(#p968ccd9e9f)" d="M 171.341727 273.312 
L 172.957085 273.312 
L 172.957085 192.401577 
L 171.341727 192.401577 
z
" style="fill:#1f77b4;"/>
   </g>
   <g id="patch_68">
    <path clip-path="url(#p968ccd9e9f)" d="M 172.957085 273.312 
L 174.572442 273.312 
L 174.572442 202.51538 
L 172.957085 202.51538 
z
" style="fill:#1f77b4;"/>
   </g>
   <g id="patch_69">
    <path clip-path="url(#p968ccd9e9f)" d="M 174.572442 273.312 
L 176.1878 273.312 
L 176.1878 192.996507 
L 174.572442 192.996507 
z
" style="fill:#1f77b4;"/>
   </g>
   <g id="patch_70">
    <path clip-path="url(#p968ccd9e9f)" d="M 176.1878 273.312 
L 177.803158 273.312 
L 177.803158 193.591437 
L 176.1878 193.591437 
z
" style="fill:#1f77b4;"/>
   </g>
   <g id="patch_71">
    <path clip-path="url(#p968ccd9e9f)" d="M 177.803158 273.312 
L 179.418515 273.312 
L 179.418515 197.755944 
L 177.803158 197.755944 
z
" style="fill:#1f77b4;"/>
   </g>
   <g id="patch_72">
    <path clip-path="url(#p968ccd9e9f)" d="M 179.418515 273.312 
L 181.033873 273.312 
L 181.033873 187.047211 
L 179.418515 187.047211 
z
" style="fill:#1f77b4;"/>
   </g>
   <g id="patch_73">
    <path clip-path="url(#p968ccd9e9f)" d="M 181.033873 273.312 
L 182.649231 273.312 
L 182.649231 193.591437 
L 181.033873 193.591437 
z
" style="fill:#1f77b4;"/>
   </g>
   <g id="patch_74">
    <path clip-path="url(#p968ccd9e9f)" d="M 182.649231 273.312 
L 184.264588 273.312 
L 184.264588 194.186366 
L 182.649231 194.186366 
z
" style="fill:#1f77b4;"/>
   </g>
   <g id="patch_75">
    <path clip-path="url(#p968ccd9e9f)" d="M 184.264588 273.312 
L 185.879946 273.312 
L 185.879946 190.616789 
L 184.264588 190.616789 
z
" style="fill:#1f77b4;"/>
   </g>
   <g id="patch_76">
    <path clip-path="url(#p968ccd9e9f)" d="M 185.879946 273.312 
L 187.495304 273.312 
L 187.495304 184.667493 
L 185.879946 184.667493 
z
" style="fill:#1f77b4;"/>
   </g>
   <g id="patch_77">
    <path clip-path="url(#p968ccd9e9f)" d="M 187.495304 273.312 
L 189.110661 273.312 
L 189.110661 187.047211 
L 187.495304 187.047211 
z
" style="fill:#1f77b4;"/>
   </g>
   <g id="patch_78">
    <path clip-path="url(#p968ccd9e9f)" d="M 189.110661 273.312 
L 190.726019 273.312 
L 190.726019 186.452282 
L 189.110661 186.452282 
z
" style="fill:#1f77b4;"/>
   </g>
   <g id="patch_79">
    <path clip-path="url(#p968ccd9e9f)" d="M 190.726019 273.312 
L 192.341377 273.312 
L 192.341377 178.718197 
L 190.726019 178.718197 
z
" style="fill:#1f77b4;"/>
   </g>
   <g id="patch_80">
    <path clip-path="url(#p968ccd9e9f)" d="M 192.341377 273.312 
L 193.956734 273.312 
L 193.956734 190.616789 
L 192.341377 190.616789 
z
" style="fill:#1f77b4;"/>
   </g>
   <g id="patch_81">
    <path clip-path="url(#p968ccd9e9f)" d="M 193.956734 273.312 
L 195.572092 273.312 
L 195.572092 180.502986 
L 193.956734 180.502986 
z
" style="fill:#1f77b4;"/>
   </g>
   <g id="patch_82">
    <path clip-path="url(#p968ccd9e9f)" d="M 195.572092 273.312 
L 197.18745 273.312 
L 197.18745 168.604394 
L 195.572092 168.604394 
z
" style="fill:#1f77b4;"/>
   </g>
   <g id="patch_83">
    <path clip-path="url(#p968ccd9e9f)" d="M 197.18745 273.312 
L 198.802807 273.312 
L 198.802807 180.502986 
L 197.18745 180.502986 
z
" style="fill:#1f77b4;"/>
   </g>
   <g id="patch_84">
    <path clip-path="url(#p968ccd9e9f)" d="M 198.802807 273.312 
L 200.418165 273.312 
L 200.418165 172.768901 
L 198.802807 172.768901 
z
" style="fill:#1f77b4;"/>
   </g>
   <g id="patch_85">
    <path clip-path="url(#p968ccd9e9f)" d="M 200.418165 273.312 
L 202.033523 273.312 
L 202.033523 179.313127 
L 200.418165 179.313127 
z
" style="fill:#1f77b4;"/>
   </g>
   <g id="patch_86">
    <path clip-path="url(#p968ccd9e9f)" d="M 202.033523 273.312 
L 203.64888 273.312 
L 203.64888 159.680451 
L 202.033523 159.680451 
z
" style="fill:#1f77b4;"/>
   </g>
   <g id="patch_87">
    <path clip-path="url(#p968ccd9e9f)" d="M 203.64888 273.312 
L 205.264238 273.312 
L 205.264238 163.844958 
L 203.64888 163.844958 
z
" style="fill:#1f77b4;"/>
   </g>
   <g id="patch_88">
    <path clip-path="url(#p968ccd9e9f)" d="M 205.264238 273.312 
L 206.879596 273.312 
L 206.879596 165.034817 
L 205.264238 165.034817 
z
" style="fill:#1f77b4;"/>
   </g>
   <g id="patch_89">
    <path clip-path="url(#p968ccd9e9f)" d="M 206.879596 273.312 
L 208.494953 273.312 
L 208.494953 190.021859 
L 206.879596 190.021859 
z
" style="fill:#1f77b4;"/>
   </g>
   <g id="patch_90">
    <path clip-path="url(#p968ccd9e9f)" d="M 208.494953 273.312 
L 210.110311 273.312 
L 210.110311 176.933408 
L 208.494953 176.933408 
z
" style="fill:#1f77b4;"/>
   </g>
   <g id="patch_91">
    <path clip-path="url(#p968ccd9e9f)" d="M 210.110311 273.312 
L 211.725669 273.312 
L 211.725669 166.224676 
L 210.110311 166.224676 
z
" style="fill:#1f77b4;"/>
   </g>
   <g id="patch_92">
    <path clip-path="url(#p968ccd9e9f)" d="M 211.725669 273.312 
L 213.341026 273.312 
L 213.341026 176.933408 
L 211.725669 176.933408 
z
" style="fill:#1f77b4;"/>
   </g>
   <g id="patch_93">
    <path clip-path="url(#p968ccd9e9f)" d="M 213.341026 273.312 
L 214.956384 273.312 
L 214.956384 174.55369 
L 213.341026 174.55369 
z
" style="fill:#1f77b4;"/>
   </g>
   <g id="patch_94">
    <path clip-path="url(#p968ccd9e9f)" d="M 214.956384 273.312 
L 216.571742 273.312 
L 216.571742 164.439887 
L 214.956384 164.439887 
z
" style="fill:#1f77b4;"/>
   </g>
   <g id="patch_95">
    <path clip-path="url(#p968ccd9e9f)" d="M 216.571742 273.312 
L 218.187099 273.312 
L 218.187099 161.465239 
L 216.571742 161.465239 
z
" style="fill:#1f77b4;"/>
   </g>
   <g id="patch_96">
    <path clip-path="url(#p968ccd9e9f)" d="M 218.187099 273.312 
L 219.802457 273.312 
L 219.802457 155.515944 
L 218.187099 155.515944 
z
" style="fill:#1f77b4;"/>
   </g>
   <g id="patch_97">
    <path clip-path="url(#p968ccd9e9f)" d="M 219.802457 273.312 
L 221.417815 273.312 
L 221.417815 157.300732 
L 219.802457 157.300732 
z
" style="fill:#1f77b4;"/>
   </g>
   <g id="patch_98">
    <path clip-path="url(#p968ccd9e9f)" d="M 221.417815 273.312 
L 223.033172 273.312 
L 223.033172 168.604394 
L 221.417815 168.604394 
z
" style="fill:#1f77b4;"/>
   </g>
   <g id="patch_99">
    <path clip-path="url(#p968ccd9e9f)" d="M 223.033172 273.312 
L 224.64853 273.312 
L 224.64853 150.161577 
L 223.033172 150.161577 
z
" style="fill:#1f77b4;"/>
   </g>
   <g id="patch_100">
    <path clip-path="url(#p968ccd9e9f)" d="M 224.64853 273.312 
L 226.263888 273.312 
L 226.263888 175.743549 
L 224.64853 175.743549 
z
" style="fill:#1f77b4;"/>
   </g>
   <g id="patch_101">
    <path clip-path="url(#p968ccd9e9f)" d="M 226.263888 273.312 
L 227.879245 273.312 
L 227.879245 148.971718 
L 226.263888 148.971718 
z
" style="fill:#1f77b4;"/>
   </g>
   <g id="patch_102">
    <path clip-path="url(#p968ccd9e9f)" d="M 227.879245 273.312 
L 229.494603 273.312 
L 229.494603 154.326085 
L 227.879245 154.326085 
z
" style="fill:#1f77b4;"/>
   </g>
   <g id="patch_103">
    <path clip-path="url(#p968ccd9e9f)" d="M 229.494603 273.312 
L 231.109961 273.312 
L 231.109961 153.731155 
L 229.494603 153.731155 
z
" style="fill:#1f77b4;"/>
   </g>
   <g id="patch_104">
    <path clip-path="url(#p968ccd9e9f)" d="M 231.109961 273.312 
L 232.725318 273.312 
L 232.725318 156.110873 
L 231.109961 156.110873 
z
" style="fill:#1f77b4;"/>
   </g>
   <g id="patch_105">
    <path clip-path="url(#p968ccd9e9f)" d="M 232.725318 273.312 
L 234.340676 273.312 
L 234.340676 133.503549 
L 232.725318 133.503549 
z
" style="fill:#1f77b4;"/>
   </g>
   <g id="patch_106">
    <path clip-path="url(#p968ccd9e9f)" d="M 234.340676 273.312 
L 235.956034 273.312 
L 235.956034 164.439887 
L 234.340676 164.439887 
z
" style="fill:#1f77b4;"/>
   </g>
   <g id="patch_107">
    <path clip-path="url(#p968ccd9e9f)" d="M 235.956034 273.312 
L 237.571391 273.312 
L 237.571391 150.161577 
L 235.956034 150.161577 
z
" style="fill:#1f77b4;"/>
   </g>
   <g id="patch_108">
    <path clip-path="url(#p968ccd9e9f)" d="M 237.571391 273.312 
L 239.186749 273.312 
L 239.186749 143.617352 
L 237.571391 143.617352 
z
" style="fill:#1f77b4;"/>
   </g>
   <g id="patch_109">
    <path clip-path="url(#p968ccd9e9f)" d="M 239.186749 273.312 
L 240.802107 273.312 
L 240.802107 138.857915 
L 239.186749 138.857915 
z
" style="fill:#1f77b4;"/>
   </g>
   <g id="patch_110">
    <path clip-path="url(#p968ccd9e9f)" d="M 240.802107 273.312 
L 242.417464 273.312 
L 242.417464 141.237634 
L 240.802107 141.237634 
z
" style="fill:#1f77b4;"/>
   </g>
   <g id="patch_111">
    <path clip-path="url(#p968ccd9e9f)" d="M 242.417464 273.312 
L 244.032822 273.312 
L 244.032822 140.047775 
L 242.417464 140.047775 
z
" style="fill:#1f77b4;"/>
   </g>
   <g id="patch_112">
    <path clip-path="url(#p968ccd9e9f)" d="M 244.032822 273.312 
L 245.64818 273.312 
L 245.64818 137.668056 
L 244.032822 137.668056 
z
" style="fill:#1f77b4;"/>
   </g>
   <g id="patch_113">
    <path clip-path="url(#p968ccd9e9f)" d="M 245.64818 273.312 
L 247.263537 273.312 
L 247.263537 143.617352 
L 245.64818 143.617352 
z
" style="fill:#1f77b4;"/>
   </g>
   <g id="patch_114">
    <path clip-path="url(#p968ccd9e9f)" d="M 247.263537 273.312 
L 248.878895 273.312 
L 248.878895 133.503549 
L 247.263537 133.503549 
z
" style="fill:#1f77b4;"/>
   </g>
   <g id="patch_115">
    <path clip-path="url(#p968ccd9e9f)" d="M 248.878895 273.312 
L 250.494253 273.312 
L 250.494253 145.99707 
L 248.878895 145.99707 
z
" style="fill:#1f77b4;"/>
   </g>
   <g id="patch_116">
    <path clip-path="url(#p968ccd9e9f)" d="M 250.494253 273.312 
L 252.10961 273.312 
L 252.10961 134.693408 
L 250.494253 134.693408 
z
" style="fill:#1f77b4;"/>
   </g>
   <g id="patch_117">
    <path clip-path="url(#p968ccd9e9f)" d="M 252.10961 273.312 
L 253.724968 273.312 
L 253.724968 127.554254 
L 252.10961 127.554254 
z
" style="fill:#1f77b4;"/>
   </g>
   <g id="patch_118">
    <path clip-path="url(#p968ccd9e9f)" d="M 253.724968 273.312 
L 255.340326 273.312 
L 255.340326 135.883268 
L 253.724968 135.883268 
z
" style="fill:#1f77b4;"/>
   </g>
   <g id="patch_119">
    <path clip-path="url(#p968ccd9e9f)" d="M 255.340326 273.312 
L 256.955683 273.312 
L 256.955683 149.566648 
L 255.340326 149.566648 
z
" style="fill:#1f77b4;"/>
   </g>
   <g id="patch_120">
    <path clip-path="url(#p968ccd9e9f)" d="M 256.955683 273.312 
L 258.571041 273.312 
L 258.571041 133.503549 
L 256.955683 133.503549 
z
" style="fill:#1f77b4;"/>
   </g>
   <g id="patch_121">
    <path clip-path="url(#p968ccd9e9f)" d="M 258.571041 273.312 
L 260.186399 273.312 
L 260.186399 131.718761 
L 258.571041 131.718761 
z
" style="fill:#1f77b4;"/>
   </g>
   <g id="patch_122">
    <path clip-path="url(#p968ccd9e9f)" d="M 260.186399 273.312 
L 261.801756 273.312 
L 261.801756 129.933972 
L 260.186399 129.933972 
z
" style="fill:#1f77b4;"/>
   </g>
   <g id="patch_123">
    <path clip-path="url(#p968ccd9e9f)" d="M 261.801756 273.312 
L 263.417114 273.312 
L 263.417114 144.212282 
L 261.801756 144.212282 
z
" style="fill:#1f77b4;"/>
   </g>
   <g id="patch_124">
    <path clip-path="url(#p968ccd9e9f)" d="M 263.417114 273.312 
L 265.032472 273.312 
L 265.032472 122.794817 
L 263.417114 122.794817 
z
" style="fill:#1f77b4;"/>
   </g>
   <g id="patch_125">
    <path clip-path="url(#p968ccd9e9f)" d="M 265.032472 273.312 
L 266.647829 273.312 
L 266.647829 125.174535 
L 265.032472 125.174535 
z
" style="fill:#1f77b4;"/>
   </g>
   <g id="patch_126">
    <path clip-path="url(#p968ccd9e9f)" d="M 266.647829 273.312 
L 268.263187 273.312 
L 268.263187 125.174535 
L 266.647829 125.174535 
z
" style="fill:#1f77b4;"/>
   </g>
   <g id="patch_127">
    <path clip-path="url(#p968ccd9e9f)" d="M 268.263187 273.312 
L 269.878545 273.312 
L 269.878545 113.275944 
L 268.263187 113.275944 
z
" style="fill:#1f77b4;"/>
   </g>
   <g id="patch_128">
    <path clip-path="url(#p968ccd9e9f)" d="M 269.878545 273.312 
L 271.493902 273.312 
L 271.493902 98.402704 
L 269.878545 98.402704 
z
" style="fill:#1f77b4;"/>
   </g>
   <g id="patch_129">
    <path clip-path="url(#p968ccd9e9f)" d="M 271.493902 273.312 
L 273.10926 273.312 
L 273.10926 122.199887 
L 271.493902 122.199887 
z
" style="fill:#1f77b4;"/>
   </g>
   <g id="patch_130">
    <path clip-path="url(#p968ccd9e9f)" d="M 273.10926 273.312 
L 274.724618 273.312 
L 274.724618 121.604958 
L 273.10926 121.604958 
z
" style="fill:#1f77b4;"/>
   </g>
   <g id="patch_131">
    <path clip-path="url(#p968ccd9e9f)" d="M 274.724618 273.312 
L 276.339976 273.312 
L 276.339976 118.63031 
L 274.724618 118.63031 
z
" style="fill:#1f77b4;"/>
   </g>
   <g id="patch_132">
    <path clip-path="url(#p968ccd9e9f)" d="M 276.339976 273.312 
L 277.955333 273.312 
L 277.955333 126.364394 
L 276.339976 126.364394 
z
" style="fill:#1f77b4;"/>
   </g>
   <g id="patch_133">
    <path clip-path="url(#p968ccd9e9f)" d="M 277.955333 273.312 
L 279.570691 273.312 
L 279.570691 104.94693 
L 277.955333 104.94693 
z
" style="fill:#1f77b4;"/>
   </g>
   <g id="patch_134">
    <path clip-path="url(#p968ccd9e9f)" d="M 279.570691 273.312 
L 281.186049 273.312 
L 281.186049 107.326648 
L 279.570691 107.326648 
z
" style="fill:#1f77b4;"/>
   </g>
   <g id="patch_135">
    <path clip-path="url(#p968ccd9e9f)" d="M 281.186049 273.312 
L 282.801406 273.312 
L 282.801406 118.63031 
L 281.186049 118.63031 
z
" style="fill:#1f77b4;"/>
   </g>
   <g id="patch_136">
    <path clip-path="url(#p968ccd9e9f)" d="M 282.801406 273.312 
L 284.416764 273.312 
L 284.416764 112.086085 
L 282.801406 112.086085 
z
" style="fill:#1f77b4;"/>
   </g>
   <g id="patch_137">
    <path clip-path="url(#p968ccd9e9f)" d="M 284.416764 273.312 
L 286.032122 273.312 
L 286.032122 118.63031 
L 284.416764 118.63031 
z
" style="fill:#1f77b4;"/>
   </g>
   <g id="patch_138">
    <path clip-path="url(#p968ccd9e9f)" d="M 286.032122 273.312 
L 287.647479 273.312 
L 287.647479 104.352 
L 286.032122 104.352 
z
" style="fill:#1f77b4;"/>
   </g>
   <g id="patch_139">
    <path clip-path="url(#p968ccd9e9f)" d="M 287.647479 273.312 
L 289.262837 273.312 
L 289.262837 115.655662 
L 287.647479 115.655662 
z
" style="fill:#1f77b4;"/>
   </g>
   <g id="patch_140">
    <path clip-path="url(#p968ccd9e9f)" d="M 289.262837 273.312 
L 290.878195 273.312 
L 290.878195 122.794817 
L 289.262837 122.794817 
z
" style="fill:#1f77b4;"/>
   </g>
   <g id="patch_141">
    <path clip-path="url(#p968ccd9e9f)" d="M 290.878195 273.312 
L 292.493552 273.312 
L 292.493552 98.997634 
L 290.878195 98.997634 
z
" style="fill:#1f77b4;"/>
   </g>
   <g id="patch_142">
    <path clip-path="url(#p968ccd9e9f)" d="M 292.493552 273.312 
L 294.10891 273.312 
L 294.10891 126.959324 
L 292.493552 126.959324 
z
" style="fill:#1f77b4;"/>
   </g>
   <g id="patch_143">
    <path clip-path="url(#p968ccd9e9f)" d="M 294.10891 273.312 
L 295.724268 273.312 
L 295.724268 99.592563 
L 294.10891 99.592563 
z
" style="fill:#1f77b4;"/>
   </g>
   <g id="patch_144">
    <path clip-path="url(#p968ccd9e9f)" d="M 295.724268 273.312 
L 297.339625 273.312 
L 297.339625 103.75707 
L 295.724268 103.75707 
z
" style="fill:#1f77b4;"/>
   </g>
   <g id="patch_145">
    <path clip-path="url(#p968ccd9e9f)" d="M 297.339625 273.312 
L 298.954983 273.312 
L 298.954983 111.491155 
L 297.339625 111.491155 
z
" style="fill:#1f77b4;"/>
   </g>
   <g id="patch_146">
    <path clip-path="url(#p968ccd9e9f)" d="M 298.954983 273.312 
L 300.570341 273.312 
L 300.570341 102.567211 
L 298.954983 102.567211 
z
" style="fill:#1f77b4;"/>
   </g>
   <g id="patch_147">
    <path clip-path="url(#p968ccd9e9f)" d="M 300.570341 273.312 
L 302.185698 273.312 
L 302.185698 101.972282 
L 300.570341 101.972282 
z
" style="fill:#1f77b4;"/>
   </g>
   <g id="patch_148">
    <path clip-path="url(#p968ccd9e9f)" d="M 302.185698 273.312 
L 303.801056 273.312 
L 303.801056 113.870873 
L 302.185698 113.870873 
z
" style="fill:#1f77b4;"/>
   </g>
   <g id="patch_149">
    <path clip-path="url(#p968ccd9e9f)" d="M 303.801056 273.312 
L 305.416414 273.312 
L 305.416414 109.111437 
L 303.801056 109.111437 
z
" style="fill:#1f77b4;"/>
   </g>
   <g id="patch_150">
    <path clip-path="url(#p968ccd9e9f)" d="M 305.416414 273.312 
L 307.031771 273.312 
L 307.031771 93.048338 
L 305.416414 93.048338 
z
" style="fill:#1f77b4;"/>
   </g>
   <g id="patch_151">
    <path clip-path="url(#p968ccd9e9f)" d="M 307.031771 273.312 
L 308.647129 273.312 
L 308.647129 113.275944 
L 307.031771 113.275944 
z
" style="fill:#1f77b4;"/>
   </g>
   <g id="patch_152">
    <path clip-path="url(#p968ccd9e9f)" d="M 308.647129 273.312 
L 310.262487 273.312 
L 310.262487 101.972282 
L 308.647129 101.972282 
z
" style="fill:#1f77b4;"/>
   </g>
   <g id="patch_153">
    <path clip-path="url(#p968ccd9e9f)" d="M 310.262487 273.312 
L 311.877844 273.312 
L 311.877844 98.402704 
L 310.262487 98.402704 
z
" style="fill:#1f77b4;"/>
   </g>
   <g id="patch_154">
    <path clip-path="url(#p968ccd9e9f)" d="M 311.877844 273.312 
L 313.493202 273.312 
L 313.493202 87.693972 
L 311.877844 87.693972 
z
" style="fill:#1f77b4;"/>
   </g>
   <g id="patch_155">
    <path clip-path="url(#p968ccd9e9f)" d="M 313.493202 273.312 
L 315.10856 273.312 
L 315.10856 102.567211 
L 313.493202 102.567211 
z
" style="fill:#1f77b4;"/>
   </g>
   <g id="patch_156">
    <path clip-path="url(#p968ccd9e9f)" d="M 315.10856 273.312 
L 316.723917 273.312 
L 316.723917 97.212845 
L 315.10856 97.212845 
z
" style="fill:#1f77b4;"/>
   </g>
   <g id="patch_157">
    <path clip-path="url(#p968ccd9e9f)" d="M 316.723917 273.312 
L 318.339275 273.312 
L 318.339275 110.301296 
L 316.723917 110.301296 
z
" style="fill:#1f77b4;"/>
   </g>
   <g id="patch_158">
    <path clip-path="url(#p968ccd9e9f)" d="M 318.339275 273.312 
L 319.954633 273.312 
L 319.954633 85.909183 
L 318.339275 85.909183 
z
" style="fill:#1f77b4;"/>
   </g>
   <g id="patch_159">
    <path clip-path="url(#p968ccd9e9f)" d="M 319.954633 273.312 
L 321.56999 273.312 
L 321.56999 90.07369 
L 319.954633 90.07369 
z
" style="fill:#1f77b4;"/>
   </g>
   <g id="patch_160">
    <path clip-path="url(#p968ccd9e9f)" d="M 321.56999 273.312 
L 323.185348 273.312 
L 323.185348 88.883831 
L 321.56999 88.883831 
z
" style="fill:#1f77b4;"/>
   </g>
   <g id="patch_161">
    <path clip-path="url(#p968ccd9e9f)" d="M 323.185348 273.312 
L 324.800706 273.312 
L 324.800706 80.554817 
L 323.185348 80.554817 
z
" style="fill:#1f77b4;"/>
   </g>
   <g id="patch_162">
    <path clip-path="url(#p968ccd9e9f)" d="M 324.800706 273.312 
L 326.416063 273.312 
L 326.416063 76.39031 
L 324.800706 76.39031 
z
" style="fill:#1f77b4;"/>
   </g>
   <g id="patch_163">
    <path clip-path="url(#p968ccd9e9f)" d="M 326.416063 273.312 
L 328.031421 273.312 
L 328.031421 99.592563 
L 326.416063 99.592563 
z
" style="fill:#1f77b4;"/>
   </g>
   <g id="patch_164">
    <path clip-path="url(#p968ccd9e9f)" d="M 328.031421 273.312 
L 329.646779 273.312 
L 329.646779 93.643268 
L 328.031421 93.643268 
z
" style="fill:#1f77b4;"/>
   </g>
   <g id="patch_165">
    <path clip-path="url(#p968ccd9e9f)" d="M 329.646779 273.312 
L 331.262136 273.312 
L 331.262136 91.858479 
L 329.646779 91.858479 
z
" style="fill:#1f77b4;"/>
   </g>
   <g id="patch_166">
    <path clip-path="url(#p968ccd9e9f)" d="M 331.262136 273.312 
L 332.877494 273.312 
L 332.877494 80.554817 
L 331.262136 80.554817 
z
" style="fill:#1f77b4;"/>
   </g>
   <g id="patch_167">
    <path clip-path="url(#p968ccd9e9f)" d="M 332.877494 273.312 
L 334.492852 273.312 
L 334.492852 67.466366 
L 332.877494 67.466366 
z
" style="fill:#1f77b4;"/>
   </g>
   <g id="patch_168">
    <path clip-path="url(#p968ccd9e9f)" d="M 334.492852 273.312 
L 336.108209 273.312 
L 336.108209 79.959887 
L 334.492852 79.959887 
z
" style="fill:#1f77b4;"/>
   </g>
   <g id="patch_169">
    <path clip-path="url(#p968ccd9e9f)" d="M 336.108209 273.312 
L 337.723567 273.312 
L 337.723567 77.580169 
L 336.108209 77.580169 
z
" style="fill:#1f77b4;"/>
   </g>
   <g id="patch_170">
    <path clip-path="url(#p968ccd9e9f)" d="M 337.723567 273.312 
L 339.338925 273.312 
L 339.338925 88.883831 
L 337.723567 88.883831 
z
" style="fill:#1f77b4;"/>
   </g>
   <g id="patch_171">
    <path clip-path="url(#p968ccd9e9f)" d="M 339.338925 273.312 
L 340.954282 273.312 
L 340.954282 52.593127 
L 339.338925 52.593127 
z
" style="fill:#1f77b4;"/>
   </g>
   <g id="patch_172">
    <path clip-path="url(#p968ccd9e9f)" d="M 340.954282 273.312 
L 342.56964 273.312 
L 342.56964 65.681577 
L 340.954282 65.681577 
z
" style="fill:#1f77b4;"/>
   </g>
   <g id="patch_173">
    <path clip-path="url(#p968ccd9e9f)" d="M 342.56964 273.312 
L 344.184998 273.312 
L 344.184998 79.364958 
L 342.56964 79.364958 
z
" style="fill:#1f77b4;"/>
   </g>
   <g id="patch_174">
    <path clip-path="url(#p968ccd9e9f)" d="M 344.184998 273.312 
L 345.800355 273.312 
L 345.800355 97.807775 
L 344.184998 97.807775 
z
" style="fill:#1f77b4;"/>
   </g>
   <g id="patch_175">
    <path clip-path="url(#p968ccd9e9f)" d="M 345.800355 273.312 
L 347.415713 273.312 
L 347.415713 77.580169 
L 345.800355 77.580169 
z
" style="fill:#1f77b4;"/>
   </g>
   <g id="patch_176">
    <path clip-path="url(#p968ccd9e9f)" d="M 347.415713 273.312 
L 349.031071 273.312 
L 349.031071 61.51707 
L 347.415713 61.51707 
z
" style="fill:#1f77b4;"/>
   </g>
   <g id="patch_177">
    <path clip-path="url(#p968ccd9e9f)" d="M 349.031071 273.312 
L 350.646428 273.312 
L 350.646428 46.048901 
L 349.031071 46.048901 
z
" style="fill:#1f77b4;"/>
   </g>
   <g id="patch_178">
    <path clip-path="url(#p968ccd9e9f)" d="M 350.646428 273.312 
L 352.261786 273.312 
L 352.261786 49.023549 
L 350.646428 49.023549 
z
" style="fill:#1f77b4;"/>
   </g>
   <g id="patch_179">
    <path clip-path="url(#p968ccd9e9f)" d="M 352.261786 273.312 
L 353.877144 273.312 
L 353.877144 66.871437 
L 352.261786 66.871437 
z
" style="fill:#1f77b4;"/>
   </g>
   <g id="patch_180">
    <path clip-path="url(#p968ccd9e9f)" d="M 353.877144 273.312 
L 355.492501 273.312 
L 355.492501 63.301859 
L 353.877144 63.301859 
z
" style="fill:#1f77b4;"/>
   </g>
   <g id="patch_181">
    <path clip-path="url(#p968ccd9e9f)" d="M 355.492501 273.312 
L 357.107859 273.312 
L 357.107859 74.605521 
L 355.492501 74.605521 
z
" style="fill:#1f77b4;"/>
   </g>
   <g id="patch_182">
    <path clip-path="url(#p968ccd9e9f)" d="M 357.107859 273.312 
L 358.723217 273.312 
L 358.723217 57.947493 
L 357.107859 57.947493 
z
" style="fill:#1f77b4;"/>
   </g>
   <g id="patch_183">
    <path clip-path="url(#p968ccd9e9f)" d="M 358.723217 273.312 
L 360.338574 273.312 
L 360.338574 56.757634 
L 358.723217 56.757634 
z
" style="fill:#1f77b4;"/>
   </g>
   <g id="patch_184">
    <path clip-path="url(#p968ccd9e9f)" d="M 360.338574 273.312 
L 361.953932 273.312 
L 361.953932 67.466366 
L 360.338574 67.466366 
z
" style="fill:#1f77b4;"/>
   </g>
   <g id="patch_185">
    <path clip-path="url(#p968ccd9e9f)" d="M 361.953932 273.312 
L 363.56929 273.312 
L 363.56929 51.403268 
L 361.953932 51.403268 
z
" style="fill:#1f77b4;"/>
   </g>
   <g id="patch_186">
    <path clip-path="url(#p968ccd9e9f)" d="M 363.56929 273.312 
L 365.184647 273.312 
L 365.184647 56.162704 
L 363.56929 56.162704 
z
" style="fill:#1f77b4;"/>
   </g>
   <g id="patch_187">
    <path clip-path="url(#p968ccd9e9f)" d="M 365.184647 273.312 
L 366.800005 273.312 
L 366.800005 32.365521 
L 365.184647 32.365521 
z
" style="fill:#1f77b4;"/>
   </g>
   <g id="patch_188">
    <path clip-path="url(#p968ccd9e9f)" d="M 366.800005 273.312 
L 368.415363 273.312 
L 368.415363 41.884394 
L 366.800005 41.884394 
z
" style="fill:#1f77b4;"/>
   </g>
   <g id="patch_189">
    <path clip-path="url(#p968ccd9e9f)" d="M 368.415363 273.312 
L 370.03072 273.312 
L 370.03072 47.83369 
L 368.415363 47.83369 
z
" style="fill:#1f77b4;"/>
   </g>
   <g id="patch_190">
    <path clip-path="url(#p968ccd9e9f)" d="M 370.03072 273.312 
L 371.646078 273.312 
L 371.646078 21.656789 
L 370.03072 21.656789 
z
" style="fill:#1f77b4;"/>
   </g>
   <g id="patch_191">
    <path clip-path="url(#p968ccd9e9f)" d="M 371.646078 273.312 
L 373.261436 273.312 
L 373.261436 43.074254 
L 371.646078 43.074254 
z
" style="fill:#1f77b4;"/>
   </g>
   <g id="patch_192">
    <path clip-path="url(#p968ccd9e9f)" d="M 373.261436 273.312 
L 374.876793 273.312 
L 374.876793 57.947493 
L 373.261436 57.947493 
z
" style="fill:#1f77b4;"/>
   </g>
   <g id="patch_193">
    <path clip-path="url(#p968ccd9e9f)" d="M 374.876793 273.312 
L 376.492151 273.312 
L 376.492151 68.656225 
L 374.876793 68.656225 
z
" style="fill:#1f77b4;"/>
   </g>
   <g id="patch_194">
    <path clip-path="url(#p968ccd9e9f)" d="M 376.492151 273.312 
L 378.107509 273.312 
L 378.107509 61.51707 
L 376.492151 61.51707 
z
" style="fill:#1f77b4;"/>
   </g>
   <g id="patch_195">
    <path clip-path="url(#p968ccd9e9f)" d="M 378.107509 273.312 
L 379.722867 273.312 
L 379.722867 51.998197 
L 378.107509 51.998197 
z
" style="fill:#1f77b4;"/>
   </g>
   <g id="patch_196">
    <path clip-path="url(#p968ccd9e9f)" d="M 379.722867 273.312 
L 381.338224 273.312 
L 381.338224 53.188056 
L 379.722867 53.188056 
z
" style="fill:#1f77b4;"/>
   </g>
   <g id="patch_197">
    <path clip-path="url(#p968ccd9e9f)" d="M 381.338224 273.312 
L 382.953582 273.312 
L 382.953582 38.909746 
L 381.338224 38.909746 
z
" style="fill:#1f77b4;"/>
   </g>
   <g id="patch_198">
    <path clip-path="url(#p968ccd9e9f)" d="M 382.953582 273.312 
L 384.56894 273.312 
L 384.56894 31.770592 
L 382.953582 31.770592 
z
" style="fill:#1f77b4;"/>
   </g>
   <g id="patch_199">
    <path clip-path="url(#p968ccd9e9f)" d="M 384.56894 273.312 
L 386.184297 273.312 
L 386.184297 40.694535 
L 384.56894 40.694535 
z
" style="fill:#1f77b4;"/>
   </g>
   <g id="patch_200">
    <path clip-path="url(#p968ccd9e9f)" d="M 386.184297 273.312 
L 387.799655 273.312 
L 387.799655 34.15031 
L 386.184297 34.15031 
z
" style="fill:#1f77b4;"/>
   </g>
   <g id="patch_201">
    <path clip-path="url(#p968ccd9e9f)" d="M 387.799655 273.312 
L 389.415013 273.312 
L 389.415013 61.51707 
L 387.799655 61.51707 
z
" style="fill:#1f77b4;"/>
   </g>
   <g id="patch_202">
    <path clip-path="url(#p968ccd9e9f)" d="M 389.415013 273.312 
L 391.03037 273.312 
L 391.03037 19.872 
L 389.415013 19.872 
z
" style="fill:#1f77b4;"/>
   </g>
   <g id="matplotlib.axis_1">
    <g id="xtick_1">
     <g id="line2d_1">
      <defs>
       <path d="M 0 0 
L 0 3.5 
" id="m255bb7578b" style="stroke:#000000;stroke-width:0.8;"/>
      </defs>
      <g>
       <use style="stroke:#000000;stroke-width:0.8;" x="66.376477" xlink:href="#m255bb7578b" y="273.312"/>
      </g>
     </g>
     <g id="text_1">
      <!-- 0.0 -->
      <g transform="translate(58.424915 287.910437)scale(0.1 -0.1)">
       <defs>
        <path d="M 2034 4250 
Q 1547 4250 1301 3770 
Q 1056 3291 1056 2328 
Q 1056 1369 1301 889 
Q 1547 409 2034 409 
Q 2525 409 2770 889 
Q 3016 1369 3016 2328 
Q 3016 3291 2770 3770 
Q 2525 4250 2034 4250 
z
M 2034 4750 
Q 2819 4750 3233 4129 
Q 3647 3509 3647 2328 
Q 3647 1150 3233 529 
Q 2819 -91 2034 -91 
Q 1250 -91 836 529 
Q 422 1150 422 2328 
Q 422 3509 836 4129 
Q 1250 4750 2034 4750 
z
" id="DejaVuSans-30" transform="scale(0.015625)"/>
        <path d="M 684 794 
L 1344 794 
L 1344 0 
L 684 0 
L 684 794 
z
" id="DejaVuSans-2e" transform="scale(0.015625)"/>
       </defs>
       <use xlink:href="#DejaVuSans-30"/>
       <use x="63.623047" xlink:href="#DejaVuSans-2e"/>
       <use x="95.410156" xlink:href="#DejaVuSans-30"/>
      </g>
     </g>
    </g>
    <g id="xtick_2">
     <g id="line2d_2">
      <g>
       <use style="stroke:#000000;stroke-width:0.8;" x="131.307386" xlink:href="#m255bb7578b" y="273.312"/>
      </g>
     </g>
     <g id="text_2">
      <!-- 0.2 -->
      <g transform="translate(123.355824 287.910437)scale(0.1 -0.1)">
       <defs>
        <path d="M 1228 531 
L 3431 531 
L 3431 0 
L 469 0 
L 469 531 
Q 828 903 1448 1529 
Q 2069 2156 2228 2338 
Q 2531 2678 2651 2914 
Q 2772 3150 2772 3378 
Q 2772 3750 2511 3984 
Q 2250 4219 1831 4219 
Q 1534 4219 1204 4116 
Q 875 4013 500 3803 
L 500 4441 
Q 881 4594 1212 4672 
Q 1544 4750 1819 4750 
Q 2544 4750 2975 4387 
Q 3406 4025 3406 3419 
Q 3406 3131 3298 2873 
Q 3191 2616 2906 2266 
Q 2828 2175 2409 1742 
Q 1991 1309 1228 531 
z
" id="DejaVuSans-32" transform="scale(0.015625)"/>
       </defs>
       <use xlink:href="#DejaVuSans-30"/>
       <use x="63.623047" xlink:href="#DejaVuSans-2e"/>
       <use x="95.410156" xlink:href="#DejaVuSans-32"/>
      </g>
     </g>
    </g>
    <g id="xtick_3">
     <g id="line2d_3">
      <g>
       <use style="stroke:#000000;stroke-width:0.8;" x="196.238295" xlink:href="#m255bb7578b" y="273.312"/>
      </g>
     </g>
     <g id="text_3">
      <!-- 0.4 -->
      <g transform="translate(188.286733 287.910437)scale(0.1 -0.1)">
       <defs>
        <path d="M 2419 4116 
L 825 1625 
L 2419 1625 
L 2419 4116 
z
M 2253 4666 
L 3047 4666 
L 3047 1625 
L 3713 1625 
L 3713 1100 
L 3047 1100 
L 3047 0 
L 2419 0 
L 2419 1100 
L 313 1100 
L 313 1709 
L 2253 4666 
z
" id="DejaVuSans-34" transform="scale(0.015625)"/>
       </defs>
       <use xlink:href="#DejaVuSans-30"/>
       <use x="63.623047" xlink:href="#DejaVuSans-2e"/>
       <use x="95.410156" xlink:href="#DejaVuSans-34"/>
      </g>
     </g>
    </g>
    <g id="xtick_4">
     <g id="line2d_4">
      <g>
       <use style="stroke:#000000;stroke-width:0.8;" x="261.169205" xlink:href="#m255bb7578b" y="273.312"/>
      </g>
     </g>
     <g id="text_4">
      <!-- 0.6 -->
      <g transform="translate(253.217642 287.910437)scale(0.1 -0.1)">
       <defs>
        <path d="M 2113 2584 
Q 1688 2584 1439 2293 
Q 1191 2003 1191 1497 
Q 1191 994 1439 701 
Q 1688 409 2113 409 
Q 2538 409 2786 701 
Q 3034 994 3034 1497 
Q 3034 2003 2786 2293 
Q 2538 2584 2113 2584 
z
M 3366 4563 
L 3366 3988 
Q 3128 4100 2886 4159 
Q 2644 4219 2406 4219 
Q 1781 4219 1451 3797 
Q 1122 3375 1075 2522 
Q 1259 2794 1537 2939 
Q 1816 3084 2150 3084 
Q 2853 3084 3261 2657 
Q 3669 2231 3669 1497 
Q 3669 778 3244 343 
Q 2819 -91 2113 -91 
Q 1303 -91 875 529 
Q 447 1150 447 2328 
Q 447 3434 972 4092 
Q 1497 4750 2381 4750 
Q 2619 4750 2861 4703 
Q 3103 4656 3366 4563 
z
" id="DejaVuSans-36" transform="scale(0.015625)"/>
       </defs>
       <use xlink:href="#DejaVuSans-30"/>
       <use x="63.623047" xlink:href="#DejaVuSans-2e"/>
       <use x="95.410156" xlink:href="#DejaVuSans-36"/>
      </g>
     </g>
    </g>
    <g id="xtick_5">
     <g id="line2d_5">
      <g>
       <use style="stroke:#000000;stroke-width:0.8;" x="326.100114" xlink:href="#m255bb7578b" y="273.312"/>
      </g>
     </g>
     <g id="text_5">
      <!-- 0.8 -->
      <g transform="translate(318.148551 287.910437)scale(0.1 -0.1)">
       <defs>
        <path d="M 2034 2216 
Q 1584 2216 1326 1975 
Q 1069 1734 1069 1313 
Q 1069 891 1326 650 
Q 1584 409 2034 409 
Q 2484 409 2743 651 
Q 3003 894 3003 1313 
Q 3003 1734 2745 1975 
Q 2488 2216 2034 2216 
z
M 1403 2484 
Q 997 2584 770 2862 
Q 544 3141 544 3541 
Q 544 4100 942 4425 
Q 1341 4750 2034 4750 
Q 2731 4750 3128 4425 
Q 3525 4100 3525 3541 
Q 3525 3141 3298 2862 
Q 3072 2584 2669 2484 
Q 3125 2378 3379 2068 
Q 3634 1759 3634 1313 
Q 3634 634 3220 271 
Q 2806 -91 2034 -91 
Q 1263 -91 848 271 
Q 434 634 434 1313 
Q 434 1759 690 2068 
Q 947 2378 1403 2484 
z
M 1172 3481 
Q 1172 3119 1398 2916 
Q 1625 2713 2034 2713 
Q 2441 2713 2670 2916 
Q 2900 3119 2900 3481 
Q 2900 3844 2670 4047 
Q 2441 4250 2034 4250 
Q 1625 4250 1398 4047 
Q 1172 3844 1172 3481 
z
" id="DejaVuSans-38" transform="scale(0.015625)"/>
       </defs>
       <use xlink:href="#DejaVuSans-30"/>
       <use x="63.623047" xlink:href="#DejaVuSans-2e"/>
       <use x="95.410156" xlink:href="#DejaVuSans-38"/>
      </g>
     </g>
    </g>
    <g id="xtick_6">
     <g id="line2d_6">
      <g>
       <use style="stroke:#000000;stroke-width:0.8;" x="391.031023" xlink:href="#m255bb7578b" y="273.312"/>
      </g>
     </g>
     <g id="text_6">
      <!-- 1.0 -->
      <g transform="translate(383.07946 287.910437)scale(0.1 -0.1)">
       <defs>
        <path d="M 794 531 
L 1825 531 
L 1825 4091 
L 703 3866 
L 703 4441 
L 1819 4666 
L 2450 4666 
L 2450 531 
L 3481 531 
L 3481 0 
L 794 0 
L 794 531 
z
" id="DejaVuSans-31" transform="scale(0.015625)"/>
       </defs>
       <use xlink:href="#DejaVuSans-31"/>
       <use x="63.623047" xlink:href="#DejaVuSans-2e"/>
       <use x="95.410156" xlink:href="#DejaVuSans-30"/>
      </g>
     </g>
    </g>
    <g id="text_7">
     <!-- Propagation direction -->
     <g transform="translate(175.221719 301.588562)scale(0.1 -0.1)">
      <defs>
       <path d="M 1259 4147 
L 1259 2394 
L 2053 2394 
Q 2494 2394 2734 2622 
Q 2975 2850 2975 3272 
Q 2975 3691 2734 3919 
Q 2494 4147 2053 4147 
L 1259 4147 
z
M 628 4666 
L 2053 4666 
Q 2838 4666 3239 4311 
Q 3641 3956 3641 3272 
Q 3641 2581 3239 2228 
Q 2838 1875 2053 1875 
L 1259 1875 
L 1259 0 
L 628 0 
L 628 4666 
z
" id="DejaVuSans-50" transform="scale(0.015625)"/>
       <path d="M 2631 2963 
Q 2534 3019 2420 3045 
Q 2306 3072 2169 3072 
Q 1681 3072 1420 2755 
Q 1159 2438 1159 1844 
L 1159 0 
L 581 0 
L 581 3500 
L 1159 3500 
L 1159 2956 
Q 1341 3275 1631 3429 
Q 1922 3584 2338 3584 
Q 2397 3584 2469 3576 
Q 2541 3569 2628 3553 
L 2631 2963 
z
" id="DejaVuSans-72" transform="scale(0.015625)"/>
       <path d="M 1959 3097 
Q 1497 3097 1228 2736 
Q 959 2375 959 1747 
Q 959 1119 1226 758 
Q 1494 397 1959 397 
Q 2419 397 2687 759 
Q 2956 1122 2956 1747 
Q 2956 2369 2687 2733 
Q 2419 3097 1959 3097 
z
M 1959 3584 
Q 2709 3584 3137 3096 
Q 3566 2609 3566 1747 
Q 3566 888 3137 398 
Q 2709 -91 1959 -91 
Q 1206 -91 779 398 
Q 353 888 353 1747 
Q 353 2609 779 3096 
Q 1206 3584 1959 3584 
z
" id="DejaVuSans-6f" transform="scale(0.015625)"/>
       <path d="M 1159 525 
L 1159 -1331 
L 581 -1331 
L 581 3500 
L 1159 3500 
L 1159 2969 
Q 1341 3281 1617 3432 
Q 1894 3584 2278 3584 
Q 2916 3584 3314 3078 
Q 3713 2572 3713 1747 
Q 3713 922 3314 415 
Q 2916 -91 2278 -91 
Q 1894 -91 1617 61 
Q 1341 213 1159 525 
z
M 3116 1747 
Q 3116 2381 2855 2742 
Q 2594 3103 2138 3103 
Q 1681 3103 1420 2742 
Q 1159 2381 1159 1747 
Q 1159 1113 1420 752 
Q 1681 391 2138 391 
Q 2594 391 2855 752 
Q 3116 1113 3116 1747 
z
" id="DejaVuSans-70" transform="scale(0.015625)"/>
       <path d="M 2194 1759 
Q 1497 1759 1228 1600 
Q 959 1441 959 1056 
Q 959 750 1161 570 
Q 1363 391 1709 391 
Q 2188 391 2477 730 
Q 2766 1069 2766 1631 
L 2766 1759 
L 2194 1759 
z
M 3341 1997 
L 3341 0 
L 2766 0 
L 2766 531 
Q 2569 213 2275 61 
Q 1981 -91 1556 -91 
Q 1019 -91 701 211 
Q 384 513 384 1019 
Q 384 1609 779 1909 
Q 1175 2209 1959 2209 
L 2766 2209 
L 2766 2266 
Q 2766 2663 2505 2880 
Q 2244 3097 1772 3097 
Q 1472 3097 1187 3025 
Q 903 2953 641 2809 
L 641 3341 
Q 956 3463 1253 3523 
Q 1550 3584 1831 3584 
Q 2591 3584 2966 3190 
Q 3341 2797 3341 1997 
z
" id="DejaVuSans-61" transform="scale(0.015625)"/>
       <path d="M 2906 1791 
Q 2906 2416 2648 2759 
Q 2391 3103 1925 3103 
Q 1463 3103 1205 2759 
Q 947 2416 947 1791 
Q 947 1169 1205 825 
Q 1463 481 1925 481 
Q 2391 481 2648 825 
Q 2906 1169 2906 1791 
z
M 3481 434 
Q 3481 -459 3084 -895 
Q 2688 -1331 1869 -1331 
Q 1566 -1331 1297 -1286 
Q 1028 -1241 775 -1147 
L 775 -588 
Q 1028 -725 1275 -790 
Q 1522 -856 1778 -856 
Q 2344 -856 2625 -561 
Q 2906 -266 2906 331 
L 2906 616 
Q 2728 306 2450 153 
Q 2172 0 1784 0 
Q 1141 0 747 490 
Q 353 981 353 1791 
Q 353 2603 747 3093 
Q 1141 3584 1784 3584 
Q 2172 3584 2450 3431 
Q 2728 3278 2906 2969 
L 2906 3500 
L 3481 3500 
L 3481 434 
z
" id="DejaVuSans-67" transform="scale(0.015625)"/>
       <path d="M 1172 4494 
L 1172 3500 
L 2356 3500 
L 2356 3053 
L 1172 3053 
L 1172 1153 
Q 1172 725 1289 603 
Q 1406 481 1766 481 
L 2356 481 
L 2356 0 
L 1766 0 
Q 1100 0 847 248 
Q 594 497 594 1153 
L 594 3053 
L 172 3053 
L 172 3500 
L 594 3500 
L 594 4494 
L 1172 4494 
z
" id="DejaVuSans-74" transform="scale(0.015625)"/>
       <path d="M 603 3500 
L 1178 3500 
L 1178 0 
L 603 0 
L 603 3500 
z
M 603 4863 
L 1178 4863 
L 1178 4134 
L 603 4134 
L 603 4863 
z
" id="DejaVuSans-69" transform="scale(0.015625)"/>
       <path d="M 3513 2113 
L 3513 0 
L 2938 0 
L 2938 2094 
Q 2938 2591 2744 2837 
Q 2550 3084 2163 3084 
Q 1697 3084 1428 2787 
Q 1159 2491 1159 1978 
L 1159 0 
L 581 0 
L 581 3500 
L 1159 3500 
L 1159 2956 
Q 1366 3272 1645 3428 
Q 1925 3584 2291 3584 
Q 2894 3584 3203 3211 
Q 3513 2838 3513 2113 
z
" id="DejaVuSans-6e" transform="scale(0.015625)"/>
       <path id="DejaVuSans-20" transform="scale(0.015625)"/>
       <path d="M 2906 2969 
L 2906 4863 
L 3481 4863 
L 3481 0 
L 2906 0 
L 2906 525 
Q 2725 213 2448 61 
Q 2172 -91 1784 -91 
Q 1150 -91 751 415 
Q 353 922 353 1747 
Q 353 2572 751 3078 
Q 1150 3584 1784 3584 
Q 2172 3584 2448 3432 
Q 2725 3281 2906 2969 
z
M 947 1747 
Q 947 1113 1208 752 
Q 1469 391 1925 391 
Q 2381 391 2643 752 
Q 2906 1113 2906 1747 
Q 2906 2381 2643 2742 
Q 2381 3103 1925 3103 
Q 1469 3103 1208 2742 
Q 947 2381 947 1747 
z
" id="DejaVuSans-64" transform="scale(0.015625)"/>
       <path d="M 3597 1894 
L 3597 1613 
L 953 1613 
Q 991 1019 1311 708 
Q 1631 397 2203 397 
Q 2534 397 2845 478 
Q 3156 559 3463 722 
L 3463 178 
Q 3153 47 2828 -22 
Q 2503 -91 2169 -91 
Q 1331 -91 842 396 
Q 353 884 353 1716 
Q 353 2575 817 3079 
Q 1281 3584 2069 3584 
Q 2775 3584 3186 3129 
Q 3597 2675 3597 1894 
z
M 3022 2063 
Q 3016 2534 2758 2815 
Q 2500 3097 2075 3097 
Q 1594 3097 1305 2825 
Q 1016 2553 972 2059 
L 3022 2063 
z
" id="DejaVuSans-65" transform="scale(0.015625)"/>
       <path d="M 3122 3366 
L 3122 2828 
Q 2878 2963 2633 3030 
Q 2388 3097 2138 3097 
Q 1578 3097 1268 2742 
Q 959 2388 959 1747 
Q 959 1106 1268 751 
Q 1578 397 2138 397 
Q 2388 397 2633 464 
Q 2878 531 3122 666 
L 3122 134 
Q 2881 22 2623 -34 
Q 2366 -91 2075 -91 
Q 1284 -91 818 406 
Q 353 903 353 1747 
Q 353 2603 823 3093 
Q 1294 3584 2113 3584 
Q 2378 3584 2631 3529 
Q 2884 3475 3122 3366 
z
" id="DejaVuSans-63" transform="scale(0.015625)"/>
      </defs>
      <use xlink:href="#DejaVuSans-50"/>
      <use x="58.552734" xlink:href="#DejaVuSans-72"/>
      <use x="97.416016" xlink:href="#DejaVuSans-6f"/>
      <use x="158.597656" xlink:href="#DejaVuSans-70"/>
      <use x="222.074219" xlink:href="#DejaVuSans-61"/>
      <use x="283.353516" xlink:href="#DejaVuSans-67"/>
      <use x="346.830078" xlink:href="#DejaVuSans-61"/>
      <use x="408.109375" xlink:href="#DejaVuSans-74"/>
      <use x="447.318359" xlink:href="#DejaVuSans-69"/>
      <use x="475.101562" xlink:href="#DejaVuSans-6f"/>
      <use x="536.283203" xlink:href="#DejaVuSans-6e"/>
      <use x="599.662109" xlink:href="#DejaVuSans-20"/>
      <use x="631.449219" xlink:href="#DejaVuSans-64"/>
      <use x="694.925781" xlink:href="#DejaVuSans-69"/>
      <use x="722.708984" xlink:href="#DejaVuSans-72"/>
      <use x="761.572266" xlink:href="#DejaVuSans-65"/>
      <use x="823.095703" xlink:href="#DejaVuSans-63"/>
      <use x="878.076172" xlink:href="#DejaVuSans-74"/>
      <use x="917.285156" xlink:href="#DejaVuSans-69"/>
      <use x="945.068359" xlink:href="#DejaVuSans-6f"/>
      <use x="1006.25" xlink:href="#DejaVuSans-6e"/>
     </g>
    </g>
   </g>
   <g id="matplotlib.axis_2">
    <g id="ytick_1">
     <g id="line2d_7">
      <defs>
       <path d="M 0 0 
L -3.5 0 
" id="m48a13e0843" style="stroke:#000000;stroke-width:0.8;"/>
      </defs>
      <g>
       <use style="stroke:#000000;stroke-width:0.8;" x="50.14375" xlink:href="#m48a13e0843" y="273.312"/>
      </g>
     </g>
     <g id="text_8">
      <!-- 0.00 -->
      <g transform="translate(20.878125 277.111219)scale(0.1 -0.1)">
       <use xlink:href="#DejaVuSans-30"/>
       <use x="63.623047" xlink:href="#DejaVuSans-2e"/>
       <use x="95.410156" xlink:href="#DejaVuSans-30"/>
       <use x="159.033203" xlink:href="#DejaVuSans-30"/>
      </g>
     </g>
    </g>
    <g id="ytick_2">
     <g id="line2d_8">
      <g>
       <use style="stroke:#000000;stroke-width:0.8;" x="50.14375" xlink:href="#m48a13e0843" y="243.710565"/>
      </g>
     </g>
     <g id="text_9">
      <!-- 0.25 -->
      <g transform="translate(20.878125 247.509783)scale(0.1 -0.1)">
       <defs>
        <path d="M 691 4666 
L 3169 4666 
L 3169 4134 
L 1269 4134 
L 1269 2991 
Q 1406 3038 1543 3061 
Q 1681 3084 1819 3084 
Q 2600 3084 3056 2656 
Q 3513 2228 3513 1497 
Q 3513 744 3044 326 
Q 2575 -91 1722 -91 
Q 1428 -91 1123 -41 
Q 819 9 494 109 
L 494 744 
Q 775 591 1075 516 
Q 1375 441 1709 441 
Q 2250 441 2565 725 
Q 2881 1009 2881 1497 
Q 2881 1984 2565 2268 
Q 2250 2553 1709 2553 
Q 1456 2553 1204 2497 
Q 953 2441 691 2322 
L 691 4666 
z
" id="DejaVuSans-35" transform="scale(0.015625)"/>
       </defs>
       <use xlink:href="#DejaVuSans-30"/>
       <use x="63.623047" xlink:href="#DejaVuSans-2e"/>
       <use x="95.410156" xlink:href="#DejaVuSans-32"/>
       <use x="159.033203" xlink:href="#DejaVuSans-35"/>
      </g>
     </g>
    </g>
    <g id="ytick_3">
     <g id="line2d_9">
      <g>
       <use style="stroke:#000000;stroke-width:0.8;" x="50.14375" xlink:href="#m48a13e0843" y="214.109129"/>
      </g>
     </g>
     <g id="text_10">
      <!-- 0.50 -->
      <g transform="translate(20.878125 217.908348)scale(0.1 -0.1)">
       <use xlink:href="#DejaVuSans-30"/>
       <use x="63.623047" xlink:href="#DejaVuSans-2e"/>
       <use x="95.410156" xlink:href="#DejaVuSans-35"/>
       <use x="159.033203" xlink:href="#DejaVuSans-30"/>
      </g>
     </g>
    </g>
    <g id="ytick_4">
     <g id="line2d_10">
      <g>
       <use style="stroke:#000000;stroke-width:0.8;" x="50.14375" xlink:href="#m48a13e0843" y="184.507694"/>
      </g>
     </g>
     <g id="text_11">
      <!-- 0.75 -->
      <g transform="translate(20.878125 188.306912)scale(0.1 -0.1)">
       <defs>
        <path d="M 525 4666 
L 3525 4666 
L 3525 4397 
L 1831 0 
L 1172 0 
L 2766 4134 
L 525 4134 
L 525 4666 
z
" id="DejaVuSans-37" transform="scale(0.015625)"/>
       </defs>
       <use xlink:href="#DejaVuSans-30"/>
       <use x="63.623047" xlink:href="#DejaVuSans-2e"/>
       <use x="95.410156" xlink:href="#DejaVuSans-37"/>
       <use x="159.033203" xlink:href="#DejaVuSans-35"/>
      </g>
     </g>
    </g>
    <g id="ytick_5">
     <g id="line2d_11">
      <g>
       <use style="stroke:#000000;stroke-width:0.8;" x="50.14375" xlink:href="#m48a13e0843" y="154.906258"/>
      </g>
     </g>
     <g id="text_12">
      <!-- 1.00 -->
      <g transform="translate(20.878125 158.705477)scale(0.1 -0.1)">
       <use xlink:href="#DejaVuSans-31"/>
       <use x="63.623047" xlink:href="#DejaVuSans-2e"/>
       <use x="95.410156" xlink:href="#DejaVuSans-30"/>
       <use x="159.033203" xlink:href="#DejaVuSans-30"/>
      </g>
     </g>
    </g>
    <g id="ytick_6">
     <g id="line2d_12">
      <g>
       <use style="stroke:#000000;stroke-width:0.8;" x="50.14375" xlink:href="#m48a13e0843" y="125.304823"/>
      </g>
     </g>
     <g id="text_13">
      <!-- 1.25 -->
      <g transform="translate(20.878125 129.104041)scale(0.1 -0.1)">
       <use xlink:href="#DejaVuSans-31"/>
       <use x="63.623047" xlink:href="#DejaVuSans-2e"/>
       <use x="95.410156" xlink:href="#DejaVuSans-32"/>
       <use x="159.033203" xlink:href="#DejaVuSans-35"/>
      </g>
     </g>
    </g>
    <g id="ytick_7">
     <g id="line2d_13">
      <g>
       <use style="stroke:#000000;stroke-width:0.8;" x="50.14375" xlink:href="#m48a13e0843" y="95.703387"/>
      </g>
     </g>
     <g id="text_14">
      <!-- 1.50 -->
      <g transform="translate(20.878125 99.502606)scale(0.1 -0.1)">
       <use xlink:href="#DejaVuSans-31"/>
       <use x="63.623047" xlink:href="#DejaVuSans-2e"/>
       <use x="95.410156" xlink:href="#DejaVuSans-35"/>
       <use x="159.033203" xlink:href="#DejaVuSans-30"/>
      </g>
     </g>
    </g>
    <g id="ytick_8">
     <g id="line2d_14">
      <g>
       <use style="stroke:#000000;stroke-width:0.8;" x="50.14375" xlink:href="#m48a13e0843" y="66.101952"/>
      </g>
     </g>
     <g id="text_15">
      <!-- 1.75 -->
      <g transform="translate(20.878125 69.901171)scale(0.1 -0.1)">
       <use xlink:href="#DejaVuSans-31"/>
       <use x="63.623047" xlink:href="#DejaVuSans-2e"/>
       <use x="95.410156" xlink:href="#DejaVuSans-37"/>
       <use x="159.033203" xlink:href="#DejaVuSans-35"/>
      </g>
     </g>
    </g>
    <g id="ytick_9">
     <g id="line2d_15">
      <g>
       <use style="stroke:#000000;stroke-width:0.8;" x="50.14375" xlink:href="#m48a13e0843" y="36.500516"/>
      </g>
     </g>
     <g id="text_16">
      <!-- 2.00 -->
      <g transform="translate(20.878125 40.299735)scale(0.1 -0.1)">
       <use xlink:href="#DejaVuSans-32"/>
       <use x="63.623047" xlink:href="#DejaVuSans-2e"/>
       <use x="95.410156" xlink:href="#DejaVuSans-30"/>
       <use x="159.033203" xlink:href="#DejaVuSans-30"/>
      </g>
     </g>
    </g>
    <g id="text_17">
     <!-- Probability density -->
     <g transform="translate(14.798438 186.606781)rotate(-90)scale(0.1 -0.1)">
      <defs>
       <path d="M 3116 1747 
Q 3116 2381 2855 2742 
Q 2594 3103 2138 3103 
Q 1681 3103 1420 2742 
Q 1159 2381 1159 1747 
Q 1159 1113 1420 752 
Q 1681 391 2138 391 
Q 2594 391 2855 752 
Q 3116 1113 3116 1747 
z
M 1159 2969 
Q 1341 3281 1617 3432 
Q 1894 3584 2278 3584 
Q 2916 3584 3314 3078 
Q 3713 2572 3713 1747 
Q 3713 922 3314 415 
Q 2916 -91 2278 -91 
Q 1894 -91 1617 61 
Q 1341 213 1159 525 
L 1159 0 
L 581 0 
L 581 4863 
L 1159 4863 
L 1159 2969 
z
" id="DejaVuSans-62" transform="scale(0.015625)"/>
       <path d="M 603 4863 
L 1178 4863 
L 1178 0 
L 603 0 
L 603 4863 
z
" id="DejaVuSans-6c" transform="scale(0.015625)"/>
       <path d="M 2059 -325 
Q 1816 -950 1584 -1140 
Q 1353 -1331 966 -1331 
L 506 -1331 
L 506 -850 
L 844 -850 
Q 1081 -850 1212 -737 
Q 1344 -625 1503 -206 
L 1606 56 
L 191 3500 
L 800 3500 
L 1894 763 
L 2988 3500 
L 3597 3500 
L 2059 -325 
z
" id="DejaVuSans-79" transform="scale(0.015625)"/>
       <path d="M 2834 3397 
L 2834 2853 
Q 2591 2978 2328 3040 
Q 2066 3103 1784 3103 
Q 1356 3103 1142 2972 
Q 928 2841 928 2578 
Q 928 2378 1081 2264 
Q 1234 2150 1697 2047 
L 1894 2003 
Q 2506 1872 2764 1633 
Q 3022 1394 3022 966 
Q 3022 478 2636 193 
Q 2250 -91 1575 -91 
Q 1294 -91 989 -36 
Q 684 19 347 128 
L 347 722 
Q 666 556 975 473 
Q 1284 391 1588 391 
Q 1994 391 2212 530 
Q 2431 669 2431 922 
Q 2431 1156 2273 1281 
Q 2116 1406 1581 1522 
L 1381 1569 
Q 847 1681 609 1914 
Q 372 2147 372 2553 
Q 372 3047 722 3315 
Q 1072 3584 1716 3584 
Q 2034 3584 2315 3537 
Q 2597 3491 2834 3397 
z
" id="DejaVuSans-73" transform="scale(0.015625)"/>
      </defs>
      <use xlink:href="#DejaVuSans-50"/>
      <use x="58.552734" xlink:href="#DejaVuSans-72"/>
      <use x="97.416016" xlink:href="#DejaVuSans-6f"/>
      <use x="158.597656" xlink:href="#DejaVuSans-62"/>
      <use x="222.074219" xlink:href="#DejaVuSans-61"/>
      <use x="283.353516" xlink:href="#DejaVuSans-62"/>
      <use x="346.830078" xlink:href="#DejaVuSans-69"/>
      <use x="374.613281" xlink:href="#DejaVuSans-6c"/>
      <use x="402.396484" xlink:href="#DejaVuSans-69"/>
      <use x="430.179688" xlink:href="#DejaVuSans-74"/>
      <use x="469.388672" xlink:href="#DejaVuSans-79"/>
      <use x="528.568359" xlink:href="#DejaVuSans-20"/>
      <use x="560.355469" xlink:href="#DejaVuSans-64"/>
      <use x="623.832031" xlink:href="#DejaVuSans-65"/>
      <use x="685.355469" xlink:href="#DejaVuSans-6e"/>
      <use x="748.734375" xlink:href="#DejaVuSans-73"/>
      <use x="800.833984" xlink:href="#DejaVuSans-69"/>
      <use x="828.617188" xlink:href="#DejaVuSans-74"/>
      <use x="867.826172" xlink:href="#DejaVuSans-79"/>
     </g>
    </g>
   </g>
   <g id="line2d_16">
    <path clip-path="url(#p968ccd9e9f)" d="M 66.376477 273.312 
L 391.031023 36.500516 
L 391.031023 36.500516 
" style="fill:none;stroke:#ff7f0e;stroke-linecap:square;stroke-width:1.5;"/>
   </g>
   <g id="patch_203">
    <path d="M 50.14375 273.312 
L 50.14375 7.2 
" style="fill:none;stroke:#000000;stroke-linecap:square;stroke-linejoin:miter;stroke-width:0.8;"/>
   </g>
   <g id="patch_204">
    <path d="M 407.26375 273.312 
L 407.26375 7.2 
" style="fill:none;stroke:#000000;stroke-linecap:square;stroke-linejoin:miter;stroke-width:0.8;"/>
   </g>
   <g id="patch_205">
    <path d="M 50.14375 273.312 
L 407.26375 273.312 
" style="fill:none;stroke:#000000;stroke-linecap:square;stroke-linejoin:miter;stroke-width:0.8;"/>
   </g>
   <g id="patch_206">
    <path d="M 50.14375 7.2 
L 407.26375 7.2 
" style="fill:none;stroke:#000000;stroke-linecap:square;stroke-linejoin:miter;stroke-width:0.8;"/>
   </g>
  </g>
 </g>
 <defs>
  <clipPath id="p968ccd9e9f">
   <rect height="266.112" width="357.12" x="50.14375" y="7.2"/>
  </clipPath>
 </defs>
</svg>
