<?xml version="1.0" encoding="utf-8" standalone="no"?>
<!DOCTYPE svg PUBLIC "-//W3C//DTD SVG 1.1//EN"
  "http://www.w3.org/Graphics/SVG/1.1/DTD/svg11.dtd">
<svg height="310.86825pt" version="1.1" viewBox="0 0 414.46375 310.86825" width="414.46375pt" xmlns="http://www.w3.org/2000/svg" xmlns:xlink="http://www.w3.org/1999/xlink">
 <metadata>
  <rdf:RDF xmlns:cc="http://creativecommons.org/ns#" xmlns:dc="http://purl.org/dc/elements/1.1/" xmlns:rdf="http://www.w3.org/1999/02/22-rdf-syntax-ns#">
   <cc:Work>
    <dc:type rdf:resource="http://purl.org/dc/dcmitype/StillImage"/>
    <dc:date>2021-06-22T16:00:40.566844</dc:date>
    <dc:format>image/svg+xml</dc:format>
    <dc:creator>
     <cc:Agent>
      <dc:title>Matplotlib v3.4.2, https://matplotlib.org/</dc:title>
     </cc:Agent>
    </dc:creator>
   </cc:Work>
  </rdf:RDF>
 </metadata>
 <defs>
  <style type="text/css">*{stroke-linecap:butt;stroke-linejoin:round;}</style>
 </defs>
 <g id="figure_1">
  <g id="patch_1">
   <path d="M 0 310.86825 
L 414.46375 310.86825 
L 414.46375 0 
L 0 0 
z
" style="fill:#ffffff;"/>
  </g>
  <g id="axes_1">
   <g id="patch_2">
    <path d="M 50.14375 273.312 
L 407.26375 273.312 
L 407.26375 7.2 
L 50.14375 7.2 
z
" style="fill:#ffffff;"/>
   </g>
   <g id="patch_3">
    <path clip-path="url(#p365791b801)" d="M 66.745697 273.312 
L 68.36708 273.312 
L 68.36708 272.684673 
L 66.745697 272.684673 
z
" style="fill:#1f77b4;"/>
   </g>
   <g id="patch_4">
    <path clip-path="url(#p365791b801)" d="M 68.36708 273.312 
L 69.988464 273.312 
L 69.988464 272.057347 
L 68.36708 272.057347 
z
" style="fill:#1f77b4;"/>
   </g>
   <g id="patch_5">
    <path clip-path="url(#p365791b801)" d="M 69.988464 273.312 
L 71.609847 273.312 
L 71.609847 272.057347 
L 69.988464 272.057347 
z
" style="fill:#1f77b4;"/>
   </g>
   <g id="patch_6">
    <path clip-path="url(#p365791b801)" d="M 71.609847 273.312 
L 73.231231 273.312 
L 73.231231 267.666059 
L 71.609847 267.666059 
z
" style="fill:#1f77b4;"/>
   </g>
   <g id="patch_7">
    <path clip-path="url(#p365791b801)" d="M 73.231231 273.312 
L 74.852614 273.312 
L 74.852614 268.920713 
L 73.231231 268.920713 
z
" style="fill:#1f77b4;"/>
   </g>
   <g id="patch_8">
    <path clip-path="url(#p365791b801)" d="M 74.852614 273.312 
L 76.473997 273.312 
L 76.473997 265.784079 
L 74.852614 265.784079 
z
" style="fill:#1f77b4;"/>
   </g>
   <g id="patch_9">
    <path clip-path="url(#p365791b801)" d="M 76.473997 273.312 
L 78.095381 273.312 
L 78.095381 265.156752 
L 76.473997 265.156752 
z
" style="fill:#1f77b4;"/>
   </g>
   <g id="patch_10">
    <path clip-path="url(#p365791b801)" d="M 78.095381 273.312 
L 79.716764 273.312 
L 79.716764 263.274772 
L 78.095381 263.274772 
z
" style="fill:#1f77b4;"/>
   </g>
   <g id="patch_11">
    <path clip-path="url(#p365791b801)" d="M 79.716764 273.312 
L 81.338148 273.312 
L 81.338148 260.138139 
L 79.716764 260.138139 
z
" style="fill:#1f77b4;"/>
   </g>
   <g id="patch_12">
    <path clip-path="url(#p365791b801)" d="M 81.338148 273.312 
L 82.959531 273.312 
L 82.959531 257.001505 
L 81.338148 257.001505 
z
" style="fill:#1f77b4;"/>
   </g>
   <g id="patch_13">
    <path clip-path="url(#p365791b801)" d="M 82.959531 273.312 
L 84.580914 273.312 
L 84.580914 257.001505 
L 82.959531 257.001505 
z
" style="fill:#1f77b4;"/>
   </g>
   <g id="patch_14">
    <path clip-path="url(#p365791b801)" d="M 84.580914 273.312 
L 86.202298 273.312 
L 86.202298 258.256158 
L 84.580914 258.256158 
z
" style="fill:#1f77b4;"/>
   </g>
   <g id="patch_15">
    <path clip-path="url(#p365791b801)" d="M 86.202298 273.312 
L 87.823681 273.312 
L 87.823681 262.020119 
L 86.202298 262.020119 
z
" style="fill:#1f77b4;"/>
   </g>
   <g id="patch_16">
    <path clip-path="url(#p365791b801)" d="M 87.823681 273.312 
L 89.445065 273.312 
L 89.445065 262.020119 
L 87.823681 262.020119 
z
" style="fill:#1f77b4;"/>
   </g>
   <g id="patch_17">
    <path clip-path="url(#p365791b801)" d="M 89.445065 273.312 
L 91.066448 273.312 
L 91.066448 247.591604 
L 89.445065 247.591604 
z
" style="fill:#1f77b4;"/>
   </g>
   <g id="patch_18">
    <path clip-path="url(#p365791b801)" d="M 91.066448 273.312 
L 92.687831 273.312 
L 92.687831 254.492198 
L 91.066448 254.492198 
z
" style="fill:#1f77b4;"/>
   </g>
   <g id="patch_19">
    <path clip-path="url(#p365791b801)" d="M 92.687831 273.312 
L 94.309215 273.312 
L 94.309215 253.237545 
L 92.687831 253.237545 
z
" style="fill:#1f77b4;"/>
   </g>
   <g id="patch_20">
    <path clip-path="url(#p365791b801)" d="M 94.309215 273.312 
L 95.930598 273.312 
L 95.930598 253.237545 
L 94.309215 253.237545 
z
" style="fill:#1f77b4;"/>
   </g>
   <g id="patch_21">
    <path clip-path="url(#p365791b801)" d="M 95.930598 273.312 
L 97.551982 273.312 
L 97.551982 254.492198 
L 95.930598 254.492198 
z
" style="fill:#1f77b4;"/>
   </g>
   <g id="patch_22">
    <path clip-path="url(#p365791b801)" d="M 97.551982 273.312 
L 99.173365 273.312 
L 99.173365 256.374178 
L 97.551982 256.374178 
z
" style="fill:#1f77b4;"/>
   </g>
   <g id="patch_23">
    <path clip-path="url(#p365791b801)" d="M 99.173365 273.312 
L 100.794748 273.312 
L 100.794748 244.45497 
L 99.173365 244.45497 
z
" style="fill:#1f77b4;"/>
   </g>
   <g id="patch_24">
    <path clip-path="url(#p365791b801)" d="M 100.794748 273.312 
L 102.416132 273.312 
L 102.416132 243.200317 
L 100.794748 243.200317 
z
" style="fill:#1f77b4;"/>
   </g>
   <g id="patch_25">
    <path clip-path="url(#p365791b801)" d="M 102.416132 273.312 
L 104.037515 273.312 
L 104.037515 245.082297 
L 102.416132 245.082297 
z
" style="fill:#1f77b4;"/>
   </g>
   <g id="patch_26">
    <path clip-path="url(#p365791b801)" d="M 104.037515 273.312 
L 105.658899 273.312 
L 105.658899 246.33695 
L 104.037515 246.33695 
z
" style="fill:#1f77b4;"/>
   </g>
   <g id="patch_27">
    <path clip-path="url(#p365791b801)" d="M 105.658899 273.312 
L 107.280282 273.312 
L 107.280282 238.80903 
L 105.658899 238.80903 
z
" style="fill:#1f77b4;"/>
   </g>
   <g id="patch_28">
    <path clip-path="url(#p365791b801)" d="M 107.280282 273.312 
L 108.901665 273.312 
L 108.901665 235.672396 
L 107.280282 235.672396 
z
" style="fill:#1f77b4;"/>
   </g>
   <g id="patch_29">
    <path clip-path="url(#p365791b801)" d="M 108.901665 273.312 
L 110.523049 273.312 
L 110.523049 233.790416 
L 108.901665 233.790416 
z
" style="fill:#1f77b4;"/>
   </g>
   <g id="patch_30">
    <path clip-path="url(#p365791b801)" d="M 110.523049 273.312 
L 112.144432 273.312 
L 112.144432 241.945663 
L 110.523049 241.945663 
z
" style="fill:#1f77b4;"/>
   </g>
   <g id="patch_31">
    <path clip-path="url(#p365791b801)" d="M 112.144432 273.312 
L 113.765815 273.312 
L 113.765815 246.33695 
L 112.144432 246.33695 
z
" style="fill:#1f77b4;"/>
   </g>
   <g id="patch_32">
    <path clip-path="url(#p365791b801)" d="M 113.765815 273.312 
L 115.387199 273.312 
L 115.387199 238.80903 
L 113.765815 238.80903 
z
" style="fill:#1f77b4;"/>
   </g>
   <g id="patch_33">
    <path clip-path="url(#p365791b801)" d="M 115.387199 273.312 
L 117.008582 273.312 
L 117.008582 240.69101 
L 115.387199 240.69101 
z
" style="fill:#1f77b4;"/>
   </g>
   <g id="patch_34">
    <path clip-path="url(#p365791b801)" d="M 117.008582 273.312 
L 118.629966 273.312 
L 118.629966 230.653782 
L 117.008582 230.653782 
z
" style="fill:#1f77b4;"/>
   </g>
   <g id="patch_35">
    <path clip-path="url(#p365791b801)" d="M 118.629966 273.312 
L 120.251349 273.312 
L 120.251349 236.92705 
L 118.629966 236.92705 
z
" style="fill:#1f77b4;"/>
   </g>
   <g id="patch_36">
    <path clip-path="url(#p365791b801)" d="M 120.251349 273.312 
L 121.872732 273.312 
L 121.872732 232.535762 
L 120.251349 232.535762 
z
" style="fill:#1f77b4;"/>
   </g>
   <g id="patch_37">
    <path clip-path="url(#p365791b801)" d="M 121.872732 273.312 
L 123.494116 273.312 
L 123.494116 231.281109 
L 121.872732 231.281109 
z
" style="fill:#1f77b4;"/>
   </g>
   <g id="patch_38">
    <path clip-path="url(#p365791b801)" d="M 123.494116 273.312 
L 125.115499 273.312 
L 125.115499 228.144475 
L 123.494116 228.144475 
z
" style="fill:#1f77b4;"/>
   </g>
   <g id="patch_39">
    <path clip-path="url(#p365791b801)" d="M 125.115499 273.312 
L 126.736883 273.312 
L 126.736883 221.871208 
L 125.115499 221.871208 
z
" style="fill:#1f77b4;"/>
   </g>
   <g id="patch_40">
    <path clip-path="url(#p365791b801)" d="M 126.736883 273.312 
L 128.358266 273.312 
L 128.358266 235.672396 
L 126.736883 235.672396 
z
" style="fill:#1f77b4;"/>
   </g>
   <g id="patch_41">
    <path clip-path="url(#p365791b801)" d="M 128.358266 273.312 
L 129.979649 273.312 
L 129.979649 221.871208 
L 128.358266 221.871208 
z
" style="fill:#1f77b4;"/>
   </g>
   <g id="patch_42">
    <path clip-path="url(#p365791b801)" d="M 129.979649 273.312 
L 131.601033 273.312 
L 131.601033 223.753188 
L 129.979649 223.753188 
z
" style="fill:#1f77b4;"/>
   </g>
   <g id="patch_43">
    <path clip-path="url(#p365791b801)" d="M 131.601033 273.312 
L 133.222416 273.312 
L 133.222416 221.243881 
L 131.601033 221.243881 
z
" style="fill:#1f77b4;"/>
   </g>
   <g id="patch_44">
    <path clip-path="url(#p365791b801)" d="M 133.222416 273.312 
L 134.8438 273.312 
L 134.8438 218.734574 
L 133.222416 218.734574 
z
" style="fill:#1f77b4;"/>
   </g>
   <g id="patch_45">
    <path clip-path="url(#p365791b801)" d="M 134.8438 273.312 
L 136.465183 273.312 
L 136.465183 213.088634 
L 134.8438 213.088634 
z
" style="fill:#1f77b4;"/>
   </g>
   <g id="patch_46">
    <path clip-path="url(#p365791b801)" d="M 136.465183 273.312 
L 138.086566 273.312 
L 138.086566 220.616554 
L 136.465183 220.616554 
z
" style="fill:#1f77b4;"/>
   </g>
   <g id="patch_47">
    <path clip-path="url(#p365791b801)" d="M 138.086566 273.312 
L 139.70795 273.312 
L 139.70795 215.597941 
L 138.086566 215.597941 
z
" style="fill:#1f77b4;"/>
   </g>
   <g id="patch_48">
    <path clip-path="url(#p365791b801)" d="M 139.70795 273.312 
L 141.329333 273.312 
L 141.329333 216.852594 
L 139.70795 216.852594 
z
" style="fill:#1f77b4;"/>
   </g>
   <g id="patch_49">
    <path clip-path="url(#p365791b801)" d="M 141.329333 273.312 
L 142.950717 273.312 
L 142.950717 204.306059 
L 141.329333 204.306059 
z
" style="fill:#1f77b4;"/>
   </g>
   <g id="patch_50">
    <path clip-path="url(#p365791b801)" d="M 142.950717 273.312 
L 144.5721 273.312 
L 144.5721 217.479921 
L 142.950717 217.479921 
z
" style="fill:#1f77b4;"/>
   </g>
   <g id="patch_51">
    <path clip-path="url(#p365791b801)" d="M 144.5721 273.312 
L 146.193483 273.312 
L 146.193483 215.597941 
L 144.5721 215.597941 
z
" style="fill:#1f77b4;"/>
   </g>
   <g id="patch_52">
    <path clip-path="url(#p365791b801)" d="M 146.193483 273.312 
L 147.814867 273.312 
L 147.814867 228.144475 
L 146.193483 228.144475 
z
" style="fill:#1f77b4;"/>
   </g>
   <g id="patch_53">
    <path clip-path="url(#p365791b801)" d="M 147.814867 273.312 
L 149.43625 273.312 
L 149.43625 218.107248 
L 147.814867 218.107248 
z
" style="fill:#1f77b4;"/>
   </g>
   <g id="patch_54">
    <path clip-path="url(#p365791b801)" d="M 149.43625 273.312 
L 151.057634 273.312 
L 151.057634 206.815366 
L 149.43625 206.815366 
z
" style="fill:#1f77b4;"/>
   </g>
   <g id="patch_55">
    <path clip-path="url(#p365791b801)" d="M 151.057634 273.312 
L 152.679017 273.312 
L 152.679017 211.206653 
L 151.057634 211.206653 
z
" style="fill:#1f77b4;"/>
   </g>
   <g id="patch_56">
    <path clip-path="url(#p365791b801)" d="M 152.679017 273.312 
L 154.3004 273.312 
L 154.3004 200.542099 
L 152.679017 200.542099 
z
" style="fill:#1f77b4;"/>
   </g>
   <g id="patch_57">
    <path clip-path="url(#p365791b801)" d="M 154.3004 273.312 
L 155.921784 273.312 
L 155.921784 215.597941 
L 154.3004 215.597941 
z
" style="fill:#1f77b4;"/>
   </g>
   <g id="patch_58">
    <path clip-path="url(#p365791b801)" d="M 155.921784 273.312 
L 157.543167 273.312 
L 157.543167 196.778139 
L 155.921784 196.778139 
z
" style="fill:#1f77b4;"/>
   </g>
   <g id="patch_59">
    <path clip-path="url(#p365791b801)" d="M 157.543167 273.312 
L 159.164551 273.312 
L 159.164551 198.032792 
L 157.543167 198.032792 
z
" style="fill:#1f77b4;"/>
   </g>
   <g id="patch_60">
    <path clip-path="url(#p365791b801)" d="M 159.164551 273.312 
L 160.785934 273.312 
L 160.785934 192.386851 
L 159.164551 192.386851 
z
" style="fill:#1f77b4;"/>
   </g>
   <g id="patch_61">
    <path clip-path="url(#p365791b801)" d="M 160.785934 273.312 
L 162.407317 273.312 
L 162.407317 203.678733 
L 160.785934 203.678733 
z
" style="fill:#1f77b4;"/>
   </g>
   <g id="patch_62">
    <path clip-path="url(#p365791b801)" d="M 162.407317 273.312 
L 164.028701 273.312 
L 164.028701 206.18804 
L 162.407317 206.18804 
z
" style="fill:#1f77b4;"/>
   </g>
   <g id="patch_63">
    <path clip-path="url(#p365791b801)" d="M 164.028701 273.312 
L 165.650084 273.312 
L 165.650084 202.424079 
L 164.028701 202.424079 
z
" style="fill:#1f77b4;"/>
   </g>
   <g id="patch_64">
    <path clip-path="url(#p365791b801)" d="M 165.650084 273.312 
L 167.271468 273.312 
L 167.271468 193.641505 
L 165.650084 193.641505 
z
" style="fill:#1f77b4;"/>
   </g>
   <g id="patch_65">
    <path clip-path="url(#p365791b801)" d="M 167.271468 273.312 
L 168.892851 273.312 
L 168.892851 197.405465 
L 167.271468 197.405465 
z
" style="fill:#1f77b4;"/>
   </g>
   <g id="patch_66">
    <path clip-path="url(#p365791b801)" d="M 168.892851 273.312 
L 170.514234 273.312 
L 170.514234 196.150812 
L 168.892851 196.150812 
z
" style="fill:#1f77b4;"/>
   </g>
   <g id="patch_67">
    <path clip-path="url(#p365791b801)" d="M 170.514234 273.312 
L 172.135618 273.312 
L 172.135618 187.995564 
L 170.514234 187.995564 
z
" style="fill:#1f77b4;"/>
   </g>
   <g id="patch_68">
    <path clip-path="url(#p365791b801)" d="M 172.135618 273.312 
L 173.757001 273.312 
L 173.757001 191.759525 
L 172.135618 191.759525 
z
" style="fill:#1f77b4;"/>
   </g>
   <g id="patch_69">
    <path clip-path="url(#p365791b801)" d="M 173.757001 273.312 
L 175.378384 273.312 
L 175.378384 182.97695 
L 173.757001 182.97695 
z
" style="fill:#1f77b4;"/>
   </g>
   <g id="patch_70">
    <path clip-path="url(#p365791b801)" d="M 175.378384 273.312 
L 176.999768 273.312 
L 176.999768 189.877545 
L 175.378384 189.877545 
z
" style="fill:#1f77b4;"/>
   </g>
   <g id="patch_71">
    <path clip-path="url(#p365791b801)" d="M 176.999768 273.312 
L 178.621151 273.312 
L 178.621151 191.759525 
L 176.999768 191.759525 
z
" style="fill:#1f77b4;"/>
   </g>
   <g id="patch_72">
    <path clip-path="url(#p365791b801)" d="M 178.621151 273.312 
L 180.242535 273.312 
L 180.242535 185.486257 
L 178.621151 185.486257 
z
" style="fill:#1f77b4;"/>
   </g>
   <g id="patch_73">
    <path clip-path="url(#p365791b801)" d="M 180.242535 273.312 
L 181.863918 273.312 
L 181.863918 181.722297 
L 180.242535 181.722297 
z
" style="fill:#1f77b4;"/>
   </g>
   <g id="patch_74">
    <path clip-path="url(#p365791b801)" d="M 181.863918 273.312 
L 183.485301 273.312 
L 183.485301 194.268832 
L 181.863918 194.268832 
z
" style="fill:#1f77b4;"/>
   </g>
   <g id="patch_75">
    <path clip-path="url(#p365791b801)" d="M 183.485301 273.312 
L 185.106685 273.312 
L 185.106685 191.759525 
L 183.485301 191.759525 
z
" style="fill:#1f77b4;"/>
   </g>
   <g id="patch_76">
    <path clip-path="url(#p365791b801)" d="M 185.106685 273.312 
L 186.728068 273.312 
L 186.728068 186.740911 
L 185.106685 186.740911 
z
" style="fill:#1f77b4;"/>
   </g>
   <g id="patch_77">
    <path clip-path="url(#p365791b801)" d="M 186.728068 273.312 
L 188.349452 273.312 
L 188.349452 177.33101 
L 186.728068 177.33101 
z
" style="fill:#1f77b4;"/>
   </g>
   <g id="patch_78">
    <path clip-path="url(#p365791b801)" d="M 188.349452 273.312 
L 189.970835 273.312 
L 189.970835 173.56705 
L 188.349452 173.56705 
z
" style="fill:#1f77b4;"/>
   </g>
   <g id="patch_79">
    <path clip-path="url(#p365791b801)" d="M 189.970835 273.312 
L 191.592218 273.312 
L 191.592218 177.33101 
L 189.970835 177.33101 
z
" style="fill:#1f77b4;"/>
   </g>
   <g id="patch_80">
    <path clip-path="url(#p365791b801)" d="M 191.592218 273.312 
L 193.213602 273.312 
L 193.213602 173.56705 
L 191.592218 173.56705 
z
" style="fill:#1f77b4;"/>
   </g>
   <g id="patch_81">
    <path clip-path="url(#p365791b801)" d="M 193.213602 273.312 
L 194.834985 273.312 
L 194.834985 169.175762 
L 193.213602 169.175762 
z
" style="fill:#1f77b4;"/>
   </g>
   <g id="patch_82">
    <path clip-path="url(#p365791b801)" d="M 194.834985 273.312 
L 196.456369 273.312 
L 196.456369 156.629228 
L 194.834985 156.629228 
z
" style="fill:#1f77b4;"/>
   </g>
   <g id="patch_83">
    <path clip-path="url(#p365791b801)" d="M 196.456369 273.312 
L 198.077752 273.312 
L 198.077752 181.09497 
L 196.456369 181.09497 
z
" style="fill:#1f77b4;"/>
   </g>
   <g id="patch_84">
    <path clip-path="url(#p365791b801)" d="M 198.077752 273.312 
L 199.699135 273.312 
L 199.699135 166.666455 
L 198.077752 166.666455 
z
" style="fill:#1f77b4;"/>
   </g>
   <g id="patch_85">
    <path clip-path="url(#p365791b801)" d="M 199.699135 273.312 
L 201.320519 273.312 
L 201.320519 171.685069 
L 199.699135 171.685069 
z
" style="fill:#1f77b4;"/>
   </g>
   <g id="patch_86">
    <path clip-path="url(#p365791b801)" d="M 201.320519 273.312 
L 202.941902 273.312 
L 202.941902 166.666455 
L 201.320519 166.666455 
z
" style="fill:#1f77b4;"/>
   </g>
   <g id="patch_87">
    <path clip-path="url(#p365791b801)" d="M 202.941902 273.312 
L 204.563286 273.312 
L 204.563286 175.44903 
L 202.941902 175.44903 
z
" style="fill:#1f77b4;"/>
   </g>
   <g id="patch_88">
    <path clip-path="url(#p365791b801)" d="M 204.563286 273.312 
L 206.184669 273.312 
L 206.184669 172.312396 
L 204.563286 172.312396 
z
" style="fill:#1f77b4;"/>
   </g>
   <g id="patch_89">
    <path clip-path="url(#p365791b801)" d="M 206.184669 273.312 
L 207.806052 273.312 
L 207.806052 162.902495 
L 206.184669 162.902495 
z
" style="fill:#1f77b4;"/>
   </g>
   <g id="patch_90">
    <path clip-path="url(#p365791b801)" d="M 207.806052 273.312 
L 209.427436 273.312 
L 209.427436 166.666455 
L 207.806052 166.666455 
z
" style="fill:#1f77b4;"/>
   </g>
   <g id="patch_91">
    <path clip-path="url(#p365791b801)" d="M 209.427436 273.312 
L 211.048819 273.312 
L 211.048819 164.157149 
L 209.427436 164.157149 
z
" style="fill:#1f77b4;"/>
   </g>
   <g id="patch_92">
    <path clip-path="url(#p365791b801)" d="M 211.048819 273.312 
L 212.670203 273.312 
L 212.670203 161.647842 
L 211.048819 161.647842 
z
" style="fill:#1f77b4;"/>
   </g>
   <g id="patch_93">
    <path clip-path="url(#p365791b801)" d="M 212.670203 273.312 
L 214.291586 273.312 
L 214.291586 152.865267 
L 212.670203 152.865267 
z
" style="fill:#1f77b4;"/>
   </g>
   <g id="patch_94">
    <path clip-path="url(#p365791b801)" d="M 214.291586 273.312 
L 215.912969 273.312 
L 215.912969 164.157149 
L 214.291586 164.157149 
z
" style="fill:#1f77b4;"/>
   </g>
   <g id="patch_95">
    <path clip-path="url(#p365791b801)" d="M 215.912969 273.312 
L 217.534353 273.312 
L 217.534353 163.529822 
L 215.912969 163.529822 
z
" style="fill:#1f77b4;"/>
   </g>
   <g id="patch_96">
    <path clip-path="url(#p365791b801)" d="M 217.534353 273.312 
L 219.155736 273.312 
L 219.155736 159.138535 
L 217.534353 159.138535 
z
" style="fill:#1f77b4;"/>
   </g>
   <g id="patch_97">
    <path clip-path="url(#p365791b801)" d="M 219.155736 273.312 
L 220.77712 273.312 
L 220.77712 159.765861 
L 219.155736 159.765861 
z
" style="fill:#1f77b4;"/>
   </g>
   <g id="patch_98">
    <path clip-path="url(#p365791b801)" d="M 220.77712 273.312 
L 222.398503 273.312 
L 222.398503 155.374574 
L 220.77712 155.374574 
z
" style="fill:#1f77b4;"/>
   </g>
   <g id="patch_99">
    <path clip-path="url(#p365791b801)" d="M 222.398503 273.312 
L 224.019886 273.312 
L 224.019886 156.629228 
L 222.398503 156.629228 
z
" style="fill:#1f77b4;"/>
   </g>
   <g id="patch_100">
    <path clip-path="url(#p365791b801)" d="M 224.019886 273.312 
L 225.64127 273.312 
L 225.64127 135.927446 
L 224.019886 135.927446 
z
" style="fill:#1f77b4;"/>
   </g>
   <g id="patch_101">
    <path clip-path="url(#p365791b801)" d="M 225.64127 273.312 
L 227.262653 273.312 
L 227.262653 154.119921 
L 225.64127 154.119921 
z
" style="fill:#1f77b4;"/>
   </g>
   <g id="patch_102">
    <path clip-path="url(#p365791b801)" d="M 227.262653 273.312 
L 228.884037 273.312 
L 228.884037 155.374574 
L 227.262653 155.374574 
z
" style="fill:#1f77b4;"/>
   </g>
   <g id="patch_103">
    <path clip-path="url(#p365791b801)" d="M 228.884037 273.312 
L 230.50542 273.312 
L 230.50542 139.064079 
L 228.884037 139.064079 
z
" style="fill:#1f77b4;"/>
   </g>
   <g id="patch_104">
    <path clip-path="url(#p365791b801)" d="M 230.50542 273.312 
L 232.126803 273.312 
L 232.126803 135.927446 
L 230.50542 135.927446 
z
" style="fill:#1f77b4;"/>
   </g>
   <g id="patch_105">
    <path clip-path="url(#p365791b801)" d="M 232.126803 273.312 
L 233.748187 273.312 
L 233.748187 141.573386 
L 232.126803 141.573386 
z
" style="fill:#1f77b4;"/>
   </g>
   <g id="patch_106">
    <path clip-path="url(#p365791b801)" d="M 233.748187 273.312 
L 235.36957 273.312 
L 235.36957 140.318733 
L 233.748187 140.318733 
z
" style="fill:#1f77b4;"/>
   </g>
   <g id="patch_107">
    <path clip-path="url(#p365791b801)" d="M 235.36957 273.312 
L 236.990953 273.312 
L 236.990953 152.237941 
L 235.36957 152.237941 
z
" style="fill:#1f77b4;"/>
   </g>
   <g id="patch_108">
    <path clip-path="url(#p365791b801)" d="M 236.990953 273.312 
L 238.612337 273.312 
L 238.612337 141.573386 
L 236.990953 141.573386 
z
" style="fill:#1f77b4;"/>
   </g>
   <g id="patch_109">
    <path clip-path="url(#p365791b801)" d="M 238.612337 273.312 
L 240.23372 273.312 
L 240.23372 149.728634 
L 238.612337 149.728634 
z
" style="fill:#1f77b4;"/>
   </g>
   <g id="patch_110">
    <path clip-path="url(#p365791b801)" d="M 240.23372 273.312 
L 241.855104 273.312 
L 241.855104 159.765861 
L 240.23372 159.765861 
z
" style="fill:#1f77b4;"/>
   </g>
   <g id="patch_111">
    <path clip-path="url(#p365791b801)" d="M 241.855104 273.312 
L 243.476487 273.312 
L 243.476487 144.082693 
L 241.855104 144.082693 
z
" style="fill:#1f77b4;"/>
   </g>
   <g id="patch_112">
    <path clip-path="url(#p365791b801)" d="M 243.476487 273.312 
L 245.09787 273.312 
L 245.09787 145.964673 
L 243.476487 145.964673 
z
" style="fill:#1f77b4;"/>
   </g>
   <g id="patch_113">
    <path clip-path="url(#p365791b801)" d="M 245.09787 273.312 
L 246.719254 273.312 
L 246.719254 120.244277 
L 245.09787 120.244277 
z
" style="fill:#1f77b4;"/>
   </g>
   <g id="patch_114">
    <path clip-path="url(#p365791b801)" d="M 246.719254 273.312 
L 248.340637 273.312 
L 248.340637 133.418139 
L 246.719254 133.418139 
z
" style="fill:#1f77b4;"/>
   </g>
   <g id="patch_115">
    <path clip-path="url(#p365791b801)" d="M 248.340637 273.312 
L 249.962021 273.312 
L 249.962021 134.672792 
L 248.340637 134.672792 
z
" style="fill:#1f77b4;"/>
   </g>
   <g id="patch_116">
    <path clip-path="url(#p365791b801)" d="M 249.962021 273.312 
L 251.583404 273.312 
L 251.583404 127.144871 
L 249.962021 127.144871 
z
" style="fill:#1f77b4;"/>
   </g>
   <g id="patch_117">
    <path clip-path="url(#p365791b801)" d="M 251.583404 273.312 
L 253.204787 273.312 
L 253.204787 134.045465 
L 251.583404 134.045465 
z
" style="fill:#1f77b4;"/>
   </g>
   <g id="patch_118">
    <path clip-path="url(#p365791b801)" d="M 253.204787 273.312 
L 254.826171 273.312 
L 254.826171 130.281505 
L 253.204787 130.281505 
z
" style="fill:#1f77b4;"/>
   </g>
   <g id="patch_119">
    <path clip-path="url(#p365791b801)" d="M 254.826171 273.312 
L 256.447554 273.312 
L 256.447554 111.461703 
L 254.826171 111.461703 
z
" style="fill:#1f77b4;"/>
   </g>
   <g id="patch_120">
    <path clip-path="url(#p365791b801)" d="M 256.447554 273.312 
L 258.068938 273.312 
L 258.068938 133.418139 
L 256.447554 133.418139 
z
" style="fill:#1f77b4;"/>
   </g>
   <g id="patch_121">
    <path clip-path="url(#p365791b801)" d="M 258.068938 273.312 
L 259.690321 273.312 
L 259.690321 137.182099 
L 258.068938 137.182099 
z
" style="fill:#1f77b4;"/>
   </g>
   <g id="patch_122">
    <path clip-path="url(#p365791b801)" d="M 259.690321 273.312 
L 261.311704 273.312 
L 261.311704 126.517545 
L 259.690321 126.517545 
z
" style="fill:#1f77b4;"/>
   </g>
   <g id="patch_123">
    <path clip-path="url(#p365791b801)" d="M 261.311704 273.312 
L 262.933088 273.312 
L 262.933088 127.144871 
L 261.311704 127.144871 
z
" style="fill:#1f77b4;"/>
   </g>
   <g id="patch_124">
    <path clip-path="url(#p365791b801)" d="M 262.933088 273.312 
L 264.554471 273.312 
L 264.554471 109.579723 
L 262.933088 109.579723 
z
" style="fill:#1f77b4;"/>
   </g>
   <g id="patch_125">
    <path clip-path="url(#p365791b801)" d="M 264.554471 273.312 
L 266.175855 273.312 
L 266.175855 117.73497 
L 264.554471 117.73497 
z
" style="fill:#1f77b4;"/>
   </g>
   <g id="patch_126">
    <path clip-path="url(#p365791b801)" d="M 266.175855 273.312 
L 267.797238 273.312 
L 267.797238 118.362297 
L 266.175855 118.362297 
z
" style="fill:#1f77b4;"/>
   </g>
   <g id="patch_127">
    <path clip-path="url(#p365791b801)" d="M 267.797238 273.312 
L 269.418621 273.312 
L 269.418621 115.225663 
L 267.797238 115.225663 
z
" style="fill:#1f77b4;"/>
   </g>
   <g id="patch_128">
    <path clip-path="url(#p365791b801)" d="M 269.418621 273.312 
L 271.040005 273.312 
L 271.040005 95.151208 
L 269.418621 95.151208 
z
" style="fill:#1f77b4;"/>
   </g>
   <g id="patch_129">
    <path clip-path="url(#p365791b801)" d="M 271.040005 273.312 
L 272.661388 273.312 
L 272.661388 131.536158 
L 271.040005 131.536158 
z
" style="fill:#1f77b4;"/>
   </g>
   <g id="patch_130">
    <path clip-path="url(#p365791b801)" d="M 272.661388 273.312 
L 274.282772 273.312 
L 274.282772 112.716356 
L 272.661388 112.716356 
z
" style="fill:#1f77b4;"/>
   </g>
   <g id="patch_131">
    <path clip-path="url(#p365791b801)" d="M 274.282772 273.312 
L 275.904155 273.312 
L 275.904155 117.107644 
L 274.282772 117.107644 
z
" style="fill:#1f77b4;"/>
   </g>
   <g id="patch_132">
    <path clip-path="url(#p365791b801)" d="M 275.904155 273.312 
L 277.525538 273.312 
L 277.525538 102.679129 
L 275.904155 102.679129 
z
" style="fill:#1f77b4;"/>
   </g>
   <g id="patch_133">
    <path clip-path="url(#p365791b801)" d="M 277.525538 273.312 
L 279.146922 273.312 
L 279.146922 125.890218 
L 277.525538 125.890218 
z
" style="fill:#1f77b4;"/>
   </g>
   <g id="patch_134">
    <path clip-path="url(#p365791b801)" d="M 279.146922 273.312 
L 280.768305 273.312 
L 280.768305 110.20705 
L 279.146922 110.20705 
z
" style="fill:#1f77b4;"/>
   </g>
   <g id="patch_135">
    <path clip-path="url(#p365791b801)" d="M 280.768305 273.312 
L 282.389689 273.312 
L 282.389689 77.586059 
L 280.768305 77.586059 
z
" style="fill:#1f77b4;"/>
   </g>
   <g id="patch_136">
    <path clip-path="url(#p365791b801)" d="M 282.389689 273.312 
L 284.011072 273.312 
L 284.011072 102.051802 
L 282.389689 102.051802 
z
" style="fill:#1f77b4;"/>
   </g>
   <g id="patch_137">
    <path clip-path="url(#p365791b801)" d="M 284.011072 273.312 
L 285.632455 273.312 
L 285.632455 125.262891 
L 284.011072 125.262891 
z
" style="fill:#1f77b4;"/>
   </g>
   <g id="patch_138">
    <path clip-path="url(#p365791b801)" d="M 285.632455 273.312 
L 287.253839 273.312 
L 287.253839 120.244277 
L 285.632455 120.244277 
z
" style="fill:#1f77b4;"/>
   </g>
   <g id="patch_139">
    <path clip-path="url(#p365791b801)" d="M 287.253839 273.312 
L 288.875222 273.312 
L 288.875222 100.169822 
L 287.253839 100.169822 
z
" style="fill:#1f77b4;"/>
   </g>
   <g id="patch_140">
    <path clip-path="url(#p365791b801)" d="M 288.875222 273.312 
L 290.496606 273.312 
L 290.496606 92.014574 
L 288.875222 92.014574 
z
" style="fill:#1f77b4;"/>
   </g>
   <g id="patch_141">
    <path clip-path="url(#p365791b801)" d="M 290.496606 273.312 
L 292.117989 273.312 
L 292.117989 81.977347 
L 290.496606 81.977347 
z
" style="fill:#1f77b4;"/>
   </g>
   <g id="patch_142">
    <path clip-path="url(#p365791b801)" d="M 292.117989 273.312 
L 293.739372 273.312 
L 293.739372 99.542495 
L 292.117989 99.542495 
z
" style="fill:#1f77b4;"/>
   </g>
   <g id="patch_143">
    <path clip-path="url(#p365791b801)" d="M 293.739372 273.312 
L 295.360756 273.312 
L 295.360756 95.151208 
L 293.739372 95.151208 
z
" style="fill:#1f77b4;"/>
   </g>
   <g id="patch_144">
    <path clip-path="url(#p365791b801)" d="M 295.360756 273.312 
L 296.982139 273.312 
L 296.982139 98.915168 
L 295.360756 98.915168 
z
" style="fill:#1f77b4;"/>
   </g>
   <g id="patch_145">
    <path clip-path="url(#p365791b801)" d="M 296.982139 273.312 
L 298.603522 273.312 
L 298.603522 92.641901 
L 296.982139 92.641901 
z
" style="fill:#1f77b4;"/>
   </g>
   <g id="patch_146">
    <path clip-path="url(#p365791b801)" d="M 298.603522 273.312 
L 300.224906 273.312 
L 300.224906 85.11398 
L 298.603522 85.11398 
z
" style="fill:#1f77b4;"/>
   </g>
   <g id="patch_147">
    <path clip-path="url(#p365791b801)" d="M 300.224906 273.312 
L 301.846289 273.312 
L 301.846289 86.368634 
L 300.224906 86.368634 
z
" style="fill:#1f77b4;"/>
   </g>
   <g id="patch_148">
    <path clip-path="url(#p365791b801)" d="M 301.846289 273.312 
L 303.467673 273.312 
L 303.467673 73.194772 
L 301.846289 73.194772 
z
" style="fill:#1f77b4;"/>
   </g>
   <g id="patch_149">
    <path clip-path="url(#p365791b801)" d="M 303.467673 273.312 
L 305.089056 273.312 
L 305.089056 82.604673 
L 303.467673 82.604673 
z
" style="fill:#1f77b4;"/>
   </g>
   <g id="patch_150">
    <path clip-path="url(#p365791b801)" d="M 305.089056 273.312 
L 306.710439 273.312 
L 306.710439 100.797149 
L 305.089056 100.797149 
z
" style="fill:#1f77b4;"/>
   </g>
   <g id="patch_151">
    <path clip-path="url(#p365791b801)" d="M 306.710439 273.312 
L 308.331823 273.312 
L 308.331823 73.194772 
L 306.710439 73.194772 
z
" style="fill:#1f77b4;"/>
   </g>
   <g id="patch_152">
    <path clip-path="url(#p365791b801)" d="M 308.331823 273.312 
L 309.953206 273.312 
L 309.953206 71.940119 
L 308.331823 71.940119 
z
" style="fill:#1f77b4;"/>
   </g>
   <g id="patch_153">
    <path clip-path="url(#p365791b801)" d="M 309.953206 273.312 
L 311.57459 273.312 
L 311.57459 74.449426 
L 309.953206 74.449426 
z
" style="fill:#1f77b4;"/>
   </g>
   <g id="patch_154">
    <path clip-path="url(#p365791b801)" d="M 311.57459 273.312 
L 313.195973 273.312 
L 313.195973 90.759921 
L 311.57459 90.759921 
z
" style="fill:#1f77b4;"/>
   </g>
   <g id="patch_155">
    <path clip-path="url(#p365791b801)" d="M 313.195973 273.312 
L 314.817356 273.312 
L 314.817356 85.741307 
L 313.195973 85.741307 
z
" style="fill:#1f77b4;"/>
   </g>
   <g id="patch_156">
    <path clip-path="url(#p365791b801)" d="M 314.817356 273.312 
L 316.43874 273.312 
L 316.43874 84.486653 
L 314.817356 84.486653 
z
" style="fill:#1f77b4;"/>
   </g>
   <g id="patch_157">
    <path clip-path="url(#p365791b801)" d="M 316.43874 273.312 
L 318.060123 273.312 
L 318.060123 75.704079 
L 316.43874 75.704079 
z
" style="fill:#1f77b4;"/>
   </g>
   <g id="patch_158">
    <path clip-path="url(#p365791b801)" d="M 318.060123 273.312 
L 319.681507 273.312 
L 319.681507 66.294178 
L 318.060123 66.294178 
z
" style="fill:#1f77b4;"/>
   </g>
   <g id="patch_159">
    <path clip-path="url(#p365791b801)" d="M 319.681507 273.312 
L 321.30289 273.312 
L 321.30289 75.076752 
L 319.681507 75.076752 
z
" style="fill:#1f77b4;"/>
   </g>
   <g id="patch_160">
    <path clip-path="url(#p365791b801)" d="M 321.30289 273.312 
L 322.924273 273.312 
L 322.924273 90.132594 
L 321.30289 90.132594 
z
" style="fill:#1f77b4;"/>
   </g>
   <g id="patch_161">
    <path clip-path="url(#p365791b801)" d="M 322.924273 273.312 
L 324.545657 273.312 
L 324.545657 68.803485 
L 322.924273 68.803485 
z
" style="fill:#1f77b4;"/>
   </g>
   <g id="patch_162">
    <path clip-path="url(#p365791b801)" d="M 324.545657 273.312 
L 326.16704 273.312 
L 326.16704 83.232 
L 324.545657 83.232 
z
" style="fill:#1f77b4;"/>
   </g>
   <g id="patch_163">
    <path clip-path="url(#p365791b801)" d="M 326.16704 273.312 
L 327.788424 273.312 
L 327.788424 65.666851 
L 326.16704 65.666851 
z
" style="fill:#1f77b4;"/>
   </g>
   <g id="patch_164">
    <path clip-path="url(#p365791b801)" d="M 327.788424 273.312 
L 329.409807 273.312 
L 329.409807 70.685465 
L 327.788424 70.685465 
z
" style="fill:#1f77b4;"/>
   </g>
   <g id="patch_165">
    <path clip-path="url(#p365791b801)" d="M 329.409807 273.312 
L 331.03119 273.312 
L 331.03119 78.213386 
L 329.409807 78.213386 
z
" style="fill:#1f77b4;"/>
   </g>
   <g id="patch_166">
    <path clip-path="url(#p365791b801)" d="M 331.03119 273.312 
L 332.652574 273.312 
L 332.652574 63.784871 
L 331.03119 63.784871 
z
" style="fill:#1f77b4;"/>
   </g>
   <g id="patch_167">
    <path clip-path="url(#p365791b801)" d="M 332.652574 273.312 
L 334.273957 273.312 
L 334.273957 57.511604 
L 332.652574 57.511604 
z
" style="fill:#1f77b4;"/>
   </g>
   <g id="patch_168">
    <path clip-path="url(#p365791b801)" d="M 334.273957 273.312 
L 335.895341 273.312 
L 335.895341 69.430812 
L 334.273957 69.430812 
z
" style="fill:#1f77b4;"/>
   </g>
   <g id="patch_169">
    <path clip-path="url(#p365791b801)" d="M 335.895341 273.312 
L 337.516724 273.312 
L 337.516724 41.201109 
L 335.895341 41.201109 
z
" style="fill:#1f77b4;"/>
   </g>
   <g id="patch_170">
    <path clip-path="url(#p365791b801)" d="M 337.516724 273.312 
L 339.138107 273.312 
L 339.138107 71.940119 
L 337.516724 71.940119 
z
" style="fill:#1f77b4;"/>
   </g>
   <g id="patch_171">
    <path clip-path="url(#p365791b801)" d="M 339.138107 273.312 
L 340.759491 273.312 
L 340.759491 58.766257 
L 339.138107 58.766257 
z
" style="fill:#1f77b4;"/>
   </g>
   <g id="patch_172">
    <path clip-path="url(#p365791b801)" d="M 340.759491 273.312 
L 342.380874 273.312 
L 342.380874 57.511604 
L 340.759491 57.511604 
z
" style="fill:#1f77b4;"/>
   </g>
   <g id="patch_173">
    <path clip-path="url(#p365791b801)" d="M 342.380874 273.312 
L 344.002258 273.312 
L 344.002258 60.020911 
L 342.380874 60.020911 
z
" style="fill:#1f77b4;"/>
   </g>
   <g id="patch_174">
    <path clip-path="url(#p365791b801)" d="M 344.002258 273.312 
L 345.623641 273.312 
L 345.623641 53.747644 
L 344.002258 53.747644 
z
" style="fill:#1f77b4;"/>
   </g>
   <g id="patch_175">
    <path clip-path="url(#p365791b801)" d="M 345.623641 273.312 
L 347.245024 273.312 
L 347.245024 31.791208 
L 345.623641 31.791208 
z
" style="fill:#1f77b4;"/>
   </g>
   <g id="patch_176">
    <path clip-path="url(#p365791b801)" d="M 347.245024 273.312 
L 348.866408 273.312 
L 348.866408 39.946455 
L 347.245024 39.946455 
z
" style="fill:#1f77b4;"/>
   </g>
   <g id="patch_177">
    <path clip-path="url(#p365791b801)" d="M 348.866408 273.312 
L 350.487791 273.312 
L 350.487791 62.530218 
L 348.866408 62.530218 
z
" style="fill:#1f77b4;"/>
   </g>
   <g id="patch_178">
    <path clip-path="url(#p365791b801)" d="M 350.487791 273.312 
L 352.109175 273.312 
L 352.109175 51.865663 
L 350.487791 51.865663 
z
" style="fill:#1f77b4;"/>
   </g>
   <g id="patch_179">
    <path clip-path="url(#p365791b801)" d="M 352.109175 273.312 
L 353.730558 273.312 
L 353.730558 47.474376 
L 352.109175 47.474376 
z
" style="fill:#1f77b4;"/>
   </g>
   <g id="patch_180">
    <path clip-path="url(#p365791b801)" d="M 353.730558 273.312 
L 355.351941 273.312 
L 355.351941 73.822099 
L 353.730558 73.822099 
z
" style="fill:#1f77b4;"/>
   </g>
   <g id="patch_181">
    <path clip-path="url(#p365791b801)" d="M 355.351941 273.312 
L 356.973325 273.312 
L 356.973325 44.337743 
L 355.351941 44.337743 
z
" style="fill:#1f77b4;"/>
   </g>
   <g id="patch_182">
    <path clip-path="url(#p365791b801)" d="M 356.973325 273.312 
L 358.594708 273.312 
L 358.594708 44.965069 
L 356.973325 44.965069 
z
" style="fill:#1f77b4;"/>
   </g>
   <g id="patch_183">
    <path clip-path="url(#p365791b801)" d="M 358.594708 273.312 
L 360.216091 273.312 
L 360.216091 55.002297 
L 358.594708 55.002297 
z
" style="fill:#1f77b4;"/>
   </g>
   <g id="patch_184">
    <path clip-path="url(#p365791b801)" d="M 360.216091 273.312 
L 361.837475 273.312 
L 361.837475 44.337743 
L 360.216091 44.337743 
z
" style="fill:#1f77b4;"/>
   </g>
   <g id="patch_185">
    <path clip-path="url(#p365791b801)" d="M 361.837475 273.312 
L 363.458858 273.312 
L 363.458858 51.238337 
L 361.837475 51.238337 
z
" style="fill:#1f77b4;"/>
   </g>
   <g id="patch_186">
    <path clip-path="url(#p365791b801)" d="M 363.458858 273.312 
L 365.080242 273.312 
L 365.080242 43.083089 
L 363.458858 43.083089 
z
" style="fill:#1f77b4;"/>
   </g>
   <g id="patch_187">
    <path clip-path="url(#p365791b801)" d="M 365.080242 273.312 
L 366.701625 273.312 
L 366.701625 34.927842 
L 365.080242 34.927842 
z
" style="fill:#1f77b4;"/>
   </g>
   <g id="patch_188">
    <path clip-path="url(#p365791b801)" d="M 366.701625 273.312 
L 368.323008 273.312 
L 368.323008 26.145267 
L 366.701625 26.145267 
z
" style="fill:#1f77b4;"/>
   </g>
   <g id="patch_189">
    <path clip-path="url(#p365791b801)" d="M 368.323008 273.312 
L 369.944392 273.312 
L 369.944392 24.263287 
L 368.323008 24.263287 
z
" style="fill:#1f77b4;"/>
   </g>
   <g id="patch_190">
    <path clip-path="url(#p365791b801)" d="M 369.944392 273.312 
L 371.565775 273.312 
L 371.565775 19.872 
L 369.944392 19.872 
z
" style="fill:#1f77b4;"/>
   </g>
   <g id="patch_191">
    <path clip-path="url(#p365791b801)" d="M 371.565775 273.312 
L 373.187159 273.312 
L 373.187159 39.946455 
L 371.565775 39.946455 
z
" style="fill:#1f77b4;"/>
   </g>
   <g id="patch_192">
    <path clip-path="url(#p365791b801)" d="M 373.187159 273.312 
L 374.808542 273.312 
L 374.808542 34.927842 
L 373.187159 34.927842 
z
" style="fill:#1f77b4;"/>
   </g>
   <g id="patch_193">
    <path clip-path="url(#p365791b801)" d="M 374.808542 273.312 
L 376.429925 273.312 
L 376.429925 28.027248 
L 374.808542 28.027248 
z
" style="fill:#1f77b4;"/>
   </g>
   <g id="patch_194">
    <path clip-path="url(#p365791b801)" d="M 376.429925 273.312 
L 378.051309 273.312 
L 378.051309 41.828436 
L 376.429925 41.828436 
z
" style="fill:#1f77b4;"/>
   </g>
   <g id="patch_195">
    <path clip-path="url(#p365791b801)" d="M 378.051309 273.312 
L 379.672692 273.312 
L 379.672692 34.300515 
L 378.051309 34.300515 
z
" style="fill:#1f77b4;"/>
   </g>
   <g id="patch_196">
    <path clip-path="url(#p365791b801)" d="M 379.672692 273.312 
L 381.294076 273.312 
L 381.294076 34.927842 
L 379.672692 34.927842 
z
" style="fill:#1f77b4;"/>
   </g>
   <g id="patch_197">
    <path clip-path="url(#p365791b801)" d="M 381.294076 273.312 
L 382.915459 273.312 
L 382.915459 42.455762 
L 381.294076 42.455762 
z
" style="fill:#1f77b4;"/>
   </g>
   <g id="patch_198">
    <path clip-path="url(#p365791b801)" d="M 382.915459 273.312 
L 384.536842 273.312 
L 384.536842 27.399921 
L 382.915459 27.399921 
z
" style="fill:#1f77b4;"/>
   </g>
   <g id="patch_199">
    <path clip-path="url(#p365791b801)" d="M 384.536842 273.312 
L 386.158226 273.312 
L 386.158226 39.946455 
L 384.536842 39.946455 
z
" style="fill:#1f77b4;"/>
   </g>
   <g id="patch_200">
    <path clip-path="url(#p365791b801)" d="M 386.158226 273.312 
L 387.779609 273.312 
L 387.779609 29.909228 
L 386.158226 29.909228 
z
" style="fill:#1f77b4;"/>
   </g>
   <g id="patch_201">
    <path clip-path="url(#p365791b801)" d="M 387.779609 273.312 
L 389.400993 273.312 
L 389.400993 30.536554 
L 387.779609 30.536554 
z
" style="fill:#1f77b4;"/>
   </g>
   <g id="patch_202">
    <path clip-path="url(#p365791b801)" d="M 389.400993 273.312 
L 391.022376 273.312 
L 391.022376 55.629624 
L 389.400993 55.629624 
z
" style="fill:#1f77b4;"/>
   </g>
   <g id="matplotlib.axis_1">
    <g id="xtick_1">
     <g id="line2d_1">
      <defs>
       <path d="M 0 0 
L 0 3.5 
" id="m4454a65cf7" style="stroke:#000000;stroke-width:0.8;"/>
      </defs>
      <g>
       <use style="stroke:#000000;stroke-width:0.8;" x="66.376477" xlink:href="#m4454a65cf7" y="273.312"/>
      </g>
     </g>
     <g id="text_1">
      <!-- 0.0 -->
      <g transform="translate(58.424915 287.910437)scale(0.1 -0.1)">
       <defs>
        <path d="M 2034 4250 
Q 1547 4250 1301 3770 
Q 1056 3291 1056 2328 
Q 1056 1369 1301 889 
Q 1547 409 2034 409 
Q 2525 409 2770 889 
Q 3016 1369 3016 2328 
Q 3016 3291 2770 3770 
Q 2525 4250 2034 4250 
z
M 2034 4750 
Q 2819 4750 3233 4129 
Q 3647 3509 3647 2328 
Q 3647 1150 3233 529 
Q 2819 -91 2034 -91 
Q 1250 -91 836 529 
Q 422 1150 422 2328 
Q 422 3509 836 4129 
Q 1250 4750 2034 4750 
z
" id="DejaVuSans-30" transform="scale(0.015625)"/>
        <path d="M 684 794 
L 1344 794 
L 1344 0 
L 684 0 
L 684 794 
z
" id="DejaVuSans-2e" transform="scale(0.015625)"/>
       </defs>
       <use xlink:href="#DejaVuSans-30"/>
       <use x="63.623047" xlink:href="#DejaVuSans-2e"/>
       <use x="95.410156" xlink:href="#DejaVuSans-30"/>
      </g>
     </g>
    </g>
    <g id="xtick_2">
     <g id="line2d_2">
      <g>
       <use style="stroke:#000000;stroke-width:0.8;" x="131.307386" xlink:href="#m4454a65cf7" y="273.312"/>
      </g>
     </g>
     <g id="text_2">
      <!-- 0.2 -->
      <g transform="translate(123.355824 287.910437)scale(0.1 -0.1)">
       <defs>
        <path d="M 1228 531 
L 3431 531 
L 3431 0 
L 469 0 
L 469 531 
Q 828 903 1448 1529 
Q 2069 2156 2228 2338 
Q 2531 2678 2651 2914 
Q 2772 3150 2772 3378 
Q 2772 3750 2511 3984 
Q 2250 4219 1831 4219 
Q 1534 4219 1204 4116 
Q 875 4013 500 3803 
L 500 4441 
Q 881 4594 1212 4672 
Q 1544 4750 1819 4750 
Q 2544 4750 2975 4387 
Q 3406 4025 3406 3419 
Q 3406 3131 3298 2873 
Q 3191 2616 2906 2266 
Q 2828 2175 2409 1742 
Q 1991 1309 1228 531 
z
" id="DejaVuSans-32" transform="scale(0.015625)"/>
       </defs>
       <use xlink:href="#DejaVuSans-30"/>
       <use x="63.623047" xlink:href="#DejaVuSans-2e"/>
       <use x="95.410156" xlink:href="#DejaVuSans-32"/>
      </g>
     </g>
    </g>
    <g id="xtick_3">
     <g id="line2d_3">
      <g>
       <use style="stroke:#000000;stroke-width:0.8;" x="196.238295" xlink:href="#m4454a65cf7" y="273.312"/>
      </g>
     </g>
     <g id="text_3">
      <!-- 0.4 -->
      <g transform="translate(188.286733 287.910437)scale(0.1 -0.1)">
       <defs>
        <path d="M 2419 4116 
L 825 1625 
L 2419 1625 
L 2419 4116 
z
M 2253 4666 
L 3047 4666 
L 3047 1625 
L 3713 1625 
L 3713 1100 
L 3047 1100 
L 3047 0 
L 2419 0 
L 2419 1100 
L 313 1100 
L 313 1709 
L 2253 4666 
z
" id="DejaVuSans-34" transform="scale(0.015625)"/>
       </defs>
       <use xlink:href="#DejaVuSans-30"/>
       <use x="63.623047" xlink:href="#DejaVuSans-2e"/>
       <use x="95.410156" xlink:href="#DejaVuSans-34"/>
      </g>
     </g>
    </g>
    <g id="xtick_4">
     <g id="line2d_4">
      <g>
       <use style="stroke:#000000;stroke-width:0.8;" x="261.169205" xlink:href="#m4454a65cf7" y="273.312"/>
      </g>
     </g>
     <g id="text_4">
      <!-- 0.6 -->
      <g transform="translate(253.217642 287.910437)scale(0.1 -0.1)">
       <defs>
        <path d="M 2113 2584 
Q 1688 2584 1439 2293 
Q 1191 2003 1191 1497 
Q 1191 994 1439 701 
Q 1688 409 2113 409 
Q 2538 409 2786 701 
Q 3034 994 3034 1497 
Q 3034 2003 2786 2293 
Q 2538 2584 2113 2584 
z
M 3366 4563 
L 3366 3988 
Q 3128 4100 2886 4159 
Q 2644 4219 2406 4219 
Q 1781 4219 1451 3797 
Q 1122 3375 1075 2522 
Q 1259 2794 1537 2939 
Q 1816 3084 2150 3084 
Q 2853 3084 3261 2657 
Q 3669 2231 3669 1497 
Q 3669 778 3244 343 
Q 2819 -91 2113 -91 
Q 1303 -91 875 529 
Q 447 1150 447 2328 
Q 447 3434 972 4092 
Q 1497 4750 2381 4750 
Q 2619 4750 2861 4703 
Q 3103 4656 3366 4563 
z
" id="DejaVuSans-36" transform="scale(0.015625)"/>
       </defs>
       <use xlink:href="#DejaVuSans-30"/>
       <use x="63.623047" xlink:href="#DejaVuSans-2e"/>
       <use x="95.410156" xlink:href="#DejaVuSans-36"/>
      </g>
     </g>
    </g>
    <g id="xtick_5">
     <g id="line2d_5">
      <g>
       <use style="stroke:#000000;stroke-width:0.8;" x="326.100114" xlink:href="#m4454a65cf7" y="273.312"/>
      </g>
     </g>
     <g id="text_5">
      <!-- 0.8 -->
      <g transform="translate(318.148551 287.910437)scale(0.1 -0.1)">
       <defs>
        <path d="M 2034 2216 
Q 1584 2216 1326 1975 
Q 1069 1734 1069 1313 
Q 1069 891 1326 650 
Q 1584 409 2034 409 
Q 2484 409 2743 651 
Q 3003 894 3003 1313 
Q 3003 1734 2745 1975 
Q 2488 2216 2034 2216 
z
M 1403 2484 
Q 997 2584 770 2862 
Q 544 3141 544 3541 
Q 544 4100 942 4425 
Q 1341 4750 2034 4750 
Q 2731 4750 3128 4425 
Q 3525 4100 3525 3541 
Q 3525 3141 3298 2862 
Q 3072 2584 2669 2484 
Q 3125 2378 3379 2068 
Q 3634 1759 3634 1313 
Q 3634 634 3220 271 
Q 2806 -91 2034 -91 
Q 1263 -91 848 271 
Q 434 634 434 1313 
Q 434 1759 690 2068 
Q 947 2378 1403 2484 
z
M 1172 3481 
Q 1172 3119 1398 2916 
Q 1625 2713 2034 2713 
Q 2441 2713 2670 2916 
Q 2900 3119 2900 3481 
Q 2900 3844 2670 4047 
Q 2441 4250 2034 4250 
Q 1625 4250 1398 4047 
Q 1172 3844 1172 3481 
z
" id="DejaVuSans-38" transform="scale(0.015625)"/>
       </defs>
       <use xlink:href="#DejaVuSans-30"/>
       <use x="63.623047" xlink:href="#DejaVuSans-2e"/>
       <use x="95.410156" xlink:href="#DejaVuSans-38"/>
      </g>
     </g>
    </g>
    <g id="xtick_6">
     <g id="line2d_6">
      <g>
       <use style="stroke:#000000;stroke-width:0.8;" x="391.031023" xlink:href="#m4454a65cf7" y="273.312"/>
      </g>
     </g>
     <g id="text_6">
      <!-- 1.0 -->
      <g transform="translate(383.07946 287.910437)scale(0.1 -0.1)">
       <defs>
        <path d="M 794 531 
L 1825 531 
L 1825 4091 
L 703 3866 
L 703 4441 
L 1819 4666 
L 2450 4666 
L 2450 531 
L 3481 531 
L 3481 0 
L 794 0 
L 794 531 
z
" id="DejaVuSans-31" transform="scale(0.015625)"/>
       </defs>
       <use xlink:href="#DejaVuSans-31"/>
       <use x="63.623047" xlink:href="#DejaVuSans-2e"/>
       <use x="95.410156" xlink:href="#DejaVuSans-30"/>
      </g>
     </g>
    </g>
    <g id="text_7">
     <!-- Propagation direction -->
     <g transform="translate(175.221719 301.588562)scale(0.1 -0.1)">
      <defs>
       <path d="M 1259 4147 
L 1259 2394 
L 2053 2394 
Q 2494 2394 2734 2622 
Q 2975 2850 2975 3272 
Q 2975 3691 2734 3919 
Q 2494 4147 2053 4147 
L 1259 4147 
z
M 628 4666 
L 2053 4666 
Q 2838 4666 3239 4311 
Q 3641 3956 3641 3272 
Q 3641 2581 3239 2228 
Q 2838 1875 2053 1875 
L 1259 1875 
L 1259 0 
L 628 0 
L 628 4666 
z
" id="DejaVuSans-50" transform="scale(0.015625)"/>
       <path d="M 2631 2963 
Q 2534 3019 2420 3045 
Q 2306 3072 2169 3072 
Q 1681 3072 1420 2755 
Q 1159 2438 1159 1844 
L 1159 0 
L 581 0 
L 581 3500 
L 1159 3500 
L 1159 2956 
Q 1341 3275 1631 3429 
Q 1922 3584 2338 3584 
Q 2397 3584 2469 3576 
Q 2541 3569 2628 3553 
L 2631 2963 
z
" id="DejaVuSans-72" transform="scale(0.015625)"/>
       <path d="M 1959 3097 
Q 1497 3097 1228 2736 
Q 959 2375 959 1747 
Q 959 1119 1226 758 
Q 1494 397 1959 397 
Q 2419 397 2687 759 
Q 2956 1122 2956 1747 
Q 2956 2369 2687 2733 
Q 2419 3097 1959 3097 
z
M 1959 3584 
Q 2709 3584 3137 3096 
Q 3566 2609 3566 1747 
Q 3566 888 3137 398 
Q 2709 -91 1959 -91 
Q 1206 -91 779 398 
Q 353 888 353 1747 
Q 353 2609 779 3096 
Q 1206 3584 1959 3584 
z
" id="DejaVuSans-6f" transform="scale(0.015625)"/>
       <path d="M 1159 525 
L 1159 -1331 
L 581 -1331 
L 581 3500 
L 1159 3500 
L 1159 2969 
Q 1341 3281 1617 3432 
Q 1894 3584 2278 3584 
Q 2916 3584 3314 3078 
Q 3713 2572 3713 1747 
Q 3713 922 3314 415 
Q 2916 -91 2278 -91 
Q 1894 -91 1617 61 
Q 1341 213 1159 525 
z
M 3116 1747 
Q 3116 2381 2855 2742 
Q 2594 3103 2138 3103 
Q 1681 3103 1420 2742 
Q 1159 2381 1159 1747 
Q 1159 1113 1420 752 
Q 1681 391 2138 391 
Q 2594 391 2855 752 
Q 3116 1113 3116 1747 
z
" id="DejaVuSans-70" transform="scale(0.015625)"/>
       <path d="M 2194 1759 
Q 1497 1759 1228 1600 
Q 959 1441 959 1056 
Q 959 750 1161 570 
Q 1363 391 1709 391 
Q 2188 391 2477 730 
Q 2766 1069 2766 1631 
L 2766 1759 
L 2194 1759 
z
M 3341 1997 
L 3341 0 
L 2766 0 
L 2766 531 
Q 2569 213 2275 61 
Q 1981 -91 1556 -91 
Q 1019 -91 701 211 
Q 384 513 384 1019 
Q 384 1609 779 1909 
Q 1175 2209 1959 2209 
L 2766 2209 
L 2766 2266 
Q 2766 2663 2505 2880 
Q 2244 3097 1772 3097 
Q 1472 3097 1187 3025 
Q 903 2953 641 2809 
L 641 3341 
Q 956 3463 1253 3523 
Q 1550 3584 1831 3584 
Q 2591 3584 2966 3190 
Q 3341 2797 3341 1997 
z
" id="DejaVuSans-61" transform="scale(0.015625)"/>
       <path d="M 2906 1791 
Q 2906 2416 2648 2759 
Q 2391 3103 1925 3103 
Q 1463 3103 1205 2759 
Q 947 2416 947 1791 
Q 947 1169 1205 825 
Q 1463 481 1925 481 
Q 2391 481 2648 825 
Q 2906 1169 2906 1791 
z
M 3481 434 
Q 3481 -459 3084 -895 
Q 2688 -1331 1869 -1331 
Q 1566 -1331 1297 -1286 
Q 1028 -1241 775 -1147 
L 775 -588 
Q 1028 -725 1275 -790 
Q 1522 -856 1778 -856 
Q 2344 -856 2625 -561 
Q 2906 -266 2906 331 
L 2906 616 
Q 2728 306 2450 153 
Q 2172 0 1784 0 
Q 1141 0 747 490 
Q 353 981 353 1791 
Q 353 2603 747 3093 
Q 1141 3584 1784 3584 
Q 2172 3584 2450 3431 
Q 2728 3278 2906 2969 
L 2906 3500 
L 3481 3500 
L 3481 434 
z
" id="DejaVuSans-67" transform="scale(0.015625)"/>
       <path d="M 1172 4494 
L 1172 3500 
L 2356 3500 
L 2356 3053 
L 1172 3053 
L 1172 1153 
Q 1172 725 1289 603 
Q 1406 481 1766 481 
L 2356 481 
L 2356 0 
L 1766 0 
Q 1100 0 847 248 
Q 594 497 594 1153 
L 594 3053 
L 172 3053 
L 172 3500 
L 594 3500 
L 594 4494 
L 1172 4494 
z
" id="DejaVuSans-74" transform="scale(0.015625)"/>
       <path d="M 603 3500 
L 1178 3500 
L 1178 0 
L 603 0 
L 603 3500 
z
M 603 4863 
L 1178 4863 
L 1178 4134 
L 603 4134 
L 603 4863 
z
" id="DejaVuSans-69" transform="scale(0.015625)"/>
       <path d="M 3513 2113 
L 3513 0 
L 2938 0 
L 2938 2094 
Q 2938 2591 2744 2837 
Q 2550 3084 2163 3084 
Q 1697 3084 1428 2787 
Q 1159 2491 1159 1978 
L 1159 0 
L 581 0 
L 581 3500 
L 1159 3500 
L 1159 2956 
Q 1366 3272 1645 3428 
Q 1925 3584 2291 3584 
Q 2894 3584 3203 3211 
Q 3513 2838 3513 2113 
z
" id="DejaVuSans-6e" transform="scale(0.015625)"/>
       <path id="DejaVuSans-20" transform="scale(0.015625)"/>
       <path d="M 2906 2969 
L 2906 4863 
L 3481 4863 
L 3481 0 
L 2906 0 
L 2906 525 
Q 2725 213 2448 61 
Q 2172 -91 1784 -91 
Q 1150 -91 751 415 
Q 353 922 353 1747 
Q 353 2572 751 3078 
Q 1150 3584 1784 3584 
Q 2172 3584 2448 3432 
Q 2725 3281 2906 2969 
z
M 947 1747 
Q 947 1113 1208 752 
Q 1469 391 1925 391 
Q 2381 391 2643 752 
Q 2906 1113 2906 1747 
Q 2906 2381 2643 2742 
Q 2381 3103 1925 3103 
Q 1469 3103 1208 2742 
Q 947 2381 947 1747 
z
" id="DejaVuSans-64" transform="scale(0.015625)"/>
       <path d="M 3597 1894 
L 3597 1613 
L 953 1613 
Q 991 1019 1311 708 
Q 1631 397 2203 397 
Q 2534 397 2845 478 
Q 3156 559 3463 722 
L 3463 178 
Q 3153 47 2828 -22 
Q 2503 -91 2169 -91 
Q 1331 -91 842 396 
Q 353 884 353 1716 
Q 353 2575 817 3079 
Q 1281 3584 2069 3584 
Q 2775 3584 3186 3129 
Q 3597 2675 3597 1894 
z
M 3022 2063 
Q 3016 2534 2758 2815 
Q 2500 3097 2075 3097 
Q 1594 3097 1305 2825 
Q 1016 2553 972 2059 
L 3022 2063 
z
" id="DejaVuSans-65" transform="scale(0.015625)"/>
       <path d="M 3122 3366 
L 3122 2828 
Q 2878 2963 2633 3030 
Q 2388 3097 2138 3097 
Q 1578 3097 1268 2742 
Q 959 2388 959 1747 
Q 959 1106 1268 751 
Q 1578 397 2138 397 
Q 2388 397 2633 464 
Q 2878 531 3122 666 
L 3122 134 
Q 2881 22 2623 -34 
Q 2366 -91 2075 -91 
Q 1284 -91 818 406 
Q 353 903 353 1747 
Q 353 2603 823 3093 
Q 1294 3584 2113 3584 
Q 2378 3584 2631 3529 
Q 2884 3475 3122 3366 
z
" id="DejaVuSans-63" transform="scale(0.015625)"/>
      </defs>
      <use xlink:href="#DejaVuSans-50"/>
      <use x="58.552734" xlink:href="#DejaVuSans-72"/>
      <use x="97.416016" xlink:href="#DejaVuSans-6f"/>
      <use x="158.597656" xlink:href="#DejaVuSans-70"/>
      <use x="222.074219" xlink:href="#DejaVuSans-61"/>
      <use x="283.353516" xlink:href="#DejaVuSans-67"/>
      <use x="346.830078" xlink:href="#DejaVuSans-61"/>
      <use x="408.109375" xlink:href="#DejaVuSans-74"/>
      <use x="447.318359" xlink:href="#DejaVuSans-69"/>
      <use x="475.101562" xlink:href="#DejaVuSans-6f"/>
      <use x="536.283203" xlink:href="#DejaVuSans-6e"/>
      <use x="599.662109" xlink:href="#DejaVuSans-20"/>
      <use x="631.449219" xlink:href="#DejaVuSans-64"/>
      <use x="694.925781" xlink:href="#DejaVuSans-69"/>
      <use x="722.708984" xlink:href="#DejaVuSans-72"/>
      <use x="761.572266" xlink:href="#DejaVuSans-65"/>
      <use x="823.095703" xlink:href="#DejaVuSans-63"/>
      <use x="878.076172" xlink:href="#DejaVuSans-74"/>
      <use x="917.285156" xlink:href="#DejaVuSans-69"/>
      <use x="945.068359" xlink:href="#DejaVuSans-6f"/>
      <use x="1006.25" xlink:href="#DejaVuSans-6e"/>
     </g>
    </g>
   </g>
   <g id="matplotlib.axis_2">
    <g id="ytick_1">
     <g id="line2d_7">
      <defs>
       <path d="M 0 0 
L -3.5 0 
" id="mf538742682" style="stroke:#000000;stroke-width:0.8;"/>
      </defs>
      <g>
       <use style="stroke:#000000;stroke-width:0.8;" x="50.14375" xlink:href="#mf538742682" y="273.312"/>
      </g>
     </g>
     <g id="text_8">
      <!-- 0.00 -->
      <g transform="translate(20.878125 277.111219)scale(0.1 -0.1)">
       <use xlink:href="#DejaVuSans-30"/>
       <use x="63.623047" xlink:href="#DejaVuSans-2e"/>
       <use x="95.410156" xlink:href="#DejaVuSans-30"/>
       <use x="159.033203" xlink:href="#DejaVuSans-30"/>
      </g>
     </g>
    </g>
    <g id="ytick_2">
     <g id="line2d_8">
      <g>
       <use style="stroke:#000000;stroke-width:0.8;" x="50.14375" xlink:href="#mf538742682" y="241.982171"/>
      </g>
     </g>
     <g id="text_9">
      <!-- 0.25 -->
      <g transform="translate(20.878125 245.78139)scale(0.1 -0.1)">
       <defs>
        <path d="M 691 4666 
L 3169 4666 
L 3169 4134 
L 1269 4134 
L 1269 2991 
Q 1406 3038 1543 3061 
Q 1681 3084 1819 3084 
Q 2600 3084 3056 2656 
Q 3513 2228 3513 1497 
Q 3513 744 3044 326 
Q 2575 -91 1722 -91 
Q 1428 -91 1123 -41 
Q 819 9 494 109 
L 494 744 
Q 775 591 1075 516 
Q 1375 441 1709 441 
Q 2250 441 2565 725 
Q 2881 1009 2881 1497 
Q 2881 1984 2565 2268 
Q 2250 2553 1709 2553 
Q 1456 2553 1204 2497 
Q 953 2441 691 2322 
L 691 4666 
z
" id="DejaVuSans-35" transform="scale(0.015625)"/>
       </defs>
       <use xlink:href="#DejaVuSans-30"/>
       <use x="63.623047" xlink:href="#DejaVuSans-2e"/>
       <use x="95.410156" xlink:href="#DejaVuSans-32"/>
       <use x="159.033203" xlink:href="#DejaVuSans-35"/>
      </g>
     </g>
    </g>
    <g id="ytick_3">
     <g id="line2d_9">
      <g>
       <use style="stroke:#000000;stroke-width:0.8;" x="50.14375" xlink:href="#mf538742682" y="210.652342"/>
      </g>
     </g>
     <g id="text_10">
      <!-- 0.50 -->
      <g transform="translate(20.878125 214.45156)scale(0.1 -0.1)">
       <use xlink:href="#DejaVuSans-30"/>
       <use x="63.623047" xlink:href="#DejaVuSans-2e"/>
       <use x="95.410156" xlink:href="#DejaVuSans-35"/>
       <use x="159.033203" xlink:href="#DejaVuSans-30"/>
      </g>
     </g>
    </g>
    <g id="ytick_4">
     <g id="line2d_10">
      <g>
       <use style="stroke:#000000;stroke-width:0.8;" x="50.14375" xlink:href="#mf538742682" y="179.322512"/>
      </g>
     </g>
     <g id="text_11">
      <!-- 0.75 -->
      <g transform="translate(20.878125 183.121731)scale(0.1 -0.1)">
       <defs>
        <path d="M 525 4666 
L 3525 4666 
L 3525 4397 
L 1831 0 
L 1172 0 
L 2766 4134 
L 525 4134 
L 525 4666 
z
" id="DejaVuSans-37" transform="scale(0.015625)"/>
       </defs>
       <use xlink:href="#DejaVuSans-30"/>
       <use x="63.623047" xlink:href="#DejaVuSans-2e"/>
       <use x="95.410156" xlink:href="#DejaVuSans-37"/>
       <use x="159.033203" xlink:href="#DejaVuSans-35"/>
      </g>
     </g>
    </g>
    <g id="ytick_5">
     <g id="line2d_11">
      <g>
       <use style="stroke:#000000;stroke-width:0.8;" x="50.14375" xlink:href="#mf538742682" y="147.992683"/>
      </g>
     </g>
     <g id="text_12">
      <!-- 1.00 -->
      <g transform="translate(20.878125 151.791902)scale(0.1 -0.1)">
       <use xlink:href="#DejaVuSans-31"/>
       <use x="63.623047" xlink:href="#DejaVuSans-2e"/>
       <use x="95.410156" xlink:href="#DejaVuSans-30"/>
       <use x="159.033203" xlink:href="#DejaVuSans-30"/>
      </g>
     </g>
    </g>
    <g id="ytick_6">
     <g id="line2d_12">
      <g>
       <use style="stroke:#000000;stroke-width:0.8;" x="50.14375" xlink:href="#mf538742682" y="116.662854"/>
      </g>
     </g>
     <g id="text_13">
      <!-- 1.25 -->
      <g transform="translate(20.878125 120.462073)scale(0.1 -0.1)">
       <use xlink:href="#DejaVuSans-31"/>
       <use x="63.623047" xlink:href="#DejaVuSans-2e"/>
       <use x="95.410156" xlink:href="#DejaVuSans-32"/>
       <use x="159.033203" xlink:href="#DejaVuSans-35"/>
      </g>
     </g>
    </g>
    <g id="ytick_7">
     <g id="line2d_13">
      <g>
       <use style="stroke:#000000;stroke-width:0.8;" x="50.14375" xlink:href="#mf538742682" y="85.333025"/>
      </g>
     </g>
     <g id="text_14">
      <!-- 1.50 -->
      <g transform="translate(20.878125 89.132243)scale(0.1 -0.1)">
       <use xlink:href="#DejaVuSans-31"/>
       <use x="63.623047" xlink:href="#DejaVuSans-2e"/>
       <use x="95.410156" xlink:href="#DejaVuSans-35"/>
       <use x="159.033203" xlink:href="#DejaVuSans-30"/>
      </g>
     </g>
    </g>
    <g id="ytick_8">
     <g id="line2d_14">
      <g>
       <use style="stroke:#000000;stroke-width:0.8;" x="50.14375" xlink:href="#mf538742682" y="54.003195"/>
      </g>
     </g>
     <g id="text_15">
      <!-- 1.75 -->
      <g transform="translate(20.878125 57.802414)scale(0.1 -0.1)">
       <use xlink:href="#DejaVuSans-31"/>
       <use x="63.623047" xlink:href="#DejaVuSans-2e"/>
       <use x="95.410156" xlink:href="#DejaVuSans-37"/>
       <use x="159.033203" xlink:href="#DejaVuSans-35"/>
      </g>
     </g>
    </g>
    <g id="ytick_9">
     <g id="line2d_15">
      <g>
       <use style="stroke:#000000;stroke-width:0.8;" x="50.14375" xlink:href="#mf538742682" y="22.673366"/>
      </g>
     </g>
     <g id="text_16">
      <!-- 2.00 -->
      <g transform="translate(20.878125 26.472585)scale(0.1 -0.1)">
       <use xlink:href="#DejaVuSans-32"/>
       <use x="63.623047" xlink:href="#DejaVuSans-2e"/>
       <use x="95.410156" xlink:href="#DejaVuSans-30"/>
       <use x="159.033203" xlink:href="#DejaVuSans-30"/>
      </g>
     </g>
    </g>
    <g id="text_17">
     <!-- Probability density -->
     <g transform="translate(14.798438 186.606781)rotate(-90)scale(0.1 -0.1)">
      <defs>
       <path d="M 3116 1747 
Q 3116 2381 2855 2742 
Q 2594 3103 2138 3103 
Q 1681 3103 1420 2742 
Q 1159 2381 1159 1747 
Q 1159 1113 1420 752 
Q 1681 391 2138 391 
Q 2594 391 2855 752 
Q 3116 1113 3116 1747 
z
M 1159 2969 
Q 1341 3281 1617 3432 
Q 1894 3584 2278 3584 
Q 2916 3584 3314 3078 
Q 3713 2572 3713 1747 
Q 3713 922 3314 415 
Q 2916 -91 2278 -91 
Q 1894 -91 1617 61 
Q 1341 213 1159 525 
L 1159 0 
L 581 0 
L 581 4863 
L 1159 4863 
L 1159 2969 
z
" id="DejaVuSans-62" transform="scale(0.015625)"/>
       <path d="M 603 4863 
L 1178 4863 
L 1178 0 
L 603 0 
L 603 4863 
z
" id="DejaVuSans-6c" transform="scale(0.015625)"/>
       <path d="M 2059 -325 
Q 1816 -950 1584 -1140 
Q 1353 -1331 966 -1331 
L 506 -1331 
L 506 -850 
L 844 -850 
Q 1081 -850 1212 -737 
Q 1344 -625 1503 -206 
L 1606 56 
L 191 3500 
L 800 3500 
L 1894 763 
L 2988 3500 
L 3597 3500 
L 2059 -325 
z
" id="DejaVuSans-79" transform="scale(0.015625)"/>
       <path d="M 2834 3397 
L 2834 2853 
Q 2591 2978 2328 3040 
Q 2066 3103 1784 3103 
Q 1356 3103 1142 2972 
Q 928 2841 928 2578 
Q 928 2378 1081 2264 
Q 1234 2150 1697 2047 
L 1894 2003 
Q 2506 1872 2764 1633 
Q 3022 1394 3022 966 
Q 3022 478 2636 193 
Q 2250 -91 1575 -91 
Q 1294 -91 989 -36 
Q 684 19 347 128 
L 347 722 
Q 666 556 975 473 
Q 1284 391 1588 391 
Q 1994 391 2212 530 
Q 2431 669 2431 922 
Q 2431 1156 2273 1281 
Q 2116 1406 1581 1522 
L 1381 1569 
Q 847 1681 609 1914 
Q 372 2147 372 2553 
Q 372 3047 722 3315 
Q 1072 3584 1716 3584 
Q 2034 3584 2315 3537 
Q 2597 3491 2834 3397 
z
" id="DejaVuSans-73" transform="scale(0.015625)"/>
      </defs>
      <use xlink:href="#DejaVuSans-50"/>
      <use x="58.552734" xlink:href="#DejaVuSans-72"/>
      <use x="97.416016" xlink:href="#DejaVuSans-6f"/>
      <use x="158.597656" xlink:href="#DejaVuSans-62"/>
      <use x="222.074219" xlink:href="#DejaVuSans-61"/>
      <use x="283.353516" xlink:href="#DejaVuSans-62"/>
      <use x="346.830078" xlink:href="#DejaVuSans-69"/>
      <use x="374.613281" xlink:href="#DejaVuSans-6c"/>
      <use x="402.396484" xlink:href="#DejaVuSans-69"/>
      <use x="430.179688" xlink:href="#DejaVuSans-74"/>
      <use x="469.388672" xlink:href="#DejaVuSans-79"/>
      <use x="528.568359" xlink:href="#DejaVuSans-20"/>
      <use x="560.355469" xlink:href="#DejaVuSans-64"/>
      <use x="623.832031" xlink:href="#DejaVuSans-65"/>
      <use x="685.355469" xlink:href="#DejaVuSans-6e"/>
      <use x="748.734375" xlink:href="#DejaVuSans-73"/>
      <use x="800.833984" xlink:href="#DejaVuSans-69"/>
      <use x="828.617188" xlink:href="#DejaVuSans-74"/>
      <use x="867.826172" xlink:href="#DejaVuSans-79"/>
     </g>
    </g>
   </g>
   <g id="line2d_16">
    <path clip-path="url(#p365791b801)" d="M 66.376477 273.312 
L 391.031023 22.673366 
L 391.031023 22.673366 
" style="fill:none;stroke:#ff7f0e;stroke-linecap:square;stroke-width:1.5;"/>
   </g>
   <g id="patch_203">
    <path d="M 50.14375 273.312 
L 50.14375 7.2 
" style="fill:none;stroke:#000000;stroke-linecap:square;stroke-linejoin:miter;stroke-width:0.8;"/>
   </g>
   <g id="patch_204">
    <path d="M 407.26375 273.312 
L 407.26375 7.2 
" style="fill:none;stroke:#000000;stroke-linecap:square;stroke-linejoin:miter;stroke-width:0.8;"/>
   </g>
   <g id="patch_205">
    <path d="M 50.14375 273.312 
L 407.26375 273.312 
" style="fill:none;stroke:#000000;stroke-linecap:square;stroke-linejoin:miter;stroke-width:0.8;"/>
   </g>
   <g id="patch_206">
    <path d="M 50.14375 7.2 
L 407.26375 7.2 
" style="fill:none;stroke:#000000;stroke-linecap:square;stroke-linejoin:miter;stroke-width:0.8;"/>
   </g>
  </g>
 </g>
 <defs>
  <clipPath id="p365791b801">
   <rect height="266.112" width="357.12" x="50.14375" y="7.2"/>
  </clipPath>
 </defs>
</svg>
