<?xml version="1.0" encoding="utf-8" standalone="no"?>
<!DOCTYPE svg PUBLIC "-//W3C//DTD SVG 1.1//EN"
  "http://www.w3.org/Graphics/SVG/1.1/DTD/svg11.dtd">
<svg height="310.86825pt" version="1.1" viewBox="0 0 408.10125 310.86825" width="408.10125pt" xmlns="http://www.w3.org/2000/svg" xmlns:xlink="http://www.w3.org/1999/xlink">
 <metadata>
  <rdf:RDF xmlns:cc="http://creativecommons.org/ns#" xmlns:dc="http://purl.org/dc/elements/1.1/" xmlns:rdf="http://www.w3.org/1999/02/22-rdf-syntax-ns#">
   <cc:Work>
    <dc:type rdf:resource="http://purl.org/dc/dcmitype/StillImage"/>
    <dc:date>2021-06-22T05:05:45.202379</dc:date>
    <dc:format>image/svg+xml</dc:format>
    <dc:creator>
     <cc:Agent>
      <dc:title>Matplotlib v3.4.2, https://matplotlib.org/</dc:title>
     </cc:Agent>
    </dc:creator>
   </cc:Work>
  </rdf:RDF>
 </metadata>
 <defs>
  <style type="text/css">*{stroke-linecap:butt;stroke-linejoin:round;}</style>
 </defs>
 <g id="figure_1">
  <g id="patch_1">
   <path d="M 0 310.86825 
L 408.10125 310.86825 
L 408.10125 0 
L 0 0 
z
" style="fill:#ffffff;"/>
  </g>
  <g id="axes_1">
   <g id="patch_2">
    <path d="M 43.78125 273.312 
L 400.90125 273.312 
L 400.90125 7.2 
L 43.78125 7.2 
z
" style="fill:#ffffff;"/>
   </g>
   <g id="patch_3">
    <path clip-path="url(#p6868ff0ffb)" d="M 61.818537 273.312 
L 63.42082 273.312 
L 63.42082 266.050109 
L 61.818537 266.050109 
z
" style="fill:#1f77b4;"/>
   </g>
   <g id="patch_4">
    <path clip-path="url(#p6868ff0ffb)" d="M 63.42082 273.312 
L 65.023102 273.312 
L 65.023102 268.228676 
L 63.42082 268.228676 
z
" style="fill:#1f77b4;"/>
   </g>
   <g id="patch_5">
    <path clip-path="url(#p6868ff0ffb)" d="M 65.023102 273.312 
L 66.625385 273.312 
L 66.625385 263.871542 
L 65.023102 263.871542 
z
" style="fill:#1f77b4;"/>
   </g>
   <g id="patch_6">
    <path clip-path="url(#p6868ff0ffb)" d="M 66.625385 273.312 
L 68.227668 273.312 
L 68.227668 253.704894 
L 66.625385 253.704894 
z
" style="fill:#1f77b4;"/>
   </g>
   <g id="patch_7">
    <path clip-path="url(#p6868ff0ffb)" d="M 68.227668 273.312 
L 69.829951 273.312 
L 69.829951 255.157272 
L 68.227668 255.157272 
z
" style="fill:#1f77b4;"/>
   </g>
   <g id="patch_8">
    <path clip-path="url(#p6868ff0ffb)" d="M 69.829951 273.312 
L 71.432234 273.312 
L 71.432234 250.800138 
L 69.829951 250.800138 
z
" style="fill:#1f77b4;"/>
   </g>
   <g id="patch_9">
    <path clip-path="url(#p6868ff0ffb)" d="M 71.432234 273.312 
L 73.034517 273.312 
L 73.034517 248.62157 
L 71.432234 248.62157 
z
" style="fill:#1f77b4;"/>
   </g>
   <g id="patch_10">
    <path clip-path="url(#p6868ff0ffb)" d="M 73.034517 273.312 
L 74.636799 273.312 
L 74.636799 239.181112 
L 73.034517 239.181112 
z
" style="fill:#1f77b4;"/>
   </g>
   <g id="patch_11">
    <path clip-path="url(#p6868ff0ffb)" d="M 74.636799 273.312 
L 76.239082 273.312 
L 76.239082 232.64541 
L 74.636799 232.64541 
z
" style="fill:#1f77b4;"/>
   </g>
   <g id="patch_12">
    <path clip-path="url(#p6868ff0ffb)" d="M 76.239082 273.312 
L 77.841365 273.312 
L 77.841365 234.097788 
L 76.239082 234.097788 
z
" style="fill:#1f77b4;"/>
   </g>
   <g id="patch_13">
    <path clip-path="url(#p6868ff0ffb)" d="M 77.841365 273.312 
L 79.443648 273.312 
L 79.443648 239.907301 
L 77.841365 239.907301 
z
" style="fill:#1f77b4;"/>
   </g>
   <g id="patch_14">
    <path clip-path="url(#p6868ff0ffb)" d="M 79.443648 273.312 
L 81.045931 273.312 
L 81.045931 229.014464 
L 79.443648 229.014464 
z
" style="fill:#1f77b4;"/>
   </g>
   <g id="patch_15">
    <path clip-path="url(#p6868ff0ffb)" d="M 81.045931 273.312 
L 82.648213 273.312 
L 82.648213 224.65733 
L 81.045931 224.65733 
z
" style="fill:#1f77b4;"/>
   </g>
   <g id="patch_16">
    <path clip-path="url(#p6868ff0ffb)" d="M 82.648213 273.312 
L 84.250496 273.312 
L 84.250496 219.574006 
L 82.648213 219.574006 
z
" style="fill:#1f77b4;"/>
   </g>
   <g id="patch_17">
    <path clip-path="url(#p6868ff0ffb)" d="M 84.250496 273.312 
L 85.852779 273.312 
L 85.852779 215.216871 
L 84.250496 215.216871 
z
" style="fill:#1f77b4;"/>
   </g>
   <g id="patch_18">
    <path clip-path="url(#p6868ff0ffb)" d="M 85.852779 273.312 
L 87.455062 273.312 
L 87.455062 210.859736 
L 85.852779 210.859736 
z
" style="fill:#1f77b4;"/>
   </g>
   <g id="patch_19">
    <path clip-path="url(#p6868ff0ffb)" d="M 87.455062 273.312 
L 89.057345 273.312 
L 89.057345 219.574006 
L 87.455062 219.574006 
z
" style="fill:#1f77b4;"/>
   </g>
   <g id="patch_20">
    <path clip-path="url(#p6868ff0ffb)" d="M 89.057345 273.312 
L 90.659627 273.312 
L 90.659627 205.776413 
L 89.057345 205.776413 
z
" style="fill:#1f77b4;"/>
   </g>
   <g id="patch_21">
    <path clip-path="url(#p6868ff0ffb)" d="M 90.659627 273.312 
L 92.26191 273.312 
L 92.26191 203.597845 
L 90.659627 203.597845 
z
" style="fill:#1f77b4;"/>
   </g>
   <g id="patch_22">
    <path clip-path="url(#p6868ff0ffb)" d="M 92.26191 273.312 
L 93.864193 273.312 
L 93.864193 199.9669 
L 92.26191 199.9669 
z
" style="fill:#1f77b4;"/>
   </g>
   <g id="patch_23">
    <path clip-path="url(#p6868ff0ffb)" d="M 93.864193 273.312 
L 95.466476 273.312 
L 95.466476 207.228791 
L 93.864193 207.228791 
z
" style="fill:#1f77b4;"/>
   </g>
   <g id="patch_24">
    <path clip-path="url(#p6868ff0ffb)" d="M 95.466476 273.312 
L 97.068759 273.312 
L 97.068759 186.895496 
L 95.466476 186.895496 
z
" style="fill:#1f77b4;"/>
   </g>
   <g id="patch_25">
    <path clip-path="url(#p6868ff0ffb)" d="M 97.068759 273.312 
L 98.671042 273.312 
L 98.671042 185.443117 
L 97.068759 185.443117 
z
" style="fill:#1f77b4;"/>
   </g>
   <g id="patch_26">
    <path clip-path="url(#p6868ff0ffb)" d="M 98.671042 273.312 
L 100.273324 273.312 
L 100.273324 192.705009 
L 98.671042 192.705009 
z
" style="fill:#1f77b4;"/>
   </g>
   <g id="patch_27">
    <path clip-path="url(#p6868ff0ffb)" d="M 100.273324 273.312 
L 101.875607 273.312 
L 101.875607 181.812172 
L 100.273324 181.812172 
z
" style="fill:#1f77b4;"/>
   </g>
   <g id="patch_28">
    <path clip-path="url(#p6868ff0ffb)" d="M 101.875607 273.312 
L 103.47789 273.312 
L 103.47789 179.633605 
L 101.875607 179.633605 
z
" style="fill:#1f77b4;"/>
   </g>
   <g id="patch_29">
    <path clip-path="url(#p6868ff0ffb)" d="M 103.47789 273.312 
L 105.080173 273.312 
L 105.080173 181.085983 
L 103.47789 181.085983 
z
" style="fill:#1f77b4;"/>
   </g>
   <g id="patch_30">
    <path clip-path="url(#p6868ff0ffb)" d="M 105.080173 273.312 
L 106.682456 273.312 
L 106.682456 189.800252 
L 105.080173 189.800252 
z
" style="fill:#1f77b4;"/>
   </g>
   <g id="patch_31">
    <path clip-path="url(#p6868ff0ffb)" d="M 106.682456 273.312 
L 108.284738 273.312 
L 108.284738 170.193146 
L 106.682456 170.193146 
z
" style="fill:#1f77b4;"/>
   </g>
   <g id="patch_32">
    <path clip-path="url(#p6868ff0ffb)" d="M 108.284738 273.312 
L 109.887021 273.312 
L 109.887021 173.824092 
L 108.284738 173.824092 
z
" style="fill:#1f77b4;"/>
   </g>
   <g id="patch_33">
    <path clip-path="url(#p6868ff0ffb)" d="M 109.887021 273.312 
L 111.489304 273.312 
L 111.489304 170.193146 
L 109.887021 170.193146 
z
" style="fill:#1f77b4;"/>
   </g>
   <g id="patch_34">
    <path clip-path="url(#p6868ff0ffb)" d="M 111.489304 273.312 
L 113.091587 273.312 
L 113.091587 157.121742 
L 111.489304 157.121742 
z
" style="fill:#1f77b4;"/>
   </g>
   <g id="patch_35">
    <path clip-path="url(#p6868ff0ffb)" d="M 113.091587 273.312 
L 114.69387 273.312 
L 114.69387 159.300309 
L 113.091587 159.300309 
z
" style="fill:#1f77b4;"/>
   </g>
   <g id="patch_36">
    <path clip-path="url(#p6868ff0ffb)" d="M 114.69387 273.312 
L 116.296153 273.312 
L 116.296153 162.205066 
L 114.69387 162.205066 
z
" style="fill:#1f77b4;"/>
   </g>
   <g id="patch_37">
    <path clip-path="url(#p6868ff0ffb)" d="M 116.296153 273.312 
L 117.898435 273.312 
L 117.898435 153.490797 
L 116.296153 153.490797 
z
" style="fill:#1f77b4;"/>
   </g>
   <g id="patch_38">
    <path clip-path="url(#p6868ff0ffb)" d="M 117.898435 273.312 
L 119.500718 273.312 
L 119.500718 157.121742 
L 117.898435 157.121742 
z
" style="fill:#1f77b4;"/>
   </g>
   <g id="patch_39">
    <path clip-path="url(#p6868ff0ffb)" d="M 119.500718 273.312 
L 121.103001 273.312 
L 121.103001 144.776527 
L 119.500718 144.776527 
z
" style="fill:#1f77b4;"/>
   </g>
   <g id="patch_40">
    <path clip-path="url(#p6868ff0ffb)" d="M 121.103001 273.312 
L 122.705284 273.312 
L 122.705284 151.312229 
L 121.103001 151.312229 
z
" style="fill:#1f77b4;"/>
   </g>
   <g id="patch_41">
    <path clip-path="url(#p6868ff0ffb)" d="M 122.705284 273.312 
L 124.307567 273.312 
L 124.307567 145.502716 
L 122.705284 145.502716 
z
" style="fill:#1f77b4;"/>
   </g>
   <g id="patch_42">
    <path clip-path="url(#p6868ff0ffb)" d="M 124.307567 273.312 
L 125.909849 273.312 
L 125.909849 138.240825 
L 124.307567 138.240825 
z
" style="fill:#1f77b4;"/>
   </g>
   <g id="patch_43">
    <path clip-path="url(#p6868ff0ffb)" d="M 125.909849 273.312 
L 127.512132 273.312 
L 127.512132 152.038418 
L 125.909849 152.038418 
z
" style="fill:#1f77b4;"/>
   </g>
   <g id="patch_44">
    <path clip-path="url(#p6868ff0ffb)" d="M 127.512132 273.312 
L 129.114415 273.312 
L 129.114415 136.062258 
L 127.512132 136.062258 
z
" style="fill:#1f77b4;"/>
   </g>
   <g id="patch_45">
    <path clip-path="url(#p6868ff0ffb)" d="M 129.114415 273.312 
L 130.716698 273.312 
L 130.716698 136.788447 
L 129.114415 136.788447 
z
" style="fill:#1f77b4;"/>
   </g>
   <g id="patch_46">
    <path clip-path="url(#p6868ff0ffb)" d="M 130.716698 273.312 
L 132.318981 273.312 
L 132.318981 121.538476 
L 130.716698 121.538476 
z
" style="fill:#1f77b4;"/>
   </g>
   <g id="patch_47">
    <path clip-path="url(#p6868ff0ffb)" d="M 132.318981 273.312 
L 133.921264 273.312 
L 133.921264 133.157501 
L 132.318981 133.157501 
z
" style="fill:#1f77b4;"/>
   </g>
   <g id="patch_48">
    <path clip-path="url(#p6868ff0ffb)" d="M 133.921264 273.312 
L 135.523546 273.312 
L 135.523546 122.990854 
L 133.921264 122.990854 
z
" style="fill:#1f77b4;"/>
   </g>
   <g id="patch_49">
    <path clip-path="url(#p6868ff0ffb)" d="M 135.523546 273.312 
L 137.125829 273.312 
L 137.125829 127.347989 
L 135.523546 127.347989 
z
" style="fill:#1f77b4;"/>
   </g>
   <g id="patch_50">
    <path clip-path="url(#p6868ff0ffb)" d="M 137.125829 273.312 
L 138.728112 273.312 
L 138.728112 103.383748 
L 137.125829 103.383748 
z
" style="fill:#1f77b4;"/>
   </g>
   <g id="patch_51">
    <path clip-path="url(#p6868ff0ffb)" d="M 138.728112 273.312 
L 140.330395 273.312 
L 140.330395 122.264665 
L 138.728112 122.264665 
z
" style="fill:#1f77b4;"/>
   </g>
   <g id="patch_52">
    <path clip-path="url(#p6868ff0ffb)" d="M 140.330395 273.312 
L 141.932678 273.312 
L 141.932678 113.550395 
L 140.330395 113.550395 
z
" style="fill:#1f77b4;"/>
   </g>
   <g id="patch_53">
    <path clip-path="url(#p6868ff0ffb)" d="M 141.932678 273.312 
L 143.53496 273.312 
L 143.53496 128.800367 
L 141.932678 128.800367 
z
" style="fill:#1f77b4;"/>
   </g>
   <g id="patch_54">
    <path clip-path="url(#p6868ff0ffb)" d="M 143.53496 273.312 
L 145.137243 273.312 
L 145.137243 109.193261 
L 143.53496 109.193261 
z
" style="fill:#1f77b4;"/>
   </g>
   <g id="patch_55">
    <path clip-path="url(#p6868ff0ffb)" d="M 145.137243 273.312 
L 146.739526 273.312 
L 146.739526 113.550395 
L 145.137243 113.550395 
z
" style="fill:#1f77b4;"/>
   </g>
   <g id="patch_56">
    <path clip-path="url(#p6868ff0ffb)" d="M 146.739526 273.312 
L 148.341809 273.312 
L 148.341809 104.109937 
L 146.739526 104.109937 
z
" style="fill:#1f77b4;"/>
   </g>
   <g id="patch_57">
    <path clip-path="url(#p6868ff0ffb)" d="M 148.341809 273.312 
L 149.944092 273.312 
L 149.944092 105.562315 
L 148.341809 105.562315 
z
" style="fill:#1f77b4;"/>
   </g>
   <g id="patch_58">
    <path clip-path="url(#p6868ff0ffb)" d="M 149.944092 273.312 
L 151.546374 273.312 
L 151.546374 91.038533 
L 149.944092 91.038533 
z
" style="fill:#1f77b4;"/>
   </g>
   <g id="patch_59">
    <path clip-path="url(#p6868ff0ffb)" d="M 151.546374 273.312 
L 153.148657 273.312 
L 153.148657 99.026613 
L 151.546374 99.026613 
z
" style="fill:#1f77b4;"/>
   </g>
   <g id="patch_60">
    <path clip-path="url(#p6868ff0ffb)" d="M 153.148657 273.312 
L 154.75094 273.312 
L 154.75094 111.371828 
L 153.148657 111.371828 
z
" style="fill:#1f77b4;"/>
   </g>
   <g id="patch_61">
    <path clip-path="url(#p6868ff0ffb)" d="M 154.75094 273.312 
L 156.353223 273.312 
L 156.353223 98.300424 
L 154.75094 98.300424 
z
" style="fill:#1f77b4;"/>
   </g>
   <g id="patch_62">
    <path clip-path="url(#p6868ff0ffb)" d="M 156.353223 273.312 
L 157.955506 273.312 
L 157.955506 84.502831 
L 156.353223 84.502831 
z
" style="fill:#1f77b4;"/>
   </g>
   <g id="patch_63">
    <path clip-path="url(#p6868ff0ffb)" d="M 157.955506 273.312 
L 159.557789 273.312 
L 159.557789 85.955209 
L 157.955506 85.955209 
z
" style="fill:#1f77b4;"/>
   </g>
   <g id="patch_64">
    <path clip-path="url(#p6868ff0ffb)" d="M 159.557789 273.312 
L 161.160071 273.312 
L 161.160071 73.609994 
L 159.557789 73.609994 
z
" style="fill:#1f77b4;"/>
   </g>
   <g id="patch_65">
    <path clip-path="url(#p6868ff0ffb)" d="M 161.160071 273.312 
L 162.762354 273.312 
L 162.762354 91.038533 
L 161.160071 91.038533 
z
" style="fill:#1f77b4;"/>
   </g>
   <g id="patch_66">
    <path clip-path="url(#p6868ff0ffb)" d="M 162.762354 273.312 
L 164.364637 273.312 
L 164.364637 102.657559 
L 162.762354 102.657559 
z
" style="fill:#1f77b4;"/>
   </g>
   <g id="patch_67">
    <path clip-path="url(#p6868ff0ffb)" d="M 164.364637 273.312 
L 165.96692 273.312 
L 165.96692 62.717158 
L 164.364637 62.717158 
z
" style="fill:#1f77b4;"/>
   </g>
   <g id="patch_68">
    <path clip-path="url(#p6868ff0ffb)" d="M 165.96692 273.312 
L 167.569203 273.312 
L 167.569203 93.943289 
L 165.96692 93.943289 
z
" style="fill:#1f77b4;"/>
   </g>
   <g id="patch_69">
    <path clip-path="url(#p6868ff0ffb)" d="M 167.569203 273.312 
L 169.171485 273.312 
L 169.171485 74.336183 
L 167.569203 74.336183 
z
" style="fill:#1f77b4;"/>
   </g>
   <g id="patch_70">
    <path clip-path="url(#p6868ff0ffb)" d="M 169.171485 273.312 
L 170.773768 273.312 
L 170.773768 96.848046 
L 169.171485 96.848046 
z
" style="fill:#1f77b4;"/>
   </g>
   <g id="patch_71">
    <path clip-path="url(#p6868ff0ffb)" d="M 170.773768 273.312 
L 172.376051 273.312 
L 172.376051 59.086212 
L 170.773768 59.086212 
z
" style="fill:#1f77b4;"/>
   </g>
   <g id="patch_72">
    <path clip-path="url(#p6868ff0ffb)" d="M 172.376051 273.312 
L 173.978334 273.312 
L 173.978334 70.705238 
L 172.376051 70.705238 
z
" style="fill:#1f77b4;"/>
   </g>
   <g id="patch_73">
    <path clip-path="url(#p6868ff0ffb)" d="M 173.978334 273.312 
L 175.580617 273.312 
L 175.580617 80.871885 
L 173.978334 80.871885 
z
" style="fill:#1f77b4;"/>
   </g>
   <g id="patch_74">
    <path clip-path="url(#p6868ff0ffb)" d="M 175.580617 273.312 
L 177.1829 273.312 
L 177.1829 66.348103 
L 175.580617 66.348103 
z
" style="fill:#1f77b4;"/>
   </g>
   <g id="patch_75">
    <path clip-path="url(#p6868ff0ffb)" d="M 177.1829 273.312 
L 178.785182 273.312 
L 178.785182 64.895725 
L 177.1829 64.895725 
z
" style="fill:#1f77b4;"/>
   </g>
   <g id="patch_76">
    <path clip-path="url(#p6868ff0ffb)" d="M 178.785182 273.312 
L 180.387465 273.312 
L 180.387465 80.145696 
L 178.785182 80.145696 
z
" style="fill:#1f77b4;"/>
   </g>
   <g id="patch_77">
    <path clip-path="url(#p6868ff0ffb)" d="M 180.387465 273.312 
L 181.989748 273.312 
L 181.989748 79.419507 
L 180.387465 79.419507 
z
" style="fill:#1f77b4;"/>
   </g>
   <g id="patch_78">
    <path clip-path="url(#p6868ff0ffb)" d="M 181.989748 273.312 
L 183.592031 273.312 
L 183.592031 59.086212 
L 181.989748 59.086212 
z
" style="fill:#1f77b4;"/>
   </g>
   <g id="patch_79">
    <path clip-path="url(#p6868ff0ffb)" d="M 183.592031 273.312 
L 185.194314 273.312 
L 185.194314 58.360023 
L 183.592031 58.360023 
z
" style="fill:#1f77b4;"/>
   </g>
   <g id="patch_80">
    <path clip-path="url(#p6868ff0ffb)" d="M 185.194314 273.312 
L 186.796596 273.312 
L 186.796596 83.776642 
L 185.194314 83.776642 
z
" style="fill:#1f77b4;"/>
   </g>
   <g id="patch_81">
    <path clip-path="url(#p6868ff0ffb)" d="M 186.796596 273.312 
L 188.398879 273.312 
L 188.398879 60.53859 
L 186.796596 60.53859 
z
" style="fill:#1f77b4;"/>
   </g>
   <g id="patch_82">
    <path clip-path="url(#p6868ff0ffb)" d="M 188.398879 273.312 
L 190.001162 273.312 
L 190.001162 63.443347 
L 188.398879 63.443347 
z
" style="fill:#1f77b4;"/>
   </g>
   <g id="patch_83">
    <path clip-path="url(#p6868ff0ffb)" d="M 190.001162 273.312 
L 191.603445 273.312 
L 191.603445 51.824321 
L 190.001162 51.824321 
z
" style="fill:#1f77b4;"/>
   </g>
   <g id="patch_84">
    <path clip-path="url(#p6868ff0ffb)" d="M 191.603445 273.312 
L 193.205728 273.312 
L 193.205728 51.824321 
L 191.603445 51.824321 
z
" style="fill:#1f77b4;"/>
   </g>
   <g id="patch_85">
    <path clip-path="url(#p6868ff0ffb)" d="M 193.205728 273.312 
L 194.808011 273.312 
L 194.808011 64.169536 
L 193.205728 64.169536 
z
" style="fill:#1f77b4;"/>
   </g>
   <g id="patch_86">
    <path clip-path="url(#p6868ff0ffb)" d="M 194.808011 273.312 
L 196.410293 273.312 
L 196.410293 45.288619 
L 194.808011 45.288619 
z
" style="fill:#1f77b4;"/>
   </g>
   <g id="patch_87">
    <path clip-path="url(#p6868ff0ffb)" d="M 196.410293 273.312 
L 198.012576 273.312 
L 198.012576 29.312458 
L 196.410293 29.312458 
z
" style="fill:#1f77b4;"/>
   </g>
   <g id="patch_88">
    <path clip-path="url(#p6868ff0ffb)" d="M 198.012576 273.312 
L 199.614859 273.312 
L 199.614859 38.026728 
L 198.012576 38.026728 
z
" style="fill:#1f77b4;"/>
   </g>
   <g id="patch_89">
    <path clip-path="url(#p6868ff0ffb)" d="M 199.614859 273.312 
L 201.217142 273.312 
L 201.217142 42.383862 
L 199.614859 42.383862 
z
" style="fill:#1f77b4;"/>
   </g>
   <g id="patch_90">
    <path clip-path="url(#p6868ff0ffb)" d="M 201.217142 273.312 
L 202.819425 273.312 
L 202.819425 45.288619 
L 201.217142 45.288619 
z
" style="fill:#1f77b4;"/>
   </g>
   <g id="patch_91">
    <path clip-path="url(#p6868ff0ffb)" d="M 202.819425 273.312 
L 204.421707 273.312 
L 204.421707 67.074292 
L 202.819425 67.074292 
z
" style="fill:#1f77b4;"/>
   </g>
   <g id="patch_92">
    <path clip-path="url(#p6868ff0ffb)" d="M 204.421707 273.312 
L 206.02399 273.312 
L 206.02399 56.907645 
L 204.421707 56.907645 
z
" style="fill:#1f77b4;"/>
   </g>
   <g id="patch_93">
    <path clip-path="url(#p6868ff0ffb)" d="M 206.02399 273.312 
L 207.626273 273.312 
L 207.626273 29.312458 
L 206.02399 29.312458 
z
" style="fill:#1f77b4;"/>
   </g>
   <g id="patch_94">
    <path clip-path="url(#p6868ff0ffb)" d="M 207.626273 273.312 
L 209.228556 273.312 
L 209.228556 39.479106 
L 207.626273 39.479106 
z
" style="fill:#1f77b4;"/>
   </g>
   <g id="patch_95">
    <path clip-path="url(#p6868ff0ffb)" d="M 209.228556 273.312 
L 210.830839 273.312 
L 210.830839 48.919564 
L 209.228556 48.919564 
z
" style="fill:#1f77b4;"/>
   </g>
   <g id="patch_96">
    <path clip-path="url(#p6868ff0ffb)" d="M 210.830839 273.312 
L 212.433121 273.312 
L 212.433121 64.169536 
L 210.830839 64.169536 
z
" style="fill:#1f77b4;"/>
   </g>
   <g id="patch_97">
    <path clip-path="url(#p6868ff0ffb)" d="M 212.433121 273.312 
L 214.035404 273.312 
L 214.035404 45.288619 
L 212.433121 45.288619 
z
" style="fill:#1f77b4;"/>
   </g>
   <g id="patch_98">
    <path clip-path="url(#p6868ff0ffb)" d="M 214.035404 273.312 
L 215.637687 273.312 
L 215.637687 55.455266 
L 214.035404 55.455266 
z
" style="fill:#1f77b4;"/>
   </g>
   <g id="patch_99">
    <path clip-path="url(#p6868ff0ffb)" d="M 215.637687 273.312 
L 217.23997 273.312 
L 217.23997 59.812401 
L 215.637687 59.812401 
z
" style="fill:#1f77b4;"/>
   </g>
   <g id="patch_100">
    <path clip-path="url(#p6868ff0ffb)" d="M 217.23997 273.312 
L 218.842253 273.312 
L 218.842253 56.181456 
L 217.23997 56.181456 
z
" style="fill:#1f77b4;"/>
   </g>
   <g id="patch_101">
    <path clip-path="url(#p6868ff0ffb)" d="M 218.842253 273.312 
L 220.444536 273.312 
L 220.444536 53.276699 
L 218.842253 53.276699 
z
" style="fill:#1f77b4;"/>
   </g>
   <g id="patch_102">
    <path clip-path="url(#p6868ff0ffb)" d="M 220.444536 273.312 
L 222.046818 273.312 
L 222.046818 42.383862 
L 220.444536 42.383862 
z
" style="fill:#1f77b4;"/>
   </g>
   <g id="patch_103">
    <path clip-path="url(#p6868ff0ffb)" d="M 222.046818 273.312 
L 223.649101 273.312 
L 223.649101 67.800481 
L 222.046818 67.800481 
z
" style="fill:#1f77b4;"/>
   </g>
   <g id="patch_104">
    <path clip-path="url(#p6868ff0ffb)" d="M 223.649101 273.312 
L 225.251384 273.312 
L 225.251384 56.181456 
L 223.649101 56.181456 
z
" style="fill:#1f77b4;"/>
   </g>
   <g id="patch_105">
    <path clip-path="url(#p6868ff0ffb)" d="M 225.251384 273.312 
L 226.853667 273.312 
L 226.853667 48.919564 
L 225.251384 48.919564 
z
" style="fill:#1f77b4;"/>
   </g>
   <g id="patch_106">
    <path clip-path="url(#p6868ff0ffb)" d="M 226.853667 273.312 
L 228.45595 273.312 
L 228.45595 50.371943 
L 226.853667 50.371943 
z
" style="fill:#1f77b4;"/>
   </g>
   <g id="patch_107">
    <path clip-path="url(#p6868ff0ffb)" d="M 228.45595 273.312 
L 230.058232 273.312 
L 230.058232 33.669593 
L 228.45595 33.669593 
z
" style="fill:#1f77b4;"/>
   </g>
   <g id="patch_108">
    <path clip-path="url(#p6868ff0ffb)" d="M 230.058232 273.312 
L 231.660515 273.312 
L 231.660515 33.669593 
L 230.058232 33.669593 
z
" style="fill:#1f77b4;"/>
   </g>
   <g id="patch_109">
    <path clip-path="url(#p6868ff0ffb)" d="M 231.660515 273.312 
L 233.262798 273.312 
L 233.262798 35.121971 
L 231.660515 35.121971 
z
" style="fill:#1f77b4;"/>
   </g>
   <g id="patch_110">
    <path clip-path="url(#p6868ff0ffb)" d="M 233.262798 273.312 
L 234.865081 273.312 
L 234.865081 19.872 
L 233.262798 19.872 
z
" style="fill:#1f77b4;"/>
   </g>
   <g id="patch_111">
    <path clip-path="url(#p6868ff0ffb)" d="M 234.865081 273.312 
L 236.467364 273.312 
L 236.467364 48.919564 
L 234.865081 48.919564 
z
" style="fill:#1f77b4;"/>
   </g>
   <g id="patch_112">
    <path clip-path="url(#p6868ff0ffb)" d="M 236.467364 273.312 
L 238.069647 273.312 
L 238.069647 51.824321 
L 236.467364 51.824321 
z
" style="fill:#1f77b4;"/>
   </g>
   <g id="patch_113">
    <path clip-path="url(#p6868ff0ffb)" d="M 238.069647 273.312 
L 239.671929 273.312 
L 239.671929 71.431427 
L 238.069647 71.431427 
z
" style="fill:#1f77b4;"/>
   </g>
   <g id="patch_114">
    <path clip-path="url(#p6868ff0ffb)" d="M 239.671929 273.312 
L 241.274212 273.312 
L 241.274212 26.407702 
L 239.671929 26.407702 
z
" style="fill:#1f77b4;"/>
   </g>
   <g id="patch_115">
    <path clip-path="url(#p6868ff0ffb)" d="M 241.274212 273.312 
L 242.876495 273.312 
L 242.876495 40.205295 
L 241.274212 40.205295 
z
" style="fill:#1f77b4;"/>
   </g>
   <g id="patch_116">
    <path clip-path="url(#p6868ff0ffb)" d="M 242.876495 273.312 
L 244.478778 273.312 
L 244.478778 40.931484 
L 242.876495 40.931484 
z
" style="fill:#1f77b4;"/>
   </g>
   <g id="patch_117">
    <path clip-path="url(#p6868ff0ffb)" d="M 244.478778 273.312 
L 246.081061 273.312 
L 246.081061 89.586155 
L 244.478778 89.586155 
z
" style="fill:#1f77b4;"/>
   </g>
   <g id="patch_118">
    <path clip-path="url(#p6868ff0ffb)" d="M 246.081061 273.312 
L 247.683343 273.312 
L 247.683343 52.55051 
L 246.081061 52.55051 
z
" style="fill:#1f77b4;"/>
   </g>
   <g id="patch_119">
    <path clip-path="url(#p6868ff0ffb)" d="M 247.683343 273.312 
L 249.285626 273.312 
L 249.285626 51.824321 
L 247.683343 51.824321 
z
" style="fill:#1f77b4;"/>
   </g>
   <g id="patch_120">
    <path clip-path="url(#p6868ff0ffb)" d="M 249.285626 273.312 
L 250.887909 273.312 
L 250.887909 44.56243 
L 249.285626 44.56243 
z
" style="fill:#1f77b4;"/>
   </g>
   <g id="patch_121">
    <path clip-path="url(#p6868ff0ffb)" d="M 250.887909 273.312 
L 252.490192 273.312 
L 252.490192 46.014808 
L 250.887909 46.014808 
z
" style="fill:#1f77b4;"/>
   </g>
   <g id="patch_122">
    <path clip-path="url(#p6868ff0ffb)" d="M 252.490192 273.312 
L 254.092475 273.312 
L 254.092475 56.181456 
L 252.490192 56.181456 
z
" style="fill:#1f77b4;"/>
   </g>
   <g id="patch_123">
    <path clip-path="url(#p6868ff0ffb)" d="M 254.092475 273.312 
L 255.694758 273.312 
L 255.694758 51.824321 
L 254.092475 51.824321 
z
" style="fill:#1f77b4;"/>
   </g>
   <g id="patch_124">
    <path clip-path="url(#p6868ff0ffb)" d="M 255.694758 273.312 
L 257.29704 273.312 
L 257.29704 43.836241 
L 255.694758 43.836241 
z
" style="fill:#1f77b4;"/>
   </g>
   <g id="patch_125">
    <path clip-path="url(#p6868ff0ffb)" d="M 257.29704 273.312 
L 258.899323 273.312 
L 258.899323 60.53859 
L 257.29704 60.53859 
z
" style="fill:#1f77b4;"/>
   </g>
   <g id="patch_126">
    <path clip-path="url(#p6868ff0ffb)" d="M 258.899323 273.312 
L 260.501606 273.312 
L 260.501606 31.491026 
L 258.899323 31.491026 
z
" style="fill:#1f77b4;"/>
   </g>
   <g id="patch_127">
    <path clip-path="url(#p6868ff0ffb)" d="M 260.501606 273.312 
L 262.103889 273.312 
L 262.103889 76.514751 
L 260.501606 76.514751 
z
" style="fill:#1f77b4;"/>
   </g>
   <g id="patch_128">
    <path clip-path="url(#p6868ff0ffb)" d="M 262.103889 273.312 
L 263.706172 273.312 
L 263.706172 78.693318 
L 262.103889 78.693318 
z
" style="fill:#1f77b4;"/>
   </g>
   <g id="patch_129">
    <path clip-path="url(#p6868ff0ffb)" d="M 263.706172 273.312 
L 265.308454 273.312 
L 265.308454 59.812401 
L 263.706172 59.812401 
z
" style="fill:#1f77b4;"/>
   </g>
   <g id="patch_130">
    <path clip-path="url(#p6868ff0ffb)" d="M 265.308454 273.312 
L 266.910737 273.312 
L 266.910737 48.919564 
L 265.308454 48.919564 
z
" style="fill:#1f77b4;"/>
   </g>
   <g id="patch_131">
    <path clip-path="url(#p6868ff0ffb)" d="M 266.910737 273.312 
L 268.51302 273.312 
L 268.51302 78.693318 
L 266.910737 78.693318 
z
" style="fill:#1f77b4;"/>
   </g>
   <g id="patch_132">
    <path clip-path="url(#p6868ff0ffb)" d="M 268.51302 273.312 
L 270.115303 273.312 
L 270.115303 90.312344 
L 268.51302 90.312344 
z
" style="fill:#1f77b4;"/>
   </g>
   <g id="patch_133">
    <path clip-path="url(#p6868ff0ffb)" d="M 270.115303 273.312 
L 271.717586 273.312 
L 271.717586 91.038533 
L 270.115303 91.038533 
z
" style="fill:#1f77b4;"/>
   </g>
   <g id="patch_134">
    <path clip-path="url(#p6868ff0ffb)" d="M 271.717586 273.312 
L 273.319868 273.312 
L 273.319868 71.431427 
L 271.717586 71.431427 
z
" style="fill:#1f77b4;"/>
   </g>
   <g id="patch_135">
    <path clip-path="url(#p6868ff0ffb)" d="M 273.319868 273.312 
L 274.922151 273.312 
L 274.922151 70.705238 
L 273.319868 70.705238 
z
" style="fill:#1f77b4;"/>
   </g>
   <g id="patch_136">
    <path clip-path="url(#p6868ff0ffb)" d="M 274.922151 273.312 
L 276.524434 273.312 
L 276.524434 99.752802 
L 274.922151 99.752802 
z
" style="fill:#1f77b4;"/>
   </g>
   <g id="patch_137">
    <path clip-path="url(#p6868ff0ffb)" d="M 276.524434 273.312 
L 278.126717 273.312 
L 278.126717 56.181456 
L 276.524434 56.181456 
z
" style="fill:#1f77b4;"/>
   </g>
   <g id="patch_138">
    <path clip-path="url(#p6868ff0ffb)" d="M 278.126717 273.312 
L 279.729 273.312 
L 279.729 79.419507 
L 278.126717 79.419507 
z
" style="fill:#1f77b4;"/>
   </g>
   <g id="patch_139">
    <path clip-path="url(#p6868ff0ffb)" d="M 279.729 273.312 
L 281.331283 273.312 
L 281.331283 80.145696 
L 279.729 80.145696 
z
" style="fill:#1f77b4;"/>
   </g>
   <g id="patch_140">
    <path clip-path="url(#p6868ff0ffb)" d="M 281.331283 273.312 
L 282.933565 273.312 
L 282.933565 98.300424 
L 281.331283 98.300424 
z
" style="fill:#1f77b4;"/>
   </g>
   <g id="patch_141">
    <path clip-path="url(#p6868ff0ffb)" d="M 282.933565 273.312 
L 284.535848 273.312 
L 284.535848 96.121857 
L 282.933565 96.121857 
z
" style="fill:#1f77b4;"/>
   </g>
   <g id="patch_142">
    <path clip-path="url(#p6868ff0ffb)" d="M 284.535848 273.312 
L 286.138131 273.312 
L 286.138131 91.764722 
L 284.535848 91.764722 
z
" style="fill:#1f77b4;"/>
   </g>
   <g id="patch_143">
    <path clip-path="url(#p6868ff0ffb)" d="M 286.138131 273.312 
L 287.740414 273.312 
L 287.740414 109.193261 
L 286.138131 109.193261 
z
" style="fill:#1f77b4;"/>
   </g>
   <g id="patch_144">
    <path clip-path="url(#p6868ff0ffb)" d="M 287.740414 273.312 
L 289.342697 273.312 
L 289.342697 83.776642 
L 287.740414 83.776642 
z
" style="fill:#1f77b4;"/>
   </g>
   <g id="patch_145">
    <path clip-path="url(#p6868ff0ffb)" d="M 289.342697 273.312 
L 290.944979 273.312 
L 290.944979 96.121857 
L 289.342697 96.121857 
z
" style="fill:#1f77b4;"/>
   </g>
   <g id="patch_146">
    <path clip-path="url(#p6868ff0ffb)" d="M 290.944979 273.312 
L 292.547262 273.312 
L 292.547262 68.52667 
L 290.944979 68.52667 
z
" style="fill:#1f77b4;"/>
   </g>
   <g id="patch_147">
    <path clip-path="url(#p6868ff0ffb)" d="M 292.547262 273.312 
L 294.149545 273.312 
L 294.149545 97.574235 
L 292.547262 97.574235 
z
" style="fill:#1f77b4;"/>
   </g>
   <g id="patch_148">
    <path clip-path="url(#p6868ff0ffb)" d="M 294.149545 273.312 
L 295.751828 273.312 
L 295.751828 103.383748 
L 294.149545 103.383748 
z
" style="fill:#1f77b4;"/>
   </g>
   <g id="patch_149">
    <path clip-path="url(#p6868ff0ffb)" d="M 295.751828 273.312 
L 297.354111 273.312 
L 297.354111 96.121857 
L 295.751828 96.121857 
z
" style="fill:#1f77b4;"/>
   </g>
   <g id="patch_150">
    <path clip-path="url(#p6868ff0ffb)" d="M 297.354111 273.312 
L 298.956394 273.312 
L 298.956394 110.645639 
L 297.354111 110.645639 
z
" style="fill:#1f77b4;"/>
   </g>
   <g id="patch_151">
    <path clip-path="url(#p6868ff0ffb)" d="M 298.956394 273.312 
L 300.558676 273.312 
L 300.558676 108.467072 
L 298.956394 108.467072 
z
" style="fill:#1f77b4;"/>
   </g>
   <g id="patch_152">
    <path clip-path="url(#p6868ff0ffb)" d="M 300.558676 273.312 
L 302.160959 273.312 
L 302.160959 104.836126 
L 300.558676 104.836126 
z
" style="fill:#1f77b4;"/>
   </g>
   <g id="patch_153">
    <path clip-path="url(#p6868ff0ffb)" d="M 302.160959 273.312 
L 303.763242 273.312 
L 303.763242 118.633719 
L 302.160959 118.633719 
z
" style="fill:#1f77b4;"/>
   </g>
   <g id="patch_154">
    <path clip-path="url(#p6868ff0ffb)" d="M 303.763242 273.312 
L 305.365525 273.312 
L 305.365525 111.371828 
L 303.763242 111.371828 
z
" style="fill:#1f77b4;"/>
   </g>
   <g id="patch_155">
    <path clip-path="url(#p6868ff0ffb)" d="M 305.365525 273.312 
L 306.967808 273.312 
L 306.967808 128.074178 
L 305.365525 128.074178 
z
" style="fill:#1f77b4;"/>
   </g>
   <g id="patch_156">
    <path clip-path="url(#p6868ff0ffb)" d="M 306.967808 273.312 
L 308.57009 273.312 
L 308.57009 112.824206 
L 306.967808 112.824206 
z
" style="fill:#1f77b4;"/>
   </g>
   <g id="patch_157">
    <path clip-path="url(#p6868ff0ffb)" d="M 308.57009 273.312 
L 310.172373 273.312 
L 310.172373 108.467072 
L 308.57009 108.467072 
z
" style="fill:#1f77b4;"/>
   </g>
   <g id="patch_158">
    <path clip-path="url(#p6868ff0ffb)" d="M 310.172373 273.312 
L 311.774656 273.312 
L 311.774656 119.359908 
L 310.172373 119.359908 
z
" style="fill:#1f77b4;"/>
   </g>
   <g id="patch_159">
    <path clip-path="url(#p6868ff0ffb)" d="M 311.774656 273.312 
L 313.376939 273.312 
L 313.376939 107.740883 
L 311.774656 107.740883 
z
" style="fill:#1f77b4;"/>
   </g>
   <g id="patch_160">
    <path clip-path="url(#p6868ff0ffb)" d="M 313.376939 273.312 
L 314.979222 273.312 
L 314.979222 136.062258 
L 313.376939 136.062258 
z
" style="fill:#1f77b4;"/>
   </g>
   <g id="patch_161">
    <path clip-path="url(#p6868ff0ffb)" d="M 314.979222 273.312 
L 316.581505 273.312 
L 316.581505 145.502716 
L 314.979222 145.502716 
z
" style="fill:#1f77b4;"/>
   </g>
   <g id="patch_162">
    <path clip-path="url(#p6868ff0ffb)" d="M 316.581505 273.312 
L 318.183787 273.312 
L 318.183787 141.145582 
L 316.581505 141.145582 
z
" style="fill:#1f77b4;"/>
   </g>
   <g id="patch_163">
    <path clip-path="url(#p6868ff0ffb)" d="M 318.183787 273.312 
L 319.78607 273.312 
L 319.78607 149.859851 
L 318.183787 149.859851 
z
" style="fill:#1f77b4;"/>
   </g>
   <g id="patch_164">
    <path clip-path="url(#p6868ff0ffb)" d="M 319.78607 273.312 
L 321.388353 273.312 
L 321.388353 146.228905 
L 319.78607 146.228905 
z
" style="fill:#1f77b4;"/>
   </g>
   <g id="patch_165">
    <path clip-path="url(#p6868ff0ffb)" d="M 321.388353 273.312 
L 322.990636 273.312 
L 322.990636 127.347989 
L 321.388353 127.347989 
z
" style="fill:#1f77b4;"/>
   </g>
   <g id="patch_166">
    <path clip-path="url(#p6868ff0ffb)" d="M 322.990636 273.312 
L 324.592919 273.312 
L 324.592919 136.062258 
L 322.990636 136.062258 
z
" style="fill:#1f77b4;"/>
   </g>
   <g id="patch_167">
    <path clip-path="url(#p6868ff0ffb)" d="M 324.592919 273.312 
L 326.195201 273.312 
L 326.195201 155.669364 
L 324.592919 155.669364 
z
" style="fill:#1f77b4;"/>
   </g>
   <g id="patch_168">
    <path clip-path="url(#p6868ff0ffb)" d="M 326.195201 273.312 
L 327.797484 273.312 
L 327.797484 157.847931 
L 326.195201 157.847931 
z
" style="fill:#1f77b4;"/>
   </g>
   <g id="patch_169">
    <path clip-path="url(#p6868ff0ffb)" d="M 327.797484 273.312 
L 329.399767 273.312 
L 329.399767 159.300309 
L 327.797484 159.300309 
z
" style="fill:#1f77b4;"/>
   </g>
   <g id="patch_170">
    <path clip-path="url(#p6868ff0ffb)" d="M 329.399767 273.312 
L 331.00205 273.312 
L 331.00205 174.550281 
L 329.399767 174.550281 
z
" style="fill:#1f77b4;"/>
   </g>
   <g id="patch_171">
    <path clip-path="url(#p6868ff0ffb)" d="M 331.00205 273.312 
L 332.604333 273.312 
L 332.604333 166.562201 
L 331.00205 166.562201 
z
" style="fill:#1f77b4;"/>
   </g>
   <g id="patch_172">
    <path clip-path="url(#p6868ff0ffb)" d="M 332.604333 273.312 
L 334.206616 273.312 
L 334.206616 162.205066 
L 332.604333 162.205066 
z
" style="fill:#1f77b4;"/>
   </g>
   <g id="patch_173">
    <path clip-path="url(#p6868ff0ffb)" d="M 334.206616 273.312 
L 335.808898 273.312 
L 335.808898 175.27647 
L 334.206616 175.27647 
z
" style="fill:#1f77b4;"/>
   </g>
   <g id="patch_174">
    <path clip-path="url(#p6868ff0ffb)" d="M 335.808898 273.312 
L 337.411181 273.312 
L 337.411181 190.526441 
L 335.808898 190.526441 
z
" style="fill:#1f77b4;"/>
   </g>
   <g id="patch_175">
    <path clip-path="url(#p6868ff0ffb)" d="M 337.411181 273.312 
L 339.013464 273.312 
L 339.013464 166.562201 
L 337.411181 166.562201 
z
" style="fill:#1f77b4;"/>
   </g>
   <g id="patch_176">
    <path clip-path="url(#p6868ff0ffb)" d="M 339.013464 273.312 
L 340.615747 273.312 
L 340.615747 173.824092 
L 339.013464 173.824092 
z
" style="fill:#1f77b4;"/>
   </g>
   <g id="patch_177">
    <path clip-path="url(#p6868ff0ffb)" d="M 340.615747 273.312 
L 342.21803 273.312 
L 342.21803 189.074063 
L 340.615747 189.074063 
z
" style="fill:#1f77b4;"/>
   </g>
   <g id="patch_178">
    <path clip-path="url(#p6868ff0ffb)" d="M 342.21803 273.312 
L 343.820312 273.312 
L 343.820312 183.990739 
L 342.21803 183.990739 
z
" style="fill:#1f77b4;"/>
   </g>
   <g id="patch_179">
    <path clip-path="url(#p6868ff0ffb)" d="M 343.820312 273.312 
L 345.422595 273.312 
L 345.422595 183.990739 
L 343.820312 183.990739 
z
" style="fill:#1f77b4;"/>
   </g>
   <g id="patch_180">
    <path clip-path="url(#p6868ff0ffb)" d="M 345.422595 273.312 
L 347.024878 273.312 
L 347.024878 183.990739 
L 345.422595 183.990739 
z
" style="fill:#1f77b4;"/>
   </g>
   <g id="patch_181">
    <path clip-path="url(#p6868ff0ffb)" d="M 347.024878 273.312 
L 348.627161 273.312 
L 348.627161 198.514521 
L 347.024878 198.514521 
z
" style="fill:#1f77b4;"/>
   </g>
   <g id="patch_182">
    <path clip-path="url(#p6868ff0ffb)" d="M 348.627161 273.312 
L 350.229444 273.312 
L 350.229444 202.145467 
L 348.627161 202.145467 
z
" style="fill:#1f77b4;"/>
   </g>
   <g id="patch_183">
    <path clip-path="url(#p6868ff0ffb)" d="M 350.229444 273.312 
L 351.831726 273.312 
L 351.831726 203.597845 
L 350.229444 203.597845 
z
" style="fill:#1f77b4;"/>
   </g>
   <g id="patch_184">
    <path clip-path="url(#p6868ff0ffb)" d="M 351.831726 273.312 
L 353.434009 273.312 
L 353.434009 204.324034 
L 351.831726 204.324034 
z
" style="fill:#1f77b4;"/>
   </g>
   <g id="patch_185">
    <path clip-path="url(#p6868ff0ffb)" d="M 353.434009 273.312 
L 355.036292 273.312 
L 355.036292 218.121628 
L 353.434009 218.121628 
z
" style="fill:#1f77b4;"/>
   </g>
   <g id="patch_186">
    <path clip-path="url(#p6868ff0ffb)" d="M 355.036292 273.312 
L 356.638575 273.312 
L 356.638575 218.847817 
L 355.036292 218.847817 
z
" style="fill:#1f77b4;"/>
   </g>
   <g id="patch_187">
    <path clip-path="url(#p6868ff0ffb)" d="M 356.638575 273.312 
L 358.240858 273.312 
L 358.240858 205.776413 
L 356.638575 205.776413 
z
" style="fill:#1f77b4;"/>
   </g>
   <g id="patch_188">
    <path clip-path="url(#p6868ff0ffb)" d="M 358.240858 273.312 
L 359.843141 273.312 
L 359.843141 229.014464 
L 358.240858 229.014464 
z
" style="fill:#1f77b4;"/>
   </g>
   <g id="patch_189">
    <path clip-path="url(#p6868ff0ffb)" d="M 359.843141 273.312 
L 361.445423 273.312 
L 361.445423 232.64541 
L 359.843141 232.64541 
z
" style="fill:#1f77b4;"/>
   </g>
   <g id="patch_190">
    <path clip-path="url(#p6868ff0ffb)" d="M 361.445423 273.312 
L 363.047706 273.312 
L 363.047706 232.64541 
L 361.445423 232.64541 
z
" style="fill:#1f77b4;"/>
   </g>
   <g id="patch_191">
    <path clip-path="url(#p6868ff0ffb)" d="M 363.047706 273.312 
L 364.649989 273.312 
L 364.649989 228.288275 
L 363.047706 228.288275 
z
" style="fill:#1f77b4;"/>
   </g>
   <g id="patch_192">
    <path clip-path="url(#p6868ff0ffb)" d="M 364.649989 273.312 
L 366.252272 273.312 
L 366.252272 238.454923 
L 364.649989 238.454923 
z
" style="fill:#1f77b4;"/>
   </g>
   <g id="patch_193">
    <path clip-path="url(#p6868ff0ffb)" d="M 366.252272 273.312 
L 367.854555 273.312 
L 367.854555 237.728734 
L 366.252272 237.728734 
z
" style="fill:#1f77b4;"/>
   </g>
   <g id="patch_194">
    <path clip-path="url(#p6868ff0ffb)" d="M 367.854555 273.312 
L 369.456837 273.312 
L 369.456837 240.63349 
L 367.854555 240.63349 
z
" style="fill:#1f77b4;"/>
   </g>
   <g id="patch_195">
    <path clip-path="url(#p6868ff0ffb)" d="M 369.456837 273.312 
L 371.05912 273.312 
L 371.05912 240.63349 
L 369.456837 240.63349 
z
" style="fill:#1f77b4;"/>
   </g>
   <g id="patch_196">
    <path clip-path="url(#p6868ff0ffb)" d="M 371.05912 273.312 
L 372.661403 273.312 
L 372.661403 246.443003 
L 371.05912 246.443003 
z
" style="fill:#1f77b4;"/>
   </g>
   <g id="patch_197">
    <path clip-path="url(#p6868ff0ffb)" d="M 372.661403 273.312 
L 374.263686 273.312 
L 374.263686 248.62157 
L 372.661403 248.62157 
z
" style="fill:#1f77b4;"/>
   </g>
   <g id="patch_198">
    <path clip-path="url(#p6868ff0ffb)" d="M 374.263686 273.312 
L 375.865969 273.312 
L 375.865969 250.073948 
L 374.263686 250.073948 
z
" style="fill:#1f77b4;"/>
   </g>
   <g id="patch_199">
    <path clip-path="url(#p6868ff0ffb)" d="M 375.865969 273.312 
L 377.468252 273.312 
L 377.468252 263.145352 
L 375.865969 263.145352 
z
" style="fill:#1f77b4;"/>
   </g>
   <g id="patch_200">
    <path clip-path="url(#p6868ff0ffb)" d="M 377.468252 273.312 
L 379.070534 273.312 
L 379.070534 263.145352 
L 377.468252 263.145352 
z
" style="fill:#1f77b4;"/>
   </g>
   <g id="patch_201">
    <path clip-path="url(#p6868ff0ffb)" d="M 379.070534 273.312 
L 380.672817 273.312 
L 380.672817 261.692974 
L 379.070534 261.692974 
z
" style="fill:#1f77b4;"/>
   </g>
   <g id="patch_202">
    <path clip-path="url(#p6868ff0ffb)" d="M 380.672817 273.312 
L 382.2751 273.312 
L 382.2751 260.966785 
L 380.672817 260.966785 
z
" style="fill:#1f77b4;"/>
   </g>
   <g id="matplotlib.axis_1">
    <g id="xtick_1">
     <g id="line2d_1">
      <defs>
       <path d="M 0 0 
L 0 3.5 
" id="m9c6976b078" style="stroke:#000000;stroke-width:0.8;"/>
      </defs>
      <g>
       <use style="stroke:#000000;stroke-width:0.8;" x="60.013977" xlink:href="#m9c6976b078" y="273.312"/>
      </g>
     </g>
     <g id="text_1">
      <!-- 0.0 -->
      <g transform="translate(52.062415 287.910437)scale(0.1 -0.1)">
       <defs>
        <path d="M 2034 4250 
Q 1547 4250 1301 3770 
Q 1056 3291 1056 2328 
Q 1056 1369 1301 889 
Q 1547 409 2034 409 
Q 2525 409 2770 889 
Q 3016 1369 3016 2328 
Q 3016 3291 2770 3770 
Q 2525 4250 2034 4250 
z
M 2034 4750 
Q 2819 4750 3233 4129 
Q 3647 3509 3647 2328 
Q 3647 1150 3233 529 
Q 2819 -91 2034 -91 
Q 1250 -91 836 529 
Q 422 1150 422 2328 
Q 422 3509 836 4129 
Q 1250 4750 2034 4750 
z
" id="DejaVuSans-30" transform="scale(0.015625)"/>
        <path d="M 684 794 
L 1344 794 
L 1344 0 
L 684 0 
L 684 794 
z
" id="DejaVuSans-2e" transform="scale(0.015625)"/>
       </defs>
       <use xlink:href="#DejaVuSans-30"/>
       <use x="63.623047" xlink:href="#DejaVuSans-2e"/>
       <use x="95.410156" xlink:href="#DejaVuSans-30"/>
      </g>
     </g>
    </g>
    <g id="xtick_2">
     <g id="line2d_2">
      <g>
       <use style="stroke:#000000;stroke-width:0.8;" x="101.350278" xlink:href="#m9c6976b078" y="273.312"/>
      </g>
     </g>
     <g id="text_2">
      <!-- 0.2 -->
      <g transform="translate(93.398715 287.910437)scale(0.1 -0.1)">
       <defs>
        <path d="M 1228 531 
L 3431 531 
L 3431 0 
L 469 0 
L 469 531 
Q 828 903 1448 1529 
Q 2069 2156 2228 2338 
Q 2531 2678 2651 2914 
Q 2772 3150 2772 3378 
Q 2772 3750 2511 3984 
Q 2250 4219 1831 4219 
Q 1534 4219 1204 4116 
Q 875 4013 500 3803 
L 500 4441 
Q 881 4594 1212 4672 
Q 1544 4750 1819 4750 
Q 2544 4750 2975 4387 
Q 3406 4025 3406 3419 
Q 3406 3131 3298 2873 
Q 3191 2616 2906 2266 
Q 2828 2175 2409 1742 
Q 1991 1309 1228 531 
z
" id="DejaVuSans-32" transform="scale(0.015625)"/>
       </defs>
       <use xlink:href="#DejaVuSans-30"/>
       <use x="63.623047" xlink:href="#DejaVuSans-2e"/>
       <use x="95.410156" xlink:href="#DejaVuSans-32"/>
      </g>
     </g>
    </g>
    <g id="xtick_3">
     <g id="line2d_3">
      <g>
       <use style="stroke:#000000;stroke-width:0.8;" x="142.686578" xlink:href="#m9c6976b078" y="273.312"/>
      </g>
     </g>
     <g id="text_3">
      <!-- 0.4 -->
      <g transform="translate(134.735016 287.910437)scale(0.1 -0.1)">
       <defs>
        <path d="M 2419 4116 
L 825 1625 
L 2419 1625 
L 2419 4116 
z
M 2253 4666 
L 3047 4666 
L 3047 1625 
L 3713 1625 
L 3713 1100 
L 3047 1100 
L 3047 0 
L 2419 0 
L 2419 1100 
L 313 1100 
L 313 1709 
L 2253 4666 
z
" id="DejaVuSans-34" transform="scale(0.015625)"/>
       </defs>
       <use xlink:href="#DejaVuSans-30"/>
       <use x="63.623047" xlink:href="#DejaVuSans-2e"/>
       <use x="95.410156" xlink:href="#DejaVuSans-34"/>
      </g>
     </g>
    </g>
    <g id="xtick_4">
     <g id="line2d_4">
      <g>
       <use style="stroke:#000000;stroke-width:0.8;" x="184.022879" xlink:href="#m9c6976b078" y="273.312"/>
      </g>
     </g>
     <g id="text_4">
      <!-- 0.6 -->
      <g transform="translate(176.071316 287.910437)scale(0.1 -0.1)">
       <defs>
        <path d="M 2113 2584 
Q 1688 2584 1439 2293 
Q 1191 2003 1191 1497 
Q 1191 994 1439 701 
Q 1688 409 2113 409 
Q 2538 409 2786 701 
Q 3034 994 3034 1497 
Q 3034 2003 2786 2293 
Q 2538 2584 2113 2584 
z
M 3366 4563 
L 3366 3988 
Q 3128 4100 2886 4159 
Q 2644 4219 2406 4219 
Q 1781 4219 1451 3797 
Q 1122 3375 1075 2522 
Q 1259 2794 1537 2939 
Q 1816 3084 2150 3084 
Q 2853 3084 3261 2657 
Q 3669 2231 3669 1497 
Q 3669 778 3244 343 
Q 2819 -91 2113 -91 
Q 1303 -91 875 529 
Q 447 1150 447 2328 
Q 447 3434 972 4092 
Q 1497 4750 2381 4750 
Q 2619 4750 2861 4703 
Q 3103 4656 3366 4563 
z
" id="DejaVuSans-36" transform="scale(0.015625)"/>
       </defs>
       <use xlink:href="#DejaVuSans-30"/>
       <use x="63.623047" xlink:href="#DejaVuSans-2e"/>
       <use x="95.410156" xlink:href="#DejaVuSans-36"/>
      </g>
     </g>
    </g>
    <g id="xtick_5">
     <g id="line2d_5">
      <g>
       <use style="stroke:#000000;stroke-width:0.8;" x="225.35918" xlink:href="#m9c6976b078" y="273.312"/>
      </g>
     </g>
     <g id="text_5">
      <!-- 0.8 -->
      <g transform="translate(217.407617 287.910437)scale(0.1 -0.1)">
       <defs>
        <path d="M 2034 2216 
Q 1584 2216 1326 1975 
Q 1069 1734 1069 1313 
Q 1069 891 1326 650 
Q 1584 409 2034 409 
Q 2484 409 2743 651 
Q 3003 894 3003 1313 
Q 3003 1734 2745 1975 
Q 2488 2216 2034 2216 
z
M 1403 2484 
Q 997 2584 770 2862 
Q 544 3141 544 3541 
Q 544 4100 942 4425 
Q 1341 4750 2034 4750 
Q 2731 4750 3128 4425 
Q 3525 4100 3525 3541 
Q 3525 3141 3298 2862 
Q 3072 2584 2669 2484 
Q 3125 2378 3379 2068 
Q 3634 1759 3634 1313 
Q 3634 634 3220 271 
Q 2806 -91 2034 -91 
Q 1263 -91 848 271 
Q 434 634 434 1313 
Q 434 1759 690 2068 
Q 947 2378 1403 2484 
z
M 1172 3481 
Q 1172 3119 1398 2916 
Q 1625 2713 2034 2713 
Q 2441 2713 2670 2916 
Q 2900 3119 2900 3481 
Q 2900 3844 2670 4047 
Q 2441 4250 2034 4250 
Q 1625 4250 1398 4047 
Q 1172 3844 1172 3481 
z
" id="DejaVuSans-38" transform="scale(0.015625)"/>
       </defs>
       <use xlink:href="#DejaVuSans-30"/>
       <use x="63.623047" xlink:href="#DejaVuSans-2e"/>
       <use x="95.410156" xlink:href="#DejaVuSans-38"/>
      </g>
     </g>
    </g>
    <g id="xtick_6">
     <g id="line2d_6">
      <g>
       <use style="stroke:#000000;stroke-width:0.8;" x="266.69548" xlink:href="#m9c6976b078" y="273.312"/>
      </g>
     </g>
     <g id="text_6">
      <!-- 1.0 -->
      <g transform="translate(258.743918 287.910437)scale(0.1 -0.1)">
       <defs>
        <path d="M 794 531 
L 1825 531 
L 1825 4091 
L 703 3866 
L 703 4441 
L 1819 4666 
L 2450 4666 
L 2450 531 
L 3481 531 
L 3481 0 
L 794 0 
L 794 531 
z
" id="DejaVuSans-31" transform="scale(0.015625)"/>
       </defs>
       <use xlink:href="#DejaVuSans-31"/>
       <use x="63.623047" xlink:href="#DejaVuSans-2e"/>
       <use x="95.410156" xlink:href="#DejaVuSans-30"/>
      </g>
     </g>
    </g>
    <g id="xtick_7">
     <g id="line2d_7">
      <g>
       <use style="stroke:#000000;stroke-width:0.8;" x="308.031781" xlink:href="#m9c6976b078" y="273.312"/>
      </g>
     </g>
     <g id="text_7">
      <!-- 1.2 -->
      <g transform="translate(300.080218 287.910437)scale(0.1 -0.1)">
       <use xlink:href="#DejaVuSans-31"/>
       <use x="63.623047" xlink:href="#DejaVuSans-2e"/>
       <use x="95.410156" xlink:href="#DejaVuSans-32"/>
      </g>
     </g>
    </g>
    <g id="xtick_8">
     <g id="line2d_8">
      <g>
       <use style="stroke:#000000;stroke-width:0.8;" x="349.368081" xlink:href="#m9c6976b078" y="273.312"/>
      </g>
     </g>
     <g id="text_8">
      <!-- 1.4 -->
      <g transform="translate(341.416519 287.910437)scale(0.1 -0.1)">
       <use xlink:href="#DejaVuSans-31"/>
       <use x="63.623047" xlink:href="#DejaVuSans-2e"/>
       <use x="95.410156" xlink:href="#DejaVuSans-34"/>
      </g>
     </g>
    </g>
    <g id="xtick_9">
     <g id="line2d_9">
      <g>
       <use style="stroke:#000000;stroke-width:0.8;" x="390.704382" xlink:href="#m9c6976b078" y="273.312"/>
      </g>
     </g>
     <g id="text_9">
      <!-- 1.6 -->
      <g transform="translate(382.752819 287.910437)scale(0.1 -0.1)">
       <use xlink:href="#DejaVuSans-31"/>
       <use x="63.623047" xlink:href="#DejaVuSans-2e"/>
       <use x="95.410156" xlink:href="#DejaVuSans-36"/>
      </g>
     </g>
    </g>
    <g id="text_10">
     <!-- Angle with normal (rad) -->
     <g transform="translate(163.023281 301.588562)scale(0.1 -0.1)">
      <defs>
       <path d="M 2188 4044 
L 1331 1722 
L 3047 1722 
L 2188 4044 
z
M 1831 4666 
L 2547 4666 
L 4325 0 
L 3669 0 
L 3244 1197 
L 1141 1197 
L 716 0 
L 50 0 
L 1831 4666 
z
" id="DejaVuSans-41" transform="scale(0.015625)"/>
       <path d="M 3513 2113 
L 3513 0 
L 2938 0 
L 2938 2094 
Q 2938 2591 2744 2837 
Q 2550 3084 2163 3084 
Q 1697 3084 1428 2787 
Q 1159 2491 1159 1978 
L 1159 0 
L 581 0 
L 581 3500 
L 1159 3500 
L 1159 2956 
Q 1366 3272 1645 3428 
Q 1925 3584 2291 3584 
Q 2894 3584 3203 3211 
Q 3513 2838 3513 2113 
z
" id="DejaVuSans-6e" transform="scale(0.015625)"/>
       <path d="M 2906 1791 
Q 2906 2416 2648 2759 
Q 2391 3103 1925 3103 
Q 1463 3103 1205 2759 
Q 947 2416 947 1791 
Q 947 1169 1205 825 
Q 1463 481 1925 481 
Q 2391 481 2648 825 
Q 2906 1169 2906 1791 
z
M 3481 434 
Q 3481 -459 3084 -895 
Q 2688 -1331 1869 -1331 
Q 1566 -1331 1297 -1286 
Q 1028 -1241 775 -1147 
L 775 -588 
Q 1028 -725 1275 -790 
Q 1522 -856 1778 -856 
Q 2344 -856 2625 -561 
Q 2906 -266 2906 331 
L 2906 616 
Q 2728 306 2450 153 
Q 2172 0 1784 0 
Q 1141 0 747 490 
Q 353 981 353 1791 
Q 353 2603 747 3093 
Q 1141 3584 1784 3584 
Q 2172 3584 2450 3431 
Q 2728 3278 2906 2969 
L 2906 3500 
L 3481 3500 
L 3481 434 
z
" id="DejaVuSans-67" transform="scale(0.015625)"/>
       <path d="M 603 4863 
L 1178 4863 
L 1178 0 
L 603 0 
L 603 4863 
z
" id="DejaVuSans-6c" transform="scale(0.015625)"/>
       <path d="M 3597 1894 
L 3597 1613 
L 953 1613 
Q 991 1019 1311 708 
Q 1631 397 2203 397 
Q 2534 397 2845 478 
Q 3156 559 3463 722 
L 3463 178 
Q 3153 47 2828 -22 
Q 2503 -91 2169 -91 
Q 1331 -91 842 396 
Q 353 884 353 1716 
Q 353 2575 817 3079 
Q 1281 3584 2069 3584 
Q 2775 3584 3186 3129 
Q 3597 2675 3597 1894 
z
M 3022 2063 
Q 3016 2534 2758 2815 
Q 2500 3097 2075 3097 
Q 1594 3097 1305 2825 
Q 1016 2553 972 2059 
L 3022 2063 
z
" id="DejaVuSans-65" transform="scale(0.015625)"/>
       <path id="DejaVuSans-20" transform="scale(0.015625)"/>
       <path d="M 269 3500 
L 844 3500 
L 1563 769 
L 2278 3500 
L 2956 3500 
L 3675 769 
L 4391 3500 
L 4966 3500 
L 4050 0 
L 3372 0 
L 2619 2869 
L 1863 0 
L 1184 0 
L 269 3500 
z
" id="DejaVuSans-77" transform="scale(0.015625)"/>
       <path d="M 603 3500 
L 1178 3500 
L 1178 0 
L 603 0 
L 603 3500 
z
M 603 4863 
L 1178 4863 
L 1178 4134 
L 603 4134 
L 603 4863 
z
" id="DejaVuSans-69" transform="scale(0.015625)"/>
       <path d="M 1172 4494 
L 1172 3500 
L 2356 3500 
L 2356 3053 
L 1172 3053 
L 1172 1153 
Q 1172 725 1289 603 
Q 1406 481 1766 481 
L 2356 481 
L 2356 0 
L 1766 0 
Q 1100 0 847 248 
Q 594 497 594 1153 
L 594 3053 
L 172 3053 
L 172 3500 
L 594 3500 
L 594 4494 
L 1172 4494 
z
" id="DejaVuSans-74" transform="scale(0.015625)"/>
       <path d="M 3513 2113 
L 3513 0 
L 2938 0 
L 2938 2094 
Q 2938 2591 2744 2837 
Q 2550 3084 2163 3084 
Q 1697 3084 1428 2787 
Q 1159 2491 1159 1978 
L 1159 0 
L 581 0 
L 581 4863 
L 1159 4863 
L 1159 2956 
Q 1366 3272 1645 3428 
Q 1925 3584 2291 3584 
Q 2894 3584 3203 3211 
Q 3513 2838 3513 2113 
z
" id="DejaVuSans-68" transform="scale(0.015625)"/>
       <path d="M 1959 3097 
Q 1497 3097 1228 2736 
Q 959 2375 959 1747 
Q 959 1119 1226 758 
Q 1494 397 1959 397 
Q 2419 397 2687 759 
Q 2956 1122 2956 1747 
Q 2956 2369 2687 2733 
Q 2419 3097 1959 3097 
z
M 1959 3584 
Q 2709 3584 3137 3096 
Q 3566 2609 3566 1747 
Q 3566 888 3137 398 
Q 2709 -91 1959 -91 
Q 1206 -91 779 398 
Q 353 888 353 1747 
Q 353 2609 779 3096 
Q 1206 3584 1959 3584 
z
" id="DejaVuSans-6f" transform="scale(0.015625)"/>
       <path d="M 2631 2963 
Q 2534 3019 2420 3045 
Q 2306 3072 2169 3072 
Q 1681 3072 1420 2755 
Q 1159 2438 1159 1844 
L 1159 0 
L 581 0 
L 581 3500 
L 1159 3500 
L 1159 2956 
Q 1341 3275 1631 3429 
Q 1922 3584 2338 3584 
Q 2397 3584 2469 3576 
Q 2541 3569 2628 3553 
L 2631 2963 
z
" id="DejaVuSans-72" transform="scale(0.015625)"/>
       <path d="M 3328 2828 
Q 3544 3216 3844 3400 
Q 4144 3584 4550 3584 
Q 5097 3584 5394 3201 
Q 5691 2819 5691 2113 
L 5691 0 
L 5113 0 
L 5113 2094 
Q 5113 2597 4934 2840 
Q 4756 3084 4391 3084 
Q 3944 3084 3684 2787 
Q 3425 2491 3425 1978 
L 3425 0 
L 2847 0 
L 2847 2094 
Q 2847 2600 2669 2842 
Q 2491 3084 2119 3084 
Q 1678 3084 1418 2786 
Q 1159 2488 1159 1978 
L 1159 0 
L 581 0 
L 581 3500 
L 1159 3500 
L 1159 2956 
Q 1356 3278 1631 3431 
Q 1906 3584 2284 3584 
Q 2666 3584 2933 3390 
Q 3200 3197 3328 2828 
z
" id="DejaVuSans-6d" transform="scale(0.015625)"/>
       <path d="M 2194 1759 
Q 1497 1759 1228 1600 
Q 959 1441 959 1056 
Q 959 750 1161 570 
Q 1363 391 1709 391 
Q 2188 391 2477 730 
Q 2766 1069 2766 1631 
L 2766 1759 
L 2194 1759 
z
M 3341 1997 
L 3341 0 
L 2766 0 
L 2766 531 
Q 2569 213 2275 61 
Q 1981 -91 1556 -91 
Q 1019 -91 701 211 
Q 384 513 384 1019 
Q 384 1609 779 1909 
Q 1175 2209 1959 2209 
L 2766 2209 
L 2766 2266 
Q 2766 2663 2505 2880 
Q 2244 3097 1772 3097 
Q 1472 3097 1187 3025 
Q 903 2953 641 2809 
L 641 3341 
Q 956 3463 1253 3523 
Q 1550 3584 1831 3584 
Q 2591 3584 2966 3190 
Q 3341 2797 3341 1997 
z
" id="DejaVuSans-61" transform="scale(0.015625)"/>
       <path d="M 1984 4856 
Q 1566 4138 1362 3434 
Q 1159 2731 1159 2009 
Q 1159 1288 1364 580 
Q 1569 -128 1984 -844 
L 1484 -844 
Q 1016 -109 783 600 
Q 550 1309 550 2009 
Q 550 2706 781 3412 
Q 1013 4119 1484 4856 
L 1984 4856 
z
" id="DejaVuSans-28" transform="scale(0.015625)"/>
       <path d="M 2906 2969 
L 2906 4863 
L 3481 4863 
L 3481 0 
L 2906 0 
L 2906 525 
Q 2725 213 2448 61 
Q 2172 -91 1784 -91 
Q 1150 -91 751 415 
Q 353 922 353 1747 
Q 353 2572 751 3078 
Q 1150 3584 1784 3584 
Q 2172 3584 2448 3432 
Q 2725 3281 2906 2969 
z
M 947 1747 
Q 947 1113 1208 752 
Q 1469 391 1925 391 
Q 2381 391 2643 752 
Q 2906 1113 2906 1747 
Q 2906 2381 2643 2742 
Q 2381 3103 1925 3103 
Q 1469 3103 1208 2742 
Q 947 2381 947 1747 
z
" id="DejaVuSans-64" transform="scale(0.015625)"/>
       <path d="M 513 4856 
L 1013 4856 
Q 1481 4119 1714 3412 
Q 1947 2706 1947 2009 
Q 1947 1309 1714 600 
Q 1481 -109 1013 -844 
L 513 -844 
Q 928 -128 1133 580 
Q 1338 1288 1338 2009 
Q 1338 2731 1133 3434 
Q 928 4138 513 4856 
z
" id="DejaVuSans-29" transform="scale(0.015625)"/>
      </defs>
      <use xlink:href="#DejaVuSans-41"/>
      <use x="68.408203" xlink:href="#DejaVuSans-6e"/>
      <use x="131.787109" xlink:href="#DejaVuSans-67"/>
      <use x="195.263672" xlink:href="#DejaVuSans-6c"/>
      <use x="223.046875" xlink:href="#DejaVuSans-65"/>
      <use x="284.570312" xlink:href="#DejaVuSans-20"/>
      <use x="316.357422" xlink:href="#DejaVuSans-77"/>
      <use x="398.144531" xlink:href="#DejaVuSans-69"/>
      <use x="425.927734" xlink:href="#DejaVuSans-74"/>
      <use x="465.136719" xlink:href="#DejaVuSans-68"/>
      <use x="528.515625" xlink:href="#DejaVuSans-20"/>
      <use x="560.302734" xlink:href="#DejaVuSans-6e"/>
      <use x="623.681641" xlink:href="#DejaVuSans-6f"/>
      <use x="684.863281" xlink:href="#DejaVuSans-72"/>
      <use x="724.226562" xlink:href="#DejaVuSans-6d"/>
      <use x="821.638672" xlink:href="#DejaVuSans-61"/>
      <use x="882.917969" xlink:href="#DejaVuSans-6c"/>
      <use x="910.701172" xlink:href="#DejaVuSans-20"/>
      <use x="942.488281" xlink:href="#DejaVuSans-28"/>
      <use x="981.501953" xlink:href="#DejaVuSans-72"/>
      <use x="1022.615234" xlink:href="#DejaVuSans-61"/>
      <use x="1083.894531" xlink:href="#DejaVuSans-64"/>
      <use x="1147.371094" xlink:href="#DejaVuSans-29"/>
     </g>
    </g>
   </g>
   <g id="matplotlib.axis_2">
    <g id="ytick_1">
     <g id="line2d_10">
      <defs>
       <path d="M 0 0 
L -3.5 0 
" id="me523891c2f" style="stroke:#000000;stroke-width:0.8;"/>
      </defs>
      <g>
       <use style="stroke:#000000;stroke-width:0.8;" x="43.78125" xlink:href="#me523891c2f" y="273.312"/>
      </g>
     </g>
     <g id="text_11">
      <!-- 0.0 -->
      <g transform="translate(20.878125 277.111219)scale(0.1 -0.1)">
       <use xlink:href="#DejaVuSans-30"/>
       <use x="63.623047" xlink:href="#DejaVuSans-2e"/>
       <use x="95.410156" xlink:href="#DejaVuSans-30"/>
      </g>
     </g>
    </g>
    <g id="ytick_2">
     <g id="line2d_11">
      <g>
       <use style="stroke:#000000;stroke-width:0.8;" x="43.78125" xlink:href="#me523891c2f" y="228.274188"/>
      </g>
     </g>
     <g id="text_12">
      <!-- 0.2 -->
      <g transform="translate(20.878125 232.073407)scale(0.1 -0.1)">
       <use xlink:href="#DejaVuSans-30"/>
       <use x="63.623047" xlink:href="#DejaVuSans-2e"/>
       <use x="95.410156" xlink:href="#DejaVuSans-32"/>
      </g>
     </g>
    </g>
    <g id="ytick_3">
     <g id="line2d_12">
      <g>
       <use style="stroke:#000000;stroke-width:0.8;" x="43.78125" xlink:href="#me523891c2f" y="183.236376"/>
      </g>
     </g>
     <g id="text_13">
      <!-- 0.4 -->
      <g transform="translate(20.878125 187.035595)scale(0.1 -0.1)">
       <use xlink:href="#DejaVuSans-30"/>
       <use x="63.623047" xlink:href="#DejaVuSans-2e"/>
       <use x="95.410156" xlink:href="#DejaVuSans-34"/>
      </g>
     </g>
    </g>
    <g id="ytick_4">
     <g id="line2d_13">
      <g>
       <use style="stroke:#000000;stroke-width:0.8;" x="43.78125" xlink:href="#me523891c2f" y="138.198564"/>
      </g>
     </g>
     <g id="text_14">
      <!-- 0.6 -->
      <g transform="translate(20.878125 141.997783)scale(0.1 -0.1)">
       <use xlink:href="#DejaVuSans-30"/>
       <use x="63.623047" xlink:href="#DejaVuSans-2e"/>
       <use x="95.410156" xlink:href="#DejaVuSans-36"/>
      </g>
     </g>
    </g>
    <g id="ytick_5">
     <g id="line2d_14">
      <g>
       <use style="stroke:#000000;stroke-width:0.8;" x="43.78125" xlink:href="#me523891c2f" y="93.160752"/>
      </g>
     </g>
     <g id="text_15">
      <!-- 0.8 -->
      <g transform="translate(20.878125 96.959971)scale(0.1 -0.1)">
       <use xlink:href="#DejaVuSans-30"/>
       <use x="63.623047" xlink:href="#DejaVuSans-2e"/>
       <use x="95.410156" xlink:href="#DejaVuSans-38"/>
      </g>
     </g>
    </g>
    <g id="ytick_6">
     <g id="line2d_15">
      <g>
       <use style="stroke:#000000;stroke-width:0.8;" x="43.78125" xlink:href="#me523891c2f" y="48.12294"/>
      </g>
     </g>
     <g id="text_16">
      <!-- 1.0 -->
      <g transform="translate(20.878125 51.922158)scale(0.1 -0.1)">
       <use xlink:href="#DejaVuSans-31"/>
       <use x="63.623047" xlink:href="#DejaVuSans-2e"/>
       <use x="95.410156" xlink:href="#DejaVuSans-30"/>
      </g>
     </g>
    </g>
    <g id="text_17">
     <!-- Probability density -->
     <g transform="translate(14.798438 186.606781)rotate(-90)scale(0.1 -0.1)">
      <defs>
       <path d="M 1259 4147 
L 1259 2394 
L 2053 2394 
Q 2494 2394 2734 2622 
Q 2975 2850 2975 3272 
Q 2975 3691 2734 3919 
Q 2494 4147 2053 4147 
L 1259 4147 
z
M 628 4666 
L 2053 4666 
Q 2838 4666 3239 4311 
Q 3641 3956 3641 3272 
Q 3641 2581 3239 2228 
Q 2838 1875 2053 1875 
L 1259 1875 
L 1259 0 
L 628 0 
L 628 4666 
z
" id="DejaVuSans-50" transform="scale(0.015625)"/>
       <path d="M 3116 1747 
Q 3116 2381 2855 2742 
Q 2594 3103 2138 3103 
Q 1681 3103 1420 2742 
Q 1159 2381 1159 1747 
Q 1159 1113 1420 752 
Q 1681 391 2138 391 
Q 2594 391 2855 752 
Q 3116 1113 3116 1747 
z
M 1159 2969 
Q 1341 3281 1617 3432 
Q 1894 3584 2278 3584 
Q 2916 3584 3314 3078 
Q 3713 2572 3713 1747 
Q 3713 922 3314 415 
Q 2916 -91 2278 -91 
Q 1894 -91 1617 61 
Q 1341 213 1159 525 
L 1159 0 
L 581 0 
L 581 4863 
L 1159 4863 
L 1159 2969 
z
" id="DejaVuSans-62" transform="scale(0.015625)"/>
       <path d="M 2059 -325 
Q 1816 -950 1584 -1140 
Q 1353 -1331 966 -1331 
L 506 -1331 
L 506 -850 
L 844 -850 
Q 1081 -850 1212 -737 
Q 1344 -625 1503 -206 
L 1606 56 
L 191 3500 
L 800 3500 
L 1894 763 
L 2988 3500 
L 3597 3500 
L 2059 -325 
z
" id="DejaVuSans-79" transform="scale(0.015625)"/>
       <path d="M 2834 3397 
L 2834 2853 
Q 2591 2978 2328 3040 
Q 2066 3103 1784 3103 
Q 1356 3103 1142 2972 
Q 928 2841 928 2578 
Q 928 2378 1081 2264 
Q 1234 2150 1697 2047 
L 1894 2003 
Q 2506 1872 2764 1633 
Q 3022 1394 3022 966 
Q 3022 478 2636 193 
Q 2250 -91 1575 -91 
Q 1294 -91 989 -36 
Q 684 19 347 128 
L 347 722 
Q 666 556 975 473 
Q 1284 391 1588 391 
Q 1994 391 2212 530 
Q 2431 669 2431 922 
Q 2431 1156 2273 1281 
Q 2116 1406 1581 1522 
L 1381 1569 
Q 847 1681 609 1914 
Q 372 2147 372 2553 
Q 372 3047 722 3315 
Q 1072 3584 1716 3584 
Q 2034 3584 2315 3537 
Q 2597 3491 2834 3397 
z
" id="DejaVuSans-73" transform="scale(0.015625)"/>
      </defs>
      <use xlink:href="#DejaVuSans-50"/>
      <use x="58.552734" xlink:href="#DejaVuSans-72"/>
      <use x="97.416016" xlink:href="#DejaVuSans-6f"/>
      <use x="158.597656" xlink:href="#DejaVuSans-62"/>
      <use x="222.074219" xlink:href="#DejaVuSans-61"/>
      <use x="283.353516" xlink:href="#DejaVuSans-62"/>
      <use x="346.830078" xlink:href="#DejaVuSans-69"/>
      <use x="374.613281" xlink:href="#DejaVuSans-6c"/>
      <use x="402.396484" xlink:href="#DejaVuSans-69"/>
      <use x="430.179688" xlink:href="#DejaVuSans-74"/>
      <use x="469.388672" xlink:href="#DejaVuSans-79"/>
      <use x="528.568359" xlink:href="#DejaVuSans-20"/>
      <use x="560.355469" xlink:href="#DejaVuSans-64"/>
      <use x="623.832031" xlink:href="#DejaVuSans-65"/>
      <use x="685.355469" xlink:href="#DejaVuSans-6e"/>
      <use x="748.734375" xlink:href="#DejaVuSans-73"/>
      <use x="800.833984" xlink:href="#DejaVuSans-69"/>
      <use x="828.617188" xlink:href="#DejaVuSans-74"/>
      <use x="867.826172" xlink:href="#DejaVuSans-79"/>
     </g>
    </g>
   </g>
   <g id="line2d_16">
    <path clip-path="url(#p6868ff0ffb)" d="M 60.013977 273.312 
L 79.837728 230.37866 
L 90.237073 208.387924 
L 99.01152 190.335372 
L 106.811029 174.786604 
L 113.960578 161.024251 
L 120.460169 148.977543 
L 126.63478 137.987869 
L 132.484411 128.021496 
L 138.009063 119.03563 
L 143.208736 110.980588 
L 148.408408 103.336431 
L 153.283101 96.560422 
L 158.157794 90.177631 
L 162.707507 84.587669 
L 167.257221 79.363457 
L 171.481954 74.848758 
L 175.706688 70.665704 
L 179.606442 67.10484 
L 183.506197 63.837594 
L 187.405951 60.868618 
L 190.980726 58.412699 
L 194.555501 56.213905 
L 198.130275 54.274867 
L 201.70505 52.597907 
L 205.279825 51.18503 
L 208.52962 50.131188 
L 211.779415 49.298039 
L 215.029211 48.686409 
L 218.279006 48.2969 
L 221.528801 48.129899 
L 224.778596 48.185571 
L 228.028392 48.46386 
L 231.278187 48.964491 
L 234.527982 49.68697 
L 237.777777 50.630582 
L 241.027573 51.794394 
L 244.277368 53.177254 
L 247.852143 54.949764 
L 251.426917 56.983543 
L 255.001692 59.276158 
L 258.576467 61.824866 
L 262.476221 64.893756 
L 266.375976 68.259412 
L 270.27573 71.917043 
L 274.500464 76.202912 
L 278.725198 80.818164 
L 282.949931 85.755087 
L 287.499645 91.422037 
L 292.049358 97.441491 
L 296.924051 104.268809 
L 301.798744 111.472197 
L 306.998416 119.552253 
L 312.523068 128.563262 
L 318.3727 138.554568 
L 324.547311 149.56859 
L 331.046901 161.638647 
L 337.871471 174.786604 
L 345.346 189.677451 
L 353.795468 207.033037 
L 363.544854 227.601446 
L 375.894076 254.214634 
L 384.668523 273.312 
L 384.668523 273.312 
" style="fill:none;stroke:#ff7f0e;stroke-linecap:square;stroke-width:1.5;"/>
   </g>
   <g id="patch_203">
    <path d="M 43.78125 273.312 
L 43.78125 7.2 
" style="fill:none;stroke:#000000;stroke-linecap:square;stroke-linejoin:miter;stroke-width:0.8;"/>
   </g>
   <g id="patch_204">
    <path d="M 400.90125 273.312 
L 400.90125 7.2 
" style="fill:none;stroke:#000000;stroke-linecap:square;stroke-linejoin:miter;stroke-width:0.8;"/>
   </g>
   <g id="patch_205">
    <path d="M 43.78125 273.312 
L 400.90125 273.312 
" style="fill:none;stroke:#000000;stroke-linecap:square;stroke-linejoin:miter;stroke-width:0.8;"/>
   </g>
   <g id="patch_206">
    <path d="M 43.78125 7.2 
L 400.90125 7.2 
" style="fill:none;stroke:#000000;stroke-linecap:square;stroke-linejoin:miter;stroke-width:0.8;"/>
   </g>
  </g>
 </g>
 <defs>
  <clipPath id="p6868ff0ffb">
   <rect height="266.112" width="357.12" x="43.78125" y="7.2"/>
  </clipPath>
 </defs>
</svg>
