<?xml version="1.0" encoding="utf-8" standalone="no"?>
<!DOCTYPE svg PUBLIC "-//W3C//DTD SVG 1.1//EN"
  "http://www.w3.org/Graphics/SVG/1.1/DTD/svg11.dtd">
<svg height="310.86825pt" version="1.1" viewBox="0 0 408.10125 310.86825" width="408.10125pt" xmlns="http://www.w3.org/2000/svg" xmlns:xlink="http://www.w3.org/1999/xlink">
 <metadata>
  <rdf:RDF xmlns:cc="http://creativecommons.org/ns#" xmlns:dc="http://purl.org/dc/elements/1.1/" xmlns:rdf="http://www.w3.org/1999/02/22-rdf-syntax-ns#">
   <cc:Work>
    <dc:type rdf:resource="http://purl.org/dc/dcmitype/StillImage"/>
    <dc:date>2021-06-21T19:40:56.475340</dc:date>
    <dc:format>image/svg+xml</dc:format>
    <dc:creator>
     <cc:Agent>
      <dc:title>Matplotlib v3.4.2, https://matplotlib.org/</dc:title>
     </cc:Agent>
    </dc:creator>
   </cc:Work>
  </rdf:RDF>
 </metadata>
 <defs>
  <style type="text/css">*{stroke-linecap:butt;stroke-linejoin:round;}</style>
 </defs>
 <g id="figure_1">
  <g id="patch_1">
   <path d="M 0 310.86825 
L 408.10125 310.86825 
L 408.10125 0 
L 0 0 
z
" style="fill:#ffffff;"/>
  </g>
  <g id="axes_1">
   <g id="patch_2">
    <path d="M 43.78125 273.312 
L 400.90125 273.312 
L 400.90125 7.2 
L 43.78125 7.2 
z
" style="fill:#ffffff;"/>
   </g>
   <g id="patch_3">
    <path clip-path="url(#pd964c3e0cc)" d="M 60.978959 273.312 
L 62.594538 273.312 
L 62.594538 265.207814 
L 60.978959 265.207814 
z
" style="fill:#1f77b4;"/>
   </g>
   <g id="patch_4">
    <path clip-path="url(#pd964c3e0cc)" d="M 62.594538 273.312 
L 64.210116 273.312 
L 64.210116 265.944558 
L 62.594538 265.944558 
z
" style="fill:#1f77b4;"/>
   </g>
   <g id="patch_5">
    <path clip-path="url(#pd964c3e0cc)" d="M 64.210116 273.312 
L 65.825695 273.312 
L 65.825695 261.524093 
L 64.210116 261.524093 
z
" style="fill:#1f77b4;"/>
   </g>
   <g id="patch_6">
    <path clip-path="url(#pd964c3e0cc)" d="M 65.825695 273.312 
L 67.441274 273.312 
L 67.441274 260.787349 
L 65.825695 260.787349 
z
" style="fill:#1f77b4;"/>
   </g>
   <g id="patch_7">
    <path clip-path="url(#pd964c3e0cc)" d="M 67.441274 273.312 
L 69.056852 273.312 
L 69.056852 254.156651 
L 67.441274 254.156651 
z
" style="fill:#1f77b4;"/>
   </g>
   <g id="patch_8">
    <path clip-path="url(#pd964c3e0cc)" d="M 69.056852 273.312 
L 70.672431 273.312 
L 70.672431 251.946419 
L 69.056852 251.946419 
z
" style="fill:#1f77b4;"/>
   </g>
   <g id="patch_9">
    <path clip-path="url(#pd964c3e0cc)" d="M 70.672431 273.312 
L 72.28801 273.312 
L 72.28801 248.999442 
L 70.672431 248.999442 
z
" style="fill:#1f77b4;"/>
   </g>
   <g id="patch_10">
    <path clip-path="url(#pd964c3e0cc)" d="M 72.28801 273.312 
L 73.903589 273.312 
L 73.903589 245.315721 
L 72.28801 245.315721 
z
" style="fill:#1f77b4;"/>
   </g>
   <g id="patch_11">
    <path clip-path="url(#pd964c3e0cc)" d="M 73.903589 273.312 
L 75.519167 273.312 
L 75.519167 247.525953 
L 73.903589 247.525953 
z
" style="fill:#1f77b4;"/>
   </g>
   <g id="patch_12">
    <path clip-path="url(#pd964c3e0cc)" d="M 75.519167 273.312 
L 77.134746 273.312 
L 77.134746 242.368744 
L 75.519167 242.368744 
z
" style="fill:#1f77b4;"/>
   </g>
   <g id="patch_13">
    <path clip-path="url(#pd964c3e0cc)" d="M 77.134746 273.312 
L 78.750325 273.312 
L 78.750325 227.63386 
L 77.134746 227.63386 
z
" style="fill:#1f77b4;"/>
   </g>
   <g id="patch_14">
    <path clip-path="url(#pd964c3e0cc)" d="M 78.750325 273.312 
L 80.365904 273.312 
L 80.365904 232.054326 
L 78.750325 232.054326 
z
" style="fill:#1f77b4;"/>
   </g>
   <g id="patch_15">
    <path clip-path="url(#pd964c3e0cc)" d="M 80.365904 273.312 
L 81.981482 273.312 
L 81.981482 224.686884 
L 80.365904 224.686884 
z
" style="fill:#1f77b4;"/>
   </g>
   <g id="patch_16">
    <path clip-path="url(#pd964c3e0cc)" d="M 81.981482 273.312 
L 83.597061 273.312 
L 83.597061 224.686884 
L 81.981482 224.686884 
z
" style="fill:#1f77b4;"/>
   </g>
   <g id="patch_17">
    <path clip-path="url(#pd964c3e0cc)" d="M 83.597061 273.312 
L 85.21264 273.312 
L 85.21264 215.109209 
L 83.597061 215.109209 
z
" style="fill:#1f77b4;"/>
   </g>
   <g id="patch_18">
    <path clip-path="url(#pd964c3e0cc)" d="M 85.21264 273.312 
L 86.828219 273.312 
L 86.828219 198.164093 
L 85.21264 198.164093 
z
" style="fill:#1f77b4;"/>
   </g>
   <g id="patch_19">
    <path clip-path="url(#pd964c3e0cc)" d="M 86.828219 273.312 
L 88.443797 273.312 
L 88.443797 203.321302 
L 86.828219 203.321302 
z
" style="fill:#1f77b4;"/>
   </g>
   <g id="patch_20">
    <path clip-path="url(#pd964c3e0cc)" d="M 88.443797 273.312 
L 90.059376 273.312 
L 90.059376 195.217116 
L 88.443797 195.217116 
z
" style="fill:#1f77b4;"/>
   </g>
   <g id="patch_21">
    <path clip-path="url(#pd964c3e0cc)" d="M 90.059376 273.312 
L 91.674955 273.312 
L 91.674955 190.059907 
L 90.059376 190.059907 
z
" style="fill:#1f77b4;"/>
   </g>
   <g id="patch_22">
    <path clip-path="url(#pd964c3e0cc)" d="M 91.674955 273.312 
L 93.290533 273.312 
L 93.290533 201.847814 
L 91.674955 201.847814 
z
" style="fill:#1f77b4;"/>
   </g>
   <g id="patch_23">
    <path clip-path="url(#pd964c3e0cc)" d="M 93.290533 273.312 
L 94.906112 273.312 
L 94.906112 190.796651 
L 93.290533 190.796651 
z
" style="fill:#1f77b4;"/>
   </g>
   <g id="patch_24">
    <path clip-path="url(#pd964c3e0cc)" d="M 94.906112 273.312 
L 96.521691 273.312 
L 96.521691 195.217116 
L 94.906112 195.217116 
z
" style="fill:#1f77b4;"/>
   </g>
   <g id="patch_25">
    <path clip-path="url(#pd964c3e0cc)" d="M 96.521691 273.312 
L 98.13727 273.312 
L 98.13727 192.27014 
L 96.521691 192.27014 
z
" style="fill:#1f77b4;"/>
   </g>
   <g id="patch_26">
    <path clip-path="url(#pd964c3e0cc)" d="M 98.13727 273.312 
L 99.752848 273.312 
L 99.752848 181.218977 
L 98.13727 181.218977 
z
" style="fill:#1f77b4;"/>
   </g>
   <g id="patch_27">
    <path clip-path="url(#pd964c3e0cc)" d="M 99.752848 273.312 
L 101.368427 273.312 
L 101.368427 192.27014 
L 99.752848 192.27014 
z
" style="fill:#1f77b4;"/>
   </g>
   <g id="patch_28">
    <path clip-path="url(#pd964c3e0cc)" d="M 101.368427 273.312 
L 102.984006 273.312 
L 102.984006 171.641302 
L 101.368427 171.641302 
z
" style="fill:#1f77b4;"/>
   </g>
   <g id="patch_29">
    <path clip-path="url(#pd964c3e0cc)" d="M 102.984006 273.312 
L 104.599585 273.312 
L 104.599585 184.902698 
L 102.984006 184.902698 
z
" style="fill:#1f77b4;"/>
   </g>
   <g id="patch_30">
    <path clip-path="url(#pd964c3e0cc)" d="M 104.599585 273.312 
L 106.215163 273.312 
L 106.215163 185.639442 
L 104.599585 185.639442 
z
" style="fill:#1f77b4;"/>
   </g>
   <g id="patch_31">
    <path clip-path="url(#pd964c3e0cc)" d="M 106.215163 273.312 
L 107.830742 273.312 
L 107.830742 179.745488 
L 106.215163 179.745488 
z
" style="fill:#1f77b4;"/>
   </g>
   <g id="patch_32">
    <path clip-path="url(#pd964c3e0cc)" d="M 107.830742 273.312 
L 109.446321 273.312 
L 109.446321 168.694326 
L 107.830742 168.694326 
z
" style="fill:#1f77b4;"/>
   </g>
   <g id="patch_33">
    <path clip-path="url(#pd964c3e0cc)" d="M 109.446321 273.312 
L 111.061899 273.312 
L 111.061899 159.116651 
L 109.446321 159.116651 
z
" style="fill:#1f77b4;"/>
   </g>
   <g id="patch_34">
    <path clip-path="url(#pd964c3e0cc)" d="M 111.061899 273.312 
L 112.677478 273.312 
L 112.677478 166.484093 
L 111.061899 166.484093 
z
" style="fill:#1f77b4;"/>
   </g>
   <g id="patch_35">
    <path clip-path="url(#pd964c3e0cc)" d="M 112.677478 273.312 
L 114.293057 273.312 
L 114.293057 148.065488 
L 112.677478 148.065488 
z
" style="fill:#1f77b4;"/>
   </g>
   <g id="patch_36">
    <path clip-path="url(#pd964c3e0cc)" d="M 114.293057 273.312 
L 115.908636 273.312 
L 115.908636 159.853395 
L 114.293057 159.853395 
z
" style="fill:#1f77b4;"/>
   </g>
   <g id="patch_37">
    <path clip-path="url(#pd964c3e0cc)" d="M 115.908636 273.312 
L 117.524214 273.312 
L 117.524214 147.328744 
L 115.908636 147.328744 
z
" style="fill:#1f77b4;"/>
   </g>
   <g id="patch_38">
    <path clip-path="url(#pd964c3e0cc)" d="M 117.524214 273.312 
L 119.139793 273.312 
L 119.139793 147.328744 
L 117.524214 147.328744 
z
" style="fill:#1f77b4;"/>
   </g>
   <g id="patch_39">
    <path clip-path="url(#pd964c3e0cc)" d="M 119.139793 273.312 
L 120.755372 273.312 
L 120.755372 151.012465 
L 119.139793 151.012465 
z
" style="fill:#1f77b4;"/>
   </g>
   <g id="patch_40">
    <path clip-path="url(#pd964c3e0cc)" d="M 120.755372 273.312 
L 122.370951 273.312 
L 122.370951 137.014326 
L 120.755372 137.014326 
z
" style="fill:#1f77b4;"/>
   </g>
   <g id="patch_41">
    <path clip-path="url(#pd964c3e0cc)" d="M 122.370951 273.312 
L 123.986529 273.312 
L 123.986529 109.754791 
L 122.370951 109.754791 
z
" style="fill:#1f77b4;"/>
   </g>
   <g id="patch_42">
    <path clip-path="url(#pd964c3e0cc)" d="M 123.986529 273.312 
L 125.602108 273.312 
L 125.602108 138.487814 
L 123.986529 138.487814 
z
" style="fill:#1f77b4;"/>
   </g>
   <g id="patch_43">
    <path clip-path="url(#pd964c3e0cc)" d="M 125.602108 273.312 
L 127.217687 273.312 
L 127.217687 137.014326 
L 125.602108 137.014326 
z
" style="fill:#1f77b4;"/>
   </g>
   <g id="patch_44">
    <path clip-path="url(#pd964c3e0cc)" d="M 127.217687 273.312 
L 128.833266 273.312 
L 128.833266 110.491535 
L 127.217687 110.491535 
z
" style="fill:#1f77b4;"/>
   </g>
   <g id="patch_45">
    <path clip-path="url(#pd964c3e0cc)" d="M 128.833266 273.312 
L 130.448844 273.312 
L 130.448844 146.592 
L 128.833266 146.592 
z
" style="fill:#1f77b4;"/>
   </g>
   <g id="patch_46">
    <path clip-path="url(#pd964c3e0cc)" d="M 130.448844 273.312 
L 132.064423 273.312 
L 132.064423 130.383628 
L 130.448844 130.383628 
z
" style="fill:#1f77b4;"/>
   </g>
   <g id="patch_47">
    <path clip-path="url(#pd964c3e0cc)" d="M 132.064423 273.312 
L 133.680002 273.312 
L 133.680002 107.544558 
L 132.064423 107.544558 
z
" style="fill:#1f77b4;"/>
   </g>
   <g id="patch_48">
    <path clip-path="url(#pd964c3e0cc)" d="M 133.680002 273.312 
L 135.29558 273.312 
L 135.29558 113.438512 
L 133.680002 113.438512 
z
" style="fill:#1f77b4;"/>
   </g>
   <g id="patch_49">
    <path clip-path="url(#pd964c3e0cc)" d="M 135.29558 273.312 
L 136.911159 273.312 
L 136.911159 123.016186 
L 135.29558 123.016186 
z
" style="fill:#1f77b4;"/>
   </g>
   <g id="patch_50">
    <path clip-path="url(#pd964c3e0cc)" d="M 136.911159 273.312 
L 138.526738 273.312 
L 138.526738 126.699907 
L 136.911159 126.699907 
z
" style="fill:#1f77b4;"/>
   </g>
   <g id="patch_51">
    <path clip-path="url(#pd964c3e0cc)" d="M 138.526738 273.312 
L 140.142317 273.312 
L 140.142317 108.281302 
L 138.526738 108.281302 
z
" style="fill:#1f77b4;"/>
   </g>
   <g id="patch_52">
    <path clip-path="url(#pd964c3e0cc)" d="M 140.142317 273.312 
L 141.757895 273.312 
L 141.757895 104.597581 
L 140.142317 104.597581 
z
" style="fill:#1f77b4;"/>
   </g>
   <g id="patch_53">
    <path clip-path="url(#pd964c3e0cc)" d="M 141.757895 273.312 
L 143.373474 273.312 
L 143.373474 93.546419 
L 141.757895 93.546419 
z
" style="fill:#1f77b4;"/>
   </g>
   <g id="patch_54">
    <path clip-path="url(#pd964c3e0cc)" d="M 143.373474 273.312 
L 144.989053 273.312 
L 144.989053 109.018047 
L 143.373474 109.018047 
z
" style="fill:#1f77b4;"/>
   </g>
   <g id="patch_55">
    <path clip-path="url(#pd964c3e0cc)" d="M 144.989053 273.312 
L 146.604632 273.312 
L 146.604632 106.07107 
L 144.989053 106.07107 
z
" style="fill:#1f77b4;"/>
   </g>
   <g id="patch_56">
    <path clip-path="url(#pd964c3e0cc)" d="M 146.604632 273.312 
L 148.22021 273.312 
L 148.22021 87.652465 
L 146.604632 87.652465 
z
" style="fill:#1f77b4;"/>
   </g>
   <g id="patch_57">
    <path clip-path="url(#pd964c3e0cc)" d="M 148.22021 273.312 
L 149.835789 273.312 
L 149.835789 92.809674 
L 148.22021 92.809674 
z
" style="fill:#1f77b4;"/>
   </g>
   <g id="patch_58">
    <path clip-path="url(#pd964c3e0cc)" d="M 149.835789 273.312 
L 151.451368 273.312 
L 151.451368 113.438512 
L 149.835789 113.438512 
z
" style="fill:#1f77b4;"/>
   </g>
   <g id="patch_59">
    <path clip-path="url(#pd964c3e0cc)" d="M 151.451368 273.312 
L 153.066947 273.312 
L 153.066947 97.23014 
L 151.451368 97.23014 
z
" style="fill:#1f77b4;"/>
   </g>
   <g id="patch_60">
    <path clip-path="url(#pd964c3e0cc)" d="M 153.066947 273.312 
L 154.682525 273.312 
L 154.682525 104.597581 
L 153.066947 104.597581 
z
" style="fill:#1f77b4;"/>
   </g>
   <g id="patch_61">
    <path clip-path="url(#pd964c3e0cc)" d="M 154.682525 273.312 
L 156.298104 273.312 
L 156.298104 80.285023 
L 154.682525 80.285023 
z
" style="fill:#1f77b4;"/>
   </g>
   <g id="patch_62">
    <path clip-path="url(#pd964c3e0cc)" d="M 156.298104 273.312 
L 157.913683 273.312 
L 157.913683 74.39107 
L 156.298104 74.39107 
z
" style="fill:#1f77b4;"/>
   </g>
   <g id="patch_63">
    <path clip-path="url(#pd964c3e0cc)" d="M 157.913683 273.312 
L 159.529261 273.312 
L 159.529261 70.707349 
L 157.913683 70.707349 
z
" style="fill:#1f77b4;"/>
   </g>
   <g id="patch_64">
    <path clip-path="url(#pd964c3e0cc)" d="M 159.529261 273.312 
L 161.14484 273.312 
L 161.14484 91.336186 
L 159.529261 91.336186 
z
" style="fill:#1f77b4;"/>
   </g>
   <g id="patch_65">
    <path clip-path="url(#pd964c3e0cc)" d="M 161.14484 273.312 
L 162.760419 273.312 
L 162.760419 53.025488 
L 161.14484 53.025488 
z
" style="fill:#1f77b4;"/>
   </g>
   <g id="patch_66">
    <path clip-path="url(#pd964c3e0cc)" d="M 162.760419 273.312 
L 164.375998 273.312 
L 164.375998 55.235721 
L 162.760419 55.235721 
z
" style="fill:#1f77b4;"/>
   </g>
   <g id="patch_67">
    <path clip-path="url(#pd964c3e0cc)" d="M 164.375998 273.312 
L 165.991576 273.312 
L 165.991576 69.23386 
L 164.375998 69.23386 
z
" style="fill:#1f77b4;"/>
   </g>
   <g id="patch_68">
    <path clip-path="url(#pd964c3e0cc)" d="M 165.991576 273.312 
L 167.607155 273.312 
L 167.607155 77.338047 
L 165.991576 77.338047 
z
" style="fill:#1f77b4;"/>
   </g>
   <g id="patch_69">
    <path clip-path="url(#pd964c3e0cc)" d="M 167.607155 273.312 
L 169.222734 273.312 
L 169.222734 73.654326 
L 167.607155 73.654326 
z
" style="fill:#1f77b4;"/>
   </g>
   <g id="patch_70">
    <path clip-path="url(#pd964c3e0cc)" d="M 169.222734 273.312 
L 170.838313 273.312 
L 170.838313 75.864558 
L 169.222734 75.864558 
z
" style="fill:#1f77b4;"/>
   </g>
   <g id="patch_71">
    <path clip-path="url(#pd964c3e0cc)" d="M 170.838313 273.312 
L 172.453891 273.312 
L 172.453891 93.546419 
L 170.838313 93.546419 
z
" style="fill:#1f77b4;"/>
   </g>
   <g id="patch_72">
    <path clip-path="url(#pd964c3e0cc)" d="M 172.453891 273.312 
L 174.06947 273.312 
L 174.06947 72.917581 
L 172.453891 72.917581 
z
" style="fill:#1f77b4;"/>
   </g>
   <g id="patch_73">
    <path clip-path="url(#pd964c3e0cc)" d="M 174.06947 273.312 
L 175.685049 273.312 
L 175.685049 62.603163 
L 174.06947 62.603163 
z
" style="fill:#1f77b4;"/>
   </g>
   <g id="patch_74">
    <path clip-path="url(#pd964c3e0cc)" d="M 175.685049 273.312 
L 177.300628 273.312 
L 177.300628 60.39293 
L 175.685049 60.39293 
z
" style="fill:#1f77b4;"/>
   </g>
   <g id="patch_75">
    <path clip-path="url(#pd964c3e0cc)" d="M 177.300628 273.312 
L 178.916206 273.312 
L 178.916206 55.972465 
L 177.300628 55.972465 
z
" style="fill:#1f77b4;"/>
   </g>
   <g id="patch_76">
    <path clip-path="url(#pd964c3e0cc)" d="M 178.916206 273.312 
L 180.531785 273.312 
L 180.531785 72.180837 
L 178.916206 72.180837 
z
" style="fill:#1f77b4;"/>
   </g>
   <g id="patch_77">
    <path clip-path="url(#pd964c3e0cc)" d="M 180.531785 273.312 
L 182.147364 273.312 
L 182.147364 67.760372 
L 180.531785 67.760372 
z
" style="fill:#1f77b4;"/>
   </g>
   <g id="patch_78">
    <path clip-path="url(#pd964c3e0cc)" d="M 182.147364 273.312 
L 183.762942 273.312 
L 183.762942 72.180837 
L 182.147364 72.180837 
z
" style="fill:#1f77b4;"/>
   </g>
   <g id="patch_79">
    <path clip-path="url(#pd964c3e0cc)" d="M 183.762942 273.312 
L 185.378521 273.312 
L 185.378521 62.603163 
L 183.762942 62.603163 
z
" style="fill:#1f77b4;"/>
   </g>
   <g id="patch_80">
    <path clip-path="url(#pd964c3e0cc)" d="M 185.378521 273.312 
L 186.9941 273.312 
L 186.9941 46.394791 
L 185.378521 46.394791 
z
" style="fill:#1f77b4;"/>
   </g>
   <g id="patch_81">
    <path clip-path="url(#pd964c3e0cc)" d="M 186.9941 273.312 
L 188.609679 273.312 
L 188.609679 40.500837 
L 186.9941 40.500837 
z
" style="fill:#1f77b4;"/>
   </g>
   <g id="patch_82">
    <path clip-path="url(#pd964c3e0cc)" d="M 188.609679 273.312 
L 190.225257 273.312 
L 190.225257 55.235721 
L 188.609679 55.235721 
z
" style="fill:#1f77b4;"/>
   </g>
   <g id="patch_83">
    <path clip-path="url(#pd964c3e0cc)" d="M 190.225257 273.312 
L 191.840836 273.312 
L 191.840836 40.500837 
L 190.225257 40.500837 
z
" style="fill:#1f77b4;"/>
   </g>
   <g id="patch_84">
    <path clip-path="url(#pd964c3e0cc)" d="M 191.840836 273.312 
L 193.456415 273.312 
L 193.456415 55.235721 
L 191.840836 55.235721 
z
" style="fill:#1f77b4;"/>
   </g>
   <g id="patch_85">
    <path clip-path="url(#pd964c3e0cc)" d="M 193.456415 273.312 
L 195.071994 273.312 
L 195.071994 59.656186 
L 193.456415 59.656186 
z
" style="fill:#1f77b4;"/>
   </g>
   <g id="patch_86">
    <path clip-path="url(#pd964c3e0cc)" d="M 195.071994 273.312 
L 196.687572 273.312 
L 196.687572 53.025488 
L 195.071994 53.025488 
z
" style="fill:#1f77b4;"/>
   </g>
   <g id="patch_87">
    <path clip-path="url(#pd964c3e0cc)" d="M 196.687572 273.312 
L 198.303151 273.312 
L 198.303151 61.129674 
L 196.687572 61.129674 
z
" style="fill:#1f77b4;"/>
   </g>
   <g id="patch_88">
    <path clip-path="url(#pd964c3e0cc)" d="M 198.303151 273.312 
L 199.91873 273.312 
L 199.91873 65.55014 
L 198.303151 65.55014 
z
" style="fill:#1f77b4;"/>
   </g>
   <g id="patch_89">
    <path clip-path="url(#pd964c3e0cc)" d="M 199.91873 273.312 
L 201.534308 273.312 
L 201.534308 34.606884 
L 199.91873 34.606884 
z
" style="fill:#1f77b4;"/>
   </g>
   <g id="patch_90">
    <path clip-path="url(#pd964c3e0cc)" d="M 201.534308 273.312 
L 203.149887 273.312 
L 203.149887 45.658047 
L 201.534308 45.658047 
z
" style="fill:#1f77b4;"/>
   </g>
   <g id="patch_91">
    <path clip-path="url(#pd964c3e0cc)" d="M 203.149887 273.312 
L 204.765466 273.312 
L 204.765466 65.55014 
L 203.149887 65.55014 
z
" style="fill:#1f77b4;"/>
   </g>
   <g id="patch_92">
    <path clip-path="url(#pd964c3e0cc)" d="M 204.765466 273.312 
L 206.381045 273.312 
L 206.381045 55.972465 
L 204.765466 55.972465 
z
" style="fill:#1f77b4;"/>
   </g>
   <g id="patch_93">
    <path clip-path="url(#pd964c3e0cc)" d="M 206.381045 273.312 
L 207.996623 273.312 
L 207.996623 46.394791 
L 206.381045 46.394791 
z
" style="fill:#1f77b4;"/>
   </g>
   <g id="patch_94">
    <path clip-path="url(#pd964c3e0cc)" d="M 207.996623 273.312 
L 209.612202 273.312 
L 209.612202 36.080372 
L 207.996623 36.080372 
z
" style="fill:#1f77b4;"/>
   </g>
   <g id="patch_95">
    <path clip-path="url(#pd964c3e0cc)" d="M 209.612202 273.312 
L 211.227781 273.312 
L 211.227781 58.919442 
L 209.612202 58.919442 
z
" style="fill:#1f77b4;"/>
   </g>
   <g id="patch_96">
    <path clip-path="url(#pd964c3e0cc)" d="M 211.227781 273.312 
L 212.84336 273.312 
L 212.84336 47.868279 
L 211.227781 47.868279 
z
" style="fill:#1f77b4;"/>
   </g>
   <g id="patch_97">
    <path clip-path="url(#pd964c3e0cc)" d="M 212.84336 273.312 
L 214.458938 273.312 
L 214.458938 68.497116 
L 212.84336 68.497116 
z
" style="fill:#1f77b4;"/>
   </g>
   <g id="patch_98">
    <path clip-path="url(#pd964c3e0cc)" d="M 214.458938 273.312 
L 216.074517 273.312 
L 216.074517 41.237581 
L 214.458938 41.237581 
z
" style="fill:#1f77b4;"/>
   </g>
   <g id="patch_99">
    <path clip-path="url(#pd964c3e0cc)" d="M 216.074517 273.312 
L 217.690096 273.312 
L 217.690096 55.972465 
L 216.074517 55.972465 
z
" style="fill:#1f77b4;"/>
   </g>
   <g id="patch_100">
    <path clip-path="url(#pd964c3e0cc)" d="M 217.690096 273.312 
L 219.305675 273.312 
L 219.305675 54.498977 
L 217.690096 54.498977 
z
" style="fill:#1f77b4;"/>
   </g>
   <g id="patch_101">
    <path clip-path="url(#pd964c3e0cc)" d="M 219.305675 273.312 
L 220.921253 273.312 
L 220.921253 47.131535 
L 219.305675 47.131535 
z
" style="fill:#1f77b4;"/>
   </g>
   <g id="patch_102">
    <path clip-path="url(#pd964c3e0cc)" d="M 220.921253 273.312 
L 222.536832 273.312 
L 222.536832 63.339907 
L 220.921253 63.339907 
z
" style="fill:#1f77b4;"/>
   </g>
   <g id="patch_103">
    <path clip-path="url(#pd964c3e0cc)" d="M 222.536832 273.312 
L 224.152411 273.312 
L 224.152411 50.815256 
L 222.536832 50.815256 
z
" style="fill:#1f77b4;"/>
   </g>
   <g id="patch_104">
    <path clip-path="url(#pd964c3e0cc)" d="M 224.152411 273.312 
L 225.767989 273.312 
L 225.767989 45.658047 
L 224.152411 45.658047 
z
" style="fill:#1f77b4;"/>
   </g>
   <g id="patch_105">
    <path clip-path="url(#pd964c3e0cc)" d="M 225.767989 273.312 
L 227.383568 273.312 
L 227.383568 35.343628 
L 225.767989 35.343628 
z
" style="fill:#1f77b4;"/>
   </g>
   <g id="patch_106">
    <path clip-path="url(#pd964c3e0cc)" d="M 227.383568 273.312 
L 228.999147 273.312 
L 228.999147 44.184558 
L 227.383568 44.184558 
z
" style="fill:#1f77b4;"/>
   </g>
   <g id="patch_107">
    <path clip-path="url(#pd964c3e0cc)" d="M 228.999147 273.312 
L 230.614726 273.312 
L 230.614726 47.131535 
L 228.999147 47.131535 
z
" style="fill:#1f77b4;"/>
   </g>
   <g id="patch_108">
    <path clip-path="url(#pd964c3e0cc)" d="M 230.614726 273.312 
L 232.230304 273.312 
L 232.230304 45.658047 
L 230.614726 45.658047 
z
" style="fill:#1f77b4;"/>
   </g>
   <g id="patch_109">
    <path clip-path="url(#pd964c3e0cc)" d="M 232.230304 273.312 
L 233.845883 273.312 
L 233.845883 19.872 
L 232.230304 19.872 
z
" style="fill:#1f77b4;"/>
   </g>
   <g id="patch_110">
    <path clip-path="url(#pd964c3e0cc)" d="M 233.845883 273.312 
L 235.461462 273.312 
L 235.461462 62.603163 
L 233.845883 62.603163 
z
" style="fill:#1f77b4;"/>
   </g>
   <g id="patch_111">
    <path clip-path="url(#pd964c3e0cc)" d="M 235.461462 273.312 
L 237.077041 273.312 
L 237.077041 38.290605 
L 235.461462 38.290605 
z
" style="fill:#1f77b4;"/>
   </g>
   <g id="patch_112">
    <path clip-path="url(#pd964c3e0cc)" d="M 237.077041 273.312 
L 238.692619 273.312 
L 238.692619 51.552 
L 237.077041 51.552 
z
" style="fill:#1f77b4;"/>
   </g>
   <g id="patch_113">
    <path clip-path="url(#pd964c3e0cc)" d="M 238.692619 273.312 
L 240.308198 273.312 
L 240.308198 47.868279 
L 238.692619 47.868279 
z
" style="fill:#1f77b4;"/>
   </g>
   <g id="patch_114">
    <path clip-path="url(#pd964c3e0cc)" d="M 240.308198 273.312 
L 241.923777 273.312 
L 241.923777 64.076651 
L 240.308198 64.076651 
z
" style="fill:#1f77b4;"/>
   </g>
   <g id="patch_115">
    <path clip-path="url(#pd964c3e0cc)" d="M 241.923777 273.312 
L 243.539356 273.312 
L 243.539356 38.290605 
L 241.923777 38.290605 
z
" style="fill:#1f77b4;"/>
   </g>
   <g id="patch_116">
    <path clip-path="url(#pd964c3e0cc)" d="M 243.539356 273.312 
L 245.154934 273.312 
L 245.154934 67.023628 
L 243.539356 67.023628 
z
" style="fill:#1f77b4;"/>
   </g>
   <g id="patch_117">
    <path clip-path="url(#pd964c3e0cc)" d="M 245.154934 273.312 
L 246.770513 273.312 
L 246.770513 61.866419 
L 245.154934 61.866419 
z
" style="fill:#1f77b4;"/>
   </g>
   <g id="patch_118">
    <path clip-path="url(#pd964c3e0cc)" d="M 246.770513 273.312 
L 248.386092 273.312 
L 248.386092 49.341767 
L 246.770513 49.341767 
z
" style="fill:#1f77b4;"/>
   </g>
   <g id="patch_119">
    <path clip-path="url(#pd964c3e0cc)" d="M 248.386092 273.312 
L 250.00167 273.312 
L 250.00167 34.606884 
L 248.386092 34.606884 
z
" style="fill:#1f77b4;"/>
   </g>
   <g id="patch_120">
    <path clip-path="url(#pd964c3e0cc)" d="M 250.00167 273.312 
L 251.617249 273.312 
L 251.617249 33.87014 
L 250.00167 33.87014 
z
" style="fill:#1f77b4;"/>
   </g>
   <g id="patch_121">
    <path clip-path="url(#pd964c3e0cc)" d="M 251.617249 273.312 
L 253.232828 273.312 
L 253.232828 68.497116 
L 251.617249 68.497116 
z
" style="fill:#1f77b4;"/>
   </g>
   <g id="patch_122">
    <path clip-path="url(#pd964c3e0cc)" d="M 253.232828 273.312 
L 254.848407 273.312 
L 254.848407 47.868279 
L 253.232828 47.868279 
z
" style="fill:#1f77b4;"/>
   </g>
   <g id="patch_123">
    <path clip-path="url(#pd964c3e0cc)" d="M 254.848407 273.312 
L 256.463985 273.312 
L 256.463985 52.288744 
L 254.848407 52.288744 
z
" style="fill:#1f77b4;"/>
   </g>
   <g id="patch_124">
    <path clip-path="url(#pd964c3e0cc)" d="M 256.463985 273.312 
L 258.079564 273.312 
L 258.079564 93.546419 
L 256.463985 93.546419 
z
" style="fill:#1f77b4;"/>
   </g>
   <g id="patch_125">
    <path clip-path="url(#pd964c3e0cc)" d="M 258.079564 273.312 
L 259.695143 273.312 
L 259.695143 75.864558 
L 258.079564 75.864558 
z
" style="fill:#1f77b4;"/>
   </g>
   <g id="patch_126">
    <path clip-path="url(#pd964c3e0cc)" d="M 259.695143 273.312 
L 261.310722 273.312 
L 261.310722 62.603163 
L 259.695143 62.603163 
z
" style="fill:#1f77b4;"/>
   </g>
   <g id="patch_127">
    <path clip-path="url(#pd964c3e0cc)" d="M 261.310722 273.312 
L 262.9263 273.312 
L 262.9263 72.917581 
L 261.310722 72.917581 
z
" style="fill:#1f77b4;"/>
   </g>
   <g id="patch_128">
    <path clip-path="url(#pd964c3e0cc)" d="M 262.9263 273.312 
L 264.541879 273.312 
L 264.541879 68.497116 
L 262.9263 68.497116 
z
" style="fill:#1f77b4;"/>
   </g>
   <g id="patch_129">
    <path clip-path="url(#pd964c3e0cc)" d="M 264.541879 273.312 
L 266.157458 273.312 
L 266.157458 78.074791 
L 264.541879 78.074791 
z
" style="fill:#1f77b4;"/>
   </g>
   <g id="patch_130">
    <path clip-path="url(#pd964c3e0cc)" d="M 266.157458 273.312 
L 267.773037 273.312 
L 267.773037 53.025488 
L 266.157458 53.025488 
z
" style="fill:#1f77b4;"/>
   </g>
   <g id="patch_131">
    <path clip-path="url(#pd964c3e0cc)" d="M 267.773037 273.312 
L 269.388615 273.312 
L 269.388615 64.813395 
L 267.773037 64.813395 
z
" style="fill:#1f77b4;"/>
   </g>
   <g id="patch_132">
    <path clip-path="url(#pd964c3e0cc)" d="M 269.388615 273.312 
L 271.004194 273.312 
L 271.004194 60.39293 
L 269.388615 60.39293 
z
" style="fill:#1f77b4;"/>
   </g>
   <g id="patch_133">
    <path clip-path="url(#pd964c3e0cc)" d="M 271.004194 273.312 
L 272.619773 273.312 
L 272.619773 71.444093 
L 271.004194 71.444093 
z
" style="fill:#1f77b4;"/>
   </g>
   <g id="patch_134">
    <path clip-path="url(#pd964c3e0cc)" d="M 272.619773 273.312 
L 274.235351 273.312 
L 274.235351 55.235721 
L 272.619773 55.235721 
z
" style="fill:#1f77b4;"/>
   </g>
   <g id="patch_135">
    <path clip-path="url(#pd964c3e0cc)" d="M 274.235351 273.312 
L 275.85093 273.312 
L 275.85093 67.760372 
L 274.235351 67.760372 
z
" style="fill:#1f77b4;"/>
   </g>
   <g id="patch_136">
    <path clip-path="url(#pd964c3e0cc)" d="M 275.85093 273.312 
L 277.466509 273.312 
L 277.466509 58.919442 
L 275.85093 58.919442 
z
" style="fill:#1f77b4;"/>
   </g>
   <g id="patch_137">
    <path clip-path="url(#pd964c3e0cc)" d="M 277.466509 273.312 
L 279.082088 273.312 
L 279.082088 89.862698 
L 277.466509 89.862698 
z
" style="fill:#1f77b4;"/>
   </g>
   <g id="patch_138">
    <path clip-path="url(#pd964c3e0cc)" d="M 279.082088 273.312 
L 280.697666 273.312 
L 280.697666 77.338047 
L 279.082088 77.338047 
z
" style="fill:#1f77b4;"/>
   </g>
   <g id="patch_139">
    <path clip-path="url(#pd964c3e0cc)" d="M 280.697666 273.312 
L 282.313245 273.312 
L 282.313245 83.232 
L 280.697666 83.232 
z
" style="fill:#1f77b4;"/>
   </g>
   <g id="patch_140">
    <path clip-path="url(#pd964c3e0cc)" d="M 282.313245 273.312 
L 283.928824 273.312 
L 283.928824 70.707349 
L 282.313245 70.707349 
z
" style="fill:#1f77b4;"/>
   </g>
   <g id="patch_141">
    <path clip-path="url(#pd964c3e0cc)" d="M 283.928824 273.312 
L 285.544403 273.312 
L 285.544403 78.074791 
L 283.928824 78.074791 
z
" style="fill:#1f77b4;"/>
   </g>
   <g id="patch_142">
    <path clip-path="url(#pd964c3e0cc)" d="M 285.544403 273.312 
L 287.159981 273.312 
L 287.159981 72.180837 
L 285.544403 72.180837 
z
" style="fill:#1f77b4;"/>
   </g>
   <g id="patch_143">
    <path clip-path="url(#pd964c3e0cc)" d="M 287.159981 273.312 
L 288.77556 273.312 
L 288.77556 89.862698 
L 287.159981 89.862698 
z
" style="fill:#1f77b4;"/>
   </g>
   <g id="patch_144">
    <path clip-path="url(#pd964c3e0cc)" d="M 288.77556 273.312 
L 290.391139 273.312 
L 290.391139 89.862698 
L 288.77556 89.862698 
z
" style="fill:#1f77b4;"/>
   </g>
   <g id="patch_145">
    <path clip-path="url(#pd964c3e0cc)" d="M 290.391139 273.312 
L 292.006717 273.312 
L 292.006717 69.23386 
L 290.391139 69.23386 
z
" style="fill:#1f77b4;"/>
   </g>
   <g id="patch_146">
    <path clip-path="url(#pd964c3e0cc)" d="M 292.006717 273.312 
L 293.622296 273.312 
L 293.622296 81.021767 
L 292.006717 81.021767 
z
" style="fill:#1f77b4;"/>
   </g>
   <g id="patch_147">
    <path clip-path="url(#pd964c3e0cc)" d="M 293.622296 273.312 
L 295.237875 273.312 
L 295.237875 115.648744 
L 293.622296 115.648744 
z
" style="fill:#1f77b4;"/>
   </g>
   <g id="patch_148">
    <path clip-path="url(#pd964c3e0cc)" d="M 295.237875 273.312 
L 296.853454 273.312 
L 296.853454 94.283163 
L 295.237875 94.283163 
z
" style="fill:#1f77b4;"/>
   </g>
   <g id="patch_149">
    <path clip-path="url(#pd964c3e0cc)" d="M 296.853454 273.312 
L 298.469032 273.312 
L 298.469032 98.703628 
L 296.853454 98.703628 
z
" style="fill:#1f77b4;"/>
   </g>
   <g id="patch_150">
    <path clip-path="url(#pd964c3e0cc)" d="M 298.469032 273.312 
L 300.084611 273.312 
L 300.084611 77.338047 
L 298.469032 77.338047 
z
" style="fill:#1f77b4;"/>
   </g>
   <g id="patch_151">
    <path clip-path="url(#pd964c3e0cc)" d="M 300.084611 273.312 
L 301.70019 273.312 
L 301.70019 100.91386 
L 300.084611 100.91386 
z
" style="fill:#1f77b4;"/>
   </g>
   <g id="patch_152">
    <path clip-path="url(#pd964c3e0cc)" d="M 301.70019 273.312 
L 303.315769 273.312 
L 303.315769 97.966884 
L 301.70019 97.966884 
z
" style="fill:#1f77b4;"/>
   </g>
   <g id="patch_153">
    <path clip-path="url(#pd964c3e0cc)" d="M 303.315769 273.312 
L 304.931347 273.312 
L 304.931347 107.544558 
L 303.315769 107.544558 
z
" style="fill:#1f77b4;"/>
   </g>
   <g id="patch_154">
    <path clip-path="url(#pd964c3e0cc)" d="M 304.931347 273.312 
L 306.546926 273.312 
L 306.546926 128.91014 
L 304.931347 128.91014 
z
" style="fill:#1f77b4;"/>
   </g>
   <g id="patch_155">
    <path clip-path="url(#pd964c3e0cc)" d="M 306.546926 273.312 
L 308.162505 273.312 
L 308.162505 129.646884 
L 306.546926 129.646884 
z
" style="fill:#1f77b4;"/>
   </g>
   <g id="patch_156">
    <path clip-path="url(#pd964c3e0cc)" d="M 308.162505 273.312 
L 309.778084 273.312 
L 309.778084 125.226419 
L 308.162505 125.226419 
z
" style="fill:#1f77b4;"/>
   </g>
   <g id="patch_157">
    <path clip-path="url(#pd964c3e0cc)" d="M 309.778084 273.312 
L 311.393662 273.312 
L 311.393662 111.228279 
L 309.778084 111.228279 
z
" style="fill:#1f77b4;"/>
   </g>
   <g id="patch_158">
    <path clip-path="url(#pd964c3e0cc)" d="M 311.393662 273.312 
L 313.009241 273.312 
L 313.009241 109.018047 
L 311.393662 109.018047 
z
" style="fill:#1f77b4;"/>
   </g>
   <g id="patch_159">
    <path clip-path="url(#pd964c3e0cc)" d="M 313.009241 273.312 
L 314.62482 273.312 
L 314.62482 140.698047 
L 313.009241 140.698047 
z
" style="fill:#1f77b4;"/>
   </g>
   <g id="patch_160">
    <path clip-path="url(#pd964c3e0cc)" d="M 314.62482 273.312 
L 316.240398 273.312 
L 316.240398 129.646884 
L 314.62482 129.646884 
z
" style="fill:#1f77b4;"/>
   </g>
   <g id="patch_161">
    <path clip-path="url(#pd964c3e0cc)" d="M 316.240398 273.312 
L 317.855977 273.312 
L 317.855977 143.645023 
L 316.240398 143.645023 
z
" style="fill:#1f77b4;"/>
   </g>
   <g id="patch_162">
    <path clip-path="url(#pd964c3e0cc)" d="M 317.855977 273.312 
L 319.471556 273.312 
L 319.471556 140.698047 
L 317.855977 140.698047 
z
" style="fill:#1f77b4;"/>
   </g>
   <g id="patch_163">
    <path clip-path="url(#pd964c3e0cc)" d="M 319.471556 273.312 
L 321.087135 273.312 
L 321.087135 137.75107 
L 319.471556 137.75107 
z
" style="fill:#1f77b4;"/>
   </g>
   <g id="patch_164">
    <path clip-path="url(#pd964c3e0cc)" d="M 321.087135 273.312 
L 322.702713 273.312 
L 322.702713 141.434791 
L 321.087135 141.434791 
z
" style="fill:#1f77b4;"/>
   </g>
   <g id="patch_165">
    <path clip-path="url(#pd964c3e0cc)" d="M 322.702713 273.312 
L 324.318292 273.312 
L 324.318292 147.328744 
L 322.702713 147.328744 
z
" style="fill:#1f77b4;"/>
   </g>
   <g id="patch_166">
    <path clip-path="url(#pd964c3e0cc)" d="M 324.318292 273.312 
L 325.933871 273.312 
L 325.933871 156.906419 
L 324.318292 156.906419 
z
" style="fill:#1f77b4;"/>
   </g>
   <g id="patch_167">
    <path clip-path="url(#pd964c3e0cc)" d="M 325.933871 273.312 
L 327.54945 273.312 
L 327.54945 151.012465 
L 325.933871 151.012465 
z
" style="fill:#1f77b4;"/>
   </g>
   <g id="patch_168">
    <path clip-path="url(#pd964c3e0cc)" d="M 327.54945 273.312 
L 329.165028 273.312 
L 329.165028 152.485953 
L 327.54945 152.485953 
z
" style="fill:#1f77b4;"/>
   </g>
   <g id="patch_169">
    <path clip-path="url(#pd964c3e0cc)" d="M 329.165028 273.312 
L 330.780607 273.312 
L 330.780607 173.851535 
L 329.165028 173.851535 
z
" style="fill:#1f77b4;"/>
   </g>
   <g id="patch_170">
    <path clip-path="url(#pd964c3e0cc)" d="M 330.780607 273.312 
L 332.396186 273.312 
L 332.396186 159.853395 
L 330.780607 159.853395 
z
" style="fill:#1f77b4;"/>
   </g>
   <g id="patch_171">
    <path clip-path="url(#pd964c3e0cc)" d="M 332.396186 273.312 
L 334.011765 273.312 
L 334.011765 162.800372 
L 332.396186 162.800372 
z
" style="fill:#1f77b4;"/>
   </g>
   <g id="patch_172">
    <path clip-path="url(#pd964c3e0cc)" d="M 334.011765 273.312 
L 335.627343 273.312 
L 335.627343 162.800372 
L 334.011765 162.800372 
z
" style="fill:#1f77b4;"/>
   </g>
   <g id="patch_173">
    <path clip-path="url(#pd964c3e0cc)" d="M 335.627343 273.312 
L 337.242922 273.312 
L 337.242922 167.220837 
L 335.627343 167.220837 
z
" style="fill:#1f77b4;"/>
   </g>
   <g id="patch_174">
    <path clip-path="url(#pd964c3e0cc)" d="M 337.242922 273.312 
L 338.858501 273.312 
L 338.858501 168.694326 
L 337.242922 168.694326 
z
" style="fill:#1f77b4;"/>
   </g>
   <g id="patch_175">
    <path clip-path="url(#pd964c3e0cc)" d="M 338.858501 273.312 
L 340.474079 273.312 
L 340.474079 186.376186 
L 338.858501 186.376186 
z
" style="fill:#1f77b4;"/>
   </g>
   <g id="patch_176">
    <path clip-path="url(#pd964c3e0cc)" d="M 340.474079 273.312 
L 342.089658 273.312 
L 342.089658 173.851535 
L 340.474079 173.851535 
z
" style="fill:#1f77b4;"/>
   </g>
   <g id="patch_177">
    <path clip-path="url(#pd964c3e0cc)" d="M 342.089658 273.312 
L 343.705237 273.312 
L 343.705237 177.535256 
L 342.089658 177.535256 
z
" style="fill:#1f77b4;"/>
   </g>
   <g id="patch_178">
    <path clip-path="url(#pd964c3e0cc)" d="M 343.705237 273.312 
L 345.320816 273.312 
L 345.320816 184.165953 
L 343.705237 184.165953 
z
" style="fill:#1f77b4;"/>
   </g>
   <g id="patch_179">
    <path clip-path="url(#pd964c3e0cc)" d="M 345.320816 273.312 
L 346.936394 273.312 
L 346.936394 185.639442 
L 345.320816 185.639442 
z
" style="fill:#1f77b4;"/>
   </g>
   <g id="patch_180">
    <path clip-path="url(#pd964c3e0cc)" d="M 346.936394 273.312 
L 348.551973 273.312 
L 348.551973 195.217116 
L 346.936394 195.217116 
z
" style="fill:#1f77b4;"/>
   </g>
   <g id="patch_181">
    <path clip-path="url(#pd964c3e0cc)" d="M 348.551973 273.312 
L 350.167552 273.312 
L 350.167552 194.480372 
L 348.551973 194.480372 
z
" style="fill:#1f77b4;"/>
   </g>
   <g id="patch_182">
    <path clip-path="url(#pd964c3e0cc)" d="M 350.167552 273.312 
L 351.783131 273.312 
L 351.783131 199.637581 
L 350.167552 199.637581 
z
" style="fill:#1f77b4;"/>
   </g>
   <g id="patch_183">
    <path clip-path="url(#pd964c3e0cc)" d="M 351.783131 273.312 
L 353.398709 273.312 
L 353.398709 195.217116 
L 351.783131 195.217116 
z
" style="fill:#1f77b4;"/>
   </g>
   <g id="patch_184">
    <path clip-path="url(#pd964c3e0cc)" d="M 353.398709 273.312 
L 355.014288 273.312 
L 355.014288 210.688744 
L 353.398709 210.688744 
z
" style="fill:#1f77b4;"/>
   </g>
   <g id="patch_185">
    <path clip-path="url(#pd964c3e0cc)" d="M 355.014288 273.312 
L 356.629867 273.312 
L 356.629867 212.898977 
L 355.014288 212.898977 
z
" style="fill:#1f77b4;"/>
   </g>
   <g id="patch_186">
    <path clip-path="url(#pd964c3e0cc)" d="M 356.629867 273.312 
L 358.245446 273.312 
L 358.245446 202.584558 
L 356.629867 202.584558 
z
" style="fill:#1f77b4;"/>
   </g>
   <g id="patch_187">
    <path clip-path="url(#pd964c3e0cc)" d="M 358.245446 273.312 
L 359.861024 273.312 
L 359.861024 220.266419 
L 358.245446 220.266419 
z
" style="fill:#1f77b4;"/>
   </g>
   <g id="patch_188">
    <path clip-path="url(#pd964c3e0cc)" d="M 359.861024 273.312 
L 361.476603 273.312 
L 361.476603 222.476651 
L 359.861024 222.476651 
z
" style="fill:#1f77b4;"/>
   </g>
   <g id="patch_189">
    <path clip-path="url(#pd964c3e0cc)" d="M 361.476603 273.312 
L 363.092182 273.312 
L 363.092182 229.107349 
L 361.476603 229.107349 
z
" style="fill:#1f77b4;"/>
   </g>
   <g id="patch_190">
    <path clip-path="url(#pd964c3e0cc)" d="M 363.092182 273.312 
L 364.70776 273.312 
L 364.70776 229.107349 
L 363.092182 229.107349 
z
" style="fill:#1f77b4;"/>
   </g>
   <g id="patch_191">
    <path clip-path="url(#pd964c3e0cc)" d="M 364.70776 273.312 
L 366.323339 273.312 
L 366.323339 243.842233 
L 364.70776 243.842233 
z
" style="fill:#1f77b4;"/>
   </g>
   <g id="patch_192">
    <path clip-path="url(#pd964c3e0cc)" d="M 366.323339 273.312 
L 367.938918 273.312 
L 367.938918 236.474791 
L 366.323339 236.474791 
z
" style="fill:#1f77b4;"/>
   </g>
   <g id="patch_193">
    <path clip-path="url(#pd964c3e0cc)" d="M 367.938918 273.312 
L 369.554497 273.312 
L 369.554497 242.368744 
L 367.938918 242.368744 
z
" style="fill:#1f77b4;"/>
   </g>
   <g id="patch_194">
    <path clip-path="url(#pd964c3e0cc)" d="M 369.554497 273.312 
L 371.170075 273.312 
L 371.170075 238.685023 
L 369.554497 238.685023 
z
" style="fill:#1f77b4;"/>
   </g>
   <g id="patch_195">
    <path clip-path="url(#pd964c3e0cc)" d="M 371.170075 273.312 
L 372.785654 273.312 
L 372.785654 243.105488 
L 371.170075 243.105488 
z
" style="fill:#1f77b4;"/>
   </g>
   <g id="patch_196">
    <path clip-path="url(#pd964c3e0cc)" d="M 372.785654 273.312 
L 374.401233 273.312 
L 374.401233 249.736186 
L 372.785654 249.736186 
z
" style="fill:#1f77b4;"/>
   </g>
   <g id="patch_197">
    <path clip-path="url(#pd964c3e0cc)" d="M 374.401233 273.312 
L 376.016812 273.312 
L 376.016812 255.63014 
L 374.401233 255.63014 
z
" style="fill:#1f77b4;"/>
   </g>
   <g id="patch_198">
    <path clip-path="url(#pd964c3e0cc)" d="M 376.016812 273.312 
L 377.63239 273.312 
L 377.63239 256.366884 
L 376.016812 256.366884 
z
" style="fill:#1f77b4;"/>
   </g>
   <g id="patch_199">
    <path clip-path="url(#pd964c3e0cc)" d="M 377.63239 273.312 
L 379.247969 273.312 
L 379.247969 259.31386 
L 377.63239 259.31386 
z
" style="fill:#1f77b4;"/>
   </g>
   <g id="patch_200">
    <path clip-path="url(#pd964c3e0cc)" d="M 379.247969 273.312 
L 380.863548 273.312 
L 380.863548 267.418047 
L 379.247969 267.418047 
z
" style="fill:#1f77b4;"/>
   </g>
   <g id="patch_201">
    <path clip-path="url(#pd964c3e0cc)" d="M 380.863548 273.312 
L 382.479126 273.312 
L 382.479126 268.891535 
L 380.863548 268.891535 
z
" style="fill:#1f77b4;"/>
   </g>
   <g id="patch_202">
    <path clip-path="url(#pd964c3e0cc)" d="M 382.479126 273.312 
L 384.094705 273.312 
L 384.094705 271.101767 
L 382.479126 271.101767 
z
" style="fill:#1f77b4;"/>
   </g>
   <g id="matplotlib.axis_1">
    <g id="xtick_1">
     <g id="line2d_1">
      <defs>
       <path d="M 0 0 
L 0 3.5 
" id="m2f54d52b69" style="stroke:#000000;stroke-width:0.8;"/>
      </defs>
      <g>
       <use style="stroke:#000000;stroke-width:0.8;" x="60.013977" xlink:href="#m2f54d52b69" y="273.312"/>
      </g>
     </g>
     <g id="text_1">
      <!-- 0.0 -->
      <g transform="translate(52.062415 287.910437)scale(0.1 -0.1)">
       <defs>
        <path d="M 2034 4250 
Q 1547 4250 1301 3770 
Q 1056 3291 1056 2328 
Q 1056 1369 1301 889 
Q 1547 409 2034 409 
Q 2525 409 2770 889 
Q 3016 1369 3016 2328 
Q 3016 3291 2770 3770 
Q 2525 4250 2034 4250 
z
M 2034 4750 
Q 2819 4750 3233 4129 
Q 3647 3509 3647 2328 
Q 3647 1150 3233 529 
Q 2819 -91 2034 -91 
Q 1250 -91 836 529 
Q 422 1150 422 2328 
Q 422 3509 836 4129 
Q 1250 4750 2034 4750 
z
" id="DejaVuSans-30" transform="scale(0.015625)"/>
        <path d="M 684 794 
L 1344 794 
L 1344 0 
L 684 0 
L 684 794 
z
" id="DejaVuSans-2e" transform="scale(0.015625)"/>
       </defs>
       <use xlink:href="#DejaVuSans-30"/>
       <use x="63.623047" xlink:href="#DejaVuSans-2e"/>
       <use x="95.410156" xlink:href="#DejaVuSans-30"/>
      </g>
     </g>
    </g>
    <g id="xtick_2">
     <g id="line2d_2">
      <g>
       <use style="stroke:#000000;stroke-width:0.8;" x="101.350278" xlink:href="#m2f54d52b69" y="273.312"/>
      </g>
     </g>
     <g id="text_2">
      <!-- 0.2 -->
      <g transform="translate(93.398715 287.910437)scale(0.1 -0.1)">
       <defs>
        <path d="M 1228 531 
L 3431 531 
L 3431 0 
L 469 0 
L 469 531 
Q 828 903 1448 1529 
Q 2069 2156 2228 2338 
Q 2531 2678 2651 2914 
Q 2772 3150 2772 3378 
Q 2772 3750 2511 3984 
Q 2250 4219 1831 4219 
Q 1534 4219 1204 4116 
Q 875 4013 500 3803 
L 500 4441 
Q 881 4594 1212 4672 
Q 1544 4750 1819 4750 
Q 2544 4750 2975 4387 
Q 3406 4025 3406 3419 
Q 3406 3131 3298 2873 
Q 3191 2616 2906 2266 
Q 2828 2175 2409 1742 
Q 1991 1309 1228 531 
z
" id="DejaVuSans-32" transform="scale(0.015625)"/>
       </defs>
       <use xlink:href="#DejaVuSans-30"/>
       <use x="63.623047" xlink:href="#DejaVuSans-2e"/>
       <use x="95.410156" xlink:href="#DejaVuSans-32"/>
      </g>
     </g>
    </g>
    <g id="xtick_3">
     <g id="line2d_3">
      <g>
       <use style="stroke:#000000;stroke-width:0.8;" x="142.686578" xlink:href="#m2f54d52b69" y="273.312"/>
      </g>
     </g>
     <g id="text_3">
      <!-- 0.4 -->
      <g transform="translate(134.735016 287.910437)scale(0.1 -0.1)">
       <defs>
        <path d="M 2419 4116 
L 825 1625 
L 2419 1625 
L 2419 4116 
z
M 2253 4666 
L 3047 4666 
L 3047 1625 
L 3713 1625 
L 3713 1100 
L 3047 1100 
L 3047 0 
L 2419 0 
L 2419 1100 
L 313 1100 
L 313 1709 
L 2253 4666 
z
" id="DejaVuSans-34" transform="scale(0.015625)"/>
       </defs>
       <use xlink:href="#DejaVuSans-30"/>
       <use x="63.623047" xlink:href="#DejaVuSans-2e"/>
       <use x="95.410156" xlink:href="#DejaVuSans-34"/>
      </g>
     </g>
    </g>
    <g id="xtick_4">
     <g id="line2d_4">
      <g>
       <use style="stroke:#000000;stroke-width:0.8;" x="184.022879" xlink:href="#m2f54d52b69" y="273.312"/>
      </g>
     </g>
     <g id="text_4">
      <!-- 0.6 -->
      <g transform="translate(176.071316 287.910437)scale(0.1 -0.1)">
       <defs>
        <path d="M 2113 2584 
Q 1688 2584 1439 2293 
Q 1191 2003 1191 1497 
Q 1191 994 1439 701 
Q 1688 409 2113 409 
Q 2538 409 2786 701 
Q 3034 994 3034 1497 
Q 3034 2003 2786 2293 
Q 2538 2584 2113 2584 
z
M 3366 4563 
L 3366 3988 
Q 3128 4100 2886 4159 
Q 2644 4219 2406 4219 
Q 1781 4219 1451 3797 
Q 1122 3375 1075 2522 
Q 1259 2794 1537 2939 
Q 1816 3084 2150 3084 
Q 2853 3084 3261 2657 
Q 3669 2231 3669 1497 
Q 3669 778 3244 343 
Q 2819 -91 2113 -91 
Q 1303 -91 875 529 
Q 447 1150 447 2328 
Q 447 3434 972 4092 
Q 1497 4750 2381 4750 
Q 2619 4750 2861 4703 
Q 3103 4656 3366 4563 
z
" id="DejaVuSans-36" transform="scale(0.015625)"/>
       </defs>
       <use xlink:href="#DejaVuSans-30"/>
       <use x="63.623047" xlink:href="#DejaVuSans-2e"/>
       <use x="95.410156" xlink:href="#DejaVuSans-36"/>
      </g>
     </g>
    </g>
    <g id="xtick_5">
     <g id="line2d_5">
      <g>
       <use style="stroke:#000000;stroke-width:0.8;" x="225.35918" xlink:href="#m2f54d52b69" y="273.312"/>
      </g>
     </g>
     <g id="text_5">
      <!-- 0.8 -->
      <g transform="translate(217.407617 287.910437)scale(0.1 -0.1)">
       <defs>
        <path d="M 2034 2216 
Q 1584 2216 1326 1975 
Q 1069 1734 1069 1313 
Q 1069 891 1326 650 
Q 1584 409 2034 409 
Q 2484 409 2743 651 
Q 3003 894 3003 1313 
Q 3003 1734 2745 1975 
Q 2488 2216 2034 2216 
z
M 1403 2484 
Q 997 2584 770 2862 
Q 544 3141 544 3541 
Q 544 4100 942 4425 
Q 1341 4750 2034 4750 
Q 2731 4750 3128 4425 
Q 3525 4100 3525 3541 
Q 3525 3141 3298 2862 
Q 3072 2584 2669 2484 
Q 3125 2378 3379 2068 
Q 3634 1759 3634 1313 
Q 3634 634 3220 271 
Q 2806 -91 2034 -91 
Q 1263 -91 848 271 
Q 434 634 434 1313 
Q 434 1759 690 2068 
Q 947 2378 1403 2484 
z
M 1172 3481 
Q 1172 3119 1398 2916 
Q 1625 2713 2034 2713 
Q 2441 2713 2670 2916 
Q 2900 3119 2900 3481 
Q 2900 3844 2670 4047 
Q 2441 4250 2034 4250 
Q 1625 4250 1398 4047 
Q 1172 3844 1172 3481 
z
" id="DejaVuSans-38" transform="scale(0.015625)"/>
       </defs>
       <use xlink:href="#DejaVuSans-30"/>
       <use x="63.623047" xlink:href="#DejaVuSans-2e"/>
       <use x="95.410156" xlink:href="#DejaVuSans-38"/>
      </g>
     </g>
    </g>
    <g id="xtick_6">
     <g id="line2d_6">
      <g>
       <use style="stroke:#000000;stroke-width:0.8;" x="266.69548" xlink:href="#m2f54d52b69" y="273.312"/>
      </g>
     </g>
     <g id="text_6">
      <!-- 1.0 -->
      <g transform="translate(258.743918 287.910437)scale(0.1 -0.1)">
       <defs>
        <path d="M 794 531 
L 1825 531 
L 1825 4091 
L 703 3866 
L 703 4441 
L 1819 4666 
L 2450 4666 
L 2450 531 
L 3481 531 
L 3481 0 
L 794 0 
L 794 531 
z
" id="DejaVuSans-31" transform="scale(0.015625)"/>
       </defs>
       <use xlink:href="#DejaVuSans-31"/>
       <use x="63.623047" xlink:href="#DejaVuSans-2e"/>
       <use x="95.410156" xlink:href="#DejaVuSans-30"/>
      </g>
     </g>
    </g>
    <g id="xtick_7">
     <g id="line2d_7">
      <g>
       <use style="stroke:#000000;stroke-width:0.8;" x="308.031781" xlink:href="#m2f54d52b69" y="273.312"/>
      </g>
     </g>
     <g id="text_7">
      <!-- 1.2 -->
      <g transform="translate(300.080218 287.910437)scale(0.1 -0.1)">
       <use xlink:href="#DejaVuSans-31"/>
       <use x="63.623047" xlink:href="#DejaVuSans-2e"/>
       <use x="95.410156" xlink:href="#DejaVuSans-32"/>
      </g>
     </g>
    </g>
    <g id="xtick_8">
     <g id="line2d_8">
      <g>
       <use style="stroke:#000000;stroke-width:0.8;" x="349.368081" xlink:href="#m2f54d52b69" y="273.312"/>
      </g>
     </g>
     <g id="text_8">
      <!-- 1.4 -->
      <g transform="translate(341.416519 287.910437)scale(0.1 -0.1)">
       <use xlink:href="#DejaVuSans-31"/>
       <use x="63.623047" xlink:href="#DejaVuSans-2e"/>
       <use x="95.410156" xlink:href="#DejaVuSans-34"/>
      </g>
     </g>
    </g>
    <g id="xtick_9">
     <g id="line2d_9">
      <g>
       <use style="stroke:#000000;stroke-width:0.8;" x="390.704382" xlink:href="#m2f54d52b69" y="273.312"/>
      </g>
     </g>
     <g id="text_9">
      <!-- 1.6 -->
      <g transform="translate(382.752819 287.910437)scale(0.1 -0.1)">
       <use xlink:href="#DejaVuSans-31"/>
       <use x="63.623047" xlink:href="#DejaVuSans-2e"/>
       <use x="95.410156" xlink:href="#DejaVuSans-36"/>
      </g>
     </g>
    </g>
    <g id="text_10">
     <!-- Angle with normal (rad) -->
     <g transform="translate(163.023281 301.588562)scale(0.1 -0.1)">
      <defs>
       <path d="M 2188 4044 
L 1331 1722 
L 3047 1722 
L 2188 4044 
z
M 1831 4666 
L 2547 4666 
L 4325 0 
L 3669 0 
L 3244 1197 
L 1141 1197 
L 716 0 
L 50 0 
L 1831 4666 
z
" id="DejaVuSans-41" transform="scale(0.015625)"/>
       <path d="M 3513 2113 
L 3513 0 
L 2938 0 
L 2938 2094 
Q 2938 2591 2744 2837 
Q 2550 3084 2163 3084 
Q 1697 3084 1428 2787 
Q 1159 2491 1159 1978 
L 1159 0 
L 581 0 
L 581 3500 
L 1159 3500 
L 1159 2956 
Q 1366 3272 1645 3428 
Q 1925 3584 2291 3584 
Q 2894 3584 3203 3211 
Q 3513 2838 3513 2113 
z
" id="DejaVuSans-6e" transform="scale(0.015625)"/>
       <path d="M 2906 1791 
Q 2906 2416 2648 2759 
Q 2391 3103 1925 3103 
Q 1463 3103 1205 2759 
Q 947 2416 947 1791 
Q 947 1169 1205 825 
Q 1463 481 1925 481 
Q 2391 481 2648 825 
Q 2906 1169 2906 1791 
z
M 3481 434 
Q 3481 -459 3084 -895 
Q 2688 -1331 1869 -1331 
Q 1566 -1331 1297 -1286 
Q 1028 -1241 775 -1147 
L 775 -588 
Q 1028 -725 1275 -790 
Q 1522 -856 1778 -856 
Q 2344 -856 2625 -561 
Q 2906 -266 2906 331 
L 2906 616 
Q 2728 306 2450 153 
Q 2172 0 1784 0 
Q 1141 0 747 490 
Q 353 981 353 1791 
Q 353 2603 747 3093 
Q 1141 3584 1784 3584 
Q 2172 3584 2450 3431 
Q 2728 3278 2906 2969 
L 2906 3500 
L 3481 3500 
L 3481 434 
z
" id="DejaVuSans-67" transform="scale(0.015625)"/>
       <path d="M 603 4863 
L 1178 4863 
L 1178 0 
L 603 0 
L 603 4863 
z
" id="DejaVuSans-6c" transform="scale(0.015625)"/>
       <path d="M 3597 1894 
L 3597 1613 
L 953 1613 
Q 991 1019 1311 708 
Q 1631 397 2203 397 
Q 2534 397 2845 478 
Q 3156 559 3463 722 
L 3463 178 
Q 3153 47 2828 -22 
Q 2503 -91 2169 -91 
Q 1331 -91 842 396 
Q 353 884 353 1716 
Q 353 2575 817 3079 
Q 1281 3584 2069 3584 
Q 2775 3584 3186 3129 
Q 3597 2675 3597 1894 
z
M 3022 2063 
Q 3016 2534 2758 2815 
Q 2500 3097 2075 3097 
Q 1594 3097 1305 2825 
Q 1016 2553 972 2059 
L 3022 2063 
z
" id="DejaVuSans-65" transform="scale(0.015625)"/>
       <path id="DejaVuSans-20" transform="scale(0.015625)"/>
       <path d="M 269 3500 
L 844 3500 
L 1563 769 
L 2278 3500 
L 2956 3500 
L 3675 769 
L 4391 3500 
L 4966 3500 
L 4050 0 
L 3372 0 
L 2619 2869 
L 1863 0 
L 1184 0 
L 269 3500 
z
" id="DejaVuSans-77" transform="scale(0.015625)"/>
       <path d="M 603 3500 
L 1178 3500 
L 1178 0 
L 603 0 
L 603 3500 
z
M 603 4863 
L 1178 4863 
L 1178 4134 
L 603 4134 
L 603 4863 
z
" id="DejaVuSans-69" transform="scale(0.015625)"/>
       <path d="M 1172 4494 
L 1172 3500 
L 2356 3500 
L 2356 3053 
L 1172 3053 
L 1172 1153 
Q 1172 725 1289 603 
Q 1406 481 1766 481 
L 2356 481 
L 2356 0 
L 1766 0 
Q 1100 0 847 248 
Q 594 497 594 1153 
L 594 3053 
L 172 3053 
L 172 3500 
L 594 3500 
L 594 4494 
L 1172 4494 
z
" id="DejaVuSans-74" transform="scale(0.015625)"/>
       <path d="M 3513 2113 
L 3513 0 
L 2938 0 
L 2938 2094 
Q 2938 2591 2744 2837 
Q 2550 3084 2163 3084 
Q 1697 3084 1428 2787 
Q 1159 2491 1159 1978 
L 1159 0 
L 581 0 
L 581 4863 
L 1159 4863 
L 1159 2956 
Q 1366 3272 1645 3428 
Q 1925 3584 2291 3584 
Q 2894 3584 3203 3211 
Q 3513 2838 3513 2113 
z
" id="DejaVuSans-68" transform="scale(0.015625)"/>
       <path d="M 1959 3097 
Q 1497 3097 1228 2736 
Q 959 2375 959 1747 
Q 959 1119 1226 758 
Q 1494 397 1959 397 
Q 2419 397 2687 759 
Q 2956 1122 2956 1747 
Q 2956 2369 2687 2733 
Q 2419 3097 1959 3097 
z
M 1959 3584 
Q 2709 3584 3137 3096 
Q 3566 2609 3566 1747 
Q 3566 888 3137 398 
Q 2709 -91 1959 -91 
Q 1206 -91 779 398 
Q 353 888 353 1747 
Q 353 2609 779 3096 
Q 1206 3584 1959 3584 
z
" id="DejaVuSans-6f" transform="scale(0.015625)"/>
       <path d="M 2631 2963 
Q 2534 3019 2420 3045 
Q 2306 3072 2169 3072 
Q 1681 3072 1420 2755 
Q 1159 2438 1159 1844 
L 1159 0 
L 581 0 
L 581 3500 
L 1159 3500 
L 1159 2956 
Q 1341 3275 1631 3429 
Q 1922 3584 2338 3584 
Q 2397 3584 2469 3576 
Q 2541 3569 2628 3553 
L 2631 2963 
z
" id="DejaVuSans-72" transform="scale(0.015625)"/>
       <path d="M 3328 2828 
Q 3544 3216 3844 3400 
Q 4144 3584 4550 3584 
Q 5097 3584 5394 3201 
Q 5691 2819 5691 2113 
L 5691 0 
L 5113 0 
L 5113 2094 
Q 5113 2597 4934 2840 
Q 4756 3084 4391 3084 
Q 3944 3084 3684 2787 
Q 3425 2491 3425 1978 
L 3425 0 
L 2847 0 
L 2847 2094 
Q 2847 2600 2669 2842 
Q 2491 3084 2119 3084 
Q 1678 3084 1418 2786 
Q 1159 2488 1159 1978 
L 1159 0 
L 581 0 
L 581 3500 
L 1159 3500 
L 1159 2956 
Q 1356 3278 1631 3431 
Q 1906 3584 2284 3584 
Q 2666 3584 2933 3390 
Q 3200 3197 3328 2828 
z
" id="DejaVuSans-6d" transform="scale(0.015625)"/>
       <path d="M 2194 1759 
Q 1497 1759 1228 1600 
Q 959 1441 959 1056 
Q 959 750 1161 570 
Q 1363 391 1709 391 
Q 2188 391 2477 730 
Q 2766 1069 2766 1631 
L 2766 1759 
L 2194 1759 
z
M 3341 1997 
L 3341 0 
L 2766 0 
L 2766 531 
Q 2569 213 2275 61 
Q 1981 -91 1556 -91 
Q 1019 -91 701 211 
Q 384 513 384 1019 
Q 384 1609 779 1909 
Q 1175 2209 1959 2209 
L 2766 2209 
L 2766 2266 
Q 2766 2663 2505 2880 
Q 2244 3097 1772 3097 
Q 1472 3097 1187 3025 
Q 903 2953 641 2809 
L 641 3341 
Q 956 3463 1253 3523 
Q 1550 3584 1831 3584 
Q 2591 3584 2966 3190 
Q 3341 2797 3341 1997 
z
" id="DejaVuSans-61" transform="scale(0.015625)"/>
       <path d="M 1984 4856 
Q 1566 4138 1362 3434 
Q 1159 2731 1159 2009 
Q 1159 1288 1364 580 
Q 1569 -128 1984 -844 
L 1484 -844 
Q 1016 -109 783 600 
Q 550 1309 550 2009 
Q 550 2706 781 3412 
Q 1013 4119 1484 4856 
L 1984 4856 
z
" id="DejaVuSans-28" transform="scale(0.015625)"/>
       <path d="M 2906 2969 
L 2906 4863 
L 3481 4863 
L 3481 0 
L 2906 0 
L 2906 525 
Q 2725 213 2448 61 
Q 2172 -91 1784 -91 
Q 1150 -91 751 415 
Q 353 922 353 1747 
Q 353 2572 751 3078 
Q 1150 3584 1784 3584 
Q 2172 3584 2448 3432 
Q 2725 3281 2906 2969 
z
M 947 1747 
Q 947 1113 1208 752 
Q 1469 391 1925 391 
Q 2381 391 2643 752 
Q 2906 1113 2906 1747 
Q 2906 2381 2643 2742 
Q 2381 3103 1925 3103 
Q 1469 3103 1208 2742 
Q 947 2381 947 1747 
z
" id="DejaVuSans-64" transform="scale(0.015625)"/>
       <path d="M 513 4856 
L 1013 4856 
Q 1481 4119 1714 3412 
Q 1947 2706 1947 2009 
Q 1947 1309 1714 600 
Q 1481 -109 1013 -844 
L 513 -844 
Q 928 -128 1133 580 
Q 1338 1288 1338 2009 
Q 1338 2731 1133 3434 
Q 928 4138 513 4856 
z
" id="DejaVuSans-29" transform="scale(0.015625)"/>
      </defs>
      <use xlink:href="#DejaVuSans-41"/>
      <use x="68.408203" xlink:href="#DejaVuSans-6e"/>
      <use x="131.787109" xlink:href="#DejaVuSans-67"/>
      <use x="195.263672" xlink:href="#DejaVuSans-6c"/>
      <use x="223.046875" xlink:href="#DejaVuSans-65"/>
      <use x="284.570312" xlink:href="#DejaVuSans-20"/>
      <use x="316.357422" xlink:href="#DejaVuSans-77"/>
      <use x="398.144531" xlink:href="#DejaVuSans-69"/>
      <use x="425.927734" xlink:href="#DejaVuSans-74"/>
      <use x="465.136719" xlink:href="#DejaVuSans-68"/>
      <use x="528.515625" xlink:href="#DejaVuSans-20"/>
      <use x="560.302734" xlink:href="#DejaVuSans-6e"/>
      <use x="623.681641" xlink:href="#DejaVuSans-6f"/>
      <use x="684.863281" xlink:href="#DejaVuSans-72"/>
      <use x="724.226562" xlink:href="#DejaVuSans-6d"/>
      <use x="821.638672" xlink:href="#DejaVuSans-61"/>
      <use x="882.917969" xlink:href="#DejaVuSans-6c"/>
      <use x="910.701172" xlink:href="#DejaVuSans-20"/>
      <use x="942.488281" xlink:href="#DejaVuSans-28"/>
      <use x="981.501953" xlink:href="#DejaVuSans-72"/>
      <use x="1022.615234" xlink:href="#DejaVuSans-61"/>
      <use x="1083.894531" xlink:href="#DejaVuSans-64"/>
      <use x="1147.371094" xlink:href="#DejaVuSans-29"/>
     </g>
    </g>
   </g>
   <g id="matplotlib.axis_2">
    <g id="ytick_1">
     <g id="line2d_10">
      <defs>
       <path d="M 0 0 
L -3.5 0 
" id="mea6e365501" style="stroke:#000000;stroke-width:0.8;"/>
      </defs>
      <g>
       <use style="stroke:#000000;stroke-width:0.8;" x="43.78125" xlink:href="#mea6e365501" y="273.312"/>
      </g>
     </g>
     <g id="text_11">
      <!-- 0.0 -->
      <g transform="translate(20.878125 277.111219)scale(0.1 -0.1)">
       <use xlink:href="#DejaVuSans-30"/>
       <use x="63.623047" xlink:href="#DejaVuSans-2e"/>
       <use x="95.410156" xlink:href="#DejaVuSans-30"/>
      </g>
     </g>
    </g>
    <g id="ytick_2">
     <g id="line2d_11">
      <g>
       <use style="stroke:#000000;stroke-width:0.8;" x="43.78125" xlink:href="#mea6e365501" y="227.240408"/>
      </g>
     </g>
     <g id="text_12">
      <!-- 0.2 -->
      <g transform="translate(20.878125 231.039627)scale(0.1 -0.1)">
       <use xlink:href="#DejaVuSans-30"/>
       <use x="63.623047" xlink:href="#DejaVuSans-2e"/>
       <use x="95.410156" xlink:href="#DejaVuSans-32"/>
      </g>
     </g>
    </g>
    <g id="ytick_3">
     <g id="line2d_12">
      <g>
       <use style="stroke:#000000;stroke-width:0.8;" x="43.78125" xlink:href="#mea6e365501" y="181.168816"/>
      </g>
     </g>
     <g id="text_13">
      <!-- 0.4 -->
      <g transform="translate(20.878125 184.968034)scale(0.1 -0.1)">
       <use xlink:href="#DejaVuSans-30"/>
       <use x="63.623047" xlink:href="#DejaVuSans-2e"/>
       <use x="95.410156" xlink:href="#DejaVuSans-34"/>
      </g>
     </g>
    </g>
    <g id="ytick_4">
     <g id="line2d_13">
      <g>
       <use style="stroke:#000000;stroke-width:0.8;" x="43.78125" xlink:href="#mea6e365501" y="135.097224"/>
      </g>
     </g>
     <g id="text_14">
      <!-- 0.6 -->
      <g transform="translate(20.878125 138.896442)scale(0.1 -0.1)">
       <use xlink:href="#DejaVuSans-30"/>
       <use x="63.623047" xlink:href="#DejaVuSans-2e"/>
       <use x="95.410156" xlink:href="#DejaVuSans-36"/>
      </g>
     </g>
    </g>
    <g id="ytick_5">
     <g id="line2d_14">
      <g>
       <use style="stroke:#000000;stroke-width:0.8;" x="43.78125" xlink:href="#mea6e365501" y="89.025631"/>
      </g>
     </g>
     <g id="text_15">
      <!-- 0.8 -->
      <g transform="translate(20.878125 92.82485)scale(0.1 -0.1)">
       <use xlink:href="#DejaVuSans-30"/>
       <use x="63.623047" xlink:href="#DejaVuSans-2e"/>
       <use x="95.410156" xlink:href="#DejaVuSans-38"/>
      </g>
     </g>
    </g>
    <g id="ytick_6">
     <g id="line2d_15">
      <g>
       <use style="stroke:#000000;stroke-width:0.8;" x="43.78125" xlink:href="#mea6e365501" y="42.954039"/>
      </g>
     </g>
     <g id="text_16">
      <!-- 1.0 -->
      <g transform="translate(20.878125 46.753258)scale(0.1 -0.1)">
       <use xlink:href="#DejaVuSans-31"/>
       <use x="63.623047" xlink:href="#DejaVuSans-2e"/>
       <use x="95.410156" xlink:href="#DejaVuSans-30"/>
      </g>
     </g>
    </g>
    <g id="text_17">
     <!-- Probability density -->
     <g transform="translate(14.798438 186.606781)rotate(-90)scale(0.1 -0.1)">
      <defs>
       <path d="M 1259 4147 
L 1259 2394 
L 2053 2394 
Q 2494 2394 2734 2622 
Q 2975 2850 2975 3272 
Q 2975 3691 2734 3919 
Q 2494 4147 2053 4147 
L 1259 4147 
z
M 628 4666 
L 2053 4666 
Q 2838 4666 3239 4311 
Q 3641 3956 3641 3272 
Q 3641 2581 3239 2228 
Q 2838 1875 2053 1875 
L 1259 1875 
L 1259 0 
L 628 0 
L 628 4666 
z
" id="DejaVuSans-50" transform="scale(0.015625)"/>
       <path d="M 3116 1747 
Q 3116 2381 2855 2742 
Q 2594 3103 2138 3103 
Q 1681 3103 1420 2742 
Q 1159 2381 1159 1747 
Q 1159 1113 1420 752 
Q 1681 391 2138 391 
Q 2594 391 2855 752 
Q 3116 1113 3116 1747 
z
M 1159 2969 
Q 1341 3281 1617 3432 
Q 1894 3584 2278 3584 
Q 2916 3584 3314 3078 
Q 3713 2572 3713 1747 
Q 3713 922 3314 415 
Q 2916 -91 2278 -91 
Q 1894 -91 1617 61 
Q 1341 213 1159 525 
L 1159 0 
L 581 0 
L 581 4863 
L 1159 4863 
L 1159 2969 
z
" id="DejaVuSans-62" transform="scale(0.015625)"/>
       <path d="M 2059 -325 
Q 1816 -950 1584 -1140 
Q 1353 -1331 966 -1331 
L 506 -1331 
L 506 -850 
L 844 -850 
Q 1081 -850 1212 -737 
Q 1344 -625 1503 -206 
L 1606 56 
L 191 3500 
L 800 3500 
L 1894 763 
L 2988 3500 
L 3597 3500 
L 2059 -325 
z
" id="DejaVuSans-79" transform="scale(0.015625)"/>
       <path d="M 2834 3397 
L 2834 2853 
Q 2591 2978 2328 3040 
Q 2066 3103 1784 3103 
Q 1356 3103 1142 2972 
Q 928 2841 928 2578 
Q 928 2378 1081 2264 
Q 1234 2150 1697 2047 
L 1894 2003 
Q 2506 1872 2764 1633 
Q 3022 1394 3022 966 
Q 3022 478 2636 193 
Q 2250 -91 1575 -91 
Q 1294 -91 989 -36 
Q 684 19 347 128 
L 347 722 
Q 666 556 975 473 
Q 1284 391 1588 391 
Q 1994 391 2212 530 
Q 2431 669 2431 922 
Q 2431 1156 2273 1281 
Q 2116 1406 1581 1522 
L 1381 1569 
Q 847 1681 609 1914 
Q 372 2147 372 2553 
Q 372 3047 722 3315 
Q 1072 3584 1716 3584 
Q 2034 3584 2315 3537 
Q 2597 3491 2834 3397 
z
" id="DejaVuSans-73" transform="scale(0.015625)"/>
      </defs>
      <use xlink:href="#DejaVuSans-50"/>
      <use x="58.552734" xlink:href="#DejaVuSans-72"/>
      <use x="97.416016" xlink:href="#DejaVuSans-6f"/>
      <use x="158.597656" xlink:href="#DejaVuSans-62"/>
      <use x="222.074219" xlink:href="#DejaVuSans-61"/>
      <use x="283.353516" xlink:href="#DejaVuSans-62"/>
      <use x="346.830078" xlink:href="#DejaVuSans-69"/>
      <use x="374.613281" xlink:href="#DejaVuSans-6c"/>
      <use x="402.396484" xlink:href="#DejaVuSans-69"/>
      <use x="430.179688" xlink:href="#DejaVuSans-74"/>
      <use x="469.388672" xlink:href="#DejaVuSans-79"/>
      <use x="528.568359" xlink:href="#DejaVuSans-20"/>
      <use x="560.355469" xlink:href="#DejaVuSans-64"/>
      <use x="623.832031" xlink:href="#DejaVuSans-65"/>
      <use x="685.355469" xlink:href="#DejaVuSans-6e"/>
      <use x="748.734375" xlink:href="#DejaVuSans-73"/>
      <use x="800.833984" xlink:href="#DejaVuSans-69"/>
      <use x="828.617188" xlink:href="#DejaVuSans-74"/>
      <use x="867.826172" xlink:href="#DejaVuSans-79"/>
     </g>
    </g>
   </g>
   <g id="line2d_16">
    <path clip-path="url(#pd964c3e0cc)" d="M 60.013977 273.312 
L 79.837728 229.393185 
L 90.237073 206.897683 
L 99.01152 188.430759 
L 106.811029 172.525092 
L 113.960578 158.446843 
L 120.460169 146.123619 
L 126.63478 134.881693 
L 132.484411 124.686556 
L 138.009063 115.494431 
L 143.208736 107.254497 
L 148.408408 99.434879 
L 153.283101 92.503336 
L 157.832814 86.396513 
L 162.382528 80.651933 
L 166.932241 75.280729 
L 171.156975 70.636617 
L 175.381709 66.33119 
L 179.281463 62.663789 
L 183.181217 59.29633 
L 187.080972 56.233609 
L 190.655746 53.697549 
L 194.230521 51.424257 
L 197.805296 49.416453 
L 201.380071 47.676539 
L 204.629866 46.329023 
L 207.879661 45.20596 
L 211.129456 44.308462 
L 214.379252 43.637415 
L 217.629047 43.193483 
L 220.878842 42.977105 
L 224.128637 42.988495 
L 227.378433 43.227641 
L 230.628228 43.694308 
L 233.878023 44.388034 
L 237.127818 45.308133 
L 240.377614 46.453694 
L 243.627409 47.823586 
L 246.877204 49.416453 
L 250.451979 51.424257 
L 254.026754 53.697549 
L 257.601528 56.233609 
L 261.176303 59.029401 
L 265.076058 62.371642 
L 268.975812 66.014242 
L 272.875566 69.952012 
L 277.1003 74.54451 
L 281.325034 79.469163 
L 285.874747 85.134646 
L 290.42446 91.164819 
L 295.299153 98.017119 
L 300.173846 105.259397 
L 305.373519 113.396166 
L 310.573191 121.937706 
L 316.097843 131.4324 
L 321.947474 141.926879 
L 328.122085 153.460275 
L 334.621676 166.062002 
L 341.771225 180.411785 
L 349.570734 196.570596 
L 358.345181 215.266848 
L 369.069506 238.671963 
L 384.668523 273.312 
L 384.668523 273.312 
" style="fill:none;stroke:#ff7f0e;stroke-linecap:square;stroke-width:1.5;"/>
   </g>
   <g id="patch_203">
    <path d="M 43.78125 273.312 
L 43.78125 7.2 
" style="fill:none;stroke:#000000;stroke-linecap:square;stroke-linejoin:miter;stroke-width:0.8;"/>
   </g>
   <g id="patch_204">
    <path d="M 400.90125 273.312 
L 400.90125 7.2 
" style="fill:none;stroke:#000000;stroke-linecap:square;stroke-linejoin:miter;stroke-width:0.8;"/>
   </g>
   <g id="patch_205">
    <path d="M 43.78125 273.312 
L 400.90125 273.312 
" style="fill:none;stroke:#000000;stroke-linecap:square;stroke-linejoin:miter;stroke-width:0.8;"/>
   </g>
   <g id="patch_206">
    <path d="M 43.78125 7.2 
L 400.90125 7.2 
" style="fill:none;stroke:#000000;stroke-linecap:square;stroke-linejoin:miter;stroke-width:0.8;"/>
   </g>
  </g>
 </g>
 <defs>
  <clipPath id="pd964c3e0cc">
   <rect height="266.112" width="357.12" x="43.78125" y="7.2"/>
  </clipPath>
 </defs>
</svg>
