<?xml version="1.0" encoding="utf-8" standalone="no"?>
<!DOCTYPE svg PUBLIC "-//W3C//DTD SVG 1.1//EN"
  "http://www.w3.org/Graphics/SVG/1.1/DTD/svg11.dtd">
<svg height="310.86825pt" version="1.1" viewBox="0 0 408.10125 310.86825" width="408.10125pt" xmlns="http://www.w3.org/2000/svg" xmlns:xlink="http://www.w3.org/1999/xlink">
 <metadata>
  <rdf:RDF xmlns:cc="http://creativecommons.org/ns#" xmlns:dc="http://purl.org/dc/elements/1.1/" xmlns:rdf="http://www.w3.org/1999/02/22-rdf-syntax-ns#">
   <cc:Work>
    <dc:type rdf:resource="http://purl.org/dc/dcmitype/StillImage"/>
    <dc:date>2021-06-24T15:31:19.001585</dc:date>
    <dc:format>image/svg+xml</dc:format>
    <dc:creator>
     <cc:Agent>
      <dc:title>Matplotlib v3.4.2, https://matplotlib.org/</dc:title>
     </cc:Agent>
    </dc:creator>
   </cc:Work>
  </rdf:RDF>
 </metadata>
 <defs>
  <style type="text/css">*{stroke-linecap:butt;stroke-linejoin:round;}</style>
 </defs>
 <g id="figure_1">
  <g id="patch_1">
   <path d="M 0 310.86825 
L 408.10125 310.86825 
L 408.10125 0 
L 0 0 
z
" style="fill:#ffffff;"/>
  </g>
  <g id="axes_1">
   <g id="patch_2">
    <path d="M 43.78125 273.312 
L 400.90125 273.312 
L 400.90125 7.2 
L 43.78125 7.2 
z
" style="fill:#ffffff;"/>
   </g>
   <g id="patch_3">
    <path clip-path="url(#pf69db376aa)" d="M 60.428361 273.312 
L 62.044525 273.312 
L 62.044525 270.321558 
L 60.428361 270.321558 
z
" style="fill:#1f77b4;"/>
   </g>
   <g id="patch_4">
    <path clip-path="url(#pf69db376aa)" d="M 62.044525 273.312 
L 63.660689 273.312 
L 63.660689 266.583504 
L 62.044525 266.583504 
z
" style="fill:#1f77b4;"/>
   </g>
   <g id="patch_5">
    <path clip-path="url(#pf69db376aa)" d="M 63.660689 273.312 
L 65.276853 273.312 
L 65.276853 265.088283 
L 63.660689 265.088283 
z
" style="fill:#1f77b4;"/>
   </g>
   <g id="patch_6">
    <path clip-path="url(#pf69db376aa)" d="M 65.276853 273.312 
L 66.893017 273.312 
L 66.893017 260.602619 
L 65.276853 260.602619 
z
" style="fill:#1f77b4;"/>
   </g>
   <g id="patch_7">
    <path clip-path="url(#pf69db376aa)" d="M 66.893017 273.312 
L 68.509181 273.312 
L 68.509181 252.378903 
L 66.893017 252.378903 
z
" style="fill:#1f77b4;"/>
   </g>
   <g id="patch_8">
    <path clip-path="url(#pf69db376aa)" d="M 68.509181 273.312 
L 70.125345 273.312 
L 70.125345 247.145628 
L 68.509181 247.145628 
z
" style="fill:#1f77b4;"/>
   </g>
   <g id="patch_9">
    <path clip-path="url(#pf69db376aa)" d="M 70.125345 273.312 
L 71.741509 273.312 
L 71.741509 247.145628 
L 70.125345 247.145628 
z
" style="fill:#1f77b4;"/>
   </g>
   <g id="patch_10">
    <path clip-path="url(#pf69db376aa)" d="M 71.741509 273.312 
L 73.357673 273.312 
L 73.357673 240.417133 
L 71.741509 240.417133 
z
" style="fill:#1f77b4;"/>
   </g>
   <g id="patch_11">
    <path clip-path="url(#pf69db376aa)" d="M 73.357673 273.312 
L 74.973837 273.312 
L 74.973837 236.67908 
L 73.357673 236.67908 
z
" style="fill:#1f77b4;"/>
   </g>
   <g id="patch_12">
    <path clip-path="url(#pf69db376aa)" d="M 74.973837 273.312 
L 76.590001 273.312 
L 76.590001 234.436248 
L 74.973837 234.436248 
z
" style="fill:#1f77b4;"/>
   </g>
   <g id="patch_13">
    <path clip-path="url(#pf69db376aa)" d="M 76.590001 273.312 
L 78.206165 273.312 
L 78.206165 237.42669 
L 76.590001 237.42669 
z
" style="fill:#1f77b4;"/>
   </g>
   <g id="patch_14">
    <path clip-path="url(#pf69db376aa)" d="M 78.206165 273.312 
L 79.822329 273.312 
L 79.822329 228.455363 
L 78.206165 228.455363 
z
" style="fill:#1f77b4;"/>
   </g>
   <g id="patch_15">
    <path clip-path="url(#pf69db376aa)" d="M 79.822329 273.312 
L 81.438493 273.312 
L 81.438493 226.212531 
L 79.822329 226.212531 
z
" style="fill:#1f77b4;"/>
   </g>
   <g id="patch_16">
    <path clip-path="url(#pf69db376aa)" d="M 81.438493 273.312 
L 83.054657 273.312 
L 83.054657 233.688637 
L 81.438493 233.688637 
z
" style="fill:#1f77b4;"/>
   </g>
   <g id="patch_17">
    <path clip-path="url(#pf69db376aa)" d="M 83.054657 273.312 
L 84.670821 273.312 
L 84.670821 220.231646 
L 83.054657 220.231646 
z
" style="fill:#1f77b4;"/>
   </g>
   <g id="patch_18">
    <path clip-path="url(#pf69db376aa)" d="M 84.670821 273.312 
L 86.286985 273.312 
L 86.286985 226.960142 
L 84.670821 226.960142 
z
" style="fill:#1f77b4;"/>
   </g>
   <g id="patch_19">
    <path clip-path="url(#pf69db376aa)" d="M 86.286985 273.312 
L 87.903149 273.312 
L 87.903149 223.969699 
L 86.286985 223.969699 
z
" style="fill:#1f77b4;"/>
   </g>
   <g id="patch_20">
    <path clip-path="url(#pf69db376aa)" d="M 87.903149 273.312 
L 89.519313 273.312 
L 89.519313 196.308106 
L 87.903149 196.308106 
z
" style="fill:#1f77b4;"/>
   </g>
   <g id="patch_21">
    <path clip-path="url(#pf69db376aa)" d="M 89.519313 273.312 
L 91.135477 273.312 
L 91.135477 208.269876 
L 89.519313 208.269876 
z
" style="fill:#1f77b4;"/>
   </g>
   <g id="patch_22">
    <path clip-path="url(#pf69db376aa)" d="M 91.135477 273.312 
L 92.751641 273.312 
L 92.751641 202.288991 
L 91.135477 202.288991 
z
" style="fill:#1f77b4;"/>
   </g>
   <g id="patch_23">
    <path clip-path="url(#pf69db376aa)" d="M 92.751641 273.312 
L 94.367805 273.312 
L 94.367805 197.055717 
L 92.751641 197.055717 
z
" style="fill:#1f77b4;"/>
   </g>
   <g id="patch_24">
    <path clip-path="url(#pf69db376aa)" d="M 94.367805 273.312 
L 95.983969 273.312 
L 95.983969 190.327221 
L 94.367805 190.327221 
z
" style="fill:#1f77b4;"/>
   </g>
   <g id="patch_25">
    <path clip-path="url(#pf69db376aa)" d="M 95.983969 273.312 
L 97.600133 273.312 
L 97.600133 197.055717 
L 95.983969 197.055717 
z
" style="fill:#1f77b4;"/>
   </g>
   <g id="patch_26">
    <path clip-path="url(#pf69db376aa)" d="M 97.600133 273.312 
L 99.216297 273.312 
L 99.216297 197.803327 
L 97.600133 197.803327 
z
" style="fill:#1f77b4;"/>
   </g>
   <g id="patch_27">
    <path clip-path="url(#pf69db376aa)" d="M 99.216297 273.312 
L 100.832461 273.312 
L 100.832461 174.627398 
L 99.216297 174.627398 
z
" style="fill:#1f77b4;"/>
   </g>
   <g id="patch_28">
    <path clip-path="url(#pf69db376aa)" d="M 100.832461 273.312 
L 102.448625 273.312 
L 102.448625 179.113062 
L 100.832461 179.113062 
z
" style="fill:#1f77b4;"/>
   </g>
   <g id="patch_29">
    <path clip-path="url(#pf69db376aa)" d="M 102.448625 273.312 
L 104.064789 273.312 
L 104.064789 172.384566 
L 102.448625 172.384566 
z
" style="fill:#1f77b4;"/>
   </g>
   <g id="patch_30">
    <path clip-path="url(#pf69db376aa)" d="M 104.064789 273.312 
L 105.680952 273.312 
L 105.680952 173.132177 
L 104.064789 173.132177 
z
" style="fill:#1f77b4;"/>
   </g>
   <g id="patch_31">
    <path clip-path="url(#pf69db376aa)" d="M 105.680952 273.312 
L 107.297116 273.312 
L 107.297116 176.122619 
L 105.680952 176.122619 
z
" style="fill:#1f77b4;"/>
   </g>
   <g id="patch_32">
    <path clip-path="url(#pf69db376aa)" d="M 107.297116 273.312 
L 108.91328 273.312 
L 108.91328 157.432354 
L 107.297116 157.432354 
z
" style="fill:#1f77b4;"/>
   </g>
   <g id="patch_33">
    <path clip-path="url(#pf69db376aa)" d="M 108.91328 273.312 
L 110.529444 273.312 
L 110.529444 166.403681 
L 108.91328 166.403681 
z
" style="fill:#1f77b4;"/>
   </g>
   <g id="patch_34">
    <path clip-path="url(#pf69db376aa)" d="M 110.529444 273.312 
L 112.145608 273.312 
L 112.145608 184.346336 
L 110.529444 184.346336 
z
" style="fill:#1f77b4;"/>
   </g>
   <g id="patch_35">
    <path clip-path="url(#pf69db376aa)" d="M 112.145608 273.312 
L 113.761772 273.312 
L 113.761772 160.422796 
L 112.145608 160.422796 
z
" style="fill:#1f77b4;"/>
   </g>
   <g id="patch_36">
    <path clip-path="url(#pf69db376aa)" d="M 113.761772 273.312 
L 115.377936 273.312 
L 115.377936 148.461027 
L 113.761772 148.461027 
z
" style="fill:#1f77b4;"/>
   </g>
   <g id="patch_37">
    <path clip-path="url(#pf69db376aa)" d="M 115.377936 273.312 
L 116.9941 273.312 
L 116.9941 155.189522 
L 115.377936 155.189522 
z
" style="fill:#1f77b4;"/>
   </g>
   <g id="patch_38">
    <path clip-path="url(#pf69db376aa)" d="M 116.9941 273.312 
L 118.610264 273.312 
L 118.610264 148.461027 
L 116.9941 148.461027 
z
" style="fill:#1f77b4;"/>
   </g>
   <g id="patch_39">
    <path clip-path="url(#pf69db376aa)" d="M 118.610264 273.312 
L 120.226428 273.312 
L 120.226428 146.965805 
L 118.610264 146.965805 
z
" style="fill:#1f77b4;"/>
   </g>
   <g id="patch_40">
    <path clip-path="url(#pf69db376aa)" d="M 120.226428 273.312 
L 121.842592 273.312 
L 121.842592 157.432354 
L 120.226428 157.432354 
z
" style="fill:#1f77b4;"/>
   </g>
   <g id="patch_41">
    <path clip-path="url(#pf69db376aa)" d="M 121.842592 273.312 
L 123.458756 273.312 
L 123.458756 154.441912 
L 121.842592 154.441912 
z
" style="fill:#1f77b4;"/>
   </g>
   <g id="patch_42">
    <path clip-path="url(#pf69db376aa)" d="M 123.458756 273.312 
L 125.07492 273.312 
L 125.07492 142.480142 
L 123.458756 142.480142 
z
" style="fill:#1f77b4;"/>
   </g>
   <g id="patch_43">
    <path clip-path="url(#pf69db376aa)" d="M 125.07492 273.312 
L 126.691084 273.312 
L 126.691084 146.218195 
L 125.07492 146.218195 
z
" style="fill:#1f77b4;"/>
   </g>
   <g id="patch_44">
    <path clip-path="url(#pf69db376aa)" d="M 126.691084 273.312 
L 128.307248 273.312 
L 128.307248 140.98492 
L 126.691084 140.98492 
z
" style="fill:#1f77b4;"/>
   </g>
   <g id="patch_45">
    <path clip-path="url(#pf69db376aa)" d="M 128.307248 273.312 
L 129.923412 273.312 
L 129.923412 126.032708 
L 128.307248 126.032708 
z
" style="fill:#1f77b4;"/>
   </g>
   <g id="patch_46">
    <path clip-path="url(#pf69db376aa)" d="M 129.923412 273.312 
L 131.539576 273.312 
L 131.539576 115.566159 
L 129.923412 115.566159 
z
" style="fill:#1f77b4;"/>
   </g>
   <g id="patch_47">
    <path clip-path="url(#pf69db376aa)" d="M 131.539576 273.312 
L 133.15574 273.312 
L 133.15574 105.847221 
L 131.539576 105.847221 
z
" style="fill:#1f77b4;"/>
   </g>
   <g id="patch_48">
    <path clip-path="url(#pf69db376aa)" d="M 133.15574 273.312 
L 134.771904 273.312 
L 134.771904 99.866336 
L 133.15574 99.866336 
z
" style="fill:#1f77b4;"/>
   </g>
   <g id="patch_49">
    <path clip-path="url(#pf69db376aa)" d="M 134.771904 273.312 
L 136.388068 273.312 
L 136.388068 102.109168 
L 134.771904 102.109168 
z
" style="fill:#1f77b4;"/>
   </g>
   <g id="patch_50">
    <path clip-path="url(#pf69db376aa)" d="M 136.388068 273.312 
L 138.004232 273.312 
L 138.004232 124.537487 
L 136.388068 124.537487 
z
" style="fill:#1f77b4;"/>
   </g>
   <g id="patch_51">
    <path clip-path="url(#pf69db376aa)" d="M 138.004232 273.312 
L 139.620396 273.312 
L 139.620396 94.633062 
L 138.004232 94.633062 
z
" style="fill:#1f77b4;"/>
   </g>
   <g id="patch_52">
    <path clip-path="url(#pf69db376aa)" d="M 139.620396 273.312 
L 141.23656 273.312 
L 141.23656 98.371115 
L 139.620396 98.371115 
z
" style="fill:#1f77b4;"/>
   </g>
   <g id="patch_53">
    <path clip-path="url(#pf69db376aa)" d="M 141.23656 273.312 
L 142.852724 273.312 
L 142.852724 94.633062 
L 141.23656 94.633062 
z
" style="fill:#1f77b4;"/>
   </g>
   <g id="patch_54">
    <path clip-path="url(#pf69db376aa)" d="M 142.852724 273.312 
L 144.468888 273.312 
L 144.468888 105.847221 
L 142.852724 105.847221 
z
" style="fill:#1f77b4;"/>
   </g>
   <g id="patch_55">
    <path clip-path="url(#pf69db376aa)" d="M 144.468888 273.312 
L 146.085052 273.312 
L 146.085052 94.633062 
L 144.468888 94.633062 
z
" style="fill:#1f77b4;"/>
   </g>
   <g id="patch_56">
    <path clip-path="url(#pf69db376aa)" d="M 146.085052 273.312 
L 147.701216 273.312 
L 147.701216 93.137841 
L 146.085052 93.137841 
z
" style="fill:#1f77b4;"/>
   </g>
   <g id="patch_57">
    <path clip-path="url(#pf69db376aa)" d="M 147.701216 273.312 
L 149.31738 273.312 
L 149.31738 114.818549 
L 147.701216 114.818549 
z
" style="fill:#1f77b4;"/>
   </g>
   <g id="patch_58">
    <path clip-path="url(#pf69db376aa)" d="M 149.31738 273.312 
L 150.933544 273.312 
L 150.933544 87.904566 
L 149.31738 87.904566 
z
" style="fill:#1f77b4;"/>
   </g>
   <g id="patch_59">
    <path clip-path="url(#pf69db376aa)" d="M 150.933544 273.312 
L 152.549708 273.312 
L 152.549708 81.923681 
L 150.933544 81.923681 
z
" style="fill:#1f77b4;"/>
   </g>
   <g id="patch_60">
    <path clip-path="url(#pf69db376aa)" d="M 152.549708 273.312 
L 154.165872 273.312 
L 154.165872 101.361558 
L 152.549708 101.361558 
z
" style="fill:#1f77b4;"/>
   </g>
   <g id="patch_61">
    <path clip-path="url(#pf69db376aa)" d="M 154.165872 273.312 
L 155.782036 273.312 
L 155.782036 78.933239 
L 154.165872 78.933239 
z
" style="fill:#1f77b4;"/>
   </g>
   <g id="patch_62">
    <path clip-path="url(#pf69db376aa)" d="M 155.782036 273.312 
L 157.3982 273.312 
L 157.3982 97.623504 
L 155.782036 97.623504 
z
" style="fill:#1f77b4;"/>
   </g>
   <g id="patch_63">
    <path clip-path="url(#pf69db376aa)" d="M 157.3982 273.312 
L 159.014364 273.312 
L 159.014364 82.671292 
L 157.3982 82.671292 
z
" style="fill:#1f77b4;"/>
   </g>
   <g id="patch_64">
    <path clip-path="url(#pf69db376aa)" d="M 159.014364 273.312 
L 160.630528 273.312 
L 160.630528 87.156956 
L 159.014364 87.156956 
z
" style="fill:#1f77b4;"/>
   </g>
   <g id="patch_65">
    <path clip-path="url(#pf69db376aa)" d="M 160.630528 273.312 
L 162.246692 273.312 
L 162.246692 81.923681 
L 160.630528 81.923681 
z
" style="fill:#1f77b4;"/>
   </g>
   <g id="patch_66">
    <path clip-path="url(#pf69db376aa)" d="M 162.246692 273.312 
L 163.862856 273.312 
L 163.862856 52.019257 
L 162.246692 52.019257 
z
" style="fill:#1f77b4;"/>
   </g>
   <g id="patch_67">
    <path clip-path="url(#pf69db376aa)" d="M 163.862856 273.312 
L 165.47902 273.312 
L 165.47902 67.71908 
L 163.862856 67.71908 
z
" style="fill:#1f77b4;"/>
   </g>
   <g id="patch_68">
    <path clip-path="url(#pf69db376aa)" d="M 165.47902 273.312 
L 167.095184 273.312 
L 167.095184 61.738195 
L 165.47902 61.738195 
z
" style="fill:#1f77b4;"/>
   </g>
   <g id="patch_69">
    <path clip-path="url(#pf69db376aa)" d="M 167.095184 273.312 
L 168.711348 273.312 
L 168.711348 60.990584 
L 167.095184 60.990584 
z
" style="fill:#1f77b4;"/>
   </g>
   <g id="patch_70">
    <path clip-path="url(#pf69db376aa)" d="M 168.711348 273.312 
L 170.327512 273.312 
L 170.327512 81.923681 
L 168.711348 81.923681 
z
" style="fill:#1f77b4;"/>
   </g>
   <g id="patch_71">
    <path clip-path="url(#pf69db376aa)" d="M 170.327512 273.312 
L 171.943676 273.312 
L 171.943676 97.623504 
L 170.327512 97.623504 
z
" style="fill:#1f77b4;"/>
   </g>
   <g id="patch_72">
    <path clip-path="url(#pf69db376aa)" d="M 171.943676 273.312 
L 173.55984 273.312 
L 173.55984 66.223858 
L 171.943676 66.223858 
z
" style="fill:#1f77b4;"/>
   </g>
   <g id="patch_73">
    <path clip-path="url(#pf69db376aa)" d="M 173.55984 273.312 
L 175.176004 273.312 
L 175.176004 92.39023 
L 173.55984 92.39023 
z
" style="fill:#1f77b4;"/>
   </g>
   <g id="patch_74">
    <path clip-path="url(#pf69db376aa)" d="M 175.176004 273.312 
L 176.792168 273.312 
L 176.792168 44.54315 
L 175.176004 44.54315 
z
" style="fill:#1f77b4;"/>
   </g>
   <g id="patch_75">
    <path clip-path="url(#pf69db376aa)" d="M 176.792168 273.312 
L 178.408332 273.312 
L 178.408332 29.590938 
L 176.792168 29.590938 
z
" style="fill:#1f77b4;"/>
   </g>
   <g id="patch_76">
    <path clip-path="url(#pf69db376aa)" d="M 178.408332 273.312 
L 180.024496 273.312 
L 180.024496 74.447575 
L 178.408332 74.447575 
z
" style="fill:#1f77b4;"/>
   </g>
   <g id="patch_77">
    <path clip-path="url(#pf69db376aa)" d="M 180.024496 273.312 
L 181.64066 273.312 
L 181.64066 55.75731 
L 180.024496 55.75731 
z
" style="fill:#1f77b4;"/>
   </g>
   <g id="patch_78">
    <path clip-path="url(#pf69db376aa)" d="M 181.64066 273.312 
L 183.256824 273.312 
L 183.256824 61.738195 
L 181.64066 61.738195 
z
" style="fill:#1f77b4;"/>
   </g>
   <g id="patch_79">
    <path clip-path="url(#pf69db376aa)" d="M 183.256824 273.312 
L 184.872988 273.312 
L 184.872988 41.552708 
L 183.256824 41.552708 
z
" style="fill:#1f77b4;"/>
   </g>
   <g id="patch_80">
    <path clip-path="url(#pf69db376aa)" d="M 184.872988 273.312 
L 186.489152 273.312 
L 186.489152 65.476248 
L 184.872988 65.476248 
z
" style="fill:#1f77b4;"/>
   </g>
   <g id="patch_81">
    <path clip-path="url(#pf69db376aa)" d="M 186.489152 273.312 
L 188.105316 273.312 
L 188.105316 49.776425 
L 186.489152 49.776425 
z
" style="fill:#1f77b4;"/>
   </g>
   <g id="patch_82">
    <path clip-path="url(#pf69db376aa)" d="M 188.105316 273.312 
L 189.72148 273.312 
L 189.72148 59.495363 
L 188.105316 59.495363 
z
" style="fill:#1f77b4;"/>
   </g>
   <g id="patch_83">
    <path clip-path="url(#pf69db376aa)" d="M 189.72148 273.312 
L 191.337644 273.312 
L 191.337644 71.457133 
L 189.72148 71.457133 
z
" style="fill:#1f77b4;"/>
   </g>
   <g id="patch_84">
    <path clip-path="url(#pf69db376aa)" d="M 191.337644 273.312 
L 192.953808 273.312 
L 192.953808 72.204743 
L 191.337644 72.204743 
z
" style="fill:#1f77b4;"/>
   </g>
   <g id="patch_85">
    <path clip-path="url(#pf69db376aa)" d="M 192.953808 273.312 
L 194.569972 273.312 
L 194.569972 35.571823 
L 192.953808 35.571823 
z
" style="fill:#1f77b4;"/>
   </g>
   <g id="patch_86">
    <path clip-path="url(#pf69db376aa)" d="M 194.569972 273.312 
L 196.186136 273.312 
L 196.186136 44.54315 
L 194.569972 44.54315 
z
" style="fill:#1f77b4;"/>
   </g>
   <g id="patch_87">
    <path clip-path="url(#pf69db376aa)" d="M 196.186136 273.312 
L 197.8023 273.312 
L 197.8023 46.038372 
L 196.186136 46.038372 
z
" style="fill:#1f77b4;"/>
   </g>
   <g id="patch_88">
    <path clip-path="url(#pf69db376aa)" d="M 197.8023 273.312 
L 199.418464 273.312 
L 199.418464 48.281204 
L 197.8023 48.281204 
z
" style="fill:#1f77b4;"/>
   </g>
   <g id="patch_89">
    <path clip-path="url(#pf69db376aa)" d="M 199.418464 273.312 
L 201.034628 273.312 
L 201.034628 41.552708 
L 199.418464 41.552708 
z
" style="fill:#1f77b4;"/>
   </g>
   <g id="patch_90">
    <path clip-path="url(#pf69db376aa)" d="M 201.034628 273.312 
L 202.650792 273.312 
L 202.650792 69.214301 
L 201.034628 69.214301 
z
" style="fill:#1f77b4;"/>
   </g>
   <g id="patch_91">
    <path clip-path="url(#pf69db376aa)" d="M 202.650792 273.312 
L 204.266956 273.312 
L 204.266956 51.271646 
L 202.650792 51.271646 
z
" style="fill:#1f77b4;"/>
   </g>
   <g id="patch_92">
    <path clip-path="url(#pf69db376aa)" d="M 204.266956 273.312 
L 205.88312 273.312 
L 205.88312 55.009699 
L 204.266956 55.009699 
z
" style="fill:#1f77b4;"/>
   </g>
   <g id="patch_93">
    <path clip-path="url(#pf69db376aa)" d="M 205.88312 273.312 
L 207.499284 273.312 
L 207.499284 36.319434 
L 205.88312 36.319434 
z
" style="fill:#1f77b4;"/>
   </g>
   <g id="patch_94">
    <path clip-path="url(#pf69db376aa)" d="M 207.499284 273.312 
L 209.115448 273.312 
L 209.115448 38.562265 
L 207.499284 38.562265 
z
" style="fill:#1f77b4;"/>
   </g>
   <g id="patch_95">
    <path clip-path="url(#pf69db376aa)" d="M 209.115448 273.312 
L 210.731612 273.312 
L 210.731612 63.233416 
L 209.115448 63.233416 
z
" style="fill:#1f77b4;"/>
   </g>
   <g id="patch_96">
    <path clip-path="url(#pf69db376aa)" d="M 210.731612 273.312 
L 212.347776 273.312 
L 212.347776 52.019257 
L 210.731612 52.019257 
z
" style="fill:#1f77b4;"/>
   </g>
   <g id="patch_97">
    <path clip-path="url(#pf69db376aa)" d="M 212.347776 273.312 
L 213.96394 273.312 
L 213.96394 35.571823 
L 212.347776 35.571823 
z
" style="fill:#1f77b4;"/>
   </g>
   <g id="patch_98">
    <path clip-path="url(#pf69db376aa)" d="M 213.96394 273.312 
L 215.580104 273.312 
L 215.580104 58.000142 
L 213.96394 58.000142 
z
" style="fill:#1f77b4;"/>
   </g>
   <g id="patch_99">
    <path clip-path="url(#pf69db376aa)" d="M 215.580104 273.312 
L 217.196267 273.312 
L 217.196267 41.552708 
L 215.580104 41.552708 
z
" style="fill:#1f77b4;"/>
   </g>
   <g id="patch_100">
    <path clip-path="url(#pf69db376aa)" d="M 217.196267 273.312 
L 218.812431 273.312 
L 218.812431 53.514478 
L 217.196267 53.514478 
z
" style="fill:#1f77b4;"/>
   </g>
   <g id="patch_101">
    <path clip-path="url(#pf69db376aa)" d="M 218.812431 273.312 
L 220.428595 273.312 
L 220.428595 41.552708 
L 218.812431 41.552708 
z
" style="fill:#1f77b4;"/>
   </g>
   <g id="patch_102">
    <path clip-path="url(#pf69db376aa)" d="M 220.428595 273.312 
L 222.044759 273.312 
L 222.044759 46.038372 
L 220.428595 46.038372 
z
" style="fill:#1f77b4;"/>
   </g>
   <g id="patch_103">
    <path clip-path="url(#pf69db376aa)" d="M 222.044759 273.312 
L 223.660923 273.312 
L 223.660923 27.348106 
L 222.044759 27.348106 
z
" style="fill:#1f77b4;"/>
   </g>
   <g id="patch_104">
    <path clip-path="url(#pf69db376aa)" d="M 223.660923 273.312 
L 225.277087 273.312 
L 225.277087 55.009699 
L 223.660923 55.009699 
z
" style="fill:#1f77b4;"/>
   </g>
   <g id="patch_105">
    <path clip-path="url(#pf69db376aa)" d="M 225.277087 273.312 
L 226.893251 273.312 
L 226.893251 30.338549 
L 225.277087 30.338549 
z
" style="fill:#1f77b4;"/>
   </g>
   <g id="patch_106">
    <path clip-path="url(#pf69db376aa)" d="M 226.893251 273.312 
L 228.509415 273.312 
L 228.509415 56.50492 
L 226.893251 56.50492 
z
" style="fill:#1f77b4;"/>
   </g>
   <g id="patch_107">
    <path clip-path="url(#pf69db376aa)" d="M 228.509415 273.312 
L 230.125579 273.312 
L 230.125579 43.79554 
L 228.509415 43.79554 
z
" style="fill:#1f77b4;"/>
   </g>
   <g id="patch_108">
    <path clip-path="url(#pf69db376aa)" d="M 230.125579 273.312 
L 231.741743 273.312 
L 231.741743 34.824212 
L 230.125579 34.824212 
z
" style="fill:#1f77b4;"/>
   </g>
   <g id="patch_109">
    <path clip-path="url(#pf69db376aa)" d="M 231.741743 273.312 
L 233.357907 273.312 
L 233.357907 43.79554 
L 231.741743 43.79554 
z
" style="fill:#1f77b4;"/>
   </g>
   <g id="patch_110">
    <path clip-path="url(#pf69db376aa)" d="M 233.357907 273.312 
L 234.974071 273.312 
L 234.974071 34.824212 
L 233.357907 34.824212 
z
" style="fill:#1f77b4;"/>
   </g>
   <g id="patch_111">
    <path clip-path="url(#pf69db376aa)" d="M 234.974071 273.312 
L 236.590235 273.312 
L 236.590235 33.328991 
L 234.974071 33.328991 
z
" style="fill:#1f77b4;"/>
   </g>
   <g id="patch_112">
    <path clip-path="url(#pf69db376aa)" d="M 236.590235 273.312 
L 238.206399 273.312 
L 238.206399 33.328991 
L 236.590235 33.328991 
z
" style="fill:#1f77b4;"/>
   </g>
   <g id="patch_113">
    <path clip-path="url(#pf69db376aa)" d="M 238.206399 273.312 
L 239.822563 273.312 
L 239.822563 47.533593 
L 238.206399 47.533593 
z
" style="fill:#1f77b4;"/>
   </g>
   <g id="patch_114">
    <path clip-path="url(#pf69db376aa)" d="M 239.822563 273.312 
L 241.438727 273.312 
L 241.438727 40.057487 
L 239.822563 40.057487 
z
" style="fill:#1f77b4;"/>
   </g>
   <g id="patch_115">
    <path clip-path="url(#pf69db376aa)" d="M 241.438727 273.312 
L 243.054891 273.312 
L 243.054891 32.581381 
L 241.438727 32.581381 
z
" style="fill:#1f77b4;"/>
   </g>
   <g id="patch_116">
    <path clip-path="url(#pf69db376aa)" d="M 243.054891 273.312 
L 244.671055 273.312 
L 244.671055 19.872 
L 243.054891 19.872 
z
" style="fill:#1f77b4;"/>
   </g>
   <g id="patch_117">
    <path clip-path="url(#pf69db376aa)" d="M 244.671055 273.312 
L 246.287219 273.312 
L 246.287219 27.348106 
L 244.671055 27.348106 
z
" style="fill:#1f77b4;"/>
   </g>
   <g id="patch_118">
    <path clip-path="url(#pf69db376aa)" d="M 246.287219 273.312 
L 247.903383 273.312 
L 247.903383 51.271646 
L 246.287219 51.271646 
z
" style="fill:#1f77b4;"/>
   </g>
   <g id="patch_119">
    <path clip-path="url(#pf69db376aa)" d="M 247.903383 273.312 
L 249.519547 273.312 
L 249.519547 28.095717 
L 247.903383 28.095717 
z
" style="fill:#1f77b4;"/>
   </g>
   <g id="patch_120">
    <path clip-path="url(#pf69db376aa)" d="M 249.519547 273.312 
L 251.135711 273.312 
L 251.135711 63.981027 
L 249.519547 63.981027 
z
" style="fill:#1f77b4;"/>
   </g>
   <g id="patch_121">
    <path clip-path="url(#pf69db376aa)" d="M 251.135711 273.312 
L 252.751875 273.312 
L 252.751875 46.785982 
L 251.135711 46.785982 
z
" style="fill:#1f77b4;"/>
   </g>
   <g id="patch_122">
    <path clip-path="url(#pf69db376aa)" d="M 252.751875 273.312 
L 254.368039 273.312 
L 254.368039 49.776425 
L 252.751875 49.776425 
z
" style="fill:#1f77b4;"/>
   </g>
   <g id="patch_123">
    <path clip-path="url(#pf69db376aa)" d="M 254.368039 273.312 
L 255.984203 273.312 
L 255.984203 72.952354 
L 254.368039 72.952354 
z
" style="fill:#1f77b4;"/>
   </g>
   <g id="patch_124">
    <path clip-path="url(#pf69db376aa)" d="M 255.984203 273.312 
L 257.600367 273.312 
L 257.600367 50.524035 
L 255.984203 50.524035 
z
" style="fill:#1f77b4;"/>
   </g>
   <g id="patch_125">
    <path clip-path="url(#pf69db376aa)" d="M 257.600367 273.312 
L 259.216531 273.312 
L 259.216531 37.814655 
L 257.600367 37.814655 
z
" style="fill:#1f77b4;"/>
   </g>
   <g id="patch_126">
    <path clip-path="url(#pf69db376aa)" d="M 259.216531 273.312 
L 260.832695 273.312 
L 260.832695 52.766867 
L 259.216531 52.766867 
z
" style="fill:#1f77b4;"/>
   </g>
   <g id="patch_127">
    <path clip-path="url(#pf69db376aa)" d="M 260.832695 273.312 
L 262.448859 273.312 
L 262.448859 54.262088 
L 260.832695 54.262088 
z
" style="fill:#1f77b4;"/>
   </g>
   <g id="patch_128">
    <path clip-path="url(#pf69db376aa)" d="M 262.448859 273.312 
L 264.065023 273.312 
L 264.065023 60.242973 
L 262.448859 60.242973 
z
" style="fill:#1f77b4;"/>
   </g>
   <g id="patch_129">
    <path clip-path="url(#pf69db376aa)" d="M 264.065023 273.312 
L 265.681187 273.312 
L 265.681187 54.262088 
L 264.065023 54.262088 
z
" style="fill:#1f77b4;"/>
   </g>
   <g id="patch_130">
    <path clip-path="url(#pf69db376aa)" d="M 265.681187 273.312 
L 267.297351 273.312 
L 267.297351 52.019257 
L 265.681187 52.019257 
z
" style="fill:#1f77b4;"/>
   </g>
   <g id="patch_131">
    <path clip-path="url(#pf69db376aa)" d="M 267.297351 273.312 
L 268.913515 273.312 
L 268.913515 47.533593 
L 267.297351 47.533593 
z
" style="fill:#1f77b4;"/>
   </g>
   <g id="patch_132">
    <path clip-path="url(#pf69db376aa)" d="M 268.913515 273.312 
L 270.529679 273.312 
L 270.529679 66.223858 
L 268.913515 66.223858 
z
" style="fill:#1f77b4;"/>
   </g>
   <g id="patch_133">
    <path clip-path="url(#pf69db376aa)" d="M 270.529679 273.312 
L 272.145843 273.312 
L 272.145843 79.68085 
L 270.529679 79.68085 
z
" style="fill:#1f77b4;"/>
   </g>
   <g id="patch_134">
    <path clip-path="url(#pf69db376aa)" d="M 272.145843 273.312 
L 273.762007 273.312 
L 273.762007 50.524035 
L 272.145843 50.524035 
z
" style="fill:#1f77b4;"/>
   </g>
   <g id="patch_135">
    <path clip-path="url(#pf69db376aa)" d="M 273.762007 273.312 
L 275.378171 273.312 
L 275.378171 68.46669 
L 273.762007 68.46669 
z
" style="fill:#1f77b4;"/>
   </g>
   <g id="patch_136">
    <path clip-path="url(#pf69db376aa)" d="M 275.378171 273.312 
L 276.994335 273.312 
L 276.994335 68.46669 
L 275.378171 68.46669 
z
" style="fill:#1f77b4;"/>
   </g>
   <g id="patch_137">
    <path clip-path="url(#pf69db376aa)" d="M 276.994335 273.312 
L 278.610499 273.312 
L 278.610499 69.214301 
L 276.994335 69.214301 
z
" style="fill:#1f77b4;"/>
   </g>
   <g id="patch_138">
    <path clip-path="url(#pf69db376aa)" d="M 278.610499 273.312 
L 280.226663 273.312 
L 280.226663 78.185628 
L 278.610499 78.185628 
z
" style="fill:#1f77b4;"/>
   </g>
   <g id="patch_139">
    <path clip-path="url(#pf69db376aa)" d="M 280.226663 273.312 
L 281.842827 273.312 
L 281.842827 91.642619 
L 280.226663 91.642619 
z
" style="fill:#1f77b4;"/>
   </g>
   <g id="patch_140">
    <path clip-path="url(#pf69db376aa)" d="M 281.842827 273.312 
L 283.458991 273.312 
L 283.458991 68.46669 
L 281.842827 68.46669 
z
" style="fill:#1f77b4;"/>
   </g>
   <g id="patch_141">
    <path clip-path="url(#pf69db376aa)" d="M 283.458991 273.312 
L 285.075155 273.312 
L 285.075155 76.690407 
L 283.458991 76.690407 
z
" style="fill:#1f77b4;"/>
   </g>
   <g id="patch_142">
    <path clip-path="url(#pf69db376aa)" d="M 285.075155 273.312 
L 286.691319 273.312 
L 286.691319 79.68085 
L 285.075155 79.68085 
z
" style="fill:#1f77b4;"/>
   </g>
   <g id="patch_143">
    <path clip-path="url(#pf69db376aa)" d="M 286.691319 273.312 
L 288.307483 273.312 
L 288.307483 102.109168 
L 286.691319 102.109168 
z
" style="fill:#1f77b4;"/>
   </g>
   <g id="patch_144">
    <path clip-path="url(#pf69db376aa)" d="M 288.307483 273.312 
L 289.923647 273.312 
L 289.923647 92.39023 
L 288.307483 92.39023 
z
" style="fill:#1f77b4;"/>
   </g>
   <g id="patch_145">
    <path clip-path="url(#pf69db376aa)" d="M 289.923647 273.312 
L 291.539811 273.312 
L 291.539811 106.594832 
L 289.923647 106.594832 
z
" style="fill:#1f77b4;"/>
   </g>
   <g id="patch_146">
    <path clip-path="url(#pf69db376aa)" d="M 291.539811 273.312 
L 293.155975 273.312 
L 293.155975 98.371115 
L 291.539811 98.371115 
z
" style="fill:#1f77b4;"/>
   </g>
   <g id="patch_147">
    <path clip-path="url(#pf69db376aa)" d="M 293.155975 273.312 
L 294.772139 273.312 
L 294.772139 74.447575 
L 293.155975 74.447575 
z
" style="fill:#1f77b4;"/>
   </g>
   <g id="patch_148">
    <path clip-path="url(#pf69db376aa)" d="M 294.772139 273.312 
L 296.388303 273.312 
L 296.388303 84.914124 
L 294.772139 84.914124 
z
" style="fill:#1f77b4;"/>
   </g>
   <g id="patch_149">
    <path clip-path="url(#pf69db376aa)" d="M 296.388303 273.312 
L 298.004467 273.312 
L 298.004467 99.866336 
L 296.388303 99.866336 
z
" style="fill:#1f77b4;"/>
   </g>
   <g id="patch_150">
    <path clip-path="url(#pf69db376aa)" d="M 298.004467 273.312 
L 299.620631 273.312 
L 299.620631 91.642619 
L 298.004467 91.642619 
z
" style="fill:#1f77b4;"/>
   </g>
   <g id="patch_151">
    <path clip-path="url(#pf69db376aa)" d="M 299.620631 273.312 
L 301.236795 273.312 
L 301.236795 105.099611 
L 299.620631 105.099611 
z
" style="fill:#1f77b4;"/>
   </g>
   <g id="patch_152">
    <path clip-path="url(#pf69db376aa)" d="M 301.236795 273.312 
L 302.852959 273.312 
L 302.852959 117.061381 
L 301.236795 117.061381 
z
" style="fill:#1f77b4;"/>
   </g>
   <g id="patch_153">
    <path clip-path="url(#pf69db376aa)" d="M 302.852959 273.312 
L 304.469123 273.312 
L 304.469123 108.090053 
L 302.852959 108.090053 
z
" style="fill:#1f77b4;"/>
   </g>
   <g id="patch_154">
    <path clip-path="url(#pf69db376aa)" d="M 304.469123 273.312 
L 306.085287 273.312 
L 306.085287 114.818549 
L 304.469123 114.818549 
z
" style="fill:#1f77b4;"/>
   </g>
   <g id="patch_155">
    <path clip-path="url(#pf69db376aa)" d="M 306.085287 273.312 
L 307.701451 273.312 
L 307.701451 115.566159 
L 306.085287 115.566159 
z
" style="fill:#1f77b4;"/>
   </g>
   <g id="patch_156">
    <path clip-path="url(#pf69db376aa)" d="M 307.701451 273.312 
L 309.317615 273.312 
L 309.317615 131.265982 
L 307.701451 131.265982 
z
" style="fill:#1f77b4;"/>
   </g>
   <g id="patch_157">
    <path clip-path="url(#pf69db376aa)" d="M 309.317615 273.312 
L 310.933779 273.312 
L 310.933779 113.323327 
L 309.317615 113.323327 
z
" style="fill:#1f77b4;"/>
   </g>
   <g id="patch_158">
    <path clip-path="url(#pf69db376aa)" d="M 310.933779 273.312 
L 312.549943 273.312 
L 312.549943 131.265982 
L 310.933779 131.265982 
z
" style="fill:#1f77b4;"/>
   </g>
   <g id="patch_159">
    <path clip-path="url(#pf69db376aa)" d="M 312.549943 273.312 
L 314.166107 273.312 
L 314.166107 127.527929 
L 312.549943 127.527929 
z
" style="fill:#1f77b4;"/>
   </g>
   <g id="patch_160">
    <path clip-path="url(#pf69db376aa)" d="M 314.166107 273.312 
L 315.782271 273.312 
L 315.782271 131.265982 
L 314.166107 131.265982 
z
" style="fill:#1f77b4;"/>
   </g>
   <g id="patch_161">
    <path clip-path="url(#pf69db376aa)" d="M 315.782271 273.312 
L 317.398435 273.312 
L 317.398435 119.304212 
L 315.782271 119.304212 
z
" style="fill:#1f77b4;"/>
   </g>
   <g id="patch_162">
    <path clip-path="url(#pf69db376aa)" d="M 317.398435 273.312 
L 319.014599 273.312 
L 319.014599 144.722973 
L 317.398435 144.722973 
z
" style="fill:#1f77b4;"/>
   </g>
   <g id="patch_163">
    <path clip-path="url(#pf69db376aa)" d="M 319.014599 273.312 
L 320.630763 273.312 
L 320.630763 113.323327 
L 319.014599 113.323327 
z
" style="fill:#1f77b4;"/>
   </g>
   <g id="patch_164">
    <path clip-path="url(#pf69db376aa)" d="M 320.630763 273.312 
L 322.246927 273.312 
L 322.246927 136.499257 
L 320.630763 136.499257 
z
" style="fill:#1f77b4;"/>
   </g>
   <g id="patch_165">
    <path clip-path="url(#pf69db376aa)" d="M 322.246927 273.312 
L 323.863091 273.312 
L 323.863091 156.684743 
L 322.246927 156.684743 
z
" style="fill:#1f77b4;"/>
   </g>
   <g id="patch_166">
    <path clip-path="url(#pf69db376aa)" d="M 323.863091 273.312 
L 325.479255 273.312 
L 325.479255 143.975363 
L 323.863091 143.975363 
z
" style="fill:#1f77b4;"/>
   </g>
   <g id="patch_167">
    <path clip-path="url(#pf69db376aa)" d="M 325.479255 273.312 
L 327.095418 273.312 
L 327.095418 128.27554 
L 325.479255 128.27554 
z
" style="fill:#1f77b4;"/>
   </g>
   <g id="patch_168">
    <path clip-path="url(#pf69db376aa)" d="M 327.095418 273.312 
L 328.711582 273.312 
L 328.711582 146.218195 
L 327.095418 146.218195 
z
" style="fill:#1f77b4;"/>
   </g>
   <g id="patch_169">
    <path clip-path="url(#pf69db376aa)" d="M 328.711582 273.312 
L 330.327746 273.312 
L 330.327746 161.170407 
L 328.711582 161.170407 
z
" style="fill:#1f77b4;"/>
   </g>
   <g id="patch_170">
    <path clip-path="url(#pf69db376aa)" d="M 330.327746 273.312 
L 331.94391 273.312 
L 331.94391 157.432354 
L 330.327746 157.432354 
z
" style="fill:#1f77b4;"/>
   </g>
   <g id="patch_171">
    <path clip-path="url(#pf69db376aa)" d="M 331.94391 273.312 
L 333.560074 273.312 
L 333.560074 175.375009 
L 331.94391 175.375009 
z
" style="fill:#1f77b4;"/>
   </g>
   <g id="patch_172">
    <path clip-path="url(#pf69db376aa)" d="M 333.560074 273.312 
L 335.176238 273.312 
L 335.176238 167.898903 
L 333.560074 167.898903 
z
" style="fill:#1f77b4;"/>
   </g>
   <g id="patch_173">
    <path clip-path="url(#pf69db376aa)" d="M 335.176238 273.312 
L 336.792402 273.312 
L 336.792402 157.432354 
L 335.176238 157.432354 
z
" style="fill:#1f77b4;"/>
   </g>
   <g id="patch_174">
    <path clip-path="url(#pf69db376aa)" d="M 336.792402 273.312 
L 338.408566 273.312 
L 338.408566 162.665628 
L 336.792402 162.665628 
z
" style="fill:#1f77b4;"/>
   </g>
   <g id="patch_175">
    <path clip-path="url(#pf69db376aa)" d="M 338.408566 273.312 
L 340.02473 273.312 
L 340.02473 161.918018 
L 338.408566 161.918018 
z
" style="fill:#1f77b4;"/>
   </g>
   <g id="patch_176">
    <path clip-path="url(#pf69db376aa)" d="M 340.02473 273.312 
L 341.640894 273.312 
L 341.640894 167.898903 
L 340.02473 167.898903 
z
" style="fill:#1f77b4;"/>
   </g>
   <g id="patch_177">
    <path clip-path="url(#pf69db376aa)" d="M 341.640894 273.312 
L 343.257058 273.312 
L 343.257058 179.113062 
L 341.640894 179.113062 
z
" style="fill:#1f77b4;"/>
   </g>
   <g id="patch_178">
    <path clip-path="url(#pf69db376aa)" d="M 343.257058 273.312 
L 344.873222 273.312 
L 344.873222 173.132177 
L 343.257058 173.132177 
z
" style="fill:#1f77b4;"/>
   </g>
   <g id="patch_179">
    <path clip-path="url(#pf69db376aa)" d="M 344.873222 273.312 
L 346.489386 273.312 
L 346.489386 200.046159 
L 344.873222 200.046159 
z
" style="fill:#1f77b4;"/>
   </g>
   <g id="patch_180">
    <path clip-path="url(#pf69db376aa)" d="M 346.489386 273.312 
L 348.10555 273.312 
L 348.10555 179.860673 
L 346.489386 179.860673 
z
" style="fill:#1f77b4;"/>
   </g>
   <g id="patch_181">
    <path clip-path="url(#pf69db376aa)" d="M 348.10555 273.312 
L 349.721714 273.312 
L 349.721714 207.522265 
L 348.10555 207.522265 
z
" style="fill:#1f77b4;"/>
   </g>
   <g id="patch_182">
    <path clip-path="url(#pf69db376aa)" d="M 349.721714 273.312 
L 351.337878 273.312 
L 351.337878 182.851115 
L 349.721714 182.851115 
z
" style="fill:#1f77b4;"/>
   </g>
   <g id="patch_183">
    <path clip-path="url(#pf69db376aa)" d="M 351.337878 273.312 
L 352.954042 273.312 
L 352.954042 201.541381 
L 351.337878 201.541381 
z
" style="fill:#1f77b4;"/>
   </g>
   <g id="patch_184">
    <path clip-path="url(#pf69db376aa)" d="M 352.954042 273.312 
L 354.570206 273.312 
L 354.570206 194.065274 
L 352.954042 194.065274 
z
" style="fill:#1f77b4;"/>
   </g>
   <g id="patch_185">
    <path clip-path="url(#pf69db376aa)" d="M 354.570206 273.312 
L 356.18637 273.312 
L 356.18637 191.822442 
L 354.570206 191.822442 
z
" style="fill:#1f77b4;"/>
   </g>
   <g id="patch_186">
    <path clip-path="url(#pf69db376aa)" d="M 356.18637 273.312 
L 357.802534 273.312 
L 357.802534 219.484035 
L 356.18637 219.484035 
z
" style="fill:#1f77b4;"/>
   </g>
   <g id="patch_187">
    <path clip-path="url(#pf69db376aa)" d="M 357.802534 273.312 
L 359.418698 273.312 
L 359.418698 214.250761 
L 357.802534 214.250761 
z
" style="fill:#1f77b4;"/>
   </g>
   <g id="patch_188">
    <path clip-path="url(#pf69db376aa)" d="M 359.418698 273.312 
L 361.034862 273.312 
L 361.034862 212.007929 
L 359.418698 212.007929 
z
" style="fill:#1f77b4;"/>
   </g>
   <g id="patch_189">
    <path clip-path="url(#pf69db376aa)" d="M 361.034862 273.312 
L 362.651026 273.312 
L 362.651026 223.222088 
L 361.034862 223.222088 
z
" style="fill:#1f77b4;"/>
   </g>
   <g id="patch_190">
    <path clip-path="url(#pf69db376aa)" d="M 362.651026 273.312 
L 364.26719 273.312 
L 364.26719 209.765097 
L 362.651026 209.765097 
z
" style="fill:#1f77b4;"/>
   </g>
   <g id="patch_191">
    <path clip-path="url(#pf69db376aa)" d="M 364.26719 273.312 
L 365.883354 273.312 
L 365.883354 232.941027 
L 364.26719 232.941027 
z
" style="fill:#1f77b4;"/>
   </g>
   <g id="patch_192">
    <path clip-path="url(#pf69db376aa)" d="M 365.883354 273.312 
L 367.499518 273.312 
L 367.499518 229.950584 
L 365.883354 229.950584 
z
" style="fill:#1f77b4;"/>
   </g>
   <g id="patch_193">
    <path clip-path="url(#pf69db376aa)" d="M 367.499518 273.312 
L 369.115682 273.312 
L 369.115682 245.650407 
L 367.499518 245.650407 
z
" style="fill:#1f77b4;"/>
   </g>
   <g id="patch_194">
    <path clip-path="url(#pf69db376aa)" d="M 369.115682 273.312 
L 370.731846 273.312 
L 370.731846 241.164743 
L 369.115682 241.164743 
z
" style="fill:#1f77b4;"/>
   </g>
   <g id="patch_195">
    <path clip-path="url(#pf69db376aa)" d="M 370.731846 273.312 
L 372.34801 273.312 
L 372.34801 250.883681 
L 370.731846 250.883681 
z
" style="fill:#1f77b4;"/>
   </g>
   <g id="patch_196">
    <path clip-path="url(#pf69db376aa)" d="M 372.34801 273.312 
L 373.964174 273.312 
L 373.964174 253.126513 
L 372.34801 253.126513 
z
" style="fill:#1f77b4;"/>
   </g>
   <g id="patch_197">
    <path clip-path="url(#pf69db376aa)" d="M 373.964174 273.312 
L 375.580338 273.312 
L 375.580338 248.64085 
L 373.964174 248.64085 
z
" style="fill:#1f77b4;"/>
   </g>
   <g id="patch_198">
    <path clip-path="url(#pf69db376aa)" d="M 375.580338 273.312 
L 377.196502 273.312 
L 377.196502 259.855009 
L 375.580338 259.855009 
z
" style="fill:#1f77b4;"/>
   </g>
   <g id="patch_199">
    <path clip-path="url(#pf69db376aa)" d="M 377.196502 273.312 
L 378.812666 273.312 
L 378.812666 256.116956 
L 377.196502 256.116956 
z
" style="fill:#1f77b4;"/>
   </g>
   <g id="patch_200">
    <path clip-path="url(#pf69db376aa)" d="M 378.812666 273.312 
L 380.42883 273.312 
L 380.42883 262.097841 
L 378.812666 262.097841 
z
" style="fill:#1f77b4;"/>
   </g>
   <g id="patch_201">
    <path clip-path="url(#pf69db376aa)" d="M 380.42883 273.312 
L 382.044994 273.312 
L 382.044994 268.078726 
L 380.42883 268.078726 
z
" style="fill:#1f77b4;"/>
   </g>
   <g id="patch_202">
    <path clip-path="url(#pf69db376aa)" d="M 382.044994 273.312 
L 383.661158 273.312 
L 383.661158 268.826336 
L 382.044994 268.826336 
z
" style="fill:#1f77b4;"/>
   </g>
   <g id="matplotlib.axis_1">
    <g id="xtick_1">
     <g id="line2d_1">
      <defs>
       <path d="M 0 0 
L 0 3.5 
" id="m2e1fac5824" style="stroke:#000000;stroke-width:0.8;"/>
      </defs>
      <g>
       <use style="stroke:#000000;stroke-width:0.8;" x="60.013977" xlink:href="#m2e1fac5824" y="273.312"/>
      </g>
     </g>
     <g id="text_1">
      <!-- 0.0 -->
      <g transform="translate(52.062415 287.910437)scale(0.1 -0.1)">
       <defs>
        <path d="M 2034 4250 
Q 1547 4250 1301 3770 
Q 1056 3291 1056 2328 
Q 1056 1369 1301 889 
Q 1547 409 2034 409 
Q 2525 409 2770 889 
Q 3016 1369 3016 2328 
Q 3016 3291 2770 3770 
Q 2525 4250 2034 4250 
z
M 2034 4750 
Q 2819 4750 3233 4129 
Q 3647 3509 3647 2328 
Q 3647 1150 3233 529 
Q 2819 -91 2034 -91 
Q 1250 -91 836 529 
Q 422 1150 422 2328 
Q 422 3509 836 4129 
Q 1250 4750 2034 4750 
z
" id="DejaVuSans-30" transform="scale(0.015625)"/>
        <path d="M 684 794 
L 1344 794 
L 1344 0 
L 684 0 
L 684 794 
z
" id="DejaVuSans-2e" transform="scale(0.015625)"/>
       </defs>
       <use xlink:href="#DejaVuSans-30"/>
       <use x="63.623047" xlink:href="#DejaVuSans-2e"/>
       <use x="95.410156" xlink:href="#DejaVuSans-30"/>
      </g>
     </g>
    </g>
    <g id="xtick_2">
     <g id="line2d_2">
      <g>
       <use style="stroke:#000000;stroke-width:0.8;" x="101.350278" xlink:href="#m2e1fac5824" y="273.312"/>
      </g>
     </g>
     <g id="text_2">
      <!-- 0.2 -->
      <g transform="translate(93.398715 287.910437)scale(0.1 -0.1)">
       <defs>
        <path d="M 1228 531 
L 3431 531 
L 3431 0 
L 469 0 
L 469 531 
Q 828 903 1448 1529 
Q 2069 2156 2228 2338 
Q 2531 2678 2651 2914 
Q 2772 3150 2772 3378 
Q 2772 3750 2511 3984 
Q 2250 4219 1831 4219 
Q 1534 4219 1204 4116 
Q 875 4013 500 3803 
L 500 4441 
Q 881 4594 1212 4672 
Q 1544 4750 1819 4750 
Q 2544 4750 2975 4387 
Q 3406 4025 3406 3419 
Q 3406 3131 3298 2873 
Q 3191 2616 2906 2266 
Q 2828 2175 2409 1742 
Q 1991 1309 1228 531 
z
" id="DejaVuSans-32" transform="scale(0.015625)"/>
       </defs>
       <use xlink:href="#DejaVuSans-30"/>
       <use x="63.623047" xlink:href="#DejaVuSans-2e"/>
       <use x="95.410156" xlink:href="#DejaVuSans-32"/>
      </g>
     </g>
    </g>
    <g id="xtick_3">
     <g id="line2d_3">
      <g>
       <use style="stroke:#000000;stroke-width:0.8;" x="142.686578" xlink:href="#m2e1fac5824" y="273.312"/>
      </g>
     </g>
     <g id="text_3">
      <!-- 0.4 -->
      <g transform="translate(134.735016 287.910437)scale(0.1 -0.1)">
       <defs>
        <path d="M 2419 4116 
L 825 1625 
L 2419 1625 
L 2419 4116 
z
M 2253 4666 
L 3047 4666 
L 3047 1625 
L 3713 1625 
L 3713 1100 
L 3047 1100 
L 3047 0 
L 2419 0 
L 2419 1100 
L 313 1100 
L 313 1709 
L 2253 4666 
z
" id="DejaVuSans-34" transform="scale(0.015625)"/>
       </defs>
       <use xlink:href="#DejaVuSans-30"/>
       <use x="63.623047" xlink:href="#DejaVuSans-2e"/>
       <use x="95.410156" xlink:href="#DejaVuSans-34"/>
      </g>
     </g>
    </g>
    <g id="xtick_4">
     <g id="line2d_4">
      <g>
       <use style="stroke:#000000;stroke-width:0.8;" x="184.022879" xlink:href="#m2e1fac5824" y="273.312"/>
      </g>
     </g>
     <g id="text_4">
      <!-- 0.6 -->
      <g transform="translate(176.071316 287.910437)scale(0.1 -0.1)">
       <defs>
        <path d="M 2113 2584 
Q 1688 2584 1439 2293 
Q 1191 2003 1191 1497 
Q 1191 994 1439 701 
Q 1688 409 2113 409 
Q 2538 409 2786 701 
Q 3034 994 3034 1497 
Q 3034 2003 2786 2293 
Q 2538 2584 2113 2584 
z
M 3366 4563 
L 3366 3988 
Q 3128 4100 2886 4159 
Q 2644 4219 2406 4219 
Q 1781 4219 1451 3797 
Q 1122 3375 1075 2522 
Q 1259 2794 1537 2939 
Q 1816 3084 2150 3084 
Q 2853 3084 3261 2657 
Q 3669 2231 3669 1497 
Q 3669 778 3244 343 
Q 2819 -91 2113 -91 
Q 1303 -91 875 529 
Q 447 1150 447 2328 
Q 447 3434 972 4092 
Q 1497 4750 2381 4750 
Q 2619 4750 2861 4703 
Q 3103 4656 3366 4563 
z
" id="DejaVuSans-36" transform="scale(0.015625)"/>
       </defs>
       <use xlink:href="#DejaVuSans-30"/>
       <use x="63.623047" xlink:href="#DejaVuSans-2e"/>
       <use x="95.410156" xlink:href="#DejaVuSans-36"/>
      </g>
     </g>
    </g>
    <g id="xtick_5">
     <g id="line2d_5">
      <g>
       <use style="stroke:#000000;stroke-width:0.8;" x="225.35918" xlink:href="#m2e1fac5824" y="273.312"/>
      </g>
     </g>
     <g id="text_5">
      <!-- 0.8 -->
      <g transform="translate(217.407617 287.910437)scale(0.1 -0.1)">
       <defs>
        <path d="M 2034 2216 
Q 1584 2216 1326 1975 
Q 1069 1734 1069 1313 
Q 1069 891 1326 650 
Q 1584 409 2034 409 
Q 2484 409 2743 651 
Q 3003 894 3003 1313 
Q 3003 1734 2745 1975 
Q 2488 2216 2034 2216 
z
M 1403 2484 
Q 997 2584 770 2862 
Q 544 3141 544 3541 
Q 544 4100 942 4425 
Q 1341 4750 2034 4750 
Q 2731 4750 3128 4425 
Q 3525 4100 3525 3541 
Q 3525 3141 3298 2862 
Q 3072 2584 2669 2484 
Q 3125 2378 3379 2068 
Q 3634 1759 3634 1313 
Q 3634 634 3220 271 
Q 2806 -91 2034 -91 
Q 1263 -91 848 271 
Q 434 634 434 1313 
Q 434 1759 690 2068 
Q 947 2378 1403 2484 
z
M 1172 3481 
Q 1172 3119 1398 2916 
Q 1625 2713 2034 2713 
Q 2441 2713 2670 2916 
Q 2900 3119 2900 3481 
Q 2900 3844 2670 4047 
Q 2441 4250 2034 4250 
Q 1625 4250 1398 4047 
Q 1172 3844 1172 3481 
z
" id="DejaVuSans-38" transform="scale(0.015625)"/>
       </defs>
       <use xlink:href="#DejaVuSans-30"/>
       <use x="63.623047" xlink:href="#DejaVuSans-2e"/>
       <use x="95.410156" xlink:href="#DejaVuSans-38"/>
      </g>
     </g>
    </g>
    <g id="xtick_6">
     <g id="line2d_6">
      <g>
       <use style="stroke:#000000;stroke-width:0.8;" x="266.69548" xlink:href="#m2e1fac5824" y="273.312"/>
      </g>
     </g>
     <g id="text_6">
      <!-- 1.0 -->
      <g transform="translate(258.743918 287.910437)scale(0.1 -0.1)">
       <defs>
        <path d="M 794 531 
L 1825 531 
L 1825 4091 
L 703 3866 
L 703 4441 
L 1819 4666 
L 2450 4666 
L 2450 531 
L 3481 531 
L 3481 0 
L 794 0 
L 794 531 
z
" id="DejaVuSans-31" transform="scale(0.015625)"/>
       </defs>
       <use xlink:href="#DejaVuSans-31"/>
       <use x="63.623047" xlink:href="#DejaVuSans-2e"/>
       <use x="95.410156" xlink:href="#DejaVuSans-30"/>
      </g>
     </g>
    </g>
    <g id="xtick_7">
     <g id="line2d_7">
      <g>
       <use style="stroke:#000000;stroke-width:0.8;" x="308.031781" xlink:href="#m2e1fac5824" y="273.312"/>
      </g>
     </g>
     <g id="text_7">
      <!-- 1.2 -->
      <g transform="translate(300.080218 287.910437)scale(0.1 -0.1)">
       <use xlink:href="#DejaVuSans-31"/>
       <use x="63.623047" xlink:href="#DejaVuSans-2e"/>
       <use x="95.410156" xlink:href="#DejaVuSans-32"/>
      </g>
     </g>
    </g>
    <g id="xtick_8">
     <g id="line2d_8">
      <g>
       <use style="stroke:#000000;stroke-width:0.8;" x="349.368081" xlink:href="#m2e1fac5824" y="273.312"/>
      </g>
     </g>
     <g id="text_8">
      <!-- 1.4 -->
      <g transform="translate(341.416519 287.910437)scale(0.1 -0.1)">
       <use xlink:href="#DejaVuSans-31"/>
       <use x="63.623047" xlink:href="#DejaVuSans-2e"/>
       <use x="95.410156" xlink:href="#DejaVuSans-34"/>
      </g>
     </g>
    </g>
    <g id="xtick_9">
     <g id="line2d_9">
      <g>
       <use style="stroke:#000000;stroke-width:0.8;" x="390.704382" xlink:href="#m2e1fac5824" y="273.312"/>
      </g>
     </g>
     <g id="text_9">
      <!-- 1.6 -->
      <g transform="translate(382.752819 287.910437)scale(0.1 -0.1)">
       <use xlink:href="#DejaVuSans-31"/>
       <use x="63.623047" xlink:href="#DejaVuSans-2e"/>
       <use x="95.410156" xlink:href="#DejaVuSans-36"/>
      </g>
     </g>
    </g>
    <g id="text_10">
     <!-- Angle with normal (rad) -->
     <g transform="translate(163.023281 301.588562)scale(0.1 -0.1)">
      <defs>
       <path d="M 2188 4044 
L 1331 1722 
L 3047 1722 
L 2188 4044 
z
M 1831 4666 
L 2547 4666 
L 4325 0 
L 3669 0 
L 3244 1197 
L 1141 1197 
L 716 0 
L 50 0 
L 1831 4666 
z
" id="DejaVuSans-41" transform="scale(0.015625)"/>
       <path d="M 3513 2113 
L 3513 0 
L 2938 0 
L 2938 2094 
Q 2938 2591 2744 2837 
Q 2550 3084 2163 3084 
Q 1697 3084 1428 2787 
Q 1159 2491 1159 1978 
L 1159 0 
L 581 0 
L 581 3500 
L 1159 3500 
L 1159 2956 
Q 1366 3272 1645 3428 
Q 1925 3584 2291 3584 
Q 2894 3584 3203 3211 
Q 3513 2838 3513 2113 
z
" id="DejaVuSans-6e" transform="scale(0.015625)"/>
       <path d="M 2906 1791 
Q 2906 2416 2648 2759 
Q 2391 3103 1925 3103 
Q 1463 3103 1205 2759 
Q 947 2416 947 1791 
Q 947 1169 1205 825 
Q 1463 481 1925 481 
Q 2391 481 2648 825 
Q 2906 1169 2906 1791 
z
M 3481 434 
Q 3481 -459 3084 -895 
Q 2688 -1331 1869 -1331 
Q 1566 -1331 1297 -1286 
Q 1028 -1241 775 -1147 
L 775 -588 
Q 1028 -725 1275 -790 
Q 1522 -856 1778 -856 
Q 2344 -856 2625 -561 
Q 2906 -266 2906 331 
L 2906 616 
Q 2728 306 2450 153 
Q 2172 0 1784 0 
Q 1141 0 747 490 
Q 353 981 353 1791 
Q 353 2603 747 3093 
Q 1141 3584 1784 3584 
Q 2172 3584 2450 3431 
Q 2728 3278 2906 2969 
L 2906 3500 
L 3481 3500 
L 3481 434 
z
" id="DejaVuSans-67" transform="scale(0.015625)"/>
       <path d="M 603 4863 
L 1178 4863 
L 1178 0 
L 603 0 
L 603 4863 
z
" id="DejaVuSans-6c" transform="scale(0.015625)"/>
       <path d="M 3597 1894 
L 3597 1613 
L 953 1613 
Q 991 1019 1311 708 
Q 1631 397 2203 397 
Q 2534 397 2845 478 
Q 3156 559 3463 722 
L 3463 178 
Q 3153 47 2828 -22 
Q 2503 -91 2169 -91 
Q 1331 -91 842 396 
Q 353 884 353 1716 
Q 353 2575 817 3079 
Q 1281 3584 2069 3584 
Q 2775 3584 3186 3129 
Q 3597 2675 3597 1894 
z
M 3022 2063 
Q 3016 2534 2758 2815 
Q 2500 3097 2075 3097 
Q 1594 3097 1305 2825 
Q 1016 2553 972 2059 
L 3022 2063 
z
" id="DejaVuSans-65" transform="scale(0.015625)"/>
       <path id="DejaVuSans-20" transform="scale(0.015625)"/>
       <path d="M 269 3500 
L 844 3500 
L 1563 769 
L 2278 3500 
L 2956 3500 
L 3675 769 
L 4391 3500 
L 4966 3500 
L 4050 0 
L 3372 0 
L 2619 2869 
L 1863 0 
L 1184 0 
L 269 3500 
z
" id="DejaVuSans-77" transform="scale(0.015625)"/>
       <path d="M 603 3500 
L 1178 3500 
L 1178 0 
L 603 0 
L 603 3500 
z
M 603 4863 
L 1178 4863 
L 1178 4134 
L 603 4134 
L 603 4863 
z
" id="DejaVuSans-69" transform="scale(0.015625)"/>
       <path d="M 1172 4494 
L 1172 3500 
L 2356 3500 
L 2356 3053 
L 1172 3053 
L 1172 1153 
Q 1172 725 1289 603 
Q 1406 481 1766 481 
L 2356 481 
L 2356 0 
L 1766 0 
Q 1100 0 847 248 
Q 594 497 594 1153 
L 594 3053 
L 172 3053 
L 172 3500 
L 594 3500 
L 594 4494 
L 1172 4494 
z
" id="DejaVuSans-74" transform="scale(0.015625)"/>
       <path d="M 3513 2113 
L 3513 0 
L 2938 0 
L 2938 2094 
Q 2938 2591 2744 2837 
Q 2550 3084 2163 3084 
Q 1697 3084 1428 2787 
Q 1159 2491 1159 1978 
L 1159 0 
L 581 0 
L 581 4863 
L 1159 4863 
L 1159 2956 
Q 1366 3272 1645 3428 
Q 1925 3584 2291 3584 
Q 2894 3584 3203 3211 
Q 3513 2838 3513 2113 
z
" id="DejaVuSans-68" transform="scale(0.015625)"/>
       <path d="M 1959 3097 
Q 1497 3097 1228 2736 
Q 959 2375 959 1747 
Q 959 1119 1226 758 
Q 1494 397 1959 397 
Q 2419 397 2687 759 
Q 2956 1122 2956 1747 
Q 2956 2369 2687 2733 
Q 2419 3097 1959 3097 
z
M 1959 3584 
Q 2709 3584 3137 3096 
Q 3566 2609 3566 1747 
Q 3566 888 3137 398 
Q 2709 -91 1959 -91 
Q 1206 -91 779 398 
Q 353 888 353 1747 
Q 353 2609 779 3096 
Q 1206 3584 1959 3584 
z
" id="DejaVuSans-6f" transform="scale(0.015625)"/>
       <path d="M 2631 2963 
Q 2534 3019 2420 3045 
Q 2306 3072 2169 3072 
Q 1681 3072 1420 2755 
Q 1159 2438 1159 1844 
L 1159 0 
L 581 0 
L 581 3500 
L 1159 3500 
L 1159 2956 
Q 1341 3275 1631 3429 
Q 1922 3584 2338 3584 
Q 2397 3584 2469 3576 
Q 2541 3569 2628 3553 
L 2631 2963 
z
" id="DejaVuSans-72" transform="scale(0.015625)"/>
       <path d="M 3328 2828 
Q 3544 3216 3844 3400 
Q 4144 3584 4550 3584 
Q 5097 3584 5394 3201 
Q 5691 2819 5691 2113 
L 5691 0 
L 5113 0 
L 5113 2094 
Q 5113 2597 4934 2840 
Q 4756 3084 4391 3084 
Q 3944 3084 3684 2787 
Q 3425 2491 3425 1978 
L 3425 0 
L 2847 0 
L 2847 2094 
Q 2847 2600 2669 2842 
Q 2491 3084 2119 3084 
Q 1678 3084 1418 2786 
Q 1159 2488 1159 1978 
L 1159 0 
L 581 0 
L 581 3500 
L 1159 3500 
L 1159 2956 
Q 1356 3278 1631 3431 
Q 1906 3584 2284 3584 
Q 2666 3584 2933 3390 
Q 3200 3197 3328 2828 
z
" id="DejaVuSans-6d" transform="scale(0.015625)"/>
       <path d="M 2194 1759 
Q 1497 1759 1228 1600 
Q 959 1441 959 1056 
Q 959 750 1161 570 
Q 1363 391 1709 391 
Q 2188 391 2477 730 
Q 2766 1069 2766 1631 
L 2766 1759 
L 2194 1759 
z
M 3341 1997 
L 3341 0 
L 2766 0 
L 2766 531 
Q 2569 213 2275 61 
Q 1981 -91 1556 -91 
Q 1019 -91 701 211 
Q 384 513 384 1019 
Q 384 1609 779 1909 
Q 1175 2209 1959 2209 
L 2766 2209 
L 2766 2266 
Q 2766 2663 2505 2880 
Q 2244 3097 1772 3097 
Q 1472 3097 1187 3025 
Q 903 2953 641 2809 
L 641 3341 
Q 956 3463 1253 3523 
Q 1550 3584 1831 3584 
Q 2591 3584 2966 3190 
Q 3341 2797 3341 1997 
z
" id="DejaVuSans-61" transform="scale(0.015625)"/>
       <path d="M 1984 4856 
Q 1566 4138 1362 3434 
Q 1159 2731 1159 2009 
Q 1159 1288 1364 580 
Q 1569 -128 1984 -844 
L 1484 -844 
Q 1016 -109 783 600 
Q 550 1309 550 2009 
Q 550 2706 781 3412 
Q 1013 4119 1484 4856 
L 1984 4856 
z
" id="DejaVuSans-28" transform="scale(0.015625)"/>
       <path d="M 2906 2969 
L 2906 4863 
L 3481 4863 
L 3481 0 
L 2906 0 
L 2906 525 
Q 2725 213 2448 61 
Q 2172 -91 1784 -91 
Q 1150 -91 751 415 
Q 353 922 353 1747 
Q 353 2572 751 3078 
Q 1150 3584 1784 3584 
Q 2172 3584 2448 3432 
Q 2725 3281 2906 2969 
z
M 947 1747 
Q 947 1113 1208 752 
Q 1469 391 1925 391 
Q 2381 391 2643 752 
Q 2906 1113 2906 1747 
Q 2906 2381 2643 2742 
Q 2381 3103 1925 3103 
Q 1469 3103 1208 2742 
Q 947 2381 947 1747 
z
" id="DejaVuSans-64" transform="scale(0.015625)"/>
       <path d="M 513 4856 
L 1013 4856 
Q 1481 4119 1714 3412 
Q 1947 2706 1947 2009 
Q 1947 1309 1714 600 
Q 1481 -109 1013 -844 
L 513 -844 
Q 928 -128 1133 580 
Q 1338 1288 1338 2009 
Q 1338 2731 1133 3434 
Q 928 4138 513 4856 
z
" id="DejaVuSans-29" transform="scale(0.015625)"/>
      </defs>
      <use xlink:href="#DejaVuSans-41"/>
      <use x="68.408203" xlink:href="#DejaVuSans-6e"/>
      <use x="131.787109" xlink:href="#DejaVuSans-67"/>
      <use x="195.263672" xlink:href="#DejaVuSans-6c"/>
      <use x="223.046875" xlink:href="#DejaVuSans-65"/>
      <use x="284.570312" xlink:href="#DejaVuSans-20"/>
      <use x="316.357422" xlink:href="#DejaVuSans-77"/>
      <use x="398.144531" xlink:href="#DejaVuSans-69"/>
      <use x="425.927734" xlink:href="#DejaVuSans-74"/>
      <use x="465.136719" xlink:href="#DejaVuSans-68"/>
      <use x="528.515625" xlink:href="#DejaVuSans-20"/>
      <use x="560.302734" xlink:href="#DejaVuSans-6e"/>
      <use x="623.681641" xlink:href="#DejaVuSans-6f"/>
      <use x="684.863281" xlink:href="#DejaVuSans-72"/>
      <use x="724.226562" xlink:href="#DejaVuSans-6d"/>
      <use x="821.638672" xlink:href="#DejaVuSans-61"/>
      <use x="882.917969" xlink:href="#DejaVuSans-6c"/>
      <use x="910.701172" xlink:href="#DejaVuSans-20"/>
      <use x="942.488281" xlink:href="#DejaVuSans-28"/>
      <use x="981.501953" xlink:href="#DejaVuSans-72"/>
      <use x="1022.615234" xlink:href="#DejaVuSans-61"/>
      <use x="1083.894531" xlink:href="#DejaVuSans-64"/>
      <use x="1147.371094" xlink:href="#DejaVuSans-29"/>
     </g>
    </g>
   </g>
   <g id="matplotlib.axis_2">
    <g id="ytick_1">
     <g id="line2d_10">
      <defs>
       <path d="M 0 0 
L -3.5 0 
" id="m89255dc4d5" style="stroke:#000000;stroke-width:0.8;"/>
      </defs>
      <g>
       <use style="stroke:#000000;stroke-width:0.8;" x="43.78125" xlink:href="#m89255dc4d5" y="273.312"/>
      </g>
     </g>
     <g id="text_11">
      <!-- 0.0 -->
      <g transform="translate(20.878125 277.111219)scale(0.1 -0.1)">
       <use xlink:href="#DejaVuSans-30"/>
       <use x="63.623047" xlink:href="#DejaVuSans-2e"/>
       <use x="95.410156" xlink:href="#DejaVuSans-30"/>
      </g>
     </g>
    </g>
    <g id="ytick_2">
     <g id="line2d_11">
      <g>
       <use style="stroke:#000000;stroke-width:0.8;" x="43.78125" xlink:href="#m89255dc4d5" y="226.54395"/>
      </g>
     </g>
     <g id="text_12">
      <!-- 0.2 -->
      <g transform="translate(20.878125 230.343169)scale(0.1 -0.1)">
       <use xlink:href="#DejaVuSans-30"/>
       <use x="63.623047" xlink:href="#DejaVuSans-2e"/>
       <use x="95.410156" xlink:href="#DejaVuSans-32"/>
      </g>
     </g>
    </g>
    <g id="ytick_3">
     <g id="line2d_12">
      <g>
       <use style="stroke:#000000;stroke-width:0.8;" x="43.78125" xlink:href="#m89255dc4d5" y="179.7759"/>
      </g>
     </g>
     <g id="text_13">
      <!-- 0.4 -->
      <g transform="translate(20.878125 183.575119)scale(0.1 -0.1)">
       <use xlink:href="#DejaVuSans-30"/>
       <use x="63.623047" xlink:href="#DejaVuSans-2e"/>
       <use x="95.410156" xlink:href="#DejaVuSans-34"/>
      </g>
     </g>
    </g>
    <g id="ytick_4">
     <g id="line2d_13">
      <g>
       <use style="stroke:#000000;stroke-width:0.8;" x="43.78125" xlink:href="#m89255dc4d5" y="133.00785"/>
      </g>
     </g>
     <g id="text_14">
      <!-- 0.6 -->
      <g transform="translate(20.878125 136.807069)scale(0.1 -0.1)">
       <use xlink:href="#DejaVuSans-30"/>
       <use x="63.623047" xlink:href="#DejaVuSans-2e"/>
       <use x="95.410156" xlink:href="#DejaVuSans-36"/>
      </g>
     </g>
    </g>
    <g id="ytick_5">
     <g id="line2d_14">
      <g>
       <use style="stroke:#000000;stroke-width:0.8;" x="43.78125" xlink:href="#m89255dc4d5" y="86.2398"/>
      </g>
     </g>
     <g id="text_15">
      <!-- 0.8 -->
      <g transform="translate(20.878125 90.039019)scale(0.1 -0.1)">
       <use xlink:href="#DejaVuSans-30"/>
       <use x="63.623047" xlink:href="#DejaVuSans-2e"/>
       <use x="95.410156" xlink:href="#DejaVuSans-38"/>
      </g>
     </g>
    </g>
    <g id="ytick_6">
     <g id="line2d_15">
      <g>
       <use style="stroke:#000000;stroke-width:0.8;" x="43.78125" xlink:href="#m89255dc4d5" y="39.47175"/>
      </g>
     </g>
     <g id="text_16">
      <!-- 1.0 -->
      <g transform="translate(20.878125 43.270969)scale(0.1 -0.1)">
       <use xlink:href="#DejaVuSans-31"/>
       <use x="63.623047" xlink:href="#DejaVuSans-2e"/>
       <use x="95.410156" xlink:href="#DejaVuSans-30"/>
      </g>
     </g>
    </g>
    <g id="text_17">
     <!-- Probability density -->
     <g transform="translate(14.798438 186.606781)rotate(-90)scale(0.1 -0.1)">
      <defs>
       <path d="M 1259 4147 
L 1259 2394 
L 2053 2394 
Q 2494 2394 2734 2622 
Q 2975 2850 2975 3272 
Q 2975 3691 2734 3919 
Q 2494 4147 2053 4147 
L 1259 4147 
z
M 628 4666 
L 2053 4666 
Q 2838 4666 3239 4311 
Q 3641 3956 3641 3272 
Q 3641 2581 3239 2228 
Q 2838 1875 2053 1875 
L 1259 1875 
L 1259 0 
L 628 0 
L 628 4666 
z
" id="DejaVuSans-50" transform="scale(0.015625)"/>
       <path d="M 3116 1747 
Q 3116 2381 2855 2742 
Q 2594 3103 2138 3103 
Q 1681 3103 1420 2742 
Q 1159 2381 1159 1747 
Q 1159 1113 1420 752 
Q 1681 391 2138 391 
Q 2594 391 2855 752 
Q 3116 1113 3116 1747 
z
M 1159 2969 
Q 1341 3281 1617 3432 
Q 1894 3584 2278 3584 
Q 2916 3584 3314 3078 
Q 3713 2572 3713 1747 
Q 3713 922 3314 415 
Q 2916 -91 2278 -91 
Q 1894 -91 1617 61 
Q 1341 213 1159 525 
L 1159 0 
L 581 0 
L 581 4863 
L 1159 4863 
L 1159 2969 
z
" id="DejaVuSans-62" transform="scale(0.015625)"/>
       <path d="M 2059 -325 
Q 1816 -950 1584 -1140 
Q 1353 -1331 966 -1331 
L 506 -1331 
L 506 -850 
L 844 -850 
Q 1081 -850 1212 -737 
Q 1344 -625 1503 -206 
L 1606 56 
L 191 3500 
L 800 3500 
L 1894 763 
L 2988 3500 
L 3597 3500 
L 2059 -325 
z
" id="DejaVuSans-79" transform="scale(0.015625)"/>
       <path d="M 2834 3397 
L 2834 2853 
Q 2591 2978 2328 3040 
Q 2066 3103 1784 3103 
Q 1356 3103 1142 2972 
Q 928 2841 928 2578 
Q 928 2378 1081 2264 
Q 1234 2150 1697 2047 
L 1894 2003 
Q 2506 1872 2764 1633 
Q 3022 1394 3022 966 
Q 3022 478 2636 193 
Q 2250 -91 1575 -91 
Q 1294 -91 989 -36 
Q 684 19 347 128 
L 347 722 
Q 666 556 975 473 
Q 1284 391 1588 391 
Q 1994 391 2212 530 
Q 2431 669 2431 922 
Q 2431 1156 2273 1281 
Q 2116 1406 1581 1522 
L 1381 1569 
Q 847 1681 609 1914 
Q 372 2147 372 2553 
Q 372 3047 722 3315 
Q 1072 3584 1716 3584 
Q 2034 3584 2315 3537 
Q 2597 3491 2834 3397 
z
" id="DejaVuSans-73" transform="scale(0.015625)"/>
      </defs>
      <use xlink:href="#DejaVuSans-50"/>
      <use x="58.552734" xlink:href="#DejaVuSans-72"/>
      <use x="97.416016" xlink:href="#DejaVuSans-6f"/>
      <use x="158.597656" xlink:href="#DejaVuSans-62"/>
      <use x="222.074219" xlink:href="#DejaVuSans-61"/>
      <use x="283.353516" xlink:href="#DejaVuSans-62"/>
      <use x="346.830078" xlink:href="#DejaVuSans-69"/>
      <use x="374.613281" xlink:href="#DejaVuSans-6c"/>
      <use x="402.396484" xlink:href="#DejaVuSans-69"/>
      <use x="430.179688" xlink:href="#DejaVuSans-74"/>
      <use x="469.388672" xlink:href="#DejaVuSans-79"/>
      <use x="528.568359" xlink:href="#DejaVuSans-20"/>
      <use x="560.355469" xlink:href="#DejaVuSans-64"/>
      <use x="623.832031" xlink:href="#DejaVuSans-65"/>
      <use x="685.355469" xlink:href="#DejaVuSans-6e"/>
      <use x="748.734375" xlink:href="#DejaVuSans-73"/>
      <use x="800.833984" xlink:href="#DejaVuSans-69"/>
      <use x="828.617188" xlink:href="#DejaVuSans-74"/>
      <use x="867.826172" xlink:href="#DejaVuSans-79"/>
     </g>
    </g>
   </g>
   <g id="line2d_16">
    <path clip-path="url(#pf69db376aa)" d="M 60.013977 273.312 
L 79.837728 228.72927 
L 90.237073 205.893707 
L 99.01152 187.147621 
L 106.811029 171.00151 
L 113.960578 156.710442 
L 120.460169 144.20093 
L 126.63478 132.789061 
L 132.484411 122.439806 
L 138.009063 113.108725 
L 143.208736 104.744229 
L 148.408408 96.806403 
L 153.283101 89.770076 
L 157.832814 83.570937 
L 162.382528 77.739518 
L 166.607261 72.663776 
L 170.831995 67.923332 
L 175.056729 63.526107 
L 178.956483 59.778127 
L 182.856238 56.334198 
L 186.755992 53.199223 
L 190.330767 50.600726 
L 193.905542 48.268701 
L 197.480316 46.205939 
L 201.055091 44.414909 
L 204.304886 43.024309 
L 207.554682 41.86143 
L 210.804477 40.927422 
L 214.054272 40.223209 
L 217.304067 39.749488 
L 220.553863 39.506726 
L 223.803658 39.495164 
L 227.053453 39.714813 
L 230.303248 40.165456 
L 233.553044 40.846647 
L 236.802839 41.757713 
L 240.052634 42.897753 
L 243.302429 44.265639 
L 246.552225 45.860019 
L 250.126999 47.873549 
L 253.701774 50.156815 
L 257.276549 52.707085 
L 260.851324 55.521308 
L 264.751078 58.888441 
L 268.650832 62.560892 
L 272.550587 66.533431 
L 276.77532 71.169087 
L 281.000054 76.142538 
L 285.224788 81.445473 
L 289.774501 87.514626 
L 294.324215 93.943855 
L 299.198908 101.21772 
L 304.39858 109.39809 
L 309.598252 117.993351 
L 315.122904 127.556059 
L 320.972536 138.13462 
L 327.147147 149.769943 
L 333.646737 162.493183 
L 340.796287 176.992909 
L 348.595795 193.333924 
L 357.370243 212.257127 
L 367.769587 235.243155 
L 382.393666 268.164852 
L 384.668523 273.312 
L 384.668523 273.312 
" style="fill:none;stroke:#ff7f0e;stroke-linecap:square;stroke-width:1.5;"/>
   </g>
   <g id="patch_203">
    <path d="M 43.78125 273.312 
L 43.78125 7.2 
" style="fill:none;stroke:#000000;stroke-linecap:square;stroke-linejoin:miter;stroke-width:0.8;"/>
   </g>
   <g id="patch_204">
    <path d="M 400.90125 273.312 
L 400.90125 7.2 
" style="fill:none;stroke:#000000;stroke-linecap:square;stroke-linejoin:miter;stroke-width:0.8;"/>
   </g>
   <g id="patch_205">
    <path d="M 43.78125 273.312 
L 400.90125 273.312 
" style="fill:none;stroke:#000000;stroke-linecap:square;stroke-linejoin:miter;stroke-width:0.8;"/>
   </g>
   <g id="patch_206">
    <path d="M 43.78125 7.2 
L 400.90125 7.2 
" style="fill:none;stroke:#000000;stroke-linecap:square;stroke-linejoin:miter;stroke-width:0.8;"/>
   </g>
  </g>
 </g>
 <defs>
  <clipPath id="pf69db376aa">
   <rect height="266.112" width="357.12" x="43.78125" y="7.2"/>
  </clipPath>
 </defs>
</svg>
